<svg version="1.1" viewBox="0 0 24 24" xmlns="http://www.w3.org/2000/svg"><path class="OfficeIconColors_m22" d="m5.2062 5.2062q0.20615-0.2062 0.48839-0.2062 0.29302 0 0.49917 0.2062l5.8062 5.8062 5.8062-5.8062q0.20622-0.2062 0.49924-0.2062t0.48832 0.2062q0.20622 0.20621 0.20622 0.48838 0 0.29302-0.20622 0.49923l-5.8062 5.8062 5.8062 5.8062q0.20622 0.2062 0.20622 0.49923 0 0.29302-0.20622 0.48837-0.20615 0.20621-0.48832 0.20621-0.29302 0-0.49924-0.20621l-5.8062-5.8062-5.8062 5.8062q-0.20615 0.20621-0.49917 0.20621-0.29309 0-0.48839-0.20621-0.20622-0.2062-0.20622-0.48837 0-0.29303 0.20622-0.49923l5.8062-5.8062-5.8062-5.8062q-0.20622-0.20621-0.20622-0.49923 0-0.29303 0.20622-0.48838z" fill="#4d4d4d" type="path"/></svg>
