<svg version="1.1" viewBox="0 0 24 24" xmlns="http://www.w3.org/2000/svg"><path d="m19.496 15.493-3.9952 4.0003-3.9952-4.0003" fill="none" stroke="#3a3a38" stroke-linecap="round" stroke-linejoin="round" stroke-width=".99944"/><path d="m15.501 19.493v-14.993" fill="none" stroke="#3a3a38" stroke-linecap="round" stroke-linejoin="round" stroke-width=".99944"/><path d="m9.997 13v0.4589c0 0.14612-0.043379 0.2831-0.13014 0.41096l-4.1233 5.1164h4.2534v1.0137h-5.7603v-0.4863c0-0.06849 0.011415-0.13242 0.034248-0.19178 0.022833-0.05936 0.052512-0.11644 0.089041-0.17123l4.1164-5.137h-4.0959v-1.0137z" fill="#a846b2" stroke-width=".35068"/><path d="m6.6313 4-2.627 7h0.75195c0.081684 0 0.15021-0.02219 0.20703-0.06836 0.060376-0.04617 0.10174-0.09978 0.12305-0.16016l0.625-1.7715h2.8223l0.62695 1.7754c0.028412 0.06393 0.067467 0.11754 0.11719 0.16016 0.053273 0.042619 0.12375 0.064453 0.20898 0.064453h0.75l-2.6211-7zm0.49023 0.91602c0.031963 0.13141 0.064094 0.25354 0.099609 0.36719s0.071907 0.21359 0.10742 0.29883l0.85352 2.418h-2.1191l0.84961-2.4121c0.031963-0.08524 0.066048-0.18518 0.10156-0.29883 0.035515-0.11365 0.071907-0.23809 0.10742-0.37305z" fill="#1e8bcd"/></svg>
