<svg version="1.1" viewBox="0 0 24 24" xmlns="http://www.w3.org/2000/svg"><rect x="4" y="4" width="16" height="16" rx="1" ry="1" fill="#3a3a38"/><path d="m5 5h14v14h-14z" fill="#fafafa"/><path d="m9.7925 6-3.7925 10h1.0839c0.11795 0 0.21803-0.03365 0.30009-0.09961 0.087184-0.06596 0.14691-0.14226 0.17768-0.22852l0.95159-2.6719h3.9781l0.95554 2.6797c0.04103 0.09132 0.09799 0.16763 0.16978 0.22852 0.07693 0.06088 0.17503 0.0918 0.29811 0.0918h1.0858l-3.7847-10zm0.70678 1.3086c0.04616 0.18772 0.09481 0.36304 0.1461 0.52539 0.05129 0.16235 0.10271 0.30402 0.15399 0.42578l1.3346 3.7402h-3.2634l1.3287-3.7324c0.04616-0.12177 0.09679-0.26343 0.14807-0.42578 0.05128-0.16235 0.10073-0.34041 0.15202-0.5332z" fill="#1e8bcd" stroke-width=".38965"/><g transform="translate(4,4)" fill="#797774"><rect x="11" y="6" width="3" height="1" rx=".48305" ry=".48305"/><rect x="10" y="3" width="4" height="1" rx=".5" ry=".5"/><rect x="2" y="13" width="12" height="1" rx=".4322" ry=".4322"/><rect x="12" y="9" width="2" height="1" rx=".46404" ry=".46404"/></g></svg>
