<svg version="1.1" viewBox="0 0 24 24" xmlns="http://www.w3.org/2000/svg"><g transform="translate(4,4)"><path d="m5 11v4h6v-4z" fill="#fafafa" fill-rule="evenodd"/><path d="m1 5c-0.554 0-1 0.446-1 1v5c0 0.554 0.446 1 1 1h3v3.1426c0 0.47486 0.38256 0.85742 0.85742 0.85742h6.2852c0.47486 0 0.83814-0.38296 0.85742-0.85742v-3.1426h3c0.554 0 1-0.446 1-1v-5c0-0.554-0.446-1-1-1h-1v2h-12v-2zm4 6h6v4h-6z" fill="#3a3a38"/><path d="m4 1v4h8v-4z" fill="#fafafa" fill-rule="evenodd"/><path d="m1 6v5h12v-1h2v-4h-1v1h-12v-1z" fill="#797774"/><path d="m13 10h2v1h-2z" fill="#fafafa"/><path d="m3.8574 0c-0.47486 0-0.85742 0.38256-0.85742 0.85742v5.1426h10v-5.1426c0-0.47486-0.38256-0.85742-0.85742-0.85742zm0.14258 1h8v4h-8z" fill="#3a3a38"/></g></svg>
