<svg version="1.1" viewBox="0 0 24 24" xmlns="http://www.w3.org/2000/svg"><g transform="matrix(-1,0,0,1,0,-2)" fill="#3a3a38"><rect x="-22" y="15" width="11" height="1" rx=".5" ry=".5"/><rect x="-22" y="9" width="11" height="1" rx=".5" ry=".5"/><rect x="-22" y="12" width="11" height="1" rx=".5" ry=".5"/><rect x="-22" y="18" width="11" height="1" rx=".5" ry=".5"/></g><path d="m2.1456 15.645c0-0.12781 0.048549-0.25558 0.14648-0.35352 0.19587-0.19587 0.51312-0.19587 0.70898 0l1.9989 2.0022v-3.7932c0-0.277 0.223-0.5 0.5-0.5s0.5 0.223 0.5 0.5v3.7932l2.0022-2.0022c0.19587-0.19587 0.51312-0.19587 0.70898 0 0.09793 0.09793 0.14648 0.22571 0.14648 0.35352s-0.04855 0.25754-0.14648 0.35547l-2.8577 2.8537c-0.04701 0.04701-0.10324 0.08407-0.16602 0.10938-0.0579 0.02334-0.12105 0.03711-0.1875 0.03711s-0.1296-0.01377-0.1875-0.03711c-0.06278-0.0253-0.119-0.06236-0.16602-0.10938l-2.8544-2.8537c-0.09793-0.09793-0.14648-0.22766-0.14648-0.35547z" fill="#1e8bcd"/><path d="m2.1456 8.3555c0 0.12781 0.048549 0.25558 0.14648 0.35352 0.19587 0.19587 0.51312 0.19587 0.70898 0l1.9989-2.0022v3.7932c0 0.277 0.223 0.5 0.5 0.5s0.5-0.223 0.5-0.5v-3.7932l2.0022 2.0022c0.19587 0.19587 0.51312 0.19587 0.70898 0 0.09793-0.09793 0.14648-0.22571 0.14648-0.35352s-0.04855-0.25754-0.14648-0.35547l-2.8577-2.8537c-0.04701-0.04701-0.10324-0.08407-0.16602-0.10938-0.0579-0.02334-0.12105-0.03711-0.1875-0.03711s-0.1296 0.01377-0.1875 0.03711c-0.06278 0.0253-0.119 0.06236-0.16602 0.10938l-2.8544 2.8537c-0.09793 0.09793-0.14648 0.22766-0.14648 0.35547z" fill="#1e8bcd"/></svg>
