<svg version="1.1" viewBox="0 0 24 24" xmlns="http://www.w3.org/2000/svg"><path d="m19 10.502c0-0.12781-0.04854-0.25558-0.14648-0.35352l-6-6.002c-0.04701-0.04702-0.10324-0.08407-0.16602-0.10938-0.0579-0.02334-0.12105-0.03711-0.1875-0.03711s-0.1296 0.01377-0.1875 0.03711c-0.06278 0.0253-0.119 0.06236-0.16602 0.10938l-6 6.002c-0.097944 0.09793-0.14648 0.22571-0.14648 0.35352-1e-6 0.12781 0.04855 0.25559 0.14648 0.35352 0.19587 0.19587 0.51116 0.19587 0.70703 0l5.1465-5.1484v13.793c0 0.277 0.223 0.5 0.5 0.5s0.5-0.223 0.5-0.5v-13.793l5.1465 5.1484c0.19587 0.19587 0.51116 0.19587 0.70703 0 0.09793-0.09793 0.14648-0.22571 0.14648-0.35352z" fill="#1e8bcd"/></svg>
