<svg version="1.1" viewBox="0 0 24 24" xmlns="http://www.w3.org/2000/svg">/&amp;amp;gt;<path d="m5 10h14v9h-14z" fill="#fafafa"/><path d="m4.5 4c-0.2763-3.839e-4 -0.50038 0.2237-0.5 0.5v5.5 4 5.5c-3.844e-4 0.2763 0.2237 0.50038 0.5 0.5h15c0.2763 3.84e-4 0.50038-0.2237 0.5-0.5v-5.5-4-5.5c3.84e-4 -0.2763-0.2237-0.50038-0.5-0.5h-15zm0.49805 0.99805h14.004v5.002 4 5.002h-14.004v-5.002-4-5.002z" fill="#3a3a38"/><path d="m9 5v4h-4v1h4v4h-4v1h4v4h1v-4h4v4h1v-4h4v-1h-4v-4h4v-1h-4v-4h-1v4h-4v-4h-1zm1 5h4v4h-4v-4z" fill="#797774"/></svg>
