<svg version="1.1" viewBox="0 0 24 24" xmlns="http://www.w3.org/2000/svg"><path d="m11.82 4a0.51587 0.51587 0 0 0-0.48828 0.36719l-1.5762 5.2578h-5.2422a0.51587 0.51587 0 0 0-0.30859 0.92773l4.2383 3.1797-1.0605 5.3066a0.51587 0.51587 0 0 0 0.8418 0.49414l3.6406-3.1211 4.7383 3.1582a0.51587 0.51587 0 0 0 0.7793-0.57813l-1.5918-5.3027 3.6836-3.1562a0.51587 0.51587 0 0 0-0.33594-0.9082h-4.7129l-2.1211-5.3008a0.51587 0.51587 0 0 0-0.48438-0.32422z" fill="#ed8733"/><path d="m14 5 0.5 1h4.5v-1zm1 2 0.5 1h4.5v-1zm2 8 0.5 1h2.5v-1zm1 2 0.5 1h2.5v-1z" fill="#fb983b"/><path d="m11.895 6.0508-1.2715 4.2363a0.50656 0.50656 0 0 1-0.48438 0.35937h-4.1074l3.2871 2.4648a0.50656 0.50656 0 0 1 0.19141 0.50391l-0.83789 4.1855 2.8242-2.4199a0.50656 0.50656 0 0 1 0.61133-0.03711l3.8926 2.5957-1.2832-4.2773a0.50656 0.50656 0 0 1 0.1543-0.53125l2.8984-2.4844h-3.6934a0.50656 0.50656 0 0 1-0.4707-0.31836z" fill="#f8db8f"/></svg>
