<svg version="1.1" viewBox="0 0 24 24" xmlns="http://www.w3.org/2000/svg">/&amp;amp;amp;amp;gt;<path d="m5 8c-0.554 0-1 0.446-1 1v8c0 0.554 0.446 1 1 1h6.3926l-0.99805-1h-5.3945v-8h5c0-0.34242 0.03404-0.67693 0.09961-1z" fill="#3a3a38"/><path d="m5 9v8h5.3945l-2.1973-2.1973a0.50005 0.50005 0 0 1 0-0.70703l2.5313-2.5312c-0.45281-0.75216-0.72852-1.6225-0.72852-2.5645z" fill="#fafafa"/><path d="m15 4c-2.7614 0-5 2.2386-5 5 0 0.94191 0.27571 1.8123 0.72852 2.5645l0.72266-0.72266a4 4 0 0 1-0.45117-1.8418 4 4 0 0 1 4-4 4 4 0 0 1 4 4 4 4 0 0 1-1.8945 3.3984l0.7207 0.7207c1.3107-0.90142 2.1738-2.4082 2.1738-4.1191 0-2.7614-2.2386-5-5-5z" fill="#3a3a38" stroke-width=".83333"/><path d="m13.492 9.0499a0.50005 0.50005 0 0 0-0.3457 0.14648l-4.9492 4.9492a0.50005 0.50005 0 0 0 0 0.70703l4.9492 4.9512a0.50005 0.50005 0 0 0 0.70703 0l4.9492-4.9512a0.50005 0.50005 0 0 0 0-0.70703l-4.9492-4.9492a0.50005 0.50005 0 0 0-0.36133-0.14648zm0.007812 1.207 4.2422 4.2422-4.2422 4.2441-4.2422-4.2441z" fill="#3a3a38"/><path d="m13.5 10.257-4.2422 4.2422 4.2422 4.2441 4.2422-4.2441z" fill="#fafafa" fill-rule="evenodd"/><path d="m15 5a4 4 0 0 0-4 4 4 4 0 0 0 0.45117 1.8418l1.6953-1.6953a0.50005 0.50005 0 0 1 0.3457-0.14648 0.50005 0.50005 0 0 1 0.36133 0.14648l3.252 3.252a4 4 0 0 0 1.8945-3.3984 4 4 0 0 0-4-4z" fill="#fafafa"/></svg>
