<?xml-stylesheet type="text/css" href="icons.css" ?>
<svg version="1.1" viewBox="0 0 24 24" xmlns="http://www.w3.org/2000/svg"><g transform="translate(4,4)" fill="#3a3a38"><g transform="rotate(45,8,8)" fill="#4b3a39" stroke-linecap="round" stroke-linejoin="round" stroke-width="2"><path d="m12.95 2.0502c-0.2652 4.01e-5 -0.51952 0.10542-0.70703 0.29297l-9.8996 9.8996c-0.39042 0.39051-0.39042 1.0236 0 1.4141 0.39051 0.39042 1.0236 0.39042 1.4141 0l9.8996-9.8996c0.39042-0.39051 0.39042-1.0236 0-1.4141-0.1875-0.18755-0.44183-0.29293-0.70703-0.29297z" stop-color="#000000"/><path d="m2.3431 2.3431c-0.39042 0.39051-0.39042 1.0236 0 1.4141l9.8996 9.8996c0.39051 0.39042 1.0236 0.39042 1.4141 0 0.39042-0.39051 0.39042-1.0236 0-1.4141l-9.8996-9.8996c-0.39051-0.39042-1.0236-0.39042-1.4141 0z" stop-color="#000000"/></g></g></svg>
