<svg version="1.1" viewBox="0 0 24 24" xmlns="http://www.w3.org/2000/svg"><path d="m5.5 5.5h13v13h-13z" fill="#fafafa"/><path d="m4 4.5v15h16v-15zm1 1h14v13h-14z" fill="#3a3a38"/><path d="m10.5 8.5a2 2 0 0 1-2 2 2 2 0 0 1-2-2 2 2 0 0 1 2-2 2 2 0 0 1 2 2z" fill="#ed8733" stroke-width=".8"/><path d="m9.5 8.5a1 1 0 0 1-1 1 1 1 0 0 1-1-1 1 1 0 0 1 1-1 1 1 0 0 1 1 1z" fill="#f8db8f"/><path d="m15.5 12.5-6 6h9.5v-2.5zm-6 2-4 4h2.5l2.75-2.75z" fill="#83beec"/><path d="m15.5 11-4 4-2-2-4.5 4.5v1h0.5l4-4 1.25 1.25-2.75 2.75h1.5l6-6 3.5 3.5v-1.5z" fill="#0063b1"/></svg>
