<svg version="1.1" viewBox="0 0 24 24" xmlns="http://www.w3.org/2000/svg"><path d="m5 5v14h14v-14z" fill="#fff"/><path d="m5 4c-0.554 0-1 0.446-1 1v14c0 0.554 0.446 1 1 1h14c0.554 0 1-0.446 1-1v-14c0-0.554-0.446-1-1-1zm0 1h14v14h-14z" fill="#3a3a38"/><path d="m15 4c-0.554 0-1 0.446-1 1v14c0 0.554 0.446 1 1 1h4c0.554 0 1-0.446 1-1v-14c0-0.554-0.446-1-1-1zm0 1h4v14h-4z" fill="#0063b1"/><path d="m15 5v14h4v-14z" fill="#83beec"/><g transform="translate(-6.9993 1.8545)"><path d="m17.355 8.2912c0.12781 0 0.25558 0.048549 0.35352 0.14648 0.19587 0.19587 0.19587 0.51312 0 0.70898l-2.0022 1.9989h3.7932c0.277 0 0.5 0.223 0.5 0.5s-0.223 0.5-0.5 0.5h-3.7932l2.0022 2.0022c0.19587 0.19587 0.19587 0.51312 0 0.70898-0.09793 0.09793-0.22571 0.14648-0.35352 0.14648s-0.25754-0.04855-0.35547-0.14648l-2.8537-2.8577c-0.04701-0.04701-0.08407-0.10324-0.10938-0.16602-0.02334-0.0579-0.03711-0.12105-0.03711-0.1875s0.01377-0.1296 0.03711-0.1875c0.0253-0.06278 0.06236-0.119 0.10938-0.16602l2.8537-2.8544c0.09793-0.09793 0.22766-0.14648 0.35547-0.14648z" fill="#1e8bcd"/></g></svg>
