<svg version="1.1" viewBox="0 0 24 24" xmlns="http://www.w3.org/2000/svg"><g transform="translate(4.5391 4)"><path d="m8 0c-0.81784 0-1.9961 0.65872-1.9961 1.4766-1.553e-4 0.098574 0.00993 0.19632 0.029297 0.29297l0.33984 3.0449c-0.027599 0.88686-0.9398 1.055-1.666 1.1836l-0.96484 0.00391c-0.41019 0.0016531-0.81398 0.33637-0.74219 0.74023v3.2578h10v-3.2578c0.0718-0.40386-0.332-0.73858-0.74219-0.74023l-0.96484-0.00391c-0.72621-0.12855-1.6384-0.29673-1.666-1.1836l0.33984-3.0449c0.019367-0.096648 0.029452-0.19439 0.029297-0.29297 0-0.81784-1.1782-1.4766-1.9961-1.4766z" fill="#3a3a38" stroke-width=".74042"/><path d="m3.7148 11c-0.048637 0.20654-0.01883 0.72852-0.0625 0.91016 2.9501 1.0994 6.2844 0.97711 8.3112 1.1731-0.014499-0.48911 0.045009-1.3449 0.036497-2.0833z" fill="#fafafa" stroke-width=".82367"/><path d="m3.4375 12.818c-0.157 0.6121-0.36653 1.7037-0.52734 2.1816l9.1623 0.0221c-0.03353-0.07558-0.10907-0.94982-0.13281-1.0332-0.0038-0.01037-0.01084-0.0136-0.01172-0.0293l-2e-3 0.03906c-2.3811-0.21027-5.9295-0.2834-8.4885-1.1803z" fill="#f8db8f" stroke-width=".78906"/><g stroke-width=".74042"><path d="m3 10c-0.3858 2.4791-0.97905 4.5892-1.4648 6h11.852c-0.19884-1.2994-0.46193-2.6745-0.38672-6zm0.71484 1h8.2852c0.0085 0.7384-0.05099 1.5941-0.0365 2.0833-2.0267-0.19599-5.3611-0.073658-8.3112-1.1731 0.04367-0.18164 0.013863-0.70361 0.0625-0.91016zm-0.27734 1.8184c2.5589 0.89689 6.1073 0.97003 8.4885 1.1803l2e-3 -0.03906c8.78e-4 0.0157 0.0079 0.01892 0.01172 0.0293 0.02374 0.08338 0.09929 0.95762 0.13281 1.0332l-9.1624-0.0221c0.16082-0.47799 0.37035-1.5695 0.52734-2.1816z" fill="#ed8733"/><path d="m8 1.002c-0.13993 0-0.51374 0.10542-0.74609 0.26172-0.23236 0.1563-0.24805 0.28511-0.24805 0.21289a1.002 1.002 0 0 1 0 0.00195c-4.6e-5 0.029193 0.0028 0.059003 0.00977 0.09375a1.002 1.002 0 0 1 0.013672 0.085937l0.33984 3.0449a1.002 1.002 0 0 1 0.0058594 0.14258c-0.024413 0.78448-0.58275 1.4573-1.1074 1.7324s-1.0207 0.34145-1.3867 0.40625a1.002 1.002 0 0 1-0.16992 0.015625l-0.70898 0.00195v1.9961h7.9961v-1.9961l-0.70898-0.0019531a1.002 1.002 0 0 1-0.16992-0.015625c-0.36605-0.064797-0.86204-0.13116-1.3867-0.40625-0.52468-0.27509-1.083-0.94794-1.1074-1.7324a1.002 1.002 0 0 1 0.0058594-0.14258l0.33984-3.0449a1.002 1.002 0 0 1 0.013672-0.085937c0.00696-0.034744 0.00981-0.064552 0.00977-0.09375a1.002 1.002 0 0 1 0-0.00195c0 0.072224-0.015691-0.056593-0.24805-0.21289-0.23236-0.1563-0.60617-0.26172-0.7461-0.26172z" fill="#fafafa"/></g></g></svg>
