<svg version="1.1" viewBox="0 0 24 24" xmlns="http://www.w3.org/2000/svg"><g transform="translate(25)" fill="#3a3a38"><rect x="-12" y="11" width="7" height="1" rx=".5" ry=".5" fill="#3a3a38"/><rect x="-14" y="15" width="9" height="1" rx=".5" ry=".5"/><rect x="-14" y="7" width="9" height="1" rx=".5" ry=".5"/></g><path d="m6.6445 8.1456c-0.12781 0-0.25558 0.048549-0.35352 0.14648-0.19587 0.19587-0.19587 0.51312 0 0.70898l2.0022 1.9989h-3.7932c-0.277 0-0.5 0.223-0.5 0.5s0.223 0.5 0.5 0.5h3.7932l-2.0022 2.0022c-0.19587 0.19587-0.19587 0.51312 0 0.70898 0.09793 0.09793 0.22571 0.14648 0.35352 0.14648s0.25754-0.04855 0.35547-0.14648l2.8537-2.8577c0.04701-0.04701 0.08407-0.10324 0.10938-0.16602 0.02334-0.0579 0.03711-0.12105 0.03711-0.1875s-0.01377-0.1296-0.03711-0.1875c-0.0253-0.06278-0.06236-0.119-0.10938-0.16602l-2.8537-2.8544c-0.09793-0.09793-0.22766-0.14648-0.35547-0.14648z" fill="#1e8bcd"/></svg>
