<svg version="1.1" viewBox="0 0 24 24" xmlns="http://www.w3.org/2000/svg"><g transform="translate(4,4)"><path d="m0.5 0c-0.277 0-0.5 0.223-0.5 0.5v11c0 0.277 0.223 0.5 0.5 0.5h3.0605c0.088178-0.14306 0.1692-0.2917 0.27148-0.43555 0.14251-0.20041 0.32429-0.38694 0.52734-0.56445h-3.3594v-10h14v1.0039c0.07723-0.012181 0.1527-0.026661 0.24219-0.029297 0.25182-0.0072069 0.51502 0.067406 0.75781 0.18164v-1.6562c0-0.277-0.223-0.5-0.5-0.5zm15.5 8.6582c-0.37124 0.55291-0.71012 1.018-1 1.3711v0.9707h-0.91992c-0.27648 0.26271-0.66384 0.6235-1.0918 1h2.5117c0.277 0 0.5-0.223 0.5-0.5z" fill="#3a3a38"/><path d="m1 1v10h3.3594c0.46607-0.40745 1.0862-0.74581 1.9004-0.94141a1.0259 1.0259 0 0 1 0.1543-0.02344c0.062831-0.0052 0.15102-0.0084 0.2207-0.01367 0.036778-0.055289 0.030831-0.12137 0.074219-0.17383 1e-3 -0.00121 9.485e-4 -0.0027 0.00195-0.00391 2.4384-3.4178 3.3051-4.9031 7.4941-7.5215 0.19057-0.11944 0.43377-0.2614 0.79492-0.31836v-1.0039zm14 9.0293c-0.24139 0.29406-0.57022 0.63842-0.91992 0.9707h0.91992z" fill="#fafafa"/><path d="m3 2v2h8.7734c0.36861-0.28605 0.77783-0.58093 1.2266-0.88672v-1.1133z" fill="#797774" stroke-width=".91287"/><path d="m3 5v1h1v-1zm2 0v1h4.6133c0.30373-0.33933 0.62271-0.67251 0.97461-1zm-2 2v1h1v-1zm2 0v1h3.0332c0.24768-0.34115 0.50849-0.69304 0.74805-1zm-2 2v1h1v-1zm2 0v1h1.6445c0.024108-0.050413 0.026481-0.10644 0.064453-0.15234 1e-3 -0.00121 9.485e-4 -0.0027 0.00195-0.00391 0.22889-0.32082 0.40024-0.55444 0.60547-0.84375z" fill="#c8c6c4"/><path d="m15.271 3c-0.17789 0.00524-0.37069 0.096893-0.52148 0.19141-4.1368 2.5855-4.75 3.8086-7.25 7.3086-0.12256 0.14744-0.19249 0.32502-0.2168 0.50977 0.24454-0.0079 0.49524-0.0095 0.72852 2e-3 0.10653 0.02223 0.19593 0.05525 0.29102 0.08398a1.0001 1.0001 0 0 0 0.011719-0.01367c2.4324-3.4054 3.0076-4.478 6.6855-6.8262v2.2617c-1.9835 2.9425-1.1247 2.0303-4.707 5.1523a1.0001 1.0001 0 0 1-2e-3 2e-3c-0.50135 0.02453-0.77235 0.02628-0.98828 0.0059 0.10586 0.10542 0.2099 0.22055 0.3125 0.35547 0.081134 0.18498 0.17497 0.40606 0.25195 0.64453 0.15164-0.0015 0.28533 0.0014 0.47266-0.0078 0.22504-0.01109 0.43975-0.0978 0.60938-0.24609 3.5746-3.1154 2.9129-2.4305 4.8809-5.3497 0.11091-0.16517 0.17007-0.35964 0.16992-0.55859v-2.5c-1.47e-4 -0.56377-0.16498-1.0318-0.72852-1.0156z" fill="#3a3a38"/><path d="m7.2305 11.01c-0.26119 0.00974-0.51433 0.028897-0.73047 0.046875-2.0567 0.4941-1.7371 1.337-3.2812 3.3223-0.51645 0.66516-0.060862 1.6276 0.78125 1.6289 2.7116-0.17335 3.7401 0.52889 5.5781-1.2344 0.07164-0.07132 0.13221-0.15295 0.17969-0.24219 0.16311-0.35169 0.26189-0.68261 0.25977-1.0117-0.0037-0.56826-0.23225-1.0985-0.40234-1.4863-0.44161-0.58076-0.87999-0.87049-1.6035-1.0215-0.25016-0.0123-0.52006-0.01169-0.78125-2e-3zm0.013672 0.97852c0.21083 0.0016 0.43125 0.02151 0.66602 0.05274 0.64578 0.22609 1.0391 0.66282 1.084 1.5078 4.787e-4 0.07407-0.016144 0.17742-0.048828 0.29688l-3.0938-1.4238c0.45243-0.32614 0.89617-0.4373 1.3926-0.43359zm-2.0586 1.2266 3.0215 1.3906c-0.40276 0.26995-0.73003 0.35714-1.1699 0.39258-0.90421-0.0092-2.4189-0.0088-3.0352-0.0098 0.60373-0.77621 0.9276-1.3377 1.1836-1.7734z" fill="#0063b1"/><path d="m5.1855 13.215c-0.256 0.43571-0.57986 0.99723-1.1836 1.7734 0.61621 9.77e-4 2.1309 5.87e-4 3.0352 0.0098 0.43989-0.03543 0.76716-0.12263 1.1699-0.39258z" fill="#83beec"/><g fill="#fafafa"><path d="m7.2441 11.988c-0.49026-0.0037-0.93034 0.12254-1.377 0.43945l3.0781 1.418c0.032685-0.11948 0.049307-0.22281 0.048828-0.29688-0.044845-0.845-0.4382-1.2817-1.084-1.5078-0.23477-0.031228-0.45518-0.051161-0.66602-0.052735z"/><path d="m15 4.2559c-3.678 2.3482-4.2532 3.4208-6.6855 6.8262a1.0001 1.0001 0 0 1-0.011719 0.01367c0.40069 0.12108 0.71728 0.3005 1 0.58203 0.21593 0.02043 0.48694 0.01867 0.98828-0.0059a1.0001 1.0001 0 0 1 2e-3 -2e-3c3.5822-3.1219 2.7235-2.2098 4.707-5.1523v-0.00195z"/></g></g></svg>
