<svg viewBox="0 0 24 24" xmlns="http://www.w3.org/2000/svg" xmlns:xlink="http://www.w3.org/1999/xlink" shape-rendering="geometricPrecision" text-rendering="geometricPrecision" project-id="d8b5a1e82e3f478087a56ee78fab23f3" export-id="ff9e001713f049e293d3142f05eb143a" cached="false"><path d="M4,5.934437c.057859.15757,0,.42511,0,.6s.057859.307993,0,.465563h15v10h-12.5L5,15.5v-2.666016L4.99957,6.000001c-.15757.057859-.384025.000001-.558916.000001s-.283084.057857-.440654-.000002v7v3l2,2h14v-12L4,5.934437Z" transform="translate(-1 0)" fill="#797774"/><path d="M2,3.908897L2,5h19.001953L21,18.998047h-13v-4c0-.554-.446-1-1-1h-4v-2.876953-7.212197h-1v10.08915.662109.330078c0,.383581-.00053.386179.736328,1.095704l3.236328,3.30664c.640994.703509.617681.605469,1.06836.605469h.207031h13.751953c.554,0,1-.446,1-1L22.001953,5c0-.554-.223-1-.5-1C17.37516,4,2,3.908897,2,3.908897" transform="translate(-1.000976 0.00001)" fill="#3a3a38" stroke-linejoin="bevel"/><path d="M6.99957,14.99762v4l-4-4h4Z" transform="translate(-1 0)" fill="#fafafa" fill-rule="evenodd"/><g transform="matrix(.904493 0 0 0.893844 2.220415 2.698243)"><g transform="translate(10.542704 5.208724)"><path d="M16.5,11c-2.842075.0024-5.214286,2.169693-5.472656,5h1.003906c.2545-2.276321,2.178247-3.998276,4.46875-4c1.903272.0043,3.598001,1.205572,4.232422,3L18.5,15c-.277,0-.5.223-.5.5s.223.5.5.5h3c.06925,0,.135453-.01383.195312-.03906C21.874891,15.885234,22,15.70775,22,15.5v-3c0-.277-.223-.5-.5-.5s-.5.223-.5.5v.849609C19.972769,11.879598,18.293357,11.002717,16.5,11Zm-5,6c-.277,0-.5.223-.5.5v3c0,.277.223.5.5.5s.5-.223.5-.5v-.867188C12.99762,21.064211,14.64246,21.999117,16.5,22c2.842075-.0024,5.214286-2.169693,5.472656-5h-1.003906c-.2545,2.276321-2.178247,3.998276-4.46875,4-1.937261-.0023-3.59894-1.24237-4.222656-3L14.5,18c.277,0,.5-.223.5-.5s-.223-.5-.5-.5h-3Z" transform="translate(-9.717997-5.711104)" fill="#18ab50"/></g></g></svg>
