<svg viewBox="0 0 24 24" xmlns="http://www.w3.org/2000/svg">
  <path d="M4 6.5h10c0.55 0 1 0.45 1 1s-0.45 1-1 1H4c-0.55 0-1-0.45-1-1s0.45-1 1-1z" fill="#3a3a38"/>
  <path d="M4 10.5h7c0.55 0 1 0.45 1 1s-0.45 1-1 1H4c-0.55 0-1-0.45-1-1s0.45-1 1-1z" fill="#3a3a38"/>
  <path d="M12.2 14.1l4.7-4.7c0.2-0.2 0.5-0.2 0.7 0l1.6 1.6c0.2 0.2 0.2 0.5 0 0.7l-4.7 4.7-3.5 0.9 1.2-3.2z" fill="#3a3a38"/>
  <path d="M11 17.1l0.6-1.7 1.1 1.1-1.7 0.6z" fill="#1e8bcd"/>
  <path d="M19 4l0.6 1.7L21.3 6 19.6 6.6 19 8.3 18.4 6.6 16.7 6 18.4 5.7z" fill="#1e8bcd"/>
</svg>
