<svg version="1.1" viewBox="0 0 24 24" xmlns="http://www.w3.org/2000/svg"><path d="m10.684 4.5059a6.5 6.5 0 0 1 0.31445 1.9941 6.5 6.5 0 0 1-6.5 6.5 6.5 6.5 0 0 1-1.9922-0.3125v6.4062c0 0.2216 0.17879 0.40039 0.40039 0.40039h18.188c0.2216 0 0.40039-0.17879 0.40039-0.40039v-14.188c0-0.2216-0.17879-0.40039-0.40039-0.40039h-10.41z" fill="#fafafa" stop-color="#000000" style="paint-order:fill markers stroke"/><path d="m10.5 4.0059a6.5 6.5 0 0 1 0.32422 1h10.17v13.988h-17.988v-6.168a6.5 6.5 0 0 1-1-0.32227v6.5898c0 0.48995 0.41044 0.90039 0.90039 0.90039h18.188c0.48995 0 0.90039-0.41044 0.90039-0.90039v-14.188c0-0.48995-0.41044-0.90039-0.90039-0.90039h-10.594z" fill="#3a3a38" stop-color="#000000" style="paint-order:fill markers stroke"/><path d="m10.979 7a6.5 6.5 0 0 1-0.48047 2h8.502v-2h-8.0215z" fill="#797774" style="paint-order:fill markers stroke"/><path d="m9.1875 11a6.5 6.5 0 0 1-4.1816 1.9805v0.019531 2 2h6v-2-2-2h-1.8184z" fill="#797774" style="paint-order:fill markers stroke"/><path d="m6.0289 2.0021c-0.75145-0.027391-1.5126 0.21933-2.1226 0.74592l-1e-3 -9.748e-4 -3.4054 3.3947v-3.1399h-0.49989v3.9991h3.9991v-0.49989h-3.1516l3.4113-3.4006c1.0243-0.85945 2.5356-0.79368 3.4816 0.15133 0.94502 0.94598 1.0186 2.4651 0.15914 3.4894l-0.0019-0.00195-3.8986 3.9063 0.35441 0.35441 3.8995-3.9054-2e-3 -0.00195c1.0527-1.2193 0.9788-3.0522-0.15915-4.1924-0.56999-0.5696-1.3116-0.87084-2.063-0.89823z" fill="#1e8bcd" stroke="#1e8bcd" stroke-linecap="round" stroke-linejoin="round" stroke-miterlimit="0" stroke-width=".49989"/><path d="m13 11v6h6v-6z" fill="#797774" style="paint-order:fill markers stroke"/></svg>
