<?xml version="1.0" encoding="UTF-8" standalone="no"?>
<!DOCTYPE svg PUBLIC "-//W3C//DTD SVG 1.1//EN" "http://www.w3.org/Graphics/SVG/1.1/DTD/svg11.dtd">
<svg viewBox="0 0 24 24" version="1.1" xmlns="http://www.w3.org/2000/svg" xmlns:xlink="http://www.w3.org/1999/xlink" xml:space="preserve" xmlns:serif="http://www.serif.com/" style="fill-rule:evenodd;clip-rule:evenodd;stroke-linejoin:round;stroke-miterlimit:2;">
    <g>
        <g transform="matrix(1,0,0,1,0.231985,3.002927)">
            <path d="M6.289,12.029C6.154,12.029 6.051,12.009 5.978,11.967C5.906,11.926 5.857,11.841 5.831,11.711L5.66,11.005C5.464,11.186 5.27,11.349 5.078,11.494C4.892,11.634 4.695,11.753 4.488,11.851C4.281,11.949 4.059,12.022 3.821,12.068C3.583,12.12 3.322,12.146 3.037,12.146C2.742,12.146 2.465,12.107 2.207,12.029C1.953,11.947 1.728,11.822 1.532,11.657C1.34,11.486 1.187,11.277 1.074,11.028C0.965,10.775 0.911,10.477 0.911,10.136C0.911,9.836 0.991,9.548 1.151,9.274C1.317,8.995 1.583,8.747 1.951,8.529C2.318,8.312 2.797,8.136 3.386,8.002C3.976,7.862 4.701,7.782 5.559,7.761L5.559,7.179C5.559,6.589 5.433,6.147 5.179,5.852C4.931,5.552 4.566,5.402 4.085,5.402C3.764,5.402 3.492,5.443 3.27,5.526C3.053,5.609 2.864,5.699 2.703,5.797C2.543,5.896 2.403,5.986 2.284,6.069C2.171,6.152 2.054,6.193 1.935,6.193C1.842,6.193 1.762,6.17 1.695,6.123C1.627,6.077 1.573,6.017 1.532,5.945L1.283,5.51C1.702,5.107 2.152,4.807 2.634,4.61C3.12,4.408 3.658,4.307 4.248,4.307C4.672,4.307 5.05,4.377 5.381,4.517C5.712,4.651 5.989,4.845 6.211,5.099C6.434,5.353 6.602,5.655 6.716,6.007C6.835,6.359 6.894,6.749 6.894,7.179L6.894,12.029L6.289,12.029ZM3.448,11.191C3.676,11.191 3.886,11.168 4.077,11.121C4.269,11.075 4.45,11.01 4.62,10.927C4.791,10.839 4.951,10.733 5.102,10.609C5.257,10.48 5.409,10.338 5.559,10.182L5.559,8.615C4.954,8.64 4.439,8.692 4.015,8.77C3.591,8.842 3.244,8.941 2.975,9.065C2.711,9.189 2.52,9.336 2.401,9.507C2.282,9.673 2.222,9.859 2.222,10.066C2.222,10.262 2.253,10.433 2.315,10.578C2.383,10.718 2.471,10.834 2.579,10.927C2.688,11.015 2.817,11.083 2.967,11.129C3.117,11.17 3.278,11.191 3.448,11.191L3.448,11.191Z" style="fill:rgb(58,58,56);fill-rule:nonzero;"/>
            <path d="M8.982,12.029L8.982,0.994L10.348,0.994L10.348,5.518C10.658,5.151 11.013,4.861 11.411,4.649C11.809,4.432 12.267,4.323 12.785,4.323C13.224,4.323 13.62,4.408 13.972,4.579C14.324,4.75 14.624,4.996 14.872,5.316C15.121,5.637 15.31,6.028 15.439,6.488C15.573,6.943 15.641,7.461 15.641,8.04C15.641,8.656 15.566,9.215 15.416,9.717C15.266,10.219 15.051,10.651 14.771,11.013C14.492,11.37 14.153,11.646 13.755,11.843C13.356,12.04 12.909,12.138 12.412,12.138C11.915,12.138 11.499,12.045 11.163,11.859C10.832,11.667 10.537,11.403 10.278,11.067L10.2,11.742C10.18,11.934 10.068,12.029 9.867,12.029L8.982,12.029ZM12.327,5.402C11.908,5.402 11.538,5.5 11.217,5.697C10.901,5.893 10.612,6.173 10.348,6.535L10.348,10.198C10.586,10.524 10.847,10.754 11.132,10.889C11.416,11.018 11.729,11.083 12.071,11.083C12.769,11.083 13.305,10.832 13.677,10.33C14.05,9.828 14.236,9.08 14.236,8.087C14.236,7.166 14.07,6.488 13.739,6.054C13.408,5.619 12.937,5.402 12.327,5.402Z" style="fill:rgb(58,58,56);fill-rule:nonzero;"/>
            <path d="M22.183,5.805C22.142,5.862 22.1,5.906 22.059,5.937C22.023,5.963 21.968,5.976 21.896,5.976C21.818,5.976 21.738,5.945 21.655,5.883C21.572,5.821 21.469,5.753 21.345,5.681C21.221,5.603 21.068,5.534 20.887,5.472C20.711,5.409 20.494,5.378 20.235,5.378C19.894,5.378 19.591,5.446 19.327,5.58C19.068,5.709 18.851,5.898 18.675,6.147C18.504,6.39 18.372,6.687 18.279,7.039C18.191,7.391 18.147,7.787 18.147,8.227C18.147,8.682 18.194,9.088 18.287,9.445C18.385,9.797 18.522,10.094 18.698,10.338C18.874,10.581 19.086,10.767 19.335,10.896C19.583,11.02 19.863,11.083 20.173,11.083C20.473,11.083 20.719,11.044 20.91,10.966C21.102,10.889 21.262,10.803 21.391,10.71C21.521,10.617 21.627,10.532 21.71,10.454C21.798,10.376 21.888,10.338 21.981,10.338C22.085,10.338 22.167,10.381 22.23,10.469L22.625,10.966C22.46,11.168 22.276,11.344 22.074,11.494C21.873,11.639 21.655,11.76 21.422,11.859C21.19,11.952 20.946,12.022 20.693,12.068C20.445,12.115 20.191,12.138 19.932,12.138C19.487,12.138 19.071,12.05 18.683,11.874C18.295,11.698 17.956,11.445 17.666,11.114C17.382,10.777 17.157,10.369 16.991,9.887C16.831,9.401 16.75,8.847 16.75,8.227C16.75,7.663 16.825,7.143 16.975,6.667C17.126,6.185 17.343,5.772 17.627,5.425C17.917,5.078 18.272,4.809 18.691,4.618C19.115,4.421 19.601,4.323 20.15,4.323C20.667,4.323 21.12,4.411 21.508,4.587C21.896,4.758 22.24,4.998 22.54,5.309L22.183,5.805Z" style="fill:rgb(58,58,56);fill-rule:nonzero;"/>
            <g transform="matrix(1,0,0,1,1.009883,0)">
                <path d="M16.243,15.233L16.24,15.236L15.643,14.637L13.715,16.564L13.314,17L12.914,16.564L10.988,14.637L8.5,17L6.332,14.637L4.406,16.564L4.006,17L3.605,16.564L1.277,14.236C1.106,14.13 1.001,13.943 1.001,13.741C1.001,13.422 1.264,13.159 1.583,13.159C1.785,13.159 1.972,13.264 2.078,13.436L4.006,15.363L5.934,13.436L6.332,13L6.732,13.436L8.66,15.363L10.588,13.436L10.988,13L11.387,13.436L13.314,15.363L15.242,13.436L15.643,13L16.041,13.436L16.045,13.44L16.047,13.436L17.974,15.364L19.902,13.436C20.008,13.265 20.196,13.16 20.397,13.16C20.716,13.16 20.979,13.423 20.979,13.742C20.979,13.943 20.874,14.131 20.703,14.237L18.375,16.565L17.974,17.001L17.574,16.565L16.243,15.233Z" style="fill:rgb(237,61,59);"/>
            </g>
        </g>
    </g>
</svg>