<svg version="1.1" viewBox="0 0 24 24" xmlns="http://www.w3.org/2000/svg"><path d="m5 3h14v18h-14z" fill="#fafafa"/><path d="m4.5 2c-.277 0-.653652.2695221-.5.5v1.5h-.5c-.277 0-.5.223-.5.5v3c0 .277.223.5.5.5h.5v8h-.5c-.277 0-.5.223-.5.5v3c0 .277.223.5.5.5h.5v1.5c0 .277.223.5.5.5h15c.277 0 .5-.223.5-.5v-19c0-.277-.223-.5-.5-.5zm.5 1h14v18h-14v-1.5-3-9-3z" fill="#3a3a38"/><g transform="matrix(5.6693 0 0 5.2913 -1.5 -1553.5)" fill="#ed8733" stroke-width=".18258"><path d="m1.4552 295.15c-0.073281 0-0.13229 0.059-0.13229 0.13229v1.5875c0 0.0733 0.05901 0.13229 0.13229 0.13229l1.8521 1e-5c0.073281 0 0.13229-0.059 0.13229-0.13229v-1.1906c0-0.0733-0.45588-0.52917-0.52917-0.52917zm0.13074 0.26407 1.2547 1e-5c0.00631 5e-3 0.00794 6e-3 0.015503 0.0119 0.11655 0.0966 0.20703 0.1979 0.30902 0.30851 0.00626 8e-3 0.00648 9e-3 0.011369 0.0155v0.98857l-1.5906-1e-5z"/><path d="m1.8521 295.68 1.0583 1e-5v0.26459l-1.0583-1e-5z"/><path d="m1.8521 296.21 1.0583 1e-5v0.26458l-1.0583-1e-5z"/></g></svg>
