<svg viewBox="0 0 24 24" fill="none" xmlns="http://www.w3.org/2000/svg">
<path d="M8.89503 12.8838L6.10984 18.1928C5.95751 18.5408 5.67799 18.7915 5.47027 19.0768C5.70409 19.0409 5.91728 19.0158 6.10984 19.0014C6.30927 18.9798 6.49495 18.969 6.66688 18.969H20.5V20.5H3.50001V19.7669C3.50001 19.6231 3.53096 19.4794 3.59285 19.3356C3.66162 19.1847 3.74414 19.0517 3.84042 18.9367L7.81189 12.0213L3.72694 4.91236C3.66505 4.8333 3.61003 4.74346 3.56189 4.64283C3.52063 4.5422 3.5 4.44158 3.5 4.34095V3.5H20.5V5.03096H6.89381C6.38197 5.06266 5.88311 4.9494 5.41869 4.8908C5.84574 5.15506 6.09029 5.6072 6.3574 5.94738L8.91565 10.8785C9.45274 11.8242 9.25604 12.1536 8.89503 12.8838Z" fill="#3A3A38"/>
</svg>
