<svg height="32" width="32" xmlns="http://www.w3.org/2000/svg"><path d="m16 3a13 13 0 0 0 -13 13 13 13 0 0 0 13 13 13 13 0 0 0 13-13 13 13 0 0 0 -13-13zm0 1a12 12 0 0 1 12 12 12 12 0 0 1 -12 12 12 12 0 0 1 -12-12 12 12 0 0 1 12-12z" fill="#0063b1"/><path d="m16 4a12 12 0 0 0 -12 12 12 12 0 0 0 12 12 12 12 0 0 0 12-12 12 12 0 0 0 -12-12zm1.640625 3.0019531c.6538-.0221776 1.227738.5203953 1.318359 1.1796875.292007 1.2661447-1.009774 2.5340154-2.205078 2.0273434-1.473333-.7068897-.663678-3.2920729.886719-3.2070309zm-.664063 5.6855469c.749104.063617 1.127403 1.139401.738282 2.035156-.563784 2.597531-1.447793 5.117918-1.923828 7.736328.229954 1.03383 1.47039-.22046 2.037109-.486328.431604-.517808.535202.05132.691406.447266-1.14482.82911-2.264136 1.734179-3.566406 2.289062-1.225165.863683-2.399565-.339849-1.882813-1.667968.494197-2.425591 1.138929-4.818188 1.669922-7.236328.165937-1.306794-1.491399.027669-1.986328.332031-.399207.51853-.587402.139714-.753906-.328125 1.326693-1.001555 2.597632-2.118687 4.117188-2.802735.317092-.246999.609678-.339559.859374-.318359z" fill="#83beec"/><path d="m17.64092 7.0019531c-1.550397-.085042-2.360227 2.5001408-.886894 3.2070309 1.195304.506672 2.496425-.7611987 2.204418-2.0273434-.090621-.6592922-.663724-1.2018651-1.317524-1.1796875zm-.664744 5.6855469c-.249696-.0212-.542459.07136-.859552.318359-1.519556.684048-2.789931 1.80118-4.116624 2.802735.166504.467839.354396.846655.753603.328125.494929-.304362 2.153332-1.638824 1.987395-.332031-.530993 2.41814-1.17706 4.810737-1.671257 7.236328-.516753 1.328119.65799 2.531651 1.883155 1.667968 1.30227-.554883 2.421553-1.459952 3.566373-2.289062-.156204-.395946-.260481-.965074-.692085-.447266-.566719.265868-1.805288 1.520158-2.035242.486328.476035-2.61841 1.358674-5.138797 1.922458-7.736328.389121-.895755.01088-1.971539-.738224-2.035156z" fill="#fafafa"/></svg>