<svg viewBox="0 0 24 24" xmlns="http://www.w3.org/2000/svg"><path d="m4 2c-.554 0-1 .446-1 1v1c0 .554.446 1 1 1h16c.554 0 1-.446 1-1v-1c0-.554-.446-1-1-1zm-.5 6c-.277 0-.5.223-.5.5v1c0 .277.223.5.5.5h17c.277 0 .5-.223.5-.5v-1c0-.277-.223-.5-.5-.5zm0 5c-.277 0-.5.223-.5.5s.223.5.5.5h6c.277 0 .5-.223.5-.5s-.223-.5-.5-.5zm8 0c-.06925 0-.135454.013829-.195312.039062-.17958.075704-.304688.253188-.304688.460938 0 .277.223.5.5.5h2.015625 2.984375c.277 0 .5-.223.5-.5s-.223-.5-.5-.5h-.519531-.142578-1.31836zm7 0c-.277 0-.5.223-.5.5s.223.5.5.5h2c.277 0 .5-.223.5-.5s-.223-.5-.5-.5h-.337891-.142578zm-15 4c-.277 0-.5.190572-.5.427734v.144532c0 .237162.223.427734.5.427734h1c.277 0 .5-.190572.5-.427734v-.144532c0-.237162-.223-.427734-.5-.427734zm4 0c-.277 0-.5.190572-.5.427734v.144532c0 .237162.223.427734.5.427734h1c.277 0 .5-.190572.5-.427734v-.144532c0-.237162-.223-.427734-.5-.427734zm4 0c-.277 0-.5.190572-.5.427734v.144532c0 .237162.223.427734.5.427734h.5.5c.277 0 .5-.190572.5-.427734v-.144532c0-.237162-.223-.427734-.5-.427734h-.5zm4 0c-.277 0-.5.190572-.5.427734v.144532c0 .237162.223.427734.5.427734h1c.277 0 .5-.190572.5-.427734v-.144532c0-.237162-.223-.427734-.5-.427734zm4 0c-.277 0-.5.190572-.5.427734v.144532c0 .237162.223.427734.5.427734h1c.277 0 .5-.190572.5-.427734v-.144532c0-.237162-.223-.427734-.5-.427734zm-16 3c-.277 0-.5.223-.5.5v1c0 .277.223.5.5.5h9.5.515625 6.984375c.277 0 .5-.223.5-.5v-1c0-.277-.223-.5-.5-.5h-7.5c-.017978 0-.033304.007933-.050781.009766l-.048828-.009766z" fill="#3a3a38"/><path d="m14.697266 13c-.244421.162597-.480985.336083-.699219.533203a1.0027936 1.0027936 0 0 0 -.291016.466797h2.792969c.277 0 .5-.223.5-.5s-.223-.5-.5-.5h-.519531-.142578zm3.802734 0c-.022107 0-.041167.008964-.0625.011719l-.435547.496093c.00444.273107.223844.492188.498047.492188h2c.277 0 .5-.223.5-.5s-.223-.5-.5-.5h-.337891-.142578zm-6.40625 4c-.056927.328477-.093856.660374-.095703.994141a1.0027936 1.0027936 0 0 0 0 .005859h.001953.5c.277 0 .5-.190572.5-.427734v-.144532c0-.237162-.223-.427734-.5-.427734zm3.40625 0c-.277 0-.5.190572-.5.427734v.144532c0 .237162.223.427734.5.427734h1c.277 0 .5-.190572.5-.427734v-.144532c0-.237162-.223-.427734-.5-.427734zm4 0c-.277 0-.5.190572-.5.427734v.144532c0 .237162.223.427734.5.427734h1c.277 0 .5-.190572.5-.427734v-.144532c0-.237162-.223-.427734-.5-.427734zm-6.607422 3a1.0027936 1.0027936 0 0 0 .017578.003906l1.203125.240235-.390625 1.158203a1.0027936 1.0027936 0 0 0 -.013672.597656h6.791016c.277 0 .5-.223.5-.5v-1c0-.277-.223-.5-.5-.5h-7.5c-.017978 0-.033304.007933-.050781.009766l-.048828-.009766z" fill="#fafafa"/><path d="m22 17.820314.000001.359375-1.625001.326171c-.590916.118977-.943084.729769-.75 1.300782l.529297 1.5625.0019.0059-.312499.179688-1.091797-1.244141c-.398372-.454309-1.105534-.454309-1.503906 0l-1.091797 1.244141-.3125-.179687.53125-1.56836c.193084-.571013-.159084-1.181805-.75-1.300782l-1.625-.326171-.000001-.359376 1.625001-.326171c.590916-.118977.943084-.729769.75-1.300782l-.53125-1.568359.3125-.179688 1.091797 1.244141c.216237.246413.539514.3712.865233.333985.247001-.02808.47469-.147149.638673-.333985l1.091796-1.244141.312501.179688-.53125 1.568359c-.193084.571013.159084 1.181805.75 1.300782z" fill="#fafafa"/><path d="m16.4375 13.253907c-.288253.09362-.567398.213248-.833984.357422-.335712.185464-.64898.408939-.933594.666016l.757812 2.236328-2.316406.464844c-.072088.335769-.109428.67807-.111328 1.021484.000647.343279.03664.685584.107422 1.021484l2.320312.464844-.755859 2.236328c.513244.458667 1.115664.806419 1.769531 1.021484l1.558594-1.773437 1.5625 1.77539c.288253-.09362.567396-.213252.833984-.357422.335712-.185463.64897-.408938.933594-.666015l-.757812-2.236328 2.316406-.464844c.07209-.335769.109428-.67807.111328-1.021484-.000647-.343279-.03664-.685584-.107422-1.021484l-2.320312-.464844.755859-2.236328c-.513244-.458667-1.115664-.80642-1.769531-1.021485l-1.558594 1.773438-.46875-.533203zm-.28125 1.191406 1.091797 1.244141a1.0001 1.0001 0 0 0 .865234.333985 1.0001 1.0001 0 0 0 .638672-.333985l1.091797-1.244141.3125.179688-.53125 1.568359a1.0001 1.0001 0 0 0 .75 1.300782l1.625.326171v.359376l-1.625.326171a1.0001 1.0001 0 0 0 -.75 1.300782l.529297 1.5625.002.0059-.3125.179688-1.091797-1.244141a1.0001 1.0001 0 0 0 -1.503906 0l-1.091844 1.2441-.3125-.179688.53125-1.568359a1.0001 1.0001 0 0 0 -.75-1.300782l-1.625-.326171v-.359376l1.625-.326171a1.0001 1.0001 0 0 0 .75-1.300782l-.53125-1.568359zm1.84375 2.554688a1 1 0 0 0 -1 1 1 1 0 0 0 1 1 1 1 0 0 0 1-1 1 1 0 0 0 -1-1z" fill="#1e8bcd"/></svg>