<?xml-stylesheet type="text/css" href="icons.css" ?>
<svg viewBox="0 0 24 24" xmlns="http://www.w3.org/2000/svg">
  <g id="background"
     class="icn icn--area-color"
     fill="#fafafa"
     stroke="#3a3a38"
     stroke-linecap="round"
     stroke-linejoin="round"
     >
      <path d="m 2.5,2.5 v 17 h 13 v -17 z" />
      <path d="m 4.5,4.5 v 17 h 13 v -17 z" />
  </g>
  <g id="symbol-background"
     class="icn icn--background"
     fill="#fff" 
     stroke="#fff" 
     stroke-width="3px"
	 stroke-linecap="round" 
	 stroke-linejoin="round"
      >
      <path d="m 11.5,16 c 0,-3 2.5,-4.5 5,-4.5 2,0 4.5,1.5 5,4 v 0" />
      <path d="m 21.5,12.5 v 3 h -3" />
      <path d="m 21.5,17 c 0,3 -2.5,4.5 -5,4.5 -2,0 -4.5,-1.5 -5,-4 v 0" />
      <path d="m 11.5,20.5 v -3 h 3" />
  </g>
  <g id="symbol"
	 class="icn icn--positiv-color-color"
     fill="none" 
     stroke="#18ab50" 
	 stroke-linecap="round" 
	 stroke-linejoin="round"
      >
      <path d="m 11.5,16 c 0,-3 2.5,-4.5 5,-4.5 2,0 4.5,1.5 5,4 v 0" />
      <path d="m 21.5,12.5 v 3 h -3" />
      <path d="m 21.5,17 c 0,3 -2.5,4.5 -5,4.5 -2,0 -4.5,-1.5 -5,-4 v 0" />
      <path d="m 11.5,20.5 v -3 h 3" />
  </g>
</svg>
