<svg viewBox="0 0 24 24" xmlns="http://www.w3.org/2000/svg"><g stroke-linecap="round" stroke-linejoin="round"><path d="m16 8.5 5.5 5.5-5.5 5.5-5.5-5.5z" fill="#83beec" stroke="#0063b1"/><path d="m2.4453125 3c-.247121 0-.4453125.1981908-.4453125.4453125v.109375c0 .2471217.1981915.4453125.4453125.4453125h19.1093755c.247121 0 .445312-.1981908.445312-.4453125v-.109375c0-.2471217-.198191-.4453125-.445312-.4453125zm0 3c-.247121 0-.4453125.1981908-.4453125.4453125v.109375c0 .2471217.1981915.4453125.4453125.4453125h19.1093755c.247121 0 .445312-.1981908.445312-.4453125v-.109375c0-.2471217-.198191-.4453125-.445312-.4453125zm-.0253906 3c-.232183 0-.4199219.1877394-.4199219.4199219v.1601562c0 .2321825.1877389.4199219.4199219.4199219h9.1601561c.232183 0 .419922-.1877394.419922-.4199219v-.1601562c0-.2321825-.187739-.4199219-.419922-.4199219zm.025391 3c-.2471214 0-.4453129.198192-.4453129.445312v.109376c0 .24712.1981915.445312.4453125.445312h4.5546875.5546875.9453125c.277 0 .5-.223.5-.5s-.223-.5-.5-.5h-.9453125-.5546875zm-.035156 3c-.2272036 0-.4101569.182953-.4101569.410156v.179688c0 .227203.1829532.410156.4101562.410156h4.5898438.5898438.9101562c.277 0 .5-.223.5-.5s-.223-.5-.5-.5h-.9101562-.5898438zm0 3c-.2272036 0-.4101569.182953-.4101569.410156v.179688c0 .227203.1829532.410156.4101562.410156h9.1796878c.227203 0 .410156-.182953.410156-.410156v-.179688c0-.227203-.182953-.410156-.410156-.410156zm.035156 3c-.2471214 0-.4453129.198192-.4453129.445312v.109376c0 .24712.1981915.445312.4453125.445312h19.1093755c.247121 0 .445312-.198192.445312-.445312v-.109376c0-.24712-.198188-.445312-.445312-.445312z" fill="#3a3a38"/><path d="m4.3867188 12.251953a1.0027936 1.0027936 0 0 0 -.2597657.048828c-.346044.11239-.679936.254639-1 .427735a1.0027936 1.0027936 0 0 0 -.0078125.005859c-.1456318.080454-.283584.173629-.421875.265625h2.8515625l-.359375-.408203a1.0027936 1.0027936 0 0 0 -.8027343-.339844zm3.1894531.001953a1.0027936 1.0027936 0 0 0 -.7714844.339844l-.3574219.40625h.5527344.5546875.9453125c.177734 0 .3254357-.097353.4140625-.236328-.3322729-.185012-.6799482-.341536-1.0429687-.460938a1.0027936 1.0027936 0 0 0 -.2949219-.048828zm-5.1660157 2.746094c-.2272035 0-.4101562.182953-.4101562.410156v.011719l.1132812.333984-.0683593.013672c.0668184.135491.2034211.230469.3652343.230469h4.5898438.5898438.9101562c.277 0 .5-.223.5-.5s-.223-.5-.5-.5h-.9101562-.5898438zm0 3c-.2272035 0-.4101562.182953-.4101562.410156v.179688c0 .227203.1829533.410156.4101562.410156h9.1796878c.151663 0 .278636-.085244.349609-.207031.021266-.155023.035808-.31052.044922-.466797-.039556-.185337-.197063-.326172-.394531-.326172zm.0351563 3c-.2471214 0-.4453125.198192-.4453125.445312v.109376c0 .247119.1981915.445312.4453125.445312h7.8476565a1.0027936 1.0027936 0 0 0 -.013672-.599609l-.136719-.400391z" fill="#fafafa"/><path d="m10.000026 17.820272.000001.359375-1.625001.326171c-.590916.118977-.943084.729769-.75 1.300782l.529297 1.5625.0019.0059-.312499.179688-1.091797-1.244141c-.398372-.454309-1.105534-.454309-1.503906 0l-1.091797 1.244141-.3125-.179687.53125-1.56836c.193084-.571013-.159084-1.181805-.75-1.300782l-1.625-.326171-.000001-.359376 1.625001-.326171c.590916-.118977.943084-.729769.75-1.300782l-.53125-1.568359.3125-.179688 1.091797 1.244141c.216237.246413.539514.3712.865233.333985.247001-.02808.47469-.147149.638673-.333985l1.091796-1.244141.312501.179688-.53125 1.568359c-.193084.571013.159084 1.181805.75 1.300782z" fill="#fafafa"/><path d="m4.4375 13.253906c-.288253.09362-.567398.213248-.833984.357422-.335712.185464-.64898.408939-.933594.666016l.757812 2.236328-2.316406.464844c-.072088.335769-.109428.67807-.111328 1.021484.000647.343279.03664.685584.107422 1.021484l2.320312.464844-.755859 2.236328c.513244.458667 1.115664.806419 1.769531 1.021484l1.558594-1.773437 1.5625 1.77539c.288253-.09362.567396-.213252.833984-.357422.335712-.185462.64897-.408937.933594-.666015l-.757812-2.236328 2.316406-.464844c.07209-.335769.109428-.67807.111328-1.021484-.000647-.343279-.03664-.685584-.107422-1.021484l-2.320312-.464844.755859-2.236328c-.513244-.458667-1.115664-.80642-1.769531-1.021485l-1.558594 1.773438-.46875-.533203zm-.28125 1.191406 1.091797 1.244141a1.0001 1.0001 0 0 0 .865234.333985 1.0001 1.0001 0 0 0 .638672-.333985l1.091797-1.244141.3125.179688-.53125 1.568359a1.0001 1.0001 0 0 0 .75 1.300782l1.625.326171v.359376l-1.625.326171a1.0001 1.0001 0 0 0 -.75 1.300782l.529297 1.5625.002.0059-.3125.179688-1.091797-1.244141a1.0001 1.0001 0 0 0 -1.503906 0l-1.091844 1.2441-.3125-.179688.53125-1.568359a1.0001 1.0001 0 0 0 -.75-1.300782l-1.625-.326171v-.359376l1.625-.326171a1.0001 1.0001 0 0 0 .75-1.300782l-.53125-1.568359zm1.84375 2.554688a1 1 0 0 0 -1 1 1 1 0 0 0 1 1 1 1 0 0 0 1-1 1 1 0 0 0 -1-1z" fill="#1e8bcd"/></g></svg>