<svg version="1.1" viewBox="0 0 24 24" xmlns="http://www.w3.org/2000/svg"><path d="m13 5v16h10v-16z" fill="#fafafa"/><path d="m13 4h-1v17h11c0.554 0 1-0.446 1-1v-15c0-0.554-0.446-1-1-1zm0 1h10v15h-10z" fill="#3a3a38"/><path d="m1 5v16h10v-16z" fill="#fafafa"/><path d="m1 4c-0.554 0-1 0.446-1 1v15c0 0.554 0.446 1 1 1h11v-17zm0 1h10v15h-10z" fill="#3a3a38"/><rect transform="scale(1,-1)" x="2" y="-9" width="3" height="2" fill="#797774"/><rect transform="scale(1,-1)" x="2" y="-13" width="7" height="2" fill="#ed3d3b"/><rect transform="scale(1,-1)" x="14" y="-17" width="5" height="2" fill="#ed3d3b"/><rect transform="scale(1,-1)" x="19" y="-9" width="3" height="2" fill="#1e8bcd"/><rect transform="scale(1,-1)" x="14" y="-13" width="7" height="2" fill="#797774"/><rect transform="scale(1,-1)" x="14" y="-9" width="4" height="2" fill="#797774"/><rect transform="scale(1,-1)" x="2" y="-17" width="5" height="2" fill="#797774"/></svg>
