<svg xmlns="http://www.w3.org/2000/svg" xmlns:xlink="http://www.w3.org/1999/xlink" viewBox="0 0 63.749999 50.625" shape-rendering="geometricPrecision" text-rendering="geometricPrecision" project-id="c77d5838aa0d4c74a4471e95e7117eaa" export-id="68bb29ae20814216a4df99d3d9e6fd8a" cached="false"><g transform="matrix(1.019336 0 0 1.010973-1.157858 0.19614)"><path d="M1.8125,1.8125h59.1875v46.0625h-59.1875v-46.0625Z" transform="translate(1 0)" fill="#3a3a38"/><path d="M3.75,3.75h55.3125v42.1875h-55.3125v-42.1875Z" transform="translate(1 0)" fill="#fafafa"/><g transform="matrix(.865043 0 0 0.131777-2.001351 4.497279)"><g transform="matrix(1.017725 0 0 1.289839-.163142 8.539314)"><g transform="matrix(.970602 0 0 1 0.63688 0)"><g transform="translate(0 5.883353)"><g transform="matrix(.957685 0 0 1 1.683104 0)"><path d="M3.75,3.75h55.3125v42.1875h-55.3125v-42.1875Z" transform="translate(8.369346 5.421053)" fill="#51afef"/></g></g><g transform="matrix(.423409 0 0 2.73298 6.755636-174.504042)"><g><g transform="matrix(1 0 0 1.149652 0-14.034873)"><path d="M3.75,3.75h55.3125v42.1875h-55.3125v-42.1875Z" transform="translate(11.681869 90.113765)" fill="#797774"/><path d="M3.75,3.75h55.3125v42.1875h-55.3125v-42.1875Z" transform="translate(81.477563 90.113765)" fill="#797774"/></g></g></g></g></g></g></g></svg>
