<?xml-stylesheet type="text/css" href="icons.css" ?>
<svg viewBox="0 0 24 24" xmlns="http://www.w3.org/2000/svg">
  <g id="symbol"
	 class="icn icn--highlight-color"  
     fill="#1e8bcd" 
     stroke="#1e8bcd" 
	 stroke-linecap="round" 
	 stroke-linejoin="round"
      >
      <path d="m 12,2.5 c -5.5228488,0 -8.5000019,3.1675089 -8.5,8 0,4.25 0.8908995,6.445601 4.000094,8 l 1,0.5 v 1.5 H 3.75 C 2.757175,20.23395 2.5413,19.22155 2.5,18.953125 V 21.5 H 9.507906 V 19 18.492188 L 8.843844,18.21875 C 6.730285,17.314727 4.562184,14.804342 4.5,10.5 c -9.9e-6,-4.4873253 3.5,-7 7.5,-7 4,0 7.50001,2.5126747 7.5,7 -0.06218,4.304342 -2.230285,6.814727 -4.343844,7.71875 l -0.664062,0.273438 V 19 21.5 H 21.5 V 18.953125 C 21.4587,19.22155 21.242825,20.23395 20.25,20.5 H 15.499906 V 19 l 1,-0.5 C 19.6091,16.945601 20.5,14.75 20.5,10.5 c 2e-6,-4.8324911 -2.977151,-8 -8.5,-8 z" />
  </g>
</svg>
