<?xml-stylesheet type="text/css" href="icons.css" ?>
<svg viewBox="0 0 24 24" xmlns="http://www.w3.org/2000/svg">
  <g id="background"
	 class="icn icn--text-color"
     fill="#3a3a38"
     transform="translate(0,1)">
     >
      <path d="M 10.898438 2 L 5 18 L 6.6875 18 C 6.8709758 18 7.0266615 17.94733 7.1542969 17.841797 C 7.2899094 17.736267 7.3818242 17.614565 7.4296875 17.476562 L 8.6328125 14 L 15.367188 14 L 16.582031 17.488281 C 16.645851 17.6344 16.734022 17.756103 16.845703 17.853516 C 16.965361 17.950926 17.121047 18 17.3125 18 L 19 18 L 13.113281 2 L 10.898438 2 z M 12 4.09375 L 14.671875 12 L 9.328125 12 L 11.533203 5.6289062 C 11.604993 5.4340813 11.679994 5.2070326 11.759766 4.9472656 C 11.839538 4.6874987 11.920228 4.402223 12 4.09375 z " />
  </g>
</svg>
