<?xml version="1.0" encoding="UTF-8" standalone="no"?>
<svg
   xmlns:dc="http://purl.org/dc/elements/1.1/"
   xmlns:cc="http://creativecommons.org/ns#"
   xmlns:rdf="http://www.w3.org/1999/02/22-rdf-syntax-ns#"
   xmlns:svg="http://www.w3.org/2000/svg"
   xmlns="http://www.w3.org/2000/svg"
   xmlns:sodipodi="http://sodipodi.sourceforge.net/DTD/sodipodi-0.dtd"
   xmlns:inkscape="http://www.inkscape.org/namespaces/inkscape"
   viewBox="0 0 24 24"
   version="1.1"
   id="svg12"
   sodipodi:docname="lc_collapsenotebookbar.svg"
   inkscape:version="1.0.2 (e86c870879, 2021-01-15)">
  <metadata
     id="metadata18">
    <rdf:RDF>
      <cc:Work
         rdf:about="">
        <dc:format>image/svg+xml</dc:format>
        <dc:type
           rdf:resource="http://purl.org/dc/dcmitype/StillImage" />
        <dc:title />
      </cc:Work>
    </rdf:RDF>
  </metadata>
  <defs
     id="defs16" />
  <sodipodi:namedview
     pagecolor="#ffffff"
     bordercolor="#666666"
     borderopacity="1"
     objecttolerance="10"
     gridtolerance="10"
     guidetolerance="10"
     inkscape:pageopacity="0"
     inkscape:pageshadow="2"
     inkscape:window-width="952"
     inkscape:window-height="1046"
     id="namedview14"
     showgrid="false"
     inkscape:zoom="37.208333"
     inkscape:cx="12"
     inkscape:cy="12"
     inkscape:window-x="2882"
     inkscape:window-y="28"
     inkscape:window-maximized="0"
     inkscape:current-layer="svg12"
     inkscape:document-rotation="0" />
  <path
     d="m3 4v16h18v-16z"
     fill="#fafafa"
     id="path2" />
  <path
     d="m 15.373223,9.0629853 a 0.5,0.5 0 0 1 0.4,0.2 l 3,2.9999997 a 0.5,0.5 0 1 1 -0.7,0.7 l -2.1,-2.1 v 5.8 a 0.5,0.5 0 1 1 -1,0 v -5.8 l -2.1,2.1 a 0.5,0.5 0 1 1 -0.7,-0.7 l 2.8,-2.9999997 a 0.5,0.5 0 0 1 0.4,-0.2 z"
     fill="#1e8bcd"
     id="path4" />
  <path
     d="m3 3c-.554 0-1 .446-1 1v16c0 .554.446 1 1 1h18c.554 0 1-.446 1-1v-16c0-.554-.446-1-1-1zm0 1h18v16h-18z"
     fill="#3a3a38"
     id="path6" />
  <path
     d="M 22,4 C 22,3.446 21.554,3 21,3 H 3 C 2.446,3 2,3.446 2,4 v 2 c 0,0.554 0.446,1 1,1 h 18 c 0.554,0 1,-0.446 1,-1 z M 21,4 V 6 H 3 V 4 Z"
     fill="#0063b1"
     id="path8" />
  <path
     d="M 21,4 H 3 v 2 h 18 z"
     fill="#83beec"
     id="path10" />
</svg>
