<svg viewBox="0 0 24 24" xmlns="http://www.w3.org/2000/svg"><g transform="translate(2.5 2)"><path d="m1.5 0c-.554 0-1 .446-1 1v11c0 .554.446 1 1 1h9c.554 0 1-.446 1-1v-11c0-.554-.446-1-1-1zm0 1h9v11h-9z" fill="#3a3a38"/><path d="m1.5.999962h9v11h-9z" fill="#fafafa"/><rect fill="#1e8bcd" height="1" ry=".5" width="7" x="2.5" y="6"/><rect fill="#1e8bcd" height="1" ry=".467428" width="7" x="2.5" y="9"/><path d="m5.5 3c-.554 0-1 .446-1 1v9.6337c0 .554.446 1 1 1h9c.554 0 1-.446 1-1v-9.6337c0-.554-.446-1-1-1zm0 1h9v10.634h-9z" fill="#3a3a38"/><path d="m5.5 4h9v10.173h-9z" fill="#fafafa"/><g fill="#1e8bcd"><rect height="1" ry=".458257" width="7" x="6.5" y="8"/><rect height="1" ry=".5" width="7" x="6.5" y="11"/></g></g><g fill="#1e8bcd"><path d="m10 19h8v1h-8z"/><path d="m17.480469 16.001953c-1.204888.009363-2.200759.860275-2.429688 1.998047h1.041016c.206006-.581923.753963-1 1.408203-1h.457031c.01437-.0018.02804-.0059.04297-.0059h2c.01493 0 .0286.0041.04297.0059h.457029c.831 0 1.5.669 1.5 1.5v1 1c0 .831-.669 1.5-1.5 1.5h-.457031c-.01437.0018-.02804.0059-.04297.0059h-2c-.01493 0-.0286-.0041-.04297-.0059h-.457029c-.65424 0-1.202197-.418077-1.408203-1h-1.041016c.228929 1.137772 1.2248 1.988647 2.429688 1.998047h3.039062c1.375703-.01069 2.480469-1.119731 2.480469-2.498047v-1-1c0-1.378316-1.104766-2.487357-2.480469-2.498047z"/><path d="m10.570312 16.001953c1.204888.009363 2.200759.860275 2.429688 1.998047h-1.041016c-.206006-.581923-.753963-1-1.408203-1h-.457031c-.01437-.0018-.02804-.0059-.04297-.0059h-2c-.01493 0-.0286.0041-.04297.0059h-.457031c-.831 0-1.5.669-1.5 1.5v1 1c0 .831.669 1.5 1.5 1.5h.457031c.01437.0018.02804.0059.04297.0059h2c.01493 0 .0286-.0041.04297-.0059h.457031c.65424 0 1.202197-.418077 1.408203-1h1.041016c-.228929 1.137772-1.2248 1.988647-2.429688 1.998047h-3.039062c-1.375703-.01069-2.480469-1.119731-2.480469-2.498047v-1-1c0-1.378316 1.104766-2.487357 2.480469-2.498047z"/></g></svg>