<svg version="1.1" viewBox="0 0 24 24" xmlns="http://www.w3.org/2000/svg"><g><path d="m2.9061 4.5061h18.188c0.2216 0 0.4 0.1784 0.4 0.4v14.188c0 0.2216-0.1784 0.4-0.4 0.4h-18.188c-0.2216 0-0.4-0.1784-0.4-0.4v-14.188c0-0.2216 0.1784-0.4 0.4-0.4z" fill="#fafafa" stop-color="#000000" style="paint-order:fill markers stroke"/><path d="m2.9062 4.0059c-0.48995 0-0.90039 0.41044-0.90039 0.90039v14.188c0 0.48995 0.41044 0.90039 0.90039 0.90039h18.188c0.48995 0 0.90039-0.41044 0.90039-0.90039v-14.188c0-0.48995-0.41044-0.90039-0.90039-0.90039zm0.099609 1h17.988v13.988h-17.988z" fill="#3a3a38" stop-color="#000000" style="paint-order:fill markers stroke"/></g><rect x="5.0059" y="7" width="13.994" height="2" fill="#3a3a38" style="paint-order:fill markers stroke"/><path d="m5.0059 11v6h6v-6z" fill="#797774" style="paint-order:fill markers stroke"/><path d="m13 11v6h6v-6z" fill="#797774" style="paint-order:fill markers stroke"/></svg>
