<svg viewBox="0 0 24 24" xmlns="http://www.w3.org/2000/svg"><path d="m4.71875 2a.50535904.50535904 0 0 0 -.3535156.1445312l-1.2128906 1.1855469a.50535904.50535904 0 0 0 -.1523438.3613281v1.1875.3613282a.50535904.50535904 0 0 0 .09375.2949218l5.9003906 8.2499998v4.148438.04687a.50535904.50535904 0 0 0 .2148438.414062l4.9941406 3.513672a.50535904.50535904 0 0 0 .291016.091802h.01172a.50535904.50535904 0 0 0 .50586-.505859v-7.708985l5.894531-8.2499998a.50535904.50535904 0 0 0 .09375-.2949218v-1.5488282a.50535904.50535904 0 0 0 -.152346-.3613281l-1.21289-1.1855469a.50535904.50535904 0 0 0 -.353516-.1445312zm.2070312 1.0097656h14.1484378l.916015.8945313v1.1738281l-5.894531 8.25a.50535904.50535904 0 0 0 -.0957.294922v6.90625l-3.994144-2.810547v-4.095703a.50535904.50535904 0 0 0 -.095703-.294922l-5.9003906-8.25v-.1992188-.9746093z" fill="#3a3a38"/><path d="m4.9257812 3.0097656h14.1484378l.916015.8945313v1.1738281l-5.894531 8.25c-.06202.08585-.09549.189015-.0957.294922v6.90625l-3.994141-2.810547v-4.095703c-.00021-.105907-.033687-.209071-.095703-.294922l-5.9003906-8.25v-.1992188-.9746093z" fill="#fafafa"/><path d="m17.001953 11a1.0001 1.0001 0 0 0 -.779297.375l-4.003906 5a1.0001 1.0001 0 0 0 .78125 1.625h.382812l-1.232421 2.464844 2.052734 1.443359a.50535904.50535904 0 0 0 .291016.091797h.011718a.50535904.50535904 0 0 0 .50586-.505859v-7.708985z" fill="#fafafa" fill-rule="evenodd"/><path d="m17.004237 12h5.995763l-4 4h2l-9 7 3-6h-2z" fill="#3a3a38" fill-rule="evenodd"/><path d="m17.5 13-2.40625 3.003906a1.0001 1.0001 0 0 1 .816406 1.44336l-1.029297 2.058593 3.507813-2.728515a1.0001 1.0001 0 0 1 -.08008-1.484375l2.29297-2.292969z" fill="#c8c6c4"/></svg>