<svg viewBox="0 0 24 24" xmlns="http://www.w3.org/2000/svg"><g stroke-linecap="round" stroke-linejoin="round"><g stroke="#3a3a38"><g fill="#fafafa"><path d="m8.5 2.5v16h13v-16z"/><path d="m2.5 5.5v16h13v-16z"/></g><g fill="#c8c6c4"><path d="m2.5 5.5v3h13v-3z"/><path d="m8.5 2.5v3h13v-3z"/></g><path d="m8.5 2.5v16h13v-16z" fill="none"/></g><path d="m16.5 7.5h3zm-12 3h3zm12 0h3zm-12 3h3zm12 0h3zm-12 3h3zm12 0h3zm-12 3h3z" fill="none" stroke="#797774"/><path d="m10.5 10.5h3zm0 3h3zm0 3h3z" fill="#83beec" stroke="#1e8bcd"/></g><path d="m16.386719 12.251953a1.0027936 1.0027936 0 0 0 -.259766.048828c-.346044.11239-.679936.254639-1 .427735a1.0027936 1.0027936 0 0 0 -.007812.005859c-.403027.222652-.779385.490179-1.121094.798828a1.0027936 1.0027936 0 0 0 -.277344 1.066406l.392578 1.15625-1.199219.240235a1.0027936 1.0027936 0 0 0 -.783203.771484c-.08653.403035-.13053.814155-.132812 1.226563a1.0027936 1.0027936 0 0 0 0 .007812c.000777.412111.04392.823282.128906 1.226563a1.0027936 1.0027936 0 0 0 .783203.77539l1.203125.240235-.390625 1.158203a1.0027936 1.0027936 0 0 0 -.013672.599609h1.791016a.50286684.50286684 0 0 0 .501953-.501953v-2.498047h5.498047a.50286684.50286684 0 0 0 .501953-.501953v-2.720703l-.115234-.023438.115234-.341797v-1.878906a1.0027936 1.0027936 0 0 0 -.005859-.005859c-.616159-.550639-1.340025-.968375-2.125-1.226563a1.0027936 1.0027936 0 0 0 -1.066406.291016l-.806641.917969-.808594-.919922a1.0027936 1.0027936 0 0 0 -.802734-.339844z" fill="#fafafa"/><path d="m23 18.000001c-.000647-.343279-.03664-.685584-.107422-1.021484l-2.320312-.464844.755859-2.236328c-.513244-.458667-1.115664-.806421-1.769531-1.021486l-1.558594 1.773439-.468749-.533203-1.093751-1.242188c-.288253.09362-.567398.213248-.833984.357422-.335712.185464-.64898.408939-.933594.666016l.757812 2.236328-2.316406.464844c-.072088.335769-.109428.67807-.111328 1.021484.000647.343279.03664.685584.107422 1.021484l2.320312.464844-.755859 2.236328c.513244.458667 1.115664.80642 1.769531 1.021485l1.558595-1.773438 1.562499 1.77539c.288253-.09362.567396-.213252.833984-.357422.335712-.185463.64897-.408938.933594-.666015l-.757812-2.236328 2.316406-.464844c.07209-.335769.109428-.67807.111328-1.021484zm-1-.179687.000001.359375-1.625001.326171a1.0001 1.0001 0 0 0 -.75 1.300782l.529297 1.5625.0019.0059-.312499.179688-1.091797-1.244141a1.0001 1.0001 0 0 0 -1.503906 0l-1.091797 1.244141-.3125-.179687.53125-1.56836a1.0001 1.0001 0 0 0 -.75-1.300782l-1.625-.326171-.000001-.359376 1.625001-.326171a1.0001 1.0001 0 0 0 .75-1.300782l-.53125-1.568359.3125-.179688 1.091797 1.244141a1.0001 1.0001 0 0 0 .865233.333985 1.0001 1.0001 0 0 0 .638673-.333985l1.091796-1.244141.312501.179688-.53125 1.568359a1.0001 1.0001 0 0 0 .75 1.300782z" fill="#1e8bcd"/><path d="m20.572266 16.513672c-13.7148441 4.990885-6.857422 2.495443 0 0zm1.427734 1.306641.000001.359375-1.625001.326171c-.590916.118977-.943084.729769-.75 1.300782l.529297 1.5625.0019.0059-.312499.179688-1.091797-1.244141c-.398372-.454309-1.105534-.454309-1.503906 0l-1.091797 1.244141-.3125-.179687.53125-1.56836c.193084-.571013-.159084-1.181805-.75-1.300782l-1.625-.326171-.000001-.359376 1.625001-.326171c.590916-.118977.943084-.729769.75-1.300782l-.53125-1.568359.3125-.179688 1.091797 1.244141c.216237.246413.539514.3712.865233.333985.247001-.02808.47469-.147149.638673-.333985l1.091796-1.244141.312501.179688-.53125 1.568359c-.193084.571013.159084 1.181805.75 1.300782z" fill="#fafafa"/><path d="m19 18.000001a1 1 0 0 1 -1 1 1 1 0 0 1 -1-1 1 1 0 0 1 1-1 1 1 0 0 1 1 1z" fill="#1e8bcd"/></svg>