<svg height="24" viewBox="0 0 24 24" width="24" xmlns="http://www.w3.org/2000/svg"><path d="m11 12.1857864v-7.1774854c0-.55228475.4477153-1 1-1s1 .44771525 1 1v7.1774854l2.2928932-2.29289318c.3905243-.39052429 1.0236893-.39052429 1.4142136 0 .3905243.39052428.3905243 1.02368928 0 1.41421358l-4.7071068 4.7071068-4.70710678-4.7071068c-.39052429-.3905243-.39052429-1.0236893 0-1.41421358.39052429-.39052429 1.02368927-.39052429 1.41421356 0zm6 5.8142136c.5522847 0 1 .4477153 1 1s-.4477153 1-1 1h-10c-.55228475 0-1-.4477153-1-1s.44771525-1 1-1z"/></svg>