<svg viewBox="0 0 24 24" xmlns="http://www.w3.org/2000/svg"><path d="m19 21v-13h-4v-4h-10v17z" fill="#fafafa"/><path d="m14.283 22h5.7168v-3.3555l-.00005-1.5272v-9.0762c0-.45068.09804-.42541-.60547-1.0664l-3.3066-3.2383c-.70952-.73686-.71017-.73633-1.0938-.73633h-.99414l-8.9999.00008c-.554 0-1 .446-1 1v17c0 .554.446 1 1 1h5.1836m.79295-.99999h-5.9766v-17h9v4c0 .554.446 1 1 1h4v7.623l.00005 3.498v.87893h-3.1816" fill="#3a3a38"/><path d="m15 8h4l-4-4z" fill="#fafafa" fill-rule="evenodd"/><path d="m3 12c-.554 0-1 .446-1 1v9c0 .554.446 1 1 1h9c.554 0 1-.446 1-1v-9c0-.554-.446-1-1-1zm2 2h2.7089844c.81273 0 1.4354875.183245 1.8671875.546875.4320001.36388.6484371.890228.6484371 1.580078 0 .443-.106782.836891-.3203121 1.181641-.21354.34507-.5163563.613207-.9101563.804687-.39383.19121-.8503706.28711-1.3691406.28711h-1.25v2.474609h-1.375zm1.375 1.099609v2.201172h1.0898438c.4252599 0 .7474037-.097612.9648437-.289062.21717-.19173.3261719-.469781.3261719-.837891 0-.71511-.4172-1.074219-1.25-1.074219z" fill="#ed8733"/></svg>