<svg viewBox="0 0 24 24" xmlns="http://www.w3.org/2000/svg"><rect fill="#0063b1" height="15" ry="1" width="5" x="2" y="7"/><rect fill="#3a3a38" height="12" ry="1" width="5" x="16" y="10"/><rect fill="#ed8733" height="20" ry="1" width="5" x="9" y="2"/><path d="m3 8h3v13h-3z" fill="#83beec"/><path d="m10 3h3v18h-3z" fill="#f8db8f"/><path d="m17 11h3v10h-3z" fill="#c8c6c4"/><path d="m16.386719 12.251953a1.0027936 1.0027936 0 0 0 -.259766.048828c-.043979.014284-.083369.039437-.126953.054688v8.644531c0 .554.446 1 1 1h3c.554 0 1-.446 1-1v-8.191406c-.357212-.206519-.735038-.376312-1.128906-.50586a1.0027936 1.0027936 0 0 0 -1.066406.291016l-.806641.917969-.808594-.919922a1.0027936 1.0027936 0 0 0 -.802734-.339844zm-2.386719 1.279297c-.000681.000615-.001272.001338-.001953.001953a1.0027936 1.0027936 0 0 0 -.277344 1.066406l.279297.822266zm0 2.248047-1.085938.216797a1.0027936 1.0027936 0 0 0 -.783203.771484c-.08653.403035-.13053.814155-.132812 1.226563a1.0027936 1.0027936 0 0 0 0 .007812c.000777.412111.04392.823282.128906 1.226563a1.0027936 1.0027936 0 0 0 .783203.77539l1.089844.216797zm0 4.800781-.277344.822266a1.0027936 1.0027936 0 0 0 -.052734.330078c.199841-.182601.330078-.439139.330078-.732422z" fill="#fafafa"/><path d="m22 17.820314.000001.359375-1.625001.326171c-.590916.118977-.943084.729769-.75 1.300782l.529297 1.5625.0019.0059-.312499.179688-1.091797-1.244141c-.398372-.454309-1.105534-.454309-1.503906 0l-1.091797 1.244141-.3125-.179687.53125-1.56836c.193084-.571013-.159084-1.181805-.75-1.300782l-1.625-.326171-.000001-.359376 1.625001-.326171c.590916-.118977.943084-.729769.75-1.300782l-.53125-1.568359.3125-.179688 1.091797 1.244141c.216237.246413.539514.3712.865233.333985.247001-.02808.47469-.147149.638673-.333985l1.091796-1.244141.312501.179688-.53125 1.568359c-.193084.571013.159084 1.181805.75 1.300782z" fill="#fafafa"/><path d="m16.4375 13.253907c-.288253.09362-.567398.213248-.833984.357422-.335712.185464-.64898.408939-.933594.666016l.757812 2.236328-2.316406.464844c-.072088.335769-.109428.67807-.111328 1.021484.000647.343279.03664.685584.107422 1.021484l2.320312.464844-.755859 2.236328c.513244.458667 1.115664.806419 1.769531 1.021484l1.558594-1.773437 1.5625 1.77539c.288253-.09362.567396-.213252.833984-.357422.335712-.185463.64897-.408938.933594-.666015l-.757812-2.236328 2.316406-.464844c.07209-.335769.109428-.67807.111328-1.021484-.000647-.343279-.03664-.685584-.107422-1.021484l-2.320312-.464844.755859-2.236328c-.513244-.458667-1.115664-.80642-1.769531-1.021485l-1.558594 1.773438-.46875-.533203zm-.28125 1.191406 1.091797 1.244141a1.0001 1.0001 0 0 0 .865234.333985 1.0001 1.0001 0 0 0 .638672-.333985l1.091797-1.244141.3125.179688-.53125 1.568359a1.0001 1.0001 0 0 0 .75 1.300782l1.625.326171v.359376l-1.625.326171a1.0001 1.0001 0 0 0 -.75 1.300782l.529297 1.5625.002.0059-.3125.179688-1.091797-1.244141a1.0001 1.0001 0 0 0 -1.503906 0l-1.091844 1.2441-.3125-.179688.53125-1.568359a1.0001 1.0001 0 0 0 -.75-1.300782l-1.625-.326171v-.359376l1.625-.326171a1.0001 1.0001 0 0 0 .75-1.300782l-.53125-1.568359zm1.84375 2.554688a1 1 0 0 0 -1 1 1 1 0 0 0 1 1 1 1 0 0 0 1-1 1 1 0 0 0 -1-1z" fill="#1e8bcd"/></svg>