<svg viewBox="0 0 24 24" xmlns="http://www.w3.org/2000/svg"><path d="m19 21v-13h-4v-4h-10v17z" fill="#fafafa"/><path d="m14.283 22h5.7168v-3.3555l-.00005-1.5272v-9.0762c0-.45068.09804-.42541-.60547-1.0664l-3.3066-3.2383c-.70952-.73686-.71017-.73633-1.0938-.73633h-.99414l-8.9999.00008c-.554 0-1 .446-1 1v17c0 .554.446 1 1 1h5.1836m.79295-.99999h-5.9766v-17h9v4c0 .554.446 1 1 1h4v7.623l.00005 3.498v.87893h-3.1816" fill="#3a3a38"/><path d="m15 8h4l-4-4z" fill="#fafafa" fill-rule="evenodd"/><path d="m3 12c-.554 0-1 .446-1 1v9c0 .554.446 1 1 1h9c.554 0 1-.446 1-1v-9c0-.554-.446-1-1-1z" fill="#309048"/><path d="m4.5197316 13.999979h1.6941401l1.1494323 2.230471c.105647.211468.1778545.370215.217459.474257h.016568c.0763123-.169127.1555871-.333568.238168-.492898l1.2281111-2.211809h1.5553389l-2.1600632 3.470988 2.2139292 3.528991h-1.6546944l-1.327573-2.449966c-.056104-.09086-.10786-.200175-.1574001-.327217h-.02071c-.023065.07827-.074085.183665-.1532541.316868l-1.3669124 2.460357h-1.6650863l2.2988645-3.510328-2.1061967-3.489651z" fill="#fafafa" stroke-width=".2916"/></svg>