<svg viewBox="0 0 24 24" xmlns="http://www.w3.org/2000/svg"><path d="m4.71875 2a.50535904.50535904 0 0 0 -.3535156.1445312l-1.2128906 1.1855469a.50535904.50535904 0 0 0 -.1523438.3613281v1.1875.3613282a.50535904.50535904 0 0 0 .09375.2949218l5.9003906 8.2499998v4.148438.04687a.50535904.50535904 0 0 0 .2148438.414062l4.9941406 3.513672a.50535904.50535904 0 0 0 .291016.091802h.01172a.50535904.50535904 0 0 0 .50586-.505859v-7.708985l5.894531-8.2499998a.50535904.50535904 0 0 0 .09375-.2949218v-1.5488282a.50535904.50535904 0 0 0 -.152346-.3613281l-1.21289-1.1855469a.50535904.50535904 0 0 0 -.353516-.1445312zm.2070312 1.0097656h14.1484378l.916015.8945313v1.1738281l-5.894531 8.25a.50535904.50535904 0 0 0 -.0957.294922v6.90625l-3.994144-2.810547v-4.095703a.50535904.50535904 0 0 0 -.095703-.294922l-5.9003906-8.25v-.1992188-.9746093z" fill="#3a3a38"/><path d="m4.9257812 3.0097656h14.1484378l.916015.8945313v1.1738281l-5.894531 8.25c-.06202.08585-.09549.189015-.0957.294922v6.90625l-3.994141-2.810547v-4.095703c-.00021-.105907-.033687-.209071-.095703-.294922l-5.9003906-8.25v-.1992188-.9746093z" fill="#fafafa"/><path d="m18 8c-1.396263 0-2.785651.2971498-3.910156.921875-1.124506.6247252-2.089844 1.716768-2.089844 3.078125 0 .670387.241437 1.27272.613281 1.789062a1.50015 1.50015 0 0 0 -.613281 1.210938v1.5a1.50015 1.50015 0 0 0 .490234 1.109375c.06535.059584.135523.071574.201172.128906a1.50015 1.50015 0 0 0 -.691406 1.261719v1.357422l2.203125 1.550781a.50535904.50535904 0 0 0 .291016.091797h.011718a.50535904.50535904 0 0 0 .50586-.505859v-7.708985l4.085937-5.7187498c-.362846-.0419653-.729107-.0664062-1.097656-.0664062z" fill="#fafafa"/><g fill="#f8db8f" stroke="#ed8733" stroke-linecap="round" stroke-linejoin="round"><path d="m22.5 12a4.5 2.5 0 0 1 -4.5 2.5 4.5 2.5 0 0 1 -4.5-2.5 4.5 2.5 0 0 1 4.5-2.5 4.5 2.5 0 0 1 4.5 2.5z"/><path d="m13.5 19v1.5c3.4 3.1 6.3 2.2 9 0v-1.5c-3.2 2.2-6.2 1.8-9 0z"/><path d="m13.5 15v1.5c3.4 3.1 6.3 2.2 9 0v-1.5c-3.2 2.2-6.2 1.8-9 0z"/></g></svg>