<svg viewBox="0 0 24 24" xmlns="http://www.w3.org/2000/svg"><path d="m12 5c-.554 0-1 .446-1 1v12c0 .554.446 1 1 1h2c.554 0 1-.446 1-1v-.875l-2.705078-2.705078a.99796773.99796773 0 0 1 0-1.410156l.714844-.714844a.99796773.99796773 0 0 1 .689453-.292969.99796773.99796773 0 0 1 .720703.292969l.580078.580078v-6.875c0-.554-.446-1-1-1z" fill="#3a3a38"/><g fill="#3a3a38" transform="matrix(0 -1 -1 0 0 0)"><rect height="1" ry=".5" width="20" x="-22" y="-5"/><path d="m2.5 19c-.277 0-.5.223-.5.5s.223.5.5.5h11.375l1-1z" transform="matrix(0 -1 -1 0 0 0)"/></g><path d="m12 6v12h2v-1.875l-1.705078-1.705078a.99796773.99796773 0 0 1 0-1.410156l.714844-.714844a.99796773.99796773 0 0 1 .689453-.292969.99796773.99796773 0 0 1 .300781.042969v-6.044922z" fill="#c8c6c4"/><rect fill="#3a3a38" height="11" ry="1" width="4" x="6" y="8"/><path d="m7 9h2v9h-2z" fill="#c8c6c4"/><path d="m17 11c-.554 0-1 .446-1 1v1.875l2 2 2-2v-1.875c0-.554-.446-1-1-1z" fill="#3a3a38"/><path d="m17 12v2.875l1 1 1-1v-2.875z" fill="#c8c6c4"/><g fill="#ed3d3b"><rect height="2" ry=".5" width="4" x="16" y="8"/><path d="m22.285683 12.999968-4.285715 4.285714-4.285715-4.285714-.714285.714285 4.285714 4.285715-4.285714 4.285715.714285.714285 4.285715-4.285714 4.285715 4.285714.714285-.714285-4.285714-4.285715 4.285714-4.285715z"/></g></svg>