<svg viewBox="0 0 24 24" fill="none" xmlns="http://www.w3.org/2000/svg">
<path d="M11.75 19H2.25C2.11193 19 2 19.2239 2 19.5C2 19.7761 2.11193 20 2.25 20H11.75C11.8881 20 12 19.7761 12 19.5C12 19.2239 11.8881 19 11.75 19Z" fill="#797774"/>
<path d="M21.5 4H2.5C2.22386 4 2 4.22386 2 4.5C2 4.77614 2.22386 5 2.5 5H21.5C21.7761 5 22 4.77614 22 4.5C22 4.22386 21.7761 4 21.5 4Z" fill="#797774"/>
<path d="M4 11L8 15L12 8L16 12L19 6L22 9" stroke="#1E8BCD" stroke-linecap="round" stroke-linejoin="round"/>
<path d="M4 2.5C4 2.22386 3.77614 2 3.5 2C3.22386 2 3 2.22386 3 2.5V21.5C3 21.7761 3.22386 22 3.5 22C3.77614 22 4 21.7761 4 21.5V2.5Z" fill="#797774"/>
<path d="M21.2857 12L17 16.2857L12.7143 12L12 12.7143L16.2857 17L12 21.2857L12.7143 22L17 17.7143L21.2857 22L22 21.2857L17.7143 17L22 12.7143L21.2857 12Z" fill="#ED3D3B"/>
</svg>
