<svg version="1.1" viewBox="0 0 24 24" xmlns="http://www.w3.org/2000/svg">
 <path d="m4.9977 4v17h14v-13.271l-4-3.7285z" fill="#fafafa"/>
 <path d="m4.9977 3c-0.554 0-1 0.446-1 1v17c0 0.554 0.446 1 1 1h14.004c0.554 0 1-0.446 1-1v-9.9805h-0.0039v-2.9785c0-0.45068 0.09804-0.42541-0.60547-1.0664l-3.3066-3.2383c-0.70952-0.73686-0.71017-0.73633-1.0938-0.73633h-0.99414zm0 1h9v4c0 0.554 0.446 1 1 1h4v5.084c0.0014 4.9e-4 0.0025 0.0015 0.0039 2e-3v6.914h-14.004z" fill="#3a3a38"/>
 <path d="m14.998 8h4l-4-4z" fill="#fafafa" fill-rule="evenodd"/>
 <path d="m15.025 15.493a0.50005 0.50005 0 0 0-0.85938-0.34766l-2.1406 2.1445v-8.7832a0.50005 0.50005 0 1 0-1 0v8.7871l-2.1523-2.1484a0.50005 0.50005 0 1 0-0.70508 0.70703l2.9609 2.957a0.50005 0.50005 0 0 0 0.79688-0.0039l2.9492-2.9531a0.50005 0.50005 0 0 0 0.15039-0.35938z" fill="#1e8bcd" fill-rule="evenodd"/>
</svg>
