<svg viewBox="0 0 24 24" xmlns="http://www.w3.org/2000/svg"><path d="m4.71875 2a.50535904.50535904 0 0 0 -.3535156.1445312l-1.2128906 1.1855469a.50535904.50535904 0 0 0 -.1523438.3613281v1.1875.3613282a.50535904.50535904 0 0 0 .09375.2949218l5.9003906 8.2499998v4.148438.046875a.50535904.50535904 0 0 0 .2148438.414062l2.7910156 1.962891v-1.236328l-1.994141-1.402344v-4.095703a.50535904.50535904 0 0 0 -.0957028-.294922l-5.9003906-8.25v-.1992188-.9746093l.9160156-.8945313h14.1484378l.916015.8945313v1.1738281l-2.091796 2.9277344c.034049-.0003541.067501-.0058594.101562-.0058594.368549 0 .73481.024441 1.097656.0664062l1.808594-2.53125a.50535904.50535904 0 0 0 .09375-.2949218v-1.5488282a.50535904.50535904 0 0 0 -.152344-.3613281l-1.21289-1.1855469a.50535904.50535904 0 0 0 -.353516-.1445312z" fill="#3a3a38"/><path d="m4.9257812 3.0097656-.9160156.8945313v.9746093.1992188l5.9003906 8.25c.062016.085851.0954928.189015.0957028.294922v4.095703l1.994141 1.402344v-.121094a1.50015 1.50015 0 0 1 .691406-1.261719c-.065649-.057332-.135822-.069322-.201172-.128906a1.50015 1.50015 0 0 1 -.490234-1.109375v-1.5a1.50015 1.50015 0 0 1 .613281-1.210938c-.371844-.516342-.613281-1.118675-.613281-1.789062 0-1.361357.965338-2.4533998 2.089844-3.078125 1.097073-.6094853 2.446869-.9018539 3.808594-.9160156l2.091796-2.9277344v-1.1738281l-.916015-.8945313z" fill="#fafafa"/><g fill="#f8db8f" stroke="#ed8733" stroke-linecap="round" stroke-linejoin="round"><path d="m22.5 12a4.5 2.5 0 0 1 -4.5 2.5 4.5 2.5 0 0 1 -4.5-2.5 4.5 2.5 0 0 1 4.5-2.5 4.5 2.5 0 0 1 4.5 2.5z"/><path d="m13.5 19v1.5c3.4 3.1 6.3 2.2 9 0v-1.5c-3.2 2.2-6.2 1.8-9 0z"/><path d="m13.5 15v1.5c3.4 3.1 6.3 2.2 9 0v-1.5c-3.2 2.2-6.2 1.8-9 0z"/></g></svg>