<?xml-stylesheet type="text/css" href="icons.css" ?>
<svg viewBox="0 0 24 24" xmlns="http://www.w3.org/2000/svg">
  <g id="background"
     class="icn icn--area-color"
     fill="#c8c6c4"
     stroke="#3a3a38"
     stroke-linecap="round"
     stroke-linejoin="round"
     >
      <path d="M 4.5,21.5 V 2.5" />
      <path d="m 2.5,19.5 h 19" />
  </g>
  <g id="symbol"
     class="icn icn--area-color"
     fill="#c8c6c4"
     stroke="#3a3a38"
     stroke-linecap="round"
     stroke-linejoin="round"
     >
      <path d="M 11.5 5.5 L 11.5 18.5 L 14.5 18.5 L 14.5 5.5 L 11.5 5.5 z M 6.5 8.5 L 6.5 18.5 L 9.5 18.5 L 9.5 8.5 L 6.5 8.5 z M 16.5 11.5 L 16.5 18.5 L 19.5 18.5 L 19.5 11.5 L 16.5 11.5 z " />
  </g>
  <g id="symbol"
     class="icn icn--negative-color"
     fill="#ff9198" 
     stroke="#da4453" 
	 stroke-linecap="round" 
	 stroke-linejoin="round"
      >
      <path d="M 2.5 3.5 L 2.5 17.5 L 2.5 3.5 z M 6.5 21.5 L 20.5 21.5 L 6.5 21.5 z " />
  </g>
  <g id="symbol-background"
     class="icn icn--background"
     stroke="#fff" 
     stroke-width="3px"
	 stroke-linecap="round" 
	 stroke-linejoin="round"
      >
      <path d="m 22.5,22.5 -9,-9" />
      <path d="m 13.5,22.5 9,-9" />
  </g>
  <g id="symbol"
     class="icn icn--negative-color-line"
     fill="none" 
     stroke="#da4453" 
	 stroke-linecap="round" 
	 stroke-linejoin="round"
      >
      <path d="m 22.5,22.5 -9,-9" />
      <path d="m 13.5,22.5 9,-9" />
  </g>
</svg>
