<svg viewBox="0 0 24 24" fill="none" xmlns="http://www.w3.org/2000/svg">
<path d="M11.75 19H2.25C2.11193 19 2 19.2239 2 19.5C2 19.7761 2.11193 20 2.25 20H11.75C11.8881 20 12 19.7761 12 19.5C12 19.2239 11.8881 19 11.75 19Z" fill="#797774"/>
<path d="M21.5 4H2.5C2.22386 4 2 4.22386 2 4.5C2 4.77614 2.22386 5 2.5 5H21.5C21.7761 5 22 4.77614 22 4.5C22 4.22386 21.7761 4 21.5 4Z" fill="#797774"/>
<path d="M4 11L7.77778 15L11.5556 8L15.3333 12L18.1667 6L21 9" stroke="#1E8BCD" stroke-linecap="round" stroke-linejoin="round"/>
<path d="M4 2.5C4 2.22386 3.77614 2 3.5 2C3.22386 2 3 2.22386 3 2.5V21.5C3 21.7761 3.22386 22 3.5 22C3.77614 22 4 21.7761 4 21.5V2.5Z" fill="#797774"/>
<path d="M19.8505 12C19.6925 12 19.5353 12.0598 19.4142 12.1807L18.0193 13.5723L20.3925 15.9469L21.8184 14.5814C22.0605 14.3396 22.0605 13.9508 21.8184 13.709L20.2883 12.1807C20.1673 12.0598 20.0085 12 19.8505 12ZM19.8505 12.8252L21.1689 14.1419L20.4039 14.876L19.1017 13.5739L19.8505 12.8252Z" fill="#0063B1"/>
<path d="M19.8505 12.8252L19.1017 13.5739L20.4039 14.876L21.169 14.1419L19.8505 12.8252Z" fill="#83BEEC"/>
<path d="M13.4243 18.1475L13.4226 18.1458L12.8334 18.735L12.8351 18.7367L12.7927 18.779L12 22L15.1724 21.1569L20.3763 15.9307L18.0193 13.5723L13.4243 18.1475ZM18.0177 14.6546L19.2938 15.9323L15.2587 19.9834L13.9663 18.6895L18.0177 14.6546ZM13.4259 19.4121L14.5458 20.5303L13.0531 20.9274L13.4259 19.4121Z" fill="#0063B1"/>
<path d="M18.0177 14.6546L19.2938 15.9323L15.2587 19.9834L13.9663 18.6895L18.0177 14.6546ZM13.4259 19.4121L14.5458 20.5303L13.0532 20.9274L13.4259 19.4121Z" fill="#83BEEC"/>
</svg>
