<?xml version="1.0" encoding="UTF-8"?>
<svg width="24" height="24" viewBox="0 0 24 24" xmlns="http://www.w3.org/2000/svg">
 <path d="M3 3H21V21H3V3Z" fill="#FAFAFA"/>
 <path d="M2 2V22H22V2H2ZM3 3H21V21H3V3Z" fill="#3A3A38"/>
 <path d="m17 12c0 1.3261-0.5268 2.5979-1.4645 3.5355-0.9376 0.9377-2.2094 1.4645-3.5355 1.4645s-2.5978-0.5268-3.5355-1.4645c-0.93769-0.9376-1.4645-2.2094-1.4645-3.5355s0.52678-2.5978 1.4645-3.5355c0.93768-0.93769 2.2094-1.4645 3.5355-1.4645s2.5979 0.52678 3.5355 1.4645c0.9377 0.93768 1.4645 2.2094 1.4645 3.5355z" fill="#ED8733"/>
 <path d="m15 12c0 0.7956-0.3161 1.5587-0.8787 2.1213s-1.3257 0.8787-2.1213 0.8787-1.5587-0.3161-2.1213-0.8787c-0.56261-0.5626-0.87868-1.3257-0.87868-2.1213s0.31607-1.5587 0.87868-2.1213c0.56262-0.56261 1.3257-0.87868 2.1213-0.87868s1.5587 0.31607 2.1213 0.87868c0.5626 0.56262 0.8787 1.3257 0.8787 2.1213z" fill="#F8DB8F"/>
 <rect x="5" y="5" width="2" height="2" fill="#0063B1"/>
 <rect x="17" y="5" width="2" height="2" fill="#0063B1"/>
 <rect x="17" y="17" width="2" height="2" fill="#0063B1"/>
 <rect x="5" y="17" width="2" height="2" fill="#0063B1"/>
 <rect x="6" y="7" width="1" height="10" fill="#0063B1"/>
 <rect x="7" y="6" width="10" height="1" fill="#0063B1"/>
 <rect x="17" y="7" width="1" height="10" fill="#0063B1"/>
 <rect transform="matrix(1 0 0 -1 7 18)" width="10" height="1" fill="#0063B1"/>
 <rect x="6" y="6" width="1" height="1" fill="#83BEEF"/>
 <rect x="17" y="6" width="1" height="1" fill="#83BEEF"/>
 <rect x="17" y="17" width="1" height="1" fill="#83BEEF"/>
 <rect x="6" y="17" width="1" height="1" fill="#83BEEF"/>
</svg>
