<svg width="24" xmlns="http://www.w3.org/2000/svg" height="24" id="screenshot-454947a8-ebcb-809d-8007-19666d21441d" viewBox="0 0 24 24" xmlns:xlink="http://www.w3.org/1999/xlink" fill="none" version="1.1"><g id="shape-454947a8-ebcb-809d-8007-19666d21441d" rx="0" ry="0" style="fill: rgb(0, 0, 0);"><g id="shape-454947a8-ebcb-809d-8007-19666d21441e" style="display: none;"><g class="fills" id="fills-454947a8-ebcb-809d-8007-19666d21441e"><rect width="24" height="24" x="0" transform="matrix(1.000000, 0.000000, 0.000000, 1.000000, 0.000000, 0.000000)" style="fill: none;" ry="0" fill="none" rx="0" y="0"/></g></g><g id="shape-454947a8-ebcb-809d-8007-19666d21441f"><g class="fills" id="fills-454947a8-ebcb-809d-8007-19666d21441f"><path d="M5,4.0000433921813965L5,21.000043869018555L17.076171875,21.000043869018555C17.164306640625,20.770978927612305,17.30078125,20.557722091674805,17.478515625,20.398481369018555L17.884765625,19.990278244018555L11.521484375,19.990278244018555C11.101318359375,19.996198654174805,10.65380859375,19.807477951049805,10.3828125,19.505903244018555C10.11181640625,19.204328536987305,10,18.839704513549805,10,18.490278244018555C10,18.140851974487305,10.11181640625,17.776227951049805,10.3828125,17.474653244018555C10.65380859375,17.173078536987305,11.101318359375,16.984357833862305,11.521484375,16.990278244018555L17.873046875,16.990278244018555L17.451171875,16.568403244018555C16.998291015625,16.130109786987305,16.89501953125,15.442975997924805,17.103515625,14.927778244018555C17.3115234375,14.413618087768555,17.861572265625,13.992170333862305,18.490234375,13.990278244018555L18.4921875,13.990278244018555C18.66748046875,13.989850997924805,18.837890625,14.025983810424805,19,14.084028244018555L19,7.7285590171813965L15,4.0000433921813965Z" style="fill: rgb(250, 250, 250);"/></g></g><g id="shape-454947a8-ebcb-809d-8007-19666d214420"><g class="fills" id="fills-454947a8-ebcb-809d-8007-19666d214420"><path d="M5,3.0000436305999756C4.446044921875,3.0000436305999756,4,3.4460275173187256,4,4.0000433921813965L4,21.000043869018555C4,21.554059982299805,4.446044921875,22.000043869018555,5,22.000043869018555L17.060546875,22.000043869018555C17.0126953125,21.864423751831055,16.976806640625,21.721906661987305,16.970703125,21.564496994018555C16.963623046875,21.378339767456055,17.005126953125,21.184186935424805,17.076171875,21.000043869018555L5,21.000043869018555L5,4.0000433921813965L14,4.0000433921813965L14,8.000043869018555C14,8.554059982299805,14.446044921875,9.000043869018555,15,9.000043869018555L19,9.000043869018555L19,14.084028244018555C19.2119140625,14.159955978393555,19.407958984375,14.277570724487305,19.568359375,14.441450119018555L20,14.873090744018555L20,8.250043869018555L20,8.041059494018555C20,7.5903754234313965,20.09814453125,7.6156439781188965,19.39453125,6.9746527671813965L16.087890625,3.7363717555999756C15.37841796875,2.9994943141937256,15.377685546875,3.0000436305999756,14.994140625,3.0000436305999756L14.662109375,3.0000436305999756L14,3.0000436305999756Z" style="fill: rgb(58, 58, 56);"/></g></g><g id="shape-454947a8-ebcb-809d-8007-19666d214421" rx="0" ry="0" style="fill: rgb(0, 0, 0);"><g id="shape-454947a8-ebcb-809d-8007-19666d214422"><g class="fills" id="fills-454947a8-ebcb-809d-8007-19666d214422"><path d="M15,8.000043869018555L19,8.000043869018555L15,4.0000433921813965Z" fill-rule="evenodd" style="fill: rgb(250, 250, 250);"/></g></g><g id="shape-454947a8-ebcb-809d-8007-19666d214423"><g class="fills" id="fills-454947a8-ebcb-809d-8007-19666d214423"><path d="M18.494140625,14.990278244018555C18.29052734375,14.990339279174805,18.107177734375,15.113935470581055,18.03076171875,15.302778244018555C17.954345703125,15.491682052612305,18,15.707990646362305,18.146484375,15.849653244018555L20.291015625,17.990278244018555L11.5078125,17.990278244018555C11.327392578125,17.987714767456055,11.15966796875,18.082441329956055,11.06884765625,18.238203048706055C10.97802734375,18.393964767456055,10.97802734375,18.586591720581055,11.06884765625,18.742353439331055C11.15966796875,18.898115158081055,11.327392578125,18.992841720581055,11.5078125,18.990278244018555L20.294921875,18.990278244018555L18.146484375,21.142621994018555C18.00830078125,21.266279220581055,17.9501953125,21.456220626831055,17.994873046875,21.636091232299805C18.039794921875,21.815961837768555,18.180419921875,21.956281661987305,18.3603515625,22.000593185424805C18.54052734375,22.044965744018555,18.730224609375,21.986127853393555,18.853515625,21.847700119018555L21.810546875,18.886762619018555C21.934814453125,18.791608810424805,22.00732421875,18.643842697143555,22.006591796875,18.487348556518555C22.005615234375,18.330915451049805,21.931884765625,18.183820724487305,21.806640625,18.089887619018555L18.853515625,15.140668869018555C18.759033203125,15.043989181518555,18.62939453125,14.989789962768555,18.494140625,14.990278244018555Z" fill-rule="evenodd" style="fill: rgb(30, 139, 205);"/></g></g></g></g></svg>