<?xml version="1.0" encoding="UTF-8"?>
<svg width="24" height="24" viewBox="0 0 24 24" xmlns="http://www.w3.org/2000/svg">
 <path d="M2 2V22H22V2H2ZM3 3H21V21H3V3Z" fill="#BA2323"/>
 <path d="M3 3H21V21H3V3Z" fill="#BA2323"/>
 <path d="M2 2V22H22V2H2ZM3 3H21V21H3V3Z" fill="#3A3A38"/>
 <path d="m3.5908 14.331c0-0.101 0.0179-0.197 0.05371-0.2881 0.03906-0.0912 0.09115-0.1693 0.15625-0.2344 0.06836-0.0651 0.14811-0.1172 0.23926-0.1563 0.09114-0.039 0.1888-0.0585 0.29297-0.0585 0.10416 0 0.20182 0.0195 0.29297 0.0585 0.09114 0.0391 0.16927 0.0912 0.23437 0.1563 0.06836 0.0651 0.12207 0.1432 0.16113 0.2344 0.03907 0.0911 0.0586 0.1871 0.0586 0.2881 0 0.1041-0.01953 0.2018-0.0586 0.2929-0.03906 0.0912-0.09277 0.1693-0.16113 0.2344-0.0651 0.0651-0.14323 0.1156-0.23437 0.1514-0.09115 0.039-0.18881 0.0586-0.29297 0.0586-0.10417 0-0.20183-0.0196-0.29297-0.0586-0.09115-0.0358-0.1709-0.0863-0.23926-0.1514-0.0651-0.0651-0.11719-0.1432-0.15625-0.2344-0.03581-0.0911-0.05371-0.1888-0.05371-0.2929zm5.5029-3.2032c-0.03255 0.0554-0.06836 0.0944-0.10742 0.1172-0.03581 0.0195-0.08138 0.0293-0.13672 0.0293-0.05859 0-0.12044-0.0146-0.18555-0.0439-0.06185-0.0326-0.13183-0.0668-0.20996-0.1026-0.07487-0.039-0.16113-0.0732-0.25879-0.1025-0.09765-0.0326-0.20996-0.0488-0.33691-0.0488-0.19531 0-0.34668 0.0455-0.4541 0.1367-0.10742 0.0879-0.16114 0.2067-0.16114 0.3564 0 0.1009 0.03093 0.1856 0.09278 0.2539 0.06185 0.0651 0.14323 0.1237 0.24414 0.1758 0.10416 0.0488 0.21972 0.0944 0.34668 0.1367 0.13021 0.0424 0.26367 0.0879 0.40039 0.1368 0.13672 0.0488 0.26855 0.1074 0.39551 0.1757 0.1302 0.0651 0.24576 0.1465 0.34668 0.2442 0.10416 0.0976 0.18717 0.2164 0.24902 0.3564s0.09277 0.3076 0.09277 0.5029c0 0.2344-0.04069 0.4509-0.12207 0.6495-0.08138 0.1985-0.20182 0.3694-0.36133 0.5127-0.15625 0.1432-0.35156 0.2555-0.58593 0.3369-0.23112 0.0814-0.49968 0.122-0.80567 0.122-0.15625 0-0.31087-0.0146-0.46386-0.0439-0.153-0.0293-0.29948-0.07-0.43946-0.1221-0.13997-0.0553-0.27181-0.1188-0.39551-0.1904-0.12044-0.0716-0.2246-0.1497-0.3125-0.2344l0.28809-0.4687c0.03581-0.0554 0.07813-0.0993 0.12695-0.1319 0.04883-0.0325 0.11231-0.0488 0.19043-0.0488 0.07162 0 0.13835 0.0195 0.2002 0.0586 0.0651 0.0391 0.13509 0.083 0.20996 0.1318 0.07487 0.0456 0.16439 0.0879 0.26855 0.127 0.10417 0.0391 0.23438 0.0586 0.39063 0.0586 0.11719 0 0.21647-0.0147 0.29785-0.044 0.08464-0.0293 0.15137-0.0683 0.2002-0.1171 0.05208-0.0521 0.08951-0.1107 0.1123-0.1758 0.02604-0.0651 0.03906-0.1319 0.03906-0.2002 0-0.1433-0.05371-0.2539-0.16113-0.3321-0.10742-0.0813-0.24251-0.1513-0.40527-0.2099s-0.33854-0.1188-0.52735-0.1807c-0.18554-0.0618-0.3597-0.1465-0.52246-0.2539s-0.29785-0.249-0.40527-0.4248-0.16113-0.4085-0.16113-0.6982c0-0.2019 0.03743-0.3923 0.1123-0.5713 0.07487-0.1823 0.18555-0.3418 0.33203-0.4785 0.14974-0.1368 0.33366-0.2458 0.55176-0.3272 0.22135-0.0814 0.47852-0.1221 0.77148-0.1221 0.15951 0 0.31413 0.0147 0.46387 0.044s0.28972 0.0716 0.41992 0.1269c0.13347 0.0521 0.25391 0.1156 0.36133 0.1905 0.11068 0.0748 0.20833 0.1562 0.29297 0.2441l-0.27832 0.4492zm0.56152-0.9765h0.98633c0.0911 0 0.1676 0.0228 0.2295 0.0683 0.0651 0.0423 0.1058 0.0961 0.1221 0.1612l0.6152 2.4707c0.0358 0.1464 0.0684 0.2913 0.0977 0.4345 0.0325 0.14 0.0602 0.2784 0.083 0.4151 0.0358-0.1367 0.0732-0.2751 0.1123-0.4151 0.0423-0.1432 0.0862-0.2881 0.1318-0.4345l0.7324-2.4805c0.0196-0.0651 0.0586-0.1188 0.1172-0.1611 0.0586-0.0424 0.1302-0.0635 0.2149-0.0635h0.5468c0.0879 0 0.1628 0.0211 0.2246 0.0635 0.0619 0.0423 0.1026 0.096 0.1221 0.1611l0.7031 2.4805c0.0912 0.2994 0.1693 0.5843 0.2344 0.8545 0.0261-0.14 0.0537-0.28 0.083-0.42 0.0293-0.1399 0.0651-0.2864 0.1074-0.4394l0.6446-2.4707c0.0162-0.0651 0.0537-0.1188 0.1123-0.1612 0.0618-0.0423 0.1351-0.0634 0.2197-0.0634h0.9424l-1.5088 4.8486h-1.001c-0.1139 0-0.192-0.0716-0.2344-0.2148l-0.8007-2.6954c-0.0651-0.1985-0.114-0.3922-0.1465-0.581-0.0391 0.1953-0.0879 0.3906-0.1465 0.5859l-0.8154 2.6905c-0.0456 0.1432-0.1351 0.2148-0.2686 0.2148h-0.9521l-1.5088-4.8486zm8.2177 4.8486v-3.9355l-0.3466-0.0684c-0.0944-0.0163-0.1709-0.0488-0.2295-0.0977-0.0586-0.0488-0.0879-0.1188-0.0879-0.2099v-0.503h0.664v-0.33687c0-0.27669 0.0407-0.52571 0.1221-0.74707 0.0814-0.22135 0.1986-0.41015 0.3516-0.5664s0.3385-0.27507 0.5566-0.35645c0.2181-0.08463 0.4655-0.12695 0.7422-0.12695 0.1074 0 0.2083 0.00814 0.3027 0.02441 0.0944 0.01302 0.1921 0.03418 0.293 0.06348l-0.0293 0.62012c-0.0065 0.0944-0.0456 0.15462-0.1172 0.18066s-0.1513 0.03906-0.2392 0.03906c-0.1237 0-0.2344 0.01465-0.3321 0.04395-0.0976 0.02929-0.1806 0.07975-0.249 0.15136-0.0651 0.06836-0.1155 0.16114-0.1514 0.27832-0.0325 0.11719-0.0488 0.26205-0.0488 0.43458v0.2978h1.1231v0.879h-1.084v3.9355h-1.2403z" fill="#fff"/>
</svg>
