<svg version="1.1" viewBox="0 0 24 24" xmlns="http://www.w3.org/2000/svg"><path d="m12.375 4.5c-3.1066 0-5.625 2.5184-5.625 5.625 0 1.442 0.54774 2.753 1.4399 3.7485l-0.00442 0.0015c0.81445 0.94165 1.5423 1.4635 1.5645 2.4375-5.1e-4 0.05771-0.00345 0.11538-0.00879 0.17285l0.008815 0.014613h5.25l0.0088-0.01465c-0.0053-0.05747-0.0083-0.11514-0.0088-0.17285 0.02215-0.97399 0.75-1.4958 1.5645-2.4375l-0.0044-0.0015c0.89221-0.99547 1.4399-2.3065 1.4399-3.7485 0-3.1066-2.5184-5.625-5.625-5.625z" fill="#fb983b"/><g transform="matrix(.75 0 0 .75 0 -1.5)" fill="#ed8733"><rect x="16" y="2" width="1" height="5" rx=".66667" ry=".66667" stroke-width="1.3333"/><rect transform="rotate(90)" x="15" y="-30" width="1" height="5" rx=".66667" ry=".66667" stroke-width="1.3333"/><rect transform="rotate(90)" x="15" y="-8" width="1" height="5" rx=".66667" ry=".66667" stroke-width="1.3333"/><g transform="rotate(45,16.5,15.5)" stroke-width="1.3333"><rect x="16" y="2" width="1" height="5" rx=".66667" ry=".66667"/><rect x="16" y="24" width="1" height="5" rx=".66667" ry=".66667"/><g transform="rotate(90)"><rect x="15" y="-30" width="1" height="5" rx=".66667" ry=".66667"/><rect x="15" y="-8" width="1" height="5" rx=".66667" ry=".66667"/></g></g><path transform="translate(0,2)" d="m13 22v5h7v-5zm1 1h5v1h-5zm0 2h5v1h-5z" fill="#3a3a38" fill-opacity=".94656" stroke-width="1.7778"/><path transform="translate(0,2)" d="m14 23v1h5v-1zm0 2v1h5v-1z" fill="#fafafa" fill-opacity=".95038" stroke-width="1.7778"/><path d="m13 30 0.5 1h6l0.5-1z" fill="#3a3a38" stroke-width="1.7778"/></g><path d="m12.375 5.2354c-2.7093 0-4.8896 2.1804-4.8896 4.8896 0 1.2559 0.47453 2.3898 1.2524 3.2578a0.73522 0.73522 0 0 1 0.045412 0.05713c4.747e-4 5.42e-4 9.75e-4 9e-4 0.0015 0.0015 0.36612 0.41735 0.73658 0.76932 1.062 1.1895 0.23035 0.29737 0.32236 0.72716 0.43506 1.1338h4.1865c0.1127-0.40662 0.20471-0.83642 0.43506-1.1338 0.32586-0.42068 0.69689-0.77285 1.0635-1.1909a0.73522 0.73522 0 0 1 0.04541-0.05713c0.77791-0.86796 1.2524-2.002 1.2524-3.2578 0-2.7093-2.1804-4.8896-4.8896-4.8896z" fill="#f8db8f"/></svg>
