<svg viewBox="0 0 24 24" xmlns="http://www.w3.org/2000/svg"><g stroke-linecap="round" stroke-linejoin="round"><path d="m2.5 2.5h19v19h-19z" fill="#fafafa" stroke="#3a3a38"/><path d="m10.5 6.5h7zm0 5h7zm0 5h7z" fill="#797774" stroke="#797774"/><path d="m7.5 16.5a1 1 0 0 1 -1 1 1 1 0 0 1 -1-1 1 1 0 0 1 1-1 1 1 0 0 1 1 1z" fill="#a1ddaa" stroke="#18ab50"/><path d="m7.5 6.5a1 1 0 0 1 -1 1 1 1 0 0 1 -1-1 1 1 0 0 1 1-1 1 1 0 0 1 1 1z" fill="#83beec" stroke="#1e8bcd"/><path d="m7.5 11.5a1 1 0 0 1 -1 1 1 1 0 0 1 -1-1 1 1 0 0 1 1-1 1 1 0 0 1 1 1z" fill="#f8db8f" stroke="#ed8733"/></g><path d="m16.386719 12.251953a1.0027936 1.0027936 0 0 0 -.259766.048828c-.346044.11239-.679936.254639-1 .427735a1.0027936 1.0027936 0 0 0 -.007812.005859c-.403027.222652-.779385.490179-1.121094.798828a1.0027936 1.0027936 0 0 0 -.277344 1.066406l.392578 1.15625-1.199219.240235a1.0027936 1.0027936 0 0 0 -.783203.771484c-.08653.403035-.13053.814155-.132812 1.226563a1.0027936 1.0027936 0 0 0 0 .007812c.000777.412111.04392.823282.128906 1.226563a1.0027936 1.0027936 0 0 0 .783203.77539l1.203125.240235-.390625 1.158203a1.0027936 1.0027936 0 0 0 -.013672.597656h8.291016v-1.421875l-.113281-.333984.113281-.023438v-4.441406l-.113281-.023438.113281-.335937v-1.886719a1.0027936 1.0027936 0 0 0 -.003906-.003906c-.616159-.550639-1.340025-.968375-2.125-1.226563a1.0027936 1.0027936 0 0 0 -1.066406.291016l-.806641.917969-.808594-.919922a1.0027936 1.0027936 0 0 0 -.802734-.339844z" fill="#fafafa"/><g fill="#1e8bcd"><path d="m23 18.000001c-.000647-.343279-.03664-.685584-.107422-1.021484l-2.320312-.464844.755859-2.236328c-.513244-.458667-1.115664-.806421-1.769531-1.021486l-1.558594 1.773439-.468749-.533203-1.093751-1.242188c-.288253.09362-.567398.213248-.833984.357422-.335712.185464-.64898.408939-.933594.666016l.757812 2.236328-2.316406.464844c-.072088.335769-.109428.67807-.111328 1.021484.000647.343279.03664.685584.107422 1.021484l2.320312.464844-.755859 2.236328c.513244.458667 1.115664.80642 1.769531 1.021485l1.558595-1.773438 1.562499 1.77539c.288253-.09362.567396-.213252.833984-.357422.335712-.185463.64897-.408938.933594-.666015l-.757812-2.236328 2.316406-.464844c.07209-.335769.109428-.67807.111328-1.021484zm-1-.179687.000001.359375-1.625001.326171a1.0001 1.0001 0 0 0 -.75 1.300782l.529297 1.5625.0019.0059-.312499.179688-1.091797-1.244141a1.0001 1.0001 0 0 0 -1.503906 0l-1.091797 1.244141-.3125-.179687.53125-1.56836a1.0001 1.0001 0 0 0 -.75-1.300782l-1.625-.326171-.000001-.359376 1.625001-.326171a1.0001 1.0001 0 0 0 .75-1.300782l-.53125-1.568359.3125-.179688 1.091797 1.244141a1.0001 1.0001 0 0 0 .865233.333985 1.0001 1.0001 0 0 0 .638673-.333985l1.091796-1.244141.312501.179688-.53125 1.568359a1.0001 1.0001 0 0 0 .75 1.300782z"/><path d="m19 18.000001a1 1 0 0 1 -1 1 1 1 0 0 1 -1-1 1 1 0 0 1 1-1 1 1 0 0 1 1 1z"/></g></svg>