<svg height="24" viewBox="0 0 6.3499999 6.3500002" width="24" xmlns="http://www.w3.org/2000/svg"><g stroke-width=".999999" transform="scale(.26458334)"><path d="m3 2v19h10.857422l.255859-.755859-1.203125-.240235a1.0027936 1.0027936 0 0 1 -.783203-.77539c-.084986-.403281-.128129-.814438-.128906-1.226563a1.0027936 1.0027936 0 0 1 0-.007812c.002283-.412408.046284-.823528.132812-1.226563a1.0027936 1.0027936 0 0 1 .783203-.771484l1.199219-.240235-.392578-1.15625a1.0027936 1.0027936 0 0 1 .277344-1.066406c.341709-.308648.718054-.576174 1.121094-.798828a1.0027936 1.0027936 0 0 1 .007812-.005859c.320064-.173097.653954-.315347 1-.427735a1.0027936 1.0027936 0 0 1 .259766-.048828 1.0027936 1.0027936 0 0 1 .802734.339844l.808594.919922.806641-.917969a1.0027936 1.0027936 0 0 1 1.066406-.291016c.784975.258188 1.50884.675925 2.125 1.226563a1.0027936 1.0027936 0 0 1 .003906.003906v-11.533203zm19 13.419922-.113281.335937.113281.023438zm0 4.800781-.113281.023438.113281.333984z" fill="#fafafa"/><path d="m7 2v4h-4v1h4v4h-4v1h4v4h-4v1h4v4h1v-4h4v.958984c.004527-.400586.046795-.799849.130859-1.191406a1.0027936 1.0027936 0 0 1 .783203-.771484l.085938-.017578v-3.978516h4v.425781a1.0027936 1.0027936 0 0 1 .189453.166016l.808594.919922.001953-.001953v-1.509766h4v-1h-4v-4h4v-1h-4v-4h-1v4h-4v-4h-1v4h-4v-4zm1 5h4v4h-4zm5 0h4v4h-4zm-5 5h4v4h-4zm4 6.039062v2.960938h1v-.978516l-.089844-.017578a1.0027936 1.0027936 0 0 1 -.783203-.77539c-.082432-.391158-.12373-.789779-.126953-1.189454z" fill="#797774"/><path d="m3 1c-.554 0-1 .4459969-1 1v19c0 .554003.446 1 1 1h10.708984c-.05631-.195975-.05154-.404461.01367-.597656l.134768-.402344h-10.857422v-19h19v11.533203c.296167.267932.405112.686064.277344 1.064453l-.277344.822266v.359375l1 .199219v-13.978516c0-.5540031-.446-1-1-1z" fill="#3a3a38"/></g><g fill="#1e8bcd" transform="matrix(.26458333 0 0 .26458333 0 .00002)"><path d="m12 7v4h-4v-4z" opacity=".5" stroke-width=".561952"/><path d="m7 6v1 4 1h6v-1-4-1zm1 1h4v4h-4z"/></g><path d="m5.8208333 4.714958.0000003.095085-.4299483.086299c-.1563465.0314794-.2495243.1930847-.1984375.3441653l.1400432.4134114.0005027.00156-.082682.047542-.2888712-.329179c-.1054026-.1202025-.2925059-.1202025-.3979085 0l-.2888714.3291805-.0826823-.0475422.1405599-.4149619c.0510868-.1510805-.042091-.3126859-.1984375-.3441652l-.4299479-.086299-.0000002-.095085.4299481-.086299c.1563465-.0314801.2495243-.1930855.1984375-.344166l-.1405599-.4149616.082682-.047543.2888713.329179c.057213.065197.1427464.098213.2289262.088367.065352-.00743.1255951-.038933.1689823-.088367l.288871-.329179.082682.047543-.1405591.4149616c-.051087.1510805.042091.3126859.1984375.3441652z" fill="#fafafa"/><path d="m4.3490884 3.5067628c-.076267.02477-.150124.056422-.2206582.094568-.088824.049071-.1717093.1081984-.2470134.1762167l.2005044.5916951-.6128824.12299c-.019073.088839-.028953.179406-.029456.2702677.0001712.090826.00969.1813941.028422.2702676l.6139159.12299-.1999877.5916951c.1357957.1213556.295186.2133652.4681883.2702678l.412378-.469222.4134114.4697387c.0762676-.0247704.1501242-.056423.2206589-.094568.0888238-.0490705.1717067-.1081983.2470134-.1762166l-.2005044-.5916951.6128825-.12299c.0190738-.0888389.0289529-.179406.0294556-.2702676-.0001712-.0908259-.0096944-.1813941-.0284221-.2702677l-.613916-.12299.1999877-.5916951c-.1357958-.1213556-.2951861-.2133653-.4681884-.2702679l-.412378.4692222-.1240235-.1410767zm-.074414.3152262.2888712.3291789a.26460979.26460979 0 0 0 .2289265.088367.26460979.26460979 0 0 0 .168982-.088367l.2888713-.3291789.0826823.0475424-.1405599.4149617a.26460979.26460979 0 0 0 .1984375.3441652l.429948.086299v.095085l-.429948.0863a.26460979.26460979 0 0 0 -.1984375.344165l.1400432.4134114.0005291.00156-.082682.047542-.2888713-.329179a.26460979.26460979 0 0 0 -.3979084 0l-.288884.3291697-.0826823-.0475425.1405599-.4149616a.26460979.26460979 0 0 0 -.1984375-.3441653l-.4299479-.0862994v-.0950849l.4299479-.0862994a.26460979.26460979 0 0 0 .1984375-.3441652l-.1405599-.4149617zm.4878255.6759278a.26458334.26458334 0 0 0 -.2645834.2645834.26458334.26458334 0 0 0 .2645834.2645833.26458334.26458334 0 0 0 .2645833-.2645833.26458334.26458334 0 0 0 -.2645833-.2645834z" fill="#1e8bcd"/></svg>