<svg version="1.1" viewBox="0 0 24 24" xmlns="http://www.w3.org/2000/svg">
 <path d="m12 2c-5.5169 0-10 4.4831-10 10v10h10c5.5169 0 10-4.4831 10-10 0-5.5169-4.4831-10-10-10zm0 1c4.9765 0 9 4.0235 9 9 0 4.9765-4.0235 9-9 9v-9h-9c0-4.9765 4.0235-9 9-9z" fill="#1e8bcd" stroke-linecap="square" stroke-width=".10438" style="paint-order:markers fill stroke"/>
 <path d="m12 2.5c-5.2467 0-9.5 4.2533-9.5 9.5 0 5.2467 4.2533 9.5 9.5 9.5 5.2467 0 9.5-4.2533 9.5-9.5 0-5.2467-4.2533-9.5-9.5-9.5z" color="#000000" color-rendering="auto" dominant-baseline="auto" fill="#83beec" image-rendering="auto" shape-rendering="auto" solid-color="#000000" stop-color="#000000" style="font-feature-settings:normal;font-variant-alternates:normal;font-variant-caps:normal;font-variant-east-asian:normal;font-variant-ligatures:normal;font-variant-numeric:normal;font-variant-position:normal;font-variation-settings:normal;inline-size:0;isolation:auto;mix-blend-mode:normal;shape-margin:0;shape-padding:0;text-decoration-color:#000000;text-decoration-line:none;text-decoration-style:solid;text-indent:0;text-orientation:mixed;text-transform:none;white-space:normal"/>
 <path d="m13 11h-2v2h2zm3 0h2v2h-2zm-8 0h-2v2h2z" fill="#fafafa"/>
</svg>
