<svg viewBox="0 0 24 24" xmlns="http://www.w3.org/2000/svg"><path d="m5 3v9.808594c.0404608-.023585.0781206-.051558.1191406-.074219a1.0027936 1.0027936 0 0 1 .0078125-.005859c.320064-.173096.653956-.315345 1-.427735a1.0027936 1.0027936 0 0 1 .2597657-.048828 1.0027936 1.0027936 0 0 1 .8027343.339844l.8085938.919922.8066406-.917969a1.0027936 1.0027936 0 0 1 1.0664063-.291016c.7849752.258188 1.5088412.675924 2.1250002 1.226563a1.0027936 1.0027936 0 0 1 .28125 1.068359l-.390625 1.158203 1.203125.240235a1.0027936 1.0027936 0 0 1 .783203.77539c.084976.403281.128129.814452.128906 1.226563a1.0027936 1.0027936 0 0 1 0 .007812c-.002282.412408-.046282.823528-.132812 1.226563a1.0027936 1.0027936 0 0 1 -.783203.771484l-1.199219.240235.255859.755859h6.857422v-14.2714844l-4-3.7285156z" fill="#fafafa"/><path d="m5 2c-.554 0-1 .446-1 1v10.53125c.3063727-.276472.6437209-.514975 1-.722656v-9.808594h9v4c0 .554.446 1 1 1h4v13h-6.857422l.136719.400391c.06562.193795.070392.403025.013672.599609h6.707031c.554 0 1-.446 1-1v-10.109375-3.640625-.2089844c0-.4506799.098038-.4254121-.605469-1.0664062l-3.30664-3.2382813c-.709525-.7368575-.710169-.7363281-1.09375-.7363281h-.332032-.662109zm10 1 4 4h-4z" fill="#3a3a38"/><path d="m15 7h4l-4-4z" fill="#fafafa" fill-rule="evenodd"/><path d="m15.083984 8.982422c-.192735.3669383-.377936.7590806-.867187 1-.485545.240918-.662384.177734-1.210938.177734v.822266c.496663 0 .660385.0763 1.171875-.138672.515196-.214974.685127-.554647.822266-.84375l-.0039 5h-1.9961v1h1.994141 1.005859 2v-1h-2l.0059-6.017578z" fill="#ed3d3b"/><path d="m13.90625 19c-.013413.077395-.020609.155568-.037109.232422a1.0027936 1.0027936 0 0 1 -.767579.767578h4.898438v-1z" fill="#ed3d3b"/><g stroke-linecap="round" stroke-linejoin="round" transform="translate(-10)"><path d="m22.000026 17.820272.000001.359375-1.625001.326171c-.590916.118977-.943084.729769-.75 1.300782l.529297 1.5625.0019.0059-.312499.179688-1.091797-1.244141c-.398372-.454309-1.105534-.454309-1.503906 0l-1.091797 1.244141-.3125-.179687.53125-1.56836c.193084-.571013-.159084-1.181805-.75-1.300782l-1.625-.326171-.000001-.359376 1.625001-.326171c.590916-.118977.943084-.729769.75-1.300782l-.53125-1.568359.3125-.179688 1.091797 1.244141c.216237.246413.539514.3712.865233.333985.247001-.02808.47469-.147149.638673-.333985l1.091796-1.244141.312501.179688-.53125 1.568359c-.193084.571013.159084 1.181805.75 1.300782z" fill="#fafafa"/><path d="m16.4375 13.253906c-.288253.09362-.567398.213248-.833984.357422-.335712.185464-.64898.408939-.933594.666016l.757812 2.236328-2.316406.464844c-.07209.335769-.109428.67807-.111328 1.021484.000647.343279.03664.685584.107422 1.021484l2.320312.464844-.755859 2.236328c.513244.458667 1.115664.806419 1.769531 1.021484l1.558594-1.773437 1.5625 1.77539c.288253-.09362.567396-.213252.833984-.357422.335712-.185462.64897-.408937.933594-.666015l-.757812-2.236328 2.316406-.464844c.07209-.335769.109428-.67807.111328-1.021484-.000647-.343279-.03664-.685584-.107422-1.021484l-2.320312-.464844.755859-2.236328c-.513244-.458667-1.115664-.80642-1.769531-1.021485l-1.558594 1.773438-.46875-.533203zm-.28125 1.191406 1.091797 1.244141a1.0001 1.0001 0 0 0 .865234.333985 1.0001 1.0001 0 0 0 .638672-.333985l1.091797-1.244141.3125.179688-.53125 1.568359a1.0001 1.0001 0 0 0 .75 1.300782l1.625.326171v.359376l-1.625.326171a1.0001 1.0001 0 0 0 -.75 1.300782l.529297 1.5625.002.0059-.3125.179688-1.091797-1.244141a1.0001 1.0001 0 0 0 -1.503906 0l-1.091844 1.2441-.3125-.179688.53125-1.568359a1.0001 1.0001 0 0 0 -.75-1.300782l-1.625-.326171v-.359376l1.625-.326171a1.0001 1.0001 0 0 0 .75-1.300782l-.53125-1.568359zm1.84375 2.554688a1 1 0 0 0 -1 1 1 1 0 0 0 1 1 1 1 0 0 0 1-1 1 1 0 0 0 -1-1z" fill="#1e8bcd"/></g></svg>