<svg viewBox="0 0 24 24" xmlns="http://www.w3.org/2000/svg"><g fill="#3a3a38" transform="translate(0 2)">&gt;<path d="m10.898438 2-5.898438 16h1.6875c.1834758 0 .3391615-.05267.4667969-.158203.1356125-.10553.2275273-.227232.2753906-.365235l1.203125-3.476562h6.7343755l1.214843 3.488281c.06382.146119.151991.267822.263672.365235.119658.09741.275344.146484.466797.146484h1.6875l-5.886719-16zm1.101562 2.09375 2.671875 7.90625h-5.34375l2.205078-6.3710938c.07179-.1948249.146791-.4218736.226563-.6816406.079772-.2597669.160462-.5450426.240234-.8535156z"/></g><g fill="#3a3a38" transform="translate(0 2)">&gt;<path d="m16.164062 12.291016a1.0027936 1.0027936 0 0 0 -.037109.009765c-.346044.11239-.679936.254639-1 .427735a1.0027936 1.0027936 0 0 0 -.007812.005859c-.250666.13848-.486731.300361-.714844.472656l.267578.792969h-.964844a1.0027936 1.0027936 0 0 0 .013672.599609l.392578 1.15625-1.199219.240235a1.0027936 1.0027936 0 0 0 -.015624.003906h2.46875l1.214843 3.488281c.06382.146119.151991.267822.263672.365235.119658.09741.275344.146484.466797.146484h1.6875z" fill="#fafafa" transform="translate(0 -2)"/></g><path d="m22 17.820314.000001.359375-1.625001.326171c-.590916.118977-.943084.729769-.75 1.300782l.529297 1.5625.0019.0059-.312499.179688-1.091797-1.244141c-.398372-.454309-1.105534-.454309-1.503906 0l-1.091797 1.244141-.3125-.179687.53125-1.56836c.193084-.571013-.159084-1.181805-.75-1.300782l-1.625-.326171-.000001-.359376 1.625001-.326171c.590916-.118977.943084-.729769.75-1.300782l-.53125-1.568359.3125-.179688 1.091797 1.244141c.216237.246413.539514.3712.865233.333985.247001-.02808.47469-.147149.638673-.333985l1.091796-1.244141.312501.179688-.53125 1.568359c-.193084.571013.159084 1.181805.75 1.300782z" fill="#fafafa"/><path d="m16.4375 13.253907c-.288253.09362-.567398.213248-.833984.357422-.335712.185464-.64898.408939-.933594.666016l.757812 2.236328-2.316406.464844c-.072088.335769-.109428.67807-.111328 1.021484.000647.343279.03664.685584.107422 1.021484l2.320312.464844-.755859 2.236328c.513244.458667 1.115664.806419 1.769531 1.021484l1.558594-1.773437 1.5625 1.77539c.288253-.09362.567396-.213252.833984-.357422.335712-.185463.64897-.408938.933594-.666015l-.757812-2.236328 2.316406-.464844c.07209-.335769.109428-.67807.111328-1.021484-.000647-.343279-.03664-.685584-.107422-1.021484l-2.320312-.464844.755859-2.236328c-.513244-.458667-1.115664-.80642-1.769531-1.021485l-1.558594 1.773438-.46875-.533203zm-.28125 1.191406 1.091797 1.244141a1.0001 1.0001 0 0 0 .865234.333985 1.0001 1.0001 0 0 0 .638672-.333985l1.091797-1.244141.3125.179688-.53125 1.568359a1.0001 1.0001 0 0 0 .75 1.300782l1.625.326171v.359376l-1.625.326171a1.0001 1.0001 0 0 0 -.75 1.300782l.529297 1.5625.002.0059-.3125.179688-1.091797-1.244141a1.0001 1.0001 0 0 0 -1.503906 0l-1.091844 1.2441-.3125-.179688.53125-1.568359a1.0001 1.0001 0 0 0 -.75-1.300782l-1.625-.326171v-.359376l1.625-.326171a1.0001 1.0001 0 0 0 .75-1.300782l-.53125-1.568359zm1.84375 2.554688a1 1 0 0 0 -1 1 1 1 0 0 0 1 1 1 1 0 0 0 1-1 1 1 0 0 0 -1-1z" fill="#1e8bcd"/></svg>