<svg viewBox="0 0 24 24" fill="none" xmlns="http://www.w3.org/2000/svg">
<path d="M12 10C10.0109 10 8.10322 10.4214 6.6967 11.1716C5.29018 11.9217 4.5 12.9391 4.5 14V18C4.5 19.0609 5.29018 20.0783 6.6967 20.8284C8.10322 21.5786 10.0109 22 12 22C13.9891 22 15.8968 21.5786 17.3033 20.8284C18.7098 20.0783 19.5 19.0609 19.5 18V14C19.5 12.9391 18.7098 11.9217 17.3033 11.1716C15.8968 10.4214 13.9891 10 12 10ZM12 12C13.3261 12 14.5979 12.2107 15.5355 12.5858C16.4732 12.9609 17 13.4696 17 14C17 14.5304 16.4732 15.0391 15.5355 15.4142C14.5979 15.7893 13.3261 16 12 16C10.6739 16 9.40215 15.7893 8.46447 15.4142C7.52679 15.0391 7 14.5304 7 14C7 13.4696 7.52679 12.9609 8.46447 12.5858C9.40215 12.2107 10.6739 12 12 12ZM7 16.9766C8.37371 17.6343 10.154 17.9987 12 18C13.846 17.9987 15.6263 17.6343 17 16.9766V18.9766C15.6263 19.6343 13.846 19.9987 12 20C10.154 19.9987 8.37371 19.6343 7 18.9766V16.9766Z" fill="#3A3A38"/>
<path d="M12 12C10.6739 12 9.40215 12.2107 8.46447 12.5858C7.52679 12.9609 7 13.4696 7 14C7 14.5304 7.52679 15.0391 8.46447 15.4142C9.40215 15.7893 10.6739 16 12 16C13.3261 16 14.5979 15.7893 15.5355 15.4142C16.4732 15.0391 17 14.5304 17 14C17 13.4696 16.4732 12.9609 15.5355 12.5858C14.5979 12.2107 13.3261 12 12 12ZM7 16.9766V18.9766C8.37371 19.6343 10.154 19.9987 12 20C13.846 19.9987 15.6263 19.6343 17 18.9766V16.9766C15.6263 17.6343 13.846 17.9987 12 18C10.154 17.9987 8.37371 17.6343 7 16.9766Z" fill="#FAFAFA"/>
<path d="M12 5.99997C10.0109 5.99997 8.10322 6.4214 6.6967 7.17154C5.29018 7.92169 4.5 8.9391 4.5 9.99997V14C4.5 15.0608 5.29018 16.0782 6.6967 16.8284C8.10322 17.5785 10.0109 18 12 18C13.9891 18 15.8968 17.5785 17.3033 16.8284C18.7098 16.0782 19.5 15.0608 19.5 14V9.99997C19.5 8.9391 18.7098 7.92169 17.3033 7.17154C15.8968 6.4214 13.9891 5.99997 12 5.99997ZM12 7.99997C13.3261 7.99997 14.5979 8.21068 15.5355 8.58576C16.4732 8.96083 17 9.46954 17 9.99997C17 10.5304 16.4732 11.0391 15.5355 11.4142C14.5979 11.7893 13.3261 12 12 12C10.6739 12 9.40215 11.7893 8.46447 11.4142C7.52679 11.0391 7 10.5304 7 9.99997C7 9.46954 7.52679 8.96083 8.46447 8.58576C9.40215 8.21068 10.6739 7.99997 12 7.99997ZM7 12.9765C8.37371 13.6342 10.154 13.9986 12 14C13.846 13.9986 15.6263 13.6342 17 12.9765V14.9765C15.6263 15.6342 13.846 15.9986 12 16C10.154 15.9986 8.37371 15.6342 7 14.9765V12.9765Z" fill="#3A3A38"/>
<path d="M12 8.00003C10.6739 8.00003 9.40215 8.21074 8.46447 8.58582C7.52679 8.96089 7 9.4696 7 10C7 10.5305 7.52679 11.0392 8.46447 11.4142C9.40215 11.7893 10.6739 12 12 12C13.3261 12 14.5979 11.7893 15.5355 11.4142C16.4732 11.0392 17 10.5305 17 10C17 9.4696 16.4732 8.96089 15.5355 8.58582C14.5979 8.21074 13.3261 8.00003 12 8.00003ZM7 12.9766V14.9766C8.37371 15.6343 10.154 15.9987 12 16C13.846 15.9987 15.6263 15.6343 17 14.9766V12.9766C15.6263 13.6343 13.846 13.9987 12 14C10.154 13.9987 8.37371 13.6343 7 12.9766Z" fill="#FAFAFA"/>
<path d="M12 2C10.0109 2 8.10322 2.42143 6.6967 3.17157C5.29018 3.92172 4.5 4.93913 4.5 6V10C4.5 11.0609 5.29018 12.0783 6.6967 12.8284C8.10322 13.5786 10.0109 14 12 14C13.9891 14 15.8968 13.5786 17.3033 12.8284C18.7098 12.0783 19.5 11.0609 19.5 10V6C19.5 4.93913 18.7098 3.92172 17.3033 3.17157C15.8968 2.42143 13.9891 2 12 2ZM12 4C13.3261 4 14.5979 4.21071 15.5355 4.58579C16.4732 4.96086 17 5.46957 17 6C17 6.53043 16.4732 7.03914 15.5355 7.41421C14.5979 7.78929 13.3261 8 12 8C10.6739 8 9.40215 7.78929 8.46447 7.41421C7.52679 7.03914 7 6.53043 7 6C7 5.46957 7.52679 4.96086 8.46447 4.58579C9.40215 4.21071 10.6739 4 12 4ZM7 8.97656C8.37371 9.63427 10.154 9.99866 12 10C13.846 9.99866 15.6263 9.63427 17 8.97656V10.9766C15.6263 11.6343 13.846 11.9987 12 12C10.154 11.9987 8.37371 11.6343 7 10.9766V8.97656Z" fill="#3A3A38"/>
<path d="M12 4C10.6739 4 9.40215 4.21071 8.46447 4.58579C7.52679 4.96086 7 5.46957 7 6C7 6.53043 7.52679 7.03914 8.46447 7.41421C9.40215 7.78929 10.6739 8 12 8C13.3261 8 14.5979 7.78929 15.5355 7.41421C16.4732 7.03914 17 6.53043 17 6C17 5.46957 16.4732 4.96086 15.5355 4.58579C14.5979 4.21071 13.3261 4 12 4ZM7 8.97656V10.9766C8.37371 11.6343 10.154 11.9987 12 12C13.846 11.9987 15.6263 11.6343 17 10.9766V8.97656C15.6263 9.63427 13.846 9.99866 12 10C10.154 9.99866 8.37371 9.63427 7 8.97656Z" fill="#FAFAFA"/>
</svg>
