<svg version="1.1" viewBox="0 0 24 24" xmlns="http://www.w3.org/2000/svg"><path d="m2 2c-0.554 0-1 0.446-1 1v16c0 0.554 0.446 1 1 1h18c0.554 0 1-0.446 1-1v-16c0-0.554-0.446-1-1-1zm0 1h18v16h-18z" fill="#0063b1"/><path d="m15.271 11c-0.06059 0.0068-0.11835 0.01482-0.17578 0.02344-0.03566 0.0041-0.07015 0.01241-0.10547 0.01758-0.03006 0.0045-0.06003 0.0084-0.08984 0.01367-0.11755 0.02034-0.23248 0.04638-0.3457 0.07812-0.0123 0.0035-0.02487 0.0061-0.03711 0.0098-1.2723 0.37198-2.2417 1.4464-2.4648 2.7754-0.0074 0.0428-0.01378 0.08559-0.01953 0.12891-0.01934 0.14888-0.03321 0.29891-0.03321 0.45309 0 0.1061 0.0044 0.21075 0.01367 0.31445 0.06473 0.72594 0.35112 1.3895 0.79102 1.9199-1.3294 0.69604-2.3418 1.848-2.6758 3.2656-0.07585 0.32192-0.12891 1-0.12891 1h10.771s-0.05306-0.67808-0.12891-1c-0.32086-1.3618-1.2669-2.4787-2.5195-3.1816 0.54598-0.61732 0.87695-1.4294 0.87695-2.3184 0-1.933-1.567-3.5-3.5-3.5-0.03902 0-0.07846 6.55e-4 -0.11719 2e-3 -0.03713-0.0013-0.07393-2e-3 -0.11133-2e-3z" fill="#fff"/><path d="m18 14.5c0 1.3807-1.1193 2.5-2.5 2.5s-2.5-1.1193-2.5-2.5 1.1193-2.5 2.5-2.5 2.5 1.1193 2.5 2.5z" fill="#3a3a38"/><path d="m15.5 17c-2.4853 0-4.5 1.7909-4.5 4h1c0-1.6569 1.567-3 3.5-3 0.9665 0 1.8415 0.33579 2.4749 0.87868 0.63338 0.54289 1.0251 1.2929 1.0251 2.1213h1c0-1.1046-0.50368-2.1046-1.318-2.8284-0.81434-0.72386-1.9393-1.1716-3.182-1.1716z" fill="#3a3a38"/><path d="m19.271 12c-0.06059 0.0068-0.11835 0.01482-0.17578 0.02344-0.03566 0.0041-0.07015 0.01241-0.10547 0.01758-0.03006 0.0045-0.06003 0.0084-0.08984 0.01367-0.11755 0.02034-0.23248 0.04638-0.3457 0.07812-0.0123 0.0035-0.02487 0.0061-0.03711 0.0098-1.2723 0.37198-2.2417 1.4464-2.4648 2.7754-0.0074 0.0428-0.01378 0.08559-0.01953 0.12891-0.01934 0.14888-0.03321 0.29891-0.03321 0.45309 0 0.1061 0.0044 0.21075 0.01367 0.31445 0.06473 0.72594 0.35112 1.3895 0.79102 1.9199-1.3294 0.69604-2.3418 1.848-2.6758 3.2656-0.07585 0.32192-0.12891 1-0.12891 1h10.771s-0.05306-0.67808-0.12891-1c-0.32086-1.3618-1.2669-2.4787-2.5195-3.1816 0.54598-0.61732 0.87695-1.4294 0.87695-2.3184 0-1.933-1.567-3.5-3.5-3.5-0.03902 0-0.07846 6.55e-4 -0.11719 2e-3 -0.03713-0.0013-0.07393-2e-3 -0.11133-2e-3z" fill="#fff"/><path d="m22 15.5c0 1.3807-1.1193 2.5-2.5 2.5s-2.5-1.1193-2.5-2.5 1.1193-2.5 2.5-2.5 2.5 1.1193 2.5 2.5z" fill="#3a3a38"/><path d="m19.5 18c-2.4853 0-4.5 1.7909-4.5 4h1c0-1.6569 1.567-3 3.5-3 0.9665 0 1.8415 0.33579 2.4749 0.87868 0.63338 0.54289 1.0251 1.2929 1.0251 2.1213h1c0-1.1046-0.50368-2.1046-1.318-2.8284-0.81434-0.72386-1.9393-1.1716-3.182-1.1716z" fill="#3a3a38"/><path d="m3.2217 5.2217v6.5566h7.5566v-6.5566z" fill="#0063b1" stroke="#0063b1" stroke-width=".443"/><path d="m2 3v1h18v-1z" fill="#0063b1" stroke-width=".7071"/></svg>
