<svg viewBox="0 0 24 24" xmlns="http://www.w3.org/2000/svg"><path d="m12 5c-.554 0-1 .446-1 1v2h4v-2c0-.554-.446-1-1-1zm-1 6v7c0 .554.446 1 1 1v-1-1a1.0001 1.0001 0 0 1 .802734-.980469l.28125-.05664-.158203-.236329a1.0001 1.0001 0 0 1 .125-1.261718l.707031-.707032.707032-.707031a1.0001 1.0001 0 0 1 .535156-.277343v-1.773438z" fill="#3a3a38"/><g fill="#3a3a38"><path d="m4.5 2c-.277 0-.5.223-.5.5v5.5h1v-5.5c0-.277-.223-.5-.5-.5zm-.5 9v10.5c0 .277.223.5.5.5s.5-.223.5-.5v-10.5z"/><path d="m2.5 19c-.277 0-.5.223-.5.5s.223.5.5.5h10.400391l-.097657-.019531a1.0001 1.0001 0 0 1 -.802734-.980469z"/></g><path d="m12 6v2h2v-2zm0 5v6a1.0001 1.0001 0 0 1 .802734-.980469l.28125-.05664-.158203-.236329a1.0001 1.0001 0 0 1 .125-1.261718l.707031-.707032.242188-.242187v-2.515625z" fill="#c8c6c4"/><path d="m6 11v7c0 .554.446 1 1 1h2c.554 0 1-.446 1-1v-7z" fill="#3a3a38"/><path d="m7 11v7h2v-7z" fill="#c8c6c4"/><path d="m17 11c-.554 0-1 .446-1 1v.900391l.019531-.097657a1.0001 1.0001 0 0 1 .980469-.802734h1 1a1.0001 1.0001 0 0 1 .980469.802734l.019531.097657v-.900391c0-.554-.446-1-1-1z" fill="#3a3a38"/><rect fill="#1e8bcd" height="20" ry=".5" transform="matrix(0 -1 -1 0 0 0)" width="1" x="-10" y="-22"/><path d="m17 13-.349609 1.744141-1.478516-.986329-.707031.707032-.707032.707031.986329 1.478516-1.744141.349609v1 1l1.744141.349609-.986329 1.478516.707032.707031.707031.707032 1.478516-.986329.349609 1.744141h1 1l.349609-1.744141 1.478516.986329.707031-.707032.707032-.707031-.986329-1.478516 1.744141-.349609v-1-1l-1.744141-.349609.986329-1.478516-.707032-.707031-.707031-.707032-1.478516.986329-.349609-1.744141h-1zm.800781 1h.398438l.300781 1.5h.535156l.378906.378906 1.273438-.847656.28125.28125-.847656 1.273438.378906.378906v.535156l1.5.300781v.398438l-1.5.300781v.535156l-.378906.378906.847656 1.273438-.28125.28125-1.273438-.847656-.378906.378906h-.535156l-.300781 1.5h-.398438l-.300781-1.5h-.535156l-.378906-.378906-1.273438.847656-.28125-.28125.847656-1.273438-.378906-.378906v-.535156l-1.5-.300781v-.398438l1.5-.300781v-.535156l.378906-.378906-.847656-1.273438.28125-.28125 1.273438.847656.378906-.378906h.535156zm.199219 2a2 2 0 0 0 -2 2 2 2 0 0 0 2 2 2 2 0 0 0 2-2 2 2 0 0 0 -2-2zm0 1a1 1 0 0 1 1 1 1 1 0 0 1 -1 1 1 1 0 0 1 -1-1 1 1 0 0 1 1-1z" fill="#1e8bcd"/><path d="m17.800781 14h.398438l.300781 1.5h.535156l.378906.378906 1.273438-.847656.28125.28125-.847656 1.273438.378906.378906v.535156l1.5.300781v.398438l-1.5.300781v.535156l-.378906.378906.847656 1.273438-.28125.28125-1.273438-.847656-.378906.378906h-.535156l-.300781 1.5h-.398438l-.300781-1.5h-.535156l-.378906-.378906-1.273438.847656-.28125-.28125.847656-1.273438-.378906-.378906v-.535156l-1.5-.300781v-.398438l1.5-.300781v-.535156l.378906-.378906-.847656-1.273438.28125-.28125 1.273438.847656.378906-.378906h.535156zm.199219 2c-1.104569 0-2 .895431-2 2s.895431 2 2 2 2-.895431 2-2-.895431-2-2-2z" fill="#fafafa"/></svg>