<svg viewBox="0 0 24 24" xmlns="http://www.w3.org/2000/svg"><g fill="#3a3a38"><rect height="20" ry=".5" transform="matrix(0 -1 -1 0 0 0)" width="1" x="-20" y="-22"/><path d="m4.5 2c-.277 0-.5.223-.5.5v5.5h1v-5.5c0-.277-.223-.5-.5-.5zm-.5 9v10.5c0 .277.223.5.5.5s.5-.223.5-.5v-10.5z"/><path d="m6 11v7c0 .554.446 1 1 1h2c.554 0 1-.446 1-1v-7z"/></g><path d="m7 11v7h2v-7z" fill="#c8c6c4"/><rect fill="#1e8bcd" height="20" ry=".5" transform="matrix(0 -1 -1 0 0 0)" width="1" x="-10" y="-22"/><g fill-opacity=".982993"><path d="m12 5c-.554 0-1 .446-1 1v2h1v-2h2v2h1v-2c0-.554-.446-1-1-1zm-1 6v7c0 .554.446 1 1 1h2c.554 0 1-.446 1-1v-7h-1v7h-2v-7z" fill="#3a3a38"/><path d="m12 6v2h2v-2zm0 5v7h2v-7z" fill="#c8c6c4"/><path d="m17 11c-.554 0-1 .446-1 1v6c0 .554.446 1 1 1h2c.554 0 1-.446 1-1v-6c0-.554-.446-1-1-1zm0 1h2v6h-2z" fill="#3a3a38"/><path d="m17 12h2v6h-2z" fill="#c8c6c4"/></g><path d="m20.572266 16.513673c-13.7148444 4.990885-6.857422 2.495443 0 0zm1.427734 1.306641.000001.359375-1.625001.326171c-.590916.118977-.943084.729769-.75 1.300782l.529297 1.5625.0019.0059-.312499.179688-1.091797-1.244141c-.398372-.454309-1.105534-.454309-1.503906 0l-1.091797 1.244141-.3125-.179687.53125-1.56836c.193084-.571013-.159084-1.181805-.75-1.300782l-1.625-.326171-.000001-.359376 1.625001-.326171c.590916-.118977.943084-.729769.75-1.300782l-.53125-1.568359.3125-.179688 1.091797 1.244141c.216237.246413.539514.3712.865233.333985.247001-.02808.47469-.147149.638673-.333985l1.091796-1.244141.312501.179688-.53125 1.568359c-.193084.571013.159084 1.181805.75 1.300782z" fill="#fafafa"/><path d="m16.386719 12.251953a1.0027936 1.0027936 0 0 0 -.259766.048828c-.043979.014284-.083369.039437-.126953.054688v5.644531c0 .554.446 1 1 1h-3c.554 0 1-.446 1-1v-5.191406c-.357075.208167-.695009.447362-1.001953.724609a1.0027936 1.0027936 0 0 0 -.277344 1.066406l.392578 1.15625-1.199219.240235a1.0027936 1.0027936 0 0 0 -.783203.771484c-.08653.403035-.13053.814155-.132812 1.226563a1.0027936 1.0027936 0 0 0 0 .007812c.000777.412111.04392.823282.128906 1.226563a1.0027936 1.0027936 0 0 0 .765625.771484h8.607422c.277 0 .5-.223.5-.5s-.223-.5-.5-.5h-2.5c.554 0 1-.446 1-1v-5.646484c-.043624-.015476-.08489-.036304-.128906-.050782a1.0027936 1.0027936 0 0 0 -1.066406.291016l-.806641.917969-.808594-.919922a1.0027936 1.0027936 0 0 0 -.802734-.339844z" fill="#fafafa"/><path d="m23 18.000001c-.000647-.343279-.03664-.685584-.107422-1.021484l-2.320312-.464844.755859-2.236328c-.513244-.458667-1.115664-.806421-1.769531-1.021486l-1.558594 1.773439-.468749-.533203-1.093751-1.242188c-.288253.09362-.567398.213248-.833984.357422-.335712.185464-.64898.408939-.933594.666016l.757812 2.236328-2.316406.464844c-.072088.335769-.109428.67807-.111328 1.021484.000647.343279.03664.685584.107422 1.021484l2.320312.464844-.755859 2.236328c.513244.458667 1.115664.80642 1.769531 1.021485l1.558595-1.773438 1.562499 1.77539c.288253-.09362.567396-.213252.833984-.357422.335712-.185463.64897-.408938.933594-.666015l-.757812-2.236328 2.316406-.464844c.07209-.335769.109428-.67807.111328-1.021484zm-1-.179687.000001.359375-1.625001.326171a1.0001 1.0001 0 0 0 -.75 1.300782l.529297 1.5625.0019.0059-.312499.179688-1.091797-1.244141a1.0001 1.0001 0 0 0 -1.503906 0l-1.091797 1.244141-.3125-.179687.53125-1.56836a1.0001 1.0001 0 0 0 -.75-1.300782l-1.625-.326171-.000001-.359376 1.625001-.326171a1.0001 1.0001 0 0 0 .75-1.300782l-.53125-1.568359.3125-.179688 1.091797 1.244141a1.0001 1.0001 0 0 0 .865233.333985 1.0001 1.0001 0 0 0 .638673-.333985l1.091796-1.244141.312501.179688-.53125 1.568359a1.0001 1.0001 0 0 0 .75 1.300782z" fill="#1e8bcd"/><path d="m20.572266 16.513672c-13.7148441 4.990885-6.857422 2.495443 0 0zm1.427734 1.306641.000001.359375-1.625001.326171c-.590916.118977-.943084.729769-.75 1.300782l.529297 1.5625.0019.0059-.312499.179688-1.091797-1.244141c-.398372-.454309-1.105534-.454309-1.503906 0l-1.091797 1.244141-.3125-.179687.53125-1.56836c.193084-.571013-.159084-1.181805-.75-1.300782l-1.625-.326171-.000001-.359376 1.625001-.326171c.590916-.118977.943084-.729769.75-1.300782l-.53125-1.568359.3125-.179688 1.091797 1.244141c.216237.246413.539514.3712.865233.333985.247001-.02808.47469-.147149.638673-.333985l1.091796-1.244141.312501.179688-.53125 1.568359c-.193084.571013.159084 1.181805.75 1.300782z" fill="#fafafa"/><path d="m19 18a1 1 0 0 1 -1 1 1 1 0 0 1 -1-1 1 1 0 0 1 1-1 1 1 0 0 1 1 1z" fill="#1e8bcd"/></svg>