<?xml-stylesheet type="text/css" href="icons.css" ?>
<svg viewBox="0 0 24 24" xmlns="http://www.w3.org/2000/svg">
  <path
	 class="icn icn--shape-color"
     d="M 12,2.5 A 9.5,9.5 0 0 0 2.5,12 9.5,9.5 0 0 0 12,21.5 9.5,9.5 0 0 0 21.5,12 9.5,9.5 0 0 0 12,2.5 Z"
     fill="#fafafa"
	 stroke="#3a3a38"
	 stroke-linecap="round"
	 stroke-linejoin="round"
     />
  <path
	 class="icn icn--shape-color"
     d="m 18,12 a 6,6 0 0 1 -6,6 6,6 0 0 1 -6,-6 6,6 0 0 1 6,-6 6,6 0 0 1 6,6 z"
     fill="#fafafa"
	 stroke="#3a3a38"
	 stroke-linecap="round"
	 stroke-linejoin="round"
     />
</svg>
