<?xml-stylesheet type="text/css" href="icons.css" ?>
<svg viewBox="0 0 24 24" xmlns="http://www.w3.org/2000/svg">
  <g id="background"
	 class="icn icn--text-color" 
     fill="#797774" 
     stroke="#3a3a38" 
	 stroke-linecap="round" 
	 stroke-linejoin="round"
     >
      <path d="M 11.5,2.5 C 7,2.5 4.5,4 4.5,8 c 0,4.5 2.5,5.5 7,5.5 z" />
      <path d="m 11.5,2.5 v 19" />
      <path d="M 14.5,2.5 V 21.5" />
      <path d="M 18.5,2.5 H 11" />
  </g>
  <g id="symbol-background"
	 class="icn icn--background"
     stroke="#fff" 
     stroke-width="3px"
	 stroke-linecap="round" 
	 stroke-linejoin="round"
      >
      <path d="m 10.5,22.5 5,-2 -3,-3 z" />
      <path d="m 15.5,20.5 5,-5 -3,-3 -5,5 z" />
      <path d="m 22.5,13.5 -2,2 -3,-3 2,-2 z" />
  </g>
  <g id="symbol"
	 class="icn icn--highlight-color"  
     fill="#83beec" 
     stroke="#1e8bcd" 
	 stroke-linecap="round" 
	 stroke-linejoin="round"
      >
      <path d="m 10.5,22.5 5,-2 -3,-3 z" />
      <path d="m 15.5,20.5 5,-5 -3,-3 -5,5 z" />
      <path d="m 22.5,13.5 -2,2 -3,-3 2,-2 z" />
  </g>
</svg>
