<svg viewBox="0 0 24 24" xmlns="http://www.w3.org/2000/svg"><path d="m13.635 6c-2.4852-2e-7 -4.5 2.0148-4.5 4.5-2e-7 2.4852 2.0148 4.5 4.5 4.5s4.5-2.0148 4.5-4.5c0-2.4852-2.0148-4.5-4.5-4.5zm0 1c1.933-1e-7 3.5 1.567 3.5 3.5 0 1.933-1.567 3.5-3.5 3.5s-3.5-1.567-3.5-3.5c0-1.933 1.567-3.5 3.5-3.5z" fill="#3a3a38" stroke-width=".26458"/><path d="m13.635 15c-4.1136 0.0026-7.6353 2.9507-8.3613 7h16.727c-0.72623-4.0505-4.2501-6.9992-8.3652-7zm0 1c3.178 3.2e-4 6.0109 2.0038 7.0703 5h-14.137c1.0589-2.9949 3.8898-4.9981 7.0664-5z" fill="#3a3a38" stroke-width=".26458"/><path d="m2 2v11h2.2246l3.375 3 1.5-1-1.334-2h0.98047a5.5007 5.5007 0 0 1-0.40234-1.002l-2.4746-0.003906 1.6348 2.5215-2.9043-2.5156h-1.5996v-9h10.998v2.0137a5.5007 5.5007 0 0 1 1 0.1582v-3.1719z" fill="#3a3a38" stroke-width=".26458"/></svg>
