<svg viewBox="0 0 24 24" xmlns="http://www.w3.org/2000/svg"><path d="m12 5c-.554 0-1 .446-1 1v12c0 .554.446 1 1 1h2c.554 0 1-.446 1-1v-12c0-.554-.446-1-1-1zm-5 3c-.554 0-1 .446-1 1v9c0 .554.446 1 1 1h2c.554 0 1-.446 1-1v-9c0-.554-.446-1-1-1zm10 3c-.554 0-1 .446-1 1v6c0 .554.446 1 1 1h2c.554 0 1-.446 1-1v-6c0-.554-.446-1-1-1z" fill="#3a3a38" fill-opacity=".982993"/><path d="m4.5 2c-.277 0-.5.223-.5.5v16.5h-1.5c-.277 0-.5.223-.5.5s.223.5.5.5h1.5v1.5c0 .277.223.5.5.5s.5-.223.5-.5v-1.5h16.5c.277 0 .5-.223.5-.5s-.223-.5-.5-.5h-16.5v-16.5c0-.277-.223-.5-.5-.5z" fill="#3a3a38" fill-opacity=".982993"/><path d="m12 6v12h2v-12zm-5 3v9h2v-9zm10 3v6h2v-6z" fill="#c8c6c4"/><path d="m16.5 6.9765625a1.5241983 1.5241983 0 0 0 -1.523438 1.5234375v1a1.5241983 1.5241983 0 0 0 1.523438 1.523438h3a1.5241983 1.5241983 0 0 0 1.523438-1.523438v-1a1.5241983 1.5241983 0 0 0 -1.523438-1.5234375z" fill="#fff"/><path d="m16.5 8a.50005.50005 0 0 0 -.5.5v1a.50005.50005 0 0 0 .5.5h3a.50005.50005 0 0 0 .5-.5v-1a.50005.50005 0 0 0 -.5-.5z" fill="#1e8bcd"/><path d="m16.386719 12.251953a1.0027936 1.0027936 0 0 0 -.259766.048828c-.043979.014284-.083369.039437-.126953.054688v5.644531c0 .554.446 1 1 1h-3c.554 0 1-.446 1-1v-5.191406c-.357075.208167-.695009.447362-1.001953.724609a1.0027936 1.0027936 0 0 0 -.277344 1.066406l.392578 1.15625-1.199219.240235a1.0027936 1.0027936 0 0 0 -.783203.771484c-.08653.403035-.13053.814155-.132812 1.226563a1.0027936 1.0027936 0 0 0 0 .007812c.000777.412111.04392.823282.128906 1.226563a1.0027936 1.0027936 0 0 0 .765625.771484h8.607422c.277 0 .5-.223.5-.5s-.223-.5-.5-.5h-2.5c.554 0 1-.446 1-1v-5.646484c-.043624-.015476-.08489-.036304-.128906-.050782a1.0027936 1.0027936 0 0 0 -1.066406.291016l-.806641.917969-.808594-.919922a1.0027936 1.0027936 0 0 0 -.802734-.339844z" fill="#fafafa" fill-opacity=".982993"/><path d="m22 17.820314.000001.359375-1.625001.326171c-.590916.118977-.943084.729769-.75 1.300782l.529297 1.5625.0019.0059-.312499.179688-1.091797-1.244141c-.398372-.454309-1.105534-.454309-1.503906 0l-1.091797 1.244141-.3125-.179687.53125-1.56836c.193084-.571013-.159084-1.181805-.75-1.300782l-1.625-.326171-.000001-.359376 1.625001-.326171c.590916-.118977.943084-.729769.75-1.300782l-.53125-1.568359.3125-.179688 1.091797 1.244141c.216237.246413.539514.3712.865233.333985.247001-.02808.47469-.147149.638673-.333985l1.091796-1.244141.312501.179688-.53125 1.568359c-.193084.571013.159084 1.181805.75 1.300782z" fill="#fafafa"/><path d="m16.4375 13.253907c-.288253.09362-.567398.213248-.833984.357422-.335712.185464-.64898.408939-.933594.666016l.757812 2.236328-2.316406.464844c-.072088.335769-.109428.67807-.111328 1.021484.000647.343279.03664.685584.107422 1.021484l2.320312.464844-.755859 2.236328c.513244.458667 1.115664.806419 1.769531 1.021484l1.558594-1.773437 1.5625 1.77539c.288253-.09362.567396-.213252.833984-.357422.335712-.185463.64897-.408938.933594-.666015l-.757812-2.236328 2.316406-.464844c.07209-.335769.109428-.67807.111328-1.021484-.000647-.343279-.03664-.685584-.107422-1.021484l-2.320312-.464844.755859-2.236328c-.513244-.458667-1.115664-.80642-1.769531-1.021485l-1.558594 1.773438-.46875-.533203zm-.28125 1.191406 1.091797 1.244141a1.0001 1.0001 0 0 0 .865234.333985 1.0001 1.0001 0 0 0 .638672-.333985l1.091797-1.244141.3125.179688-.53125 1.568359a1.0001 1.0001 0 0 0 .75 1.300782l1.625.326171v.359376l-1.625.326171a1.0001 1.0001 0 0 0 -.75 1.300782l.529297 1.5625.002.0059-.3125.179688-1.091797-1.244141a1.0001 1.0001 0 0 0 -1.503906 0l-1.091844 1.2441-.3125-.179688.53125-1.568359a1.0001 1.0001 0 0 0 -.75-1.300782l-1.625-.326171v-.359376l1.625-.326171a1.0001 1.0001 0 0 0 .75-1.300782l-.53125-1.568359zm1.84375 2.554688a1 1 0 0 0 -1 1 1 1 0 0 0 1 1 1 1 0 0 0 1-1 1 1 0 0 0 -1-1z" fill="#1e8bcd"/></svg>