<svg viewBox="0 0 24 24" xmlns="http://www.w3.org/2000/svg"><g stroke-linecap="round" stroke-linejoin="round"><path d="m2.5 2.5h19v19h-19z" fill="#fafafa" stroke="#3a3a38"/><path d="m2.5 5.5h19v-3h-19z" fill="#c8c6c4" stroke="#3a3a38"/><path d="m5.5 8.5v3h3v-3zm6 1h6zm-6 5v3h3v-3zm6 1h6z" fill="none" stroke="#797774"/></g><path d="m16.386707 12.251947a1.0027936 1.0027936 0 0 0 -.259766.04883c-.346044.11239-.679936.254639-1 .427735a1.0027936 1.0027936 0 0 0 -.0078.0059c-.403027.222652-.779385.490179-1.121094.798829a1.0027936 1.0027936 0 0 0 -.277344 1.066406l.392578 1.15625-1.199219.240235a1.0027936 1.0027936 0 0 0 -.783203.771484c-.08653.403035-.13053.814155-.132812 1.226563a1.0027936 1.0027936 0 0 0 0 .0078c.000777.412111.04392.823282.128906 1.226563a1.0027936 1.0027936 0 0 0 .783203.77539l1.203125.240235-.390625 1.158203a1.0027936 1.0027936 0 0 0 -.01368.597625h7.791016c.277 0 .5-.223.5-.5v-.921875l-.113281-.333984.113281-.02344v-4.441406l-.113281-.02344.113281-.335937v-1.886719a1.0027936 1.0027936 0 0 0 -.0039-.0039c-.616159-.55064-1.340025-.968376-2.125-1.226564a1.0027936 1.0027936 0 0 0 -1.066406.291016l-.806641.91797-.808594-.919923a1.0027936 1.0027936 0 0 0 -.802734-.339844z" fill="#fafafa"/><path d="m21.999988 17.820308.000001.359375-1.625001.326171c-.590916.118977-.943084.729769-.75 1.300782l.529297 1.5625.0019.0059-.312499.179688-1.091797-1.244141c-.398372-.454309-1.105534-.454309-1.503906 0l-1.091797 1.244141-.3125-.179687.53125-1.56836c.193084-.571013-.159084-1.181805-.75-1.300782l-1.625-.326171-.000001-.359376 1.625001-.326171c.590916-.118977.943084-.729769.75-1.300782l-.53125-1.568359.3125-.179688 1.091797 1.244141c.216237.246413.539514.3712.865233.333985.247001-.02808.47469-.147149.638673-.333985l1.091796-1.244141.312501.179688-.53125 1.568359c-.193084.571013.159084 1.181805.75 1.300782z" fill="#fafafa"/><path d="m16.4375 13.253906c-.288253.09362-.567398.213248-.833984.357422-.335712.185464-.64898.408939-.933594.666016l.757812 2.236328-2.316406.464844c-.072088.335769-.109428.67807-.111328 1.021484.000647.343279.03664.685584.107422 1.021484l2.320312.464844-.755859 2.236328c.513244.458667 1.115664.80642 1.769531 1.021485l1.558594-1.773438 1.5625 1.775391c.288253-.09362.567396-.213252.833984-.357422.335712-.185463.64897-.408939.933594-.666016l-.757812-2.236328 2.316406-.464844c.07209-.335769.109428-.67807.111328-1.021484-.000647-.343279-.03664-.685584-.107422-1.021484l-2.320312-.464844.755859-2.236328c-.513244-.458667-1.115664-.80642-1.769531-1.021485l-1.558594 1.773438-.46875-.533203zm-.28125 1.191406 1.091797 1.244141a1.0001 1.0001 0 0 0 .865234.333985 1.0001 1.0001 0 0 0 .638672-.333985l1.091797-1.244141.3125.179688-.53125 1.568359a1.0001 1.0001 0 0 0 .75 1.300782l1.625.326171v.359376l-1.625.326171a1.0001 1.0001 0 0 0 -.75 1.300782l.529297 1.5625.002.0059-.3125.179688-1.091797-1.244141a1.0001 1.0001 0 0 0 -1.503906 0l-1.091844 1.2441-.3125-.179688.53125-1.568359a1.0001 1.0001 0 0 0 -.75-1.300782l-1.625-.326171v-.359376l1.625-.326171a1.0001 1.0001 0 0 0 .75-1.300782l-.53125-1.568359zm1.84375 2.554688a1 1 0 0 0 -1 1 1 1 0 0 0 1 1 1 1 0 0 0 1-1 1 1 0 0 0 -1-1z" fill="#1e8bcd" transform="translate(-.000012 -.000006)"/></svg>