<svg viewBox="0 0 24 24" xmlns="http://www.w3.org/2000/svg"><path d="m4.71875 2a.50535904.50535904 0 0 0 -.3535156.1445312l-1.2128906 1.1855469a.50535904.50535904 0 0 0 -.1523438.3613281v1.1875.3613282a.50535904.50535904 0 0 0 .09375.2949218l5.9003906 8.2499998v4.148438.04687a.50535904.50535904 0 0 0 .2148438.414062l4.9941406 3.513672a.50535904.50535904 0 0 0 .291016.091802h.01172a.50535904.50535904 0 0 0 .50586-.505859v-7.708985l5.894531-8.2499998a.50535904.50535904 0 0 0 .093748-.2949218v-1.5488282a.50535904.50535904 0 0 0 -.152344-.3613281l-1.21289-1.1855469a.50535904.50535904 0 0 0 -.353516-.1445312zm.2070312 1.0097656h14.1484378l.916015.8945313v1.1738281l-5.894531 8.25a.50535904.50535904 0 0 0 -.095703.294922v6.90625l-3.994141-2.810547v-4.095703a.50535904.50535904 0 0 0 -.095703-.294922l-5.9003906-8.25v-.1992188-.9746093l.9160156-.8945313z" fill="#3a3a38"/><g fill="#fafafa"><path d="m4.9257812 3.0097656h14.1484378l.916015.8945313v1.1738281l-5.894531 8.25c-.06202.08585-.09549.189015-.0957.294922v6.90625l-3.994141-2.810547v-4.095703c-.00021-.105907-.033687-.209071-.095703-.294922l-5.9003906-8.25v-.1992188-.9746093z"/><path d="m16.048828 12.333984c-.317278.107921-.626791.234945-.921875.394532a1.0027936 1.0027936 0 0 0 -.007812.005859c-.403027.222652-.779385.490179-1.121094.798828a1.0027936 1.0027936 0 0 0 -.277344 1.066406l.392578 1.15625-1.199219.240235a1.0027936 1.0027936 0 0 0 -.783203.771484c-.08653.403035-.13053.814155-.132812 1.226563a1.0027936 1.0027936 0 0 0 0 .007812c.000777.412111.04392.823282.128906 1.226563a1.0027936 1.0027936 0 0 0 .783203.77539l1.203125.240235-.390625 1.158203a1.0027936 1.0027936 0 0 0 -.035156.142578l.515625.363281a.50535904.50535904 0 0 0 .291016.091797h.011718a.50535904.50535904 0 0 0 .50586-.505859v-7.708985z"/><path d="m22 17.820314.000001.359375-1.625001.326171c-.590916.118977-.943084.729769-.75 1.300782l.529297 1.5625.0019.0059-.312499.179688-1.091797-1.244141c-.398372-.454309-1.105534-.454309-1.503906 0l-1.091797 1.244141-.3125-.179687.53125-1.56836c.193084-.571013-.159084-1.181805-.75-1.300782l-1.625-.326171-.000001-.359376 1.625001-.326171c.590916-.118977.943084-.729769.75-1.300782l-.53125-1.568359.3125-.179688 1.091797 1.244141c.216237.246413.539514.3712.865233.333985.247001-.02808.47469-.147149.638673-.333985l1.091796-1.244141.312501.179688-.53125 1.568359c-.193084.571013.159084 1.181805.75 1.300782z"/></g><path d="m16.4375 13.253907c-.288253.09362-.567398.213248-.833984.357422-.335712.185464-.64898.408939-.933594.666016l.757812 2.236328-2.316406.464844c-.072088.335769-.109428.67807-.111328 1.021484.000647.343279.03664.685584.107422 1.021484l2.320312.464844-.755859 2.236328c.513244.458667 1.115664.806419 1.769531 1.021484l1.558594-1.773437 1.5625 1.77539c.288253-.09362.567396-.213252.833984-.357422.335712-.185463.64897-.408938.933594-.666015l-.757812-2.236328 2.316406-.464844c.07209-.335769.109428-.67807.111328-1.021484-.000647-.343279-.03664-.685584-.107422-1.021484l-2.320312-.464844.755859-2.236328c-.513244-.458667-1.115664-.80642-1.769531-1.021485l-1.558594 1.773438-.46875-.533203zm-.28125 1.191406 1.091797 1.244141a1.0001 1.0001 0 0 0 .865234.333985 1.0001 1.0001 0 0 0 .638672-.333985l1.091797-1.244141.3125.179688-.53125 1.568359a1.0001 1.0001 0 0 0 .75 1.300782l1.625.326171v.359376l-1.625.326171a1.0001 1.0001 0 0 0 -.75 1.300782l.529297 1.5625.002.0059-.3125.179688-1.091797-1.244141a1.0001 1.0001 0 0 0 -1.503906 0l-1.091844 1.2441-.3125-.179688.53125-1.568359a1.0001 1.0001 0 0 0 -.75-1.300782l-1.625-.326171v-.359376l1.625-.326171a1.0001 1.0001 0 0 0 .75-1.300782l-.53125-1.568359zm1.84375 2.554688a1 1 0 0 0 -1 1 1 1 0 0 0 1 1 1 1 0 0 0 1-1 1 1 0 0 0 -1-1z" fill="#1e8bcd"/></svg>