<svg width="24" xmlns="http://www.w3.org/2000/svg" height="24" viewBox="0 0 24 24" fill="none">
  <style>
    .icon-primary { fill: var(--icon-primary-color, rgb(58, 58, 56)); }
    .icon-white { fill: rgb(250, 250, 250); }
  </style>
  <path class="icon-primary" d="M12.001953125,3.857417583465576C11.746337890625,3.857417583465576,11.490966796875,3.954524517059326,11.294921875,4.150386333465576L4.150390625,11.222651481628418C4.091064453125,11.281855583190918,4.041259765625,11.345606803894043,4,11.414057731628418L4,12.443354606628418L4,20.999996185302734C4,21.554012298583984,4.446044921875,21.999996185302734,5,21.999996185302734L10,21.999996185302734L11.515625,21.999996185302734L13,21.999996185302734L14,21.999996185302734L19,21.999996185302734C19.553955078125,21.999996185302734,20,21.554012298583984,20,20.999996185302734L20,19.999996185302734L20,18.585933685302734L20,12.929682731628418L20,11.515620231628418L20,11.513667106628418L19.80859375,11.322260856628418L12.708984375,4.150386333465576C12.51318359375,3.954524517059326,12.257568359375,3.857417583465576,12.001953125,3.857417583465576ZM12,4.857417583465576L19,11.857417106628418L19,11.929682731628418L19,20.999996185302734L14,20.999996185302734L14,17.033199310302734C14,16.479183197021484,13.553955078125,16.033199310302734,13,16.033199310302734L11,16.033199310302734C10.446044921875,16.033199310302734,10,16.479183197021484,10,17.033199310302734L10,20.999996185302734L5,20.999996185302734L4.998046875,13.484370231628418L4.998046875,12.070307731628418L4.998046875,11.861323356628418L5.0703125,11.789057731628418L12,4.857417583465576Z" style="stroke-opacity: 1; stroke: none; paint-order: normal; stroke-width: 1.26796; stroke-linejoin: round; stroke-miterlimit: 4; stroke-linecap: round; fill-opacity: 1;"/>
  <path class="icon-white" d="M12.0009765625,4.858424663543701L19.0009765625,11.858424186706543L19.0009765625,11.930689811706543L19.0009765625,21.00100326538086L14.0009765625,21.00100326538086L14.0009765625,17.03420639038086C14.0009765625,16.48019027709961,13.554931640625,16.03420639038086,13.0009765625,16.03420639038086L11.0009765625,16.03420639038086C10.447021484375,16.03420639038086,10.0009765625,16.48019027709961,10.0009765625,17.03420639038086L10.0009765625,21.00100326538086L5.0009765625,21.00100326538086L4.9990234375,13.485377311706543L4.9990234375,12.071314811706543L4.9990234375,11.862330436706543L5.0712890625,11.790064811706543Z" style="stroke-opacity: 1; stroke: none; paint-order: normal; stroke-width: 1.26796; stroke-linejoin: round; stroke-miterlimit: 4; stroke-linecap: round; fill-opacity: 1;"/>
</svg>
