<?xml-stylesheet type="text/css" href="icons.css" ?>
<svg version="1.1" viewBox="0 0 24 24" xmlns="http://www.w3.org/2000/svg"><g class="icn icn--area-color" fill="#fafafa" stroke="#3a3a38" stroke-linecap="round" stroke-linejoin="round"><path d="m2.5 4.5h19v15h-19z"/></g><g class="icn icn--area-color" fill="#797774" stroke="#3a3a38" stroke-linecap="round" stroke-linejoin="round"><path d="m5.5 7.5h13v1h-13z"/></g><g class="icn icn--secondary-line-color" fill="none" stroke="#797774" stroke-linecap="round" stroke-linejoin="round"><path d="m5.5 11.5v1h1v-1h-1zm3 0h10-10zm-3 4v1h1v-1h-1zm3 0h9-9z"/></g><path d="m4 4c-0.56252 0-0.94918 0.02023-1.2656 0.052734-0.42004 0.11853-0.73433 0.48931-0.73438 0.94727v13c3.14e-5 0.3141 0.15434 0.5823 0.38086 0.76562 0.075311-0.06969 0.15818-0.16079 0.26172-0.30078l17.357-14.465zm-1 1h14.184l-14.184 11.9z" fill="#3a3a38"/><path d="m3 5h14.184l-14.184 11.9z" fill="#fafafa"/></svg>
