<svg viewBox="0 0 24 24" fill="none" xmlns="http://www.w3.org/2000/svg">
<style>
    .icon-primary { fill: var(--icon-primary-color, rgb(58, 58, 56)); }
    .icon-white { fill: rgb(250, 250, 250); }
  </style>
<path class="icon-primary" d="M12.002 2.92999C11.7461 2.92999 11.4912 3.02716 11.2949 3.22296L4.15039 10.2952C4.09082 10.3544 4.04102 10.4182 4 10.4866V11.5159V20.0726C4 20.6266 4.44629 21.0726 5 21.0726H10H11.5156H13H14H19C19.5537 21.0726 20 20.6266 20 20.0726V19.0726V17.6585V12.0023V10.5882V10.5862L19.8086 10.3948L12.709 3.22296C12.5132 3.02716 12.2578 2.92999 12.002 2.92999ZM12 3.92999L19 10.93V11.0023V20.0726H14V16.1058C14 15.5518 13.5537 15.1058 13 15.1058H11C10.4463 15.1058 10 15.5518 10 16.1058V20.0726H5L4.99805 12.5569V11.1429V10.9339L5.07031 10.8616L12 3.92999Z" />
<path class="icon-white" d="M12.001 3.93103L19.001 10.931V11.0033V20.0736H14.001V16.1068C14.001 15.5528 13.5547 15.1068 13.001 15.1068H11.001C10.4473 15.1068 10.001 15.5528 10.001 16.1068V20.0736H5.00098L4.99902 12.558V11.1439V10.9349L5.07129 10.8627L12.001 3.93103Z"/>
</svg>