<svg version="1.1" viewBox="0 0 24 24" xmlns="http://www.w3.org/2000/svg"><path d="m21 19h-4v2h4z" fill="#fafafa"/><path d="m21 3v15h-11.869l-1.5488-1.5469c-0.27261-0.27902-0.64507-0.4423-1.0352-0.45312-0.63784-0.017492-1.2066 0.39872-1.4258 0.91602-0.13825 0.3263-0.13391 0.72167-0.009766 1.084h-2.1113v-15z" fill="#fafafa"/><path d="m21 2c0.554 0 1 0.446 1 1v15c0 0.554-0.446 1-1 1h-10.869l-1-1h5.8691v-3h-6v2.8711l-1-1v-1.8711h-5v3h2.1113c0.072661 0.21207 0.1753 0.41539 0.34375 0.58008l0.41406 0.41406-2.8809 0.0039c-0.54826-0.006573-0.98828-0.44817-0.98828-0.99804v-15c0-0.554 0.446-1 1-1zm0 1h-5v3h5zm-6 0h-6v3h6zm-7 0h-5v3h5zm13 4h-5v3h5zm-6 0h-6v3h6zm-7 0h-5v3h5zm13 4h-5v3h5zm-6 0h-6v3h6zm-7 0h-5v3h5zm13 4h-5v3h5z" fill="#797774"/><path d="m22 18v3c0 0.554-0.446 1-1 1h-3.5l-1.5-3h1l1 2h3v-3z" fill="#1e8bcd"/><path d="m21 2c0.554 0 1 0.446 1 1v15c0 0.554-0.446 1-1 1h-10.869l-1-1h11.869v-15h-18v15h2.1113c0.072661 0.21207 0.1753 0.41539 0.34375 0.58008l0.41406 0.41406-2.8809 0.0039c-0.54826-0.006573-0.98828-0.44817-0.98828-0.99804v-15c0-0.554 0.446-1 1-1z" fill="#3a3a38"/><path d="m15 19h-4v2h4z" fill="#fafafa"/><path d="m16 18v3c0 0.554-0.446 1-1 1h-3.5l-0.55078-1.0996c0.03646-0.13143 0.06066-0.26562 0.06055-0.40039 3.95e-4 -0.44853-0.20636-0.90401-0.58984-1.1973l0.09961 0.08594-0.38868-0.38867h0.86914l1 2h3v-3z" fill="#3a3a38"/><path d="m0 20.5c8.6e-4 0.25174 0.17059 0.50282 0.50781 0.49805l7.7852 0.0059-2.1367 2.1348c-0.32527 0.318-0.09144 0.86989 0.36328 0.85742 0.12976-0.0036 0.25303-0.05754 0.34375-0.15039l2.9473-2.9454c0.13158-0.10062 0.19803-0.25092 0.19726-0.40039 7.69e-4 -0.14947-0.06568-0.29976-0.19726-0.40039l-2.9473-2.9453c-0.09072-0.09285-0.21399-0.14679-0.34375-0.15039-0.45472-0.01247-0.68855 0.53942-0.36328 0.85742l2.1367 2.1348-7.7852 0.0059c-0.33722-0.0048-0.50695 0.2463-0.50781 0.49805z" fill="#1e8bcd" fill-rule="evenodd"/></svg>
