<svg viewBox="0 0 24 24" xmlns="http://www.w3.org/2000/svg"><path d="m22 17.5a4.5 4.5 0 0 1 -4.5 4.5 4.5 4.5 0 0 1 -4.5-4.5 4.5 4.5 0 0 1 4.5-4.5 4.5 4.5 0 0 1 4.5 4.5z" fill="#fafafa" fill-opacity=".982993"/><path d="m3 3v18h9.025391a6.5 6.5 0 0 1 -1.025391-3.5 6.5 6.5 0 0 1 6.5-6.5 6.5 6.5 0 0 1 3.5 1.03125v-9.03125z" fill="#fafafa"/><path d="m2 2v20h10.8125a6.5 6.5 0 0 1 -.787109-1h-9.025391v-18h18v9.03125a6.5 6.5 0 0 1 1 .789062v-10.820312z" fill="#3a3a38"/><path d="m10 7.5a2.5 2.5 0 0 1 -2.5 2.5 2.5 2.5 0 0 1 -2.5-2.5 2.5 2.5 0 0 1 2.5-2.5 2.5 2.5 0 0 1 2.5 2.5z" fill="#ed8733"/><path d="m10 14.5-6.5 6.5h2.5l5.246094-5.246094a6.5 6.5 0 0 1 .001953-.005859zm1 3-3.5 3.5h4.525391a6.5 6.5 0 0 1 -1.025391-3.5z" fill="#83beec"/><path d="m16 11-.236328.236328a6.5 6.5 0 0 1 .384766-.08789zm-6 2-7 7v1h.5l6.5-6.5 1.248047 1.248047a6.5 6.5 0 0 1 .414062-1.085938zm1.246094 2.753906-5.246094 5.246094h1.5l3.5-3.5a6.5 6.5 0 0 1 .246094-1.746094z" fill="#0063b1"/><path d="m9 7.5a1.5 1.5 0 0 1 -1.5 1.5 1.5 1.5 0 0 1 -1.5-1.5 1.5 1.5 0 0 1 1.5-1.5 1.5 1.5 0 0 1 1.5 1.5z" fill="#f8db8f"/><g fill="#1e8bcd" fill-opacity=".982993"><path d="m17.5 12a5.5 5.5 0 0 0 -5.5 5.5 5.5 5.5 0 0 0 5.5 5.5 5.5 5.5 0 0 0 5.5-5.5 5.5 5.5 0 0 0 -5.5-5.5zm0 1a4.5 4.5 0 0 1 4.5 4.5 4.5 4.5 0 0 1 -4.5 4.5 4.5 4.5 0 0 1 -4.5-4.5 4.5 4.5 0 0 1 4.5-4.5z"/><path d="m17.5 12a5.5 5.5 0 0 0 -.0625.002 10.5 10.5 0 0 1 1.5625 5.498 10.5 10.5 0 0 1 -1.568359 5.496094 5.5 5.5 0 0 0 .068359.003906 5.5 5.5 0 0 0 1.160156-.130859 11.5 11.5 0 0 0 1.339844-5.369141 11.5 11.5 0 0 0 -1.339844-5.373047 5.5 5.5 0 0 0 -1.160156-.126953z"/><path d="m17.5 12a5.5 5.5 0 0 0 -1.160156.130859 11.5 11.5 0 0 0 -1.339844 5.369141 11.5 11.5 0 0 0 1.339844 5.373047 5.5 5.5 0 0 0 1.160156.126953 5.5 5.5 0 0 0 .0625-.001953 10.5 10.5 0 0 1 -1.5625-5.498047 10.5 10.5 0 0 1 1.568359-5.496094 5.5 5.5 0 0 0 -.068359-.003906z"/><path d="m21.794922 14.066406a10.5 10.5 0 0 1 -4.294922.933594 10.5 10.5 0 0 1 -4.294922-.927734 5.5 5.5 0 0 0 -.554687.839843 11.5 11.5 0 0 0 4.849609 1.087891 11.5 11.5 0 0 0 4.849609-1.087891 5.5 5.5 0 0 0 -.554687-.845703z"/><path d="m17.5 19a11.5 11.5 0 0 0 -4.849609 1.087891 5.5 5.5 0 0 0 .554687.845703 10.5 10.5 0 0 1 4.294922-.933594 10.5 10.5 0 0 1 4.294922.927734 5.5 5.5 0 0 0 .554687-.839843 11.5 11.5 0 0 0 -4.849609-1.087891z"/><path d="m12.025391 17a5.5 5.5 0 0 0 -.025391.5 5.5 5.5 0 0 0 .027344.5h10.947265a5.5 5.5 0 0 0 .025391-.5 5.5 5.5 0 0 0 -.027344-.5z"/></g></svg>