<svg viewBox="0 0 24 24" xmlns="http://www.w3.org/2000/svg"><path d="m16.515779 15.999977c-.454318.0115-.686847-.540283-.361328-.857422l2.148437-2.144531-13.777497.0019c-.350177.018023-.525391-.241435-.525391-.499924s.175214-.51795.525391-.5l13.777497.002-2.148437-2.1445309c-.325519-.317139-.09299-.868926.361328-.857422.130048.0041.25337.05875.34375.152344l2.916016 2.9121119c.173289.160599.223009.266379.224609.435497-.0016.169118-.05132.274898-.224609.435547l-2.916016 2.912109c-.09038.09359-.213702.148244-.34375.152344z" fill="#1e8bcd" fill-rule="evenodd"/></svg>