<svg width="24" height="24" viewBox="0 0 24 24" fill="none" xmlns="http://www.w3.org/2000/svg">
<path d="M11.0653 24L11.0654 13.1742H0.0905151V11.1694H11.0654L11.098 0H13.0252L13.0252 11.1574H24V13.1742H13.0252L13.0252 24H11.0653Z" fill="#555555"/>
<path d="M3.62267 1.18182V3.9091H1.35852V4.36364H3.62267V5.72728H1.35852V6.18182H3.62267V7.54546H1.35852V8.00001H3.62267V9.36364H4.0755V8.00001H6.79249V9.36364H7.24532V8.00001H9.50947V7.54546H7.24532V6.18182H9.50947V5.72728H7.24532V4.36364H9.50947V3.9091H7.24532V1.18182H6.79249V3.9091H4.0755V1.18182H3.62267ZM4.0755 4.36364H6.79249V5.72728H4.0755V4.36364ZM4.0755 6.18182H6.79249V7.54546H4.0755V6.18182Z" fill="#555555"/>
<path d="M1.35847 0.727264C1.1076 0.727264 0.90564 0.929992 0.90564 1.18181V9.36363C0.90564 9.61545 1.1076 9.81817 1.35847 9.81817H9.50942C9.76029 9.81817 9.96225 9.61545 9.96225 9.36363V1.18181C9.96225 0.929992 9.76029 0.727264 9.50942 0.727264H1.35847ZM1.35847 1.18181H3.62262H4.07545H6.79244H7.24527H9.50942V3.90908V4.36363V5.72726V6.18181V7.54545V7.99999V9.36363H7.24527H6.79244H4.07545H3.62262H1.35847V7.99999V7.54545V6.18181V5.72726V4.36363V3.90908V1.18181Z" fill="#555555"/>
<path d="M0.90564 0.727264H9.96225V2.54545H0.90564V0.727264Z" fill="#0063B1"/>
<path d="M1.35852 1.18182H9.50947V2.09091H1.35852V1.18182Z" fill="#0063B1"/>
<path d="M17.3434 5H15.9849C15.8599 5 15.7585 5.10175 15.7585 5.22727C15.7585 5.35279 15.8599 5.45455 15.9849 5.45455H17.3434C17.4684 5.45455 17.5698 5.35279 17.5698 5.22727C17.5698 5.10175 17.4684 5 17.3434 5Z" fill="#CD3123"/>
<path d="M20.0604 5H18.7019C18.5768 5 18.4755 5.10175 18.4755 5.22727C18.4755 5.35279 18.5768 5.45455 18.7019 5.45455H20.0604C20.1854 5.45455 20.2868 5.35279 20.2868 5.22727C20.2868 5.10175 20.1854 5 20.0604 5Z" fill="#CD3123"/>
<path d="M22.8095 5H21.3869C21.2795 5 21.1925 5.08735 21.1925 5.1951V5.25944C21.1925 5.36719 21.2795 5.45455 21.3869 5.45455H22.8095C22.9168 5.45455 23.0038 5.36719 23.0038 5.25944V5.1951C23.0038 5.08735 22.9168 5 22.8095 5Z" fill="#CD3123"/>
<path d="M13.7181 4.09181C13.6588 4.09253 13.6021 4.1167 13.5604 4.15907C13.5187 4.20145 13.4953 4.25862 13.4952 4.31819V6.13637C13.4953 6.17726 13.5065 6.21736 13.5275 6.2524C13.5484 6.28745 13.5785 6.31615 13.6144 6.33545C13.6503 6.35475 13.6907 6.36393 13.7314 6.36201C13.7721 6.3601 13.8115 6.34716 13.8455 6.32458L15.204 5.41549C15.2348 5.39479 15.26 5.36679 15.2775 5.33396C15.295 5.30114 15.3041 5.2645 15.3041 5.22728C15.3041 5.19007 15.295 5.15343 15.2775 5.1206C15.26 5.08777 15.2348 5.05977 15.204 5.03907L13.8455 4.12998C13.8078 4.10471 13.7634 4.09141 13.7181 4.09181Z" fill="#CD3123"/>
<path d="M16.2113 5.90909C15.9604 5.90909 15.7585 6.11182 15.7585 6.36363V10H16.2113V6.36363H22.5509V10H23.0038V6.36363C23.0038 6.11182 22.8018 5.90909 22.5509 5.90909H16.2113Z" fill="#555555"/>
<path d="M16.2113 4.54545C15.9604 4.54545 15.7585 4.34272 15.7585 4.09091V0.909088H16.2113V4.09091H22.5509V0.909088H23.0038V4.09091C23.0038 4.34272 22.8018 4.54545 22.5509 4.54545H16.2113Z" fill="#555555"/>
<path d="M13.9471 4.77274V5.68183L14.6264 5.22728L13.9471 4.77274Z" fill="#CD3123"/>
<path d="M18.4755 14C15.9745 14 14.4 15.7807 14.4 17.9773C14.4 19.9091 15.2562 21.0207 16.6641 21.7273L17.117 21.9545V22.6364H14.5132C14.0636 22.5154 13.9658 22.0553 13.9471 21.9332V23.0909H17.5733V21.9545V21.7237L17.2726 21.5994C16.3155 21.1885 14.881 20.0474 14.8528 18.0909C14.8528 16.0512 16.6641 14.4545 18.4755 14.4545C20.2868 14.4545 22.0981 16.0512 22.0981 18.0909C22.0699 20.0474 20.6354 21.1885 19.6783 21.5994L19.3776 21.7237V21.9545V23.0909H23.0038V21.9332C22.9851 22.0553 22.8873 22.5154 22.4377 22.6364H19.8339V21.9545L20.2868 21.7273C21.6947 21.0207 22.5509 19.9091 22.5509 17.9773C22.5509 15.7807 20.9764 14 18.4755 14Z" fill="#555555"/>
<path d="M0.987976 14.0826V23.1736H10.0446V14.0826H0.987976ZM1.44081 14.5372H9.59176V22.719H1.44081V14.5372Z" fill="#555555"/>
<path d="M4.52831 16.5C4.52831 16.8014 4.40904 17.0904 4.19674 17.3035C3.98443 17.5167 3.69648 17.6364 3.39624 17.6364C3.09599 17.6364 2.80804 17.5167 2.59574 17.3035C2.38343 17.0904 2.26416 16.8014 2.26416 16.5C2.26416 16.1986 2.38343 15.9096 2.59574 15.6965C2.80804 15.4834 3.09599 15.3636 3.39624 15.3636C3.69648 15.3636 3.98443 15.4834 4.19674 15.6965C4.40904 15.9096 4.52831 16.1986 4.52831 16.5Z" fill="#ED8733"/>
<path d="M7.24528 18.7727L5.43396 20.5909L3.39622 22.6364H9.50944V21.0455L7.24528 18.7727ZM4.5283 19.6818L1.5849 22.6364H2.71698L5.09434 20.25L4.5283 19.6818Z" fill="#0063B1"/>
</svg>
