<svg viewBox="0 0 24 24" xmlns="http://www.w3.org/2000/svg"><path d="m12 5c-.554 0-1 .446-1 1v2h4v-2c0-.554-.446-1-1-1zm-1 6v7c0 .554.446 1 1 1h2c.554 0 1-.446 1-1v-7z" fill="#3a3a38"/><g fill="#3a3a38" transform="matrix(0 -1 -1 0 0 0)"><path d="m4.5 2c-.277 0-.5.223-.5.5v5.5h1v-5.5c0-.277-.223-.5-.5-.5zm-.5 9v10.5c0 .277.223.5.5.5s.5-.223.5-.5v-10.5z" transform="matrix(0 -1 -1 0 0 0)"/><rect height="20" ry=".5" width="1" x="-20" y="-22"/></g><path d="m12 6v2h2v-2zm0 5v7h2v-7z" fill="#c8c6c4"/><path d="m6 11v7c0 .554.446 1 1 1h2c.554 0 1-.446 1-1v-7z" fill="#3a3a38"/><path d="m7 11v7h2v-7z" fill="#c8c6c4"/><rect fill="#3a3a38" height="8" ry="1" width="4" x="16" y="11"/><path d="m17 12h2v6h-2z" fill="#c8c6c4"/><rect fill="#1e8bcd" height="20" ry=".5" transform="matrix(0 -1 -1 0 0 0)" width="1" x="-10" y="-22"/></svg>