<svg viewBox="0 0 24 24" xmlns="http://www.w3.org/2000/svg"><path d="m3 3h18v18h-18z" fill="#fafafa"/><path d="m2 2v20h20v-20zm1 1h18v18h-18z" fill="#3a3a38"/><path d="m10 7.5a2.5 2.5 0 0 1 -2.5 2.5 2.5 2.5 0 0 1 -2.5-2.5 2.5 2.5 0 0 1 2.5-2.5 2.5 2.5 0 0 1 2.5 2.5z" fill="#ed8733"/><path d="m16 12.5-4 4-4.5 4.5h13.5v-3.5zm-6 2-6.5 6.5h2.5l5.25-5.25z" fill="#83beef"/><path d="m16 11-4 4-2-2-7 7v1h.5l6.5-6.5 1.25 1.25-5.25 5.25h1.5l8.5-8.5 5 5v-1.5z" fill="#0063b1"/><path d="m9 7.5a1.5 1.5 0 0 1 -1.5 1.5 1.5 1.5 0 0 1 -1.5-1.5 1.5 1.5 0 0 1 1.5-1.5 1.5 1.5 0 0 1 1.5 1.5z" fill="#f8db8f"/><g stroke-linecap="round" stroke-linejoin="round"><path d="m22.5 17.5a5 5 0 0 1 -5 5 5 5 0 0 1 -5-5 5 5 0 0 1 5-5 5 5 0 0 1 5 5" fill="#fff" stroke="#fff" stroke-width="3"/><g fill="none" stroke="#1e8bcd"><path d="m22.5 17.5a5 5 0 0 1 -5 5 5 5 0 0 1 -5-5 5 5 0 0 1 5-5 5 5 0 0 1 5 5"/><path d="m12.5 17.5h10"/><path d="m17 12.5c-2.1 3.4-1.9 6.7 0 10"/><path d="m18 12.5c2.1 3.4 1.9 6.7 0 10"/><path d="m21.5 14.5c-3.3 1.3-4.8 1.3-8 0"/><path d="m21.5 20.5c-3.3-1.3-4.8-1.3-8 0"/></g></g></svg>