<svg viewBox="0 0 24 24" xmlns="http://www.w3.org/2000/svg"><g fill-opacity=".982993"><path d="m10.5 3a7.5 7.5 0 0 0 -7.5 7.5 7.5 7.5 0 0 0 7.5 7.5 7.5 7.5 0 0 0 1.535156-.167969c-.024036-.107986-.039062-.216949-.039062-.326172 0-.381072.150913-.771977.439453-1.060547.577633-.577629 1.545413-.57763 2.123047 0l.210937.210938a7.5 7.5 0 0 0 1.230469-1.070312v-3.085938c0-.813703.686297-1.5 1.5-1.5.164368 0 .321339.034537.470703.085938a7.5 7.5 0 0 0 .029297-.585938 7.5 7.5 0 0 0 -7.5-7.5z" fill="#fafafa"/><g fill="#3a3a38"><path d="m10.5 2a8.5 8.5 0 0 0 -8.5 8.5 8.5 8.5 0 0 0 8.5 8.5 8.5 8.5 0 0 0 2.09375-.273438l-.158203-.15625a1.0001 1.0001 0 0 0 0-.001953c-.209254-.209244-.340571-.467576-.400391-.736328a7.5 7.5 0 0 1 -1.535156.167969 7.5 7.5 0 0 1 -7.5-7.5 7.5 7.5 0 0 1 7.5-7.5 7.5 7.5 0 0 1 7.5 7.5 7.5 7.5 0 0 1 -.029297.585938c.404661.139256.74104.442867.910156.833984a8.5 8.5 0 0 0 .119141-1.419922 8.5 8.5 0 0 0 -8.5-8.5zm5.5 13.585938a7.5 7.5 0 0 1 -1.230469 1.070312l.71875.716797a8.5 8.5 0 0 0 .511719-.392578z"/><path d="m10.5 2a8.5 8.5 0 0 0 -.7539062.0390625 14.5 14.5 0 0 0 -2.7460938 8.4609375 14.5 14.5 0 0 0 2.7421875 8.460938 8.5 8.5 0 0 0 .7578125.039062 8.5 8.5 0 0 0 .503906-.017578 13.5 13.5 0 0 1 -3.003906-8.482422 13.5 13.5 0 0 1 3.003906-8.4746094 8.5 8.5 0 0 0 -.503906-.0253906z"/><path d="m10.5 2a8.5 8.5 0 0 0 -.5039062.0175781 13.5 13.5 0 0 1 3.0039062 8.4824219 13.5 13.5 0 0 1 -3.0039062 8.474609 8.5 8.5 0 0 0 .5039062.025391 8.5 8.5 0 0 0 .753906-.039062 14.5 14.5 0 0 0 .767578-1.183594c-.016562-.090104-.02539-.180809-.02539-.271485 0-.381072.150913-.771977.439453-1.060547.113126-.113125.243666-.196809.380859-.265624a14.5 14.5 0 0 0 1.183594-5.679688 14.5 14.5 0 0 0 -2.742188-8.4609375 8.5 8.5 0 0 0 -.757812-.0390625z"/><path d="m10.5 14a14.5 14.5 0 0 0 -6.7382812 1.671875 8.5 8.5 0 0 0 .6660156.773437 13.5 13.5 0 0 1 6.0722656-1.445312 13.5 13.5 0 0 1 5.5 1.193359v-1.095703a14.5 14.5 0 0 0 -5.5-1.097656z"/><path d="m4.4414062 4.546875a8.5 8.5 0 0 0 -.6757812.7832031 14.5 14.5 0 0 0 6.734375 1.6699219 14.5 14.5 0 0 0 6.738281-1.671875 8.5 8.5 0 0 0 -.666015-.7734375 13.5 13.5 0 0 1 -6.072266 1.4453125 13.5 13.5 0 0 1 -6.0585938-1.453125z"/><path d="m2.0253906 10a8.5 8.5 0 0 0 -.0253906.5 8.5 8.5 0 0 0 .0175781.5h16.9570309a8.5 8.5 0 0 0 .025391-.5 8.5 8.5 0 0 0 -.017578-.5z"/></g></g><path d="m22.003906 17.505859c0-.127809-.04855-.25558-.146484-.353515-.195869-.195868-.513116-.195868-.708985 0l-3.148437 3.140625v-7.792969c0-.277-.223-.5-.5-.5s-.5.223-.5.5v7.792969l-3.148438-3.140625c-.195869-.195868-.513115-.195868-.708984 0-.09793.09794-.146484.225706-.146484.353515 0 .127808.04855.257539.146484.355469l4.003906 3.992188c.04701.04702.103236.08407.166016.109375.0579.02334.12105.03711.1875.03711s.129596-.01377.1875-.03711c.06278-.0253.119003-.06236.166016-.109375l4.003906-3.992187c.09793-.09793.146484-.227661.146484-.35547z" fill="#1e8bcd"/></svg>