<?xml-stylesheet type="text/css" href="icons.css" ?>
<svg viewBox="0 0 24 24" xmlns="http://www.w3.org/2000/svg">
  <g id="background"
     class="icn icn--area-color"
     fill="#c8c6c4"
     stroke="#3a3a38"
     stroke-linecap="round"
     stroke-linejoin="round"
     >
      <path d="M 4.5,21.5 V 2.5" />
      <path d="m 2.5,19.5 h 19" />
  </g>
  <g id="symbol"
     class="icn icn--area-color"
     fill="#c8c6c4"
     stroke="#3a3a38"
     stroke-linecap="round"
     stroke-linejoin="round"
     >
      <path d="M 11.5 5.5 L 11.5 18.5 L 14.5 18.5 L 14.5 5.5 L 11.5 5.5 z M 6.5 8.5 L 6.5 18.5 L 9.5 18.5 L 9.5 8.5 L 6.5 8.5 z M 16.5 11.5 L 16.5 18.5 L 19.5 18.5 L 19.5 11.5 L 16.5 11.5 z " />
  </g>
  <g id="symbol"
	 class="icn icn--highlight-color"  
     fill="#83beec" 
     stroke="#1e8bcd" 
	 stroke-linecap="round" 
	 stroke-linejoin="round"
      >
      <path d="M 12.5 1.5 L 12.5 3.5 L 12.5 1.5 z M 7.55 2.5 L 7.55 6.5 L 7.55 2.5 z M 18.5 4.5 L 18.5 8.5 L 18.5 4.5 z " />
      <path d="M 11.5 1.5 L 13.5 1.5 L 11.5 1.5 z M 6.55 2.5 L 8.55 2.5 L 6.55 2.5 z M 11.5 3.5 L 13.5 3.5 L 11.5 3.5 z M 17.5 4.5 L 19.5 4.5 L 17.5 4.5 z M 6.55 6.5 L 8.55 6.5 L 6.55 6.5 z M 17.5 8.5 L 19.5 8.5 L 17.5 8.5 z " />
  </g>
</svg>
