<svg viewBox="0 0 24 24" fill="none" xmlns="http://www.w3.org/2000/svg">
<path d="M12.0241 7.55076C13.1272 7.55076 14.0215 6.75589 14.0215 5.77538C14.0215 4.79486 13.1272 4 12.0241 4C10.9209 4 10.0267 4.79486 10.0267 5.77538C10.0267 6.75589 10.9209 7.55076 12.0241 7.55076Z" fill="#3A3A38"/>
<path d="M12.0234 13.767C13.1266 13.767 14.0208 12.9722 14.0208 11.9917C14.0208 11.0111 13.1266 10.2163 12.0234 10.2163C10.9203 10.2163 10.026 11.0111 10.026 11.9917C10.026 12.9722 10.9203 13.767 12.0234 13.767Z" fill="#3A3A38"/>
<path d="M11.9974 20.01C13.1005 20.01 13.9948 19.2151 13.9948 18.2346C13.9948 17.2541 13.1005 16.4592 11.9974 16.4592C10.8943 16.4592 10 17.2541 10 18.2346C10 19.2151 10.8943 20.01 11.9974 20.01Z" fill="#3A3A38"/>
</svg>
