<svg version="1.1" viewBox="0 0 24 24" xmlns="http://www.w3.org/2000/svg"><g fill="#3a3a38"><g stroke-width=".39735"><path d="m6.2889 12.029q-0.20178 0-0.31043-0.06209-0.10865-0.06209-0.14745-0.25611l-0.17074-0.70623q-0.29491 0.27163-0.58206 0.48893-0.27939 0.20954-0.58982 0.357-0.31043 0.14746-0.66743 0.2173-0.357 0.07761-0.78384 0.07761-0.44236 0-0.8304-0.11641-0.38028-0.12417-0.67519-0.37252-0.28715-0.25611-0.45789-0.62862-0.16298-0.38028-0.16298-0.89249 0-0.45012 0.24058-0.86145 0.24834-0.41908 0.79936-0.74503 0.55102-0.32595 1.4357-0.52773 0.88473-0.20954 2.173-0.24058v-0.58206q0-0.88473-0.38028-1.3271-0.37252-0.45012-1.0943-0.45012-0.48117 0-0.81488 0.12417-0.32595 0.12417-0.56654 0.27163-0.24058 0.14745-0.41908 0.27163-0.17074 0.12417-0.34923 0.12417-0.13969 0-0.24058-0.069847-0.10089-0.069847-0.16298-0.1785l-0.24834-0.4346q0.62862-0.60534 1.3504-0.90025 0.72951-0.30267 1.6142-0.30267 0.63638 0 1.1331 0.20954 0.49669 0.20178 0.8304 0.58206 0.33371 0.38028 0.50445 0.90801 0.1785 0.52773 0.1785 1.1719v4.8505zm-2.8404-0.83816q0.34147 0 0.62862-0.06985 0.28715-0.06985 0.54325-0.19402 0.25611-0.13193 0.48117-0.31819 0.23282-0.19402 0.45789-0.42684v-1.5677q-0.90801 0.038804-1.5444 0.15522-0.63638 0.10865-1.0399 0.29491-0.3958 0.18626-0.5743 0.44236-0.1785 0.24834-0.1785 0.55878 0 0.29491 0.093129 0.51221 0.10089 0.20954 0.26387 0.34924 0.16298 0.13193 0.38804 0.20178 0.22506 0.06209 0.48117 0.06209z"/><path d="m8.9819 12.029v-11.036h1.3659v4.5245q0.46565-0.55102 1.0632-0.86921 0.59758-0.32595 1.3737-0.32595 0.65967 0 1.1874 0.25611 0.52773 0.25611 0.90025 0.73727 0.37252 0.48117 0.56654 1.1719 0.20178 0.68295 0.20178 1.5522 0 0.92353-0.22506 1.6763-0.22506 0.7528-0.64414 1.296-0.41908 0.53549-1.0167 0.8304-0.59758 0.29491-1.3426 0.29491t-1.2495-0.27939q-0.49669-0.28715-0.88473-0.7916l-0.07761 0.67519q-0.03104 0.28715-0.33371 0.28715zm3.3449-6.6277q-0.62862 0-1.1098 0.29491-0.47341 0.29491-0.86921 0.83816v3.6631q0.357 0.48893 0.78384 0.69071 0.42684 0.19402 0.93905 0.19402 1.0477 0 1.6065-0.7528 0.55878-0.7528 0.55878-2.2429 0-1.3814-0.49669-2.0333-0.49669-0.6519-1.4125-0.6519z"/><path d="m22.183 5.8052q-0.06209 0.085369-0.12417 0.13193-0.05433 0.038804-0.16298 0.038804-0.11641 0-0.24058-0.093129t-0.31043-0.20178q-0.18626-0.11641-0.45789-0.20954-0.26387-0.093129-0.6519-0.093129-0.51221 0-0.90801 0.20178-0.38804 0.19402-0.6519 0.56654-0.2561 0.36476-0.3958 0.89249-0.13193 0.52773-0.13193 1.1874 0 0.68295 0.13969 1.2184 0.14746 0.52773 0.41132 0.89249 0.26387 0.36476 0.63638 0.55878 0.37252 0.18626 0.83816 0.18626 0.45012 0 0.73727-0.11641 0.28715-0.11641 0.48117-0.2561 0.19402-0.13969 0.31819-0.25611 0.13193-0.11641 0.27163-0.11641 0.15522 0 0.24834 0.13193l0.3958 0.49669q-0.24834 0.30267-0.55102 0.52773-0.30267 0.2173-0.6519 0.36476-0.34924 0.13969-0.72951 0.20954-0.37252 0.06985-0.76056 0.06985-0.66743 0-1.2495-0.26387-0.58206-0.26387-1.0167-0.76056-0.42684-0.50445-0.67519-1.2262-0.24058-0.72951-0.24058-1.6608 0-0.84592 0.22506-1.5599 0.22506-0.72175 0.6519-1.2417 0.4346-0.51997 1.0632-0.80712 0.63638-0.29491 1.459-0.29491 0.77608 0 1.3581 0.26387 0.58206 0.25611 1.0322 0.72175z"/></g><path d="m6.7861 16.674q-0.06209 0.08537-0.12417 0.13193-0.05433 0.0388-0.16298 0.0388-0.11641 0-0.24058-0.09313t-0.31043-0.20178q-0.18626-0.11641-0.45789-0.20954-0.26387-0.09313-0.6519-0.09313-0.51221 0-0.90801 0.20178-0.38804 0.19402-0.6519 0.56654-0.2561 0.36476-0.3958 0.89249-0.13193 0.52773-0.13193 1.1874 0 0.68295 0.13969 1.2184 0.14746 0.52773 0.41132 0.89249 0.26387 0.36476 0.63638 0.55878 0.37252 0.18626 0.83816 0.18626 0.45012 0 0.73727-0.11641t0.48117-0.2561 0.31819-0.25611q0.13193-0.11641 0.27163-0.11641 0.15522 0 0.24834 0.13193l0.3958 0.49669q-0.24834 0.30267-0.55102 0.52773-0.30267 0.2173-0.6519 0.36476-0.34924 0.13969-0.72951 0.20954-0.37252 0.06985-0.76056 0.06985-0.66743 0-1.2495-0.26387-0.58206-0.26387-1.0167-0.76056-0.42684-0.50445-0.67519-1.2262-0.24058-0.72951-0.24058-1.6608 0-0.84592 0.22506-1.5599 0.22506-0.72175 0.6519-1.2417 0.4346-0.51997 1.0632-0.80712 0.63638-0.29491 1.459-0.29491 0.77608 0 1.3581 0.26387 0.58206 0.2561 1.0322 0.72175z" fill="#ed3d3b" stroke-width=".39735"/></g><path d="m12.184 19.599c-0.27614 0-0.5-0.22386-0.5-0.5s0.22386-0.5 0.5-0.5h5c1.3807 0 2.5-1.1193 2.5-2.5h0.0059v-1.7832l-2.1523 2.1445c-0.09421 0.09737-0.22389 0.15234-0.35938 0.15234-0.4494-9.2e-5 -0.67059-0.54684-0.34766-0.85937l3.0059-2.9941c0.19582-0.19463 0.51232-0.19374 0.70703 2e-3l2.9941 2.9922c0.49081 0.47126-0.23578 1.1978-0.70703 0.70703l-2.1406-2.1387v1.8535c-0.0059 2.1546-1.8834 3.3738-3.5059 3.4238z" fill="#ed3d3b"/></svg>
