<svg xmlns="http://www.w3.org/2000/svg" viewBox="0 0 24 24" fill="none">
  <style>
    .icon-primary { fill: var(--icon-primary-color, rgb(58, 58, 56)); }
    .icon-white { fill: rgb(250, 250, 250); }
  </style>
  <path class="icon-white" d="M5,3.0000436305999756L5,21.000043869018555L19,21.000043869018555L19,6.7294745445251465L15,3.0000436305999756Z"/>
  <path class="icon-primary" d="M5,2.0001046657562256C4.446044921875,2.0001046657562256,4,2.4460275173187256,4,3.0000436305999756L4,21.000043869018555C4,21.554059982299805,4.446044921875,22.00007438659668,5,22.00007438659668L19,22.00007438659668C19.553955078125,22.00007438659668,20,21.554059982299805,20,21.000043869018555L20,10.89069938659668L20,7.2494940757751465L20,7.0414862632751465C20,6.5908637046813965,20.098876953125,6.6149115562438965,19.3955078125,5.9739203453063965L16.087890625,2.7368600368499756C15.37841796875,2.0001046657562256,15.376708984375,2.0001046657562256,14.9931640625,2.0001046657562256L14.66162109375,2.0001046657562256L14,2.0001046657562256ZM5,3.0000436305999756L14,3.0000436305999756L14,7.0000739097595215C14,7.5540289878845215,14.446044921875,8.000043869018555,15,8.000043869018555L19,8.000043869018555L19,21.000043869018555L5,21.000043869018555Z"/>
  <path class="icon-white" d="M15,7.0000739097595215L19,7.0000739097595215L15,3.0000436305999756Z" fill-rule="evenodd"/>
</svg>
