<svg width="24" xmlns="http://www.w3.org/2000/svg" height="24" id="screenshot-34a99d3c-c16d-805b-8007-130189f3c00d" viewBox="0 0 24 24" xmlns:xlink="http://www.w3.org/1999/xlink" fill="none" version="1.1"><g id="shape-34a99d3c-c16d-805b-8007-130189f3c00d" rx="0" ry="0" style="fill: rgb(0, 0, 0);"><g id="shape-34a99d3c-c16d-805b-8007-130189f3c00e" style="display: none;"><g class="fills" id="fills-34a99d3c-c16d-805b-8007-130189f3c00e"><rect width="24" height="24.000000000000057" x="0" transform="matrix(1.000000, 0.000000, 0.000000, 1.000000, 0.000000, 0.000000)" style="fill: none;" ry="0" fill="none" rx="0" y="0"/></g></g><g id="shape-34a99d3c-c16d-805b-8007-130189f3c00f"><g class="fills" id="fills-34a99d3c-c16d-805b-8007-130189f3c00f"><path d="M5,3.0000436305999756L5,21.000043869018555L19,21.000043869018555L19,6.7294745445251465L15,3.0000436305999756Z" style="fill: rgb(250, 250, 250);"/></g></g><g id="shape-34a99d3c-c16d-805b-8007-130189f3c010"><g class="fills" id="fills-34a99d3c-c16d-805b-8007-130189f3c010"><path d="M5,2.0001046657562256C4.446044921875,2.0001046657562256,4,2.4460275173187256,4,3.0000436305999756L4,21.000043869018555C4,21.554059982299805,4.446044921875,22.00007438659668,5,22.00007438659668L19,22.00007438659668C19.553955078125,22.00007438659668,20,21.554059982299805,20,21.000043869018555L20,10.89069938659668L20,7.2494940757751465L20,7.0414862632751465C20,6.5908637046813965,20.098876953125,6.6149115562438965,19.3955078125,5.9739203453063965L16.087890625,2.7368600368499756C15.37841796875,2.0001046657562256,15.376708984375,2.0001046657562256,14.9931640625,2.0001046657562256L14.66162109375,2.0001046657562256L14,2.0001046657562256ZM5,3.0000436305999756L14,3.0000436305999756L14,7.0000739097595215C14,7.5540289878845215,14.446044921875,8.000043869018555,15,8.000043869018555L19,8.000043869018555L19,21.000043869018555L5,21.000043869018555Z" style="fill: rgb(58, 58, 56);"/></g></g><g id="shape-34a99d3c-c16d-805b-8007-130189f3c011"><g class="fills" id="fills-34a99d3c-c16d-805b-8007-130189f3c011"><path d="M15,7.0000739097595215L19,7.0000739097595215L15,3.0000436305999756Z" fill-rule="evenodd" style="fill: rgb(250, 250, 250);"/></g></g></g></svg>