<?xml-stylesheet type="text/css" href="icons.css" ?>
<svg viewBox="0 0 24 24" xmlns="http://www.w3.org/2000/svg">
  <g id="symbol"
	 class="icn icn--highlight-color"  
     fill="#83beec" 
     stroke="#1e8bcd" 
	 stroke-linecap="round" 
	 stroke-linejoin="round"
      >
      <path d="M 12 2.5 A 9.5 9.5 0 0 0 2.5 12 A 9.5 9.5 0 0 0 12 21.5 A 9.5 9.5 0 0 0 21.5 12 A 9.5 9.5 0 0 0 12 2.5 z " />
  </g>
  <g id="background"
     class="icn icn--area-color"
     fill="#fafafa"
     >
      <path d="M 12 5 C 9.8 5 8 6.79 8 9 L 10 9 C 10 7.9 10.9 7 12 7 C 13.1 7 14 7.9 14 9 C 14 9.55 13.8 10 13.4 10.4 L 12.2 11.7 C 11.4 12.4 11 13.4 11 14.5 L 11 15 L 13 15 C 13 13.5 13.4 12.9 14.2 12.2 L 15 11.25 C 15.6 10.68 16 9.88 16 9 C 16 6.79 14.21 5 12 5 z M 11 17 L 11 19 L 13 19 L 13 17 L 11 17 z " />
  </g>
</svg>
