<svg width="24" xmlns="http://www.w3.org/2000/svg" height="24" viewBox="0 0 24 24" fill="none">
  <style>
    .icon-primary { fill: var(--icon-primary-color, rgb(58, 58, 56)); }
    .icon-white { fill: rgb(250, 250, 250); }
  </style>
  <path class="icon-white" d="M7.24658203125,5.00457763671875L10.744384765625,7.627899169921875L18.614013671875,7.627899169921875L18.614013671875,16.95465087890625L2.874267578125,17.2467041015625L2.874267578125,5.00457763671875Z" fill-rule="evenodd"/>
  <path class="icon-primary" d="M2.874267578125,4.130126953125C2.391357421875,4.130126953125,2,4.5216064453125,2,5.00457763671875L2,19.870025634765625L2.874267578125,19.870025634765625L2.874267578125,5.00457763671875L7.24658203125,5.00457763671875L10.744384765625,7.627899169921875L18.614013671875,7.627899169921875L18.614013671875,10.25115966796875L18.614013671875,16.95465087890625L18.614013671875,19.870025634765625L19.48876953125,19.870025634765625L19.48876953125,7.627899169921875C19.48876953125,7.144927978515625,19.09716796875,6.75347900390625,18.614013671875,6.75347900390625L11.1064453125,6.75347900390625L7.86474609375,4.38629150390625C7.70068359375,4.2222900390625,7.478515625,4.130126953125,7.24658203125,4.130126953125Z" fill-rule="evenodd"/>
  <path class="icon-primary" d="M2,19.870025634765625L2.874267578125,19.870025634765625L18.614013671875,19.870025634765625L19.48876953125,19.870025634765625L21.850830078125,10.244354248046875C22.111328125,9.376129150390625,22.1083984375,9.449554443359375,21.199951171875,9.376678466796875L19.48876953125,9.376678466796875L18.614013671875,9.376678466796875L5.516357421875,9.376678466796875C4.623779296875,9.376678466796875,4.6240234375,9.37628173828125,4.39794921875,10.242645263671875L2.874267578125,16.95465087890625Z" fill-rule="evenodd"/>
  <path class="icon-white" d="M5.516357421875,10.25115966796875C5.4052734375,10.25115966796875,5.3759765625,10.2530517578125,5.302978515625,10.25457763671875C5.28564453125,10.316070556640625,5.27392578125,10.34454345703125,5.25,10.435577392578125L5.24658203125,10.45269775390625C5.245361328125,10.458099365234375,5.24462890625,10.457550048828125,5.2431640625,10.462982177734375L3.7265625,17.1475830078125C3.721923828125,17.167144775390625,3.716796875,17.1865234375,3.71142578125,17.205718994140625L3.1748046875,18.99554443359375L18.614013671875,18.99554443359375L18.802001953125,18.99554443359375L20.94921875,10.25115966796875L19.48876953125,10.25115966796875L18.614013671875,10.25115966796875Z" fill-rule="evenodd"/>
</svg>
