<svg viewBox="0 0 24 24" xmlns="http://www.w3.org/2000/svg">
  <path
     style="fill:#333333"
     d="M 7 3 C 6.446 3 6 3.446 6 4 L 6 9 L 3 9 C 2.446 9 2 9.446 2 10 L 2 17 C 2 17.554 2.446 18 3 18 L 7 18 L 7 21 C 7 21.554 7.446 22 8 22 L 16 22 C 16.554 22 17 21.554 17 21 L 17 18 L 21 18 C 21.554 18 22 17.554 22 17 L 22 10 C 22 9.446 21.554 9 21 9 L 18 9 L 18 4 C 18 3.446 17.554 3 17 3 L 7 3 z M 7 4 L 17 4 L 17 9 L 7 9 L 7 4 z M 3 10 L 21 10 L 21 17 L 3 17 L 3 10 z M 8 18 L 16 18 L 16 21 L 8 21 L 8 18 z " />
  <path
     style="fill:#797774"
     d="M 3 10 L 3 17 L 21 17 L 21 10 L 3 10 z " />
  <path
     style="fill:#fbfbfb"
     d="M 7 4 L 7 9 L 17 9 L 17 4 L 7 4 z M 18 15 L 18 16 L 20 16 L 20 15 L 18 15 z M 8 18 L 8 21 L 16 21 L 16 18 L 8 18 z " />
</svg>
