<svg viewBox="0 0 24 24" xmlns="http://www.w3.org/2000/svg"><path d="m10 2c-3.3137085 0-6 2.6862915-6 6 0 3.313708 2.6862915 6 6 6h1v8h1v-19h2v19h1v-19h1 3v-1z" fill="#3a3a38"/><g stroke-linecap="round" stroke-linejoin="round"><path d="m18 13.5a4.5 4.5 0 0 0 -4.5 4.5 4.5 4.5 0 0 0 4.5 4.5 4.5 4.5 0 0 0 4.5-4.5 4.5 4.5 0 0 0 -4.5-4.5z" fill="#fff" stroke="#fff" stroke-width="3"/><path d="m17.4 13.5-.4 2.1-1.8-1.2-.8.8 1.2 1.8-2.1.4v1.2l2.1.4-1.2 1.8.8.8 1.8-1.2.4 2.1h1.2l.4-2.1 1.8 1.2.8-.8-1.2-1.8 2.1-.4v-1.2l-2.1-.4 1.2-1.8-.8-.8-1.8 1.2-.4-2.1zm.6 3a1.5 1.5 0 0 1 1.5 1.5 1.5 1.5 0 0 1 -1.5 1.5 1.5 1.5 0 0 1 -1.5-1.5 1.5 1.5 0 0 1 1.5-1.5z" fill="none" stroke="#1e8bcd"/></g></svg>