<svg viewBox="0 0 24 24" xmlns="http://www.w3.org/2000/svg"><path d="m3 4.9980469v10.0000001l3.7285156 4 14.2714844.001953c.0016-2.59054.002-11.4072381.002-14h-6v-.00195z" fill="#fafafa"/><path d="m4 6v10l2 2h14v-12zm1 1h14v10h-12.5l-1.5-1.5z" fill="#797774"/><path d="m3 3.9980469c-.554 0-1 .446-1 1v9.0000001.662109.330078c0 .383581-.0005299.386178.7363281 1.095704l3.2363281 3.30664c.6409942.703509.6176804.605469 1.0683594.605469h.2070313c4.5834711.00277 9.1674201.001953 13.7519531.001953.554 0 1-.446 1-1v-14c0-.554-.446-1-1-1zm0 1 18 .0019531v14c-4.334337.0027-8.668271-.002-13-.002v-4c0-.554-.446-1-1-1h-4z" fill="#3a3a38"/><g fill="#fafafa"><path d="m6.9995699 14.99762v4l-4-4z" fill-rule="evenodd"/><path d="m16.386719 12.251953a1.0027936 1.0027936 0 0 0 -.259766.048828c-.346044.11239-.679936.254639-1 .427735a1.0027936 1.0027936 0 0 0 -.007812.005859c-.403027.222652-.779385.490179-1.121094.798828a1.0027936 1.0027936 0 0 0 -.277344 1.066406l.392578 1.15625-1.199219.240235a1.0027936 1.0027936 0 0 0 -.783203.771484c-.08653.403035-.13053.814155-.132812 1.226563a1.0027936 1.0027936 0 0 0 0 .007812c.000777.412111.04392.823282.128906 1.226563a1.0027936 1.0027936 0 0 0 .759766.769531c2.704366.000335 5.40853.001953 8.113281.001953.554 0 1-.446 1-1v-3.220703l-.113281-.023438.113281-.335937v-1.886719a1.0027936 1.0027936 0 0 0 -.003906-.003906c-.616159-.550639-1.340025-.968375-2.125-1.226563a1.0027936 1.0027936 0 0 0 -1.066406.291016l-.806641.917969-.808594-.919922a1.0027936 1.0027936 0 0 0 -.802734-.339844z"/><path d="m22 17.820314.000001.359375-1.625001.326171c-.590916.118977-.943084.729769-.75 1.300782l.529297 1.5625.0019.0059-.312499.179688-1.091797-1.244141c-.398372-.454309-1.105534-.454309-1.503906 0l-1.091797 1.244141-.3125-.179687.53125-1.56836c.193084-.571013-.159084-1.181805-.75-1.300782l-1.625-.326171-.000001-.359376 1.625001-.326171c.590916-.118977.943084-.729769.75-1.300782l-.53125-1.568359.3125-.179688 1.091797 1.244141c.216237.246413.539514.3712.865233.333985.247001-.02808.47469-.147149.638673-.333985l1.091796-1.244141.312501.179688-.53125 1.568359c-.193084.571013.159084 1.181805.75 1.300782z"/></g><path d="m16.4375 13.253907c-.288253.09362-.567398.213248-.833984.357422-.335712.185464-.64898.408939-.933594.666016l.757812 2.236328-2.316406.464844c-.072088.335769-.109428.67807-.111328 1.021484.000647.343279.03664.685584.107422 1.021484l2.320312.464844-.755859 2.236328c.513244.458667 1.115664.806419 1.769531 1.021484l1.558594-1.773437 1.5625 1.77539c.288253-.09362.567396-.213252.833984-.357422.335712-.185463.64897-.408938.933594-.666015l-.757812-2.236328 2.316406-.464844c.07209-.335769.109428-.67807.111328-1.021484-.000647-.343279-.03664-.685584-.107422-1.021484l-2.320312-.464844.755859-2.236328c-.513244-.458667-1.115664-.80642-1.769531-1.021485l-1.558594 1.773438-.46875-.533203zm-.28125 1.191406 1.091797 1.244141a1.0001 1.0001 0 0 0 .865234.333985 1.0001 1.0001 0 0 0 .638672-.333985l1.091797-1.244141.3125.179688-.53125 1.568359a1.0001 1.0001 0 0 0 .75 1.300782l1.625.326171v.359376l-1.625.326171a1.0001 1.0001 0 0 0 -.75 1.300782l.529297 1.5625.002.0059-.3125.179688-1.091797-1.244141a1.0001 1.0001 0 0 0 -1.503906 0l-1.091844 1.2441-.3125-.179688.53125-1.568359a1.0001 1.0001 0 0 0 -.75-1.300782l-1.625-.326171v-.359376l1.625-.326171a1.0001 1.0001 0 0 0 .75-1.300782l-.53125-1.568359zm1.84375 2.554688a1 1 0 0 0 -1 1 1 1 0 0 0 1 1 1 1 0 0 0 1-1 1 1 0 0 0 -1-1z" fill="#1e8bcd"/></svg>