<svg width="24" xmlns="http://www.w3.org/2000/svg" height="24" viewBox="0 0 24 24" fill="none">
  <style>
    .icon-primary { fill: var(--icon-primary-color, rgb(58, 58, 56)); }
    .icon-white { fill: rgb(250, 250, 250); }
    .icon-secondary { fill: var(--icon-secondary-color, rgb(30, 139, 205)); }
  </style>
  <path class="icon-white" d="M5,4.000034809112549L5,21.00003433227539L15.5,21.00003433227539C12.474365234375,21.00003433227539,10,18.52573013305664,10,15.500035285949707C10,12.474339485168457,12.474365234375,10.000035285949707,15.5,10.000035285949707C16.82666015625,10.000035285949707,18.04736328125,10.476353645324707,19,11.265660285949707L19,8.000035285949707L15,4.000034809112549ZM18.12890625,20.23831558227539C17.31884765625,20.68814468383789,16.4384765625,20.99875259399414,15.501953125,21.00003433227539L18.890625,21.00003433227539Z"/>
  <path class="icon-primary" d="M5,3.000034809112549C4.446044921875,3.000034809112549,4,3.446018695831299,4,4.000034809112549L4,21.00003433227539C4,21.55405044555664,4.446044921875,22.00003433227539,5,22.00003433227539L19.890625,22.00003433227539L18.890625,21.00003433227539L15.501953125,21.00003433227539L15.5,21.00003433227539L5,21.00003433227539L5,4.000034809112549L14,4.000034809112549L14,8.000035285949707C14,8.554051399230957,14.446044921875,9.000035285949707,15,9.000035285949707L19,9.000035285949707L19,11.265660285949707C19.380859375,11.581212043762207,19.71533203125,11.948094367980957,20,12.353550910949707L20,8.250035285949707L20,8.041050910949707C20,7.590366840362549,20.09814453125,7.615635395050049,19.39453125,6.974644184112549L16.087890625,3.736362934112549C15.37841796875,2.999485492706299,15.377685546875,3.000034809112549,14.994140625,3.000034809112549L14.662109375,3.000034809112549L14,3.000034809112549ZM15,4.000034809112549L19,8.000035285949707L15,8.000035285949707Z"/>
  <path class="icon-secondary" d="M15.5,11.000035285949707C13.0146484375,11.000035285949707,11,13.014744758605957,11,15.500035285949707C11,17.98532485961914,13.0146484375,20.00003433227539,15.5,20.00003433227539C16.52294921875,19.99863052368164,17.51513671875,19.64865493774414,18.3125,19.00784683227539L22.15234375,22.84769058227539C22.27783203125,22.97830581665039,22.4638671875,23.03091812133789,22.63916015625,22.98526382446289C22.814453125,22.93954849243164,22.951171875,22.80270767211914,22.996826171875,22.62753677368164C23.042724609375,22.45230484008789,22.989990234375,22.26608657836914,22.859375,22.14065933227539L19.021484375,18.30276870727539C19.6552734375,17.50607681274414,20.000244140625,16.51803970336914,20,15.500035285949707C20,13.014744758605957,17.9853515625,11.000035285949707,15.5,11.000035285949707ZM15.5,12.000035285949707C17.43310546875,12.000035285949707,19,13.567051887512207,19,15.500035285949707C19,17.43301773071289,17.43310546875,19.00003433227539,15.5,19.00003433227539C13.56689453125,19.00003433227539,12,17.43301773071289,12,15.500035285949707C12,13.567051887512207,13.56689453125,12.000035285949707,15.5,12.000035285949707Z"/>
  <path class="icon-white" d="M19,15.500035285949707C19,17.43301773071289,17.43310546875,19.00003433227539,15.5,19.00003433227539C13.56689453125,19.00003433227539,12,17.43301773071289,12,15.500035285949707C12,13.567051887512207,13.56689453125,12.000035285949707,15.5,12.000035285949707C17.43310546875,12.000035285949707,19,13.567051887512207,19,15.500035285949707Z"/>
</svg>
