<svg xmlns="http://www.w3.org/2000/svg" viewBox="0 0 24 24" fill="none">
  <style>
    .icon-primary { fill: var(--icon-primary-color, rgb(58, 58, 56)); }
    .icon-white { fill: rgb(250, 250, 250); }
    .icon-secondary { fill: var(--icon-secondary-color, rgb(30, 139, 205)); }
    .icon-gray { fill: rgb(121, 119, 116); }
  </style>
  <path class="icon-white" d="M5,3.999965190887451L5,20.99996566772461L11,20.99996566772461L11,15.999964714050293C11,15.445948600769043,11.446044921875,14.999964714050293,12,14.999964714050293L13,14.999964714050293L13,11.999964714050293L19,11.999964714050293L19,7.999965190887451L15,3.999965190887451Z"/>
  <path class="icon-primary" d="M5,2.999965190887451C4.446044921875,2.999965190887451,4,3.445949077606201,4,3.999965190887451L4,20.99996566772461C4,21.55398178100586,4.446044921875,21.99996566772461,5,21.99996566772461L11,21.99996566772461L11,20.99996566772461L5,20.99996566772461L5,3.999965190887451L14,3.999965190887451L14,7.999965190887451C14,8.553980827331543,14.446044921875,8.999964714050293,15,8.999964714050293L19,8.999964714050293L19,11.999964714050293L20,11.999964714050293L20,8.040980339050293C20,7.590297222137451,20.09814453125,7.615565776824951,19.39453125,6.974574565887451L16.087890625,3.736293315887451C15.37841796875,2.999415874481201,15.377685546875,2.999965190887451,14.994140625,2.999965190887451C11.662841796875,2.999965190887451,8.331298828125,2.999965190887451,5,2.999965190887451ZM15,3.999965190887451L19,7.999965190887451L15,7.999965190887451Z"/>
  <path class="icon-white" d="M15,13.999964714050293L15,15.999964714050293L20,15.999964714050293L20,13.999964714050293Z"/>
  <path class="icon-primary" d="M14,12.999964714050293L14,15.999964714050293L15,15.999964714050293L15,13.999964714050293L20,13.999964714050293L20,15.999964714050293L21,15.999964714050293L21,12.999964714050293L20,12.999964714050293L15,12.999964714050293ZM13,15.999964714050293C12.446044921875,15.999964714050293,12,16.44594955444336,12,16.99996566772461L12,20.99996566772461C12,21.55398178100586,12.446044921875,21.99996566772461,13,21.99996566772461L14,21.99996566772461L14,23.99996566772461L21,23.99996566772461L21,21.99996566772461L22,21.99996566772461C22.553955078125,21.99996566772461,23,21.55398178100586,23,20.99996566772461L23,16.99996566772461C23,16.44594955444336,22.553955078125,15.999964714050293,22,15.999964714050293L22,20.99996566772461L13,20.99996566772461C13,19.33327865600586,13,17.66665267944336,13,15.999964714050293ZM15,21.99996566772461L20,21.99996566772461L20,22.99996566772461L15,22.99996566772461Z"/>
  <path class="icon-secondary" d="M14,15.999964714050293L21,15.999964714050293L21,17.99996566772461L14,17.99996566772461Z"/>
  <path class="icon-white" d="M15,21.99996566772461L15,22.99996566772461L20,22.99996566772461L20,21.99996566772461Z"/>
  <path class="icon-gray" d="M13,18.99996566772461L22,18.99996566772461L22,20.99996566772461L13,20.99996566772461Z" fill-opacity="0.983"/>
</svg>
