<svg viewBox="0 0 24 24" xmlns="http://www.w3.org/2000/svg"><path d="m3 4.9980469v10.0000001l3.7285156 4h5.3632814c-.056085-.32929-.09312-.66186-.09375-.996094a1.0027936 1.0027936 0 0 1 0-.007812c.002282-.412408.046282-.823528.132812-1.226563a1.0027936 1.0027936 0 0 1 .783203-.771484l1.199219-.240235-.392578-1.15625a1.0027936 1.0027936 0 0 1 .277344-1.066406c.341709-.308649.718067-.576176 1.121094-.798828a1.0027936 1.0027936 0 0 1 .007812-.005859c.320064-.173096.653956-.315345 1-.427735a1.0027936 1.0027936 0 0 1 .259766-.048828 1.0027936 1.0027936 0 0 1 .802734.339844l.808594.919922.806641-.917969a1.0027936 1.0027936 0 0 1 1.066406-.291016c.394206.12966.771424.301054 1.128906.507813.000388-3.1589834.001953-6.364055.001953-7.810547h-6v-.0019531z" fill="#fafafa"/><path d="m4 6v10l2 2h5.998047a1.0027936 1.0027936 0 0 1 0-.005859c.001847-.333767.038776-.665664.095703-.994141h-5.59375l-1.5-1.5v-8.5h14v5.421875a1.0027936 1.0027936 0 0 1 .871094-.119141c.044016.014478.085282.035306.128906.050782v-6.353516z" fill="#797774"/><path d="m3 3.9980469c-.554 0-1 .446-1 1v9.0000001.662109.330078c0 .383581-.0005299.386178.7363281 1.095704l3.2363281 3.30664c.6409942.703509.6176804.605469 1.0683594.605469h.2070313c1.8793468.001136 3.7591571-.000233 5.6386721 0a1.0027936 1.0027936 0 0 1 -.759766-.769531c-.01606-.076209-.022088-.153744-.035156-.230469-1.363808-.000554-2.7283697 0-4.091797 0v-4c0-.554-.446-1-1-1h-4v-9.0000001l18 .0019531v7.808594c.354708.20507.689098.446352.996094.720703a1.0027936 1.0027936 0 0 1 .003906.003906v-8.533203c0-.554-.446-1-1-1zm19 11.4218751-.113281.335937.113281.023438z" fill="#3a3a38"/><g fill="#fafafa"><path d="m6.9995699 14.99762v4l-4-4z" fill-rule="evenodd"/><path d="m22 17.820314.000001.359375-1.625001.326171c-.590916.118977-.943084.729769-.75 1.300782l.529297 1.5625.0019.0059-.312499.179688-1.091797-1.244141c-.398372-.454309-1.105534-.454309-1.503906 0l-1.091797 1.244141-.3125-.179687.53125-1.56836c.193084-.571013-.159084-1.181805-.75-1.300782l-1.625-.326171-.000001-.359376 1.625001-.326171c.590916-.118977.943084-.729769.75-1.300782l-.53125-1.568359.3125-.179688 1.091797 1.244141c.216237.246413.539514.3712.865233.333985.247001-.02808.47469-.147149.638673-.333985l1.091796-1.244141.312501.179688-.53125 1.568359c-.193084.571013.159084 1.181805.75 1.300782z"/></g><path d="m16.4375 13.253907c-.288253.09362-.567398.213248-.833984.357422-.335712.185464-.64898.408939-.933594.666016l.757812 2.236328-2.316406.464844c-.072088.335769-.109428.67807-.111328 1.021484.000647.343279.03664.685584.107422 1.021484l2.320312.464844-.755859 2.236328c.513244.458667 1.115664.806419 1.769531 1.021484l1.558594-1.773437 1.5625 1.77539c.288253-.09362.567396-.213252.833984-.357422.335712-.185463.64897-.408938.933594-.666015l-.757812-2.236328 2.316406-.464844c.07209-.335769.109428-.67807.111328-1.021484-.000647-.343279-.03664-.685584-.107422-1.021484l-2.320312-.464844.755859-2.236328c-.513244-.458667-1.115664-.80642-1.769531-1.021485l-1.558594 1.773438-.46875-.533203zm-.28125 1.191406 1.091797 1.244141a1.0001 1.0001 0 0 0 .865234.333985 1.0001 1.0001 0 0 0 .638672-.333985l1.091797-1.244141.3125.179688-.53125 1.568359a1.0001 1.0001 0 0 0 .75 1.300782l1.625.326171v.359376l-1.625.326171a1.0001 1.0001 0 0 0 -.75 1.300782l.529297 1.5625.002.0059-.3125.179688-1.091797-1.244141a1.0001 1.0001 0 0 0 -1.503906 0l-1.091844 1.2441-.3125-.179688.53125-1.568359a1.0001 1.0001 0 0 0 -.75-1.300782l-1.625-.326171v-.359376l1.625-.326171a1.0001 1.0001 0 0 0 .75-1.300782l-.53125-1.568359zm1.84375 2.554688a1 1 0 0 0 -1 1 1 1 0 0 0 1 1 1 1 0 0 0 1-1 1 1 0 0 0 -1-1z" fill="#1e8bcd"/></svg>