<svg viewBox="0 0 24 24" xmlns="http://www.w3.org/2000/svg"><path d="m5 3v18h14v-14.2705905l-4-3.7294095z" fill="#fafafa"/><path d="m5 2c-.554 0-1 .446-1 1v18c0 .554.446 1 1 1h14c.554 0 1-.446 1-1v-10.109375-3.6412209-.2079239c0-.4506799.09887-.4265951-.604637-1.0675892l-3.307389-3.2370335c-.709525-.7368575-.711223-.7368575-1.094804-.7368575h-.331557-.661613zm0 1h9v4c0 .554.446 1 1 1h4v13h-14z" fill="#3a3a38"/><g fill="#fafafa"><path d="m15 7h4l-4-4z" fill-rule="evenodd"/><path d="m16.386719 12.251953a1.0027936 1.0027936 0 0 0 -.259766.048828c-.346044.11239-.679936.254639-1 .427735a1.0027936 1.0027936 0 0 0 -.007812.005859c-.403027.222652-.779385.490179-1.121094.798828a1.0027936 1.0027936 0 0 0 -.277344 1.066406l.392578 1.15625-1.199219.240235a1.0027936 1.0027936 0 0 0 -.783203.771484c-.08653.403035-.13053.814155-.132812 1.226563a1.0027936 1.0027936 0 0 0 0 .007812c.000777.412111.04392.823282.128906 1.226563a1.0027936 1.0027936 0 0 0 .783203.77539l1.203125.240235-.390625 1.158203a1.0027936 1.0027936 0 0 0 -.013672.597656h5.291016c.554 0 1-.446 1-1v-8.646484c-.043624-.015476-.08489-.036304-.128906-.050782a1.0027936 1.0027936 0 0 0 -1.066406.291016l-.806641.917969-.808594-.919922a1.0027936 1.0027936 0 0 0 -.802734-.339844z"/><path d="m22 17.820314.000001.359375-1.625001.326171c-.590916.118977-.943084.729769-.75 1.300782l.529297 1.5625.0019.0059-.312499.179688-1.091797-1.244141c-.398372-.454309-1.105534-.454309-1.503906 0l-1.091797 1.244141-.3125-.179687.53125-1.56836c.193084-.571013-.159084-1.181805-.75-1.300782l-1.625-.326171-.000001-.359376 1.625001-.326171c.590916-.118977.943084-.729769.75-1.300782l-.53125-1.568359.3125-.179688 1.091797 1.244141c.216237.246413.539514.3712.865233.333985.247001-.02808.47469-.147149.638673-.333985l1.091796-1.244141.312501.179688-.53125 1.568359c-.193084.571013.159084 1.181805.75 1.300782z"/></g><path d="m16.4375 13.253907c-.288253.09362-.567398.213248-.833984.357422-.335712.185464-.64898.408939-.933594.666016l.757812 2.236328-2.316406.464844c-.072088.335769-.109428.67807-.111328 1.021484.000647.343279.03664.685584.107422 1.021484l2.320312.464844-.755859 2.236328c.513244.458667 1.115664.806419 1.769531 1.021484l1.558594-1.773437 1.5625 1.77539c.288253-.09362.567396-.213252.833984-.357422.335712-.185463.64897-.408938.933594-.666015l-.757812-2.236328 2.316406-.464844c.07209-.335769.109428-.67807.111328-1.021484-.000647-.343279-.03664-.685584-.107422-1.021484l-2.320312-.464844.755859-2.236328c-.513244-.458667-1.115664-.80642-1.769531-1.021485l-1.558594 1.773438-.46875-.533203zm-.28125 1.191406 1.091797 1.244141a1.0001 1.0001 0 0 0 .865234.333985 1.0001 1.0001 0 0 0 .638672-.333985l1.091797-1.244141.3125.179688-.53125 1.568359a1.0001 1.0001 0 0 0 .75 1.300782l1.625.326171v.359376l-1.625.326171a1.0001 1.0001 0 0 0 -.75 1.300782l.529297 1.5625.002.0059-.3125.179688-1.091797-1.244141a1.0001 1.0001 0 0 0 -1.503906 0l-1.091844 1.2441-.3125-.179688.53125-1.568359a1.0001 1.0001 0 0 0 -.75-1.300782l-1.625-.326171v-.359376l1.625-.326171a1.0001 1.0001 0 0 0 .75-1.300782l-.53125-1.568359zm1.84375 2.554688a1 1 0 0 0 -1 1 1 1 0 0 0 1 1 1 1 0 0 0 1-1 1 1 0 0 0 -1-1z" fill="#1e8bcd"/></svg>