<svg version="1.1" viewBox="0 0 24 24" xmlns="http://www.w3.org/2000/svg"><g transform="matrix(1.2058 0 0 1.2058 2.3517 1.5885)"><path d="m8 2c-3.2801 0.0043271-6.2981 1.7928-7.877 4.668 0.12895 0.36373 0.35744 0.67659 0.65625 0.9082 1.3218-2.7913 4.1323-4.5725 7.2207-4.5762-2.2091 0-4 1.7909-4 4s1.7909 4 4 4 4-1.7909 4-4c8e-3 -2.0795-1.5788-3.8183-3.6504-4 2.9613 0.13455 5.6055 1.8956 6.8711 4.5762 0.30152-0.23371 0.53191-0.55005 0.66016-0.91797-1.5821-2.8726-4.6014-4.6573-7.8809-4.6582zm0 2c1.6569 0 3 1.3431 3 3s-1.3431 3-3 3-3-1.3431-3-3 1.3431-3 3-3z" fill="#3a3a38"/><path d="m11 7a3 3 0 0 1-3 3 3 3 0 0 1-3-3 3 3 0 0 1 3-3 3 3 0 0 1 3 3z" fill="#fafafa"/><path d="M 8,5 C 6.8954,5 6,5.89543 6,7 6,8.1046 6.89543,9 8,9 9.1046,9 10,8.10457 10,7 10.02896,6.80511 10.02896,6.607 10,6.41211 9.82599,6.80114 9.42455,7.03714 9,7 8.44772,7 8,6.55228 8,6 7.963176,5.57497 8.20005,5.17339 8.58984,5 8.39431,4.970848 8.19553,4.970848 8,5 Z" fill="#ed3d3b"/></g><path d="m20.143 15.143-2.1429 2.1429-2.1429-2.1429-0.71428 0.71429 2.1429 2.1429-2.1429 2.1429 0.71428 0.71429 2.1429-2.1429 2.1429 2.1429 0.71429-0.71429-2.1429-2.1429 2.1429-2.1429z" fill="#ed3d3b"/></svg>
