<?xml version="1.0" encoding="UTF-8"?>
<svg version="1.1" viewBox="0 0 16 16" xmlns="http://www.w3.org/2000/svg">
 <path d="m8 2c-3.28 0.004327-6.298 1.793-7.877 4.668 0.129 0.3637 0.3574 0.6766 0.6562 0.9082 1.322-2.791 4.132-4.572 7.221-4.576-2.209 0-4 1.791-4 4s1.791 4 4 4 4-1.791 4-4c0.007957-2.08-1.579-3.818-3.65-4 2.961 0.1346 5.606 1.896 6.871 4.576 0.3015-0.2337 0.5319-0.55 0.6602-0.918-1.582-2.873-4.601-4.657-7.881-4.658zm0 2c1.657 0 3 1.343 3 3s-1.343 3-3 3-3-1.343-3-3 1.343-3 3-3z" fill="#3a3a38"/>
 <path d="m11 7a3 3 0 0 1-3 3 3 3 0 0 1-3-3 3 3 0 0 1 3-3 3 3 0 0 1 3 3z" fill="#fafafa"/>
 <path d="m8 5c-1.105 0-2 0.8954-2 2 0 1.105 0.8954 2 2 2 1.105 0 2-0.8954 2-2 0.02896-0.1949 0.02896-0.393 0-0.5879-0.174 0.389-0.5754 0.625-1 0.5879-0.5523 0-1-0.4477-1-1-0.03682-0.425 0.2-0.8266 0.5898-1-0.1955-0.02915-0.3943-0.02915-0.5898 0z" fill="#1e8bcd"/>
 <path d="m15.57 10-2.571 2.571-2.571-2.571-0.4286 0.4286 2.571 2.571-2.571 2.571 0.4286 0.4286 2.571-2.571 2.571 2.571 0.4286-0.4286-2.571-2.571 2.571-2.571z" fill="#ed3d3b" stroke-width=".6"/>
</svg>
