<svg viewBox="0 0 24 24" xmlns="http://www.w3.org/2000/svg"><g stroke-linecap="round" stroke-linejoin="round"><path d="m2.5 2.5h19v19h-19z" fill="#fafafa" stroke="#3a3a38"/><path d="m4.5 4.5v2h2v-2zm5 0v2h9v-2zm-5 5v9h2v-9z" fill="#83beec" stroke="#0063b1"/><g fill="#fff" stroke="#fff" stroke-width="3"><path d="m11.5 16c0-3 2.5-4.5 5-4.5 2 0 4.5 1.5 5 4"/><path d="m21.5 12.5v3h-3"/><path d="m21.5 17c0 3-2.5 4.5-5 4.5-2 0-4.5-1.5-5-4"/><path d="m11.5 20.5v-3h3"/></g><g fill="none" stroke="#18ab50"><path d="m11.5 16c0-3 2.5-4.5 5-4.5 2 0 4.5 1.5 5 4"/><path d="m21.5 12.5v3h-3"/><path d="m21.5 17c0 3-2.5 4.5-5 4.5-2 0-4.5-1.5-5-4"/><path d="m11.5 20.5v-3h3"/></g></g></svg>