<svg viewBox="0 0 24 24" xmlns="http://www.w3.org/2000/svg"><g stroke-linecap="round" stroke-linejoin="round"><path d="m19.5 2.5h-15v19h15z" fill="#fafafa" stroke="#3a3a38"/><path d="m6.5 5.5v3h3v-3zm6 0h5zm0 3h5zm-6 3h11zm0 3h11zm0 3h11z" fill="none" stroke="#797774"/><g stroke="#fff" stroke-width="3"><path d="m10.5 22.5 5-2-3-3z"/><path d="m15.5 20.5 5-5-3-3-5 5z"/><path d="m22.5 13.5-2 2-3-3 2-2z"/></g><g fill="#83beec" stroke="#0063b1"><path d="m10.5 22.5 5-2-3-3z"/><path d="m15.5 20.5 5-5-3-3-5 5z"/><path d="m22.5 13.5-2 2-3-3 2-2z"/></g></g></svg>