<svg version="1.1" viewBox="0 0 24 24" xmlns="http://www.w3.org/2000/svg"><path d="m5 3v18h7.5195a6.0108 6.0108 0 0 1-1.5312-4 6.0108 6.0108 0 0 1 4.6562-5.8359l1.2617-1.2617 1.1992 1.1992a6.0108 6.0108 0 0 1 0.85352 0.21875l0.041016-4.5918-4-3.7285h-10z" fill="#fafafa"/><path d="m5 2c-0.554 0-1 0.446-1 1v18c0 0.554 0.446 1 1 1h8.6738a6.0108 6.0108 0 0 1-1.1543-1h-7.5195v-18h9v4c0 0.554 0.446 1 1 1h4l-0.033203 3.3223a6.0108 6.0108 0 0 1 1.0039 0.45508l0.029297-0.88672v-3.6406-0.20898c0-0.45068 0.098038-0.42541-0.60547-1.0664l-3.3066-3.2383c-0.70952-0.73686-0.71017-0.73633-1.0938-0.73633h-0.33203-0.66211-9z" fill="#3a3a38"/><path d="m15 7h4l-4-4z" fill="#fafafa" fill-rule="evenodd"/><rect x="7" y="5" width="5" height="1" ry=".5" fill="#3a3a38"/><rect x="7" y="9" width="3" height="1" ry=".5" fill="#ed3d3b"/><rect x="12" y="9" width="5" height="1" ry=".5" fill="#1e8bcd"/><rect x="7" y="15" width="4" height="1" ry=".5" fill="#3a3a38"/><circle cx="17" cy="17" r="5" fill="#fafafa"/><path d="m7.5 12c-0.277 0-0.5 0.223-0.5 0.5s0.223 0.5 0.5 0.5h5.0215a6.0108 6.0108 0 0 1 1.1523-1h-6.1738z" fill="#3a3a38" stroke-width="1.0954"/><rect x="7" y="18" width="3" height="1" rx=".5" ry=".5" fill="#fb983b" stroke-width=".77459"/><path d="m17 22q-1.0416 0-1.9514-0.39583-0.9098-0.39583-1.5833-1.0695-0.67364-0.6735-1.0695-1.5833-0.39583-0.90966-0.39583-1.9514h1.0714q0 1.622 1.1532 2.7753 1.1532 1.1532 2.7753 1.1532t2.7753-1.1532q1.1532-1.1532 1.1532-2.7753t-1.1532-2.7753q-1.1532-1.1532-2.781-1.1532h-0.08348l0.75891 0.75891-0.75891 0.75891-2.0535-2.0535 2.0535-2.0535 0.75891 0.75891-0.77378 0.75891h0.10416q1.0416 0 1.9514 0.39583 0.9098 0.39583 1.5833 1.0695 0.67364 0.6735 1.0695 1.5833 0.39583 0.90966 0.39583 1.9514 0 1.0417-0.39583 1.9514-0.39583 0.9098-1.0695 1.5833-0.6735 0.67364-1.5833 1.0695-0.90966 0.39583-1.9514 0.39583z" fill="#ed8733" stroke-width=".01488"/></svg>
