<svg viewBox="0 0 16 16" xmlns="http://www.w3.org/2000/svg"><path d="m-14 1h12c.554 0 1 .446 1 1s-.446 1-1 1h-12c-.554 0-1-.446-1-1s.446-1 1-1z" fill="#1e8bcd" transform="scale(-1 1)"/><g fill="#3a3a38"><path d="m1.5 14h13c.277 0 .5.223.5.5s-.223.5-.5.5h-13c-.277 0-.5-.223-.5-.5s.223-.5.5-.5z"/><path d="m1.5 8h13c.277 0 .5.223.5.5s-.223.5-.5.5h-13c-.277 0-.5-.223-.5-.5s.223-.5.5-.5z"/><path d="m1.5 11h13c.277 0 .5.223.5.5s-.223.5-.5.5h-13c-.277 0-.5-.223-.5-.5s.223-.5.5-.5z"/><path d="m1.5 5h13c.277 0 .5.223.5.5s-.223.5-.5.5h-13c-.277 0-.5-.223-.5-.5s.223-.5.5-.5z"/></g></svg>