<svg version="1.1" viewBox="0 0 16 16" xmlns="http://www.w3.org/2000/svg"><path class="OfficeIconColors_HighContrast" d="m13.941 3.5868q0.20277 0.054333 0.30433 0.23024 0.10547 0.18268 0.04723 0.37868l-0.54904 2.049q-0.05433 0.20277-0.23024 0.30433-0.18268 0.10547-0.37868 0.047228l-2.049-0.54904q-0.20277-0.054337-0.30433-0.23025-0.10547-0.18268-0.047234-0.37868 0.054333-0.20277 0.23024-0.30433 0.18268-0.10547 0.37868-0.047228l0.87511 0.23449q-0.7036-1.1093-1.8537-1.7263-1.1248-0.60451-2.402-0.59786-1.312 0.00875-2.4622 0.67281-1.0013 0.57813-1.6444 1.5268-0.62383 0.91948-0.7924 2.0181-0.03299 0.20849-0.20108 0.32358-0.16422 0.12183-0.37269 0.088876-0.20849-0.032991-0.33035-0.19718-0.12183-0.16421-0.088866-0.37268 0.21118-1.3217 0.95729-2.4201 0.76821-1.1382 1.9725-1.8335 1.3802-0.79687 2.9723-0.80493 1.5398-0.00492 2.889 0.72263 1.389 0.74966 2.2333 2.1025l0.23734-0.88578q0.05433-0.20277 0.23024-0.30433 0.18268-0.10547 0.37868-0.047228zm-0.43026 4.786q0.20849 0.032991 0.33035 0.19718 0.12183 0.16421 0.08887 0.37268-0.21118 1.3217-0.95728 2.4201-0.76822 1.1382-1.9725 1.8335-1.3802 0.79688-2.9723 0.80493-1.5398 0.0049-2.889-0.72262-1.3891-0.74966-2.2333-2.1025l-0.23735 0.88578q-0.054325 0.20277-0.23024 0.30433-0.18268 0.10547-0.37868 0.047228-0.20276-0.054328-0.30433-0.23024-0.10547-0.18268-0.047233-0.37868l0.54904-2.049q0.054336-0.20277 0.23025-0.30433 0.18268-0.10547 0.37868-0.047234l2.049 0.54904q0.20277 0.054333 0.30433 0.23024 0.10547 0.18268 0.04723 0.37868-0.05433 0.20277-0.23024 0.30434-0.18268 0.10547-0.37868 0.04723l-0.87511-0.23448q0.7036 1.1093 1.8537 1.7263 1.1248 0.60452 2.402 0.59786 1.312-0.0088 2.4622-0.67282 1.0013-0.57813 1.6444-1.5268 0.62383-0.91948 0.7924-2.0181 0.03299-0.20849 0.20109-0.32358 0.16421-0.12183 0.37268-0.088872z" fill="#3a3a38" type="path"/></svg>
