<svg version="1.1" viewBox="0 0 24 24" xmlns="http://www.w3.org/2000/svg"><path d="m3 6h18v15h-18z" fill="#fafafa"/><path d="m3 3c-0.554 0-1 0.446-1 1v16c0 0.554 0.446 1 1 1h18c0.554 0 1-0.446 1-1v-16c0-0.554-0.446-1-1-1zm0 4h18v13h-18z" fill="#3a3a38"/><path d="m3 4h18v2h-18z" fill="#797774" fill-opacity=".99265"/><path d="m5 9v3h4v-3zm0 5v3h4v-3z" fill="#797774"/><path d="m15.5 9a4.5 4.5 0 0 0-4.5 4.5 4.5 4.5 0 0 0 4.5 4.5 4.5 4.5 0 0 0 2.8125-0.99219l3.8398 3.8398a0.50005 0.50005 0 1 0 0.70703-0.70703l-3.8379-3.8379a4.5 4.5 0 0 0 0.97852-2.8027 4.5 4.5 0 0 0-4.5-4.5zm0 1a3.5 3.5 0 0 1 3.5 3.5 3.5 3.5 0 0 1-3.5 3.5 3.5 3.5 0 0 1-3.5-3.5 3.5 3.5 0 0 1 3.5-3.5z" fill="#3a3a38" stroke="#fff" stroke-width="2"/><path d="m15.5 9a4.5 4.5 0 0 0-4.5 4.5 4.5 4.5 0 0 0 4.5 4.5 4.5 4.5 0 0 0 2.8125-0.99219l3.8398 3.8398a0.50005 0.50005 0 1 0 0.70703-0.70703l-3.8379-3.8379a4.5 4.5 0 0 0 0.97852-2.8027 4.5 4.5 0 0 0-4.5-4.5zm0 1a3.5 3.5 0 0 1 3.5 3.5 3.5 3.5 0 0 1-3.5 3.5 3.5 3.5 0 0 1-3.5-3.5 3.5 3.5 0 0 1 3.5-3.5z" fill="#3a3a38"/></svg>
