<svg viewBox="0 0 24 24" xmlns="http://www.w3.org/2000/svg"><path d="m12 2a10 10 0 0 0 -10 10 10 10 0 0 0 10 10 10 10 0 0 0 10-10 10 10 0 0 0 -10-10zm0 1a9 9 0 0 1 9 9 9 9 0 0 1 -9 9 9 9 0 0 1 -9-9 9 9 0 0 1 9-9z" fill="#0063b1"/><path d="m12 3a9 9 0 0 0 -9 9 9 9 0 0 0 9 9 9 9 0 0 0 9-9 9 9 0 0 0 -9-9zm0 2a1.5 1.5 0 0 1 1.5 1.5 1.5 1.5 0 0 1 -1.5 1.5 1.5 1.5 0 0 1 -1.5-1.5 1.5 1.5 0 0 1 1.5-1.5zm-6 4h12v2h-3v8h-2v-4h-2v4h-2v-8h-3z" fill="#83beec"/><path d="m12 5c-.828427 0-1.5.6715729-1.5 1.5s.671573 1.5 1.5 1.5 1.5-.6715729 1.5-1.5-.671573-1.5-1.5-1.5zm-6 4v1h4v9h1v-4h2v4h1v-9h4v-1z" fill="#fafafa"/><path d="m12 3c-4.9705627 0-9 4.0294373-9 9 0 4.970563 4.0294373 9 9 9 4.970563 0 9-4.029437 9-9 0-4.9705627-4.029437-9-9-9zm0 2c.828427 0 1.5.6715729 1.5 1.5s-.671573 1.5-1.5 1.5-1.5-.6715729-1.5-1.5.671573-1.5 1.5-1.5zm-6 4h12v1h-4v9h-1v-4h-2v4h-1v-9h-4z" fill="#83beec"/></svg>