<?xml-stylesheet type="text/css" href="icons.css" ?>
<svg viewBox="0 0 24 24" xmlns="http://www.w3.org/2000/svg">
  <g id="background"
	 class="icn icn--highlight-color-3"  
     fill="#922e98" >
      <path d="M 3 13 L 3 14 L 7.5 14 L 3.1 21.1 C 3.1 21.2 3 21.3 3 21.3 C 3 21.4 3 21.5 3 21.5 L 3 22 L 9 22 L 9 21 L 4.5 21 L 8.9 13.9 C 9 13.7 9 13.6 9 13.5 L 9 13 L 3 13 z " />
  </g>
  <g id="symbol"
	 class="icn icn--highlight-color-line"  
     fill="none" 
     stroke="#1e8bcd"
	 stroke-linecap="round" 
	 stroke-linejoin="round" >
      <path d="m 14.5,15.5 4,4 4,-4" />
      <path d="M 18.5,19.5 V 4.5" />
  </g>
  <g id="symbol"
	 class="icn icn--highlight-color"  
     fill="#1e8bcd" >
      <path d="M 5.4 2 L 2 11 L 3 11 C 3 11 3.2 11 3.2 10.9 C 3.3 10.9 3.4 10.8 3.4 10.7 L 4 9 L 8 9 L 8.6 10.7 C 8.7 10.8 8.7 10.9 8.8 10.9 C 8.8 11 9 11 9 11 L 10 11 L 6.6 2 L 5.4 2 z M 6 3.2 C 6 3.3 6.1 3.5 6.1 3.7 C 6.2 3.8 6.2 3.9 6.3 4 L 7.7 8 L 4.3 8 L 5.7 4 C 5.8 3.9 5.8 3.8 5.9 3.7 C 5.9 3.5 6 3.4 6 3.2 z " />
  </g>
</svg>
