<svg viewBox="0 0 24 24" xmlns="http://www.w3.org/2000/svg"><path d="m6 2a1.0001 1.0001 0 0 0 -1 1v10a1.0001 1.0001 0 0 0 1 1h3v3.585938l.2929688-.292969a1.0001 1.0001 0 0 1 1.4140622 0l.707031.707031 4-4h3.171876l2.707031-2.707031a1.0001 1.0001 0 0 1 .691406-.292969 1.0001 1.0001 0 0 1 .015625 0v-8a1.0001 1.0001 0 0 0 -1-1z" fill="#3a3a38"/><path d="m6 3v10h4v4a1.0001 1.0001 0 0 1 .707031.292969l4.292969-4.292969h4.585938l1.414062-1.414062v-8.585938z" fill="#fafafa"/><path d="m3 5a1.0001 1.0001 0 0 0 -1 1v10a1.0001 1.0001 0 0 0 1 1h3v4a1.0001 1.0001 0 0 0 1.7070312.707031l1.2929688-1.292969-.7070312-.707031a1.0001 1.0001 0 0 1 0-1.414062l1-1a1.0001 1.0001 0 0 1 1.4140622 0l.707031.707031 1-1h3.171876l3.414062-3.414062v-7.585938a1.0001 1.0001 0 0 0 -1-1z" fill="#3a3a38"/><path d="m3 6v10h4v5l1.2929688-1.292969a1.0001 1.0001 0 0 1 0-1.414062l1-1a1.0001 1.0001 0 0 1 1.4140622 0l1.292969-1.292969h4.585938l1.414062-1.414062v-8.585938z" fill="#fafafa"/><path d="m10 18-.9999999 1 3.9999999 4 10-10-1-1-9 9z" fill="#1e8bcd"/></svg>