<svg version="1.1" viewBox="0 0 24 24" xmlns="http://www.w3.org/2000/svg"><rect x="4.5" y="2.5" width="15" height="5" rx=".5" ry=".5" fill="#797774" stroke="#3a3a38" stroke-linecap="round" stroke-linejoin="round" style="paint-order:markers fill stroke"/><rect x="4.5" y="16.5" width="15" height="5" rx=".5" ry=".5" fill="#1e8bcd" stroke="#3a3a38" stroke-linecap="round" stroke-linejoin="round" style="paint-order:markers fill stroke"/><rect x="4.5" y="9.5" width="15" height="5" rx=".5" ry=".5" fill="#fb983b" stroke="#3a3a38" stroke-linecap="round" stroke-linejoin="round" style="paint-order:markers fill stroke"/><path d="m7.3813 10.5c0.831 0 1.5 0.669 1.5 1.5s-0.669 1.5-1.5 1.5-1.5-0.669-1.5-1.5 0.669-1.5 1.5-1.5z" fill="#fff"/><path d="m7.3813 17.5c0.831 0 1.5 0.669 1.5 1.5s-0.669 1.5-1.5 1.5-1.5-0.669-1.5-1.5 0.669-1.5 1.5-1.5z" fill="#fff"/><path d="m7.3813 3.5c0.831 0 1.5 0.669 1.5 1.5s-0.669 1.5-1.5 1.5-1.5-0.669-1.5-1.5 0.669-1.5 1.5-1.5z" fill="#fff"/></svg>
