<svg viewBox="0 0 24 24" xmlns="http://www.w3.org/2000/svg"><path d="m10.898438 4-5.898438 16h1.6875c.1834758 0 .3391615-.05267.4667969-.158203.1356125-.10553.2275273-.227232.2753906-.365235l1.203125-3.476562h3.3671875v-1a1.0001 1.0001 0 0 1 1-1h-3.671875l2.205078-6.3710938c.07179-.1948249.146791-.4218736.226563-.6816406.079772-.2597669.160462-.5450426.240234-.8535156l1.158203 3.4277344c.222959-.7514374.684597-1.3992172 1.306641-1.8496094l-1.351563-3.671875zm3.441406 9.015625.064453.191406c.03302-.02494.070142-.043895.103515-.068359-.057185-.039617-.11306-.080937-.167968-.123047z" fill="#3a3a38"/><path d="m16.5 8c-1.380712 0-2.5 1.1192881-2.5 2.5.002 1.18641.837558 2.208031 2 2.445312v.054688 2h-3v1h3v6.974609c-2.173365-.148007-4.174995-1.233648-5.484375-2.974609h2.484375v-1h-4v4h1v-2.052734c1.609336 1.927801 3.988761 3.045301 6.5 3.052734 2.512196-.0089 4.891784-1.128606 6.5-3.058594v2.058594h1v-4h-4v1h2.484375c-1.308614 1.742432-3.310357 2.829561-5.484375 2.978516v-6.978516h3v-1h-3v-2-.05078c1.163878-.237577 1.999871-1.261342 2-2.44922 0-1.3807119-1.119288-2.5-2.5-2.5zm0 1c.828427 0 1.5.6715729 1.5 1.5 0 .828427-.671573 1.5-1.5 1.5s-1.5-.671573-1.5-1.5c0-.8284271.671573-1.5 1.5-1.5z" fill="#1e8bcd" fill-opacity=".982993"/></svg>