<svg viewBox="0 0 24 24" xmlns="http://www.w3.org/2000/svg"><path d="m3 4v16h18v-16z" fill="#fff"/><path d="m7 14.5a.5.5 0 0 1 .2-.4l3-3a.5.5 0 1 1 .7.7l-2.1 2.1h5.8a.5.5 0 1 1 0 1h-5.8l2.1 2.1a.5.5 0 1 1 -.7.7l-3-2.8a.5.5 0 0 1 -.2-.4z" fill="#1e8bcd"/><path d="m3 3c-.554 0-1 .446-1 1v16c0 .554.446 1 1 1h18c.554 0 1-.446 1-1v-16c0-.554-.446-1-1-1zm0 1h18v16h-18z" fill="#3a3a38"/><path d="m17 3c-.554 0-1 .446-1 1v16c0 .554.446 1 1 1h4c.554 0 1-.446 1-1v-16c0-.554-.446-1-1-1zm0 1h4v16h-4z" fill="#0063b1"/><path d="m17 4v16h4v-16z" fill="#83beec"/></svg>