<svg viewBox="0 0 24 24" fill="none" xmlns="http://www.w3.org/2000/svg">
<path d="M1.5135 6.02705H3.67224C3.95586 6.02705 4.18579 5.79712 4.18579 5.51349C4.18579 5.22986 3.95587 4.99994 3.67224 4.99994H1.5135C1.22988 4.99994 0.99995 5.22986 0.99995 5.51349C0.99995 5.79712 1.22988 6.02705 1.5135 6.02705Z" fill="#1E8BCD"/>
<path d="M3.12384 21.275V5.77496H2.06189V21.275H3.12384Z" fill="#1E8BCD"/>
<path d="M1.5135 22.0499H3.67224C3.95587 22.0499 4.18579 21.82 4.18579 21.5364C4.18579 21.2528 3.95587 21.0228 3.67224 21.0228H1.5135C1.22988 21.0228 0.99995 21.2528 0.99995 21.5364C0.99995 21.82 1.22988 22.0499 1.5135 22.0499Z" fill="#1E8BCD"/>
<path d="M22.1 6.06519H5.89998V20.9782H18.7435L22.1 16.7174V6.06519Z" fill="#FAFAFA"/>
<path d="M22.9999 6.06519C22.9999 5.47506 22.5985 4.99997 22.0999 4.99997H5.89994C5.40134 4.99997 4.99994 5.47506 4.99994 6.06519V20.9782C4.99994 21.5684 5.40134 22.0434 5.89994 22.0434H14.9984H18.2755H18.4626C18.8682 22.0434 18.8465 22.1488 19.4234 21.3994L22.3368 17.8763C22.9999 17.1205 22.9999 17.1187 22.9999 16.7101V16.3569V15.6521V6.06519ZM22.0999 6.06519V15.6521H18.4999C18.0013 15.6521 17.5999 16.1272 17.5999 16.7174V20.9782H5.89994V6.06519H22.0999Z" fill="#3A3A38"/>
<path fill-rule="evenodd" clip-rule="evenodd" d="M18.5 16.7173V20.9782L22.1 16.7173H18.5Z" fill="#FAFAFA"/>
<path d="M21.9656 1.54218V3.64368C21.9656 3.94311 22.2084 4.18585 22.5078 4.18585C22.8073 4.18585 23.05 3.94312 23.05 3.64368V1.54218C23.05 1.24275 22.8073 1.00001 22.5078 1.00001C22.2084 1.00001 21.9656 1.24275 21.9656 1.54218Z" fill="#1E8BCD"/>
<path d="M5.86816 3.1239H22.2318V2.06195H5.86816V3.1239Z" fill="#1E8BCD"/>
<path d="M5.04994 1.54218V3.64368C5.04994 3.94311 5.29268 4.18585 5.59211 4.18585C5.89154 4.18585 6.13428 3.94312 6.13428 3.64368V1.54218C6.13428 1.24275 5.89154 1.00001 5.59211 1.00001C5.29268 1.00001 5.04994 1.24275 5.04994 1.54218Z" fill="#1E8BCD"/>
</svg>