<svg viewBox="0 0 24 24" xmlns="http://www.w3.org/2000/svg"><path d="m3 2a1.0001 1.0001 0 0 0 -1 1v16a1.0001 1.0001 0 0 0 .2929688.707031l2 2a1.0001 1.0001 0 0 0 .7070312.292969h16a1.0001 1.0001 0 0 0 1-1v-18a1.0001 1.0001 0 0 0 -1-1z" fill="#3a3a38"/><path d="m3 3v16l2 2h1v-7h12v7h3v-18h-2v7h-14v-7z" fill="#797774"/><path d="m6 3v6h12v-6zm1 12v6h2v-5h2v5h6v-6z" fill="#fafafa"/><path d="m20.4 11c-.2 0-.4.07172-.523438.216797l-1.673828 1.669922 2.847656 2.849609 1.710938-1.638672c.290506-.290127.290506-.756747 0-1.046875l-1.8-1.833984c-.145254-.145064-.335828-.216797-.52539-.216797zm0 .990234 1.582031 1.580078-.917969.88086-1.5625-1.5625z" fill="#0063b1"/><path d="m20.4 12-.9.9 1.56 1.56.9-.9z" fill="#83beec"/><path d="m12.708984 18.376953-.002-.002-.706984.707078.002.002-.05078.05078-.95122 3.865189 3.806641-1.011719 6.24414-6.271484-2.828125-2.830078zm5.511719-4.191406 1.53125 1.533203-4.841797 4.861328-1.550781-1.552734zm-5.509765 5.708984 1.34375 1.341797-1.791016.476563z" fill="#0063b1"/><path d="m18.220703 14.185547 1.53125 1.533203-4.841797 4.861328-1.550781-1.552734zm-5.509765 5.708984 1.34375 1.341797-1.791016.476563z" fill="#83beec"/></svg>