<svg viewBox="0 0 24 24" xmlns="http://www.w3.org/2000/svg"><path d="m4 3v18h4v-2a1.0001 1.0001 0 0 1 1-1h4a1.0001 1.0001 0 0 1 1 1v1a1.0001 1.0001 0 0 1 -.84375.986328c.008284.005063.01708.008683.025391.013672h1.818359v-4h-2a1.0001 1.0001 0 0 1 -1-1v-1a1.0001 1.0001 0 0 1 1-1h2v-.558594c-1.132908-.589906-1.997766-1.614353-2-2.939453a1.0001 1.0001 0 0 0 0-.001953c0-1.9211519 1.578848-3.5 3.5-3.5.538 0 1.042845.1349904 1.5.3554688v-.6269532l-4-3.7285156z" fill="#fafafa"/><path d="m4 2c-.554 0-1 .446-1 1v18c0 .554.446 1 1 1h4v-1h-4v-18h9v4c0 .554.446 1 1 1h.06445c.632049-.6159929 1.491304-1 2.43555-1 .976906 0 1.862701.4105457 2.5 1.0644531v-.8144531-.2089844c0-.4506799.098038-.4254121-.605469-1.0664062l-3.30664-3.2382813c-.709525-.7368575-.710169-.7363281-1.09375-.7363281h-.332032-.662109zm9.181641 19c.559737.33604 1.178587.508375 1.818359.666016v-.666016z" fill="#3a3a38"/><path d="m14 7h4l-4-4z" fill="#fafafa" fill-rule="evenodd"/><path d="m16.5 8c-1.380712 0-2.5 1.1192881-2.5 2.5.002 1.18641.837558 2.208031 2 2.445312v.054688 2h-3v1h3v6.974609c-2.173365-.148007-4.174995-1.233648-5.484375-2.974609h2.484375v-1h-4v4h1v-2.052734c1.609336 1.927801 3.988761 3.045301 6.5 3.052734 2.512196-.0089 4.891784-1.128606 6.5-3.058594v2.058594h1v-4h-4v1h2.484375c-1.308614 1.742432-3.310357 2.829561-5.484375 2.978516v-6.978516h3v-1h-3v-2-.05078c1.163878-.237577 1.999871-1.261342 2-2.44922 0-1.3807119-1.119288-2.5-2.5-2.5zm0 1c.828427 0 1.5.6715729 1.5 1.5 0 .828427-.671573 1.5-1.5 1.5s-1.5-.671573-1.5-1.5c0-.8284271.671573-1.5 1.5-1.5z" fill="#1e8bcd" fill-opacity=".982993"/></svg>