<svg width="24" xmlns="http://www.w3.org/2000/svg" height="24" viewBox="0 0 24 24" fill="none">
  <style>
    .icon-primary { fill: var(--icon-primary-color, rgb(58, 58, 56)); }
    .icon-white { fill: rgb(250, 250, 250); }
    .icon-light-purple { fill: rgb(176, 142, 202); }
  </style>
  <path class="icon-primary" d="M11,9.999825477600098C10.4482421875,10.000069618225098,9.999755859375,10.447579383850098,9.999755859375,10.999825477600098L9.999755859375,19.999948501586914C9.999755859375,20.265024185180664,10.105712890625,20.519479751586914,10.293212890625,20.707040786743164L11.29345703125,21.707040786743164C11.480712890625,21.894357681274414,11.734375,21.999765396118164,12.000244140625,22.000009536743164L20.99951171875,22.000009536743164C21.55224609375,21.999765396118164,21.999755859375,21.552255630493164,21.999755859375,21.000009536743164L21.999755859375,10.999825477600098C21.999755859375,10.447579383850098,21.55224609375,10.000069618225098,20.99951171875,9.999825477600098ZM13.00048828125,10.999825477600098L19,10.999825477600098L19,13.999886512756348L13.00048828125,13.999886512756348ZM13.00048828125,17.999948501586914L17.999755859375,17.999948501586914L17.999755859375,21.000009536743164L15,21.000009536743164L15,18.999948501586914L13.999755859375,18.999948501586914L13.999755859375,21.000009536743164L13.00048828125,21.000009536743164Z" stroke-width=".265"/>
  <path class="icon-white" d="M5.000244140625,2.9999477863311768L5.000244140625,21.000009536743164L9.00048828125,21.000009536743164L9.00048828125,10.000069618225098C9.00048828125,9.445931434631348,9.446044921875,9.000008583068848,9.999755859375,9.000008583068848L19,9.000008583068848L19,7.000008583068848L15,2.9999477863311768Z" stroke-width=".265"/>
  <path class="icon-primary" d="M5.000244140625,1.9999476671218872C4.44580078125,1.9999476671218872,4,2.4458096027374268,4,2.9999477863311768L4,21.000009536743164C4,21.553842544555664,4.44580078125,22.000009536743164,5.000244140625,22.000009536743164L9.999755859375,22.000009536743164L9.00048828125,21.000009536743164L5.000244140625,21.000009536743164L5.000244140625,2.9999477863311768L13.999755859375,2.9999477863311768L13.999755859375,7.000008583068848C13.999755859375,7.553902626037598,14.4462890625,7.999764442443848,15,7.999764442443848L19,7.999764442443848L19,8.999825477600098L20.000244140625,8.999825477600098L20.000244140625,7.249825477600098L20.000244140625,7.040841102600098C20.000244140625,6.590279579162598,20.09814453125,6.615426063537598,19.39404296875,5.974617958068848L16.087890625,2.7362759113311768C15.37841796875,1.9994593858718872,15.37744140625,1.9999476671218872,14.994384765625,1.9999476671218872C11.662353515625,1.9999476671218872,8.331298828125,1.9999476671218872,5.000244140625,1.9999476671218872ZM15,2.9999477863311768L19,7.000008583068848L15,7.000008583068848Z" stroke-width=".265"/>
  <path class="icon-light-purple" d="M11,11.000069618225098L11,19.999948501586914L12.000244140625,21.000009536743164L12.000244140625,16.999948501586914L19,16.999948501586914L19,21.000009536743164L20.99951171875,21.000009536743164L20.99951171875,11.000069618225098L20.000244140625,11.000069618225098L20.000244140625,14.999886512756348L12.000244140625,14.999886512756348L12.000244140625,11.000069618225098Z" stroke-width=".265" fill-opacity="1"/>
  <path class="icon-white" d="M13.00048828125,11.000069618225098L13.00048828125,13.999886512756348L19,13.999886512756348L19,11.000069618225098ZM13.00048828125,17.999948501586914L13.00048828125,21.000009536743164L13.999755859375,21.000009536743164L13.999755859375,18.999948501586914L15,18.999948501586914L15,21.000009536743164L17.999755859375,21.000009536743164L17.999755859375,17.999948501586914Z" stroke-width=".265"/>
</svg>
