<?xml-stylesheet type="text/css" href="icons.css" ?>
<svg viewBox="0 0 24 24" xmlns="http://www.w3.org/2000/svg">
  <path
     transform="translate(0,-4)"
     fill="#1e8bcd" 
     d="M 19.384766 11 L 16 14.123047 L 16.644531 15.060547 C 16.678458 15.108664 16.726863 15.156961 16.789062 15.205078 C 16.856917 15.247181 16.93276 15.276878 17.017578 15.294922 C 17.102396 15.312966 17.192935 15.312966 17.289062 15.294922 C 17.38519 15.276878 17.481998 15.226783 17.578125 15.142578 L 19.044922 13.796875 C 19.027958 14.097606 19.019531 14.38739 19.019531 14.664062 L 19.019531 21.376953 L 16.839844 21.376953 L 16.839844 23 L 22.988281 23 L 22.988281 21.376953 L 21.064453 21.376953 L 21.064453 11 L 19.384766 11 z "  
     />
  <path
     transform="translate(0,-1)"
     style="fill:#3a3a38"
     d="M 4 4 L 4 20 L 6 20 L 6 13 L 12 13 L 12 20 L 14 20 L 14 4 L 12 4 L 12 11 L 6 11 L 6 4 L 4 4 z "
     />
</svg>
