<?xml-stylesheet type="text/css" href="icons.css" ?>
<svg viewBox="0 0 24 24" xmlns="http://www.w3.org/2000/svg">
  <g id="background"
     fill="#797774"
     stroke="#333333"
	 stroke-linecap="round"
	 stroke-linejoin="round"
      >
      <path d="m 2.5,2.5 h 19 v 19 h -19 z" />
      <path d="m 3.5,2.5 v 9 h 17 v -9 z m 3,12 v 7 h 12 v -7 z" />
      <path d="m 10.5,16.5 h 1 v 5 h -1 z" />
  </g>
  <g id="background"
     class="icn icn--area-color"
     fill="#fafafa"
      >
      <path d="M 5,3 C 4.446,3 4,3.446 4,4 v 6 c 0,0.554 0.446,1 1,1 h 14 c 0.554,0 1,-0.446 1,-1 V 4 C 20,3.446 19.554,3 19,3 Z m 3,12 c -0.554,0 -1,0.446 -1,1 v 4 c 0,0.554 0.446,1 1,1 h 9 c 0.554,0 1,-0.446 1,-1 v -4 c 0,-0.554 -0.446,-1 -1,-1 z" />
  </g>
  <g id="background"
	 class="icn icn--highlight-color"
     fill="#797774"
     stroke="#333333"
	 stroke-linecap="round"
	 stroke-linejoin="round"
      >
      <path d="m 10.5,16.5 h 1 v 5 h -1 z" />
  </g>
    <path
       d="m20.4 11c-.2 0-.4.07172-.523438.216797l-1.673828 1.669922 2.847656 2.849609 1.710938-1.638672c.290506-.290127.290506-.756747 0-1.046875l-1.8-1.833984c-.145254-.145064-.335828-.216797-.52539-.216797zm0 .990234 1.582031 1.580078-.917969.88086-1.5625-1.5625z"
       fill="#1e8bcd"
       />
    <path
       d="m20.4 12-.9.9 1.56 1.56.9-.9z"
       fill="#83beec"
       />
      <path
         d="m12.708984 18.376953-.002-.002-.706984.707078.002.002-.05078.05078-.95122 3.865189 3.806641-1.011719 6.24414-6.271484-2.828125-2.830078zm5.511719-4.191406 1.53125 1.533203-4.841797 4.861328-1.550781-1.552734zm-5.509765 5.708984 1.34375 1.341797-1.791016.476563z"
         fill="#1e8bcd"
         />
      <path
         d="m18.220703 14.185547 1.53125 1.533203-4.841797 4.861328-1.550781-1.552734zm-5.509765 5.708984 1.34375 1.341797-1.791016.476563z"
         fill="#83beec"
         />
</svg>
