<svg version="1.1" viewBox="0 0 24 24" xmlns="http://www.w3.org/2000/svg"><path d="m3 6h18v15h-18z" fill="#fafafa"/><path d="m3 2c-.554 0-1 .446-1 1v18c0 .554.446 1 1 1h18c.554 0 1-.446 1-1v-18c0-.554-.446-1-1-1zm0 4h18v15h-18z" fill="#3a3a38"/><path d="m6.5 11h11c0.277 0 0.5 0.223 0.5 0.5s-0.223 0.5-0.5 0.5h-11c-0.277 0-0.5-0.223-0.5-0.5s0.223-0.5 0.5-0.5z" fill="#3a3a38"/><path d="m13.5 10c-0.82843 0-1.5 0.67157-1.5 1.5s0.67157 1.5 1.5 1.5 1.5-0.67157 1.5-1.5-0.67157-1.5-1.5-1.5z" fill="#1e8bcd"/><path d="m6.5 15c-0.277 0-0.5 0.223-0.5 0.5s0.223 0.5 0.5 0.5h0.99023 2.0098 1c-0.27614 0-0.5-0.22386-0.5-0.5s0.22386-0.5 0.5-0.5h-1-2.0098-0.99023zm4 0c0.27614 0 0.5 0.22386 0.5 0.5s-0.22386 0.5-0.5 0.5h7.0098c0.27202 0 0.49023-0.21822 0.49023-0.49023v-0.019532c0-0.27202-0.21821-0.49023-0.49023-0.49023h-7.0098z" fill="#3a3a38"/><path d="m10.5 14a1.5 1.5 0 0 0-1.5 1.5 1.5 1.5 0 0 0 1.5 1.5 1.5 1.5 0 0 0 1.5-1.5 1.5 1.5 0 0 0-1.5-1.5zm0 1a0.5 0.5 0 0 1 0.5 0.5 0.5 0.5 0 0 1-0.5 0.5 0.5 0.5 0 0 1-0.5-0.5 0.5 0.5 0 0 1 0.5-0.5z" fill="#1e8bcd"/><path d="m3 3h18v2h-18z" fill="#797774"/></svg>
