<svg viewBox="0 0 24 24" xmlns="http://www.w3.org/2000/svg"><g fill="#1e8bcd" transform="translate(1.632812 3)">&gt;<path d="m10.898438 2-5.898438 16h1.6875c.1834758 0 .3391615-.05267.4667969-.158203.1356125-.10553.2275273-.227232.2753906-.365235l1.203125-3.476562h6.7343755l1.214843 3.488281c.06382.146119.151991.267822.263672.365235.119658.09741.275344.146484.466797.146484h1.6875l-5.886719-16zm1.101562 2.09375 2.671875 7.90625h-5.34375l2.205078-6.3710938c.07179-.1948249.146791-.4218736.226563-.6816406.079772-.2597669.160462-.5450426.240234-.8535156z" fill="#1e8bcd"/></g><g fill="#3a3a38" transform="translate(0 2)">&gt;<path d="m10.898438 2-5.898438 16h1.6875c.1834758 0 .3391615-.05267.4667969-.158203.1356125-.10553.2275273-.227232.2753906-.365235l1.203125-3.476562h6.7343755l1.214843 3.488281c.06382.146119.151991.267822.263672.365235.119658.09741.275344.146484.466797.146484h1.6875l-5.886719-16zm1.101562 2.09375 2.671875 7.90625h-5.34375l2.205078-6.3710938c.07179-.1948249.146791-.4218736.226563-.6816406.079772-.2597669.160462-.5450426.240234-.8535156z"/></g></svg>