<svg height="24" viewBox="0 0 6.3499999 6.3500002" width="24" xmlns="http://www.w3.org/2000/svg"><g stroke-width=".999999" transform="scale(.26458334)"><path d="m3 2v19h5v-2a1.0001 1.0001 0 0 1 1-1h4a1.0001 1.0001 0 0 1 1 1v1a1.0001 1.0001 0 0 1 -.84375.986328c.008284.005063.01708.008683.025391.013672h1.818359v-4h-2a1.0001 1.0001 0 0 1 -1-1v-1h-6-1a1.0001 1.0001 0 0 1 -1-1v-1-6a1.0001 1.0001 0 0 1 1-1h1a1.0001 1.0001 0 0 1 1 1v5h5a1.0001 1.0001 0 0 1 1 1v1h2v-.558594c-.774169-.40311-1.413944-1.01308-1.748047-1.779297a1.0001 1.0001 0 0 1 -.251953-.662109v-.498047a1.0001 1.0001 0 0 0 0-.001953v-4.5h-5a1.0001 1.0001 0 0 1 -1-1v-1a1.0001 1.0001 0 0 1 1-1h6 1a1.0001 1.0001 0 0 1 1 1v1 2.0507812c.164905-.0242058.328781-.0507812.5-.0507812 1.921152 0 3.5 1.5788481 3.5 3.5-.000144 1.326753-.865971 2.352412-2 2.943359v.556641h2a1.0001 1.0001 0 0 1 1 1v1a1.0001 1.0001 0 0 1 -1 1h-2v4h1.824219c.007056-.004257.014447-.007409.021484-.011719a1.0001 1.0001 0 0 1 -.845703-.988281v-1a1.0001 1.0001 0 0 1 1-1h2v-16z" fill="#fafafa"/><path d="m7 2v2a1.0001 1.0001 0 0 1 1-1v-1zm5 0v1h1v-1zm5 0v4h-1v1h.5.5v.0507812c.353258.0518536.688335.1543763 1 .3046876v-.3554688h4v-1h-4v-4zm-10 3v1h-1a1.0001 1.0001 0 0 1 1 1v4 1h1 4a1.0001 1.0001 0 0 1 1 1v-1h.423828c-.061028-.102824-.108642-.213168-.158203-.322266a1.0001 1.0001 0 0 1 -.265625-.677734v-.498047a1.0001 1.0001 0 0 0 0-.001953v-3.5-1h-1-4a1.0001 1.0001 0 0 1 -1-1zm-4 1v1h1a1.0001 1.0001 0 0 1 1-1zm5 1h4v4h-4zm-5 4v1h1v-1zm16.957031 0c-.06242.362118-.198077.694923-.378906 1h2.421875v-1zm-12.957031 4v1h-4v1h4v4h1v-2-2h4v1h1v-1a1.0001 1.0001 0 0 1 -1-1h-4v-1zm14 1a1.0001 1.0001 0 0 1 -1 1h2v-1z" fill="#797774"/><path d="m3 1c-.554 0-1 .4459969-1 1v19c0 .554003.446 1 1 1h5v-1h-5v-19h19v16h1v-16c0-.5540031-.446-1-1-1z" fill="#3a3a38"/></g><g fill="#1e8bcd" transform="matrix(.26458333 0 0 .26458333 0 .00002)"><path d="m12 7v4h-4v-4z" opacity=".5" stroke-width=".561952"/><path d="m7 6v1 4 1h6v-1-4-1zm1 1h4v4h-4z"/></g><g fill-opacity=".982993"><path d="m8 4v1h6v6h1v-6-1h-1z" fill="#18ab50" transform="scale(.26458334)"/><path d="m3.1750001 3.7041666v-.2645833h-1.5875001v-1.5875h-.2645833v1.5875.2645833h.2645833z" fill="#18ab50"/><path d="m4.3656251 2.1166666c-.3653134 0-.6614584.296145-.6614584.6614583.0005292.3139044.2216039.5842083.5291667.6469889v.0144695.5291667h-.79375v.2645833h.79375v1.8453653c-.5750362-.0391602-1.1046341-.3264027-1.4510743-.7870319h.6573243v-.2645834h-1.0583334v1.0583334h.2645833v-.5431192c.4258035.510064 1.0553598.8057359 1.7197918.8077025.6646851-.0023548 1.2942845-.2986103 1.7197916-.809253v.5446697h.2645834v-1.0583334h-1.0583334v.2645834h.6573242c-.3462374.4610184-.8758652.7486546-1.4510742.7880657v-1.8463991h.79375v-.2645833h-.79375v-.5291667-.0134355c.3079427-.062859.5291326-.3337301.5291667-.6480229 0-.3653133-.296145-.6614583-.6614583-.6614583zm0 .2645833c.2191879 0 .396875.177687.396875.396875 0 .2191881-.1776871.3968751-.396875.3968751-.219188 0-.3968751-.177687-.3968751-.3968751 0-.219188.1776871-.396875.3968751-.396875z" fill="#1e8bcd"/></g></svg>