<svg viewBox="0 0 24 24" xmlns="http://www.w3.org/2000/svg"><path d="m3 2a1.0001 1.0001 0 0 0 -1 1v16a1.0001 1.0001 0 0 0 .2929688.707031l2 2a1.0001 1.0001 0 0 0 .7070312.292969h10.423828a5 5 0 0 1 -.423828-2 5 5 0 0 1 5-5 5 5 0 0 1 2 .419922v-12.419922a1.0001 1.0001 0 0 0 -1-1z" fill="#3a3a38"/><path d="m3 3v16l2 2h1v-7h12v1.423828a5 5 0 0 1 2-.423828 5 5 0 0 1 1 .101562v-12.101562h-2v7h-14v-7z" fill="#797774"/><path d="m6 3v6h12v-6zm1 12v6h2v-5h2v5h4.105469a5 5 0 0 1 -.105469-1 5 5 0 0 1 2-3.992188v-1.007812z" fill="#fafafa"/><circle cx="20" cy="20" fill="#0063b1" r="4"/><circle cx="20" cy="20" fill="#83beec" r="3"/></svg>