<svg viewBox="0 0 24 24" xmlns="http://www.w3.org/2000/svg"><path d="m3 4v16h18v-16z" fill="#fafafa"/><path d="m15.4 7.9a.5.5 0 0 1 .4.2l3 3a.5.5 0 1 1 -.7.7l-2.1-2.1v5.8a.5.5 0 1 1 -1 0v-5.8l-2.1 2.1a.5.5 0 1 1 -.7-.7l2.8-3a.5.5 0 0 1 .4-.2z" fill="#1e8bcd"/><path d="m3 3c-.554 0-1 .446-1 1v16c0 .554.446 1 1 1h18c.554 0 1-.446 1-1v-16c0-.554-.446-1-1-1zm0 1h18v16h-18z" fill="#3a3a38"/><path d="m22 18c0-.554-.446-1-1-1h-18c-.554 0-1 .446-1 1v2c0 .554.446 1 1 1h18c.554 0 1-.446 1-1zm-1 0v2h-18v-2z" fill="#0063b1"/><path d="m21 18h-18v2h18z" fill="#83beec"/></svg>