<svg viewBox="0 0 24 24" xmlns="http://www.w3.org/2000/svg"><path d="m8.599609 2-6.099609 12h1.3554688c.145104 0 .2745929-.03999.3867187-.119141.1121258-.08574.1933287-.184749.2460937-.296875l1.2695313-2.583984h5.2597655l.398438 1.634766 1.384765-1.378907-2.43164-9.255859zm.691407 1.6328125c.03298.2374429.0698.4608146.109375.671875.04617.2044647.08616.3866266.11914.5449219l1.253907 5.1503906h-4.523438l2.537109-5.140625c.07255-.1582953.150584-.3436271.236329-.5546875.08574-.2110604.175239-.4344321.267578-.671875z" fill="#3a3a38"/><g fill="#1e8bcd"><path d="m22 14.999959v2c0 1.104569-.895431 2-2 2l-4.286117-.01693 2.146633-2.146326c.32527-.318003.09144-.869893-.363282-.857422-.129759.0036-.253031.05754-.34375.150391l-2.957179 2.956869c-.260944.199522-.261864.592163-.002.792969l.0059.0039 2.953279 2.953095c.471254.490839 1.197871-.235777.707032-.707031l-2.146633-2.146407 4.286117.016933c1.656854 0 3-1.343146 3-3v-2z" fill-rule="evenodd"/><path d="m15.099609 5-6.099609 12h1.355469c.145104 0 .274593-.03999.386719-.119141.112125-.08574.193328-.184749.246093-.296875l1.269532-2.583984h5.259765l.398438 1.634766 2.083984.865234-3.130859-11.5zm.691407 1.6328125c.03298.2374429.0698.4608146.109375.671875.04617.2044647.08616.3866266.11914.5449219l1.253907 5.1503906h-4.523438l2.537109-5.140625c.07255-.1582953.150584-.3436271.236329-.5546875.08574-.2110604.175239-.4344321.267578-.671875z"/></g></svg>