<svg fill="none" viewBox="0 0 24 24" xmlns="http://www.w3.org/2000/svg"><path d="m14.45 14.45c-1.3127 1.3128-3.0932 2.0503-4.9497 2.0503-2.0936-4.368-3.649-5.6049-7-7 0-1.8565 0.7375-3.637 2.0502-4.9498 1.3128-1.3128 3.0932-2.0502 4.9498-2.0502 1.8565 0 3.637 0.7375 4.9497 2.0502 1.3128 1.3128 2.0503 3.0932 2.0503 4.9498 0 1.8565-0.7375 3.637-2.0503 4.9497z" fill="#fff"/><path d="m2.5 9.5c0-1.8565 0.7375-3.637 2.0502-4.9498 1.3128-1.3128 3.0932-2.0502 4.9498-2.0502 1.8565 0 3.637 0.7375 4.9497 2.0502 1.3128 1.3128 2.0503 3.0932 2.0503 4.9498 0 1.8565-0.7375 3.637-2.0503 4.9497-1.3127 1.3128-3.0932 2.0503-4.9497 2.0503" stroke="#3A3A38" stroke-linecap="round" stroke-linejoin="round"/><path d="m11 13v-1c-0.4 0.7-1.1 1-2 1-1.5 0-2-0.4-2-1.5 0-2.5 1.4-2.5 4-2.5 0-1.2 0-2-1.4-2-1 0-1.4 0.3-2 0.6h-0.2c-0.1-0.2-0.3-0.4-0.4-0.6 0.8-0.8 1.6-1 2.8-1 1.6 0 2.2 0.7 2.2 2v5h-1zm-2-1c1.1 0 1.5-0.5 2-1v-1c-1.8 0-3 0-3 1.3 0 0.7 0.5 0.7 1 0.7z" fill="#1E8BCD"/><path d="m0.32815 22v-10h1.3686v4.0999c1.072-1.0822 2.2944-1.2062 3.6314-0.851 0.35251 0.1548 0.65319 0.3774 0.90202 0.6681 0.24884 0.2907 0.43805 0.6446 0.56765 1.0619 0.13479 0.4126 0.20218 0.8814 0.20218 1.4065 0 0.5579-0.07518 1.0642-0.2255 1.519-0.15034 0.4547-0.36548 0.8462-0.64542 1.1744-0.27993 0.3235-0.61949 0.5743-1.0187 0.7524-0.39917 0.1782-0.84759 0.2673-1.3453 0.2673-0.49766 0-0.91498-0.0844-1.2519-0.2532-0.33178-0.1735-0.62727-0.4126-0.88647-0.7173l-0.07776 0.6118c-0.02074 0.1735-0.13219 0.2602-0.33437 0.2602h-0.88647zm3.3515-6.0056c-0.41991 0-0.79057 0.0891-1.112 0.2672-0.31622 0.1782-0.60653 0.4313-0.87092 0.7595v3.3193c0.23847 0.2953 0.50026 0.504 0.78539 0.6258 0.28512 0.1173 0.59875 0.1759 0.9409 0.1759 0.69984 0 1.2364-0.2274 1.6096-0.6822 0.37325-0.4547 0.55988-1.1322 0.55988-2.0323 0-0.8345-0.16589-1.4487-0.49767-1.8425s-0.80353-0.5907-1.4152-0.5907z" fill="#3A3A38"/><path d="m15.756 13.635c-0.2758 0.4176-0.594 0.8099-0.9531 1.169-0.3588 0.3587-0.7508 0.6765-1.1679 0.9521l6.8037 6.8047c0.5856 0.5857 1.5353 0.5855 2.1211 0 0.5857-0.5858 0.5857-1.5353 0-2.1211l-6.8038-6.8047z" fill="#3A3A38"/></svg>
