<svg viewBox="0 0 24 24" xmlns="http://www.w3.org/2000/svg"><path d="m8.5 0c-1.380712 0-2.5 1.119288-2.5 2.5.002 1.18641.837558 2.2080315 2 2.4453125v.0546875 2h-3v1h3v6.974609c-2.173365-.148007-4.174995-1.233648-5.484375-2.974609h2.484375v-1h-4v4h1v-2.052734c1.609336 1.927801 3.988761 3.045301 6.5 3.052734.8279244-.002933 1.637807-.137626 2.414062-.371094l.44336-1.205078c-.742811.307756-1.537707.498524-2.357422.554688v-6.978516h3v-1h-3v-2-.0507812c1.163878-.2375771 1.999871-1.2613408 2-2.4492188 0-1.380712-1.119288-2.5-2.5-2.5zm0 1c.828427 0 1.5.671573 1.5 1.5s-.671573 1.5-1.5 1.5-1.5-.671573-1.5-1.5.671573-1.5 1.5-1.5zm3.5 10v1h.25l.369141-1zm4 2.228516-.267578.771484h.267578z" fill="#1e8bcd" fill-opacity=".982993"/><path d="m10.898438 4-5.898438 16h1.6875c.1834758 0 .3391615-.05267.4667969-.158203.1356125-.10553.2275273-.227232.2753906-.365235l1.203125-3.476562h6.7343755l1.214843 3.488281c.06382.146119.151991.267822.263672.365235.119658.09741.275344.146484.466797.146484h1.6875l-5.886719-16zm1.101562 2.09375 2.671875 7.90625h-5.34375l2.205078-6.3710938c.07179-.1948249.146791-.4218736.226563-.6816406.079772-.2597669.160462-.5450426.240234-.8535156z" fill="#3a3a38" transform="translate(5 1)"/></svg>