<?xml-stylesheet type="text/css" href="icons.css" ?>
<svg version="1.1" viewBox="0 0 24 24" xmlns="http://www.w3.org/2000/svg"><path d="m2.5 4.5v15h7.7832a6.0108 5.9891 0 0 1-0.2832-1.791 6.0108 5.9891 0 0 1 6.0117-5.9902 6.0108 5.9891 0 0 1 5.4883 3.5527v-10.771h-19z" color="#000000" fill="#fafafa" stroke-linecap="round" stroke-linejoin="round" style="-inkscape-stroke:none"/><path d="m2.5 4c-0.27613 2.76e-5 -0.49997 0.22387-0.5 0.5v15c2.76e-5 0.27613 0.22387 0.49997 0.5 0.5h7.9707c-0.13328-0.3236-0.23784-0.65821-0.3125-1h-7.1582v-14h18v7.9863c0.34629 0.19976 0.68025 0.42123 1 0.66211v-9.1484c-2.8e-5 -0.27613-0.22387-0.49997-0.5-0.5z" color="#000000" fill="#3a3a38" stroke-linecap="round" stroke-linejoin="round" style="-inkscape-stroke:none"/><g class="icn icn--area-color" fill="#797774" stroke="#3a3a38" stroke-linecap="round" stroke-linejoin="round"><path d="m5.5 7.5h13v1h-13z"/></g><g class="icn icn--secondary-line-color" fill="none" stroke="#797774" stroke-linecap="round" stroke-linejoin="round"><path d="m5.5 11.5v1h1v-1zm3 0h10zm-3 4v1h1v-1z"/></g><circle cx="16" cy="17.719" r="4" fill="#fafafa"/><path d="m16 12.719c-3.2801 0.0043-6.2981 1.7928-7.877 4.668 0.12894 0.36373 0.35744 0.67659 0.65625 0.9082 1.3218-2.7913 4.1323-4.5725 7.2207-4.5762-2.2091 0-4 1.7909-4 4s1.7909 4 4 4 4-1.7909 4-4c8e-3 -2.0795-1.5788-3.8183-3.6504-4 2.9613 0.13455 5.6055 1.8956 6.8711 4.5762 0.30152-0.23371 0.53191-0.55005 0.66016-0.91797-1.5821-2.8726-4.6014-4.6573-7.8809-4.6582zm0 2c1.6569 0 3 1.3431 3 3s-1.3431 3-3 3-3-1.3431-3-3 1.3431-3 3-3z" fill="#3a3a38"/><path d="m16 15.719c-1.1046 0-2 0.89543-2 2s0.89543 2 2 2 2-0.89543 2-2c0.02896-0.19489 0.02896-0.393 0-0.58789-0.17401 0.38903-0.57545 0.62503-1 0.58789-0.55228 0-1-0.44772-1-1-0.03682-0.42503 0.20005-0.82661 0.58984-1-0.19553-0.02915-0.39431-0.02915-0.58984 0z" fill="#1e8bcd"/></svg>
