<svg fill="none" viewBox="0 0 24 24" xmlns="http://www.w3.org/2000/svg"><path d="m21.5 21.5-7-7 7 7z" fill="#FAFAFA"/><path d="m21.5 21.5-7-7" stroke="#3A3A38" stroke-linecap="round" stroke-linejoin="round" stroke-width="3"/><path d="m2.5 9.5c0 0.9193 0.18106 1.8295 0.53284 2.6788 0.35179 0.8493 0.8674 1.6209 1.5174 2.2709 0.65001 0.6501 1.4217 1.1657 2.271 1.5175 0.84928 0.3517 1.7595 0.5328 2.6788 0.5328 1.8565 0 3.637-0.7375 4.9497-2.0503 1.3128-1.3127 2.0503-3.0932 2.0503-4.9497 0-1.8565-0.7375-3.637-2.0503-4.9498-1.3127-1.3128-3.0932-2.0502-4.9497-2.0502-1.8565 0-3.637 0.7375-4.9498 2.0502-1.3128 1.3128-2.0502 3.0932-2.0502 4.9498z" fill="#FAFAFA" stroke="#3A3A38" stroke-linecap="round" stroke-linejoin="round"/><path d="m11 13v-1c-0.4 0.7-1.1 1-2 1-1.5 0-2-0.4-2-1.5 0-2.5 1.4-2.5 4-2.5 0-1.2 0-2-1.4-2-1 0-1.4 0.3-2 0.6h-0.2c-0.1-0.2-0.3-0.4-0.4-0.6 0.8-0.8 1.6-1 2.8-1 1.6 0 2.2 0.7 2.2 2v5h-1zm-2-1c1.1 0 1.5-0.5 2-1v-1c-1.8 0-3 0-3 1.3 0 0.7 0.5 0.7 1 0.7z" fill="#1E8BCD"/></svg>
