<svg viewBox="0 0 24 24" xmlns="http://www.w3.org/2000/svg"><path d="m12.376953 5.0078125c-.652774 0-1.233293.1069892-1.740234.3222656-.499997.208332-.9242646.4895857-1.2714846.84375-.3402756.34722-.6006956.750654-.78125 1.2089844-.1805544.451386-.2695313.9153677-.2695313 1.3945313 0 .4742891.0673004.8696735.171875 1.2226562h2.2187499c-.130837-.1165052-.250291-.2413887-.349609-.3789062-.17361-.2499984-.259766-.5653237-.259766-.9472657 0-.2916648.04731-.5625016.144531-.8125.097222-.2569428.240236-.4785168.427735-.6660156.194443-.1944432.434029-.3450528.71875-.4492187.291664-.1111105.627823-.1660157 1.009765-.1660157.402776 0 .74653.0549052 1.03125.1660157.291666.1041659.538847.2235251.740235.3554687.208332.1249992.382596.2424053.521484.3535156.145833.104166.270834.15625.375.15625.180554 0 .321615-.0965724.425781-.2910156l.46875-.8867187c-.444442-.4652748-.970924-.8194461-1.582031-1.0625-.604162-.2430541-1.270838-.3632813-2-.3632813zm.523438 7.9921875c.211418.088674.411223.185556.589843.298828.291666.17361.52561.392363.699219.65625.180554.263888.269531.600046.269531 1.009766 0 .368053-.057727.706165-.175781 1.011718-.111111.29861-.27778.554256-.5.769532-.215277.215276-.480471.381945-.792969.5-.312497.118054-.66949.177734-1.072265.177734-.479164 0-.893014-.070097-1.240235-.208984-.340275-.145833-.631946-.302084-.8749996-.46875-.243054-.17361-.4466157-.329862-.6132813-.46875-.1597212-.145833-.3055564-.21875-.4375-.21875-.0972216 0-.1853303.025604-.2617187.074218-.0694439.041667-.1271704.099393-.1757813.175782l-.5527343.896484c.4930523.548608 1.0896312.986113 1.7910156 1.3125.7083286.319442 1.4839466.478516 2.3242186.478516.69444 0 1.311853-.109811 1.853516-.332032.541663-.22222.997181-.529082 1.365234-.917968.374998-.388887.659072-.842452.853516-1.363282.194443-.527774.291015-1.095055.291015-1.699218 0-.562497-.088977-1.036895-.269531-1.425782-.041683-.093369-.097996-.171648-.146484-.257812z" fill="#3a3a38" stroke-width="1.004564"/><path d="m5 11h14v1h-14z" fill="#1e8bcd" stroke-width=".935414"/></svg>