<svg viewBox="0 0 24 24" xmlns="http://www.w3.org/2000/svg"><path d="m3 2a1.0001 1.0001 0 0 0 -1 1v16a1.0001 1.0001 0 0 0 .2929688.707031l2 2a1.0001 1.0001 0 0 0 .7070312.292969h2.4589844l.4023437-1.638672.1835938-.570312c.005482-.018.0110581-.034995.0175781-.052735.0376474-.102442.0878273-.202515.1601562-.291015.021527-.02587.0443424-.050639.0683594-.074219l.7070313-.707031.7128906-.707032 8.8027345-8.7832028 1.673828-1.6679687c.33553-.3351212.789822-.5117187 1.232422-.5117187.195235-.0000001.391501.0387205.580078.1054687v-4.1015625a1.0001 1.0001 0 0 0 -1-1zm19 12.191406-7.789062 7.808594h6.789062a1.0001 1.0001 0 0 0 1-1z" fill="#3a3a38"/><path d="m3 3v16l2 2h1v-7h7.679688l4.007812-4h-12.6875v-7zm16 0v5.6914062l1.1875-1.1835937c.228846-.2285672.514552-.3758242.8125-.4511719v-4.0566406zm2 12.193359-3 3.007813v2.798828h3z" fill="#797774"/><path d="m6 3v6h12v-6zm1 12v6h.7050781l.15625-.638672.1835938-.570312c.005482-.018.0110581-.034995.0175781-.052735.0376474-.102442.0878273-.202515.1601562-.291015.021527-.02587.0443424-.050639.0683594-.074219l.7070313-.707031.0019531-.001954v-2.664062h2v.671875l1.675781-1.671875zm10 4.203125-1.791016 1.796875h1.791016z" fill="#fafafa"/><g fill="#fb983b" transform="translate(0 -4)"><path d="m20.419922 11c-.189562 0-.378184.07172-.523438.216797l-1.673828 1.669922 2.847656 2.849609 1.710938-1.638672c.290506-.290127.290506-.756747 0-1.046875l-1.835938-1.833984c-.145254-.145064-.335828-.216797-.52539-.216797zm0 .990234 1.582031 1.580078-.917969.88086-1.5625-1.5625z" fill="#0063b1" transform="translate(1 1)"/><path d="m21.419922 12.990234-.898438.898438 1.5625 1.5625.917969-.88086z" fill="#83beec"/><g transform="translate(1 1)"><path d="m8.708984 22.376953-.002-.002-.706984.707078.002.002-.05078.05078-.95122 3.865189 3.806641-1.011719 10.24414-10.271484-2.828125-2.830078zm9.511719-8.191406 1.53125 1.533203-8.841797 8.861328-1.550781-1.552734zm-9.509765 9.708984 1.34375 1.341797-1.791016.476563z" fill="#0063b1"/><path d="m18.220703 14.185547 1.53125 1.533203-8.841797 8.861328-1.550781-1.552734zm-9.509765 9.708984 1.34375 1.341797-1.791016.476563z" fill="#83beec"/></g></g></svg>