<svg viewBox="0 0 24 24" xmlns="http://www.w3.org/2000/svg"><g stroke-linecap="round" stroke-linejoin="round"><path d="m2.5 2.5h19v19h-19z" fill="#fafafa" stroke="#3a3a38"/><g fill="#797774" stroke="#797774"><path d="m2.5 5.5h19zm0 4h19zm0 4h19zm0 4h19z"/><path d="m8.5 2.5v19zm7 0v19z"/></g><path d="m2.5 2.5h19v19h-19z" fill="none" stroke="#3a3a38"/><path d="m21.5 5.5v-3h-19v3z" fill="#83beec" stroke="#0063b1"/><path d="m18 13.5a4.5 4.5 0 0 0 -4.5 4.5 4.5 4.5 0 0 0 4.5 4.5 4.5 4.5 0 0 0 4.5-4.5 4.5 4.5 0 0 0 -4.5-4.5z" fill="#fff" stroke="#fff" stroke-width="3"/><path d="m17.4 13.5-.4 2.1-1.76-1.2-.84.84 1.2 1.76-2.1.4v1.2l2.1.4-1.2 1.76.84.84 1.76-1.2.4 2.1h1.2l.4-2.1 1.76 1.2.84-.84-1.2-1.76 2.1-.4v-1.2l-2.1-.4 1.2-1.76-.84-.84-1.76 1.2-.4-2.1zm.6 3a1.5 1.5 0 0 1 1.5 1.5 1.5 1.5 0 0 1 -1.5 1.5 1.5 1.5 0 0 1 -1.5-1.5 1.5 1.5 0 0 1 1.5-1.5z" fill="none" stroke="#1e8bcd"/></g></svg>