<svg viewBox="0 0 32 32" fill="none" xmlns="http://www.w3.org/2000/svg">
<rect width="32" height="32" fill="#FAFAFA"/>
<path d="M1.50001 3C1.50001 3 1.5 3.5798 1.5 4.3V27.7C1.5 28.4202 2.14657 29 2.94971 29H29.0445C29.8476 29 30.4942 28.4202 30.4942 27.7V4.3C30.4942 3.5798 30.4942 3 30.4942 3H1.50001ZM2.94971 4.3H29.0445V27.7C20.3462 27.7 11.648 27.7 2.94971 27.7C2.94971 19.9 2.94971 12.1 2.94971 4.3Z" fill="black"/>
<path d="M1.5 3C1.5 3 1.5 3.5798 1.5 4.3V27.7C1.5 27.7 2.69646 27.7 3.4996 27.7H29.3069C30.1101 27.7 30.5567 27.7 30.4942 27.7V4.3C30.4942 3.5798 30.4942 3 30.4942 3H1.5ZM1.5 4.3H30.4942V27.7C21.7959 27.7 10.1983 27.7 1.5 27.7C1.5 19.9 1.5 12.1 1.5 4.3Z" fill="black"/>
<rect x="1.5" y="12.7" width="28.9942" height="15" fill="white"/>
<path d="M9.55395 9H1.5V13.75H11.1647V18.5H1.5V23.25H9.95665H11.1647H20.8295H22.0376H30.4942V18.5H21.9959L22.0376 13.75H30.4942V9H22.4403H11.1647H9.55395ZM11.1647 13.75H22.0376L21.9959 18.5H11.1647V13.75Z" fill="#C8C8C8"/>
<rect x="1.5" y="4.20001" width="28.9942" height="3.6" fill="#C45CCE"/>
<line x1="1.5" y1="8.35" x2="30.4942" y2="8.35" stroke="black" stroke-width="1.3"/>
</svg>
