<svg viewBox="0 0 32 32" fill="none" xmlns="http://www.w3.org/2000/svg">
<rect width="32" height="32" fill="#FAFAFA"/>
<path d="M2.94995 4.29999H29.05V27.7H2.94995V4.29999Z" fill="white"/>
<path d="M29.8496 3.65039V7.5498H2.15039V3.65039H29.8496Z" stroke="#98431F" stroke-width="1.3"/>
<line x1="1.5" y1="7.20001" x2="30.4275" y2="7.20001" stroke="#98431F"/>
<path d="M2.5 8H29.5V13H2.5V8Z" fill="#FFC6A7"/>
<path d="M2.5 18H29.5V23H2.5V18Z" fill="#FFC6A7"/>
<path d="M10.2 4.29999V12.1H2.94995V13.4H10.2V17.3H2.94995V18.6H10.2V22.5H2.94995V23.8H10.2V27.7H11.65V23.8H20.35V27.7H21.8V23.8H29.05V22.5H21.8V18.6H29.05V17.3H21.8V13.4H29.05V12.1H21.8V4.29999H20.35V12.1H11.65V4.29999H10.2ZM11.65 13.4H20.35V17.3H11.65V13.4ZM11.65 18.6H20.35V22.5H11.65V18.6Z" fill="#98431F"/>
<path d="M2.95 3C2.1467 3 1.5 3.5798 1.5 4.3V27.7C1.5 28.4202 2.1467 29 2.95 29H29.05C29.8533 29 30.5 28.4202 30.5 27.7V4.3C30.5 3.5798 29.8533 3 29.05 3H2.95ZM2.95 4.3H10.2H11.65H20.35H21.8H29.05V12.1V13.4V17.3V18.6V22.5V23.8V27.7H21.8H20.35H11.65H10.2H2.95V23.8V22.5V18.6V17.3V13.4V12.1V4.3Z" fill="#98431F"/>
</svg>
