<svg viewBox="0 0 32 32" fill="none" xmlns="http://www.w3.org/2000/svg">
<rect width="32" height="32" fill="#FAFAFA"/>
<path d="M2.94995 4.29999H29.05V27.7H2.94995V4.29999Z" fill="white"/>
<path d="M1.5 3H30.5V8.2H1.5V3Z" fill="#E67444"/>
<path d="M2.94995 4.29999H29.05V6.89999H2.94995V4.29999Z" fill="#98431F"/>
<rect x="2.5" y="18" width="27" height="5" fill="#FFC6A7"/>
<rect x="2.5" y="8" width="27" height="5" fill="#FFC6A7"/>
<path d="M11.65 4.5V8.19999V12.1H2.94995V13.4H11.65V17.3H2.94995V18.6H11.65V22.5H2.94995V23.8H10.2H21.8H29.05V22.5H21.8V18.6H29.05V17.3H21.8V13.4H29.05V12.1H21.8H11.65V4.29999V4.5ZM11.65 13.4H21.8V17.3H11.65V13.4ZM11.65 18.6H21.8V22.5H11.65V18.6Z" fill="#E67444"/>
<path d="M2.95 3C2.1467 3 1.5 3.5798 1.5 4.3V27.7C1.5 28.4202 2.1467 29 2.95 29H29.05C29.8533 29 30.5 28.4202 30.5 27.7V4.3C30.5 3.5798 29.8533 3 29.05 3H2.95ZM2.95 4.3H10.2H11.65H20.35H21.8H29.05V12.1V13.4V17.3V18.6V22.5V23.8V27.7H21.8H20.35H11.65H10.2H2.95V23.8V22.5V18.6V17.3V13.4V12.1V4.3Z" fill="#E67444"/>
</svg>
