<svg viewBox="0 0 32 32" fill="none" xmlns="http://www.w3.org/2000/svg">
<rect width="32" height="32" fill="#FAFAFA"/>
<path d="M2.92542 3C2.13574 3 1.5 3.55833 1.5 4.25185V26.7852C1.5 27.4787 2.13574 28.037 2.92542 28.037H28.5831C29.3727 28.037 30.0085 27.4787 30.0085 26.7852V4.25185C30.0085 3.55833 29.3727 3 28.5831 3H2.92542ZM2.92542 4.25185H10.0525H11.478H20.0305H21.4559H28.5831V11.763V13.0148V16.7704V18.0222V21.7778V23.0296V26.7852H21.4559H20.0305H11.478H10.0525H2.92542V23.0296V21.7778V18.0222V16.7704V13.0148V11.763V4.25185Z" fill="white"/>
<path d="M1.5 3H30.5V29H1.5V3Z" fill="#F1B7FF"/>
<path d="M1.5 7.33331H30.5V12.1481H1.5V7.33331Z" fill="#D96EF3"/>
<path d="M1.5 18.4074H30.5V23.2222H1.5V18.4074Z" fill="#D96EF3"/>
<path d="M1.5 5.88892H30.5V3.00003H1.5V5.88892Z" fill="#7B398C"/>
<line x1="1.5" y1="6.58331" x2="30.5" y2="6.58331" stroke="white" stroke-width="1.5"/>
<path d="M9.55556 3V11.6667H1.5V13.1111H9.55556V17.4444H1.5V18.8889H9.55556V23.2222H1.5V24.6667H9.55556V29H11.1667V24.6667H20.8333V29H22.4444V24.6667H30.5V23.2222H22.4444V18.8889H30.5V17.4444H22.4444V13.1111H30.5V11.6667H22.4444V3H20.8333V11.6667H11.1667V3H9.55556ZM11.1667 13.1111H20.8333V17.4444H11.1667V13.1111ZM11.1667 18.8889H20.8333V23.2222H11.1667V18.8889Z" fill="white"/>
</svg>
