<svg viewBox="0 0 32 32" fill="none" xmlns="http://www.w3.org/2000/svg">
<rect width="32" height="32" fill="#FAFAFA"/>
<path d="M1.50001 3C1.50001 3 1.5 3.5798 1.5 4.3V27.7C1.5 28.4202 2.1467 29 2.95 29H29.05C29.8533 29 30.5 28.4202 30.5 27.7V4.3C30.5 3.5798 30.5 3 30.5 3H1.50001ZM2.95 4.3H29.05V27.7C20.35 27.7 11.65 27.7 2.95 27.7C2.95 19.9 2.95 12.1 2.95 4.3Z" fill="#FAFAFA"/>
<path d="M1.5 3C1.5 3 1.5 3.5798 1.5 4.3V27.7C1.5 28.4202 2.1467 29 2.95 29H29.05C29.8533 29 30.5 28.4202 30.5 27.7V4.3C30.5 3.5798 30.5 3 30.5 3H1.5ZM1.5 4.3H30.5V27.7C21.8 27.7 10.2 27.7 1.5 27.7C1.5 19.9 1.5 12.1 1.5 4.3Z" fill="#8C5639"/>
<path d="M30.5 12.7H1.5V27.7H30.5V12.7Z" fill="white"/>
<path d="M9.5556 9H1.5V13.75H11.1667V18.5H1.5V23.25H9.9583H11.1667H20.8333H22.0417H30.5V18.5H22L22.0417 13.75H30.5V9H22.4444H11.1667H9.5556ZM11.1667 13.75H22.0417L22 18.5H11.1667V13.75Z" fill="#FFC6A7"/>
<path d="M30.5 4H1.5V8H30.5V4Z" fill="white"/>
<path d="M1.5 8.34998H30.5" stroke="#8C5639" stroke-width="1.3"/>
</svg>
