<svg width="24" height="24" xmlns="http://www.w3.org/2000/svg">

 <g>
  <title>Layer 1</title>
  <ellipse stroke="#000" ry="11.4433" rx="11.4433" id="svg_2" cy="12" cx="12" fill="#3a3a38"/>
  <ellipse stroke="#ffffff" ry="7.00187" rx="6.95488" id="svg_11" cy="12.26504" cx="11.65414" fill="#ffffff"/>
  <ellipse transform="rotate(-34.0935 14.3025 10.5943)" stroke="#3a3a38" ry="6.3188" rx="3.98099" id="svg_15" cy="10.59433" cx="14.30247" fill="#3a3a38"/>
  <path stroke="#ffffff" id="svg_17" d="m17.20612,7.86394l0.53324,0l0.16477,-0.54068l0.16478,0.54068l0.53322,0l-0.43139,0.33415l0.16479,0.54067l-0.4314,-0.33416l-0.4314,0.33416l0.16479,-0.54067l-0.4314,-0.33415z" fill="#ffffff"/>
  <path stroke="#ffffff" id="svg_19" d="m12.60086,5.51432l0.53324,0l0.16477,-0.54068l0.16478,0.54068l0.53323,0l-0.4314,0.33415l0.16479,0.54067l-0.4314,-0.33416l-0.4314,0.33416l0.1648,-0.54067l-0.43141,-0.33415z" fill="#ffffff"/>
  <path stroke="#ffffff" id="svg_20" d="m17.86401,13.1271l0.53324,0l0.16477,-0.54068l0.16478,0.54068l0.53323,0l-0.4314,0.33415l0.16479,0.54067l-0.4314,-0.33416l-0.4314,0.33416l0.1648,-0.54067l-0.43141,-0.33415z" fill="#ffffff"/>
 </g>
</svg>
