<svg viewBox="0 0 24 24" xmlns="http://www.w3.org/2000/svg"><path style="display:inline;fill:#4e83b9;fill-opacity:1" d="M2.5 2.5v14h19v-14z"/><path style="fill:none;stroke:#fafafa;stroke-opacity:1" d="M6.5 6v2.5c.956 1.76 3.845 4.007 5.5 5M9 5V4m2.5 2v2.5c-.956 1.76-4.345 4.007-6 5M4 5.5h10"/><path style="color:#000;display:inline;fill:#3a3a38;stroke-linecap:round;stroke-linejoin:round;-inkscape-stroke:none" d="M2.5 2a.5.5 0 0 0-.5.5v14a.5.5 0 0 0 .5.5h19a.5.5 0 0 0 .5-.5v-14a.5.5 0 0 0-.5-.5ZM3 3h18v13H3V3z"/><path d="M21.5 2.5v14h-4v5l-5.5-5H6.5l9.5-14Z" fill="#fafafa" stroke="#3a3a38" stroke-linecap="round" stroke-linejoin="round"/><path d="M19.992 15.047h-.862q-.147 0-.239-.073-.086-.073-.135-.183l-.685-1.934h-3.315l-.68 1.927q-.036.104-.14.184-.098.08-.239.08h-.862l3.016-8.039h1.131zm-4.955-2.985h2.753l-1.138-3.236q-.061-.147-.122-.343-.061-.195-.117-.422-.06.233-.122.429-.061.195-.116.342z" fill="#3a3a38"/></svg>