<svg viewBox="0 0 24 24" xmlns="http://www.w3.org/2000/svg"><path d="m3 2c-.5522619.0000552-.9999448.4477381-1 1v13c.0000552.552262.4477381.999945 1 1h3v3.5 1.146484c0 .253107.3222577.353516.5.353516.3399592 0 .6202669-.230195 1.1699219-.755859l3.4687501-3.123047c-.084157-.362091-.138672-.734383-.138672-1.121094 0-.360311.133683-.678351.207031-1.017578-.607844.581165-1.150278 1.23346-1.5234372 2.021484a1.0001 1.0001 0 0 1 -1.5175782.363282c-.4483351-.347516-.7934119-.821048-.9863281-1.365235a1.0001 1.0001 0 0 1 .0664063-.814453c1.7534129-3.19305 5.1091382-5.182725 8.7519532-5.1875a1.0001 1.0001 0 0 0 .001953 0c2.203589.000635 4.29642.737027 6 2.017578v-10.017578c-.000055-.5522619-.447738-.9999448-1-1zm17.810547 13.996094c.069707.33391.190214.651026.189453 1.003906.208364-.000021.390615-.078464.550781-.1875-.230859-.287256-.476016-.561464-.740234-.816406z" fill="#3a3a38"/><path d="m3 3v13h4v4.5l2.2929688-2.064453a1.0001 1.0001 0 0 1 -1.1269532-.068359c-.4483351-.347516-.7934119-.821048-.9863281-1.365235a1.0001 1.0001 0 0 1 .0664063-.814453c1.7534129-3.19305 5.1091382-5.182725 8.7519532-5.1875a1.0001 1.0001 0 0 0 .001953 0c1.788448.000515 3.504781.48463 5 1.349609v-9.349609zm8.207031 12.982422c-.607844.581165-1.150278 1.23346-1.5234372 2.021484a1.0001 1.0001 0 0 1 -.1171876.185547l1.4511718-1.304687c.024328-.312501.124277-.600909.189453-.902344zm9.603516.013672c.000259.001243-.000261.002663 0 .003906h.003906c-.001322-.001277-.002583-.00263-.003906-.003906z" fill="#fafafa"/><path d="m15.999953 12c-3.280109.0043-6.298117 1.792832-7.876953 4.667969.128945.363734.357439.676587.65625.908203 1.321789-2.791309 4.132254-4.572462 7.220703-4.576172-2.209139 0-4 1.790861-4 4s1.790861 4 4 4 4-1.790861 4-4c.008-2.079511-1.578821-3.81826-3.650391-4 2.961312.134551 5.605464 1.895565 6.871094 4.576172.301515-.233711.531909-.55005.660156-.917969-1.582074-2.87259-4.601418-4.657258-7.880859-4.658203zm0 2c1.656854 0 3 1.343146 3 3s-1.343146 3-3 3-3-1.343146-3-3 1.343146-3 3-3z" fill="#3a3a38"/><path d="m15.999953 15c-1.104569 0-2 .895431-2 2s.895431 2 2 2 2-.89543 2-2c.02896-.194894.02896-.392997 0-.587891-.174008.38903-.57545.625034-1 .587891-.552285 0-1-.447715-1-1-.03682-.425027.200049-.826612.589844-1-.195534-.02915-.39431-.02915-.589844 0z" fill="#1e8bcd"/></svg>