<svg viewBox="0 0 24 24" xmlns="http://www.w3.org/2000/svg"><path d="m7.5 8.5h9v8h-9z" fill="#83beec" stroke="#0063b1" stroke-linecap="round" stroke-linejoin="round"/><path d="m2.5 3c-.277 0-.5.223-.5.5s.223.5.5.5h19c.277 0 .5-.223.5-.5s-.223-.5-.5-.5zm0 3c-.277 0-.5.223-.5.5s.223.5.5.5h19c.277 0 .5-.223.5-.5s-.223-.5-.5-.5zm0 12c-.277 0-.5.223-.5.5s.223.5.5.5h19c.277 0 .5-.223.5-.5s-.223-.5-.5-.5zm0 3c-.277 0-.5.223-.5.5s.223.5.5.5h19c.277 0 .5-.223.5-.5s-.223-.5-.5-.5z" fill="#3a3a38" fill-opacity=".982993"/></svg>