<svg viewBox="0 0 24 24" fill="none" xmlns="http://www.w3.org/2000/svg">
<path d="M21.2711 5.0004C21.0932 5.0056 20.9004 5.09729 20.7496 5.19181C16.6128 7.77729 15.9996 9.0004 13.4996 12.5004C13.377 12.6478 13.3071 12.8254 13.2828 13.0102C13.5273 13.0023 13.778 13.0007 14.0113 13.0121C14.1178 13.0344 14.2072 13.0674 14.3023 13.0961C14.3059 13.0913 14.3105 13.0873 14.314 13.0824C16.7731 9.63968 17.3699 8.62556 20.9996 6.27384V8.51603V8.51798C19.9772 10.0349 19.5 10 19.1441 10.6254C18.6726 11.3789 18.0426 12.1451 16.2925 13.6703L16.2906 13.6723C15.7892 13.6968 15.5182 13.6986 15.3023 13.6781C15.4082 13.7836 15.5122 13.8987 15.6148 14.0336C15.6959 14.2186 15.7898 14.4397 15.8668 14.6781C16.0184 14.6766 16.1521 14.6795 16.3394 14.6703C16.5645 14.6592 16.7792 14.5725 16.9488 14.4242C20.5234 11.3089 19.8617 11.9939 21.8297 9.07462C21.9406 8.90946 21.9997 8.71498 21.9996 8.51603V6.01603C21.9994 5.45226 21.8346 4.98428 21.2711 5.0004Z" fill="#3A3A38"/>
<path d="M13.2301 13.0102C12.9689 13.0199 12.7157 13.0391 12.4996 13.0571C10.4429 13.5512 10.7625 14.3941 9.21835 16.3793C8.7019 17.0445 9.15749 18.0069 9.9996 18.0082C12.7112 17.8349 13.7397 18.5371 15.5777 16.7738C15.6494 16.7025 15.7099 16.6209 15.7574 16.5317C15.9205 16.18 16.0193 15.849 16.0172 15.5199C16.0135 14.9517 15.7849 14.4214 15.6148 14.0336C15.1732 13.4529 14.7348 13.1631 14.0113 13.0121C13.7612 12.9998 13.4913 13.0005 13.2301 13.0102ZM13.2437 13.9887C13.4546 13.9903 13.675 14.0102 13.9098 14.0414C14.5555 14.2675 14.9489 14.7042 14.9937 15.5492C14.9942 15.6233 14.9776 15.7266 14.9449 15.8461L11.8668 14.4281L11.8512 14.4223C12.3036 14.0961 12.7473 13.985 13.2437 13.9887ZM11.1851 15.2153L14.2066 16.6059C13.8039 16.8758 13.4766 16.963 13.0367 16.9985C12.1325 16.9893 10.6178 16.9897 10.0016 16.9887C10.6053 16.2125 10.9291 15.651 11.1851 15.2153Z" fill="#0063B1"/>
<path d="M11.1851 15.2152C10.9291 15.651 10.6053 16.2125 10.0015 16.9887C10.6177 16.9897 12.1325 16.9893 13.0367 16.9985C13.4766 16.963 13.8038 16.8759 14.2066 16.6059L11.1851 15.2152Z" fill="#83BEEC"/>
<path d="M19.2051 5C18.1298 5.71615 17.304 6.35112 16.6016 7H5V16H8.27148C7.94715 16.5596 7.9286 17.2014 8.14355 17.748L8.25586 17.9854C8.25857 17.9903 8.26189 17.9951 8.26465 18H3.5L3.39941 17.9902C3.17145 17.9437 3 17.7417 3 17.5V5.5C3 5.22386 3.22386 5 3.5 5H19.2051Z" fill="#3A3A38"/>
</svg>
