<svg height="24" viewBox="0 0 6.3499998 6.3500002" width="24" xmlns="http://www.w3.org/2000/svg"><g transform="translate(0 -292.76665)"><g fill="#18ab50" stroke-width=".264583"><path d="m2.6458333 293.29582a2.1166666 2.1166666 0 0 0 -2.09857988 1.85208h.26665039a1.8520833 1.8520833 0 0 1 1.83192949-1.5875 1.8520833 1.8520833 0 0 1 1.6712159 1.05833h.2873209a2.1166666 2.1166666 0 0 0 -1.9585368-1.32291zm1.8329631 2.38125a1.8520833 1.8520833 0 0 1 -1.8329631 1.5875 1.8520833 1.8520833 0 0 1 -1.67121579-1.05834h-.28732096a2.1166666 2.1166666 0 0 0 1.95853675 1.32292 2.1166666 2.1166666 0 0 0 2.1001302-1.85208z"/><rect height=".264583" ry=".132277" width="1.058333" x="3.704167" y="294.61874"/><rect height="1.058333" ry=".132277" width=".264583" x="4.497917" y="293.82498"/><rect height="1.058333" ry=".132277" width=".264583" x=".529167" y="295.94165"/><rect height=".264583" ry=".132277" width="1.058333" x=".529167" y="295.94165"/></g><path d="m3.7041667 295.67707v.52917l1.5875-.00001-1.5875 1.5875v1.05834h2.38125v-.52917h-1.5875l1.5875-1.5875v-1.05833z" fill="#991c00"/></g></svg>