<svg version="1.1" viewBox="0 0 24 24" xmlns="http://www.w3.org/2000/svg"><rect x=".5" y="2.7504" width="23" height="19" fill="#0063b1" stroke-linecap="round" stroke-width="4" style="paint-order:markers fill stroke"/><rect x="1.5" y="3.7504" width="21" height="16" fill="#83beec" stroke-linecap="round" stroke-width="4" style="paint-order:markers fill stroke"/><path d="m3.5 2.75h4.6191c1.9894 6.17e-4 3.6561 1.5054 3.8594 3.4844 8e-3 0.00504 0.013484 0.010625 0.021484 0.015625 8e-3 -5e-3 0.013524-0.010585 0.021484-0.015625 0.10163-0.98948 0.569-1.8607 1.2598-2.4844 0.69077-0.62365 1.6049-0.99969 2.5996-1h4.6191v15h-4.6191c-0.88472 2.74e-4 -1.7046 0.30002-2.3613 0.80469-0.0018 0.0014-4e-3 0.0025-0.0059 0.0039-0.10079 0.07774-0.1964 0.16088-0.28906 0.24805-0.08809 0.08287-0.17185 0.1709-0.25195 0.26172-0.01531 0.01733-0.02991 0.03513-0.04492 0.05273-0.06504 0.07643-0.12842 0.15487-0.1875 0.23633-0.01872 0.02577-0.03658 0.05187-0.05469 0.07813-0.05327 0.07738-0.1027 0.15689-0.15039 0.23828-0.01612 0.02747-0.03336 0.05412-0.04883 0.08203-0.04302 0.07778-0.08139 0.15726-0.11914 0.23828-0.01971 0.04217-0.04037 0.08395-0.05859 0.12695-0.02831 0.06703-0.05351 0.13612-0.07813 0.20508-0.01833 0.05119-0.0365 0.10209-0.05274 0.1543-0.02349 0.07575-0.04356 0.15271-0.0625 0.23047-0.01133 0.04639-0.0255 0.09161-0.03516 0.13867-0.0258 0.12606-0.04519 0.25429-0.05859 0.38477-0.00795 0.005107-0.013434 0.010632-0.021434 0.015632-8e-3 -5e-3 -0.01352-0.01056-0.02148-0.01563-0.0134-0.13048-0.0328-0.25871-0.05859-0.38477-0.0097-0.04706-0.02383-0.09229-0.03516-0.13867-0.01894-0.07775-0.03901-0.15472-0.0625-0.23047-0.01623-0.05221-0.0344-0.1031-0.05274-0.1543-0.02462-0.06896-0.04982-0.13805-0.07813-0.20508-0.01823-0.04301-0.03889-0.08479-0.05859-0.12695-0.03775-0.08102-0.07612-0.16051-0.11914-0.23828-0.01547-0.02791-0.0327-0.05456-0.04883-0.08203-0.04769-0.08139-0.09712-0.1609-0.15039-0.23828-0.0181-0.02625-0.03596-0.05235-0.05469-0.07813-0.05908-0.08146-0.12246-0.1599-0.1875-0.23633-0.01501-0.01761-0.02961-0.03541-0.04492-0.05273-0.0801-0.09082-0.16386-0.17884-0.25195-0.26172-0.09266-0.08717-0.18827-0.17031-0.28906-0.24805-0.0019-0.0014-4e-3 -0.0025-0.0059-0.0039-0.65671-0.50467-1.4766-0.80442-2.3613-0.80469h-4.6191v-8zm6.707 15.293c0.0375 0.03816 0.07087 0.07978 0.10156 0.12305-0.03103-0.04296-0.0636-0.08509-0.10156-0.12305zm3.5859 0c-0.0375 0.03816-0.07087 0.07978-0.10156 0.12305 0.03103-0.04296 0.0636-0.08509 0.10156-0.12305zm-3.4297 0.20898c0.0086 0.0153 0.01562 0.03114 0.02344 0.04687-0.0079-0.0156-0.01468-0.0317-0.02344-0.04687zm3.2734 0c-0.0086 0.0153-0.01562 0.03114-0.02344 0.04687 0.0079-0.0156 0.01468-0.0317 0.02344-0.04687z" fill="#fff" fill-rule="evenodd"/><path d="m11.5 4.7504h1v17h-1z" fill="#3a3a38" stroke-width="1.0607"/><path d="m2.5 1.75v17h0.58594l5.0312 2e-3h0.00586c0.98658 0.0019 1.8583 0.49376 2.377 1.2559 8.11e-4 0.0012 0.0011 0.0027 2e-3 0.0039 0.12702 0.18724 0.23147 0.39113 0.3125 0.60742 0.0015 0.0041 0.0043 0.0076 0.0059 0.01172 0.0028 0.0076 0.0031 0.01585 0.0059 0.02344 0.03243 0.0901 0.06044 0.18296 0.08398 0.27734 0.0061 0.02473 0.01404 0.04922 0.01953 0.07422 0.02389 0.10798 0.0431 0.21725 0.05469 0.33008 0.03085 0.30426 0.19923 0.57768 0.45703 0.74219-0.09337-0.05953-0.08529-0.05209 0.0293 0.01953 0.20246 0.12629 0.43813 0.17415 0.66602 0.14258 0.13673-0.01894 0.2711-0.06681 0.39258-0.14258 0.11459-0.07162 0.12267-0.07906 0.0293-0.01953 0.2578-0.1645 0.42618-0.43793 0.45703-0.74219 0.01159-0.11283 0.0308-0.22209 0.05469-0.33008 0.0055-0.025 0.01341-0.04949 0.01953-0.07422 0.02354-0.09438 0.05156-0.18725 0.08398-0.27734 0.0042-0.01165 0.0074-0.02358 0.01172-0.03516 0.08103-0.21629 0.18548-0.42018 0.3125-0.60742 8.12e-4 -0.0012 0.0011-0.0027 2e-3 -0.0039 0.51864-0.7621 1.3904-1.254 2.377-1.2559h0.0059l5.617-0.002201v-17h-5.6191c-0.10022 3.11e-5 -0.20039 0.00332-0.29883 0.00977-1.3781 0.090204-2.5736 0.79772-3.4082 1.8223-0.059615 0.073178-0.11798 0.1483-0.17383 0.2246-0.89362-1.2209-2.2774-2.0561-3.8809-2.0566zm1 1h4.6191c1.9894 6.17e-4 3.6561 1.5054 3.8594 3.4844 8e-3 0.00504 0.013484 0.010625 0.021484 0.015625 8e-3 -5e-3 0.013524-0.010585 0.021484-0.015625 0.10163-0.98948 0.569-1.8607 1.2598-2.4844 0.69077-0.62365 1.6049-0.99969 2.5996-1h4.6191v15h-4.6191c-0.88472 2.74e-4 -1.7046 0.30002-2.3613 0.80469-0.0018 0.0014-4e-3 0.0025-0.0059 0.0039-0.10079 0.07774-0.1964 0.16088-0.28906 0.24805-0.08809 0.08287-0.17185 0.1709-0.25195 0.26172-0.01531 0.01733-0.02991 0.03513-0.04492 0.05273-0.06504 0.07643-0.12842 0.15487-0.1875 0.23633-0.01872 0.02577-0.03658 0.05187-0.05469 0.07813-0.05327 0.07738-0.1027 0.15689-0.15039 0.23828-0.01612 0.02747-0.03336 0.05412-0.04883 0.08203-0.04302 0.07778-0.08139 0.15726-0.11914 0.23828-0.01971 0.04217-0.04037 0.08395-0.05859 0.12695-0.02831 0.06703-0.05351 0.13612-0.07813 0.20508-0.01833 0.05119-0.0365 0.10209-0.05274 0.1543-0.02349 0.07575-0.04356 0.15271-0.0625 0.23047-0.01133 0.04639-0.0255 0.09161-0.03516 0.13867-0.0258 0.12606-0.04519 0.25429-0.05859 0.38477-0.00795 0.005107-0.013434 0.010632-0.021434 0.015632-8e-3 -5e-3 -0.01352-0.01056-0.02148-0.01563-0.0134-0.13048-0.0328-0.25871-0.05859-0.38477-0.0097-0.04706-0.02383-0.09229-0.03516-0.13867-0.01894-0.07775-0.03901-0.15472-0.0625-0.23047-0.01623-0.05221-0.0344-0.1031-0.05274-0.1543-0.02462-0.06896-0.04982-0.13805-0.07813-0.20508-0.01823-0.04301-0.03889-0.08479-0.05859-0.12695-0.03775-0.08102-0.07612-0.16051-0.11914-0.23828-0.01547-0.02791-0.0327-0.05456-0.04883-0.08203-0.04769-0.08139-0.09712-0.1609-0.15039-0.23828-0.0181-0.02625-0.03596-0.05235-0.05469-0.07813-0.05908-0.08146-0.12246-0.1599-0.1875-0.23633-0.01501-0.01761-0.02961-0.03541-0.04492-0.05273-0.0801-0.09082-0.16386-0.17884-0.25195-0.26172-0.09266-0.08717-0.18827-0.17031-0.28906-0.24805-0.0019-0.0014-4e-3 -0.0025-0.0059-0.0039-0.65671-0.50467-1.4766-0.80442-2.3613-0.80469h-4.6191v-8zm6.707 15.293c0.0375 0.03816 0.07087 0.07978 0.10156 0.12305-0.03103-0.04296-0.0636-0.08509-0.10156-0.12305zm3.5859 0c-0.0375 0.03816-0.07087 0.07978-0.10156 0.12305 0.03103-0.04296 0.0636-0.08509 0.10156-0.12305zm-3.4297 0.20898c0.0086 0.0153 0.01562 0.03114 0.02344 0.04687-0.0079-0.0156-0.01468-0.0317-0.02344-0.04687zm3.2734 0c-0.0086 0.0153-0.01562 0.03114-0.02344 0.04687 0.0079-0.0156 0.01468-0.0317 0.02344-0.04687z" fill="#3a3a38" fill-rule="evenodd"/></svg>
