<svg height="24" viewBox="0 0 6.3499998 6.3500002" width="24" xmlns="http://www.w3.org/2000/svg"><g transform="translate(0 -292.76665)"><path d="m.79375 293.5604v4.7625h2.6458333v-.52968a.26527915.26527915 0 0 1 .0780314-.18759l.980302-.9803v-.15245h-.7927165a.26527915.26527915 0 0 1 -.2656169-.26561v-.52969a.26527915.26527915 0 0 1 .2656169-.26561h.7927165v-.79324l-1.0583334-1.05833z" fill="#fafafa" stroke-width=".264583"/><path d="m.79375 293.29582c-.14657905 0-.26458333.118-.26458333.26458v4.7625c0 .14658.11800428.26458.26458333.26458h2.6458333v-.26458h-2.6458333v-4.7625h2.38125v1.05833c0 .14658.1180043.26459.2645833.26459h1.0583334v.52865h.2645833v-.78238c0-.11925.0259389-.11256-.1601969-.28216l-.874882-.85679c-.1877284-.19496-.1878991-.19482-.2893881-.19482zm2.6458333.26458 1.0583334 1.05833h-1.0583334zm1.0583334 2.91248v.15245l.1524454-.15245z" fill="#3a3a38" stroke-width=".264583"/><path d="m3.7041667 295.67707v.52917l1.5875-.00001-1.5875 1.5875v1.05834h2.38125v-.52917h-1.5875l1.5875-1.5875v-1.05833z" fill="#991c00"/><path d="m1.8520833 295.1572c-.4499896.0638-.79375.4486-.79375.91674s.3437604.85346.79375.91726v-.2682c-.305765-.0598-.5291666-.32367-.5291666-.64958h-.0005168c.0004736-.32542.2242422-.5888.5296834-.64853zm1.0583334 0v.26769c.2891643.05679.5061818.2958.5291666.59634v-.34365a.26527915.26527915 0 0 1 .0676962-.17621c-.1436027-.18286-.3550062-.3099-.5968628-.34417zm-1.0583334.78445v.26458h1.0583334v-.26458zm1.5875.19275c-.026242.29672-.2420975.53231-.5286499.5886v.2682c.3177582-.04503.5823716-.25061.710551-.53227a.26527915.26527915 0 0 1 -.1819011-.25166z" fill="#1e8bcd" stroke-width=".264583"/></g></svg>