<svg height="24" viewBox="0 0 6.3499998 6.3500002" width="24" xmlns="http://www.w3.org/2000/svg"><g transform="translate(0 -292.76665)"><path d="m3.7041667 295.67707v.52917l1.5875-.00001-1.5875 1.5875v1.05834h2.38125v-.52917h-1.5875l1.5875-1.5875v-1.05833z" fill="#991c00"/><g stroke-width=".264583"><path d="m2.5068237 293.29839c-.070092.004-.1255738.0613-.1255738.13229v.52917c0 .0733.059002.13229.1322917.13229.073289 0 .1322917-.059.1322917-.13229v-.52917c0-.0733-.059002-.13229-.1322917-.13229-.00229 0-.00446-.00011-.00672 0zm-.9317261.108c-.017965.00055-.035893.006-.053744.016-.06348.0367-.098746.12741-.048576.18087l.396875.42271c.050163.0535.1173967.0848.1808675.0481.06348-.0367.098229-.12689.048059-.18035l-.396875-.42271c-.036054-.0385-.080698-.066-.1266073-.0646zm1.8706869 0c-.043807.001-.085919.0278-.1204061.0646l-.396875.42271c-.050169.0535-.015421.14375.048059.18035.063471.0367.1307048.005.1808676-.0481l.396875-.42271c.050169-.0535.014904-.14417-.048576-.18087-.019835-.0115-.040033-.0165-.059945-.016zm-.9389608 3.06443c-.070091.004-.1255737.0613-.1255737.13229v.52917c0 .0733.059002.13229.1322917.13229.00229 0 .00446.00011.00672 0 .070092-.004.1255737-.0613.1255737-.13229v-.52917c0-.0733-.059002-.13229-.1322916-.13229-.00229 0-.00446-.00012-.00672 0zm-.5162475.002c-.043854.001-.086436.0276-.1209229.0641l-.396875.42272c-.050169.0535-.014904.14416.048576.18086.019835.0115.040033.0165.059945.016.043807-.001.085919-.0278.1204061-.0646l.396875-.42272c.050169-.0535.015421-.14375-.048059-.18035-.019835-.0115-.040011-.0165-.059945-.016zm1.0397298 0c-.017983.00059-.035892.006-.053743.016-.06348.0367-.098229.12689-.048059.18035l.396875.42272c.036054.0385.080698.066.1266073.0646.017965-.00055.035893-.006.053744-.016.06348-.0367.098746-.1274.048576-.18086l-.3968763-.42267c-.036055-.0385-.081168-.0656-.127124-.0641z" fill="#ed8733"/><path d="m1.1797729 294.35415c-.3664475 0-.66145828.29501-.66145828.66146v.52917c0 .36644.29501078.66145.66145828.66145h.5291667c.3211669 0 .5871163-.22646.6480225-.52916h-.2754354c-.054506.15397-.1994863.26458-.3725871.26458h-.5291667c-.21986848 0-.39687495-.17701-.39687495-.39687v-.52917c0-.21987.17700647-.39688.39687495-.39688h.5291667c.1731008 0 .3180814.11062.3725871.26459h.2754354c-.060906-.3027-.3268556-.52917-.6480225-.52917zm2.1275188 0c-.3211668 0-.5871164.22647-.6480225.52917h.2754354c.0545059-.15397.1994862-.26459.3725871-.26459h.5291666c.2198685 0 .396875.17702.396875.39688v.39636h.2645834v-.39636c0-.36645-.2950108-.66146-.6614584-.66146zm-.6480225 1.32292c.0609059.3027.3268557.52916.6480225.52916h.1322916v-.26458h-.1322916c-.1731009 0-.3180815-.11061-.3725871-.26458z" fill="#3a3a38"/></g></g></svg>