<svg height="24" viewBox="0 0 6.3499998 6.3500002" width="24" xmlns="http://www.w3.org/2000/svg"><g transform="translate(0 -292.76665)"><g stroke-width=".264583"><path d="m.79375 294.35415v3.96875h2.6458333v-.52968a.26527757.26527757 0 0 1 .0780314-.18759l1.1327474-1.13275h-.9451619a.26527757.26527757 0 0 1 -.2656169-.26561v-.52969a.26527757.26527757 0 0 1 .2656169-.26561h1.8510498v-1.05782zm4.7625 3.28559-.4175456.41703h.4175456z" fill="#fafafa"/><path d="m.79375 293.29582c-.14657901 0-.26458333.118-.26458333.26458v4.7625c0 .14658.11800432.26458.26458333.26458h2.6458333v-.26458h-2.6458333v-3.96875h4.7625v1.05782h.2645833v-1.85157c0-.14658-.1180042-.26458-.2645833-.26458zm5.0270833 4.07985-.2645833.26407v.41703h.2645833z" fill="#3a3a38"/><path d="m1.7197917 295.67707c-.0732895 0-.1322917.059-.1322917.13229s.0590022.13229.1322917.13229h1.7197916v-.26407a.26527757.26527757 0 0 1 0-.00051z" fill="#3a3a38"/><path d="m2.5135416 295.41248c-.219188 0-.396875.17769-.396875.39688s.177687.39687.396875.39687c.2191879 0 .396875-.17768.396875-.39687s-.1776871-.39688-.396875-.39688z" fill="#1e8bcd"/><path d="m.79374999 293.5604h4.76249991v.52917h-4.76249991z" fill="#797774" fill-opacity=".992647"/></g><path d="m3.7041667 295.67707v.52917l1.5875-.00001-1.5875 1.5875v1.05834h2.38125v-.52917h-1.5875l1.5875-1.5875v-1.05833z" fill="#991c00"/><g fill="#3a3a38" transform="matrix(.26458333 0 0 .26458333 0 292.76665)"><path d="m6.5 15h7c.277 0 .5.223.5.5s-.223.5-.5.5h-7c-.277 0-.5-.223-.5-.5s.223-.5.5-.5z"/><path d="m15.490235 15c-.27202 0-.490235.218217-.490235.490235v.019531c0 .27202.218215.490234.490235.490234h.09375l1-1z" fill="#3a3a38"/><path d="m14.345703 14.007813c-.756383.076815-1.345703.715538-1.345703 1.492187 0 .828426.671574 1.5 1.5 1.5.028528 0 .057803-.000381.085938-.001953l1.412109-1.412109c.001572-.028135.001953-.05741.001953-.085938 0-.776649-.58932-1.415372-1.345703-1.492187zm.154297.992187c.276142 0 .5.223858.5.5s-.223858.5-.5.5-.5-.223858-.5-.5.223858-.5.5-.5z" fill="#1e8bcd"/></g></g></svg>