<svg viewBox="0 0 24 24" xmlns="http://www.w3.org/2000/svg"><g fill-rule="evenodd"><path d="m2 2v17l5.6171875.001953h.0058594c1.4831572.0028 2.7097341 1.108051 2.8613281 2.583985.03085.304259.199225.577682.457031.742187-.09337-.05953-.085293-.052089.029297.019531.323938.202061.734656.202061 1.058594 0 .115349-.07209.1247-.080181.029297-.019531.257806-.164505.426177-.437928.457031-.742187.050747-.494207.223329-.944536.484375-1.328126v-1.257812c.000013-.0663.006714-.131247.019531-.195312-.81955.630123-1.385224 1.581212-1.498047 2.679687-.00796.00506-.013484.010625-.021484.015625-.008-.005-.013524-.010575-.021484-.015625-.203259-1.97895-1.8700094-3.483758-3.8593754-3.484375h-4.6191406v-15h4.6191406c1.989366.000617 3.6561204 1.50542 3.8593754 3.484375.00796.00504.013484.010625.021484.015625.008-.005.013524-.010585.021484-.015625.203255-1.978953 1.870011-3.483758 3.859375-3.484375h4.619141v7h1v-8h-1-4.619141c-1.603458.0004973-2.987237.8357775-3.880859 2.0566406-.893622-1.2208631-2.2773998-2.0561433-3.8808594-2.0566406zm11.292969 16.292969c-.037501.038158-.070869.079776-.101563.123047.031035-.042964.063604-.085094.101563-.123047zm7.707031.121093-.585938.585938h.585938zm-7.863281.087891c-.008636.015297-.015619.031145-.023438.046875.007936-.015596.014683-.031697.023438-.046875z" fill="#3a3a38"/><g fill="#fafafa"><path d="m15.380859 3c-1.989368.000617-3.65612 1.505418-3.859375 3.484375-.00796.00504-.013484.010625-.021484.015625v.5 2 12.5c.008-.005.01352-.01057.02148-.01563.113123-1.101397.680822-2.055464 1.503907-2.685547.03802-.191083.131016-.366902.267578-.505859l4.292973-4.292964h-3.585938c-.552262-.000055-.999945-.447738-1-1v-2c.000055-.552262.447738-.999945 1-1h6v-7z"/><path d="m7.619141 3c1.98937.000617 3.65612 1.505416 3.859375 3.484375.00796.00504.013484.010625.021484.015625v.5 2 12.5c-.008-.005-.01352-.01058-.02148-.01563-.203259-1.978954-1.870009-3.483753-3.859379-3.48437h-4.619141v-15h4.61914z"/></g></g><path d="m11 5h1v17h-1z" fill="#3a3a38" stroke-width="1.06066"/><path d="m14 11.000047v2.000012l6-.000037-6 6v4.000025h9v-2.000013h-6l6-6v-3.999987z" fill="#991c00"/><path d="m0 3v19h10.623047c-.075037-.124767-.123609-.265504-.138672-.414062-.151594-1.475933-1.3781724-2.581185-2.8613281-2.583985h-.00586l-5.6171869-.001953v-16zm10.476562 0c.387171.3008931.731477.6577645 1.023438 1.0566406.291961-.3988761.636267-.7557475 1.023438-1.0566406zm10.523438 0v7h2v-7zm-7 7c-.06903.000007-.136077.0062-.201172.01953-.06089.01247-.119421.03165-.175781.05469a1.0001 1.0001 0 0 1 .376953-.07422zm-.390625.08008c-.118858.05068-.226292.122776-.316406.212891a1.0001 1.0001 0 0 1 .316406-.212891zm-.316406.212891c-.09011.09011-.162211.197548-.212891.316406a1.0001 1.0001 0 0 1 .212891-.316406zm-.21875.330078c-.02303.05636-.04222.114888-.05469.175781-.013323.065093-.019522.132137-.019529.20117a1.0001 1.0001 0 0 1 .07422-.376953zm-.074219 2.376951c.000007.06903.0062.136077.01953.201172.01247.06089.03165.119421.05469.175781a1.0001 1.0001 0 0 1 -.07422-.376953zm.08008.390625c.05068.118858.122776.226292.212891.316406a1.0001 1.0001 0 0 1 -.212891-.316406zm.212891.316406c.09011.09011.197548.162211.316406.212891a1.0001 1.0001 0 0 1 -.316406-.212891zm.330078.21875c.05636.02303.114888.04222.175781.05469.065093.013323.132137.019522.20117.019529a1.0001 1.0001 0 0 1 -.376953-.07422zm9.376951 2.488281-2 2v.585938h-.585938l-1 1h3.585938zm-9.707031 1.878907c-.03796.03795-.07053.08008-.101563.123047-.0199.02805-.03782.05605-.05469.08594-.0088.01518-.0155.03128-.02344.04687-.0063.01274-.01144.02614-.01758.03906a1.0001 1.0001 0 0 1 .197266-.294922zm-.222657.351562c-.0018.0046-.0042.009-.0059.01367-.0162.04553-.02956.09285-.03906.140625-.0018.0014-.004.0025-.0059.0039v.002c-.012738.064026-.019439.128974-.019452.195274a1.0001 1.0001 0 0 1 .07031-.355469zm-.070312 1.613281c-.261046.38359-.433628.833919-.484375 1.328126-.015065.148558-.063636.289295-.138672.414062h.623047z" fill="#0063b1"/><path d="m1 4v16h8.8007812c-.5282464-.612586-1.3077594-.996404-2.1777343-.998047h-.00586l-5.6171869-.001953v-15zm10.457031 0c.014219.018909.028989.0375412.042969.0566406.01398-.0190994.02875-.0377316.042969-.0566406zm9.542969 0v6h1v-6zm-7 6c-.06903.000007-.136077.0062-.201172.01953-.06089.01247-.119421.03165-.175781.05469a1.0001 1.0001 0 0 1 .376953-.07422zm-.390625.08008c-.118858.05068-.226292.122776-.316406.212891a1.0001 1.0001 0 0 1 .316406-.212891zm-.316406.212891c-.09011.09011-.162211.197548-.212891.316406a1.0001 1.0001 0 0 1 .212891-.316406zm-.21875.330078c-.02303.05636-.04222.114888-.05469.175781-.013323.065093-.019522.132137-.019529.20117a1.0001 1.0001 0 0 1 .07422-.376953zm-.074219 2.376951c.000007.06903.0062.136077.01953.201172.01247.06089.03165.119421.05469.175781a1.0001 1.0001 0 0 1 -.07422-.376953zm.08008.390625c.05068.118858.122776.226292.212891.316406a1.0001 1.0001 0 0 1 -.212891-.316406zm.212891.316406c.09011.09011.197548.162211.316406.212891a1.0001 1.0001 0 0 1 -.316406-.212891zm.330078.21875c.05636.02303.114888.04222.175781.05469.065093.013323.132137.019522.20117.019529a1.0001 1.0001 0 0 1 -.376953-.07422zm8.376951 3.488281-1 1v.585938h-.585938l-1 1h2.585938zm-8.707031.878907c-.03796.03795-.07053.08008-.101563.123047-.0199.02805-.03782.05605-.05469.08594-.0088.01518-.0155.03128-.02344.04687-.0063.01274-.01144.02614-.01758.03906a1.0001 1.0001 0 0 1 .197266-.294922zm-.222657.351562c-.0018.0046-.0042.009-.0059.01367-.0162.04553-.02956.09285-.03906.140625-.0018.0014-.004.0025-.0059.0039v.002c-.012738.064026-.019439.128974-.019452.195274a1.0001 1.0001 0 0 1 .07031-.355469z" fill="#83beec"/></svg>