<svg height="24" viewBox="0 0 6.3499999 6.3500002" width="24" xmlns="http://www.w3.org/2000/svg"><g stroke-width=".264583"><g transform="translate(0 -290.64998)"><path d="m3 2c-.5539993 0-1 .4460007-1 1v18c0 .553999.4460007 1 1 1h10.708984c-.05631-.195975-.05154-.404461.01367-.597656l.390625-1.158203-1.203125-.240235c-.392428-.07898-.700296-.383773-.783203-.77539-.08499-.403281-.128129-.814438-.128906-1.226563-.00001-.0026-.00001-.0052 0-.0078.0023-.412408.04628-.823528.132812-1.226563.08428-.390103.391874-.69309.783203-.771484l1.199219-.240235-.392578-1.15625c-.128627-.378965-.01961-.798125.277344-1.066406.341709-.30865.718052-.576172 1.121094-.798828.0026-.002.0052-.0039.0078-.0059.320064-.173096.653957-.315346 1-.427735.08405-.02767.171402-.04409.259766-.04883.305396-.01502.600961.110105.802734.339844l.808594.919922.806641-.917969c.265086-.301855.684735-.416375 1.066406-.291016.784975.258188 1.508837.675916 2.125 1.226563.0013.0013.0026.0026.0039.0039v-10.533166c.00002-.5539993-.445981-1-.99998-1z" fill="#3a3a38" stroke-width=".999999" transform="matrix(.26458334 0 0 .26458334 0 290.64998)"/><path d="m3 3v18h10.857422l.255859-.755859-1.203125-.240235a1.0027936 1.0027936 0 0 1 -.783203-.77539c-.084986-.403281-.128129-.814438-.128906-1.226563a1.0027936 1.0027936 0 0 1 0-.007812c.002282-.412408.046282-.823528.132812-1.226563a1.0027936 1.0027936 0 0 1 .783203-.771484l1.199219-.240235-.392578-1.15625a1.0027936 1.0027936 0 0 1 .277344-1.066406c.341709-.30865.718052-.576172 1.121094-.798828a1.0027936 1.0027936 0 0 1 .007812-.005859c.320064-.173096.653957-.315346 1-.427735a1.0027936 1.0027936 0 0 1 .259766-.048828 1.0027936 1.0027936 0 0 1 .802734.339844l.808594.919922.806641-.917969a1.0027936 1.0027936 0 0 1 1.066406-.291016c.393868.129548.771694.299341 1.128906.50586v-9.808594z" fill="#fafafa" stroke-width=".999999" transform="matrix(.26458334 0 0 .26458334 0 290.64998)"/><g fill="#797774"><rect height=".264583" rx=".132292" ry=".125565" width="2.116667" x="2.645833" y="292.23746"/><rect height=".264583" rx=".132292" ry=".125565" width="2.116667" x="2.645833" y="293.560377"/><path d="m10.5 16c-.277001 0-.5.211694-.5.474609v.050782c0 .262915.222999.474609.5.474609h1.59375c.013413-.077395.020609-.155568.037109-.232422a1.0027936 1.0027936 0 0 1 .767579-.767578z" fill="#797774" stroke-width=".999999" transform="matrix(.26458334 0 0 .26458334 0 290.64998)"/></g><path d="m2.1166667 292.36976a.396875.396875 0 0 1 -.396875.39687.396875.396875 0 0 1 -.396875-.39687.396875.396875 0 0 1 .396875-.39688.396875.396875 0 0 1 .396875.39688z" fill="#0063b1"/><path d="m2.1166667 293.69267a.396875.396875 0 0 1 -.396875.39688.396875.396875 0 0 1 -.396875-.39688.396875.396875 0 0 1 .396875-.39687.396875.396875 0 0 1 .396875.39687z" fill="#fb983b"/><path d="m2.1166667 295.01559a.396875.396875 0 0 1 -.396875.39687.396875.396875 0 0 1 -.396875-.39687.396875.396875 0 0 1 .396875-.39688.396875.396875 0 0 1 .396875.39688z" fill="#797774"/><g fill-opacity=".982993"><path d="m1.8520833 292.36977a.13229167.13229167 0 0 1 -.1322916.13229.13229167.13229167 0 0 1 -.1322917-.13229.13229167.13229167 0 0 1 .1322917-.13229.13229167.13229167 0 0 1 .1322916.13229z" fill="#83beec"/><path d="m1.8520833 293.6927a.13229167.13229167 0 0 1 -.1322916.13229.13229167.13229167 0 0 1 -.1322917-.13229.13229167.13229167 0 0 1 .1322917-.13229.13229167.13229167 0 0 1 .1322916.13229z" fill="#f8db8f"/><path d="m1.8520833 295.01563a.13229167.13229167 0 0 1 -.1322916.13229.13229167.13229167 0 0 1 -.1322917-.13229.13229167.13229167 0 0 1 .1322917-.13229.13229167.13229167 0 0 1 .1322916.13229z" fill="#fafafa"/></g></g><path d="m5.8208302 4.7149566.0000003.095085-.4299483.086299c-.1563465.0314794-.2495243.1930848-.1984375.3441653l.1400432.4134115.0005027.00156-.082682.047543-.2888712-.329179c-.1054026-.1202026-.2925059-.1202026-.3979085 0l-.2888714.3291795-.0826823-.0475422.1405599-.4149619c.0510868-.1510805-.042091-.3126859-.1984375-.3441653l-.429948-.086299-.0000002-.095085.4299482-.086299c.1563465-.03148.2495243-.1930854.1984375-.3441659l-.1405599-.4149617.082682-.047542.2888713.329179c.057213.065197.1427464.098213.2289262.088367.065352-.00743.1255951-.038933.1689823-.088367l.288871-.329179.082682.047543-.1405599.4149616c-.051087.1510805.042091.3126859.1984375.3441652z" fill="#fafafa"/><path d="m4.3490853 3.5067612c-.076267.02477-.150124.056422-.2206583.094568-.088824.049071-.1717093.1081984-.2470134.1762167l.2005044.5916951-.6128824.12299c-.019073.088839-.028953.179406-.029456.2702677.0001712.090826.00969.1813941.028422.2702676l.6139159.12299-.1999877.5916951c.1357957.1213556.2951861.2133652.4681884.2702678l.412378-.469222.4134114.4697387c.076267-.02477.1501236-.056423.2206583-.094568.088824-.04907.1717067-.1081983.2470134-.1762166l-.2005038-.5916951.6128825-.12299c.019074-.088839.028953-.179406.029456-.2702676-.0001712-.090826-.00969-.1813941-.028422-.2702677l-.6139165-.12299.1999877-.5916951c-.1357958-.1213556-.2951861-.2133652-.4681884-.2702679l-.412378.4692222-.1240235-.1410767zm-.074414.3152262.2888712.329179a.26460979.26460979 0 0 0 .2289265.088367.26460979.26460979 0 0 0 .168982-.088367l.2888713-.329179.082682.047542-.1405599.4149617a.26460979.26460979 0 0 0 .1984375.3441652l.429948.086299v.095085l-.429948.0863a.26460979.26460979 0 0 0 -.1984375.344165l.1400432.4134114.0005291.00156-.082682.047542-.2888713-.329179a.26460979.26460979 0 0 0 -.3979084 0l-.2888837.3291701-.0826823-.0475425.1405599-.4149616a.26460979.26460979 0 0 0 -.1984376-.3441653l-.4299479-.0862994v-.0950849l.4299479-.0862994a.26460979.26460979 0 0 0 .1984376-.3441652l-.1405599-.4149617zm.4878255.6759278a.26458334.26458334 0 0 0 -.2645834.2645834.26458334.26458334 0 0 0 .2645834.2645833.26458334.26458334 0 0 0 .2645833-.2645833.26458334.26458334 0 0 0 -.2645833-.2645834z" fill="#1e8bcd"/></g></svg>