<svg height="24" viewBox="0 0 6.3499998 6.3500002" width="24" xmlns="http://www.w3.org/2000/svg"><g transform="translate(0 -292.76665)"><path d="m.79375 293.5604v4.7625h2.6458333v-.52968a.26527915.26527915 0 0 1 .0780314-.18759l.980302-.9803v-.15245h-.7927165a.26527915.26527915 0 0 1 -.2656169-.26561v-.52969a.26527915.26527915 0 0 1 .2656169-.26561h.7927165v-.79324l-1.0583334-1.05833z" fill="#fafafa" stroke-width=".264583"/><path d="m.79375 293.29582c-.14657905 0-.26458333.118-.26458333.26458v4.7625c0 .14658.11800428.26458.26458333.26458h2.6458333v-.26458h-2.6458333v-4.7625h2.38125v1.05833c0 .14658.1180043.26459.2645833.26459h1.0583334v.52865h.2645833v-.78238c0-.11925.0259389-.11256-.1601969-.28216l-.874882-.85679c-.1877284-.19496-.1878991-.19482-.2893881-.19482zm2.6458333.26458 1.0583334 1.05833h-1.0583334zm1.0583334 2.91248v.15245l.1524454-.15245z" fill="#3a3a38" stroke-width=".264583"/><path d="m3.7041667 295.67707v.52917l1.5875-.00001-1.5875 1.5875v1.05834h2.38125v-.52917h-1.5875l1.5875-1.5875v-1.05833z" fill="#991c00"/><g fill="#ed8733" stroke-width=".264583"><path d="m1.4552083 295.1479c-.073281 0-.1322916.059-.1322916.13229v1.5875c0 .0733.05901.13229.1322916.13229l1.8520834.00001c.073281 0 .1322917-.059.1322917-.13229v-1.19062c0-.0733-.4558847-.52917-.5291667-.52917zm.1307414.26407 1.2547038.00001c.00631.005.00794.006.015503.0119.1165464.0966.2070345.1979.309025.30851.00626.008.00648.009.011369.0155v.98857l-1.5906008-.00001z"/><path d="m1.8520833 295.67706 1.0583334.00001v.26459l-1.0583334-.00001z"/><path d="m1.8520833 296.20624 1.0583334.00001v.26458l-1.0583334-.00001z"/></g></g></svg>