<svg version="1.1" viewBox="0 0 24 24" xmlns="http://www.w3.org/2000/svg"><path d="m5 15v-9h14v9z" fill="#fafafa"/><g transform="translate(0 -3.0037)" fill-rule="evenodd"><path d="m7.4922 19.004c-0.13005 0.0041-0.25337 0.05875-0.34375 0.15234l-1.9238 1.9082c-0.17329 0.16065-0.22301 0.26643-0.22461 0.43555 0.0016 0.16912 0.05132 0.2749 0.22461 0.43555l1.9238 1.9082c0.09038 0.09359 0.2137 0.14824 0.34375 0.15234 0.45432 0.0115 0.68685-0.54028 0.36133-0.85742l-1.1562-1.1406h1.8184c0.0037-1e-4 0.00607 0.0021 0.00977 2e-3h6.9492c0.0037 1e-4 0.0061-0.0021 0.0098-2e-3h1.8184l-1.1562 1.1406c-0.32552 0.31714-0.09299 0.86892 0.36133 0.85742 0.13005-0.0041 0.25337-0.05875 0.34375-0.15234l1.9238-1.9082c0.17326-0.16065 0.22298-0.26643 0.22458-0.43555-0.0016-0.16912-0.05132-0.2749-0.22461-0.43555l-1.9238-1.9082c-0.09038-0.09359-0.2137-0.14824-0.34375-0.15234-0.45432-0.0115-0.68685 0.54028-0.36133 0.85742l1.1562 1.1406h-1.8184c-0.0037 1e-4 -0.0061-0.0021-0.0098-2e-3h-6.9492c-0.0037-1.92e-4 -0.00607 0.0021-0.00977 2e-3h-1.8184l1.1562-1.1406c0.32552-0.31714 0.09299-0.86892-0.36133-0.85742z" fill="#1e8bcd"/></g><path d="m5 15v-9c0-0.554 0.446-1 1-1h12c0.554 0 1 0.446 1 1v9m-1 0v-9h-12v9" fill="#3a3a38"/></svg>
