<svg viewBox="0 0 16 16" xmlns="http://www.w3.org/2000/svg"><path d="m14.903 3.554c0.054 0.111 0.086 0.231 0.097 0.354 2e-3 0.053 2e-3 0.108 0 0.162v0.01 10.914 6e-3c0 0.504-0.441 0.964-0.941 0.998l-0.059 2e-3h-9.434c-0.022-1e-3 -0.044-2e-3 -0.066-6e-3h-2.601c-0.482-0.056-0.899-0.504-0.899-0.994v-13.994-6e-3c0-0.504 0.441-0.964 0.941-0.998l0.059-2e-3h9.027c0.141 1e-3 0.28 0.032 0.407 0.09 0.107 0.049 0.207 0.117 0.293 0.204l2.984 2.991c0.08 0.08 0.144 0.171 0.192 0.269z" fill="#106802"/><path d="m2 1v14h12v-11l-3-3h-9z" fill="#fff" fill-rule="nonzero"/><path d="m11 0h0.027c0.141 1e-3 0.28 0.032 0.407 0.09 0.107 0.049 0.207 0.117 0.293 0.204l2.984 2.991c0.08 0.08 0.144 0.171 0.192 0.269 0.054 0.111 0.086 0.231 0.097 0.354l2e-3 0.092s-0.509-4e-3 -0.813-3e-3l-2.388 3e-3c-0.213 0-0.417-0.084-0.567-0.235s-0.234-0.355-0.234-0.568l3e-3 -2.396c1e-3 -0.301-3e-3 -0.801-3e-3 -0.801z" fill="#106802"/><g transform="matrix(.56757 0 0 .56757 3.4596 3.6757)"><path d="m11.5 5.833v2.167h1.166c0.37 0 0.667 0.297 0.667 0.667v5.333c0 0.369-0.297 0.667-0.667 0.667h-9.333c-0.369 0-0.666-0.298-0.666-0.667v-5.333c0-0.37 0.297-0.667 0.666-0.667h1.167v-2.167c0-0.169 0.013-0.336 0.036-0.5 0.243-1.696 1.701-3 3.464-3s3.221 1.304 3.464 3c0.023 0.164 0.036 0.331 0.036 0.5zm-1 2.167v-2.167c0-0.171-0.017-0.338-0.05-0.5-0.231-1.141-1.241-2-2.45-2s-2.219 0.859-2.45 2c-0.033 0.162-0.05 0.329-0.05 0.5v2.167h5zm-1.834 4c0 0.368-0.298 0.667-0.666 0.667-0.369 0-0.667-0.299-0.667-0.667v-1.333c0-0.368 0.299-0.667 0.667-0.667s0.666 0.299 0.666 0.667v1.333z" fill="#106802"/></g></svg>
