<svg width="48px" height="48px" fill="#A3A3A3" version="1.1" viewBox="0 -960 960 960" xmlns="http://www.w3.org/2000/svg"><path d="m558.54-341.54-217-138.46 217-138.46zm-78.67 221.54q74.44 0 139.79-28.34t114.48-77.42 77.49-114.37q28.37-65.29 28.37-139.74 0-74.67-28.34-140.41-28.34-65.73-77.42-114.36t-114.37-76.99q-65.29-28.37-139.74-28.37-74.67 0-140.41 28.34-65.73 28.34-114.36 76.92t-76.99 114.26q-28.37 65.67-28.37 140.35 0 74.44 28.34 139.79t76.92 114.48 114.26 77.49q65.67 28.37 140.35 28.37zm0.13-30.77q-137.38 0-233.31-96.04-95.92-96.04-95.92-233.19 0-137.38 95.92-233.31 95.93-95.92 233.31-95.92 137.15 0 233.19 95.92 96.04 95.93 96.04 233.31 0 137.15-96.04 233.19t-233.19 96.04z"/></svg>
