<svg width="24px" height="24px" fill="#A3A3A3" version="1.1" viewBox="0 -960 960 960" xmlns="http://www.w3.org/2000/svg"><path d="m480-157.5q-58.333 0-109.28-22.167-50.95-22.167-88.667-59.892-37.725-37.717-59.892-88.667-22.167-50.942-22.167-109.28h60q0 90.833 64.583 155.42 64.583 64.583 155.42 64.583t155.42-64.583q64.583-64.583 64.583-155.42t-64.583-155.42q-64.583-64.583-155.74-64.583h-4.675l42.5 42.5-42.5 42.5-115-115 115-115 42.5 42.5-43.333 42.5h5.8333q58.333 0 109.28 22.167 50.95 22.167 88.667 59.892 37.725 37.717 59.892 88.667 22.167 50.942 22.167 109.28t-22.167 109.28q-22.167 50.95-59.892 88.667-37.717 37.725-88.667 59.892-50.942 22.167-109.28 22.167z" stroke-width=".83333"/></svg>
