<svg version="1.1" viewBox="0 0 32 32" xmlns="http://www.w3.org/2000/svg"><path d="m20 22c-2.7614 0-5 2.2386-5 5h1.1111c0-2.0711 1.7411-3.75 3.8889-3.75 1.0739 0 2.0461 0.41974 2.7499 1.0983 0.70376 0.67861 1.139 1.6161 1.139 2.6516h1.1111c0-1.3807-0.55964-2.6307-1.4644-3.5355-0.90482-0.90482-2.1548-1.4645-3.5356-1.4645z" fill="#a3a3a3" stroke-width="1.1785"/><path d="m7.1981 7.1981v4.6039h8.6039v-4.6039z" fill="#a3a3a3" stroke="#a3a3a3" stroke-width=".39611"/><path d="m7 5v1h9v-1z" fill="#a3a3a3" stroke-width=".5"/><path d="m12 21c-2.7614 0-5 2.2386-5 5h1.1113c0-2.0711 1.7409-3.75 3.8887-3.75 0.34746 0 0.68338 0.04452 1.0039 0.12695 0.31022-0.35756 0.66072-0.67361 1.043-0.93945-0.62487-0.28081-1.3174-0.4375-2.0469-0.4375z" fill="#a3a3a3" stroke-width="1.1785"/><path d="m23 18c0 1.6568-1.3432 3-3 3s-3-1.3432-3-3c0-1.6568 1.3432-3 3-3s3 1.3432 3 3z" fill="#a3a3a3" stroke-width="1.2"/><path d="m15 17c0 1.6568-1.3432 3-3 3s-3-1.3432-3-3c0-1.6568 1.3432-3 3-3s3 1.3432 3 3z" fill="#a3a3a3" stroke-width="1.2"/></svg>
