<svg width="48px" height="48px" fill="#A3A3A3" viewBox="0 -960 960 960" xmlns="http://www.w3.org/2000/svg"><path d="m401.46-341.54 217-138.46-217-138.46v276.92zm78.67 221.54q-74.44 0-139.79-28.34t-114.48-77.42q-49.13-49.08-77.49-114.37-28.37-65.29-28.37-139.74 0-74.67 28.34-140.41 28.34-65.73 77.42-114.36t114.37-76.99q65.29-28.37 139.74-28.37 74.67 0 140.41 28.34 65.73 28.34 114.36 76.92t76.99 114.26q28.37 65.67 28.37 140.35 0 74.44-28.34 139.79t-76.92 114.48q-48.58 49.13-114.26 77.49-65.67 28.37-140.35 28.37zm-0.13-30.77q137.38 0 233.31-96.04 95.92-96.04 95.92-233.19 0-137.38-95.92-233.31-95.93-95.92-233.31-95.92-137.15 0-233.19 95.92-96.04 95.93-96.04 233.31 0 137.15 96.04 233.19t233.19 96.04z"/></svg>
