<?xml-stylesheet type="text/css" href="icons.css" ?>
<svg viewBox="0 0 24 24" xmlns="http://www.w3.org/2000/svg">
  <path
     style="fill:none;stroke:#333333;stroke-width:2;stroke-linejoin:round;"
     d="m 12,5 c -3.3,0 -6,2.7 -6,6 -2.8e-4,0 -2.8e-4,0 0,0.1 -1.8,0.4 -3,2 -3,3.9 0,2.2 1.8,4 4,4 h 9 c 2.8,0 5,-2.2 5,-5 0,-2.1 -1.26,-4 -3.2,-4.7 -0.8,-2.6 -3.1,-4.3 -5.8,-4.3 z"
     id="path2" />
  <path
     style="fill:#83beec"
     d="M 20 1 A 3 3 0 0 0 17 4 A 3 3 0 0 0 20 7 A 3 3 0 0 0 23 4 A 3 3 0 0 0 20 1 z " />
</svg>
