<svg version="1.1" viewBox="0 0 16 16" xmlns="http://www.w3.org/2000/svg"><path d="m7.9983 3c-2.9156 0.0038463-5.5983 1.5936-7.0018 4.1493 0.11462 0.32332 0.31772 0.60141 0.58333 0.80729 1.1749-2.4812 3.6732-4.0644 6.4184-4.0677-1.9636 0-3.5556 1.5919-3.5556 3.5556 0 1.9636 1.5919 3.5556 3.5556 3.5556 1.9636 0 3.5556-1.5919 3.5556-3.5556 0.007111-1.8484-1.4034-3.394-3.2448-3.5556 2.6323 0.1196 4.9827 1.685 6.1076 4.0677 0.26802-0.20774 0.47281-0.48893 0.58681-0.81597-1.4063-2.5534-4.0901-4.1398-7.0052-4.1406zm0 1.7778c1.4728 0 2.6667 1.1939 2.6667 2.6667s-1.1939 2.6667-2.6667 2.6667-2.6667-1.1939-2.6667-2.6667 1.1939-2.6667 2.6667-2.6667z" fill="#3a3a38" stroke-width=".88889"/><path d="m7.9983 5.6667c-0.98187 0-1.7778 0.79594-1.7778 1.7778 0 0.98187 0.79594 1.7778 1.7778 1.7778 0.98187 0 1.7778-0.79594 1.7778-1.7778 0.025742-0.17324 0.025742-0.34933 0-0.52257-0.15468 0.3458-0.51151 0.55558-0.88889 0.52257-0.49092 0-0.88889-0.39797-0.88889-0.88889-0.032732-0.3778 0.17782-0.73476 0.5243-0.88889-0.1738-0.025913-0.3505-0.025913-0.5243 0z" fill="#3a3a38" stroke-width=".88889"/></svg>
