<?xml version="1.0" encoding="UTF-8"?>
<svg version="1.1" viewBox="0 0 16 16" xmlns="http://www.w3.org/2000/svg">
 <path d="m8 2c-3.2801 0.0043271-6.2981 1.7928-7.877 4.668 0.12895 0.36373 0.35744 0.67659 0.65625 0.9082 1.3218-2.7913 4.1323-4.5725 7.2207-4.5762-2.2091 0-4 1.7909-4 4s1.7909 4 4 4 4-1.7909 4-4c0.007957-2.0795-1.5788-3.8183-3.6504-4 2.9613 0.13455 5.6055 1.8956 6.8711 4.5762 0.30152-0.23371 0.53191-0.55005 0.66016-0.91797-1.5821-2.8726-4.6014-4.6573-7.8809-4.6582zm0 2c1.6569 0 3 1.3431 3 3 0 1.6569-1.3431 3-3 3s-3-1.3431-3-3c0-1.6569 1.3431-3 3-3z" fill="#3a3a38"/>
 <path d="m11 7a3 3 0 0 1-3 3 3 3 0 0 1-3-3 3 3 0 0 1 3-3 3 3 0 0 1 3 3z" fill="#fafafa"/>
 <path d="m8 5c-1.1046 0-2 0.89543-2 2 0 1.1046 0.89543 2 2 2 1.1046 0 2-0.89543 2-2 0.02896-0.19489 0.02896-0.393 0-0.58789-0.17401 0.38903-0.57545 0.62503-1 0.58789-0.55228 0-1-0.44772-1-1-0.036824-0.42503 0.20005-0.82661 0.58984-1-0.19553-0.029152-0.39431-0.029152-0.58984 0z" fill="#1e8bcd"/>
</svg>
