<svg version="1.1" viewBox="0 0 48 48" xmlns="http://www.w3.org/2000/svg"><path d="m25.728 13.239v21.522h11.63l2-1.4348h-12.196v-18.652l11.63-0.03177-0.83736-1.4348z" fill="#f2f2f2" stroke-width="1.4348"/><path d="m30.033 18.978h11.195v2.8696h-11.195z" fill="#f2f2f2" stroke-width="1.2718"/><g transform="matrix(1.4348 0 0 1.4348 12.815 6.0652)" fill="#f2f2f2" stroke="#a8a8a8" stroke-linejoin="bevel" stroke-opacity=".52941" stroke-width=".34848" style="paint-order:stroke fill markers"><rect x="3" y="5" width="4" height="1" ry=".48202" style="paint-order:stroke fill markers"/><rect x="2" y="8" width="5" height="1" ry=".5" style="paint-order:stroke fill markers"/><rect x="1" y="11" width="6" height="1" ry=".5" style="paint-order:stroke fill markers"/><rect x="2" y="14" width="5" height="1" ry=".5" style="paint-order:stroke fill markers"/><rect x="3.5" y="17" width="3.5" height="1" ry=".25" style="paint-order:stroke fill markers"/></g><g transform="matrix(.05 0 0 .05 0 48)" fill="#a3a3a3"><path d="m480.13-120c-49.627 0-96.223-9.4467-139.79-28.34s-81.727-44.7-114.48-77.42-58.583-70.843-77.49-114.37c-18.913-43.527-28.37-90.107-28.37-139.74 0-49.78 9.4467-96.583 28.34-140.41 18.893-43.82 44.7-81.94 77.42-114.36s70.843-58.083 114.37-76.99c43.527-18.913 90.107-28.37 139.74-28.37 49.78 0 96.583 9.4467 140.41 28.34 43.82 18.893 81.94 44.533 114.36 76.92s58.083 70.473 76.99 114.26c18.913 43.78 28.37 90.563 28.37 140.35 0 49.627-9.4467 96.223-28.34 139.79s-44.533 81.727-76.92 114.48-70.473 58.583-114.26 77.49c-43.78 18.913-90.563 28.37-140.35 28.37zm-0.13-30.77c91.587 0 169.36-32.013 233.31-96.04 63.947-64.027 95.92-141.76 95.92-233.19 0-91.587-31.973-169.36-95.92-233.31-63.953-63.947-141.72-95.92-233.31-95.92-91.433 0-169.16 31.973-233.19 95.92-64.027 63.953-96.04 141.72-96.04 233.31 0 91.433 32.013 169.16 96.04 233.19s141.76 96.04 233.19 96.04z" fill="#f2f2f2" stroke="#d1d1d1" stroke-opacity=".96903" stroke-width="10"/></g></svg>
