<svg width="48px" height="48px" fill="#A3A3A3" version="1.1" viewBox="0 -960 960 960" xmlns="http://www.w3.org/2000/svg"><path d="m480.13-120c-49.627 0-96.223-9.4467-139.79-28.34s-81.727-44.7-114.48-77.42-58.583-70.843-77.49-114.37c-18.913-43.527-28.37-90.107-28.37-139.74 0-49.78 9.4467-96.583 28.34-140.41 18.893-43.82 44.7-81.94 77.42-114.36s70.843-58.083 114.37-76.99c43.527-18.913 90.107-28.37 139.74-28.37 49.78 0 96.583 9.4467 140.41 28.34 43.82 18.893 81.94 44.533 114.36 76.92s58.083 70.473 76.99 114.26c18.913 43.78 28.37 90.563 28.37 140.35 0 49.627-9.4467 96.223-28.34 139.79s-44.533 81.727-76.92 114.48-70.473 58.583-114.26 77.49c-43.78 18.913-90.563 28.37-140.35 28.37zm-0.13-30.77c91.587 0 169.36-32.013 233.31-96.04 63.947-64.027 95.92-141.76 95.92-233.19 0-91.587-31.973-169.36-95.92-233.31-63.953-63.947-141.72-95.92-233.31-95.92-91.433 0-169.16 31.973-233.19 95.92-64.027 63.953-96.04 141.72-96.04 233.31 0 91.433 32.013 169.16 96.04 233.19s141.76 96.04 233.19 96.04zm-97.578-455.91c-10.89 8.4366-20.645 18.244-29.023 29.18l97.5 97.5-97.578 97.578c8.4366 10.89 18.244 20.645 29.18 29.023l97.5-97.5 97.578 97.578c10.89-8.4366 20.645-18.244 29.023-29.18l-97.5-97.5 97.578-97.578c-8.4366-10.89-18.244-20.645-29.18-29.023l-97.5 97.5z" fill="#f2f2f2" stroke="#a3a3a3" stroke-opacity=".50196" stroke-width="10"/></svg>
