<svg viewBox="0 0 48 48" fill="none" xmlns="http://www.w3.org/2000/svg">
<path d="M24.0065 42C21.5252 42 19.1954 41.5277 17.017 40.583C14.8386 39.6383 12.9307 38.348 11.293 36.712C9.65535 35.076 8.36385 33.1699 7.4185 30.9935C6.47285 28.8172 6 26.4882 6 24.0065C6 21.5175 6.47233 19.1773 7.417 16.986C8.36165 14.795 9.652 12.889 11.288 11.268C12.924 9.647 14.8302 8.36385 17.0065 7.4185C19.1829 6.47285 21.5119 6 23.9935 6C26.4825 6 28.8227 6.47234 31.014 7.417C33.205 8.36165 35.111 9.64365 36.732 11.263C38.353 12.8824 39.6362 14.7867 40.5815 16.976C41.5272 19.165 42 21.5042 42 23.9935C42 26.4749 41.5277 28.8047 40.583 30.983C39.6383 33.1614 38.3564 35.0694 36.737 36.707C35.1176 38.3447 33.2133 39.6362 31.024 40.5815C28.835 41.5272 26.4959 42 24.0065 42ZM24 40.4615C28.5794 40.4615 32.468 38.8609 35.6655 35.6595C38.8629 32.4582 40.4615 28.5715 40.4615 24C40.4615 19.4207 38.8629 15.532 35.6655 12.3345C32.4679 9.13715 28.5795 7.5385 24 7.5385C19.4284 7.5385 15.542 9.13715 12.3405 12.3345C9.13915 15.5322 7.5385 19.4205 7.5385 24C7.5385 28.5717 9.13915 32.458 12.3405 35.6595C15.5419 38.861 19.4285 40.4615 24 40.4615ZM19.1211 17.666C18.5766 18.0878 18.0888 18.5782 17.6699 19.125L22.5449 24L17.6661 28.8789C18.0879 29.4234 18.5783 29.9112 19.1251 30.3301L24.0001 25.4551L28.8789 30.3339C29.4234 29.9121 29.9112 29.4217 30.3301 28.8749L25.4551 23.9999L30.334 19.1211C29.9122 18.5766 29.4218 18.0888 28.875 17.6699L24 22.5449L19.1211 17.666Z" fill="#F2F2F2" stroke="#A3A3A3" stroke-opacity="0.50196" stroke-width="0.5"/>
</svg>