<svg width="48px" height="48px" fill="#a3a3a3" version="1.1" viewBox="0 -960 960 960" xmlns="http://www.w3.org/2000/svg">
<path d="m 480.13,-120 c -49.627,0 -96.223,-9.4467 -139.79,-28.34 -43.567,-18.8933 -81.727,-44.7 -114.48,-77.42 -32.753,-32.72 -58.583,-70.843 -77.49,-114.37 -18.913,-43.527 -28.37,-90.107 -28.37,-139.74 0,-49.78 9.4467,-96.583 28.34,-140.41 18.893,-43.82 44.7,-81.94 77.42,-114.36 32.72,-32.42 70.843,-58.083 114.37,-76.99 43.527,-18.913 90.107,-28.37 139.74,-28.37 49.78,0 96.583,9.4467 140.41,28.34 43.82,18.893 81.94,44.533 114.36,76.92 32.42,32.387 58.083,70.473 76.99,114.26 18.913,43.78 28.37,90.563 28.37,140.35 0,49.627 -9.4467,96.223 -28.34,139.79 -18.8933,43.567 -44.533,81.727 -76.92,114.48 -32.387,32.753 -70.473,58.583 -114.26,77.49 C 576.7,-129.457 529.917,-120 480.13,-120 Z M 480,-150.77 c 91.587,0 169.36,-32.013 233.31,-96.04 63.947,-64.027 95.92,-141.76 95.92,-233.19 0,-91.587 -31.973,-169.36 -95.92,-233.31 -63.953,-63.947 -141.72,-95.92 -233.31,-95.92 -91.433,0 -169.16,31.973 -233.19,95.92 -64.027,63.953 -96.04,141.72 -96.04,233.31 0,91.433 32.013,169.16 96.04,233.19 64.027,64.03 141.76,96.04 233.19,96.04 z" fill="#f2f2f2" stroke="#a3a3a3" stroke-opacity="0.50196" stroke-width="10"/>
<path d="m 592.36122,-708 c -15.69752,0.0305 -30.96434,5.13625 -43.52237,14.55482 H 403.14836 c -8.06338,0 -14.55483,6.49107 -14.55483,14.55486 v 87.329 c 0,8.06379 6.49145,14.55486 14.55483,14.55486 h 14.55485 v 21.83226 c 0,4.03166 3.24572,7.27738 7.27741,7.27738 h 14.55484 c 4.03168,0 7.27741,-3.24572 7.27741,-7.27738 v -21.83226 h 102.02598 c 12.55803,9.41857 27.82485,14.52413 43.52237,14.55482 15.69754,-0.0305 30.96436,-5.13625 43.52237,-14.55482 h 0.14214 v 21.83226 c 0,4.03166 3.24573,7.27738 7.27742,7.27738 h 14.55487 c 4.03166,0 7.27739,-3.24572 7.27739,-7.27738 v -21.83226 h 29.10968 c 8.06342,0 14.55482,-6.49107 14.55482,-14.55486 v -87.329 c 0,-8.06379 -6.4914,-14.55486 -14.55482,-14.55486 h -58.3615 C 623.32558,-702.86375 608.05876,-707.96932 592.36122,-708 Z m 0,29.10968 a 43.66451,43.66451 0 0 1 43.66451,43.6645 43.66451,43.66451 0 0 1 -43.66451,43.6645 43.66451,43.66451 0 0 1 -43.6645,-43.6645 43.66451,43.66451 0 0 1 43.6645,-43.6645 z m 0,130.9935 -58.21931,58.21937 h 40.53745 c -9.03387,31.82074 -36.70902,54.80807 -69.64715,57.84978 v -43.29497 l -58.21934,58.21936 58.21934,58.21936 V -402.718 c 48.95728,-3.31669 89.68503,-38.8924 99.55282,-86.95945 h 45.99556 z m -320.20639,14.55487 c -8.06336,0 -14.55483,6.49146 -14.55483,14.55481 v 189.21288 c 0,8.06337 6.49147,14.55484 14.55483,14.55484 h 116.4387 v 29.10967 H 337.6516 c -4.03143,0 -7.27741,3.246 -7.27741,7.27743 v 14.55483 c 0,4.03143 3.24598,7.27742 7.27741,7.27742 h 130.99353 c 4.03142,0 7.27742,-3.24599 7.27742,-7.27742 v -14.55483 c 0,-4.03143 -3.246,-7.27743 -7.27742,-7.27743 h -50.94192 v -29.10967 h 116.4387 c 8.06337,0 14.55481,-6.49147 14.55481,-14.55484 v -71.15382 c -9.16429,4.19167 -18.87407,7.43773 -29.10966,9.3242 v 32.71996 7.27741 c 0,4.03143 -3.24573,7.27742 -7.27742,7.27742 h -7.05 -211.27255 c -4.03169,0 -7.27741,-3.24599 -7.27741,-7.27742 v -145.54838 c 0,-4.03142 3.24572,-7.27738 7.27741,-7.27738 h 218.32255 c 4.03169,0 7.27742,3.24596 7.27742,7.27738 v 7.50487 a 14.55629,14.55629 0 0 1 4.26411,-10.51818 l 23.85062,-23.85057 c -2.04888,-5.55122 -7.27975,-9.52318 -13.55988,-9.52318 z m 247.43223,43.89193 v 14.32738 22.23026 c 12.09543,-4.57171 21.56236,-11.77714 29.0528,-22.23026 h -14.49795 a 14.55629,14.55629 0 0 1 -14.55485,-14.32738 z" style="stroke-width:14.5548" fill="#f2f2f2" stroke="#a3a3a3" stroke-opacity="0.50196" stroke-width="10"/>
</svg>
