<svg viewBox="0 0 48 48" fill="none" xmlns="http://www.w3.org/2000/svg">
<path d="M27.927 30.923L17.077 24L27.927 17.077V30.923ZM23.9935 42C26.4748 42 28.8047 41.5277 30.983 40.583C33.1613 39.6383 35.0693 38.348 36.707 36.712C38.3447 35.076 39.6362 33.1698 40.5815 30.9935C41.5272 28.8172 42 26.4882 42 24.0065C42 21.5175 41.5277 19.1773 40.583 16.986C39.6383 14.795 38.348 12.889 36.712 11.268C35.076 9.647 33.1698 8.36383 30.9935 7.4185C28.8172 6.47283 26.4882 6 24.0065 6C21.5175 6 19.1773 6.47233 16.986 7.417C14.795 8.36167 12.889 9.64367 11.268 11.263C9.647 12.8823 8.36383 14.7867 7.4185 16.976C6.47283 19.165 6 21.5042 6 23.9935C6 26.4748 6.47233 28.8047 7.417 30.983C8.36167 33.1613 9.64367 35.0693 11.263 36.707C12.8823 38.3447 14.7867 39.6362 16.976 40.5815C19.165 41.5272 21.5042 42 23.9935 42ZM24 40.4615C19.4207 40.4615 15.5322 38.8608 12.3345 35.6595C9.13717 32.4582 7.5385 28.5717 7.5385 24C7.5385 19.4207 9.13717 15.5322 12.3345 12.3345C15.5322 9.13717 19.4207 7.5385 24 7.5385C28.5717 7.5385 32.4582 9.13717 35.6595 12.3345C38.8608 15.5322 40.4615 19.4207 40.4615 24C40.4615 28.5717 38.8608 32.4582 35.6595 35.6595C32.4582 38.8608 28.5717 40.4615 24 40.4615Z" fill="#F2F2F2" stroke="#A3A3A3" stroke-opacity="0.50196" stroke-width="0.5"/>
</svg>