<svg fill="none" version="1.1" viewBox="0 0 48 48" xmlns="http://www.w3.org/2000/svg"><path d="m24 25c-4.9706 0-9 3.5818-9 8h2c0-3.3138 3.134-6 7-6 1.933 0 3.683 0.67158 4.9498 1.7574 1.2668 1.0858 2.0502 2.5858 2.0502 4.2426h2c0-2.2092-1.0074-4.2092-2.636-5.6568-1.6287-1.4477-3.8786-2.3432-6.364-2.3432zm5-5c0 2.7614-2.2386 5-5 5s-5-2.2386-5-5 2.2386-5 5-5 5 2.2386 5 5zm-5.0065 22c2.4813 0 4.8112-0.4723 6.9895-1.417s4.0863-2.235 5.724-3.871 2.9292-3.5422 3.8745-5.7185c0.9457-2.1763 1.4185-4.5053 1.4185-6.987 0-2.489-0.4723-4.8292-1.417-7.0205-0.9447-2.191-2.235-4.097-3.871-5.718s-3.5422-2.9042-5.7185-3.8495c-2.1763-0.94567-4.5053-1.4185-6.987-1.4185-2.489 0-4.8292 0.47233-7.0205 1.417-2.191 0.94467-4.097 2.2267-5.718 3.846-1.621 1.6193-2.9042 3.5237-3.8495 5.713-0.94567 2.189-1.4185 4.5282-1.4185 7.0175 0 2.4813 0.47233 4.8112 1.417 6.9895s2.2267 4.0863 3.846 5.724c1.6193 1.6377 3.5237 2.9292 5.713 3.8745 2.189 0.9457 4.5282 1.4185 7.0175 1.4185zm0.0065-1.5385c-4.5793 0-8.4678-1.6007-11.666-4.802-3.1973-3.2013-4.796-7.0878-4.796-11.66 0-4.5793 1.5987-8.4678 4.796-11.666 3.1977-3.1973 7.0862-4.796 11.666-4.796 4.5717 0 8.4582 1.5987 11.66 4.796 3.2013 3.1977 4.802 7.0862 4.802 11.666 0 4.5717-1.6007 8.4582-4.802 11.66s-7.0878 4.802-11.66 4.802z" fill="#f2f2f2" stroke="#a3a3a3" stroke-opacity=".50196" stroke-width=".5"/></svg>
