<svg viewBox="0 0 48 48" fill="none" xmlns="http://www.w3.org/2000/svg">
<path d="M20.073 30.923L30.923 24L20.073 17.077V30.923ZM24.0065 42C21.5252 42 19.1953 41.5277 17.017 40.583C14.8387 39.6383 12.9307 38.348 11.293 36.712C9.65533 35.076 8.36383 33.1698 7.4185 30.9935C6.47283 28.8172 6 26.4882 6 24.0065C6 21.5175 6.47233 19.1773 7.417 16.986C8.36167 14.795 9.652 12.889 11.288 11.268C12.924 9.647 14.8302 8.36383 17.0065 7.4185C19.1828 6.47283 21.5118 6 23.9935 6C26.4825 6 28.8227 6.47233 31.014 7.417C33.205 8.36167 35.111 9.64367 36.732 11.263C38.353 12.8823 39.6362 14.7867 40.5815 16.976C41.5272 19.165 42 21.5042 42 23.9935C42 26.4748 41.5277 28.8047 40.583 30.983C39.6383 33.1613 38.3563 35.0693 36.737 36.707C35.1177 38.3447 33.2133 39.6362 31.024 40.5815C28.835 41.5272 26.4958 42 24.0065 42ZM24 40.4615C28.5793 40.4615 32.4678 38.8608 35.6655 35.6595C38.8628 32.4582 40.4615 28.5717 40.4615 24C40.4615 19.4207 38.8628 15.5322 35.6655 12.3345C32.4678 9.13717 28.5793 7.5385 24 7.5385C19.4283 7.5385 15.5418 9.13717 12.3405 12.3345C9.13917 15.5322 7.5385 19.4207 7.5385 24C7.5385 28.5717 9.13917 32.4582 12.3405 35.6595C15.5418 38.8608 19.4283 40.4615 24 40.4615Z" fill="#F2F2F2" stroke="#A3A3A3" stroke-opacity="0.50196" stroke-width="0.5"/>
</svg>