<svg viewBox="0 0 16 16" xmlns="http://www.w3.org/2000/svg"><path d="m14.903 3.554c0.054 0.111 0.086 0.231 0.097 0.354 2e-3 0.053 2e-3 0.108 0 0.162v0.01 10.914 6e-3c0 0.504-0.441 0.964-0.941 0.998l-0.059 2e-3h-9.434c-0.022-1e-3 -0.044-2e-3 -0.066-6e-3h-2.601c-0.482-0.056-0.899-0.504-0.899-0.994v-13.994-6e-3c0-0.504 0.441-0.964 0.941-0.998l0.059-2e-3h9.027c0.141 1e-3 0.28 0.032 0.407 0.09 0.107 0.049 0.207 0.117 0.293 0.204l2.984 2.991c0.08 0.08 0.144 0.171 0.192 0.269z" fill="#876900"/><path d="m2 1v14h12v-11l-3-3h-9z" fill="#fff" fill-rule="nonzero"/><path d="m11 0h0.027c0.141 1e-3 0.28 0.032 0.407 0.09 0.107 0.049 0.207 0.117 0.293 0.204l2.984 2.991c0.08 0.08 0.144 0.171 0.192 0.269 0.054 0.111 0.086 0.231 0.097 0.354l2e-3 0.092s-0.509-4e-3 -0.813-3e-3l-2.388 3e-3c-0.213 0-0.417-0.084-0.567-0.235s-0.234-0.355-0.234-0.568l3e-3 -2.396c1e-3 -0.301-3e-3 -0.801-3e-3 -0.801z" fill="#876900"/><path d="m11.484 7c-0.119 3e-3 -0.233 0.049-0.322 0.129l-5.5 5c-0.105 0.095-0.165 0.23-0.165 0.371 0 0.274 0.226 0.5 0.5 0.5h1e-3 5.5c0.274 0 0.5-0.226 0.5-0.5v-5c0-0.274-0.226-0.5-0.5-0.5h-0.014zm-0.486 1.631v3.369h-3.705l3.705-3.369z" fill="#876900" fill-rule="nonzero"/><g transform="translate(-.007523 -.66417)"><path d="m6.549 5.996c-1.154 0.181-2.101 1.017-2.424 2.139s0.034 2.332 0.914 3.099c0.093 0.087 0.214 0.135 0.341 0.135 0.274 0 0.5-0.226 0.5-0.5 0-0.151-0.068-0.294-0.185-0.389-0.589-0.513-0.826-1.319-0.609-2.07 0.216-0.751 0.845-1.304 1.617-1.426 0.772-0.121 1.543 0.213 1.979 0.862 0.089 0.154 0.254 0.249 0.433 0.249 0.274 0 0.5-0.225 0.5-0.5 0-0.11-0.037-0.218-0.105-0.306-0.652-0.969-1.808-1.474-2.961-1.293z" fill="#876900" fill-rule="nonzero"/></g></svg>
