<?xml-stylesheet type="text/css" href="icons.css" ?>
<svg viewBox="0 0 24 24" xmlns="http://www.w3.org/2000/svg">
  <path
     style="fill:#1e8bcd"
     d="M 5,2 C 4.446,2 4,2.446 4,3 v 18 c 0,0.554 0.446,1 1,1 h 14 c 0.554,0 1,-0.446 1,-1 V 12 H 20 L 20,9.5 C 20,9.4 19.95,9.25 19.85,9.15 l -7,-7 C 12.76,2 12.6326,2 12.5,2 H 10 5.5 Z" />
  <path
     d="M 5,3 V 21 H 19 V 9.7 L 12.3,3 Z"
     style="fill:#fafafa"
     />
  <path
     d="m 15.4,2 c -0.416024,0.1332524 -0.556031,0.766565 -0.235307,1.0643933 l 3.764927,3.7845094 C 19.288931,7.1879856 19.981678,6.9042916 20,6.4228329 V 2.6383235 C 19.999962,2.3080744 19.701053,2.0076096 19.372512,2.0075719 h -3.764929 c -0.1,-0 -0.1,-0 -0.2,0 z"
     style="fill:#1e8bcd" />
  <path
     style="stroke:#1e8bcd;stroke-width:1;stroke-linecap:round;stroke-linejoin:round"
     d="M 6.5 9.5 L 13.5 9.5 L 6.5 9.5 z M 6.5 12.5 L 17.5 12.5 L 6.5 12.5 z M 6.5 15.5 L 17.5 15.5 L 6.5 15.5 z M 6.5 18.5 L 13.5 18.5 L 6.5 18.5 z "
     />
</svg>
