<?xml-stylesheet type="text/css" href="icons.css" ?>
<svg viewBox="0 0 24 24" xmlns="http://www.w3.org/2000/svg">
  <path
     style="fill:#c99c00"
     d="M 5,2 C 4.446,2 4,2.446 4,3 v 18 c 0,0.554 0.446,1 1,1 h 14 c 0.554,0 1,-0.446 1,-1 V 12 H 20 L 20,9.5 C 20,9.4 19.95,9.25 19.85,9.15 l -7,-7 C 12.76,2 12.6326,2 12.5,2 H 10 5.5 Z"
     />
  <path
     d="M 5,3 V 21 H 19 V 9.7 L 12.3,3 Z"
     style="fill:#fafafa"
     />
  <path
     d="m15.4 2.0c-.4.1332524-.556031.766565-.235307 1.0643933l3.764927 3.7845094c.347817.331511 1.040564.047817 1.058886-.4336417v-3.7845094c-.000038-.3302491-.298947-.6307139-.627488-.6307516h-3.764929c-.06489-.010096-.131258-.010096-.196089 0z"
     style="fill:#c99c00" />
  <g
     fill="#fafafa"
     stroke-width="1"
     >
    <path
       style="stroke:#c99c00"
       d="M 13.1,13 A 3.3,3.3 0 0 1 9.8,16.3 3.3,3.3 0 0 1 6.5,13 3.3,3.3 0 0 1 9.8,9.7 3.3,3.3 0 0 1 13.1,13 Z"
       />
    <g
       stroke-linecap="round"
       stroke-linejoin="round"
       style="stroke:#c99c00">
      <path
         d="m12.4 16.3h5.1v-4.4h-5.1z"
         />
      <path
         d="m14.5 18.5h-8.0l3.7-6.6z"
         />
    </g>
  </g>
</svg>
