<svg viewBox="0 0 16 16" xmlns="http://www.w3.org/2000/svg"><path d="m14.903 3.554c0.054 0.111 0.086 0.231 0.097 0.354 2e-3 0.053 2e-3 0.108 0 0.162v0.01 10.914 6e-3c0 0.504-0.441 0.964-0.941 0.998l-0.059 2e-3h-9.434c-0.022-1e-3 -0.044-2e-3 -0.066-6e-3h-2.601c-0.482-0.056-0.899-0.504-0.899-0.994v-13.994-6e-3c0-0.504 0.441-0.964 0.941-0.998l0.059-2e-3h9.027c0.141 1e-3 0.28 0.032 0.407 0.09 0.107 0.049 0.207 0.117 0.293 0.204l2.984 2.991c0.08 0.08 0.144 0.171 0.192 0.269z" fill="#a33e03"/><path d="m2 1v14h12v-11l-3-3h-9z" fill="#fff" fill-rule="nonzero"/><path d="m11 0h0.027c0.141 1e-3 0.28 0.032 0.407 0.09 0.107 0.049 0.207 0.117 0.293 0.204l2.984 2.991c0.08 0.08 0.144 0.171 0.192 0.269 0.054 0.111 0.086 0.231 0.097 0.354l2e-3 0.092s-0.509-4e-3 -0.813-3e-3l-2.388 3e-3c-0.213 0-0.417-0.084-0.567-0.235s-0.234-0.355-0.234-0.568l3e-3 -2.396c1e-3 -0.301-3e-3 -0.801-3e-3 -0.801z" fill="#a33e03"/><g transform="translate(0 -1)"><path d="m4.031 7v0.469c-0.012 2-0.019 4-0.031 6v0.531h8v-0.5-6-0.5h-0.5c-2.323-0.012-4.648 0.01-6.969 0h-0.5zm1 1c1.989 0.01 3.981-0.01 5.969 0v5h-6c0.01-1.667 0.021-3.333 0.031-5zm0.969 0.988v1h1v-1h-1zm2 0v1h2v-1h-2zm-2 2v1h1v-1h-1zm2 0v1h2v-1h-2z" fill="#a33e03" fill-rule="nonzero"/></g></svg>
