<svg version="1.1" viewBox="0 0 24 24" xmlns="http://www.w3.org/2000/svg"><path d="m19.5 19.5-5-5" fill="#3a3a38" stroke="#3a3a38" stroke-linecap="round" stroke-width="2"/><circle cx="12" cy="12" r="7" fill="#fafafa"/><path d="m12 4a8 8 0 0 0-8 8 8 8 0 0 0 8 8 8 8 0 0 0 8-8 8 8 0 0 0-8-8zm0 1a7 7 0 0 1 7 7 7 7 0 0 1-7 7 7 7 0 0 1-7-7 7 7 0 0 1 7-7z" fill="#3a3a38"/><path d="m10 15h2l0.0057-4.9956-0.0072-0.51072-1.1565 1.1007c-0.09712 0.08093-0.17951 0.12197-0.27258 0.09769-0.08902-0.02833-0.17717-0.14506-0.21359-0.19767l-0.3558-0.4944 2-2h1v7h1.2881v1h-4.2881z" fill="#1e8bcd"/></svg>
