<svg version="1.1" viewBox="0 0 24 24" xmlns="http://www.w3.org/2000/svg"><path d="m4.7994 10.418h1.2422v-4.0359q0-0.17745 0.01365-0.36855l-1.0147 0.89181q-0.1092 0.091001-0.21385 0.063701-0.1001-0.03185-0.14105-0.091001l-0.24115-0.33215 1.7427-1.5425h0.61881v5.4145h1.1375v0.5824h-3.1441z" fill="#1e8bcd"/><g transform="matrix(-1 0 0 1 1.9422 2.9999)" fill="#fafafa"><path d="m-7.5 2c0.277 0 0.5 0.223 0.5 0.5s-0.223 0.5-0.5 0.5h-10c-0.277 0-0.5-0.223-0.5-0.5s0.223-0.5 0.5-0.5zm0 3c0.277 0 0.5 0.223 0.5 0.5s-0.223 0.5-0.5 0.5h-6c-0.277 0-0.5-0.223-0.5-0.5s0.223-0.5 0.5-0.5zm0 5c0.277 0 0.5 0.223 0.5 0.5s-0.223 0.5-0.5 0.5h-10c-0.277 0-0.5-0.223-0.5-0.5s0.223-0.5 0.5-0.5zm0 3c0.277 0 0.5 0.223 0.5 0.5s-0.223 0.5-0.5 0.5h-6c-0.277 0-0.5-0.223-0.5-0.5s0.223-0.5 0.5-0.5z" fill="#fafafa"/></g><g transform="translate(1.9422 2.9999)" fill="#1e8bcd"><path d="m4.1494 9.9531q0.37765 0 0.70071 0.11375 0.32305 0.11375 0.55965 0.3276t0.36855 0.52326q0.1365 0.3094 0.1365 0.70526 0 0.33215-0.1001 0.61881-0.095551 0.2821-0.2639 0.54145-0.1638 0.25935-0.3822 0.5096-0.2184 0.2457-0.45955 0.49595l-1.5334 1.5971q0.1729-0.05005 0.3458-0.07735 0.17745-0.0273 0.3367-0.0273h1.8974q0.12285 0 0.19565 0.0728 0.072801 0.06825 0.072801 0.18655v0.45955h-3.9085v-0.25935q0-0.07735 0.03185-0.1638 0.03185-0.091 0.1092-0.1638l1.8519-1.911q0.2366-0.24115 0.42315-0.4641 0.1911-0.22295 0.32305-0.4459 0.13195-0.2275 0.20475-0.45955 0.072801-0.23205 0.072801-0.4914t-0.081901-0.455q-0.077351-0.19565-0.21385-0.32305-0.1365-0.13195-0.32305-0.19565t-0.40495-0.0637q-0.21385 0-0.39585 0.06825-0.182 0.0637-0.32305 0.182-0.14105 0.11375-0.24115 0.27755-0.1001 0.15925-0.1456 0.35035-0.0364 0.1547-0.1274 0.20475-0.086451 0.0455-0.2457 0.02275l-0.39585-0.0637q0.0546-0.41405 0.2184-0.72801 0.16835-0.3185 0.4186-0.53236t0.5733-0.32305q0.3276-0.1092 0.70526-0.1092z"/></g></svg>
