<svg viewBox="0 0 24 24" fill="none" xmlns="http://www.w3.org/2000/svg">
<path d="M8 4V19H20V18H9V5H20V4H8Z" fill="#E6E6E6"/>
<path d="M9 5V18H20V5H9Z" fill="#1E1E1E"/>
<path d="M10 8H20V10H10V8Z" fill="#1E8BCD"/>
<path d="M5.51798 4H2.48202C2.21581 4 2 4.21581 2 4.48202V4.51798C2 4.78419 2.21581 5 2.48202 5H5.51798C5.78419 5 6 4.78419 6 4.51798V4.48202C6 4.21581 5.78419 4 5.51798 4Z" fill="#FB983B"/>
<path d="M5.51798 16H2.48202C2.21581 16 2 16.2158 2 16.482V16.518C2 16.7842 2.21581 17 2.48202 17H5.51798C5.78419 17 6 16.7842 6 16.518V16.482C6 16.2158 5.78419 16 5.51798 16Z" fill="#FB983B"/>
<path d="M5.5 7H1.5C1.22386 7 1 7.22386 1 7.5C1 7.77614 1.22386 8 1.5 8H5.5C5.77614 8 6 7.77614 6 7.5C6 7.22386 5.77614 7 5.5 7Z" fill="#FB983B"/>
<path d="M5.5 10H0.5C0.223858 10 0 10.2239 0 10.5C0 10.7761 0.223858 11 0.5 11H5.5C5.77614 11 6 10.7761 6 10.5C6 10.2239 5.77614 10 5.5 10Z" fill="#FB983B"/>
<path d="M5.5 13H1.5C1.22386 13 1 13.2239 1 13.5C1 13.7761 1.22386 14 1.5 14H5.5C5.77614 14 6 13.7761 6 13.5C6 13.2239 5.77614 13 5.5 13Z" fill="#FB983B"/>
</svg>
