<svg version="1.1" viewBox="0 0 24 24" xmlns="http://www.w3.org/2000/svg">/&amp;amp;amp;amp;gt;<g transform="translate(5 5.4999)" fill-rule="evenodd"><path d="m7 4-1.0198 0.018687-3.9802-0.018687c-0.93183 0.067407-1.2611 0.24659-1.8089 1.0686-0.23537 0.50013-0.18812 1.0061-0.18555 1.1135l-0.00554 5.8179c1.2309-0.66581 2.1877-1.4 3-2.5 0.0025999-0.95071-0.012288-0.98785 0.007811-2.8527-0.0087902-0.74292 0.55572-0.87712 0.99219-1.1473z" fill="#0063b1"/><path d="m2.0605 4.9941c-0.39332 0.029804-0.53712 0.074214-0.60742 0.11523-0.062306 0.036356-0.19328 0.18366-0.37695 0.44336-0.036959 0.097872-0.067651 0.20493-0.076172 0.30469-0.010217 0.11961-0.0038804 0.13872 0 0.30078a0.99434 0.99434 0 0 1 0 0.025391l-0.003906 3.7246c0.32126-0.27552 0.73526-0.48896 1.0117-0.83789-0.0012383-0.61953-0.010693-0.85833 0.0058594-2.4121-0.0073824-0.62394 0.3322-1.234 0.69141-1.5293 0.098439-0.080935 0.12452-0.075221 0.21094-0.13086z" fill="#83beec"/></g><path d="m15.5 8.4999-6 3 3.5 7 6-3z" fill="#fafafa"/><path d="m15.178 9.4667-4.7109 2.3555 2.8555 5.7109 4.7109-2.3555z" fill="#fafafa"/><path d="m13.5 13.5v-5.5c0-2.8278 4-2.5 4 0v3.5" fill="none" stroke="#fafafa"/></svg>
