<svg version="1.1" viewBox="0 0 24 24" xmlns="http://www.w3.org/2000/svg">/&amp;amp;amp;gt;<g transform="translate(4.002,4)"><path d="m0 0v14.5c-3.8442e-4 0.2763 0.2237 0.50038 0.5 0.5h15c0.2763 3.84e-4 0.50038-0.2237 0.5-0.5v-14.5zm1 1h14c-3.93e-4 4.334 0.0011 8.668 2e-3 13.002h-14.004z" fill="#fafafa"/><path d="m6.998 1v3h1v-3zm1 7.9961-1 0.00195v0.0019562h1zm-1 1.0039v4h1v-4z" fill="#c8c6c4"/><g fill="#83beec"><path d="m1 4v1h14v-1zm-2e-3 6-0.001953 1h14.002l2e-3 -1z"/><path d="m0 4h1l-2e-3 7h-1z"/><path d="m15 4h1l-2e-3 7h-1z"/></g><g fill="#1e8bcd"><path d="m11.488 5c-0.37612 0.022631-0.68464 0.51172-0.33008 0.86523l1.1348 1.125-4.7852 0.00781c-0.33895-0.00479-0.50868 0.24892-0.50781 0.50196h-0.00391c-8.674e-4 0.25303 0.16887 0.50674 0.50781 0.50195l4.7852 0.00781-1.1348 1.125c-0.35456 0.35352-0.04604 0.84261 0.33008 0.86524 0.12537 0.0075 0.25879-0.03839 0.37695-0.15625l1.9395-1.9297c0.12554-0.092622 0.20062-0.23853 0.20312-0.39453 1e-4 -0.00683-0.00373-0.012731-0.00391-0.019531h0.0039c1.72e-4 -0.0068 4e-3 -0.012698 0.0039-0.019531-0.0025-0.156-0.07758-0.30191-0.20312-0.39453l-1.9394-1.9297c-0.11816-0.11786-0.25158-0.16379-0.37695-0.15625z"/><path d="m4.5156 5c0.37612 0.022631 0.68464 0.51172 0.33008 0.86523l-1.1348 1.125 4.7852 0.00781c0.33895-0.00479 0.50868 0.24892 0.50781 0.50196h0.0039c8.67e-4 0.25303-0.16887 0.50674-0.50781 0.50195l-4.7852 0.00781 1.1348 1.125c0.35456 0.35352 0.04604 0.84261-0.33008 0.86524-0.12537 0.0075-0.25879-0.038389-0.37695-0.15625l-1.9394-1.9297c-0.12554-0.092622-0.20062-0.23853-0.20312-0.39453-1e-4 -0.00683 0.00373-0.012731 0.00391-0.019531h-0.0039c-1.72e-4 -0.0068-4e-3 -0.012698-0.0039-0.019531 0.0025-0.156 0.07758-0.30191 0.20312-0.39453l1.9394-1.9297c0.11816-0.11786 0.25158-0.16379 0.37695-0.15625z"/></g></g></svg>
