<svg viewBox="0 0 24 24" fill="none" xmlns="http://www.w3.org/2000/svg">
<path d="M4.5 4C4.223 4 4 4.223 4 4.5V15.5C4 15.777 4.223 16 4.5 16H7.5605C7.64868 15.8569 7.7297 15.7083 7.83198 15.5645C7.97449 15.364 8.15627 15.1775 8.35932 15H4.99992V5H18.9999V6.0039C19.0771 5.99172 19.1526 5.97724 19.2421 5.9746C19.4939 5.9674 19.7571 6.04201 19.9999 6.15624V4.50004C19.9999 4.22304 19.7769 4.00004 19.4999 4.00004L4.5 4ZM20 12.6582C19.6288 13.2111 19.2899 13.6762 19 14.0293V15H18.0801C17.8036 15.2627 17.4162 15.6235 16.9883 16H19.5C19.777 16 20 15.777 20 15.5L20 12.6582Z" fill="#E6E6E6"/>
<path d="M5 5V15H8.3594C8.82547 14.5926 9.4456 14.2542 10.2598 14.0586C10.3106 14.0469 10.3621 14.039 10.4141 14.0352C10.4769 14.03 10.5651 14.0268 10.6348 14.0215C10.6716 13.9662 10.6656 13.9001 10.709 13.8477L10.711 13.8437C13.1494 10.4259 14.0161 8.94064 18.2051 6.32224C18.3956 6.2028 18.6388 6.06084 19 6.00388V4.99998L5 5ZM19 14.0293C18.7586 14.3234 18.4298 14.6677 18.0801 15H19V14.0293Z" fill="#2B2B2B"/>
<path d="M7 6V8H15.7734C16.142 7.71395 16.5512 7.41907 17 7.11328V5.99998L7 6Z" fill="#BDBDBD"/>
<path d="M7 9V10H8V9H7ZM9 9V10H13.6133C13.917 9.66067 14.236 9.32749 14.5879 9H9ZM7 11V12H8V11H7ZM9 11V12H12.0332C12.2809 11.6589 12.5417 11.307 12.7812 11H9ZM7 13V14H8V13H7ZM9 13V14H10.6445C10.6686 13.9496 10.671 13.8936 10.709 13.8477L10.7109 13.8438C10.9398 13.5229 11.1111 13.2893 11.3164 13H9Z" fill="#BDBDBD"/>
<path d="M19.271 7C19.0931 7.00524 18.9003 7.09689 18.7495 7.19141C14.6127 9.77691 13.9995 11 11.4995 14.5C11.377 14.6475 11.307 14.825 11.2827 15.0098C11.5273 15.0019 11.778 15.0003 12.0112 15.0118C12.1178 15.034 12.2072 15.067 12.3023 15.0958C12.3062 15.0912 12.3101 15.0867 12.314 15.0821C14.7464 11.6767 15.3216 10.6041 18.9995 8.25589V10.5176C17.016 13.4601 17.8748 12.5479 14.2925 15.6699C14.2918 15.6706 14.2911 15.6712 14.2905 15.6719C13.7891 15.6964 13.5181 15.6982 13.3022 15.6778C13.4081 15.7832 13.5121 15.8983 13.6147 16.0333C13.6958 16.2182 13.7897 16.4393 13.8666 16.6778C14.0183 16.6763 14.152 16.6792 14.3393 16.67C14.5643 16.6589 14.7791 16.5722 14.9487 16.4239C18.5233 13.3085 17.8616 13.9934 19.8296 11.0742C19.9405 10.909 19.9997 10.7146 19.9995 10.5156V8.01561C19.9994 7.45184 19.8345 6.9838 19.271 7Z" fill="#E6E6E6"/>
<path d="M11.2305 15.01C10.9693 15.0197 10.7162 15.0389 10.5 15.0569C8.44334 15.551 8.76294 16.3939 7.21884 18.3792C6.70239 19.0443 7.15798 20.0068 8.00009 20.0081C10.7117 19.8347 11.7402 20.537 13.5782 18.7737C13.6498 18.7024 13.7104 18.6207 13.7579 18.5315C13.921 18.1798 14.0198 17.8489 14.0176 17.5198C14.0139 16.9515 13.7854 16.4213 13.6153 16.0335C13.1737 15.4527 12.7353 15.163 12.0118 15.012C11.7616 14.9997 11.4917 15.0003 11.2305 15.01ZM11.2442 15.9885C11.455 15.9901 11.6754 16.01 11.9102 16.0413C12.556 16.2674 12.9493 16.7041 12.9942 17.5491C12.9947 17.6231 12.9781 17.7265 12.9454 17.8459L9.85157 16.4221C10.304 16.096 10.7478 15.9848 11.2442 15.9885ZM9.18558 17.2151L12.2071 18.6057C11.8043 18.8757 11.477 18.9629 11.0372 18.9983C10.133 18.9891 8.61828 18.9895 8.00198 18.9885C8.60571 18.2123 8.92958 17.6508 9.18558 17.2151Z" fill="#83BEEC"/>
<path d="M9.18549 17.215C8.92949 17.6507 8.60563 18.2122 8.00189 18.9884C8.6181 18.9894 10.1328 18.989 11.0371 18.9982C11.477 18.9628 11.8043 18.8756 12.207 18.6056L9.18549 17.215Z" fill="#0063B1"/>
<path d="M11.2441 15.988C10.7538 15.9843 10.3138 16.1105 9.8671 16.4275L12.9452 17.8455C12.9779 17.726 12.9945 17.6226 12.994 17.5486C12.9492 16.7036 12.5558 16.2669 11.91 16.0408C11.6753 16.0096 11.4549 15.9896 11.2441 15.988Z" fill="#2B2B2B"/>
<path d="M19 8.25591C15.322 10.6041 14.7468 11.6767 12.3145 15.0821C12.3106 15.0867 12.3067 15.0913 12.3028 15.0958C12.7035 15.2169 13.02 15.3963 13.3028 15.6778C13.5187 15.6982 13.7897 15.6965 14.291 15.6719L14.293 15.6699C17.8752 12.548 17.0165 13.4601 19 10.5176V10.5157L19 8.25591Z" fill="#2B2B2B"/>
</svg>
