<svg version="1.1" viewBox="0 0 24 24" xmlns="http://www.w3.org/2000/svg"><g transform="translate(4,4)"><path d="m0 0v16h6v-1h-5v-14h14v5h1v-6z" fill="#fafafa"/><path d="m3 1v4h-2v1h2v4h-2v1h2v4h1v-4h2v-1h-2v-4h11v-1h-2v-4h-1v4h-8v-4z" fill="#c8c6c4"/><path d="m3 10v6h3v-6z" fill="#ff9198"/><path d="m4 11v4h2v-4z" fill="#d42314"/><path d="m3 5v6h3v-5h7v-1z" fill="#a1ddaa"/><path d="m4 6v4h2v-4z" fill="#309048"/><path d="m3 0h10v6h-10z" fill="#ff9198" stroke-width="1.2792"/><path d="m4 1h8v4h-8z" fill="#d42314" stroke-width=".95346"/><path d="m7 7v9h9v-9zm1 1h7v7h-7z" fill="#fafafa"/><path d="m12 9-0.40039 1h-2.5996v1h2.1992l-0.39844 1h-1.8008v1h1.4004l-0.40039 1h1l0.40039-1h2.5996v-1h-2.1992l0.39844-1h1.8008v-1h-1.4004l0.40039-1z" fill="#c8c6c4"/></g></svg>
