<svg version="1.1" viewBox="0 0 24 24" xmlns="http://www.w3.org/2000/svg">/&amp;amp;gt;<path d="m12 4c-1.1018 0.0013128-2.1243 0.18479-3.0703 0.54883-0.94118 0.36535-1.7596 0.87216-2.4531 1.5234-0.6935 0.64334-1.2385 1.4112-1.6348 2.3008-0.38803 0.88161-0.58203 1.8386-0.58203 2.8711 0 0.74659 0.10415 1.4577 0.31055 2.1328 0.21465 0.66716 0.50739 1.278 0.87891 1.834 1.2035 1.5963 2.8322 2.6754 4.5508 3.7891-0.39628-0.03971-3.4034 0-3.7832 0h-2.2168c-0.037805 0.25741 0.18675 0.48572 0.28516 0.72656 0.19814 0.18268 0.46273 0.27344 0.79297 0.27344h5.9219v-2c-0.21429-0.04811-0.43262-0.13493-0.65039-0.2207a6.5 6.5 0 0 1-4.8496-6.2793 6.5 6.5 0 0 1 0.83594-3.1816c0.69777-1.8038 2.3074-3.1433 5.1328-3.2949a6.5 6.5 0 0 1 0.53125-0.023438c3.1776 0 4.9384 1.4149 5.6738 3.3438a6.5 6.5 0 0 1 0.82617 3.1562 6.5 6.5 0 0 1-4.8926 6.293c-0.20339 0.077946-0.4072 0.16207-0.60742 0.20703v2h5.9219c0.33024 0 0.59483-0.09076 0.79297-0.27344 0.098406-0.24084 0.32296-0.46915 0.28516-0.72656h-2.2168c-0.37977 0-3.3869-0.03971-3.7832 0 1.7186-1.1137 3.3473-2.1927 4.5508-3.7891 0.37152-0.55597 0.66425-1.1668 0.87891-1.834 0.2064-0.6751 0.31055-1.3862 0.31055-2.1328 0-1.0325-0.194-1.9895-0.58203-2.8711-0.39628-0.88955-0.94127-1.6574-1.6348-2.3008-0.6935-0.65128-1.5119-1.1581-2.4531-1.5234-0.94602-0.36404-1.9686-0.54752-3.0703-0.54883z" fill="#fafafa"/></svg>
