<svg version="1.1" viewBox="0 0 24 24" xmlns="http://www.w3.org/2000/svg">/&amp;amp;gt;<path d="m11.5 4a7.5 7.5 0 0 0-7.5 7.5 7.5 7.5 0 0 0 0.15234 1.5h1.0371a6.5 6.5 0 0 1-0.16602-1h3.9922c0.00829 0.33391 0.029381 0.66669 0.060547 1h0.99414c-0.03325-0.33325-0.05584-0.66617-0.06445-1h2.998c-0.01346 0.33532-0.04056 0.66817-0.07813 1h0.99219c0.03519-0.33186 0.06143-0.66437 0.07422-1h3.9824a6.5 6.5 0 0 1-0.16797 1h1.0273a7.5 7.5 0 0 0 0.16602-1.5 7.5 7.5 0 0 0-7.5-7.5zm0 1a6.5 6.5 0 0 1 0.17383 0.00977c0.42003 0.98807 0.73383 1.957 0.95312 2.9102-0.73789 0.056856-1.4804 0.063037-2.2246 0.00391 0.2227-0.96918 0.5351-1.9427 0.9375-2.9199a6.5 6.5 0 0 1 0.16016-0.0039144zm1.3086 0.13477a6.5 6.5 0 0 1 3.5312 2.0371c-0.89746 0.29408-1.804 0.50202-2.7168 0.63477-0.19412-0.87993-0.46157-1.7699-0.81445-2.6719zm-2.584 0.00195c-0.33796 0.88829-0.62151 1.7761-0.81836 2.6641-0.89909-0.13634-1.8001-0.35259-2.7031-0.67383a6.5 6.5 0 0 1 3.5215-1.9902zm-4.1699 2.8223c1.0584 0.40081 2.1191 0.66461 3.1777 0.82617-0.12085 0.73886-0.19193 1.4776-0.2168 2.2148h-3.9902a6.5 6.5 0 0 1 1.0293-3.041zm10.932 0.058594a6.5 6.5 0 0 1 0.99219 2.9824h-3.9746c-0.01612-0.72958-0.07677-1.4656-0.19531-2.2109 1.0727-0.15739 2.1354-0.40842 3.1777-0.77148zm-4.1621 0.89453c0.11524 0.70412 0.17236 1.3992 0.18945 2.0879h-3.0039c0.02563-0.69396 0.09035-1.3894 0.20703-2.0859 0.87325 0.075385 1.7437 0.070393 2.6074-0.00195z" fill="#fafafa"/><g transform="translate(4,3)" fill="#1e8bcd"><path d="m4.5 11c-0.831 0-1.5 0.669-1.5 1.5v2c0 0.831 0.669 1.5 1.5 1.5h3c0.65424 0 1.2022-0.41808 1.4082-1h-3.9082c-0.554 0-1-0.40179-1-0.90039v-1.1992c0-0.4986 0.446-0.90039 1-0.90039h3.9082c-0.20601-0.58192-0.75396-1-1.4082-1z"/><path d="m14.5 11c0.831 0 1.5 0.669 1.5 1.5v2c0 0.831-0.669 1.5-1.5 1.5h-3c-0.65424 0-1.2022-0.41808-1.4082-1h3.9082c0.554 0 1-0.40179 1-0.90039v-1.1992c0-0.4986-0.446-0.90039-1-0.90039h-3.9082c0.20601-0.58192 0.75396-1 1.4082-1z"/><path d="m6 13h7v1h-7z"/></g></svg>
