<svg version="1.1" viewBox="0 0 24 24" xmlns="http://www.w3.org/2000/svg"><g transform="translate(2,1)" fill-opacity=".98299"><path d="m7.5 5c-0.277 0-0.5 0.223-0.5 0.5s0.223 0.5 0.5 0.5h10c0.277 0 0.5-0.223 0.5-0.5s-0.223-0.5-0.5-0.5zm0 3c-0.277 0-0.5 0.223-0.5 0.5s0.223 0.5 0.5 0.5h6c0.277 0 0.5-0.223 0.5-0.5s-0.223-0.5-0.5-0.5zm0 5c-0.277 0-0.5 0.223-0.5 0.5s0.223 0.5 0.5 0.5h10c0.277 0 0.5-0.223 0.5-0.5s-0.223-0.5-0.5-0.5zm0 3c-0.277 0-0.5 0.223-0.5 0.5s0.223 0.5 0.5 0.5h6c0.277 0 0.5-0.223 0.5-0.5s-0.223-0.5-0.5-0.5z" fill="#fafafa"/><path d="m6 7a2 2 0 0 1-2 2 2 2 0 0 1-2-2 2 2 0 0 1 2-2 2 2 0 0 1 2 2z" fill="#0063b1"/><path d="m5 7a1 1 0 0 1-1 1 1 1 0 0 1-1-1 1 1 0 0 1 1-1 1 1 0 0 1 1 1z" fill="#83beec"/><path d="m6 15a2 2 0 0 1-2 2 2 2 0 0 1-2-2 2 2 0 0 1 2-2 2 2 0 0 1 2 2z" fill="#0063b1"/><path d="m5 15a1 1 0 0 1-1 1 1 1 0 0 1-1-1 1 1 0 0 1 1-1 1 1 0 0 1 1 1z" fill="#83beec"/></g></svg>
