<svg version="1.1" viewBox="0 0 24 24" xmlns="http://www.w3.org/2000/svg"><path d="m5 4a1.0001 1.0001 0 0 0-1 1v11.998a1.0001 1.0001 0 0 0 0.29297 0.70703l2.002 2.002a1.0001 1.0001 0 0 0 0.70703 0.29297h7.5332a4 4 0 0 1-0.4082-1h-3.127v-3h-2v3h-1v-4h7v0.35352a4 4 0 0 1 3-1.3535 4 4 0 0 1 2 0.53516v-9.5352a1.0001 1.0001 0 0 0-1-1h-14zm3 1h8v4h-8v-4z" fill="#fafafa"/><path d="m5 5v11.998l2 2v-4.998h9v0.53516a4 4 0 0 1 2-0.53516 4 4 0 0 1 1 0.12695v-9.127h-2v5h-10v-5h-2z" fill="#262626"/><path d="m8 5v4h8v-4h-8zm0 10v4h1v-3h2v3h3.127a4 4 0 0 1-0.12695-1 4 4 0 0 1 1-2.6465v-0.35352h-7z" fill="#1e1e1e"/><circle cx="18" cy="18" r="3.2" fill="#0063b1"/><circle cx="18" cy="18" r="2" fill="#83beec"/></svg>
