<svg version="1.1" viewBox="0 0 20 20" xmlns="http://www.w3.org/2000/svg"><g transform="translate(2.0004 3)" fill="#fafafa"><path d="m6.4805 8.6113-1.5293 1.5234-1.9512 3.2339 1 0.63136 3.8066-1.0117 1.5098-1.5449z"/><path d="m13.42 2c-0.18956 0-0.37818 0.07172-0.52344 0.2168l-5.6738 5.6699 2.8477 2.8496 5.7109-5.6387c0.29051-0.29013 0.29051-0.75675 0-1.0469l-1.8359-1.834c-0.14525-0.14506-0.33583-0.2168-0.52539-0.2168zm2e-3 0.99609 1.5781 1.5781-4.9258 4.8613-1.5469-1.5488z"/><g transform="matrix(.29669 0 0 .29669 5.1503 5.5699)"><path d="m-3.8242 9q-0.50781 0-0.78125-0.15625t-0.37109-0.64453l-0.42969-1.7773q-0.74219 0.68359-1.4648 1.2305-0.70312 0.52734-1.4844 0.89844-0.78125 0.37109-1.6797 0.54688-0.89844 0.19531-1.9727 0.19531-1.1133 0-2.0898-0.29297-0.95703-0.3125-1.6992-0.9375-0.72266-0.64453-1.1523-1.582-0.41016-0.95703-0.41016-2.2461 0-1.1328 0.60547-2.168 0.625-1.0547 2.0117-1.875 1.3867-0.82031 3.6133-1.3281 2.2266-0.52734 5.4687-0.60547v-1.4648q0-2.2266-0.95703-3.3398-0.9375-1.1328-2.7539-1.1328-1.2109 0-2.0508 0.3125-0.82031 0.3125-1.4258 0.68359-0.60547 0.37109-1.0547 0.68359-0.42969 0.3125-0.87891 0.3125-0.35156 0-0.60547-0.17578t-0.41016-0.44922l-0.625-1.0938q1.582-1.5234 3.3984-2.2656 1.8359-0.76172 4.0625-0.76172 1.6016 0 2.8516 0.52734 1.25 0.50781 2.0898 1.4648 0.83984 0.95703 1.2695 2.2852 0.44922 1.3281 0.44922 2.9492v12.207zm-7.1484-2.1094q0.85938 0 1.582-0.17578 0.72266-0.17578 1.3672-0.48828 0.64453-0.33203 1.2109-0.80078 0.58594-0.48828 1.1523-1.0742v-3.9453q-2.2852 0.097656-3.8867 0.39062-1.6016 0.27344-2.6172 0.74219-0.99609 0.46875-1.4453 1.1133-0.44922 0.625-0.44922 1.4062 0 0.74219 0.23438 1.2891 0.25391 0.52734 0.66406 0.87891 0.41016 0.33203 0.97656 0.50781 0.56641 0.15625 1.2109 0.15625z"/><path transform="matrix(3.3705 0 0 3.3705 -17.359 -18.773)" d="m6.0332 0v7.7148a1.0033 1.0033 0 0 1 0.21875-0.080078 1.0033 1.0033 0 0 1 0.26172-0.45703l0.53906-0.53906v-2.502c0.19702-0.27042 0.41279-0.4782 0.64844-0.625 0.23951-0.1468 0.51521-0.2207 0.82812-0.2207 0.45585 0 0.80745 0.16182 1.0547 0.48633 0.046662 0.061244 0.085191 0.13481 0.12305 0.20898l0.73633-0.73633c-5e-3 -0.00659-0.0086-0.014973-0.01367-0.021484-0.18543-0.23951-0.40918-0.4233-0.67188-0.55078-0.26269-0.12748-0.55835-0.19141-0.88672-0.19141-0.38631 0-0.72793 0.079936-1.0254 0.24219-0.29746 0.15839-0.56118 0.37611-0.79297 0.65039v-3.3789zm4.3281 7.4707-0.38867 0.38867c0.13996-0.10965 0.2692-0.23374 0.38281-0.37891 0.0023-0.00295 0.0036-0.0068 0.0059-0.00977z" stroke-width=".29669"/></g></g></svg>
