<svg version="1.1" viewBox="0 0 24 24" xmlns="http://www.w3.org/2000/svg">/&amp;amp;amp;amp;gt;<path d="m5 8c-0.554 0-1 0.446-1 1v8c0 0.554 0.446 1 1 1h6.3926l-0.99805-1h-5.3945v-8h5c0-0.34242 0.034039-0.67693 0.099609-1h-5.0996z" fill="#fafafa"/><path d="m15 4c-2.7614 0-5 2.2386-5 5 0 0.94191 0.27571 1.8123 0.72852 2.5645l0.72266-0.72266a4 4 0 0 1-0.45117-1.8418 4 4 0 0 1 0.035156-0.52148 4 4 0 0 1 3.9648-3.4785 4 4 0 0 1 4 4 4 4 0 0 1-1.8945 3.3984l0.7207 0.7207c1.3107-0.90142 2.1738-2.4082 2.1738-4.1191 0-2.7614-2.2386-5-5-5z" fill="#fafafa"/><path d="m13.492 9.0508a0.50005 0.50005 0 0 0-0.3457 0.14648l-4.9492 4.9492a0.50005 0.50005 0 0 0 0 0.70703l4.9492 4.9512a0.50005 0.50005 0 0 0 0.70703 0l4.9492-4.9512a0.50005 0.50005 0 0 0 0-0.70703l-4.9492-4.9492a0.50005 0.50005 0 0 0-0.36133-0.14648zm0.007812 1.207 4.2422 4.2422-4.2422 4.2441-4.2422-4.2441 4.2422-4.2422z" fill="#fafafa"/></svg>
