<svg version="1.1" viewBox="0 0 24 24" xmlns="http://www.w3.org/2000/svg"><path d="m9.2503 4c1.2156 0 2.4319 0.46313 3.3594 1.3906 0.05778 0.060197 0.09782 0.11458 0.15234 0.17773l0.0078-0.00781 5.7305 5.7285v-4.2891h1v6h-6v-1h4.2969l-5.7344-5.7324-0.0059 0.0059c-0.05451-0.0631-0.11122-0.12427-0.16987-0.18359-1.4645-1.4645-3.8246-1.4567-5.2891 0.0078s-1.4645 3.8402 0 5.3047c0.06027 0.05776 0.12351 0.1124 0.1875 0.16602l-0.0098 0.0098 6.3633 6.3652 1.3516 1.3496-0.707 0.70697-1.3516-1.3496-6.3633-6.3652 0.0059-0.0059c-0.06226-0.05547-0.12434-0.11125-0.18359-0.16992-1.855-1.855-1.855-4.8638 0-6.7187 0.92745-0.92745 2.1437-1.3906 3.3593-1.3906z" fill="#1e8bcd"/></svg>
