<?xml-stylesheet type="text/css" href="icons.css" ?>
<svg version="1.1" viewBox="0 0 20 20" xmlns="http://www.w3.org/2000/svg"><path d="m9.0566 3-5.0566 14h1.4453c0.15726 0 0.29099-0.04633 0.40039-0.13867 0.11624-0.09234 0.1953-0.19956 0.23633-0.32031l0.86133-2.541h6.1172l0.86719 2.5527c0.0547 0.12785 0.13084 0.23508 0.22656 0.32031 0.10256 0.085235 0.23629 0.12695 0.40039 0.12695h1.4453l-5.0469-14zm0.94336 1.832c0.06154 0.26281 0.12694 0.50903 0.19531 0.73633 0.06838 0.2273 0.1367 0.42523 0.20508 0.5957l1.9824 5.8359h-4.7598l1.9766-5.8242c0.06154-0.17047 0.12694-0.37036 0.19531-0.59766 0.06838-0.2273 0.1367-0.47618 0.20508-0.74609z" fill="#fafafa"/></svg>
