<svg version="1.1" viewBox="0 0 24 24" xmlns="http://www.w3.org/2000/svg"><g transform="matrix(-1,0,0,1,-1,0)" fill="#fafafa"><rect x="-12" y="11" width="7" height="1" rx=".5" ry=".5" fill="#fafafa"/><rect x="-14" y="15" width="9" height="1" rx=".5" ry=".5"/><rect x="-14" y="7" width="9" height="1" rx=".5" ry=".5"/></g><path d="m17.355 8.1456c0.12781 0 0.25558 0.048549 0.35352 0.14648 0.19587 0.19587 0.19587 0.51312 0 0.70898l-2.0022 1.9989h3.7932c0.277 0 0.5 0.223 0.5 0.5s-0.223 0.5-0.5 0.5h-3.7932l2.0022 2.0022c0.19587 0.19587 0.19587 0.51312 0 0.70898-0.09793 0.09793-0.22571 0.14648-0.35352 0.14648s-0.25754-0.04855-0.35547-0.14648l-2.8537-2.8577c-0.04701-0.04701-0.08407-0.10324-0.10938-0.16602-0.02334-0.0579-0.03711-0.12105-0.03711-0.1875s0.01377-0.1296 0.03711-0.1875c0.0253-0.06278 0.06236-0.119 0.10938-0.16602l2.8537-2.8544c0.09793-0.09793 0.22766-0.14648 0.35547-0.14648z" fill="#1e8bcd"/></svg>
