<svg version="1.1" viewBox="0 0 24 24" xmlns="http://www.w3.org/2000/svg"><g transform="translate(4 3.9999)"><path d="m0.5 0c-0.27614 0-0.5 0.22386-0.5 0.5 8.95e-6 0.02947 0.0026233 0.058881 0.0078125 0.087891h-0.0078125v10.912c2.761e-5 0.27613 0.22387 0.49997 0.5 0.5h2.5v3.5c7.774e-4 0.43089 0.5098 0.65912 0.83203 0.37305l4.3574-3.873h7.3105c0.27613-2.8e-5 0.49997-0.22387 0.5-0.5v-11c-2.8e-5 -0.27613-0.22387-0.49997-0.5-0.5zm0.5 1h14v10h-7c-0.12249 2.23e-4 -0.24064 0.0454-0.33203 0.12695l-3.668 3.2598v-2.8867c-2.76e-5 -0.27613-0.22387-0.49997-0.5-0.5h-2.5v-10z" fill="#fafafa"/></g></svg>
