<svg version="1.1" viewBox="0 0 24 24" xmlns="http://www.w3.org/2000/svg"><g transform="translate(4 4.0283)"><path d="m0.4668 15c-0.25822 0-0.4668 0.20858-0.4668 0.4668v0.06641c0 0.25822 0.20858 0.46679 0.4668 0.46679h6.8203l-0.83008-0.83008c-0.052294-0.052265-0.093588-0.11192-0.13672-0.16992z" fill="#fafafa"/><path d="m11.134 14.042 4.8658-4.9794-3.5-3.563-4.9369 4.9193z" fill="#ff9198" stroke-width=".7494"/><path d="m8.9321 16c0.14201 0 0.28331-0.05377 0.39212-0.16253l1.8099-1.7951-3.5799-3.6363-1.8377 1.7717c-0.21762 0.2175-0.21762 0.56731 0 0.78482l2.822 2.8749c0.10881 0.10875 0.25158 0.16253 0.39358 0.16253z" fill="#ff9198" stroke-width=".7494"/><path d="m7.1348-0.056641-7.1348 14.057h1.4648c0.1569 0 0.29672-0.04332 0.41797-0.12891 0.12124-0.09272 0.21052-0.19907 0.26758-0.32031l1.752-3.5508h2.0977l2-2h-3.1113l2.4492-4.9648c0.078452-0.17117 0.1651-0.37138 0.25781-0.59961s0.18921-0.47176 0.28906-0.72852c0.03566 0.25675 0.074395 0.50029 0.11719 0.72852 0.049924 0.22109 0.093246 0.41672 0.12891 0.58789l0.94922 3.8965 1.4277-1.4277-1.457-5.5488z" fill="#fafafa"/><path d="m12.557 6.7399-3.7611 3.7462 2.275 2.3091 3.7078-3.7952z" fill="#d42314" stroke-width=".81809"/></g></svg>
