<svg viewBox="0 0 24 24" fill="none" xmlns="http://www.w3.org/2000/svg">
<path d="M5 5V19H19V5H5Z" fill="#2B2B2B"/>
<path d="M5 4C4.446 4 4 4.446 4 5V19C4 19.554 4.446 20 5 20H19C19.554 20 20 19.554 20 19V5C20 4.446 19.554 4 19 4H5ZM5 5H19V19H5V5Z" fill="#E6E6E6"/>
<path d="M15 4C14.446 4 14 4.446 14 5V19C14 19.554 14.446 20 15 20H19C19.554 20 20 19.554 20 19V5C20 4.446 19.554 4 19 4H15ZM15 5H19V19H15V5Z" fill="#83BEEC"/>
<path d="M15 5V19H19V5H15Z" fill="#0063B1"/>
<path d="M10.3557 10.1457C10.4835 10.1457 10.6113 10.1943 10.7092 10.2922C10.9051 10.4881 10.9051 10.8053 10.7092 11.0012L8.70701 13.0001H12.5002C12.7772 13.0001 13.0002 13.2231 13.0002 13.5001C13.0002 13.7771 12.7772 14.0001 12.5002 14.0001H8.70701L10.7092 16.0023C10.9051 16.1981 10.9051 16.5154 10.7092 16.7112C10.6113 16.8092 10.4835 16.8577 10.3557 16.8577C10.2279 16.8577 10.0982 16.8092 10.0002 16.7112L7.14652 13.8535C7.09951 13.8065 7.06245 13.7503 7.03714 13.6875C7.0138 13.6296 7.00003 13.5665 7.00003 13.5C7.00003 13.4336 7.0138 13.3704 7.03714 13.3125C7.06244 13.2497 7.0995 13.1935 7.14652 13.1465L10.0002 10.2921C10.0982 10.1942 10.2279 10.1457 10.3557 10.1457Z" fill="#1E8BCD"/>
</svg>
