<svg viewBox="0 0 24 24" fill="none" xmlns="http://www.w3.org/2000/svg">
<path d="M22 3L3 22L2 21L21 2L22 3Z" fill="#FAFAFA"/>
<path fill-rule="evenodd" clip-rule="evenodd" d="M14.2959 11.7061L15.6875 10.3145C15.7139 10.5463 15.7305 10.79 15.7305 11.0459C15.7305 11.6618 15.6548 12.2207 15.5049 12.7227C15.3549 13.2245 15.1402 13.6566 14.8604 14.0186C14.5814 14.3756 14.2418 14.6516 13.8438 14.8486C13.4448 15.0456 12.9979 15.1436 12.501 15.1436C12.004 15.1436 11.5879 15.0512 11.252 14.8652C11.2387 14.8575 11.2259 14.8487 11.2132 14.8399C11.2031 14.8328 11.193 14.8258 11.1826 14.8193L11.9248 14.0771C12.0016 14.0843 12.0801 14.0889 12.1602 14.0889C12.858 14.0888 13.3937 13.8378 13.7656 13.3359C14.0575 12.9432 14.2325 12.3995 14.2959 11.7061ZM13.3594 8.64258L14.29 7.71191C14.2162 7.66595 14.1396 7.62337 14.0605 7.58496C13.7086 7.41407 13.3129 7.3291 12.874 7.3291C12.356 7.3291 11.898 7.43827 11.5 7.65527C11.1021 7.86726 10.7465 8.1565 10.4365 8.52344V4H9.07129V12.9316L10.4365 11.5664V9.54102C10.7004 9.17915 10.9898 8.89911 11.3057 8.70312C11.6267 8.50613 11.997 8.4082 12.416 8.4082C12.7806 8.40821 13.0943 8.48735 13.3594 8.64258ZM6.9834 15.0195V10.1846C6.98337 9.75469 6.92366 9.36461 6.80469 9.0127C6.69069 8.66081 6.52275 8.35843 6.2998 8.10449C6.07785 7.85065 5.80059 7.65641 5.46973 7.52246C5.13882 7.38257 4.76075 7.3125 4.33691 7.3125C3.74695 7.31251 3.20863 7.41422 2.72266 7.61621C2.24087 7.81319 1.7909 8.11282 1.37207 8.51562L1.62109 8.95117C1.66208 9.02306 1.71626 9.08296 1.78418 9.12891C1.85115 9.17584 1.93148 9.19922 2.02441 9.19922C2.14323 9.19912 2.26022 9.15804 2.37305 9.0752C2.49205 8.9922 2.63199 8.90173 2.79199 8.80273C2.95298 8.70475 3.1424 8.61522 3.35938 8.53223C3.5813 8.4493 3.85301 8.40822 4.17383 8.4082C4.65457 8.4082 5.01959 8.55774 5.26758 8.85742C5.52153 9.15237 5.64839 9.59472 5.64844 10.1846V10.7666C4.79044 10.7876 4.06461 10.8678 3.47461 11.0078C2.88577 11.1418 2.40697 11.3182 2.04004 11.5352C1.67209 11.7531 1.40622 12.0013 1.24023 12.2803C1.08036 12.5541 1.00005 12.8418 1 13.1416C1 13.4826 1.05409 13.7812 1.16309 14.0342C1.27607 14.2831 1.42917 14.4922 1.62109 14.6631C1.81705 14.828 2.04197 14.9532 2.2959 15.0352C2.55389 15.1132 2.83099 15.1523 3.12598 15.1523C3.41098 15.1523 3.67216 15.1262 3.91016 15.0742C4.14812 15.0282 4.37017 14.9544 4.57715 14.8564C4.78402 14.7585 4.9811 14.6399 5.16699 14.5C5.35899 14.355 5.55302 14.1917 5.74902 14.0107L5.91992 14.7168C5.94592 14.8468 5.99538 14.9317 6.06738 14.9727C6.14036 15.0146 6.24308 15.0351 6.37793 15.0352H6.96777L6.9834 15.0195ZM21.5967 7.59277C21.2088 7.41689 20.756 7.32913 20.2393 7.3291C19.6903 7.3291 19.2042 7.42708 18.7803 7.62402C18.3613 7.81502 18.0058 8.08368 17.7158 8.43066C17.4319 8.77763 17.2155 9.19092 17.0645 9.67285C16.9145 10.1487 16.8389 10.6686 16.8389 11.2324C16.8389 11.8523 16.9201 12.4066 17.0801 12.8926C17.2461 13.3746 17.4709 13.7831 17.7549 14.1201C18.0449 14.4511 18.3845 14.7039 18.7725 14.8799C19.1604 15.0558 19.5766 15.1436 20.0215 15.1436C20.2803 15.1435 20.5344 15.1212 20.7822 15.0742C21.035 15.0282 21.2789 14.9581 21.5107 14.8652C21.7437 14.7662 21.9621 14.645 22.1631 14.5C22.3651 14.35 22.5489 14.1737 22.7139 13.9717L22.3193 13.4746C22.2564 13.3867 22.1742 13.3438 22.0703 13.3438C21.9773 13.3438 21.8868 13.382 21.7988 13.46C21.7159 13.5379 21.6102 13.623 21.4805 13.7158C21.3515 13.8088 21.191 13.8947 20.999 13.9717C20.808 14.0497 20.5617 14.0889 20.2617 14.0889C19.9519 14.0888 19.6717 14.0263 19.4238 13.9023C19.1748 13.7733 18.9631 13.5868 18.7871 13.3438C18.6112 13.0998 18.474 12.803 18.376 12.4512C18.283 12.0942 18.2363 11.6874 18.2363 11.2324C18.2364 10.7926 18.2802 10.3968 18.3682 10.0449C18.4611 9.69314 18.5928 9.39624 18.7637 9.15332C18.9397 8.90432 19.157 8.71494 19.416 8.58594C19.68 8.45194 19.9832 8.38379 20.3242 8.38379C20.5829 8.38381 20.7997 8.41467 20.9756 8.47754C21.1564 8.53946 21.3097 8.60864 21.4336 8.68652C21.5576 8.75852 21.6611 8.82667 21.7441 8.88867C21.8271 8.95067 21.9074 8.98145 21.9854 8.98145C22.0572 8.9814 22.1125 8.96932 22.1484 8.94336C22.1894 8.91236 22.2315 8.86753 22.2725 8.81055L22.6289 8.31445C22.329 8.00358 21.9846 7.76372 21.5967 7.59277ZM4.10352 11.7754C4.52752 11.6974 5.04344 11.6461 5.64844 11.6211V13.1875C5.49846 13.3435 5.34638 13.4862 5.19141 13.6152C5.04043 13.7392 4.87995 13.8446 4.70898 13.9326C4.53898 14.0156 4.35802 14.081 4.16602 14.127C3.97505 14.1739 3.76507 14.1973 3.53711 14.1973C3.36711 14.1973 3.20566 14.1758 3.05566 14.1348C2.90581 14.0888 2.77689 14.0206 2.66797 13.9326C2.56009 13.8397 2.47225 13.7238 2.4043 13.584C2.34234 13.4391 2.31059 13.2681 2.31055 13.0723C2.31055 12.8653 2.37123 12.6787 2.49023 12.5127C2.60925 12.3418 2.80057 12.1952 3.06445 12.0713C3.33334 11.9474 3.67981 11.8474 4.10352 11.7754Z" fill="#FAFAFA"/>
<path fill-rule="evenodd" clip-rule="evenodd" d="M8.69629 17.3008L7.875 18.1211L9.59863 20L12.0869 17.6367L14.0127 19.5645L14.4131 20L14.8135 19.5645L16.7422 17.6367L17.3418 18.2334L18.6729 19.5654L19.0732 20.001L19.4736 19.5654L21.8018 17.2373C21.9727 17.1313 22.0781 16.9431 22.0781 16.7422C22.0781 16.4233 21.815 16.1603 21.4961 16.1602C21.2952 16.1602 21.107 16.2648 21.001 16.4355L19.0732 18.3643L17.1396 16.4355L16.7422 16L16.3408 16.4355L14.4131 18.3633L12.4863 16.4355L12.0869 16L11.6865 16.4355L9.75879 18.3633L8.69629 17.3008ZM3.56836 18.4287L4.36914 17.6279L3.17676 16.4355C3.07071 16.2638 2.88348 16.1592 2.68164 16.1592C2.36275 16.1593 2.09961 16.4223 2.09961 16.7412C2.09968 16.9431 2.20503 17.1304 2.37598 17.2363L3.56836 18.4287Z" fill="#ED3D3B"/>
</svg>
