<svg viewBox="0 0 32 32" xmlns="http://www.w3.org/2000/svg">
  <path
     d="m16 3a13 13 0 0 0 -13 13 13 13 0 0 0 13 13 13 13 0 0 0 13-13 13 13 0 0 0 -13-13zm0 1a12 12 0 0 1 12 12 12 12 0 0 1 -12 12 12 12 0 0 1 -12-12 12 12 0 0 1 12-12z"
     fill="#fafafa" />
  <path
     d="m 17.640625,7.0019531 c 0.6538,-0.022178 1.227738,0.5203953 1.318359,1.1796875 C 19.250991,9.4477853 17.94921,10.715656 16.753906,10.208984 15.280573,9.5020943 16.090228,6.9169111 17.640625,7.0019531 Z M 16.976562,12.6875 c 0.749104,0.06362 1.127403,1.139401 0.738282,2.035156 -0.563784,2.597531 -1.447793,5.117918 -1.923828,7.736328 0.229954,1.03383 1.47039,-0.22046 2.037109,-0.486328 0.431604,-0.517808 0.535202,0.05132 0.691406,0.447266 -1.14482,0.82911 -2.264136,1.734179 -3.566406,2.289062 -1.225165,0.863683 -2.399565,-0.339849 -1.882813,-1.667968 0.494197,-2.425591 1.138929,-4.818188 1.669922,-7.236328 0.165937,-1.306794 -1.491399,0.02767 -1.986328,0.332031 C 12.354699,16.655249 12.166504,16.276433 12,15.808594 13.326693,14.807039 14.597632,13.689907 16.117188,13.005859 16.43428,12.75886 16.726866,12.6663 16.976562,12.6875 Z"
     fill="#fafafa" />
</svg>
