<svg viewBox="0 0 24 24" xmlns="http://www.w3.org/2000/svg"><path d="m.5 2.75v19h23v-19h-3v15h-4.619141c-.884719.000274-1.704628.300018-2.361328.804688-.0018.0014-.004.0025-.0059.0039-.10079.07774-.196403.160877-.289063.248047-.08809.08287-.171853.170898-.251953.261718-.01531.01733-.02991.03514-.04492.05273-.06504.07643-.12842.154868-.1875.236328-.01872.02577-.03658.05186-.05469.07813-.05327.07738-.102701.156891-.150391.238281-.01612.02747-.03336.05412-.04883.08203-.04302.07778-.08139.157262-.11914.238282-.01971.04217-.04037.08395-.05859.126953-.02831.06703-.0535.136118-.07813.205078-.01833.05119-.03649.102087-.05274.154297-.02349.07575-.04356.152709-.0625.230469-.01133.04639-.0255.09161-.03516.138671-.0258.12606-.04519.254286-.05859.384766-.0079.005114-.013434.010632-.021434.015632-.008-.005-.01352-.01056-.02148-.01563-.0134-.13048-.0328-.258706-.05859-.384766-.0097-.04706-.02383-.09229-.03516-.138671-.01894-.07775-.03901-.154719-.0625-.230469-.01623-.05221-.03439-.103097-.05274-.154297-.02462-.06896-.04982-.138048-.07813-.205078-.01823-.04301-.03889-.08479-.05859-.126953-.03775-.08102-.07612-.160512-.11914-.238282-.01547-.02791-.0327-.05456-.04883-.08203-.04769-.08139-.09712-.160901-.150391-.238281-.0181-.02625-.03596-.05234-.05469-.07813-.05908-.08146-.12246-.159898-.1875-.236328-.01501-.01761-.02961-.03542-.04492-.05273-.0801-.09082-.163863-.178838-.251953-.261718-.09266-.08717-.188273-.170307-.289063-.248047-.0019-.0014-.004-.0025-.0059-.0039-.6566636-.504672-1.4765833-.80442-2.3612824-.80469h-4.6191406v-15zm7.6191406 0c1.9893984.000617 3.6560754 1.505377 3.8593754 3.484375.008.00504.013484.010625.021484.015625.008-.005.013524-.010585.021484-.015625.10163-.989479.568967-1.8606756 1.259766-2.484375.690769-.6236494 1.60491-.99969 2.599609-1z" fill="#83beec"/><path d="m1.5 3.75v16h10.009766c-.01456-.02569-.02998-.05073-.04492-.07617-.04769-.08139-.09712-.160901-.150391-.238281-.0181-.02625-.03596-.05234-.05469-.07813-.05908-.08146-.12246-.159898-.1875-.236328-.01501-.01761-.02961-.03542-.04492-.05273-.0801-.09082-.163863-.178838-.251953-.261718-.09266-.08717-.188273-.170307-.289063-.248047-.0019-.0014-.004-.0025-.0059-.0039-.6566696-.504678-1.4765893-.804426-2.3612884-.804696h-4.6191406v-14zm9.21875 0c.690762.6236473 1.158116 1.494876 1.259766 2.484375.008.00504.013484.010625.021484.015625.008-.005.013524-.010585.021484-.015625.10163-.989479.568967-1.8606756 1.259766-2.484375zm9.78125 0v14h-4.619141c-.884719.000274-1.704628.300018-2.361328.804688-.0018.0014-.004.0025-.0059.0039-.10079.07774-.196403.160877-.289063.248047-.08809.08287-.171853.170898-.251953.261718-.01531.01733-.02991.03514-.04492.05273-.06504.07643-.12842.154868-.1875.236328-.01872.02577-.03658.05186-.05469.07813-.05327.07738-.102701.156891-.150391.238281-.01493.02545-.03036.05048-.04492.07617h10.009806v-16z" fill="#0063b1"/><g fill="#fafafa"><path d="m11.5 4.7504h1v17h-1z" stroke-width="1.0607"/><path d="m2.5 1.75v17h.58594l5.0312.002h.00586c.98658.0019 1.8583.49376 2.377 1.2559.000811.0012.0011.0027.002.0039.12702.18724.23147.39113.3125.60742.0015.0041.0043.0076.0059.01172.0028.0076.0031.01585.0059.02344.03243.0901.06044.18296.08398.27734.0061.02473.01404.04922.01953.07422.02389.10798.0431.21725.05469.33008.03085.30426.19923.57768.45703.74219-.09337-.05953-.08529-.05209.0293.01953.20246.12629.43813.17415.66602.14258.13673-.01894.2711-.06681.39258-.14258.11459-.07162.12267-.07906.0293-.01953.2578-.1645.42618-.43793.45703-.74219.01159-.11283.0308-.22209.05469-.33008.0055-.025.01341-.04949.01953-.07422.02354-.09438.05156-.18725.08398-.27734.0042-.01165.0074-.02358.01172-.03516.08103-.21629.18548-.42018.3125-.60742.000812-.0012.0011-.0027.002-.0039.51864-.7621 1.3904-1.254 2.377-1.2559h.0059l5.617-.0022v-17h-5.6191c-.10022.0000311-.20039.00332-.29883.00977-1.3781.090204-2.5736.79772-3.4082 1.8223-.05961.073178-.11798.1483-.17383.2246-.89362-1.2209-2.2774-2.0561-3.8809-2.0566zm1 1h4.6191c1.9894.000617 3.6561 1.5054 3.8594 3.4844.008.00504.01348.010625.02148.015625.008-.005.01352-.010585.02148-.015625.10163-.98948.569-1.8607 1.2598-2.4844.69077-.62365 1.6049-.99969 2.5996-1h4.6191v15h-4.6191c-.88472.000274-1.7046.30002-2.3613.80469-.0018.0014-.004.0025-.0059.0039-.10079.07774-.1964.16088-.28906.24805-.08809.08287-.17185.1709-.25195.26172-.01531.01733-.02991.03513-.04492.05273-.06504.07643-.12842.15487-.1875.23633-.01872.02577-.03658.05187-.05469.07813-.05327.07738-.1027.15689-.15039.23828-.01612.02747-.03336.05412-.04883.08203-.04302.07778-.08139.15726-.11914.23828-.01971.04217-.04037.08395-.05859.12695-.02831.06703-.05351.13612-.07813.20508-.01833.05119-.0365.10209-.05274.1543-.02349.07575-.04356.15271-.0625.23047-.01133.04639-.0255.09161-.03516.13867-.0258.12606-.04519.25429-.05859.38477-.0079.0051-.01343.01063-.02143.01563-.008-.005-.01352-.01056-.02148-.01563-.0134-.13048-.0328-.25871-.05859-.38477-.0097-.04706-.02383-.09229-.03516-.13867-.01894-.07775-.03901-.15472-.0625-.23047-.01623-.05221-.0344-.1031-.05274-.1543-.02462-.06896-.04982-.13805-.07813-.20508-.01823-.04301-.03889-.08479-.05859-.12695-.03775-.08102-.07612-.16051-.11914-.23828-.01547-.02791-.0327-.05456-.04883-.08203-.04769-.08139-.09712-.1609-.15039-.23828-.0181-.02625-.03596-.05235-.05469-.07813-.05908-.08146-.12246-.1599-.1875-.23633-.01501-.01761-.02961-.03541-.04492-.05273-.0801-.09082-.16386-.17884-.25195-.26172-.09266-.08717-.18827-.17031-.28906-.24805-.0019-.0014-.004-.0025-.0059-.0039-.65671-.50467-1.4766-.80442-2.3613-.80469h-4.6191v-8z" fill-rule="evenodd"/></g></svg>