<svg viewBox="0 0 24 24" fill="none" xmlns="http://www.w3.org/2000/svg">
<path d="M6.52094 15.0319C6.38594 15.0319 6.28294 15.0119 6.20994 14.9699C6.13794 14.9289 6.08894 14.8439 6.06294 14.7139L5.89194 14.0079C5.69594 14.1889 5.50194 14.3519 5.30994 14.4969C5.12394 14.6369 4.92694 14.7559 4.71994 14.8539C4.51294 14.9519 4.29094 15.0249 4.05294 15.0709C3.81494 15.1229 3.55394 15.1489 3.26894 15.1489C2.97394 15.1489 2.69694 15.1099 2.43894 15.0319C2.18494 14.9499 1.95994 14.8249 1.76394 14.6599C1.57194 14.4889 1.41894 14.2799 1.30594 14.0309C1.19694 13.7779 1.14294 13.4799 1.14294 13.1389C1.14294 12.8389 1.22294 12.5509 1.38294 12.2769C1.54894 11.9979 1.81494 11.7499 2.18294 11.5319C2.54994 11.3149 3.02894 11.1389 3.61794 11.0049C4.20794 10.8649 4.93294 10.7849 5.79094 10.7639V10.1819C5.79094 9.59191 5.66494 9.14991 5.41094 8.85491C5.16294 8.55491 4.79794 8.40491 4.31694 8.40491C3.99594 8.40491 3.72394 8.44591 3.50194 8.52891C3.28494 8.61191 3.09594 8.70191 2.93494 8.79991C2.77494 8.89891 2.63494 8.98891 2.51594 9.07191C2.40294 9.15491 2.28594 9.19591 2.16694 9.19591C2.07394 9.19591 1.99394 9.17291 1.92694 9.12591C1.85894 9.07991 1.80494 9.01991 1.76394 8.94791L1.51494 8.51291C1.93394 8.10991 2.38394 7.80991 2.86594 7.61291C3.35194 7.41091 3.88994 7.30991 4.47994 7.30991C4.90394 7.30991 5.28194 7.37991 5.61294 7.51991C5.94394 7.65391 6.22094 7.84791 6.44294 8.10191C6.66594 8.35591 6.83394 8.65791 6.94794 9.00991C7.06694 9.36191 7.12594 9.75191 7.12594 10.1819V15.0319H6.52094ZM3.67994 14.1939C3.90794 14.1939 4.11794 14.1709 4.30894 14.1239C4.50094 14.0779 4.68194 14.0129 4.85194 13.9299C5.02294 13.8419 5.18294 13.7359 5.33394 13.6119C5.48894 13.4829 5.64094 13.3409 5.79094 13.1849V11.6179C5.18594 11.6429 4.67094 11.6949 4.24694 11.7729C3.82294 11.8449 3.47594 11.9439 3.20694 12.0679C2.94294 12.1919 2.75194 12.3389 2.63294 12.5099C2.51394 12.6759 2.45394 12.8619 2.45394 13.0689C2.45394 13.2649 2.48494 13.4359 2.54694 13.5809C2.61494 13.7209 2.70294 13.8369 2.81094 13.9299C2.91994 14.0179 3.04894 14.0859 3.19894 14.1319C3.34894 14.1729 3.50994 14.1939 3.67994 14.1939Z" fill="#FAFAFA"/>
<path d="M9.21399 15.0319V3.99692H10.58V8.52092C10.89 8.15392 11.245 7.86392 11.643 7.65192C12.041 7.43492 12.499 7.32592 13.017 7.32592C13.456 7.32592 13.852 7.41092 14.204 7.58192C14.556 7.75292 14.856 7.99892 15.104 8.31892C15.353 8.63992 15.542 9.03092 15.671 9.49092C15.805 9.94592 15.873 10.4639 15.873 11.0429C15.873 11.6589 15.798 12.2179 15.648 12.7199C15.498 13.2219 15.283 13.6539 15.003 14.0159C14.724 14.3729 14.385 14.6489 13.987 14.8459C13.588 15.0429 13.141 15.1409 12.644 15.1409C12.147 15.1409 11.731 15.0479 11.395 14.8619C11.064 14.6699 10.769 14.4059 10.51 14.0699L10.432 14.7449C10.412 14.9369 10.3 15.0319 10.099 15.0319H9.21399ZM12.559 8.40492C12.14 8.40492 11.77 8.50292 11.449 8.69992C11.133 8.89592 10.844 9.17592 10.58 9.53792V13.2009C10.818 13.5269 11.079 13.7569 11.364 13.8919C11.648 14.0209 11.961 14.0859 12.303 14.0859C13.001 14.0859 13.537 13.8349 13.909 13.3329C14.282 12.8309 14.468 12.0829 14.468 11.0899C14.468 10.1689 14.302 9.49092 13.971 9.05692C13.64 8.62192 13.169 8.40492 12.559 8.40492Z" fill="#FAFAFA"/>
<path d="M22.4149 8.80793C22.3739 8.86493 22.3319 8.90893 22.2909 8.93993C22.2549 8.96593 22.1999 8.97893 22.1279 8.97893C22.0499 8.97893 21.9699 8.94793 21.8869 8.88593C21.8039 8.82393 21.7009 8.75593 21.5769 8.68393C21.4529 8.60593 21.2999 8.53693 21.1189 8.47493C20.9429 8.41193 20.7259 8.38093 20.4669 8.38093C20.1259 8.38093 19.8229 8.44893 19.5589 8.58293C19.2999 8.71193 19.0829 8.90093 18.9069 9.14993C18.7359 9.39293 18.6039 9.68993 18.5109 10.0419C18.4229 10.3939 18.3789 10.7899 18.3789 11.2299C18.3789 11.6849 18.4259 12.0909 18.5189 12.4479C18.6169 12.7999 18.7539 13.0969 18.9299 13.3409C19.1059 13.5839 19.3179 13.7699 19.5669 13.8989C19.8149 14.0229 20.0949 14.0859 20.4049 14.0859C20.7049 14.0859 20.9509 14.0469 21.1419 13.9689C21.3339 13.8919 21.4939 13.8059 21.6229 13.7129C21.7529 13.6199 21.8589 13.5349 21.9419 13.4569C22.0299 13.3789 22.1199 13.3409 22.2129 13.3409C22.3169 13.3409 22.3989 13.3839 22.4619 13.4719L22.8569 13.9689C22.6919 14.1709 22.5079 14.3469 22.3059 14.4969C22.1049 14.6419 21.8869 14.7629 21.6539 14.8619C21.4219 14.9549 21.1779 15.0249 20.9249 15.0709C20.6769 15.1179 20.4229 15.1409 20.1639 15.1409C19.7189 15.1409 19.3029 15.0529 18.9149 14.8769C18.5269 14.7009 18.1879 14.4479 17.8979 14.1169C17.6139 13.7799 17.3889 13.3719 17.2229 12.8899C17.0629 12.4039 16.9819 11.8499 16.9819 11.2299C16.9819 10.6659 17.0569 10.1459 17.2069 9.66993C17.3579 9.18793 17.5749 8.77493 17.8589 8.42793C18.1489 8.08093 18.5039 7.81193 18.9229 7.62093C19.3469 7.42393 19.8329 7.32593 20.3819 7.32593C20.8989 7.32593 21.3519 7.41393 21.7399 7.58993C22.1279 7.76093 22.4719 8.00093 22.7719 8.31193L22.4149 8.80793Z" fill="#FAFAFA"/>
<path fill-rule="evenodd" clip-rule="evenodd" d="M17.4848 18.2359L17.4818 18.2389L16.8848 17.6399L14.9568 19.5669L14.5558 20.0029L14.1558 19.5669L12.2298 17.6399L9.7418 20.0029L7.5738 17.6399L5.6478 19.5669L5.2478 20.0029L4.8468 19.5669L2.5188 17.2389C2.3478 17.1329 2.2428 16.9459 2.2428 16.7439C2.2428 16.4249 2.5058 16.1619 2.8248 16.1619C3.0268 16.1619 3.2138 16.2669 3.3198 16.4389L5.2478 18.3659L7.1758 16.4389L7.5738 16.0029L7.9738 16.4389L9.9018 18.3659L11.8298 16.4389L12.2298 16.0029L12.6288 16.4389L14.5558 18.3659L16.4838 16.4389L16.8848 16.0029L17.2828 16.4389L17.2868 16.4429L17.2888 16.4389L19.2158 18.3669L21.1438 16.4389C21.2498 16.2679 21.4378 16.1629 21.6388 16.1629C21.9578 16.1629 22.2208 16.4259 22.2208 16.7449C22.2208 16.9459 22.1158 17.1339 21.9448 17.2399L19.6168 19.5679L19.2158 20.0039L18.8158 19.5679L17.4848 18.2359Z" fill="#ED3D3B"/>
</svg>
