<svg viewBox="0 0 24 24" xmlns="http://www.w3.org/2000/svg" xmlns:xlink="http://www.w3.org/1999/xlink" shape-rendering="geometricPrecision" text-rendering="geometricPrecision" project-id="8c159c4d40d042e6a4359fa6817c981f" export-id="45431e62e2fb40779740b946aaded92a" cached="false"><path d="M4,6c.057859.15757-.018388.287103-.018388.461993s.076247.380437.018388.538007h15v10h-11v1h12v-12L4,6ZM4,6v7v.998047h1v-1.164063L5,6c-.15757.057859-.275684,0-.450575,0s-.391855.057859-.549425,0Z" transform="translate(-1 0)" fill="#c8c6c4"/><path d="M2,4v1h19.001953L21,18.998047h-13v-4c0-.554-.446-1-1-1h-4L3,10.5v-6.520358L2,4v9.998047.662109.330078c0,.383581-.00053.386178.736328,1.095704l3.236328,3.30664c.640994.703509.617681.605469,1.06836.605469h.207031h13.751953c.554,0,1-.446,1-1L22.001953,5c0-.554-.223-1-.5-1C17.37516,4,6.126145,4.000574,2,4ZM3,14.998047h4v4l-4-4Z" transform="translate(-1 0)" fill="#fafafa"/><path d="M16.5,11c-2.842075.0024-5.214286,2.169693-5.472656,5h1.003906c.2545-2.276321,2.178247-3.998276,4.46875-4c1.903272.0043,3.598001,1.205572,4.232422,3L18.5,15c-.277,0-.5.223-.5.5s.223.5.5.5h3c.06925,0,.135453-.01383.195312-.03906C21.874891,15.885234,22,15.70775,22,15.5v-3c0-.277-.223-.5-.5-.5s-.5.223-.5.5v.849609C19.972769,11.879598,18.293357,11.002717,16.5,11Zm-5,6c-.277,0-.5.223-.5.5v3c0,.277.223.5.5.5s.5-.223.5-.5v-.867188C12.99762,21.064211,14.64246,21.999117,16.5,22c2.842075-.0024,5.214286-2.169693,5.472656-5h-1.003906c-.2545,2.276321-2.178247,3.998276-4.46875,4-1.937261-.0023-3.59894-1.24237-4.222656-3L14.5,18c.277,0,.5-.223.5-.5s-.223-.5-.5-.5h-3Z" transform="matrix(.861842 0 0 0.876808 3.761751 2.646754)" fill="#18ab50"/></svg>
