<svg viewBox="0 0 24 24" xmlns="http://www.w3.org/2000/svg">
  <path
     d="m12 2a10 10 0 0 0 -10 10 10 10 0 0 0 10 10 10 10 0 0 0 10-10 10 10 0 0 0 -10-10zm0 1a9 9 0 0 1 9 9 9 9 0 0 1 -9 9 9 9 0 0 1 -9-9 9 9 0 0 1 9-9z"
     fill="#fafafa"
      />
  <path
     d="m 12,5 c 0.828427,0 1.5,0.6715729 1.5,1.5 C 13.5,7.3284271 12.828427,8 12,8 11.171573,8 10.5,7.3284271 10.5,6.5 10.5,5.6715729 11.171573,5 12,5 Z M 6,9 h 12 v 2 h -3 v 8 h -2 v -4 h -2 v 4 H 9 V 11 H 6 Z"
     fill="#fafafa"  />
</svg>
