<svg xmlns="http://www.w3.org/2000/svg" viewBox="0 0 24 24"><path fill="#323130" stroke="#fafafa" stroke-linejoin="round" d="M4.5 8h11a2.5 2.5 0 0 1 2.5 2.5v7a2.5 2.5 0 0 1-2.5 2.5H8l-3.5 3v-3A2.5 2.5 0 0 1 2 17.5v-7A2.5 2.5 0 0 1 4.5 8Z"/><path stroke="#fafafa" stroke-linecap="round" stroke-width="1.2" d="M5 12h6M5 14.5h5.5M5 17h3"/><path fill="#83beec" d="M18 4c.15 2.5 2 3.7 4 4-2 .3-3.85 1.5-4 4-.15-2.5-2-3.7-4-4 2-.3 3.85-1.5 4-4"/><path fill="#a8d3f0" d="M13.5 3c.1 1 .8 1.35 1.5 1.5-.7.15-1.4.5-1.5 1.5-.1-1-.8-1.35-1.5-1.5.7-.15 1.4-.5 1.5-1.5"/></svg>