<svg
   id="etl0TxGm3q11"
   viewBox="0 0 63.749999 50.625"
   shape-rendering="geometricPrecision"
   text-rendering="geometricPrecision"
   project-id="142a698363cc49b4956d581a63901285"
   export-id="8583ce0c03d94e23bd32fc5e30d613e1"
   cached="false"
   version="1.1"
   sodipodi:docname="dark.svg"
   xml:space="preserve"
   inkscape:version="1.4 (e7c3feb100, 2024-10-09)"
   xmlns:inkscape="http://www.inkscape.org/namespaces/inkscape"
   xmlns:sodipodi="http://sodipodi.sourceforge.net/DTD/sodipodi-0.dtd"
   xmlns="http://www.w3.org/2000/svg"
   xmlns:svg="http://www.w3.org/2000/svg"><defs
     id="defs10" /><sodipodi:namedview
     id="namedview10"
     pagecolor="#ffffff"
     bordercolor="#000000"
     borderopacity="0.25"
     inkscape:showpageshadow="2"
     inkscape:pageopacity="0.0"
     inkscape:pagecheckerboard="0"
     inkscape:deskcolor="#d1d1d1"
     inkscape:zoom="11.551157"
     inkscape:cx="49.562136"
     inkscape:cy="32.07471"
     inkscape:window-width="1896"
     inkscape:window-height="1031"
     inkscape:window-x="1930"
     inkscape:window-y="10"
     inkscape:window-maximized="1"
     inkscape:current-layer="g11" /><g
     transform="matrix(1.01934 0 0 1.01097-1.15786 0.19614)"
     id="g9"><g
       transform="matrix(.865043 0 0 0.131777-2.00135 4.49728)"
       id="g8"><g
         transform="matrix(1.01772 0 0 1.28984-.163142 8.53931)"
         id="g7"><g
           transform="matrix(.970602 0 0 1 0.63688 0)"
           id="g6"><g
             transform="translate(0 5.88335)"
             id="g2"><g
               transform="matrix(.957685 0 0 1 1.6831 0)"
               id="g1"><path
                 d="M3.75,3.75h55.3125v42.1875h-55.3125v-42.1875Z"
                 transform="translate(8.36935 5.42105)"
                 fill="#51afef"
                 id="path1" /></g></g><g
             transform="matrix(.423409 0 0 2.73298 6.75564-174.504)"
             id="g5"><g
               id="g4"><g
                 transform="matrix(1 0 0 1.14965 0-14.0349)"
                 id="g3"><path
                   d="M3.75,3.75h55.3125v42.1875h-55.3125v-42.1875Z"
                   transform="translate(11.6819 90.1138)"
                   fill="#d8dee9"
                   id="path2" /><path
                   d="M3.75,3.75h55.3125v42.1875h-55.3125v-42.1875Z"
                   transform="translate(81.4776 90.1138)"
                   fill="#d8dee9"
                   id="path3" /></g></g></g></g></g></g></g><g
     id="g10"><path
       d="M4,6c.057859.15757-.018388.287103-.018388.461993s.018416-.452511.018402.042742l15.475626.000009-.000002,10.990509-15.494027.000005L4.000014,18L20,18v-12L4,6ZM4,6v7l.000001,5.000009L4.505974,18v-5.11893l.000001-6.881069C4.348405,6.05786,4.724316,6,4.549425,6s-.391855.057859-.549425,0Z"
       transform="matrix(3.76642 0 0 3.88066-13.2874-21.2554)"
       fill="#fff"
       id="path9" /></g><g
     style="shape-rendering:geometricPrecision;text-rendering:geometricPrecision;stroke-width:0.99977207;stroke-dasharray:none;paint-order:fill markers stroke"
     id="g11"
     transform="matrix(0.07801448,0,0,0.08003445,39.270254,25.40998)"><path
       d="M 150,-2e-6 C 72.488857,0.06545255 7.7921895,59.173445 0.7457345,136.36364 H 28.124991 C 35.0659,74.282155 87.531731,27.319744 150,27.272726 c 51.90742,0.117273 98.1273,32.879237 115.4297,81.818184 h -60.88424 c -7.55455,0 -13.63637,6.08182 -13.63637,13.63636 0,7.55455 6.08182,13.63637 13.63637,13.63637 h 81.81818 c 1.88864,0 3.69418,-0.37718 5.32669,-1.06527 4.89761,-2.06471 8.30968,-6.90519 8.30968,-12.5711 V 40.90909 c 0,-7.554546 -6.08182,-13.636364 -13.63637,-13.636364 -7.55454,0 -13.63636,6.081818 -13.63636,13.636364 V 64.080245 C 244.71189,23.989035 198.90974,0.074098 150,-2e-6 Z M 13.636354,163.63637 c -7.5545464,0 -13.636365,6.08181 -13.636365,13.63636 v 81.81818 c 0,7.55455 6.0818186,13.63637 13.636365,13.63637 7.554545,0 13.636364,-6.08182 13.636364,-13.63637 V 235.44033 C 54.480538,274.47849 99.339813,299.97592 150,300.00001 227.51114,299.93455 292.20781,240.82656 299.25426,163.63637 H 271.87501 C 264.9341,225.71785 212.46827,272.68026 150,272.72728 97.165604,272.66455 51.847083,238.84446 34.836646,190.90909 h 60.617895 c 7.554549,0 13.636369,-6.08181 13.636369,-13.63636 0,-7.55455 -6.08182,-13.63636 -13.636369,-13.63636 z"
       fill="#0f8a3e"
       id="path1-6"
       style="stroke-width:0.99977207;stroke-dasharray:none;paint-order:fill markers stroke" /></g></svg>

