<svg viewBox="0 0 24 24" xmlns="http://www.w3.org/2000/svg">
  <path
       fill="#fafafa"
     d="M 4.5 2 C 4.223 2 3.846348 2.2695221 4 2.5 L 4 4 L 3.5 4 C 3.223 4 3 4.223 3 4.5 L 3 7.5 C 3 7.777 3.223 8 3.5 8 L 4 8 L 4 16 L 3.5 16 C 3.223 16 3 16.223 3 16.5 L 3 19.5 C 3 19.777 3.223 20 3.5 20 L 4 20 L 4 21.5 C 4 21.777 4.223 22 4.5 22 L 19.5 22 C 19.777 22 20 21.777 20 21.5 L 20 2.5 C 20 2.223 19.777 2 19.5 2 L 4.5 2 z M 5 3 L 19 3 L 19 21 L 5 21 L 5 19.5 L 5 16.5 L 5 7.5 L 5 4.5 L 5 3 z " />
  <g
     fill="#ed8733"
     >
    <path
       d="M 6.75 8.2265625 C 6.334548 8.2265625 6 8.539935 6 8.9277344 L 6 17.326172 C 6 17.714024 6.3345537 18.027344 6.75 18.027344 L 17.25 18.027344 C 17.665452 18.027344 18 17.715924 18 17.328125 L 18 11.027344 C 18 10.639491 15.415503 8.2265625 15 8.2265625 L 6.75 8.2265625 z M 7.4902344 9.625 L 14.603516 9.625 C 14.639289 9.6514565 14.648529 9.6562813 14.691406 9.6875 C 15.352163 10.19864 15.865147 10.735042 16.443359 11.320312 C 16.478849 11.362643 16.480095 11.36795 16.507812 11.402344 L 16.507812 16.632812 L 7.4902344 16.632812 L 7.4902344 9.625 z M 9 11.03125 L 9 12.431641 L 15 12.431641 L 15 11.03125 L 9 11.03125 z M 9 13.835938 L 9 15.236328 L 15 15.236328 L 15 13.835938 L 9 13.835938 z " />
  </g>
</svg>
