<svg viewBox="0 0 24 24" xmlns="http://www.w3.org/2000/svg">
  <path
     style="fill:#0063b1"
     d="M 0.5 2.75 L 0.5 21.75 L 23.5 21.75 L 23.5 2.75 L 20.5 2.75 L 20.5 17.75 L 15.880859 17.75 C 14.996139 17.750274 14.176231 18.050018 13.519531 18.554688 C 13.517731 18.556088 13.515572 18.557194 13.513672 18.558594 C 13.412882 18.636334 13.317269 18.719471 13.224609 18.806641 C 13.136519 18.889511 13.052756 18.977539 12.972656 19.068359 C 12.957346 19.085689 12.942744 19.103494 12.927734 19.121094 C 12.862694 19.197524 12.799314 19.275962 12.740234 19.357422 C 12.721514 19.383192 12.703657 19.409287 12.685547 19.435547 C 12.632277 19.512927 12.582846 19.592438 12.535156 19.673828 C 12.519036 19.701298 12.501798 19.727949 12.486328 19.755859 C 12.443308 19.833639 12.404938 19.913121 12.367188 19.994141 C 12.347478 20.036311 12.326814 20.078094 12.308594 20.121094 C 12.280284 20.188124 12.255089 20.257212 12.230469 20.326172 C 12.212139 20.377362 12.193974 20.428259 12.177734 20.480469 C 12.154244 20.556219 12.134174 20.633177 12.115234 20.710938 C 12.103904 20.757327 12.089738 20.802549 12.080078 20.849609 C 12.054278 20.975669 12.034884 21.103895 12.021484 21.234375 C 12.013584 21.239475 12.008 21.245 12 21.25 C 11.992 21.245 11.986476 21.239445 11.978516 21.234375 C 11.965116 21.103895 11.945712 20.975669 11.919922 20.849609 C 11.910222 20.802549 11.896096 20.757318 11.884766 20.710938 C 11.865826 20.633187 11.845756 20.556219 11.822266 20.480469 C 11.806036 20.428259 11.787871 20.377372 11.769531 20.326172 C 11.744911 20.257212 11.719716 20.188124 11.691406 20.121094 C 11.673176 20.078084 11.652513 20.036301 11.632812 19.994141 C 11.595062 19.913121 11.556692 19.833629 11.513672 19.755859 C 11.498202 19.727949 11.480974 19.701298 11.464844 19.673828 C 11.417154 19.592438 11.367723 19.512927 11.314453 19.435547 C 11.296353 19.409297 11.278496 19.383202 11.259766 19.357422 C 11.200686 19.275962 11.137306 19.197524 11.072266 19.121094 C 11.057256 19.103484 11.042654 19.085679 11.027344 19.068359 C 10.947244 18.977539 10.863481 18.889521 10.775391 18.806641 C 10.682731 18.719471 10.587118 18.636334 10.486328 18.558594 C 10.484428 18.557194 10.482369 18.556087 10.480469 18.554688 C 9.8237588 18.050017 9.0038406 17.75027 8.1191406 17.75 L 3.5 17.75 L 3.5 9.75 L 3.5 2.75 L 0.5 2.75 z M 8.1191406 2.75 C 10.108541 2.750617 11.775216 4.255375 11.978516 6.234375 C 11.986516 6.239415 11.992 6.245 12 6.25 C 12.008 6.245 12.013524 6.239415 12.021484 6.234375 C 12.123114 5.244895 12.59045 4.3737 13.28125 3.75 C 13.97202 3.12635 14.886159 2.75031 15.880859 2.75 L 8.1191406 2.75 z M 10.207031 18.042969 C 10.244531 18.081129 10.277904 18.122746 10.308594 18.166016 C 10.277564 18.123056 10.244991 18.080929 10.207031 18.042969 z M 13.792969 18.042969 C 13.755009 18.080929 13.722436 18.123056 13.691406 18.166016 C 13.722096 18.122746 13.755469 18.081129 13.792969 18.042969 z M 10.363281 18.251953 C 10.371881 18.267253 10.378899 18.283098 10.386719 18.298828 C 10.378819 18.283228 10.372041 18.267123 10.363281 18.251953 z M 13.636719 18.251953 C 13.627959 18.267123 13.621181 18.283228 13.613281 18.298828 C 13.621101 18.283098 13.628119 18.267253 13.636719 18.251953 z " />
  <path
     style="fill:#83beec"
     d="m 1.5,3.75 v 16 h 10.009766 c -0.01456,-0.02569 -0.02998,-0.05073 -0.04492,-0.07617 C 10.340837,18.712848 9.4058156,18.277565 8.1191406,17.75 H 3.5 v -8 -6 z m 9.21875,0 c 0.690762,0.6236479 1.158116,1.494875 1.259766,2.484375 C 11.986516,6.239415 11.992,6.245 12,6.25 12.008,6.245 12.013524,6.239415 12.021484,6.234375 12.123114,5.244895 12.59045,4.3737 13.28125,3.75 Z m 9.78125,0 v 14 h -4.619141 c -1.304207,0.492691 -2.287874,1.026738 -3.345703,1.923828 -0.01493,0.02545 -0.03036,0.05048 -0.04492,0.07617 H 22.5 v -16 z"
      />
  <path
     d="m11.5 4.7504h1v17h-1z"
     style="fill:#fafafa" />
  <path
     d="m 2.5,1.75 v 17 h 0.58594 l 5.0312,0.002 h 0.0059 c 0.98658,0.0019 1.8583,0.49376 2.377,1.2559 8.11e-4,0.0012 0.0011,0.0027 0.002,0.0039 0.12702,0.18724 0.23147,0.39113 0.3125,0.60742 0.0015,0.0041 0.0043,0.0076 0.0059,0.01172 0.0028,0.0076 0.0031,0.01585 0.0059,0.02344 0.03243,0.0901 0.06044,0.18296 0.08398,0.27734 0.0061,0.02473 0.01404,0.04922 0.01953,0.07422 0.02389,0.10798 0.0431,0.21725 0.05469,0.33008 0.03085,0.30426 0.19923,0.57768 0.45703,0.74219 -0.09337,-0.05953 -0.08529,-0.05209 0.0293,0.01953 0.20246,0.12629 0.43813,0.17415 0.66602,0.14258 0.13673,-0.01894 0.2711,-0.06681 0.39258,-0.14258 0.11459,-0.07162 0.12267,-0.07906 0.0293,-0.01953 0.2578,-0.1645 0.42618,-0.43793 0.45703,-0.74219 0.01159,-0.11283 0.0308,-0.22209 0.05469,-0.33008 0.0055,-0.025 0.01341,-0.04949 0.01953,-0.07422 0.02354,-0.09438 0.05156,-0.18725 0.08398,-0.27734 0.0042,-0.01165 0.0074,-0.02358 0.01172,-0.03516 0.08103,-0.21629 0.18548,-0.42018 0.3125,-0.60742 8.12e-4,-0.0012 0.0011,-0.0027 0.002,-0.0039 0.51864,-0.7621 1.3904,-1.254 2.377,-1.2559 h 0.0059 l 5.617,-0.0022 v -17 h -5.6191 c -0.10022,3.11e-5 -0.20039,0.00332 -0.29883,0.00977 -1.3781,0.090204 -2.5736,0.79772 -3.4082,1.8223 -0.05961,0.073178 -0.11798,0.1483 -0.17383,0.2246 -0.89362,-1.2209 -2.2774,-2.0561 -3.8809,-2.0566 z m 1,1 h 4.6191 c 1.9894,6.17e-4 3.6561,1.5054 3.8594,3.4844 0.008,0.00504 0.01348,0.010625 0.02148,0.015625 0.008,-0.005 0.01352,-0.010585 0.02148,-0.015625 0.10163,-0.98948 0.569,-1.8607 1.2598,-2.4844 0.69077,-0.62365 1.6049,-0.99969 2.5996,-1 h 4.6191 v 15 h -4.6191 c -0.88472,2.74e-4 -1.7046,0.30002 -2.3613,0.80469 -0.0018,0.0014 -0.004,0.0025 -0.0059,0.0039 -0.10079,0.07774 -0.1964,0.16088 -0.28906,0.24805 -0.08809,0.08287 -0.17185,0.1709 -0.25195,0.26172 -0.01531,0.01733 -0.02991,0.03513 -0.04492,0.05273 -0.06504,0.07643 -0.12842,0.15487 -0.1875,0.23633 -0.01872,0.02577 -0.03658,0.05187 -0.05469,0.07813 -0.05327,0.07738 -0.1027,0.15689 -0.15039,0.23828 -0.01612,0.02747 -0.03336,0.05412 -0.04883,0.08203 -0.04302,0.07778 -0.08139,0.15726 -0.11914,0.23828 -0.01971,0.04217 -0.04037,0.08395 -0.05859,0.12695 -0.02831,0.06703 -0.05351,0.13612 -0.07813,0.20508 -0.01833,0.05119 -0.0365,0.10209 -0.05274,0.1543 -0.02349,0.07575 -0.04356,0.15271 -0.0625,0.23047 -0.01133,0.04639 -0.0255,0.09161 -0.03516,0.13867 -0.0258,0.12606 -0.04519,0.25429 -0.05859,0.38477 -0.0079,0.0051 -0.01343,0.01063 -0.02143,0.01563 -0.008,-0.005 -0.01352,-0.01056 -0.02148,-0.01563 -0.0134,-0.13048 -0.0328,-0.25871 -0.05859,-0.38477 -0.0097,-0.04706 -0.02383,-0.09229 -0.03516,-0.13867 -0.01894,-0.07775 -0.03901,-0.15472 -0.0625,-0.23047 -0.01623,-0.05221 -0.0344,-0.1031 -0.05274,-0.1543 -0.02462,-0.06896 -0.04982,-0.13805 -0.07813,-0.20508 -0.01823,-0.04301 -0.03889,-0.08479 -0.05859,-0.12695 -0.03775,-0.08102 -0.07612,-0.16051 -0.11914,-0.23828 -0.01547,-0.02791 -0.0327,-0.05456 -0.04883,-0.08203 -0.04769,-0.08139 -0.09712,-0.1609 -0.15039,-0.23828 -0.0181,-0.02625 -0.03596,-0.05235 -0.05469,-0.07813 -0.05908,-0.08146 -0.12246,-0.1599 -0.1875,-0.23633 -0.01501,-0.01761 -0.02961,-0.03541 -0.04492,-0.05273 -0.0801,-0.09082 -0.16386,-0.17884 -0.25195,-0.26172 -0.09266,-0.08717 -0.18827,-0.17031 -0.28906,-0.24805 -0.0019,-0.0014 -0.004,-0.0025 -0.0059,-0.0039 -0.65671,-0.50467 -1.4766,-0.80442 -2.3613,-0.80469 h -4.6191 v -8 z m 6.707,15.293 c 0.0375,0.03816 0.07087,0.07978 0.10156,0.12305 C 10.27753,18.12309 10.24496,18.08096 10.207,18.043 Z m 3.5859,0 c -0.0375,0.03816 -0.07087,0.07978 -0.10156,0.12305 0.03103,-0.04296 0.0636,-0.08509 0.10156,-0.12305 z m -3.4297,0.20898 c 0.0086,0.0153 0.01562,0.03114 0.02344,0.04687 -0.0079,-0.0156 -0.01468,-0.0317 -0.02344,-0.04687 z m 3.2734,0 c -0.0086,0.0153 -0.01562,0.03114 -0.02344,0.04687 0.0079,-0.0156 0.01468,-0.0317 0.02344,-0.04687 z"
     style="fill:#fafafa" />
</svg>
