<svg viewBox="0 0 24 24" xmlns="http://www.w3.org/2000/svg"><path d="m4 2c-.554 0-1 .446-1 1v1c0 .554.446 1 1 1h16c.554 0 1-.446 1-1v-1c0-.554-.446-1-1-1zm-.5 6c-.277 0-.5.223-.5.5v1c0 .277.223.5.5.5h17c.277 0 .5-.223.5-.5v-1c0-.277-.223-.5-.5-.5zm0 5c-.277 0-.5.223-.5.5s.223.5.5.5h6c.277 0 .5-.223.5-.5s-.223-.5-.5-.5zm8 0c-.06925 0-.135455.01383-.195312.039062-.17958.075704-.304688.253188-.304688.460938 0 .277.223.5.5.5h2.015625.191406a1.0027936 1.0027936 0 0 1 .291016-.466797c.218234-.19712.454798-.370606.699219-.533203h-.177735zm6.9375.011719c-.245971.031763-.4375.233388-.4375.488281 0 .002797.001908.005027.001953.007812zm-.435547.496093c.001108.068145.015453.132606.041016.191407-.025478-.058945-.039906-.12313-.041016-.191407zm.041016.191407c.025725.059174.062105.111713.107422.15625-.044841-.044455-.081944-.097306-.107422-.15625zm-14.542969 3.300781c-.277 0-.5.190572-.5.427734v.144532c0 .237162.223.427734.5.427734h1c.277 0 .5-.190572.5-.427734v-.144532c0-.237162-.223-.427734-.5-.427734zm4 0c-.277 0-.5.190572-.5.427734v.144532c0 .237162.223.427734.5.427734h1c.277 0 .5-.190572.5-.427734v-.144532c0-.237162-.223-.427734-.5-.427734zm4 0c-.277 0-.5.190572-.5.427734v.144532c0 .237162.223.427734.5.427734h.498047a1.0027936 1.0027936 0 0 1 0-.005859c.001847-.333767.038776-.665664.095703-.994141h-.09375zm-8 3c-.277 0-.5.223-.5.5v1c0 .277.223.5.5.5h9.5.515625.193359a1.0027936 1.0027936 0 0 1 .013672-.597656l.390625-1.158203-1.203125-.240235a1.0027936 1.0027936 0 0 1 -.017578-.003906z" fill="#fafafa"/><path d="m16.4375 13.253907c-.288253.09362-.567398.213248-.833984.357422-.335712.185464-.64898.408939-.933594.666016l.757812 2.236328-2.316406.464844c-.072088.335769-.109428.67807-.111328 1.021484.000647.343279.03664.685584.107422 1.021484l2.320312.464844-.755859 2.236328c.513244.458667 1.115664.806419 1.769531 1.021484l1.558594-1.773437 1.5625 1.77539c.288253-.09362.567396-.213252.833984-.357422.335712-.185463.64897-.408938.933594-.666015l-.757812-2.236328 2.316406-.464844c.07209-.335769.109428-.67807.111328-1.021484-.000647-.343279-.03664-.685584-.107422-1.021484l-2.320312-.464844.755859-2.236328c-.513244-.458667-1.115664-.80642-1.769531-1.021485l-1.558594 1.773438-.46875-.533203zm-.28125 1.191406 1.091797 1.244141a1.0001 1.0001 0 0 0 .865234.333985 1.0001 1.0001 0 0 0 .638672-.333985l1.091797-1.244141.3125.179688-.53125 1.568359a1.0001 1.0001 0 0 0 .75 1.300782l1.625.326171v.359376l-1.625.326171a1.0001 1.0001 0 0 0 -.75 1.300782l.529297 1.5625.002.0059-.3125.179688-1.091797-1.244141a1.0001 1.0001 0 0 0 -1.503906 0l-1.091844 1.2441-.3125-.179688.53125-1.568359a1.0001 1.0001 0 0 0 -.75-1.300782l-1.625-.326171v-.359376l1.625-.326171a1.0001 1.0001 0 0 0 .75-1.300782l-.53125-1.568359zm1.84375 2.554688a1 1 0 0 0 -1 1 1 1 0 0 0 1 1 1 1 0 0 0 1-1 1 1 0 0 0 -1-1z" fill="#1e8bcd"/></svg>