<svg viewBox="0 0 24 24" xmlns="http://www.w3.org/2000/svg">
  <path
     id="rect6"
     style="fill:#1e8bcd;fill-opacity:1"
     d="M 5.5 8 C 5.223 8 5 8.223 5 8.5 C 5 8.777 5.223 9 5.5 9 L 8 9 L 8 8 L 5.5 8 z M 9.4589844 10 C 9.20511 10 9 10.20511 9 10.458984 L 9 10.541016 C 9 10.79489 9.20511 11 9.4589844 11 L 15.541016 11 C 15.79489 11 16 10.79489 16 10.541016 L 16 10.458984 C 16 10.20511 15.79489 10 15.541016 10 L 9.4589844 10 z M 5.4667969 11 C 5.2078418 11 5 11.207842 5 11.466797 L 5 11.533203 C 5 11.792158 5.2078418 12 5.4667969 12 L 8 12 L 8 11 L 5.4667969 11 z M 9.5 13 C 9.223 13 9 13.223 9 13.5 C 9 13.777 9.223 14 9.5 14 L 15.5 14 C 15.777 14 16 13.777 16 13.5 C 16 13.223 15.777 13 15.5 13 L 9.5 13 z " />
  <path
     d="m 10,19 h 8 v 1 h -8 z"
     id="path22"
     style="fill:#1e8bcd" />
  <path
     d="M 17.480469,16.001953 C 16.275581,16.011316 15.27971,16.862228 15.050781,18 h 1.041016 C 16.297803,17.418077 16.84576,17 17.5,17 h 0.457031 c 0.01437,-0.0018 0.02804,-0.0059 0.04297,-0.0059 h 2 c 0.01493,0 0.0286,0.0041 0.04297,0.0059 H 20.5 c 0.831,0 1.5,0.669 1.5,1.5 v 1 1 c 0,0.831 -0.669,1.5 -1.5,1.5 h -0.457031 c -0.01437,0.0018 -0.02804,0.0059 -0.04297,0.0059 h -2 c -0.01493,0 -0.0286,-0.0041 -0.04297,-0.0059 H 17.5 c -0.65424,0 -1.202197,-0.418077 -1.408203,-1 h -1.041016 c 0.228929,1.137772 1.2248,1.988647 2.429688,1.998047 h 3.039062 C 21.895234,22.987357 23,21.878316 23,20.5 v -1 -1 c 0,-1.378316 -1.104766,-2.487357 -2.480469,-2.498047 z"
     id="path24"
     style="fill:#1e8bcd" />
  <path
     d="M 10.570312,16.001953 C 11.7752,16.011316 12.771071,16.862228 13,18 H 11.958984 C 11.752978,17.418077 11.205021,17 10.550781,17 H 10.09375 c -0.01437,-0.0018 -0.02804,-0.0059 -0.04297,-0.0059 h -2 c -0.01493,0 -0.0286,0.0041 -0.04297,0.0059 H 7.550779 c -0.831,0 -1.5,0.669 -1.5,1.5 v 1 1 c 0,0.831 0.669,1.5 1.5,1.5 H 8.00781 c 0.01437,0.0018 0.02804,0.0059 0.04297,0.0059 h 2 c 0.01493,0 0.0286,-0.0041 0.04297,-0.0059 h 0.457031 c 0.65424,0 1.202197,-0.418077 1.408203,-1 H 13 c -0.228929,1.137772 -1.2248,1.988647 -2.429688,1.998047 H 7.53125 C 6.155547,22.987357 5.050781,21.878316 5.050781,20.5 v -1 -1 c 0,-1.378316 1.104766,-2.487357 2.480469,-2.498047 z"
     id="path26"
     style="fill:#1e8bcd" />
  <path
     fill="#fafafa"
     d="M 4 2 C 3.446 2 3 2.446 3 3 L 3 14 C 3 14.554 3.446 15 4 15 L 7 15 L 8 15 L 8 14 L 8 6 L 13 6 L 14 6 L 17 6 L 17 15 L 18 15 L 18 6 C 18 5.446 17.554 5 17 5 L 14 5 L 14 3 C 14 2.446 13.554 2 13 2 L 4 2 z M 4 3 L 13 3 L 13 5 L 8 5 C 7.446 5 7 5.446 7 6 L 7 14 L 4 14 L 4 3 z " />
</svg>
