<svg height="24" viewBox="0 0 6.3499999 6.3500002" width="24" xmlns="http://www.w3.org/2000/svg"><g stroke-width=".264583"><g transform="translate(0 -290.64998)"><path d="m6 2a5.0000001 5.0000001 0 0 0 -5 5 5.0000001 5.0000001 0 0 0 5 5 5.0000001 5.0000001 0 0 0 5-5 5.0000001 5.0000001 0 0 0 -5-5zm0 1a3.9999998 3.9999998 0 0 1 4 4 3.9999998 3.9999998 0 0 1 -4 4 3.9999998 3.9999998 0 0 1 -4-4 3.9999998 3.9999998 0 0 1 4-4z" fill="#fafafa" stroke-width=".999999" transform="matrix(.26458334 0 0 .26458334 0 290.64998)"/><path d="m2.1166666 292.50207a.52916667.52916667 0 0 1 -.5291666.52916.52916667.52916667 0 0 1 -.5291667-.52916.52916667.52916667 0 0 1 .5291667-.52917.52916667.52916667 0 0 1 .5291666.52917z" fill="#1e8bcd"/><path d="m3.4395833 291.17915c-.1465792 0-.2645833.118-.2645833.26458v2.11667c0 .14658.1180041.26458.2645833.26458h2.38125c.1465792 0 .2645833-.118.2645833-.26458v-2.11667c0-.14658-.1180041-.26458-.2645833-.26458zm0 .26458h2.1166667v1.85209h-2.1166667z" fill="#fafafa"/></g><path d="m4.3490886 3.5067629c-.076267.02477-.1501241.056422-.2206583.094568-.088824.049071-.1717093.1081985-.2470134.1762168l.2005044.5916951-.6128824.12299c-.019073.088839-.028953.179406-.029456.2702676.0001711.090826.00969.1813941.028422.2702676l.6139164.1229899-.1999877.5916951c.1357958.1213557.2951861.2133651.4681884.2702677l.4123781-.4692219.4134114.4697386c.076267-.02477.1501236-.056423.2206583-.094568.088824-.04907.1717067-.1081982.2470134-.1762165l-.2005044-.591695.6128824-.12299c.0190738-.0888389.0289528-.179406.0294556-.2702676-.0001712-.0908259-.0096944-.1813941-.0284221-.2702676l-.6139159-.12299.1999877-.5916951c-.1357958-.1213557-.2951861-.2133653-.4681884-.2702679l-.412378.4692221-.1240235-.1410766zm-.074414.3152262.2888713.329179a.26460979.26460979 0 0 0 .2289265.088367.26460979.26460979 0 0 0 .168982-.088367l.2888713-.329179.082682.047542-.1405599.4149617a.26460979.26460979 0 0 0 .1984375.3441652l.4299479.086299v.095085l-.4299477.0863001a.26460979.26460979 0 0 0 -.1984375.3441653l.1400432.4134114.0005291.00156-.082682.047542-.2888713-.3291789a.26460979.26460979 0 0 0 -.3979084 0l-.2888841.3291696-.0826823-.0475425.1405599-.4149616a.26460979.26460979 0 0 0 -.1984375-.3441653l-.4299479-.0862994v-.0950849l.4299479-.0862994a.26460979.26460979 0 0 0 .1984375-.3441652l-.1405599-.4149617zm.4878255.6759279a.26458334.26458334 0 0 0 -.2645834.2645833.26458334.26458334 0 0 0 .2645834.2645833.26458334.26458334 0 0 0 .2645833-.2645833.26458334.26458334 0 0 0 -.2645833-.2645833z" fill="#1e8bcd"/></g></svg>