<svg viewBox="0 0 24 24" xmlns="http://www.w3.org/2000/svg">
  <path
     style="fill:#fafafa"
     d="M 16 2 C 12.722226 2 10 4.7222255 10 8 L 2.5 8 C 2.2238691 8.0000276 2.0000276 8.2238691 2 8.5 L 2 19.5 C 2.0000276 19.776131 2.2238691 19.999972 2.5 20 L 12.792969 20 L 14.646484 21.853516 A 0.50005 0.50005 0 0 0 15.353516 21.853516 L 21.853516 15.353516 A 0.50005 0.50005 0 0 0 21.853516 14.646484 L 19.867188 12.660156 C 21.135386 11.55403 22 9.8668743 22 8 C 22 6.616668 21.458238 5.1392583 20.4375 3.9824219 C 19.416762 2.8255855 17.892855 2 16 2 z M 16 3 C 17.607141 3 18.83324 3.6744167 19.6875 4.6425781 C 20.54176 5.6107396 21 6.8833345 21 8 C 21 9.5776006 20.215486 11.005498 19.134766 11.927734 L 15.353516 8.1464844 A 0.50005 0.50005 0 0 0 14.646484 8.1464844 L 11.9375 10.855469 C 11.336691 10.041029 11 9.0542396 11 8 C 11 5.2777805 13.277781 3 16 3 z M 3 9 L 10.087891 9 C 10.25464 9.942293 10.653699 10.813374 11.236328 11.556641 L 8.1464844 14.646484 A 0.50005 0.50005 0 0 0 8.1464844 15.353516 L 11.792969 19 L 3 19 L 3 9 z M 15 9.2070312 L 20.792969 15 L 15 20.792969 L 9.2070312 15 L 15 9.2070312 z " />
</svg>
