<svg version="1.1" viewBox="0 0 24 24" xmlns="http://www.w3.org/2000/svg"><path d="m17.587 4h3.4134v16h-9.002l-8.998-0.035955v-16l13.22 0.035955zm-1.3665-1-13.22-0.035955c-0.554-0.00151-1 0.446-1 1v16c0 0.554 0.446 0.99779 1 1l8.998 0.035955h0.43171l8.5702-3e-6c0.554 0 1-0.446 1-1v-16c0-0.554-0.446-1-1-1h-3.4741z" fill="#1e8bcd"/><path d="m10.419 14.964h1.5975v-5.1905q0-0.22822 0.01755-0.47399l-1.3049 1.1469q-0.14044 0.11704-0.27503 0.08192-0.12874-0.04096-0.1814-0.11704l-0.31014-0.42717 2.2412-1.9837h0.79584v6.9636h1.4629v0.74902h-4.0436z" fill="#FAFAFA" stroke-width=".29961"/></svg>
