<svg viewBox="0 0 24 24" xmlns="http://www.w3.org/2000/svg">
  <path
     style="fill:#fafafa"
     d="M 14.646484,8.1464844 8.1464844,14.646484 a 0.50005,0.50005 0 0 0 0,0.707032 l 6.4999996,6.5 a 0.50005,0.50005 0 0 0 0.707032,0 l 6.5,-6.5 a 0.50005,0.50005 0 0 0 0,-0.707032 l -6.5,-6.4999996 a 0.50005,0.50005 0 0 0 -0.707032,0 z M 15,9.2070313 20.792969,15 15,20.792969 9.2070313,15 Z" />
  <path
     style="fill:#fafafa"
     d="M 16 2 A 6 6 0 0 0 10 8 A 6 6 0 0 0 11.548828 12 L 12 12 L 12 11 L 12.007812 11 A 5 5 0 0 1 11 8 A 5 5 0 0 1 16 3 A 5 5 0 0 1 21 8 A 5 5 0 0 1 19 11.992188 L 19 13.179688 A 6 6 0 0 0 22 8 A 6 6 0 0 0 16 2 z " />
  <path
     style="fill:#fafafa"
     d="M 3 8 C 2.446 8 2 8.446 2 9 L 2 19 C 2 19.554 2.446 20 3 20 L 13 20 L 13 19 L 3 19 L 3 9 L 11 9 L 11 8 L 3 8 z " />
</svg>
