<svg viewBox="0 0 24 24" xmlns="http://www.w3.org/2000/svg">
  <path
     fill="#fafafa"
     d="M 8 2 L 8 22 L 15 22 L 15 2 L 8 2 z M 9 3 L 14 3 L 14 21 L 9 21 L 9 3 z " />
  <g
     fill="#1e8bcd"
     fill-rule="evenodd"
     id="g10">
    <path
       d="m17.501947 12.990234c.12976.0036.253031.05754.34375.150391l3.957031 3.957031c.260944.199523.261914.592163.002.792969l-.0059.0039-3.953125 3.953125c-.471254.490833-1.197864-.235777-.707031-.707031l3.146485-3.146484h-4.285157v-1h4.285157l-3.146485-3.146485c-.325269-.318004-.09144-.869893.363275-.857416z"
       id="path6" />
    <path
       d="m5.4971046 12.990234c-.12976.0036-.253031.05754-.34375.150391l-3.9570313 3.957031c-.26094396.199523-.26191396.592163-.002.792969l.0059.0039 3.9531253 3.953125c.471254.490833 1.197864-.235777.707031-.707031l-3.1464853-3.146484h4.2851573v-1h-4.2851573l3.1464853-3.146485c.325269-.318004.09144-.869893-.363275-.857416z"
       id="path8" />
  </g>
  <path
     d="m9 5v1h5v-1zm0 4v1h5v-1zm0 4v1h5v-1zm0 4v1h5v-1z"
     fill="#797774"
     id="path12" />
</svg>
