<svg xmlns="http://www.w3.org/2000/svg" xmlns:xlink="http://www.w3.org/1999/xlink" viewBox="0 0 63.749999 50.625" shape-rendering="geometricPrecision" text-rendering="geometricPrecision" project-id="9a51bc314a5549af80427f0a1d579526" export-id="77ab6768a4fe497284ae04325c75e4de" cached="false"><g transform="matrix(1.019336 0 0 1.010973-1.157858 0.19614)"><g transform="matrix(.865043 0 0 0.131777-2.001351 4.497279)"><g transform="matrix(1.017725 0 0 1.289839-.163142 8.539314)"><g transform="matrix(.970602 0 0 1 0.63688 0)"><g transform="translate(0 5.883353)"><g transform="matrix(.957685 0 0 1 1.683104 0)"><path d="M3.75,3.75h55.3125v42.1875h-55.3125v-42.1875Z" transform="translate(8.369346 5.421053)" fill="#51afef"/></g></g><g transform="matrix(.423409 0 0 2.73298 6.755636-174.504042)"><g><g transform="matrix(1 0 0 1.149652 0-14.034873)"><path d="M3.75,3.75h55.3125v42.1875h-55.3125v-42.1875Z" transform="translate(11.681869 90.113765)" fill="#d8dee9"/><path d="M3.75,3.75h55.3125v42.1875h-55.3125v-42.1875Z" transform="translate(81.477563 90.113765)" fill="#d8dee9"/></g></g></g></g></g></g></g><g><path d="M4,6c.057859.15757-.018388.287103-.018388.461993s.018416-.452511.018402.042742l15.475626.000009-.000002,10.990509-15.494027.000005L4.000014,18L20,18v-12L4,6ZM4,6v7l.000001,5.000009L4.505974,18v-5.11893l.000001-6.881069C4.348405,6.05786,4.724316,6,4.549425,6s-.391855.057859-.549425,0Z" transform="matrix(3.766418 0 0 3.880662-13.287389-21.255444)" fill="#ffffff"/></g></svg>
