<svg viewBox="0 0 24 24" xmlns="http://www.w3.org/2000/svg">
  <path
     fill="#0063b1"
     d="M 3.1660156 4 L 1.1738281 5.7636719 L 1.4492188 6.1425781 C 1.4804282 6.1890663 1.5350387 6.2234166 1.6113281 6.2460938 C 1.6910856 6.2668812 1.7722439 6.2429935 1.8554688 6.1738281 L 3.015625 5.1542969 C 3.00522 5.2997331 3 5.4408648 3 5.5761719 L 3 10 L 2 10 L 2 11 L 5 11 L 5 10 L 4 10 L 4 4 L 3.1660156 4 z M 9.4746094 7 C 9.2096944 7.0133421 9 7.2316556 9 7.5 L 9 8.5 C 9 8.7770007 9.2229993 9 9.5 9 L 14.476562 9 C 14.753563 9 14.976562 8.7770007 14.976562 8.5 L 14.976562 7.5 C 14.976562 7.2229993 14.753563 7 14.476562 7 L 9.5 7 C 9.4913437 7 9.483155 6.9995696 9.4746094 7 z " />
  <path
     fill="#fafafa"
     d="M 7 2 C 6.4459999 2 6 2.4459969 6 3 L 6 21 C 6 21.554003 6.4459999 22 7 22 L 21 22 C 21.554 22 22 21.554003 22 21 L 22 10.890625 L 22 7.25 L 22 7.0410156 C 22 6.5903448 22.098037 6.6155795 21.394531 5.9746094 L 18.087891 2.7363281 C 17.378366 1.9994336 17.377721 2 16.994141 2 L 16.662109 2 L 16 2 L 7 2 z M 7 3 L 16 3 L 16 7 C 16 7.5540031 16.446 8 17 8 L 21 8 L 21 21 L 7 21 L 7 3 z M 17 3 L 21 7 L 17 7 L 17 3 z " />
  <path
     fill="#797774"
     d="M 9.4667969 12 C 9.1947775 12 8.9765625 12.218215 8.9765625 12.490234 L 8.9765625 12.509766 C 8.9765625 12.781785 9.1947775 13 9.4667969 13 L 18.486328 13 C 18.758348 13 18.976562 12.781785 18.976562 12.509766 L 18.976562 12.490234 C 18.976562 12.218215 18.758348 12 18.486328 12 L 9.4667969 12 z M 9.4414062 15 C 9.1843244 15 8.9765625 15.207762 8.9765625 15.464844 L 8.9765625 15.535156 C 8.9765625 15.792238 9.1843244 16 9.4414062 16 L 18.513672 16 C 18.770754 16 18.976562 15.792238 18.976562 15.535156 L 18.976562 15.464844 C 18.976562 15.207762 18.770754 15 18.513672 15 L 9.4414062 15 z M 9.4667969 18 C 9.1947775 18 8.9765625 18.218215 8.9765625 18.490234 L 8.9765625 18.509766 C 8.9765625 18.781785 9.1947775 19 9.4667969 19 L 18.486328 19 C 18.758348 19 18.976562 18.781785 18.976562 18.509766 L 18.976562 18.490234 C 18.976562 18.218215 18.758348 18 18.486328 18 L 9.4667969 18 z " />
</svg>
