<svg viewBox="0 0 24 24" xmlns="http://www.w3.org/2000/svg"><rect fill="#83beec" height="15" ry="1" width="5" x="2" y="7"/><path d="m17 10c-.554 0-1 .446-1 1v1.355469c.043584-.015251.082974-.040404.126953-.054688a1.0027936 1.0027936 0 0 1 .259766-.048828 1.0027936 1.0027936 0 0 1 .802734.339844l.808594.919922.806641-.917969a1.0027936 1.0027936 0 0 1 1.066406-.291016c.393868.129548.771694.299341 1.128906.50586v-1.808594c0-.554-.446-1-1-1z" fill="#fafafa"/><path d="m10 2c-.554 0-1 .446-1 1v18c0 .554.446 1 1 1h3c.260717 0 .492271-.105254.669922-.267578a1.0027936 1.0027936 0 0 1 .052734-.330078l.277344-.822266v-.359375l-1.089844-.216797a1.0027936 1.0027936 0 0 1 -.783203-.77539c-.084986-.403281-.128129-.814452-.128906-1.226563a1.0027936 1.0027936 0 0 1 0-.007812c.002282-.412408.046282-.823528.132812-1.226563a1.0027936 1.0027936 0 0 1 .783203-.771484l1.085938-.216797v-.357422l-.279297-.822266a1.0027936 1.0027936 0 0 1 .277344-1.066406s.001953-.001953.001953-.001953v-10.53125c0-.554-.446-1-1-1zm3.669922 19.732422c.099187-.09063.182102-.196195.238281-.320313-.057452.12201-.139426.229986-.238281.320313zm.330078-.732422c0 .146641-.032304.284583-.089844.408203.055874-.124912.089844-.262053.089844-.408203z" fill="#f8db8f"/><path d="m3 8h3v13h-3z" fill="#0063b1"/><path d="m10 3v18h3v-.978516l-.089844-.017578a1.0027936 1.0027936 0 0 1 -.783203-.77539c-.084986-.403281-.128129-.814452-.128906-1.226563a1.0027936 1.0027936 0 0 1 0-.007812c.002282-.412408.046282-.823528.132812-1.226563a1.0027936 1.0027936 0 0 1 .783203-.771484l.085938-.017578v-12.978516z" fill="#ed8733"/><path d="m17 11v1.425781a1.0027936 1.0027936 0 0 1 .189453.166016l.808594.919922.806641-.917969a1.0027936 1.0027936 0 0 1 1.066406-.291016c.043991.01447.085321.035313.128906.050782v-1.353516z" fill="#797774"/><path d="m16.4375 13.253907c-.288253.09362-.567398.213248-.833984.357422-.335712.185464-.64898.408939-.933594.666016l.757812 2.236328-2.316406.464844c-.072088.335769-.109428.67807-.111328 1.021484.000647.343279.03664.685584.107422 1.021484l2.320312.464844-.755859 2.236328c.513244.458667 1.115664.806419 1.769531 1.021484l1.558594-1.773437 1.5625 1.77539c.288253-.09362.567396-.213252.833984-.357422.335712-.185463.64897-.408938.933594-.666015l-.757812-2.236328 2.316406-.464844c.07209-.335769.109428-.67807.111328-1.021484-.000647-.343279-.03664-.685584-.107422-1.021484l-2.320312-.464844.755859-2.236328c-.513244-.458667-1.115664-.80642-1.769531-1.021485l-1.558594 1.773438-.46875-.533203zm-.28125 1.191406 1.091797 1.244141a1.0001 1.0001 0 0 0 .865234.333985 1.0001 1.0001 0 0 0 .638672-.333985l1.091797-1.244141.3125.179688-.53125 1.568359a1.0001 1.0001 0 0 0 .75 1.300782l1.625.326171v.359376l-1.625.326171a1.0001 1.0001 0 0 0 -.75 1.300782l.529297 1.5625.002.0059-.3125.179688-1.091797-1.244141a1.0001 1.0001 0 0 0 -1.503906 0l-1.091844 1.2441-.3125-.179688.53125-1.568359a1.0001 1.0001 0 0 0 -.75-1.300782l-1.625-.326171v-.359376l1.625-.326171a1.0001 1.0001 0 0 0 .75-1.300782l-.53125-1.568359zm1.84375 2.554688a1 1 0 0 0 -1 1 1 1 0 0 0 1 1 1 1 0 0 0 1-1 1 1 0 0 0 -1-1z" fill="#1e8bcd"/></svg>