<svg viewBox="0 0 24 24" xmlns="http://www.w3.org/2000/svg"><g stroke-linecap="round" stroke-linejoin="round"><path d="m16 8.5 5.5 5.5-5.5 5.5-5.5-5.5z" fill="#0063b1" stroke="#83beec"/><path d="m2.4453125 3c-.247121 0-.4453125.1981908-.4453125.4453125v.109375c0 .2471217.1981915.4453125.4453125.4453125h19.1093755c.24712 0 .445312-.1981908.445312-.4453125v-.109375c0-.2471217-.198192-.4453125-.445312-.4453125zm0 3c-.247121 0-.4453125.1981908-.4453125.4453125v.109375c0 .2471217.1981915.4453125.4453125.4453125h19.1093755c.24712 0 .445312-.1981908.445312-.4453125v-.109375c0-.2471217-.198192-.4453125-.445312-.4453125zm-.0253906 3c-.232183 0-.4199219.1877394-.4199219.4199219v.1601562c0 .2321825.1877389.4199219.4199219.4199219h9.1601561c.232183 0 .419922-.1877394.419922-.4199219v-.1601562c0-.2321825-.187739-.4199219-.419922-.4199219zm.0253906 3c-.2471214 0-.4453125.198192-.4453125.445312v.109376c0 .24712.1981915.445312.4453125.445312h.2519531c.138291-.091996.2762432-.185171.421875-.265625a1.0027936 1.0027936 0 0 1 .0078125-.005859c.320064-.173096.653956-.315345 1-.427735a1.0027936 1.0027936 0 0 1 .2597657-.048828 1.0027936 1.0027936 0 0 1 .8027343.339844l.359375.408203h.8984375l.3574219-.40625a1.0027936 1.0027936 0 0 1 .7714844-.339844 1.0027936 1.0027936 0 0 1 .2949219.048828c.3630205.119402.7106958.275926 1.0429687.460938.0494989-.077619.0859375-.164406.0859375-.263672 0-.277-.223-.5-.5-.5h-.9453125-.5546875zm6.46875.763672c-.0417959.06554-.099036.118975-.1640625.160156.0676232-.039958.1219015-.094044.1640625-.160156zm-.1816406.171875c-.0686451.03927-.1464253.064453-.2324219.064453.0855331 0 .162162-.026904.2324219-.064453zm-6.5546875 2.984375c.0096003.006766.0191088.013594.0292968.019531-.0105797-.006287-.019362-.012334-.0292968-.019531zm9.5546876 2.107422c.03433.013253.06485.032927.09375.054687-.029468-.02124-.059083-.041812-.09375-.054687zm.115234.070312c.066591.057582.114934.136518.134766.226563-.019989-.09115-.065385-.169388-.134766-.226563zm.136719.230469c-.009121.155623-.023744.310463-.044922.464844.03535-.060659.060547-.127586.060547-.203125v-.179688c0-.029067-.009926-.054702-.015625-.082031zm-.044922.464844c-.033594.057646-.081351.104518-.136719.140625.05679-.035256.103014-.082788.136719-.140625zm-.152344.15039c-.058051.034042-.124295.056641-.197265.056641.073002 0 .138001-.023466.197265-.056641zm-1.644531 2.056641.136719.400391a1.0027936 1.0027936 0 0 1 .013672.599609h11.261719c.24712 0 .445312-.198192.445312-.445312v-.109376c0-.247119-.198188-.445312-.445312-.445312z" fill="#fafafa"/><path d="m4.4375 13.253906c-.288253.09362-.567398.213248-.833984.357422-.335712.185464-.64898.408939-.933594.666016l.757812 2.236328-2.316406.464844c-.072088.335769-.109428.67807-.111328 1.021484.000647.343279.03664.685584.107422 1.021484l2.320312.464844-.755859 2.236328c.513244.458667 1.115664.806419 1.769531 1.021484l1.558594-1.773437 1.5625 1.77539c.288253-.09362.567396-.213252.833984-.357422.335712-.185462.64897-.408937.933594-.666015l-.757812-2.236328 2.316406-.464844c.07209-.335769.109428-.67807.111328-1.021484-.000647-.343279-.03664-.685584-.107422-1.021484l-2.320312-.464844.755859-2.236328c-.513244-.458667-1.115664-.80642-1.769531-1.021485l-1.558594 1.773438-.46875-.533203zm-.28125 1.191406 1.091797 1.244141a1.0001 1.0001 0 0 0 .865234.333985 1.0001 1.0001 0 0 0 .638672-.333985l1.091797-1.244141.3125.179688-.53125 1.568359a1.0001 1.0001 0 0 0 .75 1.300782l1.625.326171v.359376l-1.625.326171a1.0001 1.0001 0 0 0 -.75 1.300782l.529297 1.5625.002.0059-.3125.179688-1.091797-1.244141a1.0001 1.0001 0 0 0 -1.503906 0l-1.091844 1.2441-.3125-.179688.53125-1.568359a1.0001 1.0001 0 0 0 -.75-1.300782l-1.625-.326171v-.359376l1.625-.326171a1.0001 1.0001 0 0 0 .75-1.300782l-.53125-1.568359zm1.84375 2.554688a1 1 0 0 0 -1 1 1 1 0 0 0 1 1 1 1 0 0 0 1-1 1 1 0 0 0 -1-1z" fill="#1e8bcd"/></g></svg>