<svg viewBox="0 0 16 16" xmlns="http://www.w3.org/2000/svg">
  <path
     id="path2"
     style="fill:#0063b1"
     d="M 11 0 L 11 4 L 12 4 L 12 2 L 14 2 L 14 1 L 12 1 L 12 0 L 11 0 z M 3 1 L 3 6 L 4 6 L 4 4 L 6 4 L 6 3 L 4 3 L 4 1 L 3 1 z M 7 5 L 7 9 L 8 9 L 8 8 L 10 8 L 10 7 L 8 7 L 8 5 L 7 5 z " />
  <path
     style="fill:#fafafa"
     d="M 0 0 L 0 15 L 0 16 L 1 16 L 16 16 L 16 15 L 1 15 L 1 0 L 0 0 z " />
  <path
     style="fill:#797774"
     d="M 3 7 L 3 14 L 6 14 L 6 7 L 3 7 z M 11 7 L 11 14 L 14 14 L 14 7 L 11 7 z M 7 10 L 7 14 L 10 14 L 10 10 L 7 10 z " />
  <path
     style="fill:#3a3a38"
     d="M 4 8 L 4 13 L 5 13 L 5 8 L 4 8 z M 12 8 L 12 13 L 13 13 L 13 8 L 12 8 z M 8 11 L 8 13 L 9 13 L 9 11 L 8 11 z " />
</svg>
