<svg viewBox="0 0 24 24" xmlns="http://www.w3.org/2000/svg">
   <path
      fill="#fafafa"
      d="M 4.9980469 3 C 4.4440469 3 3.9980469 3.446 3.9980469 4 L 3.9980469 21 C 3.9980469 21.554 4.4440469 22 4.9980469 22 L 11 22 L 11 21 L 4.9980469 21 L 4.9980469 4 L 13.998047 4 L 13.998047 8 C 13.998047 8.554 14.444047 9 14.998047 9 L 18.998047 9 L 18.998047 11 L 19.998047 11 L 19.998047 8.0410156 C 19.998047 7.5903356 20.096088 7.6155994 19.392578 6.9746094 L 16.085938 3.7363281 C 15.376418 2.9994681 15.375817 3 14.992188 3 L 13.998047 3 L 4.9980469 3 z M 14.998047 4 L 18.998047 8 L 14.998047 8 L 14.998047 4 z " />
   <path
      d="m17 11.5a5.5 5.5 0 0 0-5.5 5.5 5.5 5.5 0 0 0 5.5 5.5 5.5 5.5 0 0 0 5.5-5.5 5.5 5.5 0 0 0-5.5-5.5zm2e-3 1.1523 0.08984 0.13086c0.39559 0.57314 0.6857 1.1102 0.9043 1.625-0.66098 0.08701-1.338 0.09546-1.998 0.02149 0.21938-0.5213 0.51295-1.0653 0.91406-1.6465zm-1.1973 0.0098c-0.33902 0.54301-0.6099 1.0735-0.80864 1.5879-0.41091-0.10378-0.79938-0.25558-1.1738-0.43164a4.5 4.5 0 0 1 1.9824-1.1562zm2.3984 0.0059a4.5 4.5 0 0 1 1.9492 1.127c-0.37112 0.1664-0.75476 0.31226-1.1602 0.41797-0.19634-0.50094-0.45989-1.0168-0.78906-1.5449zm2.5977 1.9238a4.5 4.5 0 0 1 0.66597 1.9081h-1.9785c-0.01879-0.43055-0.08006-0.87291-0.19141-1.3262 0.52582-0.1441 1.0251-0.34574 1.5039-0.58203zm-7.6133 0.02539c0.4816 0.24888 0.98363 0.45738 1.5098 0.59766-0.10511 0.43878-0.16346 0.86758-0.18169 1.2851h-1.9844a4.5 4.5 0 0 1 0.65625-1.8828zm5.1387 0.76172c0.09688 0.38624 0.14137 0.75759 0.15816 1.121h-2.9648c0.01639-0.35484 0.05975-0.71718 0.15234-1.0938 0.87883 0.1241 1.778 0.11178 2.6543-0.02734zm-5.793 2.121h2.0117c0.04698 0.43791 0.13833 0.85915 0.25391 1.2715-0.56084 0.14172-1.0938 0.36101-1.6055 0.625a4.5 4.5 0 0 1-0.66016-1.8965zm3.0234 0h2.8906c-0.04721 0.37642-0.13083 0.7477-0.24024 1.1152-0.40533-0.05899-0.81405-0.09778-1.2246-0.10156-0.40038-0.0037-0.7993 0.02372-1.1953 0.07422-0.10553-0.35842-0.18441-0.72098-0.23047-1.0879zm3.9023 0h2.0098a4.5 4.5 0 0 1-0.67773 1.918c-0.5075-0.24957-1.0383-0.46322-1.5977-0.60938 0.1209-0.42416 0.21721-0.85737 0.26562-1.3086zm-2.4785 2.0332c0.29373 0.0028 0.58763 0.029 0.87891 0.0625-0.23166 0.5571-0.50185 1.1117-0.79688 1.6719l-0.06055 0.11328-0.05859-0.11328c-0.29814-0.56612-0.57115-1.1264-0.80469-1.6895 0.27922-0.02629 0.55992-0.04758 0.8418-0.04492zm-1.8613 0.20703c0.21661 0.55211 0.47373 1.085 0.74219 1.6074a4.5 4.5 0 0 1-2.0273-1.1562c0.40789-0.1907 0.83524-0.34589 1.2852-0.45117zm3.752 0.0332c0.44544 0.10873 0.86783 0.26211 1.2734 0.44336a4.5 4.5 0 0 1-2.0039 1.1328c0.26347-0.51263 0.51633-1.0351 0.73047-1.5762z"
      fill="#1e8bcd" />
   </svg>
