<svg viewBox="0 0 24 24" xmlns="http://www.w3.org/2000/svg">
  <path
     style="fill:#797774"
     d="M 12 5 C 11.446 5 11 5.446 11 6 L 11 18 C 11 18.554 11.446 19 12 19 L 14 19 C 14.554 19 15 18.554 15 18 L 15 17.128906 L 12.292969 14.421875 A 0.99955814 0.99955814 0 0 1 12.292969 13.007812 L 13.007812 12.292969 A 0.99955814 0.99955814 0 0 1 13.699219 12 A 0.99955814 0.99955814 0 0 1 14.421875 12.292969 L 15 12.871094 L 15 6 C 15 5.446 14.554 5 14 5 L 12 5 z M 7 8 C 6.446 8 6 8.446 6 9 L 6 18 C 6 18.554 6.446 19 7 19 L 9 19 C 9.554 19 10 18.554 10 18 L 10 9 C 10 8.446 9.554 8 9 8 L 7 8 z M 17 11 C 16.446 11 16 11.446 16 12 L 16 13.871094 L 18 15.871094 L 20 13.871094 L 20 12 C 20 11.446 19.554 11 19 11 L 17 11 z " />
  <g
     style="fill:#fafafa"
     transform="matrix(0 -1 -1 0 0 0)"
     id="g8">
    <path
       id="rect4"
       d="M 4.5 2 C 4.223 2 4 2.223 4 2.5 L 4 19 L 2.5 19 C 2.223 19 2 19.223 2 19.5 C 2 19.777 2.223 20 2.5 20 L 4 20 L 4 21.5 C 4 21.777 4.223 22 4.5 22 C 4.777 22 5 21.777 5 21.5 L 5 20 L 13.871094 20 L 14.871094 19 L 5 19 L 5 2.5 C 5 2.223 4.777 2 4.5 2 z M 21.128906 19 L 21.90625 19.777344 C 21.961083 19.697088 22 19.604951 22 19.5 C 22 19.223 21.777 19 21.5 19 L 21.128906 19 z "
       transform="matrix(0,-1,-1,0,0,0)" />
  </g>
  <path
     style="fill:#0063b1"
     d="M 2.4882812 3 C 2.2177315 3 2 3.2177315 2 3.4882812 L 2 17.511719 C 2 17.782269 2.2177315 18 2.4882812 18 L 2.5117188 18 C 2.7822685 18 3 17.782269 3 17.511719 L 3 3.4882812 C 3 3.2177315 2.7822685 3 2.5117188 3 L 2.4882812 3 z M 6.4882812 21 C 6.2177315 21 6 21.217731 6 21.488281 L 6 21.511719 C 6 21.782269 6.2177315 22 6.4882812 22 L 12.042969 22 A 0.99955814 0.99955814 0 0 1 12.292969 21.578125 L 12.871094 21 L 6.4882812 21 z M 17.128906 21 L 16.128906 22 L 19.871094 22 L 18.871094 21 L 17.128906 21 z " />
  <g
     fill="#ed3d3b"
     id="g26">
    <path
       id="path24"
       d="M 13.714844 13 L 13 13.714844 L 17.285156 18 L 13 22.285156 L 13.714844 23 L 18 18.714844 L 22.285156 23 L 23 22.285156 L 18.714844 18 L 23 13.714844 L 22.285156 13 L 18 17.285156 L 13.714844 13 z " />
  </g>
  <path
     style="fill:#3a3a38"
     d="M 12 6 L 12 13.728516 A 0.99955814 0.99955814 0 0 1 12.292969 13.007812 L 13.007812 12.292969 A 0.99955814 0.99955814 0 0 1 13.699219 12 A 0.99955814 0.99955814 0 0 1 14 12.042969 L 14 6 L 12 6 z M 12 13.728516 L 12 18 L 14 18 L 14 16.128906 L 12.292969 14.421875 A 0.99955814 0.99955814 0 0 1 12 13.728516 z M 7 9 L 7 18 L 9 18 L 9 9 L 7 9 z M 17 12 L 17 14.871094 L 18 15.871094 L 19 14.871094 L 19 12 L 17 12 z " />
</svg>
