<svg height="24" viewBox="0 0 6.3499999 6.3500002" width="24" xmlns="http://www.w3.org/2000/svg"><g stroke-width=".264583" transform="translate(0 -290.64998)"><path d="m3 2c-.5539993 0-1 .4460007-1 1v18c0 .553999.4460007 1 1 1h9.042969c.04701-.159202.132929-.304191.25-.421875l3.578125-3.578125-3.578125-3.578125c-.390668-.390406-.390668-1.023657 0-1.414063l.714843-.714843c.183634-.183805.431621-.288884.691407-.292969.270614-.0042.531368.101504.722656.292969l3.578125 3.578125 3.578125-3.578125c.117684-.117071.262673-.20299.421875-.25v-9.042969c0-.5539993-.446001-1-1-1z" fill="#fafafa" stroke-width=".999999" transform="matrix(.26458334 0 0 .26458334 0 290.64998)"/><g fill="#c8c6c4"><rect height=".264583" rx=".132292" ry=".125565" width="2.116667" x="2.645833" y="292.23746"/><rect height=".264583" rx=".132292" ry=".125565" width="2.116667" x="2.645833" y="293.560377"/><path d="m10.5 16c-.277001 0-.5.211694-.5.474609v.050782c0 .262915.222999.474609.5.474609h4.371094l-1-1z" stroke-width=".999999" transform="matrix(.26458334 0 0 .26458334 0 290.64998)"/></g><path d="m2.1166667 292.36976a.396875.396875 0 0 1 -.396875.39687.396875.396875 0 0 1 -.396875-.39687.396875.396875 0 0 1 .396875-.39688.396875.396875 0 0 1 .396875.39688z" fill="#83beec"/><path d="m2.1166667 293.69267a.396875.396875 0 0 1 -.396875.39688.396875.396875 0 0 1 -.396875-.39688.396875.396875 0 0 1 .396875-.39687.396875.396875 0 0 1 .396875.39687z" fill="#fb983b"/><path d="m2.1166667 295.01559a.396875.396875 0 0 1 -.396875.39687.396875.396875 0 0 1 -.396875-.39687.396875.396875 0 0 1 .396875-.39688.396875.396875 0 0 1 .396875.39688z" fill="#c8c6c4"/><g fill-opacity=".982993"><path d="m1.8520833 292.36977a.13229167.13229167 0 0 1 -.1322916.13229.13229167.13229167 0 0 1 -.1322917-.13229.13229167.13229167 0 0 1 .1322917-.13229.13229167.13229167 0 0 1 .1322916.13229z" fill="#0063b1"/><path d="m1.8520833 293.6927a.13229167.13229167 0 0 1 -.1322916.13229.13229167.13229167 0 0 1 -.1322917-.13229.13229167.13229167 0 0 1 .1322917-.13229.13229167.13229167 0 0 1 .1322916.13229z" fill="#ed8733"/><path d="m1.8520833 295.01563a.13229167.13229167 0 0 1 -.1322916.13229.13229167.13229167 0 0 1 -.1322917-.13229.13229167.13229167 0 0 1 .1322917-.13229.13229167.13229167 0 0 1 .1322916.13229z" fill="#3a3a38"/></g></g><path d="m5.8964202 3.4395748-1.1339287 1.1339285-1.1339287-1.1339285-.1889879.1889879 1.1339284 1.1339288-1.1339284 1.1339288.1889879.1889879 1.1339287-1.1339286 1.1339287 1.1339286.188988-.1889879-1.1339285-1.1339288 1.1339285-1.1339288z" fill="#ed3d3b"/></svg>