<svg viewBox="0 0 24 24" xmlns="http://www.w3.org/2000/svg">
  <path
     fill="#fafafa"
     d="M 5 3 C 4.446 3 4 3.446 4 4 L 4 21 C 4 21.554 4.446 22 5 22 L 10.183594 22 L 14.283203 22 L 20 22 L 20 18.644531 L 20 17.117188 L 20 8.0410156 C 20 7.5903356 20.098041 7.6155994 19.394531 6.9746094 L 16.087891 3.7363281 C 15.378371 2.9994681 15.377771 3 14.994141 3 L 14 3 L 5 3 z M 5 4 L 14 4 L 14 8 C 14 8.554 14.446 9 15 9 L 19 9 L 19 16.623047 L 19 20.121094 L 19 21 L 15.818359 21 L 10.976562 21 L 5 21 L 5 4 z M 15 4 L 19 8 L 15 8 L 15 4 z " />
  <path
     d="m3 12c-.554 0-1 .446-1 1v9c0 .554.446 1 1 1h9c.554 0 1-.446 1-1v-9c0-.554-.446-1-1-1z"
     fill="#309048"
     id="path262" />
  <path
     d="m4.5197316 13.999979h1.6941401l1.1494323 2.230471c.105647.211468.1778545.370215.217459.474257h.016568c.0763123-.169127.1555871-.333568.238168-.492898l1.2281111-2.211809h1.5553389l-2.1600632 3.470988 2.2139292 3.528991h-1.6546944l-1.327573-2.449966c-.056104-.09086-.10786-.200175-.1574001-.327217h-.02071c-.023065.07827-.074085.183665-.1532541.316868l-1.3669124 2.460357h-1.6650863l2.2988645-3.510328-2.1061967-3.489651z"
     fill="#fafafa"
     stroke-width=".2916"
     id="path264" />
</svg>
