<svg height="24" viewBox="0 0 6.3499999 6.3500002" width="24" xmlns="http://www.w3.org/2000/svg" xmlns:xlink="http://www.w3.org/1999/xlink"><linearGradient id="a" gradientUnits="userSpaceOnUse" x1="69.000001" x2="69.000001" y1="32.000095" y2="17.000095"><stop offset="0" stop-color="#e9e9e9"/><stop offset=".2857143" stop-color="#f2f2f2"/><stop offset="1" stop-color="#fbfbfb"/></linearGradient><g stroke-width=".264583" transform="translate(0 -290.64998)"><g stroke-width=".999999" transform="matrix(.26458334 0 0 .26458334 0 290.64998)"><path d="m9 6v3h-6v12h10.857422l.255859-.755859-1.203125-.240235a1.0027936 1.0027936 0 0 1 -.783203-.77539c-.084986-.403281-.128129-.814438-.128906-1.226563a1.0027936 1.0027936 0 0 1 0-.007812c.002283-.412408.046284-.823528.132812-1.226563a1.0027936 1.0027936 0 0 1 .783203-.771484l1.199219-.240235-.392578-1.15625a1.0027936 1.0027936 0 0 1 .277344-1.066406c.341709-.308648.718054-.576174 1.121094-.798828a1.0027936 1.0027936 0 0 1 .007812-.005859c.320064-.173097.653954-.315347 1-.427735a1.0027936 1.0027936 0 0 1 .259766-.048828 1.0027936 1.0027936 0 0 1 .802734.339844l.808594.919922.806641-.917969a1.0027936 1.0027936 0 0 1 1.066406-.291016c.393868.129548.771694.299341 1.128906.50586v-6.808594z" fill="url(#a)"/><path d="m9 2c-.5539997 0-1 .4459969-1 1v2h-5c-.554 0-1 .4459969-1 1v15c0 .554003.446 1 1 1h10.708984a1.0027936 1.0027936 0 0 1 .013672-.597656l.134766-.402344h-10.857422v-12h5v9c0 .554003.4460003 1 1 1h3.091797c-.0563-.329908-.093119-.663157-.09375-.998047a1.0027936 1.0027936 0 0 1 0-.001953h-2.998047v-9h6v3.808594c.040444-.023578.078136-.051566.119141-.074219a1.0027936 1.0027936 0 0 1 .007812-.005859c.279386-.151098.573702-.268303.873047-.373047v-6.355469h5v6.808594c.354708.205071.689097.446352.996094.720703a1.0027936 1.0027936 0 0 1 .003906.003906v-10.533203c0-.5540031-.446-1-1-1zm13 13.419922-.113281.335937.113281.023438z" fill="#fafafa"/><g fill="#98989d"><path d="m16.5 7c-.277001 0-.5.2230004-.5.5s.222999.5.5.5h3c.277001 0 .5-.2230004.5-.5s-.222999-.5-.5-.5zm-12 3c-.2770007 0-.5.223-.5.5s.2229993.5.5.5h3c.2770007 0 .5-.223.5-.5s-.2229993-.5-.5-.5zm12 0c-.277001 0-.5.223-.5.5s.222999.5.5.5h3c.277001 0 .5-.223.5-.5s-.222999-.5-.5-.5zm-12 3c-.2770007 0-.5.223-.5.5s.2229993.5.5.5h3c.2770007 0 .5-.223.5-.5s-.2229993-.5-.5-.5zm13.048828 0 .449219.511719.449219-.511719zm-13.048828 3c-.2770007 0-.5.223-.5.5s.2229993.5.5.5h3c.2770007 0 .5-.223.5-.5s-.2229993-.5-.5-.5zm0 3c-.2770007 0-.5.223-.5.5s.2229993.5.5.5h3c.2770007 0 .5-.223.5-.5s-.2229993-.5-.5-.5z" fill="#c8c6c4"/><path d="m10.5 10c-.277001 0-.5.223-.5.5s.222999.5.5.5h3c.277001 0 .5-.223.5-.5s-.222999-.5-.5-.5zm0 3c-.277001 0-.5.223-.5.5s.222999.5.5.5h3c.082001 0 .156458-.023893.224609-.058594a1.0027936 1.0027936 0 0 1 .267579-.402344c.001093-.013558.007812-.025212.007812-.039062 0-.277-.222999-.5-.5-.5zm0 3c-.277001 0-.5.223-.5.5s.222999.5.5.5h1.59375c.013413-.077395.020609-.155568.037109-.232422a1.0027936 1.0027936 0 0 1 .767579-.767578z" fill="#1e8bcd"/></g></g><path d="m.79375 291.97292c-.14657916 0-.26458333.118-.26458333.26458v.52917.26458h.26458333 3.175.2645834v-.26458-.52917c0-.14658-.1180042-.26458-.2645834-.26458z" fill="#fafafa"/><path d="m2.38125 291.17917c-.1465791 0-.2645833.118-.2645833.26458v.52917.26458h.2645833 3.175.2645834v-.26458-.52917c0-.14658-.1180042-.26458-.2645834-.26458z" fill="#fafafa"/><path d="m9 3v2h12v-2zm-6 3v2h5v-2zm6 0v2h6v-2z" fill="#797774" stroke-width=".999999" transform="matrix(.26458334 0 0 .26458334 0 290.64998)"/></g><path d="m4.3490884 3.5067628c-.076267.02477-.150124.056422-.2206582.094568-.088824.049071-.1717093.1081984-.2470134.1762167l.2005044.5916951-.6128824.12299c-.019073.088839-.028953.179406-.029456.2702677.0001712.090826.00969.1813941.028422.2702676l.6139159.12299-.1999877.5916951c.1357957.1213556.295186.2133652.4681883.2702678l.412378-.469222.4134114.4697387c.0762676-.0247704.1501242-.056423.2206589-.094568.0888238-.0490705.1717067-.1081983.2470134-.1762166l-.2005044-.5916951.6128825-.12299c.0190738-.0888389.0289529-.179406.0294556-.2702676-.0001712-.0908259-.0096944-.1813941-.0284221-.2702677l-.613916-.12299.1999877-.5916951c-.1357958-.1213556-.2951861-.2133653-.4681884-.2702679l-.412378.4692222-.1240235-.1410767zm-.074414.3152262.2888712.3291789a.26460979.26460979 0 0 0 .2289265.088367.26460979.26460979 0 0 0 .168982-.088367l.2888713-.3291789.0826823.0475424-.1405599.4149617a.26460979.26460979 0 0 0 .1984375.3441652l.429948.086299v.095085l-.429948.0863a.26460979.26460979 0 0 0 -.1984375.344165l.1400432.4134114.0005291.00156-.082682.047542-.2888713-.329179a.26460979.26460979 0 0 0 -.3979084 0l-.288884.3291697-.0826823-.0475425.1405599-.4149616a.26460979.26460979 0 0 0 -.1984375-.3441653l-.4299479-.0862994v-.0950849l.4299479-.0862994a.26460979.26460979 0 0 0 .1984375-.3441652l-.1405599-.4149617zm.4878255.6759278a.26458334.26458334 0 0 0 -.2645834.2645834.26458334.26458334 0 0 0 .2645834.2645833.26458334.26458334 0 0 0 .2645833-.2645833.26458334.26458334 0 0 0 -.2645833-.2645834z" fill="#1e8bcd"/></svg>