<svg viewBox="0 0 24 24" xmlns="http://www.w3.org/2000/svg">
  <path
     fill="#fafafa"
     d="M 4.9980469 3 C 4.4440469 3 3.9980469 3.446 3.9980469 4 L 3.9980469 21 C 3.9980469 21.554 4.4440469 22 4.9980469 22 L 19.001953 22 C 19.555953 22 20.001953 21.554 20.001953 21 L 20.001953 11.019531 L 19.998047 11.019531 L 19.998047 8.0410156 C 19.998047 7.5903356 20.096088 7.6155994 19.392578 6.9746094 L 16.085938 3.7363281 C 15.376418 2.9994681 15.375817 3 14.992188 3 L 13.998047 3 L 4.9980469 3 z M 4.9980469 4 L 13.998047 4 L 13.998047 8 C 13.998047 8.554 14.444047 9 14.998047 9 L 18.998047 9 L 18.998047 14.083984 C 18.999447 14.084474 19.000553 14.085437 19.001953 14.085938 L 19.001953 21 L 4.9980469 21 L 4.9980469 4 z M 14.998047 4 L 18.998047 8 L 14.998047 8 L 14.998047 4 z " />
  <path
     d="m15.025 15.493a0.50005 0.50005 0 0 0-0.85938-0.34766l-2.1406 2.1445v-8.7832a0.50005 0.50005 0 1 0-1 0v8.7871l-2.1523-2.1484a0.50005 0.50005 0 1 0-0.70508 0.70703l2.9609 2.957a0.50005 0.50005 0 0 0 0.79688-0.0039l2.9492-2.9531a0.50005 0.50005 0 0 0 0.15039-0.35938z"
     fill="#1e8bcd"
     fill-rule="evenodd" />
</svg>
