<svg viewBox="0 0 24 24" xmlns="http://www.w3.org/2000/svg">
  <path
     fill="#fafafa"
     id="path20"
     d="M 5 3 C 4.446 3 4 3.446 4 4 L 4 21 C 4 21.554 4.446 22 5 22 L 10.183594 22 L 14.283203 22 L 20 22 L 20 18.644531 L 20 17.117188 L 20 8.0410156 C 20 7.5903356 20.098041 7.6155994 19.394531 6.9746094 L 16.087891 3.7363281 C 15.378371 2.9994681 15.377771 3 14.994141 3 L 14 3 L 5 3 z M 5 4 L 14 4 L 14 8 C 14 8.554 14.446 9 15 9 L 19 9 L 19 16.623047 L 19 20.121094 L 19 21 L 15.818359 21 L 10.976562 21 L 5 21 L 5 4 z M 15 4 L 19 8 L 15 8 L 15 4 z " />
  <path
     d="m3 12c-.554 0-1 .446-1 1v9c0 .554.446 1 1 1h9c.554 0 1-.446 1-1v-9c0-.554-.446-1-1-1z"
     fill="#1e8bcd"
     id="path24" />
  <g
     fill="#fafafa"
     id="g34">
    <path
       d="m4 16h6v1h-6z"
       id="path26" />
    <path
       d="m4 18h7v1h-7z"
       id="path28" />
    <path
       d="m4 20h6v1h-6z"
       id="path30" />
    <path
       d="m4 14h5v1h-5z"
       id="path32" />
  </g>
</svg>
