<svg viewBox="0 0 24 24" xmlns="http://www.w3.org/2000/svg">
  <path
     id="path4"
     style="fill:#fafafa"
     d="M 5 2 C 4.4 2 4 2.4 4 3 L 4 21 C 4 21.5 4.4 22 5 22 L 19 22 C 19.5 22 20 21.6 20 21 L 20 10.900391 L 20 7.1992188 L 20 7 C 20 6.6 20.100391 6.6 19.400391 6 L 16.099609 2.6992188 C 15.399609 1.9992187 15.400971 2 14.994141 2 L 14.699219 2 L 14 2 L 5 2 z M 5 3 L 14 3 L 14 7 C 14 7.5 14.4 8 15 8 L 19 8 L 19 21 L 5 21 L 5 3 z M 15 3 L 19 7 L 15 7 L 15 3 z " />
  <path
     style="fill:#18ab50"
     d="m 16,13 v 1.546635 c 0,0.7 -0,1.3 -0.2,1.7 -0.1,0.5 -0.3,0.8 -0.6,1.2 H 14 c 0.6,-0.9 1,-1.6 1,-2.5 h -1 v -2 z"
     id="path8" />
  <path
     style="fill:#18ab50"
     d="m 12.5,16 c -0.112394,0.0019 -0.198876,-0.01848 -0.259403,-0.05544 -0.06053,-0.03696 -0.101599,-0.113197 -0.123218,-0.228712 l -0.142671,-0.74305 c -0.164289,0.161716 -0.326416,0.30726 -0.486381,0.436632 -0.155643,0.124753 -0.319932,0.231024 -0.492867,0.318813 -0.172935,0.08779 -0.358841,0.152475 -0.557718,0.194059 C 10.23303,15.976897 10.014699,16 9.7769132,16 9.5304799,16 9.2991786,15.965345 9.0830091,15.896035 8.871163,15.822106 8.6830956,15.711215 8.5188068,15.56336 8.3588413,15.410885 8.2313013,15.223756 8.1361867,15.001974 8.0453956,14.775571 8,14.509895 8,14.204945 8,13.936959 8.0670126,13.680524 8.2010377,13.435639 8.339386,13.186135 8.5620405,12.964353 8.8690012,12.770293 9.175962,12.576234 9.5758756,12.419138 10.068742,12.299007 10.561609,12.174255 11.282318,12.102638 12,12.084156 V 11.564354 C 12,11.037622 11.778642,10.642573 11.566797,10.379207 11.359274,10.111221 11.054475,9.977228 10.6524,9.977228 c -0.26805,0 -0.495028,0.036964 -0.6809343,0.110892 -0.1815823,0.07393 -0.3393861,0.154786 -0.4734113,0.242575 -0.134025,0.08779 -0.2507565,0.168646 -0.3501945,0.242573 -0.095115,0.07393 -0.1923908,0.110891 -0.2918287,0.110891 -0.077821,0 -0.1448336,-0.02079 -0.2010377,-0.06238 -0.056205,-0.04159 -0.1016002,-0.09472 -0.1361867,-0.159406 L 8.311284,10.074256 C 8.6614786,9.7138603 9.0376135,9.4458739 9.4396888,9.2702968 9.8460869,9.0900989 10.295719,9 10.788586,9 c 0.354519,0 0.670127,0.062377 0.946824,0.1871298 0.276697,0.1201309 0.507998,0.2933981 0.693904,0.5198014 0.185905,0.2264019 0.326415,0.4966988 0.42153,0.8108898 C 12.950281,10.832011 13,11.180855 13,11.564354 V 16 Z M 10.120623,15.147518 C 10.9,15.155569 11.552741,14.657012 12,14.246528 v -1.399999 c -0.505836,0.0231 -1.051448,0.0693 -1.405966,0.138615 -0.354518,0.06469 -0.6,0.152475 -0.8690015,0.263366 -0.2204929,0.110891 -0.3804583,0.242573 -0.4798962,0.395048 -0.099438,0.147856 -0.149157,0.314192 -0.149157,0.5 0,0.175577 0.02594,0.328053 0.077821,0.457426 0.056205,0.124752 0.1297022,0.228712 0.2204927,0.31188 0.090791,0.07855 0.198876,0.138615 0.3242544,0.180198 0.1253785,0.03696 0.2594037,0.05544 0.4020756,0.05544 z"
     id="path10" />
</svg>
