<svg viewBox="0 0 24 24" xmlns="http://www.w3.org/2000/svg">
  <path
     fill="#fafafa"
     d="M 5 3 C 4.446 3 4 3.446 4 4 L 4 21 C 4 21.554 4.446 22 5 22 L 10.183594 22 L 14.283203 22 L 20 22 L 20 18.644531 L 20 17.117188 L 20 8.0410156 C 20 7.5903356 20.098041 7.6155994 19.394531 6.9746094 L 16.087891 3.7363281 C 15.378371 2.9994681 15.377771 3 14.994141 3 L 14 3 L 5 3 z M 5 4 L 14 4 L 14 8 C 14 8.554 14.446 9 15 9 L 19 9 L 19 16.623047 L 19 20.121094 L 19 21 L 15.818359 21 L 10.976562 21 L 5 21 L 5 4 z M 15 4 L 19 8 L 15 8 L 15 4 z " />
  <path
     d="m3 12c-.554 0-1 .446-1 1v9c0 .554.446 1 1 1h9c.554 0 1-.446 1-1v-9c0-.554-.446-1-1-1z"
     fill="#1e8bcd"
     id="path48" />
  <path
     d="m3.6493965 14.475575h1.1641l.87695 4.2305c.0195.08704.038461.2024.056641.3457.01818.14355.029486.27003.035156.37695h.021484c.0084-.10134.023175-.22364.046875-.36719.0237-.1433.047922-.26483.070313-.36328l.9707-4.2227h1.2578l1.0059 4.1602c.05033.20537.091535.46533.125.7832h.017578c.01397-.21942.047639-.47096.10352-.75781l.8046905-4.1855h1.1445l-1.4082005 6.0488h-1.3359l-.96094-4.0078c-.02794-.11542-.05883-.26544-.09375-.45117-.03493-.18549-.056123-.31993-.064453-.4043h-.017578c-.01119.09845-.032303.24352-.064453.4375-.03215.1942-.058635.33877-.078125.43164l-.90039 3.9941h-1.3574l-1.4199-6.0488z"
     fill="#fafafa"
     stroke-width=".275"
     id="path50" />
</svg>
