<svg viewBox="0 0 24 24" xmlns="http://www.w3.org/2000/svg">
  <path
     d="M 6.5,5 C 6.223,5 6,5.223 6,5.5 6,5.777 6.223,6 6.5,6 h 4 C 10.777,6 11,5.777 11,5.5 11,5.223 10.777,5 10.5,5 Z m 0,4 C 6.223,9 6,9.223 6,9.5 6,9.777 6.223,10 6.5,10 h 4 C 10.777,10 11,9.777 11,9.5 11,9.223 10.777,9 10.5,9 Z m 8,0 C 14.223,9 14,9.223 14,9.5 14,9.777 14.223,10 14.5,10 h 4 C 18.777,10 19,9.777 19,9.5 19,9.223 18.777,9 18.5,9 Z m -8,3 C 6.223,12 6,12.223 6,12.5 6,12.777 6.223,13 6.5,13 h 4 C 10.777,13 11,12.777 11,12.5 11,12.223 10.777,12 10.5,12 Z m 8,0 c -0.277,0 -0.5,0.223 -0.5,0.5 0,0.277 0.223,0.5 0.5,0.5 h 4 C 18.777,13 19,12.777 19,12.5 19,12.223 18.777,12 18.5,12 Z m -8,3 C 6.223,15 6,15.223 6,15.5 6,15.777 6.223,16 6.5,16 h 4 C 10.777,16 11,15.777 11,15.5 11,15.223 10.777,15 10.5,15 Z"
     fill="#c8c6c4" />
  <path
     d="m12.5 5c-.277 0-.5.223-.5.5v12.5h-3.6015625c-.220661 0-.3984375.177776-.3984375.398438v.203124c0 .220662.1777765.398438.3984375.398438h4.1015625.101562c.220662 0 .398438-.177776.398438-.398438v-.101562-.101562-12.398438h3.5c.277 0 .5-.223.5-.5s-.223-.5-.5-.5z"
     fill="#ed3d3b" />
  <path
     d="m5 2c-.554 0-1 .446-1 1v18c0 .554.446 1 1 1h15c.554 0 1-.446 1-1v-18c0-.554-.446-1-1-1zm0 1h15v18h-15z"
     fill="#fafafa" />
  <path
     d="m22.285683 12.999968-4.285715 4.285714-4.285715-4.285714-.714285.714285 4.285714 4.285715-4.285714 4.285715.714285.714285 4.285715-4.285714 4.285715 4.285714.714285-.714285-4.285714-4.285715 4.285714-4.285715z"
     fill="#ed3d3b" />
</svg>
