<svg viewBox="0 0 24 24" xmlns="http://www.w3.org/2000/svg">
  <path
     d="m6.5 5c-.277 0-.5.223-.5.5s.223.5.5.5h4c.277 0 .5-.223.5-.5s-.223-.5-.5-.5zm0 4c-.277 0-.5.223-.5.5s.223.5.5.5h4c.277 0 .5-.223.5-.5s-.223-.5-.5-.5zm8 0c-.277 0-.5.223-.5.5s.223.5.5.5h4c.277 0 .5-.223.5-.5s-.223-.5-.5-.5zm-8 3c-.277 0-.5.223-.5.5s.223.5.5.5h4c.277 0 .5-.223.5-.5s-.223-.5-.5-.5zm8 0c-.120649 0-.226304.048494-.3125.119141a.99955814.99955814 0 0 1 .234375.173828l.707031.707031h3.371094c.277 0 .5-.223.5-.5s-.223-.5-.5-.5zm-8 3c-.277 0-.5.223-.5.5s.223.5.5.5h4c.277 0 .5-.223.5-.5s-.223-.5-.5-.5zm10.628906 0 .871094.871094.777344-.777344c-.080256-.054833-.172393-.09375-.277344-.09375zm-2.628906 3c-.277 0-.5.223-.5.5s.223.5.5.5h.371094l1-1z"
     fill="#797774"
     id="path4" />
  <path
     d="m12.5 5c-.277 0-.5.223-.5.5v8.228516a.99955814.99955814 0 0 1 .292969-.720704l.707031-.707031v-6.300781h3.5c.277 0 .5-.223.5-.5s-.223-.5-.5-.5zm-.5 8.728516v4.271484h-3.6015625c-.220661 0-.3984375.177776-.3984375.398438v.203124c0 .220663.1777765.398438.3984375.398438h4.1015625.101562c.220663 0 .398438-.177776.398438-.398438v-.101562-.101562-3.269532l-.707031-.707031a.99955814.99955814 0 0 1 -.292969-.693359z"
     fill="#ed3d3b"
     id="path6" />
  <path
     d="m5 2c-.554 0-1 .446-1 1v18c0 .554.446 1 1 1h7.042969c.04701-.159202.132929-.304191.25-.421875l.578125-.578125h-7.871094v-18h15v10.871094l1-1v-9.871094c0-.554-.446-1-1-1z"
     fill="#fafafa"
     id="path8" />
  <path
     d="m22.285683 12.999968-4.285715 4.285714-4.285715-4.285714-.714285.714285 4.285714 4.285715-4.285714 4.285715.714285.714285 4.285715-4.285714 4.285715 4.285714.714285-.714285-4.285714-4.285715 4.285714-4.285715z"
     fill="#ed3d3b"
     id="path10" />
</svg>
