<svg viewBox="0 0 24 24" xmlns="http://www.w3.org/2000/svg">
  <path
     style="fill:#797774"
     d="M 12 5 C 11.446 5 11 5.446 11 6 L 11 18 C 11 18.554 11.446 19 12 19 L 14 19 C 14.554 19 15 18.554 15 18 L 15 17.125 L 12.294922 14.419922 A 0.99796773 0.99796773 0 0 1 12.294922 13.009766 L 13.009766 12.294922 A 0.99796773 0.99796773 0 0 1 13.699219 12.001953 A 0.99796773 0.99796773 0 0 1 14.419922 12.294922 L 15 12.875 L 15 6 C 15 5.446 14.554 5 14 5 L 12 5 z M 7 8 C 6.446 8 6 8.446 6 9 L 6 18 C 6 18.554 6.446 19 7 19 L 9 19 C 9.554 19 10 18.554 10 18 L 10 9 C 10 8.446 9.554 8 9 8 L 7 8 z M 17 11 C 16.446 11 16 11.446 16 12 L 16 13.875 L 18 15.875 L 20 13.875 L 20 12 C 20 11.446 19.554 11 19 11 L 17 11 z " />
  <g
     transform="matrix(0 -1 -1 0 0 0)"
     id="g8">
    <path
     style="fill:#fafafa"
       d="M 4.5 2 C 4.223 2 4 2.223 4 2.5 L 4 19 L 2.5 19 C 2.223 19 2 19.223 2 19.5 C 2 19.777 2.223 20 2.5 20 L 4 20 L 4 21.5 C 4 21.777 4.223 22 4.5 22 C 4.777 22 5 21.777 5 21.5 L 5 20 L 13.875 20 L 14.875 19 L 5 19 L 5 2.5 C 5 2.223 4.777 2 4.5 2 z "
       transform="matrix(0,-1,-1,0,0,0)" />
  </g>
    <path
     fill="#ed3d3b"
       d="M 16.5 8 C 16.223 8 16 8.223 16 8.5 L 16 9.5 C 16 9.777 16.223 10 16.5 10 L 19.5 10 C 19.777 10 20 9.777 20 9.5 L 20 8.5 C 20 8.223 19.777 8 19.5 8 L 16.5 8 z M 13.714844 13 L 13 13.714844 L 17.285156 18 L 13 22.285156 L 13.714844 23 L 18 18.714844 L 22.285156 23 L 23 22.285156 L 18.714844 18 L 23 13.714844 L 22.285156 13 L 18 17.285156 L 13.714844 13 z " />
  <path
     style="fill:#3a3a38"
     d="M 12 6 L 12 18 L 14 18 L 14 16.125 L 12.294922 14.419922 A 0.99796773 0.99796773 0 0 1 12.294922 13.009766 L 13.009766 12.294922 A 0.99796773 0.99796773 0 0 1 13.699219 12.001953 A 0.99796773 0.99796773 0 0 1 14 12.044922 L 14 6 L 12 6 z M 7 9 L 7 18 L 9 18 L 9 9 L 7 9 z M 17 12 L 17 14.875 L 18 15.875 L 19 14.875 L 19 12 L 17 12 z " />
</svg>
