<svg viewBox="0 0 24 24" xmlns="http://www.w3.org/2000/svg">
  <path
     id="rect35"
     style="fill:#f5f5ff"
     d="m 5,14 v 6.875 h 1.375 v -2.474609 h 1.25 c 0.51877,0 0.975311,-0.0959 1.369141,-0.28711 0.3938,-0.19148 0.696616,-0.459617 0.910156,-0.804687 0.21353,-0.34475 0.320312,-0.738641 0.320312,-1.181641 0,-0.68985 -0.216437,-1.216198 -0.648437,-1.580078 C 9.144472,14.183245 8.521714,14 7.708984,14 Z m 1.375,1.099609 h 1.130859 c 0.8328,0 1.25,0.359109 1.25,1.074219 0,0.36811 -0.109002,0.646161 -0.326171,0.837891 -0.217441,0.191452 -0.539584,0.289062 -0.964844,0.289062 H 6.375 Z" />
  <path
     fill="#fafafa"
     d="M 5 3 C 4.446 3 4 3.446 4 4 L 4 21 C 4 21.554 4.446 22 5 22 L 10.183594 22 L 14.283203 22 L 20 22 L 20 18.644531 L 20 17.117188 L 20 8.0410156 C 20 7.5903356 20.098041 7.6155994 19.394531 6.9746094 L 16.087891 3.7363281 C 15.378371 2.9994681 15.377771 3 14.994141 3 L 14 3 L 5 3 z M 5 4 L 14 4 L 14 8 C 14 8.554 14.446 9 15 9 L 19 9 L 19 16.623047 L 19 20.121094 L 19 21 L 15.818359 21 L 10.976562 21 L 5 21 L 5 4 z M 15 4 L 19 8 L 15 8 L 15 4 z "
     id="path2" />
  <path
     d="m3 12c-.554 0-1 .446-1 1v9c0 .554.446 1 1 1h9c.554 0 1-.446 1-1v-9c0-.554-.446-1-1-1zm2 2h2.7089844c.81273 0 1.4354875.183245 1.8671875.546875.4320001.36388.6484371.890228.6484371 1.580078 0 .443-.106782.836891-.3203121 1.181641-.21354.34507-.5163563.613207-.9101563.804687-.39383.19121-.8503706.28711-1.3691406.28711h-1.25v2.474609h-1.375zm1.375 1.099609v2.201172h1.0898438c.4252599 0 .7474037-.097612.9648437-.289062.21717-.19173.3261719-.469781.3261719-.837891 0-.71511-.4172-1.074219-1.25-1.074219z"
     fill="#ed8733"
     id="path184" />
</svg>
