<?xml version="1.0" encoding="UTF-8" standalone="no"?>
<svg
   height="24"
    viewBox="0 0 6.3499999 6.3500002" >
  <path
     fill="#fafafa"
     d="M 3 2 C 2.4460007 2 2 2.4460007 2 3 L 2 21 C 2 21.553999 2.4460007 22 3 22 L 12.042969 22 C 12.089979 21.840799 12.175898 21.695809 12.292969 21.578125 L 12.871094 21 L 3 21 L 3 3 L 21 3 L 21 12.871094 L 21.578125 12.292969 C 21.695809 12.175898 21.840798 12.089979 22 12.042969 L 22 3 C 22 2.4460007 21.553999 2 21 2 L 3 2 z "
     transform="scale(0.26458334)" />
  <path
     id="rect6"
     style="fill:#797774;stroke-width:0.999999"
     d="M 10.474609 6 C 10.209694 6.0126637 10 6.2199102 10 6.4746094 L 10 6.5253906 C 10 6.788306 10.222999 7 10.5 7 L 17.5 7 C 17.777001 7 18 6.788306 18 6.5253906 L 18 6.4746094 C 18 6.211694 17.777001 6 17.5 6 L 10.5 6 C 10.491344 6 10.483155 5.9995915 10.474609 6 z M 10.474609 11 C 10.209694 11.012664 10 11.21991 10 11.474609 L 10 11.525391 C 10 11.788306 10.222999 12 10.5 12 L 17.5 12 C 17.777001 12 18 11.788306 18 11.525391 L 18 11.474609 C 18 11.211694 17.777001 11 17.5 11 L 10.5 11 C 10.491344 11 10.483155 10.999591 10.474609 11 z M 10.474609 16 C 10.209694 16.012666 10 16.219911 10 16.474609 L 10 16.525391 C 10 16.78831 10.223 17 10.5 17 L 14.871094 17 L 13.871094 16 L 10.5 16 C 10.491344 16 10.483155 15.999591 10.474609 16 z "
     transform="scale(0.26458334)" />
  <path
     d="M 2.1166667,1.71978 A 0.396875,0.396875 0 0 1 1.7197917,2.11665 0.396875,0.396875 0 0 1 1.3229167,1.71978 0.396875,0.396875 0 0 1 1.7197917,1.3229 0.396875,0.396875 0 0 1 2.1166667,1.71978 Z"
     fill="#0063b1"
     id="path14"
     style="stroke-width:0.264583" />
  <path
     d="M 2.1166667,3.04269 A 0.396875,0.396875 0 0 1 1.7197917,3.43957 0.396875,0.396875 0 0 1 1.3229167,3.04269 0.396875,0.396875 0 0 1 1.7197917,2.64582 0.396875,0.396875 0 0 1 2.1166667,3.04269 Z"
     fill="#fb983b"
     id="path16"
     style="stroke-width:0.264583" />
  <path
     d="M 2.1166667,4.36561 A 0.396875,0.396875 0 0 1 1.7197917,4.76248 0.396875,0.396875 0 0 1 1.3229167,4.36561 0.396875,0.396875 0 0 1 1.7197917,3.96873 0.396875,0.396875 0 0 1 2.1166667,4.36561 Z"
     fill="#797774"
     id="path18"
     style="stroke-width:0.264583" />
  <path
     d="M 1.8520833,1.71979 A 0.13229167,0.13229167 0 0 1 1.7197917,1.85208 0.13229167,0.13229167 0 0 1 1.5875,1.71979 0.13229167,0.13229167 0 0 1 1.7197917,1.5875 0.13229167,0.13229167 0 0 1 1.8520833,1.71979 Z"
     fill="#83beec"
     id="path20"
     style="fill-opacity:0.982993;stroke-width:0.264583" />
  <path
     d="M 1.8520833,3.04272 A 0.13229167,0.13229167 0 0 1 1.7197917,3.17501 0.13229167,0.13229167 0 0 1 1.5875,3.04272 0.13229167,0.13229167 0 0 1 1.7197917,2.91043 0.13229167,0.13229167 0 0 1 1.8520833,3.04272 Z"
     fill="#f8db8f"
     id="path22"
     style="fill-opacity:0.982993;stroke-width:0.264583" />
  <path
     d="M 1.8520833,4.36565 A 0.13229167,0.13229167 0 0 1 1.7197917,4.49794 0.13229167,0.13229167 0 0 1 1.5875,4.36565 0.13229167,0.13229167 0 0 1 1.7197917,4.23336 0.13229167,0.13229167 0 0 1 1.8520833,4.36565 Z"
     fill="#fafafa"
     id="path24"
     style="fill-opacity:0.982993;stroke-width:0.264583" />
  <path
     d="m5.8964202 3.4395748-1.1339287 1.1339285-1.1339287-1.1339285-.1889879.1889879 1.1339284 1.1339288-1.1339284 1.1339288.1889879.1889879 1.1339287-1.1339286 1.1339287 1.1339286.188988-.1889879-1.1339285-1.1339288 1.1339285-1.1339288z"
     fill="#ed3d3b"
     id="path30" />
</svg>
