<svg viewBox="0 0 24 24" xmlns="http://www.w3.org/2000/svg">
  <path
     fill="#fafafa"
     d="M 10.386719,2 C 5.7365971,2.0619785 1.999587,5.8494651 2,10.5 c 0,4.69442 3.8055796,8.5 8.5,8.5 0.06511,9.7e-5 0.130218,-5.54e-4 0.195312,-0.002 l 0.494141,-0.492188 c 0.0132,-0.0186 0.01858,-0.04071 0.0332,-0.05859 0.02153,-0.02587 0.04434,-0.05064 0.06836,-0.07422 l 0.707031,-0.707031 0.169922,-0.169922 c 0.395201,-0.75381 0.737046,-1.508009 1,-2.263672 0.365682,0.05112 0.730871,0.114192 1.095703,0.179687 L 15.125,14.554688 c -0.544728,-0.110555 -1.090772,-0.208901 -1.640625,-0.289063 0.159697,-0.58201 0.271012,-1.163958 0.351563,-1.746094 C 13.911279,12.013623 13.959889,11.507167 13.980469,11 h 3.99414 c -0.01577,0.204026 -0.03987,0.407321 -0.07227,0.609375 -0.0065,0.05542 -0.01371,0.110759 -0.02148,0.166016 -0.0032,0.01433 -0.0065,0.02865 -0.0098,0.04297 l 1.125,-1.121093 C 18.998159,10.631528 18.999461,10.565768 19,10.5 19,5.8055796 15.19442,2 10.5,2 10.46224,1.9997484 10.424479,1.9997484 10.386719,2 Z M 10.5,3 c 0.08729,0.00173 0.174543,0.00499 0.261719,0.00977 0.587148,0.9686253 1.055443,1.9303704 1.410156,2.8886719 C 11.059017,6.0075605 9.9398189,6.028178 8.8105469,5.953125 9.1671059,4.9780722 9.6391292,3.9993779 10.236328,3.0136719 10.324132,3.0075678 10.412036,3.0030098 10.5,3 Z M 9.0078125,3.1503906 C 8.5110295,4.0498035 8.1107354,4.951331 7.8027344,5.8535156 6.9091244,5.7444673 6.0075354,5.5581705 5.0976562,5.3007812 6.152667,4.2038527 7.5164331,3.4538495 9.0078125,3.1503906 Z m 2.9882815,0.00781 c 1.46906,0.2992806 2.81471,1.0319731 3.863281,2.1035157 -0.895281,0.2099161 -1.791898,0.3801124 -2.691406,0.5058593 -0.303059,-0.8709159 -0.6928,-1.741072 -1.171875,-2.609375 z m 4.582031,2.9609375 C 17.435365,7.289289 17.807183,8.6024489 17.974609,10 h -3.99414 C 13.959892,9.4928332 13.911283,8.9863764 13.835938,8.4804688 13.755388,7.8983327 13.644072,7.3163848 13.484375,6.734375 14.52477,6.5826968 15.555876,6.3727839 16.578125,6.1191406 Z M 4.4082031,6.140625 C 5.4478791,6.4602145 6.4778737,6.6902282 7.4960938,6.8242188 7.3485117,7.3756842 7.2416125,7.9269899 7.1640625,8.4785156 7.0885515,8.9850483 7.0401312,9.4922053 7.0195312,10 H 3.0253906 C 3.1033216,8.567725 3.6721456,7.3224291 4.4082031,6.140625 Z M 12.498047,6.8632812 C 12.511347,6.908957 12.516527,6.954336 12.529297,7 h -0.0078 c 0.280817,1.000216 0.435658,1.99983 0.480469,3 H 7.9980469 C 8.0428569,8.9998302 8.1976996,8.000216 8.4785156,7 h -0.013672 c 0.0073,-0.0261 0.010078,-0.052021 0.017578,-0.078125 1.355341,0.107918 2.6940721,0.082504 4.0156251,-0.058594 z M 3.0253906,11 h 3.9941406 c 0.020577,0.507167 0.069181,1.013623 0.1445313,1.519531 0.080548,0.582136 0.1918655,1.164084 0.3515625,1.746094 C 6.47523,14.417303 5.444124,14.627216 4.421875,14.880859 3.5646349,13.710711 3.1928168,12.397551 3.0253906,11 Z m 4.9726563,0 h 5.0039061 c -0.04481,1.00017 -0.199653,1.999784 -0.480469,3 h 0.01367 c -0.0073,0.02611 -0.01008,0.05203 -0.01758,0.07813 -1.355341,-0.107922 -2.6940719,-0.0825 -4.0156249,0.05859 C 8.4886631,14.09104 8.4834731,14.04566 8.4707031,14 h 0.00781 C 8.1976986,12.999784 8.0428569,12.00017 7.9980469,11 Z m 2.5039061,4.005859 c 0.560066,-0.0094 1.122864,0.0035 1.6875,0.04102 -0.356559,0.975053 -0.828582,1.953747 -1.425781,2.939453 -0.0878,0.0061 -0.175708,0.01066 -0.263672,0.01367 -0.08729,-0.0017 -0.174543,-0.005 -0.261719,-0.0098 -0.5871476,-0.968625 -1.055443,-1.930371 -1.410156,-2.888672 0.556429,-0.05457 1.1137625,-0.08629 1.673828,-0.0957 z m -2.6699218,0.226563 c 0.3030591,0.870916 0.6928001,1.741072 1.171875,2.609375 C 7.5348466,17.542516 6.189196,16.809824 5.140625,15.738281 6.035906,15.528365 6.9325234,15.358169 7.8320312,15.232422 Z" />
  <g
     fill="#fb983b"
     transform="translate(-1 -1)"
     id="g16">
    <path
       d="m20.419922 11c-.189562 0-.378184.07172-.523438.216797l-1.673828 1.669922 2.847656 2.849609 1.710938-1.638672c.290506-.290127.290506-.756747 0-1.046875l-1.835938-1.833984c-.145254-.145064-.335828-.216797-.52539-.216797zm0 .990234 1.582031 1.580078-.917969.88086-1.5625-1.5625z"
       fill="#0063b1"
       transform="translate(1 1)"
       id="path6" />
    <path
       d="m21.419922 12.990234-.898438.898438 1.5625 1.5625.917969-.88086z"
       fill="#83beec"
       id="path8" />
    <g
       transform="translate(1 1)"
       id="g14">
      <path
         d="m12.708984 18.376953-.002-.002-.706984.707078.002.002-.05078.05078-.95122 3.865189 3.806641-1.011719 6.24414-6.271484-2.828125-2.830078zm5.511719-4.191406 1.53125 1.533203-4.841797 4.861328-1.550781-1.552734zm-5.509765 5.708984 1.34375 1.341797-1.791016.476563z"
         fill="#0063b1"
         id="path10" />
      <path
         d="m18.220703 14.185547 1.53125 1.533203-4.841797 4.861328-1.550781-1.552734zm-5.509765 5.708984 1.34375 1.341797-1.791016.476563z"
         fill="#83beec"
         id="path12" />
    </g>
  </g>
</svg>
