<svg viewBox="0 0 24 24" xmlns="http://www.w3.org/2000/svg">
  <path
     style="fill:#fafafa"
     d="M 6.3046875 2 L 2 5.9804688 L 2 6 L 2 6.1992188 L 2 22 L 9 22 L 9 21 L 3 21 L 3 7 L 17 7 L 17 21 L 12 21 L 12 22 L 18 22 L 18.019531 22 L 22 17.695312 L 22 2.5 L 22 2 L 6.3046875 2 z M 6.6953125 3 L 20.292969 3 L 17.292969 6 L 3.4511719 6 L 6.6953125 3 z M 21 3.7070312 L 21 17.304688 L 18 20.548828 L 18 6.7070312 L 21 3.7070312 z " />
  <path
     style="fill:#1e8bcd"
     d="M 10.5 12 A 0.5 0.5 0 0 0 10.146484 12.146484 L 6.1464844 16.146484 A 0.5 0.5 0 0 0 6.1464844 16.853516 A 0.5 0.5 0 0 0 6.8535156 16.853516 L 10 13.707031 L 10 21.5 A 0.5 0.5 0 0 0 10.5 22 A 0.5 0.5 0 0 0 11 21.5 L 11 13.707031 L 14.146484 16.853516 A 0.5 0.5 0 0 0 14.853516 16.853516 A 0.5 0.5 0 0 0 14.853516 16.146484 L 10.853516 12.146484 A 0.5 0.5 0 0 0 10.5 12 z " />
</svg>
