<?xml version="1.0" encoding="UTF-8"?>
<svg width="24" height="24" viewBox="0 0 24 24" xmlns="http://www.w3.org/2000/svg">
 <path d="m12.855 7c0.0567 0.30149 0.0855 0.60753 0.0863 0.91429 0 1.3321-0.5291 2.6097-1.4711 3.5516-0.9419 0.9419-2.2195 1.4711-3.5516 1.4711-0.3082-0.0018-0.61556-0.032-0.91822-0.0902 0.1414 0.7615 0.45701 1.48 0.92214 2.0993 0.46746 0.6233 1.0735 1.1293 1.7702 1.478 0.69666 0.3487 1.465 0.5305 2.2441 0.5311 1.3321 0 2.6097-0.5292 3.5516-1.4711 0.9419-0.942 1.4711-2.2195 1.4711-3.5516-0.0012-0.7785-0.1833-1.5459-0.532-2.2419-0.3487-0.69597-0.8543-1.3014-1.4771-1.7684-0.6181-0.46458-1.3352-0.78016-2.0954-0.92214zm1.6481 3.3589c0.2913 0.4733 0.4462 1.0179 0.4473 1.5736 0 0.7992-0.3175 1.5658-0.8826 2.1309-0.5652 0.5652-1.3317 0.8827-2.131 0.8827-0.5544-0.0019-1.0975-0.1567-1.5696-0.4473 0.9462-0.3526 1.8054-0.9049 2.519-1.6193 0.7137-0.7143 1.2652-1.574 1.6169-2.5206z" fill="#F8DB8F"/>
 <path d="m14.501 10.359c-0.3515 0.9462-0.9028 1.8056-1.6162 2.5197s-1.5723 1.2661-2.5181 1.6186c0.4719 0.2906 1.0148 0.4453 1.569 0.4472 0.799 0 1.5652-0.3174 2.1302-0.8823 0.5649-0.565 0.8823-1.3312 0.8823-2.1302-0.0012-0.5555-0.1559-1.0999-0.4472-1.573z" fill="#ED8733"/>
 <path d="m2 2v20h20v-20h-20zm1 1h18v18h-18v-18z" fill="#FAFAFA"/>
 <rect x="5" y="5" width="2" height="2" fill="#83BEEC"/>
 <rect x="17" y="5" width="2" height="2" fill="#83BEEC"/>
 <rect x="17" y="17" width="2" height="2" fill="#83BEEC"/>
 <rect x="5" y="17" width="2" height="2" fill="#83BEEC"/>
 <rect x="6" y="7" width="1" height="10" fill="#83BEEC"/>
 <rect x="7" y="6" width="10" height="1" fill="#83BEEC"/>
 <rect x="17" y="7" width="1" height="10" fill="#83BEEC"/>
 <rect transform="matrix(1 0 0 -1 7 18)" width="10" height="1" fill="#83BEEC"/>
 <rect x="6" y="6" width="1" height="1" fill="#0063B1"/>
 <rect x="17" y="6" width="1" height="1" fill="#0063B1"/>
 <rect x="17" y="17" width="1" height="1" fill="#0063B1"/>
 <rect x="6" y="17" width="1" height="1" fill="#0063B1"/>
</svg>
