<svg viewBox="0 0 24 24" xmlns="http://www.w3.org/2000/svg"><path d="m10.386719 2a8.5 8.5 0 0 0 -8.386719 8.5 8.5 8.5 0 0 0 8.5 8.5 8.5 8.5 0 0 0 .195312-.001953l.494141-.492188c.0132-.018601.018584-.040705.033203-.058593.02153-.02587.04434-.050639.06836-.074219l.707031-.707031.169922-.169922c.3952-.753809.737046-1.50801 1-2.263672.365681.051121.730871.114192 1.095703.179687l.861328-.857421c-.544727-.110554-1.090773-.208901-1.640625-.289063.159697-.582009.271012-1.163958.351563-1.746094.07534-.505907.123951-1.012365.144531-1.519531h3.99414a7.5 7.5 0 0 1 -.072265.609375 7.5 7.5 0 0 1 -.021485.166016 7.5 7.5 0 0 1 -.009765.042968l1.125-1.121093a8.5 8.5 0 0 0 .003906-.197266 8.5 8.5 0 0 0 -8.5-8.5 8.5 8.5 0 0 0 -.113281 0zm.113281 1a7.5 7.5 0 0 1 .261719.0097656c.587147.9686244 1.055443 1.9303714 1.410156 2.8886719-1.112857.1091229-2.2320573.1297404-3.3613281.0546875.3565586-.9750518.8285829-1.9537481 1.4257811-2.9394531a7.5 7.5 0 0 1 .263672-.0136719zm-1.4921875.1503906c-.4967825.899412-.8970774 1.8009413-1.2050781 2.703125-.8936091-.1090482-1.7952-.2953453-2.7050782-.5527344a7.5 7.5 0 0 1 3.9101563-2.1503906zm2.9882815.0078125a7.5 7.5 0 0 1 3.863281 2.1035157c-.89528.2099159-1.791899.3801126-2.691406.5058593-.303059-.870915-.692801-1.7410728-1.171875-2.609375zm4.582031 2.9609375a7.5 7.5 0 0 1 .587891.9648438 7.5 7.5 0 0 1 .103515.2207031 7.5 7.5 0 0 1 .207031.4707031 7.5 7.5 0 0 1 .072266.2050782 7.5 7.5 0 0 1 .16211.4960937 7.5 7.5 0 0 1 .05664.2382813 7.5 7.5 0 0 1 .113281.5097656 7.5 7.5 0 0 1 .021485.1660156 7.5 7.5 0 0 1 .072265.609375h-3.99414c-.020577-.5071663-.069187-1.0136241-.144531-1.5195312-.080549-.5821355-.191866-1.1640846-.351563-1.7460938 1.040394-.151678 2.071502-.3615913 3.09375-.6152344zm-12.1699219.0214844c1.039675.3195892 2.0696716.5496034 3.0878907.6835938-.1475819.5514648-.2544814 1.1027717-.3320313 1.6542968-.0755109.5065322-.1239313 1.0136902-.1445313 1.5214844h-3.9941406a7.5 7.5 0 0 1 .0761719-.6621094 7.5 7.5 0 0 1 .0332031-.1914062 7.5 7.5 0 0 1 .1113282-.5019532 7.5 7.5 0 0 1 .0761718-.2773437 7.5 7.5 0 0 1 .1289063-.3964844 7.5 7.5 0 0 1 .1425781-.3652343 7.5 7.5 0 0 1 .1269531-.2871094 7.5 7.5 0 0 1 .6875-1.1777344zm8.0898439.7226562c.0133.0456758.01848.0910548.03125.1367188h-.007813c.280817 1.000215.435658 1.999831.480469 3h-5.0039061c.0448099-1.0001688.199653-1.999785.4804687-3h-.0136718c.0072998-.0261.0100781-.052021.0175781-.078125 1.3553396.1079179 2.6940731.0825042 4.0156251-.0585938zm-9.4726564 4.1367188h3.9941406c.0205771.507166.0691814 1.013624.1445313 1.519531.0805479.582136.1918657 1.164085.3515625 1.746094-1.040394.151678-2.071502.361592-3.09375.615234a7.5 7.5 0 0 1 -.5878906-.964843 7.5 7.5 0 0 1 -.1035156-.220704 7.5 7.5 0 0 1 -.2070313-.470703 7.5 7.5 0 0 1 -.0722656-.205078 7.5 7.5 0 0 1 -.1621094-.496093 7.5 7.5 0 0 1 -.0566406-.238282 7.5 7.5 0 0 1 -.1132813-.509765 7.5 7.5 0 0 1 -.0214844-.166016 7.5 7.5 0 0 1 -.0722656-.609375zm4.9726563 0h5.0039061c-.04481 1.000169-.199653 1.999785-.480469 3h.013672c-.0073.02611-.010078.052025-.017578.078125-1.35534-.107922-2.6940732-.082504-4.0156249.058594-.01329-.045679-.01848-.091059-.03125-.136719h.0078125c-.2808167-1.000215-.4356588-1.999831-.4804687-3zm2.5039061 4.005859c.560066-.009412 1.122865.003491 1.6875.041016-.356559.975052-.828583 1.953748-1.425781 2.939453a7.5 7.5 0 0 1 -.263672.013672 7.5 7.5 0 0 1 -.261719-.009766c-.587147-.968624-1.0554434-1.930371-1.410156-2.888672.5564284-.054564 1.1137631-.08629 1.673828-.095703zm-2.6699218.226563c.3030588.870915.6928006 1.741073 1.171875 2.609375a7.5 7.5 0 0 1 -3.8632812-2.103516c.8952801-.209916 1.7918992-.380112 2.6914062-.505859z" fill="#fafafa"/><g fill="#fb983b" transform="translate(-1 -1)"><path d="m20.419922 11c-.189562 0-.378184.07172-.523438.216797l-1.673828 1.669922 2.847656 2.849609 1.710938-1.638672c.290506-.290127.290506-.756747 0-1.046875l-1.835938-1.833984c-.145254-.145064-.335828-.216797-.52539-.216797zm0 .990234 1.582031 1.580078-.917969.88086-1.5625-1.5625z" fill="#83beec" transform="translate(1 1)"/><path d="m21.419922 12.990234-.898438.898438 1.5625 1.5625.917969-.88086z" fill="#0063b1"/><g transform="translate(1 1)"><path d="m12.708984 18.376953-.002-.002-.706984.707078.002.002-.05078.05078-.95122 3.865189 3.806641-1.011719 6.24414-6.271484-2.828125-2.830078zm5.511719-4.191406 1.53125 1.533203-4.841797 4.861328-1.550781-1.552734zm-5.509765 5.708984 1.34375 1.341797-1.791016.476563z" fill="#83beec"/><path d="m18.220703 14.185547 1.53125 1.533203-4.841797 4.861328-1.550781-1.552734zm-5.509765 5.708984 1.34375 1.341797-1.791016.476563z" fill="#0063b1"/></g></g></svg>