<svg viewBox="0 0 24 24" xmlns="http://www.w3.org/2000/svg">
  <path
     fill="#fafafa"
     d="M 5 2 C 4.446 2 4 2.446 4 3 L 4 21 C 4 21.554 4.446 22 5 22 L 19 22 C 19.554 22 20 21.554 20 21 L 20 10.890625 L 20 7.25 L 20 7.0410156 C 20 6.5903357 20.098038 6.6156035 19.394531 5.9746094 L 16.087891 2.7363281 C 15.378366 1.9994706 15.377722 2 14.994141 2 L 14.662109 2 L 14 2 L 5 2 z M 5 3 L 14 3 L 14 7 C 14 7.554 14.446 8 15 8 L 19 8 L 19 21 L 5 21 L 5 3 z M 15 3 L 19 7 L 15 7 L 15 3 z "
     id="path2" />
  <path
     fill="#c8c6c4"
     d="M 6.5 5 C 6.223 5 6 5.223 6 5.5 C 6 5.777 6.223 6 6.5 6 L 12.5 6 C 12.777 6 13 5.777 13 5.5 C 13 5.223 12.777 5 12.5 5 L 6.5 5 z M 6.5 8 C 6.223 8 6 8.223 6 8.5 C 6 8.777 6.223 9 6.5 9 L 12.5 9 C 12.777 9 13 8.777 13 8.5 C 13 8.223 12.777 8 12.5 8 L 6.5 8 z M 6.4824219 17 C 6.2153811 17 6 17.215381 6 17.482422 L 6 17.517578 C 6 17.784619 6.2153811 18 6.4824219 18 L 17.517578 18 C 17.784619 18 18 17.784619 18 17.517578 L 18 17.482422 C 18 17.215381 17.784619 17 17.517578 17 L 6.4824219 17 z " />
  <path
     id="rect12"
     style="fill:#0063b1"
     d="M 6.5 11 C 6.223 11 6 11.223 6 11.5 C 6 11.777 6.223 12 6.5 12 L 10.5 12 C 10.777 12 11 11.777 11 11.5 C 11 11.223 10.777 11 10.5 11 L 6.5 11 z M 13.5 11 C 13.223 11 13 11.223 13 11.5 C 13 11.777 13.223 12 13.5 12 L 17.5 12 C 17.777 12 18 11.777 18 11.5 C 18 11.223 17.777 11 17.5 11 L 13.5 11 z M 6.5 14 C 6.223 14 6 14.223 6 14.5 C 6 14.777 6.223 15 6.5 15 L 10.5 15 C 10.777 15 11 14.777 11 14.5 C 11 14.223 10.777 14 10.5 14 L 6.5 14 z M 13.5 14 C 13.223 14 13 14.223 13 14.5 C 13 14.777 13.223 15 13.5 15 L 17.5 15 C 17.777 15 18 14.777 18 14.5 C 18 14.223 17.777 14 17.5 14 L 13.5 14 z " />
</svg>
