<svg xmlns="http://www.w3.org/2000/svg" id="screenshot-49286e38-7d4a-808f-8006-fe3e517f5121" viewBox="0 0 24 24" xmlns:xlink="http://www.w3.org/1999/xlink" fill="none" version="1.1"><g id="shape-49286e38-7d4a-808f-8006-fe3e517f5121" rx="0" ry="0" style="fill: #FAFAFA"><g id="shape-49286e38-7d4a-808f-8006-fe3e517f5125" style="display: none;"><g class="fills" id="fills-49286e38-7d4a-808f-8006-fe3e517f5125"><rect width="24" height="24" x="0" transform="matrix(1.000000, 0.000000, 0.000000, 1.000000, 0.000000, 0.000000)" style="fill: none;" ry="0" fill="none" rx="0" y="0"/></g></g><g id="shape-49286e38-7d4a-808f-8006-fe3e517f5126" rx="0" ry="0" style="fill: rgb(0, 0, 0);"><g id="shape-49286e38-7d4a-808f-8006-fe3e517f5127"><g class="fills" id="fills-49286e38-7d4a-808f-8006-fe3e517f5127"><path d="M15.91455078125,10.44677734375L16.818359375,9.5810546875C17.060546875,9.33935546875,17.060546875,8.95068359375,16.818359375,8.708740234375L15.288330078125,7.18017578125C15.167236328125,7.0595703125,15.008544921875,6.99951171875,14.8505859375,6.99951171875L14.8505859375,6.99951171875C14.6925048828125,6.99951171875,14.535400390625,7.059326171875,14.414306640625,7.18017578125L13.530029296875,8.0625L15.91455078125,10.44677734375" style="fill: #FAFAFA; fill-opacity: 1;"/></g></g><g id="shape-49286e38-7d4a-808f-8006-fe3e517f5128"><g class="fills" id="fills-49286e38-7d4a-808f-8006-fe3e517f5128"><path d="M8.42431640625,13.1474609375L8.422607421875,13.14599609375L7.8333740234375,13.735107421875L7.8350830078125,13.73681640625L7.792724609375,13.779296875L7,17.00048828125L10.17236328125,16.1572265625L15.376220703125,10.9306640625L13.019287109375,8.572021484375L8.42431640625,13.1474609375" style="fill: #FAFAFA"/></g></g></g></g></svg>