<svg viewBox="0 0 24 24" xmlns="http://www.w3.org/2000/svg"><path d="m10.898438 4-5.898438 16h1.6875c.1834758 0 .3391615-.05267.4667969-.158203.1356125-.10553.2275273-.227232.2753906-.365235l1.203125-3.476562h3.2519535l1.996093-2h-4.552734l2.205078-6.3710938c.07179-.1948249.146791-.4218736.226563-.6816406.079772-.2597669.160462-.5450426.240234-.8535156l2.472656 7.314453 1.535156-1.541015-2.894531-7.867188zm7.861328 15.347656-.650391.652344h.890625z" fill="#fafafa"/><g fill="#0063b1" stroke-linecap="round" stroke-linejoin="round"><path d="m19.492188 10a.50005.50005 0 0 0 -.345704.146484l-2 2a.50005.50005 0 0 0 0 .707032l3 3a.50005.50005 0 0 0 .707032 0l2-2a.50005.50005 0 0 0 0-.707032l-3-3a.50005.50005 0 0 0 -.361328-.146484z" fill="#83beec"/><path d="m19.5 11-1.5 1.5 2.5 2.5 1.5-1.5z"/><path d="m17.387227 12.099771c-.128383.0019-.250968.05378-.341797.144532l-4.895039 4.906088c-.193221.193027-.193221.506191 0 .699218l3 3c.193027.193221.506191.193221.699218 0l4.895039-4.906088c.193221-.193026.193221-.506191 0-.699218l-3-3c-.09466-.09458-.223626-.146733-.357421-.144532z" fill="#83beec"/><path d="m17.395039 13.027506-4.461445 4.472494 2.566406 2.566406 4.461445-4.472494z" fill="#0063b1"/><path d="m12.359605 17.137159c-.195084.0034-.369096.123468-.441407.304687l-1.867417 4.878466c-.1570528.39476.234147.78596.628907.628907l4.867417-1.878466c.321733-.129523.406958-.545379.162109-.791016l-3-3c-.09244-.09287-.21858-.144316-.349609-.142578z" fill="#83beec"/><path d="m12.451401 18.025831-1.543198 4.065966 4.054917-1.554247z" fill="#0063b1"/></g></svg>