<svg viewBox="0 0 24 24" xmlns="http://www.w3.org/2000/svg"><path d="m10 2c-3.3137085 0-6 2.6862915-6 6 0 3.313708 2.6862915 6 6 6h1v3.210938l.107422-.267579a1.50015 1.50015 0 0 1 .332031-.503906l.560547-.560547v-12.878906h2v10.878906l1-1v-9.878906h1 3v-1z" fill="#fafafa"/><g fill="#0063b1" stroke-linecap="round" stroke-linejoin="round"><path d="m19.492188 10a.50005.50005 0 0 0 -.345704.146484l-2 2a.50005.50005 0 0 0 0 .707032l3 3a.50005.50005 0 0 0 .707032 0l2-2a.50005.50005 0 0 0 0-.707032l-3-3a.50005.50005 0 0 0 -.361328-.146484z" fill="#83beec"/><path d="m19.5 11-1.5 1.5 2.5 2.5 1.5-1.5z"/><path d="m17.387227 12.099771c-.128383.0019-.250968.05378-.341797.144532l-4.895039 4.906088c-.193221.193027-.193221.506191 0 .699218l3 3c.193027.193221.506191.193221.699218 0l4.895039-4.906088c.193221-.193026.193221-.506191 0-.699218l-3-3c-.09466-.09458-.223626-.146733-.357421-.144532z" fill="#83beec"/><path d="m17.395039 13.027506-4.461445 4.472494 2.566406 2.566406 4.461445-4.472494z" fill="#0063b1"/><path d="m12.359605 17.137159c-.195084.0034-.369096.123468-.441407.304687l-1.867417 4.878466c-.1570528.39476.234147.78596.628907.628907l4.867417-1.878466c.321733-.129523.406958-.545379.162109-.791016l-3-3c-.09244-.09287-.21858-.144316-.349609-.142578z" fill="#83beec"/><path d="m12.451401 18.025831-1.543198 4.065966 4.054917-1.554247z" fill="#0063b1"/></g></svg>