<svg viewBox="0 0 24 24" xmlns="http://www.w3.org/2000/svg"><path d="m3 2c-.554 0-1 .446-1 1v18c0 .554.446 1 1 1h10.708984c-.05631-.195975-.05154-.404461.01367-.597656l.134768-.402344h-10.857422v-15h18v6.808594c.354708.205071.689098.446351.996094.720703l.0039.0039.000006-10.533197c0-.554-.446-1-1-1z" fill="#fafafa"/><g fill="#c8c6c4"><path d="m5 8v4h4v-4zm1 1h2v2h-2z"/><path d="m5 14v4h4v-4zm1 1h2v2h-2z"/><path d="m11 9h7v1h-7z"/><path d="m11 15v1h1.898438a1.0027936 1.0027936 0 0 1 .015624-.003906l1.199219-.240235-.255859-.755859z"/></g><path d="m2 2h20v4h-20z" fill="#fafafa"/><path d="m3 3h18v2h-18z" fill="#797774"/><path d="m16.437488 13.253901c-.288253.09362-.567398.213248-.833984.357422-.335712.185464-.64898.408939-.933594.666016l.757812 2.236328-2.316406.464844c-.07209.335769-.109428.67807-.111328 1.021484.000647.343279.03664.685584.107422 1.021484l2.320312.464844-.755859 2.236328c.513244.458667 1.115664.806419 1.769531 1.021484l1.558594-1.773437 1.5625 1.77539c.288253-.09362.567396-.213252.833984-.357422.335712-.185462.64897-.408938.933594-.666015l-.757812-2.236328 2.316406-.464844c.07209-.335769.109428-.67807.111328-1.021484-.000647-.343279-.03664-.685584-.107422-1.021484l-2.320312-.464844.755859-2.236328c-.513244-.458667-1.115664-.80642-1.769531-1.021485l-1.558594 1.773438-.46875-.533203zm-.28125 1.191406 1.091797 1.244141a1.0001 1.0001 0 0 0 .865234.333985 1.0001 1.0001 0 0 0 .638672-.333985l1.091797-1.244141.3125.179688-.53125 1.568359a1.0001 1.0001 0 0 0 .75 1.300782l1.625.326171v.359376l-1.625.326171a1.0001 1.0001 0 0 0 -.75 1.300782l.529297 1.5625.002.0059-.3125.179688-1.091797-1.244141a1.0001 1.0001 0 0 0 -1.503906 0l-1.091844 1.2441-.3125-.179688.53125-1.568359a1.0001 1.0001 0 0 0 -.75-1.300782l-1.625-.326171v-.359376l1.625-.326171a1.0001 1.0001 0 0 0 .75-1.300782l-.53125-1.568359zm1.84375 2.554688a1 1 0 0 0 -1 1 1 1 0 0 0 1 1 1 1 0 0 0 1-1 1 1 0 0 0 -1-1z" fill="#1e8bcd"/></svg>