<svg version="1.1" viewBox="0 0 24 24" xmlns="http://www.w3.org/2000/svg"><path d="m2 2c-0.554 0-1 0.446-1 1v16c0 0.554 0.446 1 1 1h8.1289c0.082586-0.35052 0.20711-0.68484 0.36719-1h-8.4961v-16h18v9.0352c0.35308 0.050601 0.68916 0.15496 1 0.30274v-9.3379c0-0.554-0.446-1-1-1h-18z" fill="#63bbee"/><path d="m15.5 12c-1.3807 0-2.5 1.1193-2.5 2.5s1.1193 2.5 2.5 2.5c0.27235 0 0.53387-0.044481 0.7793-0.125-0.14141-0.33088-0.23232-0.68699-0.26562-1.0605-0.00927-0.1037-0.013672-0.20835-0.013672-0.31445 0-0.15418 0.013863-0.30424 0.033203-0.45312 0.00575-0.04332 0.012131-0.086106 0.019531-0.12891 0.14482-0.86267 0.60341-1.6189 1.2559-2.1445-0.45527-0.47706-1.0971-0.77344-1.8086-0.77344z" fill="#fafafa"/><path d="m15.5 17c-2.4853 0-4.5 1.7909-4.5 4h1c0-1.6569 1.567-3 3.5-3 0.25508 0 0.50457 0.023948 0.74414 0.068359 0.17946-0.12047 0.36645-0.23236 0.56055-0.33398-0.16734-0.20177-0.31248-0.42374-0.43164-0.66016-0.28229-0.049308-0.57449-0.074219-0.87305-0.074219z" fill="#fafafa"/><path d="m22 15.5c0 1.3807-1.1193 2.5-2.5 2.5s-2.5-1.1193-2.5-2.5 1.1193-2.5 2.5-2.5 2.5 1.1193 2.5 2.5z" fill="#fafafa"/><path d="m19.5 18c-2.4853 0-4.5 1.7909-4.5 4h1c0-1.6569 1.567-3 3.5-3 0.9665 0 1.8415 0.33579 2.4749 0.87868 0.63338 0.54289 1.0251 1.2929 1.0251 2.1213h1c0-1.1046-0.50368-2.1046-1.318-2.8284-0.81434-0.72386-1.9393-1.1716-3.182-1.1716z" fill="#fafafa"/><path d="m3.2217 5.2217v6.5566h7.5566v-6.5566z" fill="#63bbee" stroke="#63bbee" stroke-width=".443"/><path d="m2 3v1h18v-1z" fill="#63bbee" stroke-width=".7071"/></svg>
