<svg viewBox="0 0 24 24" xmlns="http://www.w3.org/2000/svg">
  <path
     style="fill:#fafafa"
     d="M 12 2 C 6.4830803 2 2 6.4830803 2 12 C 2 17.51692 6.4830803 22 12 22 C 17.51692 22 22 17.51692 22 12 C 22 6.4830803 17.51692 2 12 2 z M 12 3 C 16.97648 3 21 7.0235199 21 12 C 21 16.97648 16.97648 21 12 21 C 7.0235199 21 3 16.97648 3 12 C 3 7.0235199 7.0235199 3 12 3 z M 12 5.5 C 8.416075 5.5 5.5 8.416075 5.5 12 C 5.5 15.583925 8.416075 18.5 12 18.5 C 15.583925 18.5 18.5 15.583925 18.5 12 C 18.5 8.416075 15.583925 5.5 12 5.5 z M 12 6.5 C 15.043485 6.5 17.5 8.9565146 17.5 12 C 17.5 15.043485 15.043485 17.5 12 17.5 C 8.9565146 17.5 6.5 15.043485 6.5 12 C 6.5 8.9565146 8.9565146 6.5 12 6.5 z " />
</svg>
