<?xml version="1.0" encoding="UTF-8" standalone="no"?>
<svg
   height="24"
   viewBox="0 0 6.3499999 6.3500002">
  <path
     d="m0 2v21h24v-21h-3.279297c.325173.3308579.598777.7201801.800781 1.1445312a1.0020475 1.0020475 0 0 1 .480469.8554688v.5 3.5a1.0020475 1.0020475 0 0 1 -.460937.8417969l1.355468 2.7109371a1.0020475 1.0020475 0 0 1 -.449218 1.34375l-6 3a1.0020475 1.0020475 0 0 1 -1.34375-.449218l-3.095704-6.1914066c-.006053.9562276-.003783 1.4868736-.005859 2.2460936a1.0020475 1.0020475 0 0 1 -.195312.59375c-.909059 1.231075-2.019166 2.076073-3.3300785 2.785156a1.0020475 1.0020475 0 0 1 -1.4785156-.882812l.0058593-5.7929689c.0013299.0555301-.0165992-.2317853.0078126-.5175781.0244115-.2857928.08934-.6537385.2734374-1.0449219a1.0020475 1.0020475 0 0 1 .0722657-.1289062c.3066314-.4601126.6255935-.8560578 1.0898437-1.1269531.4642503-.2708956.959391-.3490245 1.4804688-.3867188a1.0020475 1.0020475 0 0 1 .0781246-.0019531l3.966797.0195312 1.007813-.0195312a1.0020475 1.0020475 0 0 1 .017578 0v-.4980469-.5a1.0020475 1.0020475 0 0 1 .474609-.8496094c.201944-.4259751.476577-.8183284.802735-1.1503906h-11.275391c.5539997 0 1 .4459969 1 1v15h15c.554 0 1 .445997 1 1v1c0 .554003-.446 1-1 1h-15c0 .554003-.4460003 1-1 1h-1c-.5539998 0-1-.445997-1-1-.554 0-1-.445997-1-1v-1c0-.554003.446-1 1-1v-15c0-.5540031.4460002-1 1-1z"
     fill="#1e8bcd"
     transform="scale(.26458334)"
     id="path2" />
  <path
     d="m1.3229166 5.6885616v-5.02708327c0-.0732896-.059002-.13229167-.1322916-.13229167-.07329 0-.1322917.0590021-.1322917.13229167v5.02708327c0 .07329.059002.1322917.1322917.1322917.07329 0 .1322916-.059002.1322916-.1322917z"
     fill="#fafafa"
     stroke-width=".264583"
     id="path4" />
  <path
     d="m5.8208333 5.1593949c0-.073289-.059002-.1322916-.1322917-.1322916h-5.02708328c-.0732896 0-.13229166.059002-.13229166.1322916 0 .07329.0590021.1322917.13229166.1322917h5.02708328c.07329 0 .1322917-.059002.1322917-.1322917z"
     fill="#fafafa"
     stroke-width=".264583"
     id="path6" />
  <path
     d="m 3.9687498,1.5875004 -0.2698119,0.00494 -1.0531048,-0.00494 C 2.3992874,1.6053352 2.3121712,1.652744 2.1672255,1.8702408 2.1049507,2.0025666 2.117452,2.1364347 2.1181322,2.164843 l -0.00147,1.5393241 C 2.4423411,3.5280046 2.6955061,3.3337467 2.9104164,3.0427087 2.9111043,2.7911658 2.9071651,2.7813407 2.9124831,2.2879241 2.9101573,2.0913602 3.0595182,2.055854 3.1749998,1.9843754 Z"
     fill="#0063b1"
     fill-rule="evenodd"
     id="path8"
     style="stroke-width:0.264583" />
  <path
     d="m 2.6618528,1.8505334 c -0.1040667,0.00789 -0.1421136,0.019636 -0.1607137,0.030489 -0.016485,0.00962 -0.051138,0.048595 -0.099735,0.1173055 -0.00978,0.025895 -0.017899,0.054222 -0.020154,0.080615 -0.0027,0.031648 -0.00103,0.036703 0,0.079582 a 0.26308457,0.26308457 0 0 1 0,0.00672 l -0.00103,0.9854695 c 0.084999,-0.072899 0.1945383,-0.1293706 0.2676838,-0.2216919 -3.276e-4,-0.1639163 -0.00283,-0.2271 0.00155,-0.638204 C 2.6475039,2.1257354 2.7373499,1.9643316 2.8323885,1.886192 2.8584335,1.864778 2.8653335,1.86629 2.8881995,1.851569 Z"
     fill="#83beec"
     fill-rule="evenodd"
     id="path10"
     style="stroke-width:0.264583" />
  <path
     fill="#fafafa"
     style="stroke-width:0.999999"
     d="M 18.5 5 L 12.5 8 L 16 15 L 22 12 L 18.5 5 z M 18.177734 5.9667969 L 21.033203 11.677734 L 16.322266 14.033203 L 13.466797 8.3222656 L 18.177734 5.9667969 z "
     transform="scale(0.26458334)" />
  <path
     d="M 4.3656248,2.6458337 V 1.1906253 c 0,-0.74818663 1.0583333,-0.66145827 1.0583333,0 V 2.116667"
     fill="none"
     stroke="#fafafa"
     id="path16"
     style="stroke-width:0.264583" />
</svg>
