<svg viewBox="0 0 24 24" xmlns="http://www.w3.org/2000/svg">
  <path
     fill="#fafafa"
     d="M 14 4 L 6 8 L 11 18 L 19 14 L 14 4 z M 13.492188 5.3007812 A 0.17855016 0.17855016 0 0 1 13.667969 5.3984375 L 17.681641 13.427734 A 0.17855016 0.17855016 0 0 1 17.601562 13.667969 L 11.572266 16.681641 A 0.17855016 0.17855016 0 0 1 11.332031 16.601562 L 7.3183594 8.5722656 A 0.17855016 0.17855016 0 0 1 7.3984375 8.3320312 L 13.427734 5.3183594 A 0.17855016 0.17855016 0 0 1 13.492188 5.3007812 z " />
  <ellipse
     cx="12"
     cy="19.725481"
     fill="none"
     rx="10"
     ry="2.274613"
     id="ellipse6" />
  <path
     d="m9 6h-4c-1 0-2 1-2 2.276478v5.723522l1.9530342-1.831665c.3469667-1.432286-.3011656-3.3499307 1.0469658-4.668335z"
     fill="#0063b1"
     fill-rule="evenodd"
     id="path8" />
  <g
     fill="none"
     stroke="#fafafa"
     id="g14">
    <path
       d="m5.9560329 9.040016 5.3390121 9.387521c.410089.65506 1.069393.906864 1.704955.572463l6.896454-3.134542c.589382-.407352.86271-1.172428.486324-1.842477l-5.34511-9.3982373z"
       stroke="none"
       id="path10" />
    <path
       d="m12.5 9.5.01862-4.918522c.01097-2.8972595 4.017559-3.1163609 4-.1877732l-.01862 3.1062952"
       stroke="#fafafa"
       stroke-linecap="round"
       id="path12" />
  </g>
  <g
     fill-rule="evenodd"
     id="g20">
    <path
       d="m9 6h-4c-1 0-2 1-2 2.276478v7.723522l1.9530342-1.831665c.3469667-1.432286-.3011656-5.3499307 1.0469658-6.668335z"
       fill="#0063b1"
       id="path16" />
    <path
       d="m5 6.9882812c-.3404757 0-1.0117188.5288127-1.0117188 1.2890626v5.4414062l.017578-.01563c.075461-.488479.059369-3.144667.109375-3.9707031.052146-.861387.3104392-1.8919074 1.0703125-2.7441407z"
       fill="#83beec"
       id="path18" />
  </g>
</svg>
