<svg height="24" viewBox="0 0 6.3499999 6.3500002" width="24" xmlns="http://www.w3.org/2000/svg"><g stroke-width=".264583"><g transform="translate(0 -290.64998)"><path d="m3 2c-.5539993 0-1 .4460007-1 1v18c0 .553999.4460007 1 1 1h10.708984c-.05631-.195975-.051538-.404461.013672-.597656l.134766-.402344h-10.857422v-18h18v9.808594c.354707.205069.689096.446348.996094.720703l.003906.003906v-10.533203c.00002-.5539993-.446001-1-1-1zm13.386719 10.251953c.07307-.003594.146002.001707.216797.013672a1.0027936 1.0027936 0 0 0 -.216797-.013672zm0 0a1.0027936 1.0027936 0 0 0 -.259766.048828c.08405-.02767.171402-.044088.259766-.048828zm3.121093.001953a1.0027936 1.0027936 0 0 0 -.207031.033203c.086044-.022943.17388-.033781.263672-.033203a1.0027936 1.0027936 0 0 0 -.056641 0zm.083985 0c.093294.003184.187716.018749.279297.048828a1.0027936 1.0027936 0 0 0 -.279297-.048828zm-2.964844.015625c.064772.012552.126741.0318.1875.056641a1.0027936 1.0027936 0 0 0 -.1875-.056641zm2.65625.021485a1.0027936 1.0027936 0 0 0 -.25.109375c.078018-.047922.162765-.08442.25-.109375zm-2.445312.044922c.062128.027262.122087.060146.177734.099609a1.0027936 1.0027936 0 0 0 -.177734-.099609zm2.1875.070312a1.0027936 1.0027936 0 0 0 -.220703.1875c.065034-.074056.139905-.136771.220703-.1875zm-2 .037109c.059157.043074.114846.092401.164062.148438a1.0027936 1.0027936 0 0 0 -.164062-.148438zm-3.027344 1.089844a1.0027936 1.0027936 0 0 0 -.177735.214844c.048608-.078001.107347-.151253.177735-.214844zm-.193359.242188a1.0027936 1.0027936 0 0 0 -.101563.240234c.022746-.08385.057626-.164454.101563-.240234zm-.107422.261718a1.0027936 1.0027936 0 0 0 -.029297.267579c-.002493-.090795.007671-.180192.029297-.267579zm-.029297.277344a1.0027936 1.0027936 0 0 0 .052734.285156c-.031736-.093502-.049185-.18963-.052734-.285156zm-.753907 1.681641a1.0027936 1.0027936 0 0 0 -.271484.097656c.084139-.044503.175101-.078348.271484-.097656zm-.279296.101562a1.0027936 1.0027936 0 0 0 -.22461.167969c.066879-.065672.141392-.123029.22461-.167969zm-.228516.169922a1.0027936 1.0027936 0 0 0 -.171875.226563c.046357-.083683.104531-.159865.171875-.226563zm-.171875.226563a1.0027936 1.0027936 0 0 0 -.103516.273437c.02107-.097526.056713-.188949.103516-.273437zm-.107422 2.734375a1.0027936 1.0027936 0 0 0 .097656.265625c-.044159-.082362-.077672-.171228-.097656-.265625zm.111328.287109a1.0027936 1.0027936 0 0 0 .16211.214844c-.06331-.063215-.117451-.136461-.16211-.214844zm.169922.222656a1.0027936 1.0027936 0 0 0 .226563.166016c-.083258-.044681-.159577-.100621-.226563-.166016zm.226563.166016a1.0027936 1.0027936 0 0 0 .27539.099609c-.098107-.019745-.190047-.053809-.27539-.099609z" fill="#fafafa" transform="matrix(.26458334 0 0 .26458334 0 290.64998)"/><g fill="#c8c6c4"><rect height=".264583" rx=".132292" ry=".125565" width="2.116667" x="2.645833" y="292.23746"/><rect height=".264583" rx=".132292" ry=".125565" width="2.116667" x="2.645833" y="293.560377"/><path d="m10.5 16c-.277001 0-.5.211694-.5.474609v.050782c0 .262915.222999.474609.5.474609h1.59375c.013413-.077395.020609-.155568.037109-.232422a1.0027936 1.0027936 0 0 1 .767579-.767578z" fill="#c8c6c4" stroke-width=".999999" transform="matrix(.26458334 0 0 .26458334 0 290.64998)"/></g><path d="m2.1166667 292.36976a.396875.396875 0 0 1 -.396875.39687.396875.396875 0 0 1 -.396875-.39687.396875.396875 0 0 1 .396875-.39688.396875.396875 0 0 1 .396875.39688z" fill="#83beec"/><path d="m2.1166667 293.69267a.396875.396875 0 0 1 -.396875.39688.396875.396875 0 0 1 -.396875-.39688.396875.396875 0 0 1 .396875-.39687.396875.396875 0 0 1 .396875.39687z" fill="#fb983b"/><path d="m2.1166667 295.01559a.396875.396875 0 0 1 -.396875.39687.396875.396875 0 0 1 -.396875-.39687.396875.396875 0 0 1 .396875-.39688.396875.396875 0 0 1 .396875.39688z" fill="#c8c6c4"/><g fill-opacity=".982993"><path d="m1.8520833 292.36977a.13229167.13229167 0 0 1 -.1322916.13229.13229167.13229167 0 0 1 -.1322917-.13229.13229167.13229167 0 0 1 .1322917-.13229.13229167.13229167 0 0 1 .1322916.13229z" fill="#0063b1"/><path d="m1.8520833 293.6927a.13229167.13229167 0 0 1 -.1322916.13229.13229167.13229167 0 0 1 -.1322917-.13229.13229167.13229167 0 0 1 .1322917-.13229.13229167.13229167 0 0 1 .1322916.13229z" fill="#ed8733"/><path d="m1.8520833 295.01563a.13229167.13229167 0 0 1 -.1322916.13229.13229167.13229167 0 0 1 -.1322917-.13229.13229167.13229167 0 0 1 .1322917-.13229.13229167.13229167 0 0 1 .1322916.13229z" fill="#3a3a38"/></g></g><path d="m4.3490853 3.5067612c-.076267.02477-.150124.056422-.2206583.094568-.088824.049071-.1717093.1081984-.2470134.1762167l.2005044.5916951-.6128824.12299c-.019073.088839-.028953.179406-.029456.2702677.0001712.090826.00969.1813941.028422.2702676l.6139159.12299-.1999877.5916951c.1357957.1213556.2951861.2133652.4681884.2702678l.412378-.469222.4134114.4697387c.076267-.02477.1501236-.056423.2206583-.094568.088824-.04907.1717067-.1081983.2470134-.1762166l-.2005038-.5916951.6128825-.12299c.019074-.088839.028953-.179406.029456-.2702676-.0001712-.090826-.00969-.1813941-.028422-.2702677l-.6139165-.12299.1999877-.5916951c-.1357958-.1213556-.2951861-.2133652-.4681884-.2702679l-.412378.4692222-.1240235-.1410767zm-.074414.3152262.2888712.329179a.26460979.26460979 0 0 0 .2289265.088367.26460979.26460979 0 0 0 .168982-.088367l.2888713-.329179.082682.047542-.1405599.4149617a.26460979.26460979 0 0 0 .1984375.3441652l.429948.086299v.095085l-.429948.0863a.26460979.26460979 0 0 0 -.1984375.344165l.1400432.4134114.0005291.00156-.082682.047542-.2888713-.329179a.26460979.26460979 0 0 0 -.3979084 0l-.2888837.3291701-.0826823-.0475425.1405599-.4149616a.26460979.26460979 0 0 0 -.1984376-.3441653l-.4299479-.0862994v-.0950849l.4299479-.0862994a.26460979.26460979 0 0 0 .1984376-.3441652l-.1405599-.4149617zm.4878255.6759278a.26458334.26458334 0 0 0 -.2645834.2645834.26458334.26458334 0 0 0 .2645834.2645833.26458334.26458334 0 0 0 .2645833-.2645833.26458334.26458334 0 0 0 -.2645833-.2645834z" fill="#1e8bcd"/></g></svg>