<svg viewBox="0 0 24 24" xmlns="http://www.w3.org/2000/svg"><path d="m16.5 7h3c.831 0 1.5.669 1.5 1.5v1c0 .831-.669 1.5-1.5 1.5h-3c-.831 0-1.5-.669-1.5-1.5v-1c0-.831.669-1.5 1.5-1.5z" fill="#3a3a38" fill-opacity=".982993"/><path d="m12 5c-.554 0-1 .446-1 1v12c0 .554.446 1 1 1h.091797c-.0563-.329908-.093119-.663169-.09375-.998047a1.0027936 1.0027936 0 0 1 0-.007812c.002282-.412408.046282-.823528.132812-1.226563a1.0027936 1.0027936 0 0 1 .783203-.771484l1.199219-.240235-.392578-1.15625a1.0027936 1.0027936 0 0 1 .277344-1.066406c.306944-.277247.644878-.516442 1.001953-.724609v-6.808594c0-.554-.446-1-1-1zm-5 3c-.554 0-1 .446-1 1v9c0 .554.446 1 1 1h2c.554 0 1-.446 1-1v-9c0-.554-.446-1-1-1zm10 3c-.554 0-1 .446-1 1v.355469c.043584-.015251.082974-.040404.126953-.054688a1.0027936 1.0027936 0 0 1 .259766-.048828 1.0027936 1.0027936 0 0 1 .802734.339844l.808594.919922.806641-.917969a1.0027936 1.0027936 0 0 1 1.066406-.291016c.044016.014478.085282.035306.128906.050782v-.353516c0-.554-.446-1-1-1z" fill="#fafafa"/><path d="m4.5 2c-.277 0-.5.223-.5.5v16.5h-1.5c-.277 0-.5.223-.5.5s.223.5.5.5h1.5v1.5c0 .277.223.5.5.5s.5-.223.5-.5v-1.5h7.892578a1.0027936 1.0027936 0 0 1 -.765625-.771484c-.015927-.075578-.022172-.152429-.035156-.228516h-7.091797v-16.5c0-.277-.223-.5-.5-.5z" fill="#fafafa"/><path d="m12 6v11.958984c.004526-.400586.046794-.799849.130859-1.191406a1.0027936 1.0027936 0 0 1 .783203-.771484l1.085938-.216797v-.357422l-.279297-.822266a1.0027936 1.0027936 0 0 1 .277344-1.066406c.00068-.000614.001272-.001339.001953-.001953v-7.53125zm-5 3v9h2v-9zm10 3v.425781a1.0027936 1.0027936 0 0 1 .189453.166016l.808594.919922.806641-.917969a1.0027936 1.0027936 0 0 1 .195312-.171875v-.421875z" fill="#797774"/><g fill="#1e8bcd"><path d="m16.5 8a.50005.50005 0 0 0 -.5.5v1a.50005.50005 0 0 0 .5.5h3a.50005.50005 0 0 0 .5-.5v-1a.50005.50005 0 0 0 -.5-.5z"/><path d="m16.4375 13.253907c-.288253.09362-.567398.213248-.833984.357422-.335712.185464-.64898.408939-.933594.666016l.757812 2.236328-2.316406.464844c-.072088.335769-.109428.67807-.111328 1.021484.000647.343279.03664.685584.107422 1.021484l2.320312.464844-.755859 2.236328c.513244.458667 1.115664.806419 1.769531 1.021484l1.558594-1.773437 1.5625 1.77539c.288253-.09362.567396-.213252.833984-.357422.335712-.185463.64897-.408938.933594-.666015l-.757812-2.236328 2.316406-.464844c.07209-.335769.109428-.67807.111328-1.021484-.000647-.343279-.03664-.685584-.107422-1.021484l-2.320312-.464844.755859-2.236328c-.513244-.458667-1.115664-.80642-1.769531-1.021485l-1.558594 1.773438-.46875-.533203zm-.28125 1.191406 1.091797 1.244141a1.0001 1.0001 0 0 0 .865234.333985 1.0001 1.0001 0 0 0 .638672-.333985l1.091797-1.244141.3125.179688-.53125 1.568359a1.0001 1.0001 0 0 0 .75 1.300782l1.625.326171v.359376l-1.625.326171a1.0001 1.0001 0 0 0 -.75 1.300782l.529297 1.5625.002.0059-.3125.179688-1.091797-1.244141a1.0001 1.0001 0 0 0 -1.503906 0l-1.091844 1.2441-.3125-.179688.53125-1.568359a1.0001 1.0001 0 0 0 -.75-1.300782l-1.625-.326171v-.359376l1.625-.326171a1.0001 1.0001 0 0 0 .75-1.300782l-.53125-1.568359zm1.84375 2.554688a1 1 0 0 0 -1 1 1 1 0 0 0 1 1 1 1 0 0 0 1-1 1 1 0 0 0 -1-1z"/></g></svg>