<svg version="1.1" viewBox="0 0 24 24" xmlns="http://www.w3.org/2000/svg"><path d="m2 2c-0.554 0-1 0.446-1 1v16c0 0.554 0.446 1 1 1h12.496c0.18267-0.35966 0.41133-0.69441 0.67969-1h-13.176v-16h18v9.0352c0.35308 0.050601 0.68916 0.15496 1 0.30274v-9.3379c0-0.554-0.446-1-1-1h-18z" fill="#63bbee"/><g transform="translate(-.0523 .08197)" fill="#63bbee"><path d="m10.052 7.418c0 1.3807-1.1193 2.5-2.5 2.5s-2.5-1.1193-2.5-2.5 1.1193-2.5 2.5-2.5 2.5 1.1193 2.5 2.5z"/><path d="m7.5523 9.918c-2.4853 0-4.5 1.7909-4.5 4h1c0-1.6569 1.567-3 3.5-3 0.9665 0 1.8415 0.33579 2.4749 0.87868 0.63338 0.54289 1.0251 1.2929 1.0251 2.1213h1c0-1.1046-0.50368-2.1046-1.318-2.8284-0.81434-0.72386-1.9393-1.1716-3.182-1.1716z"/></g><path d="m22 15.5c0 1.3807-1.1193 2.5-2.5 2.5s-2.5-1.1193-2.5-2.5 1.1193-2.5 2.5-2.5 2.5 1.1193 2.5 2.5z" fill="#fafafa"/><path d="m19.5 18c-2.4853 0-4.5 1.7909-4.5 4h1c0-1.6569 1.567-3 3.5-3 0.9665 0 1.8415 0.33579 2.4749 0.87868 0.63338 0.54289 1.0251 1.2929 1.0251 2.1213h1c0-1.1046-0.50368-2.1046-1.318-2.8284-0.81434-0.72386-1.9393-1.1716-3.182-1.1716z" fill="#fafafa"/><path d="m2 3v1h18v-1z" fill="#63bbee" stroke-width=".7071"/></svg>
