<svg viewBox="0 0 24 24" xmlns="http://www.w3.org/2000/svg"><g fill="#fafafa"><path d="m2.5 19c-.277 0-.5.223-.5.5s.223.5.5.5h10.392578a1.0027936 1.0027936 0 0 1 -.765625-.771484c-.015927-.075578-.022172-.152429-.035156-.228516z" fill="#fafafa"/><path d="m4.5 2c-.277 0-.5.223-.5.5v5.5h1v-5.5c0-.277-.223-.5-.5-.5zm-.5 9v10.5c0 .277.223.5.5.5s.5-.223.5-.5v-10.5z"/><path d="m6 11v7c0 .554.446 1 1 1h2c.554 0 1-.446 1-1v-7z"/></g><path d="m7 11v7h2v-7z" fill="#797774"/><rect fill="#1e8bcd" height="20" ry=".5" transform="matrix(0 -1 -1 0 0 0)" width="1" x="-10" y="-22"/><g fill-opacity=".982993"><path d="m12 5c-.554 0-1 .446-1 1v2h1v-2h2v2h1v-2c0-.554-.446-1-1-1zm-1 6v7c0 .554.446 1 1 1h.091797c-.0563-.329908-.093119-.663169-.09375-.998047a1.0027936 1.0027936 0 0 1 0-.007812c.000065-.011745.00182-.023414.001953-.035157v-6.958984zm3 0v2.53125c.306401-.276464.643716-.514951 1-.722656v-1.808594zm0 4.421875v.357422l.113281-.023438z" fill="#fafafa"/><path d="m12 6v2h2v-2zm0 5v6.958984c.004526-.400586.046794-.799849.130859-1.191406a1.0027936 1.0027936 0 0 1 .783203-.771484l1.085938-.216797v-.357422l-.279297-.822266a1.0027936 1.0027936 0 0 1 .277344-1.066406c.00068-.000614.001272-.001339.001953-.001953v-2.53125z" fill="#797774"/><path d="m17 11c-.554 0-1 .446-1 1v.355469c.043584-.015251.082974-.040404.126953-.054688a1.0027936 1.0027936 0 0 1 .259766-.048828 1.0027936 1.0027936 0 0 1 .613281.173828v-.425781h2v.421875a1.0027936 1.0027936 0 0 1 .871094-.119141c.044016.014478.085282.035306.128906.050782v-.353516c0-.554-.446-1-1-1z" fill="#fafafa"/><path d="m17 12v.425781a1.0027936 1.0027936 0 0 1 .189453.166016l.808594.919922.806641-.917969a1.0027936 1.0027936 0 0 1 .195312-.171875v-.421875z" fill="#797774"/></g><g fill="#1e8bcd"><path d="m23 18.000001c-.000647-.343279-.03664-.685584-.107422-1.021484l-2.320312-.464844.755859-2.236328c-.513244-.458667-1.115664-.806421-1.769531-1.021486l-1.558594 1.773439-.468749-.533203-1.093751-1.242188c-.288253.09362-.567398.213248-.833984.357422-.335712.185464-.64898.408939-.933594.666016l.757812 2.236328-2.316406.464844c-.072088.335769-.109428.67807-.111328 1.021484.000647.343279.03664.685584.107422 1.021484l2.320312.464844-.755859 2.236328c.513244.458667 1.115664.80642 1.769531 1.021485l1.558595-1.773438 1.562499 1.77539c.288253-.09362.567396-.213252.833984-.357422.335712-.185463.64897-.408938.933594-.666015l-.757812-2.236328 2.316406-.464844c.07209-.335769.109428-.67807.111328-1.021484zm-1-.179687.000001.359375-1.625001.326171a1.0001 1.0001 0 0 0 -.75 1.300782l.529297 1.5625.0019.0059-.312499.179688-1.091797-1.244141a1.0001 1.0001 0 0 0 -1.503906 0l-1.091797 1.244141-.3125-.179687.53125-1.56836a1.0001 1.0001 0 0 0 -.75-1.300782l-1.625-.326171-.000001-.359376 1.625001-.326171a1.0001 1.0001 0 0 0 .75-1.300782l-.53125-1.568359.3125-.179688 1.091797 1.244141a1.0001 1.0001 0 0 0 .865233.333985 1.0001 1.0001 0 0 0 .638673-.333985l1.091796-1.244141.312501.179688-.53125 1.568359a1.0001 1.0001 0 0 0 .75 1.300782z"/><path d="m19 18a1 1 0 0 1 -1 1 1 1 0 0 1 -1-1 1 1 0 0 1 1-1 1 1 0 0 1 1 1z"/></g></svg>