<svg viewBox="0 0 24 24" xmlns="http://www.w3.org/2000/svg">
  <g
     fill="#83beec">
    <path
       d="m 19.492188,10 a 0.5,0.5 0 0 0 -0.345704,0.146484 l -2,2 a 0.5,0.5 0 0 0 0,0.707032 l 3,3 a 0.5,0.5 0 0 0 0.707032,0 l 2,-2 a 0.5,0.5 0 0 0 0,-0.707032 l -3,-3 A 0.5,0.5 0 0 0 19.492188,10 Z"
       fill="#0063b1" />
    <path
       d="M 19.5,11 18,12.5 20.5,15 22,13.5 Z" />
    <path
       d="m 17.387227,12.099771 c -0.128383,0.0019 -0.250968,0.05378 -0.341797,0.144532 l -4.895039,4.906088 c -0.193221,0.193027 -0.193221,0.506191 0,0.699218 l 3,3 c 0.193027,0.193221 0.506191,0.193221 0.699218,0 l 4.895039,-4.906088 c 0.193221,-0.193026 0.193221,-0.506191 0,-0.699218 l -3,-3 c -0.09466,-0.09458 -0.223626,-0.146733 -0.357421,-0.144532 z"
       fill="#0063b1" />
    <path
       d="M 17.395039,13.027506 12.933594,17.5 15.5,20.066406 19.961445,15.593912 Z"
       fill="#83beec" />
    <path
       d="m 12.359605,17.137159 c -0.195084,0.0034 -0.369096,0.123468 -0.441407,0.304687 l -1.867417,4.878466 c -0.1570528,0.39476 0.234147,0.78596 0.628907,0.628907 l 4.867417,-1.878466 c 0.321733,-0.129523 0.406958,-0.545379 0.162109,-0.791016 l -3,-3 c -0.09244,-0.09287 -0.21858,-0.144316 -0.349609,-0.142578 z"
       fill="#0063b1" />
    <path
       d="M 12.451401,18.025831 10.908203,22.091797 14.96312,20.53755 Z"
       fill="#83beec" />
  </g>
  <path
     d="M 10 2 C 6.6862915 2 4 4.6862915 4 8 C 4 11.313708 6.6862915 14 10 14 L 11 14 L 11 17.210938 L 11.107422 16.943359 A 1.50015 1.50015 0 0 1 11.439453 16.439453 L 12 15.878906 L 12 3 L 14 3 L 14 13.878906 L 15 12.878906 L 15 3 L 16 3 L 19 3 L 19 2 L 10 2 z M 10 3 L 11 3 L 11 13 L 10 13 C 7.238576 13 5 10.761424 5 8 C 5 5.2385763 7.238576 3 10 3 z "
     style="fill:#fafafa" />
  <path
     d="M 10,3 C 7.238576,3 5,5.2385763 5,8 c 0,2.761424 2.238576,5 5,5 h 1 V 3 Z"
     fill="#797774" />
</svg>
