<?xml version="1.0" encoding="UTF-8" standalone="no"?>
<svg
   height="24"
   viewBox="0 0 6.3499999 6.3500002"
   width="24">
  <defs
     id="defs24" />
  <path
     d="M 1.8520834,0.52919 V 1.58752 H 0.79375 V 1.8521 H 1.8520834 V 2.91044 H 0.79375 V 3.17502 H 1.8520834 V 4.23335 H 0.79375 V 4.49794 H 1.8520834 V 5.55627 H 2.1166667 V 4.49794 H 3.175 V 5.55627 H 3.4395834 V 4.49794 H 4.4979167 V 5.55627 H 4.7625 V 4.49794 H 5.8208334 V 4.23335 H 4.7625 V 3.17502 H 5.8208334 V 2.91044 H 4.7625 V 1.8521 H 5.8208334 V 1.58752 H 4.7625 V 0.52919 H 4.4979167 V 1.58752 H 3.4395834 V 0.52919 H 3.175 V 1.58752 H 2.1166667 V 0.52919 Z M 2.1166667,1.8521 H 3.175 V 2.91044 H 2.1166667 Z m 1.3229167,0 H 4.4979167 V 2.91044 H 3.4395834 Z M 2.1166667,3.17502 H 3.175 V 4.23335 H 2.1166667 Z m 1.3229167,0 H 4.4979167 V 4.23335 H 3.4395834 Z"
     fill="#797774"
     id="path4"
     style="stroke-width:0.264583" />
  <path
     d="m 0.79375,0.2646 c -0.14657916,0 -0.26458333,0.11801 -0.26458333,0.26459 v 5.02708 c 0,0.14658 0.11800417,0.26458 0.26458333,0.26458 h 5.0270834 c 0.1465791,0 0.2645833,-0.118 0.2645833,-0.26458 V 0.52919 c 0,-0.14658 -0.1180042,-0.26459 -0.2645833,-0.26459 z m 0,0.26459 H 5.8208334 V 5.55627 H 0.79375 Z"
     fill="#fafafa"
     id="path6"
     style="stroke-width:0.264583" />
  <path
     d="M 5.8208334,1.8521 V 2.91044 H 0.79375 V 1.8521 Z"
     fill="#1e8bcd"
     opacity="0.5"
     stroke-width="0.324047"
     id="path10" />
  <path
     fill="#1e8bcd"
     style="stroke-width:0.999999"
     d="M 2 6 L 2 12 L 3 12 L 22 12 L 23 12 L 23 6 L 22 6 L 3 6 L 2 6 z M 3 7 L 7 7 L 7 11 L 3 11 L 3 7 z M 8 7 L 12 7 L 12 11 L 8 11 L 8 7 z M 13 7 L 17 7 L 17 11 L 13 11 L 13 7 z M 18 7 L 22 7 L 22 11 L 18 11 L 18 7 z "
     transform="scale(0.26458334)" />
</svg>
