<svg viewBox="0 0 24 24" xmlns="http://www.w3.org/2000/svg">
  <path
     d="m5 2c-1.6447028 0-3 1.3552972-3 3v9c0 1.644703 1.3552972 3 3 3h1v3.189453l.0175781 1.396485c.00276.219732.1988128.340875.3085938.390624.1145325.05191.4000212-.003956.4570312-.066406l.9589844-1.050781 3.4804685-3.859375h2.554688l3.480468 3.859375.958985 1.050781c.05701.06241.342499.118313.457031.066406.109781-.049749.305834-.170892.308594-.390624l.017578-1.396485v-2.189453-1c1.644703 0 3-1.355297 3-3v-9c0-1.6447028-1.355297-3-3-3zm0 1h14c1.108 0 2 .892 2 2v9c0 1.108-.892 2-2 2h-8.222656l-.902344 1-2.875 3.189453v-4.189453h-2c-1.108 0-2-.892-2-2v-9c0-1.108.892-2 2-2z"
     fill="#fafafa" />
  <path
     fill="#fafafa"
     d="M 6 9 L 6 11 L 8 11 L 8 9 L 6 9 z M 11 9 L 11 11 L 13 11 L 13 9 L 11 9 z M 16 9 L 16 11 L 18 11 L 18 9 L 16 9 z " />
</svg>
