<svg viewBox="0 0 24 24" xmlns="http://www.w3.org/2000/svg"><path d="m2 2v20h11.708984c-.05631-.195975-.05154-.404461.01367-.597656l.134768-.402344h-10.857422v-18h18v9.808594c.354708.20507.689098.446352.996094.720703.0013.0013.0026.0026.0039.0039v-11.533197z" fill="#fafafa"/><path d="m10 14.5-6.5 6.5h2.5l5.25-5.25zm3.765625.234375-1.765625 1.765625-4.5 4.5h6.357422l.255859-.755859-1.203125-.240235a1.0027936 1.0027936 0 0 1 -.783203-.77539c-.084986-.403281-.128129-.814452-.128906-1.226563a1.0027936 1.0027936 0 0 1 0-.007812c.002282-.412408.046282-.823528.132812-1.226563a1.0027936 1.0027936 0 0 1 .783203-.771484l1.199219-.240235z" fill="#0063b1"/><path d="m16 11-4 4-2-2-7 7v1h.5l6.5-6.5 1.25 1.25-5.25 5.25h1.5l6.265625-6.265625-.044922-.134766a1.0027936 1.0027936 0 0 1 .277344-1.066406c.341709-.308649.718067-.576176 1.121094-.798828a1.0027936 1.0027936 0 0 1 .007812-.005859c.320064-.173096.653956-.315345 1-.427735a1.0027936 1.0027936 0 0 1 .259766-.048828 1.0027936 1.0027936 0 0 1 .802734.339844l.808594.919922.240234-.273438z" fill="#83beec"/><path d="m16.4375 13.253907c-.288253.09362-.567398.213248-.833984.357422-.335712.185464-.64898.408939-.933594.666016l.757812 2.236328-2.316406.464844c-.072088.335769-.109428.67807-.111328 1.021484.000647.343279.03664.685584.107422 1.021484l2.320312.464844-.755859 2.236328c.513244.458667 1.115664.806419 1.769531 1.021484l1.558594-1.773437 1.5625 1.77539c.288253-.09362.567396-.213252.833984-.357422.335712-.185463.64897-.408938.933594-.666015l-.757812-2.236328 2.316406-.464844c.07209-.335769.109428-.67807.111328-1.021484-.000647-.343279-.03664-.685584-.107422-1.021484l-2.320312-.464844.755859-2.236328c-.513244-.458667-1.115664-.80642-1.769531-1.021485l-1.558594 1.773438-.46875-.533203zm-.28125 1.191406 1.091797 1.244141a1.0001 1.0001 0 0 0 .865234.333985 1.0001 1.0001 0 0 0 .638672-.333985l1.091797-1.244141.3125.179688-.53125 1.568359a1.0001 1.0001 0 0 0 .75 1.300782l1.625.326171v.359376l-1.625.326171a1.0001 1.0001 0 0 0 -.75 1.300782l.529297 1.5625.002.0059-.3125.179688-1.091797-1.244141a1.0001 1.0001 0 0 0 -1.503906 0l-1.091844 1.2441-.3125-.179688.53125-1.568359a1.0001 1.0001 0 0 0 -.75-1.300782l-1.625-.326171v-.359376l1.625-.326171a1.0001 1.0001 0 0 0 .75-1.300782l-.53125-1.568359zm1.84375 2.554688a1 1 0 0 0 -1 1 1 1 0 0 0 1 1 1 1 0 0 0 1-1 1 1 0 0 0 -1-1z" fill="#1e8bcd"/><g stroke-width=".999999"><path d="m7.9570313 5.044922a2.5 2.5 0 0 1 .042969.4550781 2.5 2.5 0 0 1 -2.5 2.5 2.5 2.5 0 0 1 -.4570314-.0449219 2.5 2.5 0 0 0 .4589843 1.0449219 2.5 2.5 0 0 0 1.9980469.9999999 2.5 2.5 0 0 0 2.4999999-2.4999999 2.5 2.5 0 0 0 -.9999999-1.9960938 2.5 2.5 0 0 0 -1.0429688-.4589843zm.8203126 1.671875a1.5 1.5 0 0 1 .2226562.7832031 1.5 1.5 0 0 1 -1.5 1.5 1.5 1.5 0 0 1 -.78125-.2226562 3.5000001 3.5000001 0 0 0 2.0585938-2.0605469z" fill="#f8db8f"/><path d="m8.7773439 6.716797a3.5 3.5 0 0 1 -2.0585938 2.0605469 1.5 1.5 0 0 0 .78125.2226562 1.5 1.5 0 0 0 1.5-1.5 1.5 1.5 0 0 0 -.2226562-.7832031z" fill="#ed8733"/></g></svg>