<svg viewBox="0 0 24 24" fill="none" xmlns="http://www.w3.org/2000/svg">
<path d="M9.66566 5.4685H5.33474C4.85633 5.4685 4.4685 5.9219 4.4685 6.4812V9.5189C4.4685 10.0782 4.85633 10.5316 5.33474 10.5316H9.66566C10.1441 10.5316 10.5319 10.0782 10.5319 9.5189V6.4812C10.5319 5.9219 10.1441 5.4685 9.66566 5.4685Z" fill="#3A3A38" stroke="#FAFAFA" stroke-width="0.9366" stroke-linecap="round" stroke-linejoin="round"/>
<path d="M18.6649 5.4684H14.3342C13.8558 5.4684 13.468 5.9218 13.468 6.4811V9.5188C13.468 10.0781 13.8558 10.5315 14.3342 10.5315H18.6649C19.1433 10.5315 19.5311 10.0781 19.5311 9.5188V6.4811C19.5311 5.9218 19.1433 5.4684 18.6649 5.4684Z" fill="#3A3A38" stroke="#FAFAFA" stroke-width="0.93687" stroke-linecap="round" stroke-linejoin="round"/>
<path d="M9.6653 13.468H5.3346C4.85621 13.468 4.4684 13.9214 4.4684 14.4807V17.5184C4.4684 18.0777 4.85621 18.5311 5.3346 18.5311H9.6653C10.1437 18.5311 10.5315 18.0777 10.5315 17.5184V14.4807C10.5315 13.9214 10.1437 13.468 9.6653 13.468Z" fill="#3A3A38" stroke="#FAFAFA" stroke-width="0.93687" stroke-linecap="round" stroke-linejoin="round"/>
<path d="M18.6649 13.468H14.3342C13.8558 13.468 13.468 13.9214 13.468 14.4807V17.5184C13.468 18.0777 13.8558 18.5311 14.3342 18.5311H18.6649C19.1433 18.5311 19.5311 18.0777 19.5311 17.5184V14.4807C19.5311 13.9214 19.1433 13.468 18.6649 13.468Z" fill="#3A3A38" stroke="#FAFAFA" stroke-width="0.93687" stroke-linecap="round" stroke-linejoin="round"/>
</svg>
