<svg width="24" height="24" version="1.1" viewBox="0 0 6.35 6.35" xmlns="http://www.w3.org/2000/svg"><g transform="translate(0 -290.65)" stroke-width=".26458"><path d="m0.79375 291.18h5.0271v5.0271h-5.0271z" fill="#fafafa"/><path d="m1.8521 291.18v1.0583h-1.0583v0.26458h1.0583v1.0583h-1.0583v0.26458h1.0583v1.0583h-1.0583v0.26459h1.0583v1.0583h0.26458v-1.0583h1.0583v1.0583h0.26458v-1.0583h1.0583v1.0583h0.26458v-1.0583h1.0583v-0.26459h-1.0583v-1.0583h1.0583v-0.26458h-1.0583v-1.0583h1.0583v-0.26458h-1.0583v-1.0583h-0.26458v1.0583h-1.0583v-1.0583h-0.26458v1.0583h-1.0583v-1.0583zm0.26458 1.3229h1.0583v1.0583h-1.0583zm1.3229 0h1.0583v1.0583h-1.0583zm-1.3229 1.3229h1.0583v1.0583h-1.0583zm1.3229 0h1.0583v1.0583h-1.0583z" fill="#797774"/><path d="m0.79375 290.91c-0.14658 0-0.26458 0.11801-0.26458 0.26459v5.0271c0 0.14658 0.118 0.26458 0.26458 0.26458h5.0271c0.14658 0 0.26458-0.118 0.26458-0.26458v-5.0271c0-0.14658-0.118-0.26459-0.26458-0.26459zm0 0.26459h5.0271v5.0271h-5.0271z" fill="#fafafa"/></g><g transform="matrix(.26458 0 0 .26458 0 2e-5)"><path d="m12 7v4h-4v-4z" fill="#a1ddaa" stroke-width=".56195"/><path d="m7 6v6h6v-6zm1 1h4v4h-4z" fill="#18ab50"/></g></svg>
