<svg viewBox="0 0 24 24" xmlns="http://www.w3.org/2000/svg">
  <path
     style="fill:#797774"
     d="M 12 5 C 11.446 5 11 5.446 11 6 L 11 18 C 11 18.554 11.446 19 12 19 L 14 19 C 14.554 19 15 18.554 15 18 L 15 6 C 15 5.446 14.554 5 14 5 L 12 5 z M 7 8 C 6.446 8 6 8.446 6 9 L 6 18 C 6 18.554 6.446 19 7 19 L 9 19 C 9.554 19 10 18.554 10 18 L 10 9 C 10 8.446 9.554 8 9 8 L 7 8 z M 17 11 C 16.446 11 16 11.446 16 12 L 16 18 C 16 18.554 16.446 19 17 19 L 19 19 C 19.554 19 20 18.554 20 18 L 20 12 C 20 11.446 19.554 11 19 11 L 17 11 z " />
    <path
     style="fill:#fafafa"
       d="M 4.5 2 C 4.223 2 4 2.223 4 2.5 L 4 19 L 2.5 19 C 2.223 19 2 19.223 2 19.5 C 2 19.777 2.223 20 2.5 20 L 4 20 L 4 21.5 C 4 21.777 4.223 22 4.5 22 C 4.777 22 5 21.777 5 21.5 L 5 20 L 21.5 20 C 21.777 20 22 19.777 22 19.5 C 22 19.223 21.777 19 21.5 19 L 5 19 L 5 2.5 C 5 2.223 4.777 2 4.5 2 z "/>
  <g
     fill="#1e8bcd"
     id="g16">
    <path
       d="M 2.4882812 3 C 2.2177315 3 2 3.2177315 2 3.4882812 L 2 17.511719 C 2 17.782269 2.2177315 18 2.4882812 18 L 2.5117188 18 C 2.7822685 18 3 17.782269 3 17.511719 L 3 3.4882812 C 3 3.2177315 2.7822685 3 2.5117188 3 L 2.4882812 3 z M 6.4882812 21 C 6.2177315 21 6 21.217731 6 21.488281 L 6 21.511719 C 6 21.782269 6.2177315 22 6.4882812 22 L 20.511719 22 C 20.782269 22 21 21.782269 21 21.511719 L 21 21.488281 C 21 21.217731 20.782269 21 20.511719 21 L 6.4882812 21 z " />
  </g>
  <path
     style="fill:#3a3a38"
     d="m 12,6 v 12 h 2 V 6 Z M 7,9 v 9 H 9 V 9 Z m 10,3 v 6 h 2 v -6 z" />
</svg>
