<svg viewBox="0 0 24 24" xmlns="http://www.w3.org/2000/svg">
  <path
     fill="#fafafa"
     d="M 2.5 4 C 2.223 4 2 4.223 2 4.5 L 2 5.5 L 2 18.5 L 2 19.5 C 2 19.777 2.223 20 2.5 20 L 3.5 20 L 13.09375 20 C 13.035891 19.84243 13 19.674891 13 19.5 C 13 19.325109 13.035891 19.15757 13.09375 19 L 3 19 L 3 5 L 21 5 L 21 11.09375 C 21.15757 11.035891 21.325109 11 21.5 11 C 21.674891 11 21.84243 11.03589 22 11.09375 L 22 5.5 L 22 4.5 C 22 4.223 21.777 4 21.5 4 L 20.5 4 L 3.5 4 L 2.5 4 z " />
  <path
     d="m5 7h14v2h-14z"
     fill="#797774"
     stroke-width="1.322876"
     id="path13" />
  <path
     d="m5 11v1h1v-1zm2 0v1h8.09375c.211337-.575547.767438-1 1.40625-1zm9.5 0c.638812 0 1.194913.424453 1.40625 1h1.09375v-1zm-11.5 2v1h1v-1zm2 0v1h6.09375c.211337-.575547.767438-1 1.40625-1zm-2 2v1h1v-1zm2 0v1h7.5c-.638812 0-1.194913-.424453-1.40625-1z"
     fill="#c8c6c4"
     id="path15" />
  <path
     d="m16.5 12c-.277 0-.5.223-.5.5v1.5h-1.5c-.277 0-.5.223-.5.5s.223.5.5.5h1.5v4h-1.5c-.277 0-.5.223-.5.5s.223.5.5.5h1.5v1.5c0 .277.223.5.5.5s.5-.223.5-.5v-1.5h4v1.5c0 .277.223.5.5.5s.503797-.223026.5-.5v-1.5h1.5c.277 0 .5-.223.5-.5s-.223-.5-.5-.5h-1.5v-4h1.5c.277 0 .5-.223.5-.5s-.223016-.502973-.5-.5h-1.5v-1.5c0-.277-.223-.5-.5-.5s-.5.223-.5.5v1.5h-4v-1.5c0-.277-.223-.5-.5-.5zm.5 3h4v4h-4z"
     fill="#1e8bcd"
     id="path17" />
</svg>
