<svg viewBox="0 0 24 24" xmlns="http://www.w3.org/2000/svg">
  <path
     fill="#fafafa"
     d="M 2.5 4 C 2.223 4 2 4.223 2 4.5 L 2 5.5 L 2 18.5 L 2 19.5 C 2 19.777 2.223 20 2.5 20 L 3.5 20 L 13.09375 20 C 13.035891 19.84243 13 19.674891 13 19.5 C 13 19.325109 13.035891 19.15757 13.09375 19 L 3 19 L 3 5 L 4.09375 5 C 4.305087 4.4244527 4.8611877 4 5.5 4 L 3.5 4 L 2.5 4 z M 14.490234 4 C 15.139125 3.9930352 15.695261 4.4224156 15.90625 5 L 21 5 L 21 11.09375 C 21.15757 11.035891 21.325109 11 21.5 11 C 21.674891 11 21.84243 11.03589 22 11.09375 L 22 5.5 L 22 4.5 C 22 4.223 21.777 4 21.5 4 L 20.5 4 L 14.490234 4 z " />
  <path
     d="m5 7v2h.5.5v-2h-.5zm4 0v2h2v-2zm5 0v2h.5 4.5v-2h-4.5z"
     fill="#797774"
     id="path13" />
  <path
     d="m15.90625 11c-.024241.066018-.054875.127857-.087891.189453.207452-.111561.434104-.189453.681641-.189453zm.59375 0c.638812 0 1.194913.424453 1.40625 1h1.09375v-1zm-1.304688.816406c-.209918.113605-.445018.183594-.695312.183594h.59375c.024388-.066417.068395-.121621.101562-.183594zm-10.195312.089844v.09375h.5c-.1748905 0-.3424298-.035891-.5-.09375zm0 1.09375v1h1v-1zm3.90625 0c-.211337.575547-.7674377 1-1.40625 1h5c-.638812 0-1.194913-.424453-1.40625-1zm3.59375 1h.59375c.02408-.065578.066966-.12039.099609-.181641-.209966.112213-.444841.181641-.693359.181641zm-5 0c-.1748905 0-.3424298-.035891-.5-.09375v.09375zm6.40625-1c-.023935.065692-.053295.128285-.085938.189453.207076-.11105.432762-.189453.679688-.189453zm-8.90625 2v1h1v-1zm2 0v1h7.5c-.638812 0-1.194913-.424453-1.40625-1z"
     fill="#c8c6c4"
     id="path15" />
  <g
     fill="#1e8bcd"
     id="g21">
    <path
       d="m16.5 12c-.277 0-.5.223-.5.5v1.5h-1.5c-.277 0-.5.223-.5.5s.223.5.5.5h1.5v4h-1.5c-.277 0-.5.223-.5.5s.223.5.5.5h1.5v1.5c0 .277.223.5.5.5s.5-.223.5-.5v-1.5h4v1.5c0 .277.223.5.5.5s.503797-.223026.5-.5v-1.5h1.5c.277 0 .5-.223.5-.5s-.223-.5-.5-.5h-1.5v-4h1.5c.277 0 .5-.223.5-.5s-.223016-.502973-.5-.5h-1.5v-1.5c0-.277-.223-.5-.5-.5s-.5.223-.5.5v1.5h-4v-1.5c0-.277-.223-.5-.5-.5zm.5 3h4v4h-4z"
       id="path17" />
    <path
       d="m7.5 3c-.277 0-.5.223-.5.5v1.5h-1.5c-.277 0-.5.223-.5.5s.223.5.5.5h1.5v4h-1.5c-.277 0-.5.223-.5.5s.223.5.5.5h1.5v1.5c0 .277.223.5.5.5s.5-.223.5-.5v-1.5h4v1.5c0 .277.223.5.5.5s.503797-.223026.5-.5v-1.5h1.5c.277 0 .5-.223.5-.5s-.223-.5-.5-.5h-1.5v-4h1.5c.277 0 .5-.223.5-.5s-.223016-.502973-.5-.5h-1.5v-1.5c0-.277-.223-.5-.5-.5s-.5.223-.5.5v1.5h-4v-1.5c0-.277-.223-.5-.5-.5zm.5 3h4v4h-4z"
       id="path19" />
  </g>
</svg>
