<svg version="1.1" viewBox="0 0 24 24" xmlns="http://www.w3.org/2000/svg"><path d="m10.5 3c2.0059 3.6016-3.4391 7.3532-5.5 5.5v12.5h14v-18z" fill="#fafafa"/><path d="m12 2v1h7v18h-14v-11h-1v11c0 0.554 0.446 1 1 1h14c0.554 0 1-0.446 1-1v-18c0-0.554-0.446-1-1-1z" fill="#fafafa"/><g fill="#797774"><path d="m12 5v1h6v-1zm0 3v1h6v-1zm-6 3v1h12v-1zm0 3v1h12v-1zm0 3v1h12v-1z"/></g><path d="m6.5 0v0.5625c2.1746 0 3.9375 1.7629 3.9375 3.9375 0 2.1746-1.7629 3.9375-3.9375 3.9375v0.5625c2.4853 0 4.5-2.0147 4.5-4.5s-2.0147-4.5-4.5-4.5zm0 8.4375v-7.875c-2.1746 0-3.9375 1.7629-3.9375 3.9375 0 2.1746 1.7629 3.9375 3.9375 3.9375z"/><path d="m6.5 0.5625c2.1746 0 3.9375 1.7629 3.9375 3.9375 0 2.1746-1.7629 3.9375-3.9375 3.9375z" fill="#fff"/><path d="m6.5 0v0.5625c2.1746 0 3.9375 1.7629 3.9375 3.9375 0 2.1746-1.7629 3.9375-3.9375 3.9375v0.5625c2.4853 0 4.5-2.0147 4.5-4.5s-2.0147-4.5-4.5-4.5zm0 8.4375v-7.875c-2.1746 0-3.9375 1.7629-3.9375 3.9375 0 2.1746 1.7629 3.9375 3.9375 3.9375z"/><path d="m6.5 0v0.5625c-2.1746 0-3.9375 1.7629-3.9375 3.9375 0 2.1746 1.7629 3.9375 3.9375 3.9375v0.5625c-2.4853 0-4.5-2.0147-4.5-4.5s2.0147-4.5 4.5-4.5zm0 8.4375v-7.875z" fill="#fff"/></svg>
