<svg viewBox="0 0 24 24" xmlns="http://www.w3.org/2000/svg"><g fill="#ff9198"><rect height="1" ry=".5" width="4" x="6" y="11"/><rect height="1" ry=".5" width="4" x="12" y="11"/><rect height="1" ry=".429231" width="4" x="18" y="11"/><path d="m1.4941406 9.0019531a.49824866.49824866 0 0 0 -.4921875.4980469v4a.49824866.49824866 0 0 0 .7734375.414062l3-2a.49824866.49824866 0 0 0 0-.828124l-3-2.0000005a.49824866.49824866 0 0 0 -.28125-.083984z"/></g><path d="m7 13c-.554 0-1 .446-1 1v8h1v-8h6.707031a1.0027936 1.0027936 0 0 1 .291016-.466797c.218234-.19712.454798-.370606.699219-.533203zm10.548828 0 .449219.511719.449219-.511719zm3.81836.074219c.109501.045644.20993.111017.296874.189453-.087732-.079035-.18499-.145344-.296874-.189453zm.304687.195312c.013573.010533.027529.020599.041016.03125-.012169-.012409-.028215-.01949-.041016-.03125zm.097656.115235c.058223.072517.117839.145415.154297.232422-.036166-.087727-.096002-.159452-.154297-.232422zm.230469 2.035156-.113281.335937.113281.023438zm0 4.800781-.113281.023438.113281.333984z" fill="#fafafa"/><path d="m7 10c-.554 0-1-.446-1-1v-7h1v7h14v-7h1v7c0 .554-.446 1-1 1z" fill="#fafafa"/><path d="m2 10.5v2s1.5-1 1.5-1z" fill="#d42314"/><path d="m16.4375 13.253907c-.288253.09362-.567398.213248-.833984.357422-.335712.185464-.64898.408939-.933594.666016l.757812 2.236328-2.316406.464844c-.072088.335769-.109428.67807-.111328 1.021484.000647.343279.03664.685584.107422 1.021484l2.320312.464844-.755859 2.236328c.513244.458667 1.115664.806419 1.769531 1.021484l1.558594-1.773437 1.5625 1.77539c.288253-.09362.567396-.213252.833984-.357422.335712-.185463.64897-.408938.933594-.666015l-.757812-2.236328 2.316406-.464844c.07209-.335769.109428-.67807.111328-1.021484-.000647-.343279-.03664-.685584-.107422-1.021484l-2.320312-.464844.755859-2.236328c-.513244-.458667-1.115664-.80642-1.769531-1.021485l-1.558594 1.773438-.46875-.533203zm-.28125 1.191406 1.091797 1.244141a1.0001 1.0001 0 0 0 .865234.333985 1.0001 1.0001 0 0 0 .638672-.333985l1.091797-1.244141.3125.179688-.53125 1.568359a1.0001 1.0001 0 0 0 .75 1.300782l1.625.326171v.359376l-1.625.326171a1.0001 1.0001 0 0 0 -.75 1.300782l.529297 1.5625.002.0059-.3125.179688-1.091797-1.244141a1.0001 1.0001 0 0 0 -1.503906 0l-1.091844 1.2441-.3125-.179688.53125-1.568359a1.0001 1.0001 0 0 0 -.75-1.300782l-1.625-.326171v-.359376l1.625-.326171a1.0001 1.0001 0 0 0 .75-1.300782l-.53125-1.568359zm1.84375 2.554688a1 1 0 0 0 -1 1 1 1 0 0 0 1 1 1 1 0 0 0 1-1 1 1 0 0 0 -1-1z" fill="#1e8bcd"/></svg>