<svg version="1.1" viewBox="0 0 24 24" xmlns="http://www.w3.org/2000/svg"><path d="m21 2c0.554 0 1 0.446 1 1v15c0 0.554-0.446 1-1 1h-10.869l-1-1h5.8691v-3h-6v2.8711l-1-1v-1.8711h-5v3h2.1113c0.072661 0.21207 0.1753 0.41539 0.34375 0.58008l0.41406 0.41406-2.8809 0.0039c-0.54826-0.006573-0.98828-0.44817-0.98828-0.99804v-15c0-0.554 0.446-1 1-1zm0 1h-5v3h5zm-6 0h-6v3h6zm-7 0h-5v3h5zm13 4h-5v3h5zm-6 0h-6v3h6zm-7 0h-5v3h5zm13 4h-5v3h5zm-6 0h-6v3h6zm-7 0h-5v3h5zm13 4h-5v3h5z" fill="#c8c6c4"/><g transform="matrix(-1,0,0,1,24,0)" fill="#fafafa"><path d="m2 18v3c0 0.554 0.446 1 1 1h3.5l1.5-3h-1l-1 2h-3v-3z" fill="#1e8bcd"/><path d="m3 2c-0.554 0-1 0.446-1 1v15c0 0.554 0.446 1 1 1h10.869l1-1h-11.869v-15h18v15h-2.1113c-0.07266 0.21207-0.1753 0.41539-0.34375 0.58008l-0.41406 0.41406 2.8809 0.0039c0.54826-0.006573 0.98828-0.44817 0.98828-0.99804v-15c0-0.554-0.446-1-1-1z"/><path d="m8 18v3c0 0.554 0.446 1 1 1h3.5l0.55078-1.0996c-0.03646-0.13143-0.06066-0.26562-0.06055-0.40039-3.95e-4 -0.44853 0.20636-0.90401 0.58984-1.1973l-0.09961 0.08594 0.38868-0.38867h-0.86914l-1 2h-3v-3z"/></g><path d="m0 20.5c8.6e-4 0.25174 0.17059 0.50282 0.50781 0.49805l7.7852 0.0059-2.1367 2.1348c-0.32527 0.318-0.09144 0.86989 0.36328 0.85742 0.12976-0.0036 0.25303-0.05754 0.34375-0.15039l2.9473-2.9454c0.13158-0.10062 0.19803-0.25092 0.19726-0.40039 7.69e-4 -0.14947-0.06568-0.29976-0.19726-0.40039l-2.9473-2.9453c-0.09072-0.09285-0.21399-0.14679-0.34375-0.15039-0.45472-0.01247-0.68855 0.53942-0.36328 0.85742l2.1367 2.1348-7.7852 0.0059c-0.33722-0.0048-0.50695 0.2463-0.50781 0.49805z" fill="#1e8bcd" fill-rule="evenodd"/></svg>
