<svg viewBox="0 0 24 24" xmlns="http://www.w3.org/2000/svg">
  <path
     d="M 3 2 C 2.446 2 2 2.446 2 3 L 2 21 C 2 21.554 2.446 22 3 22 L 21 22 C 21.554 22 22 21.554 22 21 L 22 3 C 22 2.446 21.554 2 21 2 L 3 2 z M 3 3 L 14 3 L 14 6 L 3 6 L 3 3 z M 15 3 L 21 3 L 18 6 L 15 3 z M 3 7 L 14 7 L 14 21 L 3 21 L 3 7 z M 15 7 L 21 7 L 21 21 L 15 21 L 15 7 z M 18 8 L 16 11 L 20 11 L 18 8 z M 4.5 9 C 4.223 9 4 9.223 4 9.5 C 4 9.777 4.223 10 4.5 10 L 12.5 10 C 12.777 10 13 9.777 13 9.5 C 13 9.223 12.777 9 12.5 9 L 4.5 9 z M 4.5 12 C 4.223 12 4 12.223 4 12.5 C 4 12.777 4.223 13 4.5 13 L 12.5 13 C 12.777 13 13 12.777 13 12.5 C 13 12.223 12.777 12 12.5 12 L 4.5 12 z M 4.5 15 C 4.223 15 4 15.223 4 15.5 C 4 15.777 4.223 16 4.5 16 L 12.5 16 C 12.777 16 13 15.777 13 15.5 C 13 15.223 12.777 15 12.5 15 L 4.5 15 z M 16 17 L 18 20 L 20 17 L 16 17 z M 4.5 18 C 4.223 18 4 18.223 4 18.5 C 4 18.777 4.223 19 4.5 19 L 12.5 19 C 12.777 19 13 18.777 13 18.5 C 13 18.223 12.777 18 12.5 18 L 4.5 18 z "
     style="fill:#fafafa" />
</svg>
