<?xml version="1.0" encoding="UTF-8"?>
<svg width="24" height="24" fill="none" viewBox="0 0 24 24" xmlns="http://www.w3.org/2000/svg">
 <rect x="2.5" y="2.5" width="2" height="19" stroke="#FAFAFA"/>
 <rect x="19.5" y="2.5" width="2" height="19" stroke="#FAFAFA"/>
 <rect x="4.5" y="12.5" width="15" height="9" stroke="#FAFAFA"/>
 <rect x="4.5" y="2.5" width="15" height="9" stroke="#FAFAFA"/>
 <mask id="mask0_3_49" x="5" y="2" width="14" height="9" style="mask-type:alpha" maskUnits="userSpaceOnUse">
  <rect x="5" y="2" width="14" height="9" fill="#D9D9D9"/>
 </mask>
 <g mask="url(#mask0_3_49)">
  <path d="m16.364 9.1668 2.3032-2.4386 2.8333 3v1.7718h-7.34l2.2035-2.3332z" fill="#0063B1" stroke="#83BEEC"/>
  <path d="m5.9141 3c0.02819 0.15006 0.04258 0.30239 0.04297 0.45508 0 0.66304-0.26339 1.2989-0.73223 1.7678-0.46884 0.46884-1.1047 0.73223-1.7678 0.73223-0.1534-9.2e-4 -0.30639-0.01596-0.45703-0.04492 0.07038 0.37903 0.22747 0.73666 0.45898 1.0449 0.23267 0.31022 0.53432 0.56207 0.8811 0.73563 0.34677 0.17356 0.72917 0.26406 1.117 0.26437 0.66304 0 1.2989-0.26339 1.7678-0.73223 0.46884-0.46885 0.73223-1.1047 0.73223-1.7678-6e-4 -0.38745-0.09126-0.76946-0.2648-1.1159-0.17355-0.34641-0.42524-0.64774-0.7352-0.88022-0.30769-0.23124-0.66461-0.38831-1.043-0.45898zm0.82032 1.6719c0.14501 0.23554 0.22206 0.50659 0.22265 0.7832 0 0.39782-0.15803 0.77935-0.43934 1.0607-0.2813 0.2813-0.66283 0.43934-1.0607 0.43934-0.27594-9.5e-4 -0.54627-0.07799-0.78125-0.22266 0.47096-0.17551 0.8986-0.4504 1.2538-0.80596 0.35523-0.35556 0.62971-0.78346 0.80478-1.2546z" fill="#F8DB8F"/>
  <path d="m6.7344 4.6719c-0.17507 0.47112-0.44955 0.89902-0.80478 1.2546-0.35522 0.35556-0.78286 0.63045-1.2538 0.80596 0.23498 0.14467 0.50531 0.22171 0.78125 0.22266 0.39783 0 0.77936-0.15804 1.0607-0.43934 0.28131-0.28131 0.43934-0.66284 0.43934-1.0607-5.9e-4 -0.27661-0.07764-0.54766-0.22265-0.7832z" fill="#ED8733"/>
 </g>
 <mask id="mask1_3_49" x="5" y="12" width="14" height="9" style="mask-type:alpha" maskUnits="userSpaceOnUse">
  <rect x="5" y="12" width="14" height="9" fill="#D9D9D9"/>
 </mask>
 <g mask="url(#mask1_3_49)">
  <path d="m16.364 19.167 2.3032-2.4386 2.8333 3v1.7718h-7.34l2.2035-2.3332z" fill="#0063B1" stroke="#83BEEC"/>
  <path d="m6.9141 13c0.02819 0.1501 0.04258 0.3024 0.04297 0.4551 0 0.663-0.26339 1.2989-0.73223 1.7677-0.46884 0.4689-1.1047 0.7323-1.7678 0.7323-0.1534-9e-4 -0.30639-0.016-0.45703-0.0449 0.07038 0.379 0.22747 0.7366 0.45898 1.0449 0.23267 0.3102 0.53432 0.5621 0.8811 0.7356 0.34677 0.1736 0.72917 0.2641 1.117 0.2644 0.66304 0 1.2989-0.2634 1.7678-0.7323 0.46884-0.4688 0.73223-1.1047 0.73223-1.7677-6e-4 -0.3875-0.09126-0.7695-0.2648-1.1159-0.17355-0.3464-0.42524-0.6477-0.7352-0.8802-0.30769-0.2313-0.66461-0.3883-1.043-0.459zm0.82032 1.6719c0.14501 0.2355 0.22206 0.5066 0.22265 0.7832 0 0.3978-0.15803 0.7793-0.43934 1.0606-0.2813 0.2813-0.66283 0.4394-1.0607 0.4394-0.27594-1e-3 -0.54627-0.078-0.78125-0.2227 0.47096-0.1755 0.8986-0.4504 1.2538-0.8059 0.35523-0.3556 0.62971-0.7835 0.80478-1.2546z" fill="#F8DB8F"/>
  <path d="m7.7344 14.672c-0.17507 0.4711-0.44955 0.899-0.80478 1.2546-0.35522 0.3555-0.78286 0.6304-1.2538 0.8059 0.23498 0.1447 0.50531 0.2217 0.78125 0.2227 0.39783 0 0.77936-0.1581 1.0607-0.4394 0.28131-0.2813 0.43934-0.6628 0.43934-1.0606-5.9e-4 -0.2766-0.07764-0.5477-0.22265-0.7832z" fill="#ED8733"/>
 </g>
 <rect x="2.5" y="5.5" width="2" height="2" stroke="#FAFAFA"/>
 <rect x="2.5" y="9.5" width="2" height="2" stroke="#FAFAFA"/>
 <rect x="2.5" y="13.5" width="2" height="2" stroke="#FAFAFA"/>
 <rect x="2.5" y="17.5" width="2" height="2" stroke="#FAFAFA"/>
 <line x1="3" x2="4" y1="3.5" y2="3.5" stroke="#FAFAFA"/>
 <line x1="20" x2="21" y1="3.5" y2="3.5" stroke="#FAFAFA"/>
 <rect x="19.5" y="5.5" width="2" height="2" stroke="#FAFAFA"/>
 <rect x="19.5" y="9.5" width="2" height="2" stroke="#FAFAFA"/>
 <rect x="19.5" y="13.5" width="2" height="2" stroke="#FAFAFA"/>
 <rect x="19.5" y="17.5" width="2" height="2" stroke="#FAFAFA"/>
</svg>
