<svg viewBox="0 0 24 24" xmlns="http://www.w3.org/2000/svg">
  <path
     style="fill:#797774"
     d="M 12 5 C 11.446 5 11 5.446 11 6 L 11 18 C 11 18.554 11.446 19 12 19 L 14 19 C 14.554 19 15 18.554 15 18 L 15 6 C 15 5.446 14.554 5 14 5 L 12 5 z M 7 8 C 6.446 8 6 8.446 6 9 L 6 18 C 6 18.554 6.446 19 7 19 L 9 19 C 9.554 19 10 18.554 10 18 L 10 9 C 10 8.446 9.554 8 9 8 L 7 8 z M 17 11 C 16.446 11 16 11.446 16 12 L 16 18 C 16 18.554 16.446 19 17 19 L 19 19 C 19.554 19 20 18.554 20 18 L 20 12 C 20 11.446 19.554 11 19 11 L 17 11 z " />
  <g
     transform="matrix(0 -1 -1 0 0 0)"
     id="g8">
    <path
     style="fill:#fafafa"
       d="M 4.5 2 C 4.223 2 4 2.223 4 2.5 L 4 19 L 2.5 19 C 2.223 19 2 19.223 2 19.5 C 2 19.777 2.223 20 2.5 20 L 4 20 L 4 21.5 C 4 21.777 4.223 22 4.5 22 C 4.777 22 5 21.777 5 21.5 L 5 20 L 21.5 20 C 21.777 20 22 19.777 22 19.5 C 22 19.223 21.777 19 21.5 19 L 5 19 L 5 2.5 C 5 2.223 4.777 2 4.5 2 z "
       transform="matrix(0,-1,-1,0,0,0)" />
  </g>
  <path
     style="fill:#0063b1"
     d="M 16.5 8 C 16.223 8 16 8.223 16 8.5 L 16 9.5 C 16 9.777 16.223 10 16.5 10 L 19.5 10 C 19.777 10 20 9.777 20 9.5 L 20 8.5 C 20 8.223 19.777 8 19.5 8 L 16.5 8 z " />
  <path
     style="fill:#3a3a38"
     d="M 12 6 L 12 18 L 14 18 L 14 6 L 12 6 z M 7 9 L 7 18 L 9 18 L 9 9 L 7 9 z M 17 12 L 17 18 L 19 18 L 19 12 L 17 12 z " />
</svg>
