<?xml-stylesheet type="text/css" href="icons.css" ?>
<svg viewBox="0 0 24 24" xmlns="http://www.w3.org/2000/svg">
     <path d="M 15.7 2 C 15.4 2 15.1 2 14.9 2.4 L 12.2 3.3 A 7.3 7.3 0 0 1 14.8 8.8 A 7.3 7.3 0 0 1 9.2 16 L 11.2 20.7 C 11.5 21.5 12.3 22 13.1 22 C 13.4 22 13.7 21.9 13.9 21.8 L 21.7 18.6 C 22.8 18.2 23.3 16.9 22.8 15.9 L 17.6 3.3 C 17.3 2.5 16.5 2 15.7 2 z M 6 4 L 6 8 L 2 8 L 2 10 L 6 10 L 6 14 L 8 14 L 8 10 L 12 10 L 12 8 L 8 8 L 8 4 L 6 4 z M 2.4 14.1 L 1.2 17 C 0.7 18.1 1.2 19.3 2.3 19.8 L 3.7 20.4 L 3.7 15.1 A 7.3 7.3 0 0 1 2.3 14.1 z M 5.8 16 L 5.8 19.9 C 5.8 21 6.8 22 7.9 22 L 9.5 22 L 7 16.2 A 7.3 7.3 0 0 1 5.8 16 z "
     fill="#ababab" />
</svg>
