<svg viewBox="0 0 24 24" xmlns="http://www.w3.org/2000/svg">
  <path
     d="M 7.9570312,5.0449219 A 2.5,2.5 0 0 1 8,5.5 2.5,2.5 0 0 1 5.5,8 2.5,2.5 0 0 1 5.0429688,7.9550781 2.5,2.5 0 0 0 5.5019531,9 2.5,2.5 0 0 0 7.5,10 2.5,2.5 0 0 0 10,7.5 2.5,2.5 0 0 0 9,5.5039062 2.5,2.5 0 0 0 7.9570312,5.0449219 Z m 0.8203126,1.671875 A 1.5,1.5 0 0 1 9,7.5 1.5,1.5 0 0 1 7.5,9 1.5,1.5 0 0 1 6.71875,8.7773438 3.5000001,3.5000001 0 0 0 8.7773438,6.7167969 Z"
     fill="#f8db8f" />
  <path
     style="fill:#fafafa"
     d="M 2 2 L 2 22 L 12.804688 22 C 12.511358 21.69391 12.246748 21.359141 12.017578 21 L 3 21 L 3 3 L 21 3 L 21 12.017578 C 21.359141 12.246748 21.69391 12.511358 22 12.804688 L 22 2 L 2 2 z " />
  <path
     style="fill:#0063b1"
     d="M 10 14.5 L 3.5 21 L 6 21 L 11.232422 15.767578 C 11.23493 15.758422 11.237687 15.749374 11.240234 15.740234 L 10 14.5 z M 11 17.5 L 7.5 21 L 12.017578 21 C 11.373504 19.990646 11 18.791099 11 17.5 z " />
  <path
     style="fill:#83beec"
     d="m 10,13 -7,7 v 1 h 0.5 l 6.5,-6.5 1.240234,1.240234 c 0.105392,-0.378176 0.243658,-0.741242 0.41211,-1.08789 z M 11.232422,15.767578 6,21 H 7.5 L 11,17.5 c 0,-0.600386 0.08143,-1.181247 0.232422,-1.732422 z"
     sodipodi:nodetypes="ccccccccccccc" />
  <path
     d="M 8.7773438,6.7167969 A 3.5,3.5 0 0 1 6.71875,8.7773438 1.5,1.5 0 0 0 7.5,9 1.5,1.5 0 0 0 9,7.5 1.5,1.5 0 0 0 8.7773438,6.7167969 Z"
     fill="#ed8733" />
  <path
     d="M 17.5,12 A 5.5,5.5 0 0 0 12,17.5 5.5,5.5 0 0 0 17.5,23 5.5,5.5 0 0 0 23,17.5 5.5,5.5 0 0 0 17.5,12 Z m 0,1 A 4.5,4.5 0 0 1 22,17.5 4.5,4.5 0 0 1 17.5,22 4.5,4.5 0 0 1 13,17.5 4.5,4.5 0 0 1 17.5,13 Z"
     style="fill:#1e8bcd" />
  <path
     d="M 17.5,12 A 5.5,5.5 0 0 0 17.4375,12.002 10.5,10.5 0 0 1 19,17.5 10.5,10.5 0 0 1 17.431641,22.996094 5.5,5.5 0 0 0 17.5,23 5.5,5.5 0 0 0 18.660156,22.869141 11.5,11.5 0 0 0 20,17.5 11.5,11.5 0 0 0 18.660156,12.126953 5.5,5.5 0 0 0 17.5,12 Z"
     style="fill:#1e8bcd" />
  <path
     d="M 17.5,12 A 5.5,5.5 0 0 0 16.339844,12.130859 11.5,11.5 0 0 0 15,17.5 11.5,11.5 0 0 0 16.339844,22.873047 5.5,5.5 0 0 0 17.5,23 5.5,5.5 0 0 0 17.5625,22.998047 10.5,10.5 0 0 1 16,17.5 10.5,10.5 0 0 1 17.568359,12.003906 5.5,5.5 0 0 0 17.5,12 Z"
     style="fill:#1e8bcd" />
  <path
     d="M 21.794922,14.066406 A 10.5,10.5 0 0 1 17.5,15 10.5,10.5 0 0 1 13.205078,14.072266 5.5,5.5 0 0 0 12.650391,14.912109 11.5,11.5 0 0 0 17.5,16 11.5,11.5 0 0 0 22.349609,14.912109 5.5,5.5 0 0 0 21.794922,14.066406 Z"
     style="fill:#1e8bcd" />
  <path
     d="m 17.5,19 a 11.5,11.5 0 0 0 -4.849609,1.087891 5.5,5.5 0 0 0 0.554687,0.845703 A 10.5,10.5 0 0 1 17.5,20 10.5,10.5 0 0 1 21.794922,20.927734 5.5,5.5 0 0 0 22.349609,20.087891 11.5,11.5 0 0 0 17.5,19 Z"
     style="fill:#1e8bcd" />
  <path
     d="M 12.025391,17 A 5.5,5.5 0 0 0 12,17.5 5.5,5.5 0 0 0 12.027344,18 H 22.974609 A 5.5,5.5 0 0 0 23,17.5 5.5,5.5 0 0 0 22.972656,17 Z"
     style="fill:#1e8bcd" />
</svg>
