<svg viewBox="0 0 24 24" xmlns="http://www.w3.org/2000/svg">
  <path
     style="fill:#fafafa"
     d="M 3 6 C 2.446 6 2 6.446 2 7 L 2 17 C 2 17.554 2.446 18 3 18 L 21 18 C 21.554 18 22 17.554 22 17 L 22 7 C 22 6.446 21.554 6 21 6 L 3 6 z M 3 7 L 21 7 L 21 17 L 3 17 L 3 7 z M 5 8 L 5 10 L 7 10 L 7 8 L 5 8 z M 8 8 L 8 10 L 10 10 L 10 8 L 8 8 z M 11 8 L 11 10 L 13 10 L 13 8 L 11 8 z M 14 8 L 14 10 L 16 10 L 16 8 L 14 8 z M 17 8 L 17 10 L 19 10 L 19 8 L 17 8 z M 5 11 L 5 13 L 7 13 L 7 11 L 5 11 z M 8 11 L 8 13 L 10 13 L 10 11 L 8 11 z M 11 11 L 11 13 L 13 13 L 13 11 L 11 11 z M 14 11 L 14 13 L 16 13 L 16 11 L 14 11 z M 17 11 L 17 13 L 19 13 L 19 11 L 17 11 z M 7 14 L 7 16 L 17 16 L 17 14 L 7 14 z " />
</svg>
