<svg viewBox="0 0 24 24" xmlns="http://www.w3.org/2000/svg">
  <path
     style="fill:#fafafa"
     d="M 10.5 2 A 8.5 8.5 0 0 0 9.9960938 2.0175781 A 13.5 13.5 0 0 1 10.001953 2.0253906 A 8.5 8.5 0 0 0 9.7460938 2.0390625 A 14.5 14.5 0 0 0 9.7363281 2.0546875 A 8.5 8.5 0 0 0 4.4570312 4.5527344 A 13.5 13.5 0 0 1 4.4414062 4.546875 A 8.5 8.5 0 0 0 4.2011719 4.8085938 A 8.5 8.5 0 0 0 3.9453125 5.109375 A 8.5 8.5 0 0 0 3.765625 5.3300781 A 14.5 14.5 0 0 0 3.7753906 5.3339844 A 8.5 8.5 0 0 0 2.0351562 10 L 2.0253906 10 A 8.5 8.5 0 0 0 2 10.5 A 8.5 8.5 0 0 0 2.0175781 11 L 2.0351562 11 A 8.5 8.5 0 0 0 3.7753906 15.666016 A 14.5 14.5 0 0 0 3.7617188 15.671875 A 8.5 8.5 0 0 0 4.0039062 15.96875 A 8.5 8.5 0 0 0 4.1445312 16.134766 A 8.5 8.5 0 0 0 4.4277344 16.445312 A 13.5 13.5 0 0 1 4.4472656 16.4375 A 8.5 8.5 0 0 0 9.7324219 18.945312 A 14.5 14.5 0 0 0 9.7421875 18.960938 A 8.5 8.5 0 0 0 10.5 19 A 8.5 8.5 0 0 0 11.003906 18.982422 A 13.5 13.5 0 0 1 10.998047 18.974609 A 8.5 8.5 0 0 0 11.253906 18.960938 A 14.5 14.5 0 0 0 11.261719 18.947266 A 8.5 8.5 0 0 0 12.59375 18.726562 L 12.435547 18.570312 A 1.0001 1.0001 0 0 0 12.435547 18.568359 C 12.226293 18.359162 12.094976 18.100783 12.035156 17.832031 A 7.5 7.5 0 0 1 11.980469 17.841797 A 14.5 14.5 0 0 0 12.021484 17.777344 C 12.004924 17.687244 11.996094 17.596535 11.996094 17.505859 C 11.996094 17.124787 12.147007 16.733882 12.435547 16.445312 C 12.548673 16.332187 12.679213 16.248503 12.816406 16.179688 A 14.5 14.5 0 0 0 13.158203 15.287109 A 13.5 13.5 0 0 1 15.556641 16.015625 A 7.5 7.5 0 0 1 14.769531 16.65625 L 15.488281 17.373047 A 8.5 8.5 0 0 0 16 16.980469 L 16 16.193359 L 16 15.097656 A 14.5 14.5 0 0 0 13.460938 14.324219 A 14.5 14.5 0 0 0 13.978516 11 L 17.974609 11 A 7.5 7.5 0 0 1 17.970703 11.085938 C 18.375364 11.225193 18.711743 11.528805 18.880859 11.919922 A 8.5 8.5 0 0 0 19 10.5 A 8.5 8.5 0 0 0 10.5 2 z M 10.5 3 A 7.5 7.5 0 0 1 10.71875 3.0058594 A 13.5 13.5 0 0 1 12.167969 5.8867188 A 13.5 13.5 0 0 1 10.5 6 A 13.5 13.5 0 0 1 8.8359375 5.8828125 A 13.5 13.5 0 0 1 10.277344 3.0175781 A 7.5 7.5 0 0 1 10.5 3 z M 11.982422 3.1503906 A 7.5 7.5 0 0 1 15.59375 4.9980469 A 13.5 13.5 0 0 1 13.169922 5.7226562 A 14.5 14.5 0 0 0 11.982422 3.1503906 z M 9.0117188 3.1679688 A 14.5 14.5 0 0 0 7.8339844 5.7167969 A 13.5 13.5 0 0 1 5.4316406 4.9960938 A 7.5 7.5 0 0 1 9.0117188 3.1679688 z M 16.316406 5.765625 A 7.5 7.5 0 0 1 17.982422 10 L 13.976562 10 A 14.5 14.5 0 0 0 13.478516 6.6757812 A 14.5 14.5 0 0 0 16.316406 5.765625 z M 4.7011719 5.7753906 A 14.5 14.5 0 0 0 7.5234375 6.6757812 A 14.5 14.5 0 0 0 7.0234375 10 L 3.0390625 10 A 7.5 7.5 0 0 1 4.7011719 5.7753906 z M 8.5175781 6.8496094 A 14.5 14.5 0 0 0 10.5 7 A 14.5 14.5 0 0 0 12.486328 6.8496094 A 13.5 13.5 0 0 1 12.974609 10 L 8.0253906 10 A 13.5 13.5 0 0 1 8.5175781 6.8496094 z M 3.0390625 11 L 7.0234375 11 A 14.5 14.5 0 0 0 7.5214844 14.324219 A 14.5 14.5 0 0 0 4.703125 15.224609 A 7.5 7.5 0 0 1 3.0390625 11 z M 8.0253906 11 L 12.974609 11 A 13.5 13.5 0 0 1 12.482422 14.150391 A 14.5 14.5 0 0 0 10.5 14 A 14.5 14.5 0 0 0 8.5136719 14.150391 A 13.5 13.5 0 0 1 8.0253906 11 z M 10.5 15 A 13.5 13.5 0 0 1 12.162109 15.121094 A 13.5 13.5 0 0 1 10.71875 17.986328 A 7.5 7.5 0 0 1 10.5 18 A 7.5 7.5 0 0 1 10.271484 17.982422 A 13.5 13.5 0 0 1 8.8320312 15.113281 A 13.5 13.5 0 0 1 10.5 15 z M 7.8300781 15.277344 A 14.5 14.5 0 0 0 9.0058594 17.832031 A 7.5 7.5 0 0 1 5.421875 15.996094 A 13.5 13.5 0 0 1 7.8300781 15.277344 z " />
  <path
     d="m22.003906 17.505859c0-.127809-.04855-.25558-.146484-.353515-.195869-.195868-.513116-.195868-.708985 0l-3.148437 3.140625v-7.792969c0-.277-.223-.5-.5-.5s-.5.223-.5.5v7.792969l-3.148438-3.140625c-.195869-.195868-.513115-.195868-.708984 0-.09793.09794-.146484.225706-.146484.353515 0 .127808.04855.257539.146484.355469l4.003906 3.992188c.04701.04702.103236.08407.166016.109375.0579.02334.12105.03711.1875.03711s.129596-.01377.1875-.03711c.06278-.0253.119003-.06236.166016-.109375l4.003906-3.992187c.09793-.09793.146484-.227661.146484-.35547z"
     fill="#1e8bcd"
     id="path18" />
</svg>
