<svg width="68" height="54" viewBox="0 0 68 54" fill="none" xmlns="http://www.w3.org/2000/svg">
<path d="M3 3H64V50H3V3Z" fill="#E6E6E6"/>
<path d="M4 4H63V49H4V4Z" fill="#2B2B2B"/>
<path d="M58 7C58.554 7 59 7.446 59 8V45C59 45.554 58.554 46 58 46H9C8.446 46 8 45.554 8 45L8 8C8 7.446 8.446 7 9 7H58ZM57 8H10C9.446 8 9 8.446 9 9V44C9 44.554 9.446 45 10 45H57C57.554 45 58 44.554 58 44V9C58 8.446 57.554 8 57 8Z" fill="#797774"/>
<path d="M41.32 28H25.68C25.3044 28 25 28.3044 25 28.68V29.32C25 29.6956 25.3044 30 25.68 30H41.32C41.6956 30 42 29.6956 42 29.32V28.68C42 28.3044 41.6956 28 41.32 28Z" fill="#1E8BCD"/>
<path d="M45.92 23H21.08C20.4835 23 20 23.4477 20 24C20 24.5523 20.4835 25 21.08 25H45.92C46.5165 25 47 24.5523 47 24C47 23.4477 46.5165 23 45.92 23Z" fill="#1E8BCD"/>
</svg>
