<svg width="68" height="54" viewBox="0 0 68 54" fill="none" xmlns="http://www.w3.org/2000/svg">
<path d="M3 3H64V50H3V3Z" fill="#E6E6E6"/>
<path d="M4 4H63V49H4V4Z" fill="#2B2B2B"/>
<path d="M45 7C45.554 7 46 7.446 46 8V24C46 24.554 45.554 25 45 25H9C8.446 25 8 24.554 8 24V8C8 7.446 8.446 7 9 7H45ZM44 8H10C9.446 8 9 8.446 9 9V23C9 23.554 9.446 24 10 24H44C44.554 24 45 23.554 45 23V9C45 8.446 44.554 8 44 8Z" fill="#797774"/>
<path d="M56 41.92V11.08C56 10.4835 55.5165 10 54.92 10H54.08C53.4835 10 53 10.4835 53 11.08V41.92C53 42.5165 53.4835 43 54.08 43H54.92C55.5165 43 56 42.5165 56 41.92Z" fill="#1E8BCD"/>
<path d="M58 7C58.554 7 59 7.446 59 8V45C59 45.554 58.554 46 58 46H51C50.446 46 50 45.554 50 45V8C50 7.446 50.446 7 51 7H58ZM57 8H52C51.446 8 51 8.446 51 9V44C51 44.554 51.446 45 52 45H57C57.554 45 58 44.554 58 44V9C58 8.446 57.554 8 57 8Z" fill="#797774"/>
<path d="M45 28C45.554 28 46 28.446 46 29V45C46 45.554 45.554 46 45 46H9C8.446 46 8 45.554 8 45V29C8 28.446 8.446 28 9 28H45ZM44 29H10C9.446 29 9 29.446 9 30V44C9 44.554 9.446 45 10 45H44C44.554 45 45 44.554 45 44V30C45 29.446 44.554 29 44 29Z" fill="#797774"/>
</svg>
