<svg width="68" height="54" viewBox="0 0 68 54" fill="none" xmlns="http://www.w3.org/2000/svg">
<path d="M3 3H64V50H3V3Z" fill="#E6E6E6"/>
<path d="M4 4H63V49H4V4Z" fill="#2B2B2B"/>
<path d="M9 7C8.446 7 8 7.446 8 8V15C8 15.554 8.446 16 9 16H58C58.554 16 59 15.554 59 15V8C59 7.446 58.554 7 58 7H9ZM10 8H57C57.554 8 58 8.446 58 9V14C58 14.554 57.554 15 57 15H10C9.446 15 9 14.554 9 14V9C9 8.446 9.446 8 10 8Z" fill="#797774"/>
<path d="M53 10H14C13.4477 10 13 10.4477 13 11V12C13 12.5523 13.4477 13 14 13H53C53.5523 13 54 12.5523 54 12V11C54 10.4477 53.5523 10 53 10Z" fill="#1E8BCD"/>
<path d="M58 20C58.554 20 59 20.446 59 21V45C59 45.554 58.554 46 58 46H36C35.446 46 35 45.554 35 45V21C35 20.446 35.446 20 36 20H58ZM57 21H37C36.446 21 36 21.446 36 22V44C36 44.554 36.446 45 37 45H57C57.554 45 58 44.554 58 44V22C58 21.446 57.554 21 57 21Z" fill="#797774"/>
<path d="M31 20C31.554 20 32 20.446 32 21V45C32 45.554 31.554 46 31 46H9C8.446 46 8 45.554 8 45V21C8 20.446 8.446 20 9 20H31ZM30 21H10C9.446 21 9 21.446 9 22V44C9 44.554 9.446 45 10 45H30C30.554 45 31 44.554 31 44V22C31 21.446 30.554 21 30 21Z" fill="#797774"/>
</svg>
