<svg width="68" height="54" viewBox="0 0 68 54" fill="none" xmlns="http://www.w3.org/2000/svg">
<path d="M3 3H64V50H3V3Z" fill="#E6E6E6"/>
<path d="M4 4H63V49H4V4Z" fill="#2B2B2B"/>
<path d="M9 7C8.446 7 8 7.446 8 8V15C8 15.554 8.446 16 9 16H58C58.554 16 59 15.554 59 15V8C59 7.446 58.554 7 58 7H9ZM10 8H57C57.554 8 58 8.446 58 9V14C58 14.554 57.554 15 57 15H10C9.446 15 9 14.554 9 14V9C9 8.446 9.446 8 10 8Z" fill="#797774"/>
<path d="M53 10H14C13.4477 10 13 10.4477 13 11V12C13 12.5523 13.4477 13 14 13H53C53.5523 13 54 12.5523 54 12V11C54 10.4477 53.5523 10 53 10Z" fill="#1E8BCD"/>
<path d="M9 20C8.446 20 8 20.446 8 21V31C8 31.554 8.446 32 9 32H22C22.554 32 23 31.554 23 31V21C23 20.446 22.554 20 22 20H9ZM10 21H21C21.554 21 22 21.446 22 22V30C22 30.554 21.554 31 21 31H10C9.446 31 9 30.554 9 30V22C9 21.446 9.446 21 10 21Z" fill="#797774"/>
<path d="M27 20C26.446 20 26 20.446 26 21V31C26 31.554 26.446 32 27 32H40C40.554 32 41 31.554 41 31V21C41 20.446 40.554 20 40 20H27ZM28 21H39C39.554 21 40 21.446 40 22V30C40 30.554 39.554 31 39 31H28C27.446 31 27 30.554 27 30V22C27 21.446 27.446 21 28 21Z" fill="#797774"/>
<path d="M45 20C44.446 20 44 20.446 44 21V31C44 31.554 44.446 32 45 32H58C58.554 32 59 31.554 59 31V21C59 20.446 58.554 20 58 20H45ZM46 21H57C57.554 21 58 21.446 58 22V30C58 30.554 57.554 31 57 31H46C45.446 31 45 30.554 45 30V22C45 21.446 45.446 21 46 21Z" fill="#797774"/>
<path d="M9 34C8.446 34 8 34.446 8 35V45C8 45.554 8.446 46 9 46H22C22.554 46 23 45.554 23 45V35C23 34.446 22.554 34 22 34H9ZM10 35H21C21.554 35 22 35.446 22 36V44C22 44.554 21.554 45 21 45H10C9.446 45 9 44.554 9 44V36C9 35.446 9.446 35 10 35Z" fill="#797774"/>
<path d="M27 34C26.446 34 26 34.446 26 35V45C26 45.554 26.446 46 27 46H40C40.554 46 41 45.554 41 45V35C41 34.446 40.554 34 40 34H27ZM28 35H39C39.554 35 40 35.446 40 36V44C40 44.554 39.554 45 39 45H28C27.446 45 27 44.554 27 44V36C27 35.446 27.446 35 28 35Z" fill="#797774"/>
<path d="M45 34C44.446 34 44 34.446 44 35V45C44 45.554 44.446 46 45 46H58C58.554 46 59 45.554 59 45V35C59 34.446 58.554 34 58 34H45ZM46 35H57C57.554 35 58 35.446 58 36V44C58 44.554 57.554 45 57 45H46C45.446 45 45 44.554 45 44V36C45 35.446 45.446 35 46 35Z" fill="#797774"/>
</svg>
