<svg width="68" height="54" viewBox="0 0 68 54" fill="none" xmlns="http://www.w3.org/2000/svg">
<path d="M3 3H64V50H3V3Z" fill="#E6E6E6"/>
<path d="M4 4H63V49H4V4Z" fill="#2B2B2B"/>
<path d="M9 7C8.446 7 8 7.446 8 8V15C8 15.554 8.446 16 9 16H58C58.554 16 59 15.554 59 15V8C59 7.446 58.554 7 58 7H9ZM10 8H57C57.554 8 58 8.446 58 9V14C58 14.554 57.554 15 57 15H10C9.446 15 9 14.554 9 14V9C9 8.446 9.446 8 10 8Z" fill="#797774"/>
<path d="M53 10H14C13.4477 10 13 10.4477 13 11V12C13 12.5523 13.4477 13 14 13H53C53.5523 13 54 12.5523 54 12V11C54 10.4477 53.5523 10 53 10Z" fill="#1E8BCD"/>
<path d="M9 20C8.446 20 8 20.446 8 21V45C8 45.554 8.446 46 9 46H31C31.554 46 32 45.554 32 45V21C32 20.446 31.554 20 31 20H9ZM10 21H30C30.554 21 31 21.446 31 22V44C31 44.554 30.554 45 30 45H10C9.446 45 9 44.554 9 44V22C9 21.446 9.446 21 10 21Z" fill="#797774"/>
<path d="M36 20C35.446 20 35 20.446 35 21V31C35 31.554 35.446 32 36 32H58C58.554 32 59 31.554 59 31V21C59 20.446 58.554 20 58 20H36ZM37 21H57C57.554 21 58 21.446 58 22V30C58 30.554 57.554 31 57 31H37C36.446 31 36 30.554 36 30V22C36 21.446 36.446 21 37 21Z" fill="#797774"/>
<path d="M36 34C35.446 34 35 34.446 35 35V45C35 45.554 35.446 46 36 46H58C58.554 46 59 45.554 59 45V35C59 34.446 58.554 34 58 34H36ZM37 35H57C57.554 35 58 35.446 58 36V44C58 44.554 57.554 45 57 45H37C36.446 45 36 44.554 36 44V36C36 35.446 36.446 35 37 35Z" fill="#797774"/>
</svg>
