<svg width="68" height="54" viewBox="0 0 68 54" fill="none" xmlns="http://www.w3.org/2000/svg">
<path d="M3 3H64V50H3V3Z" fill="#E6E6E6"/>
<path d="M4 4H63V49H4V4Z" fill="#2B2B2B"/>
<path d="M9 7C8.446 7 8 7.446 8 8V15C8 15.554 8.446 16 9 16H58C58.554 16 59 15.554 59 15V8C59 7.446 58.554 7 58 7H9ZM10 8H57C57.554 8 58 8.446 58 9V14C58 14.554 57.554 15 57 15H10C9.446 15 9 14.554 9 14V9C9 8.446 9.446 8 10 8Z" fill="#797774"/>
<path d="M53 10H14C13.4477 10 13 10.4477 13 11V12C13 12.5523 13.4477 13 14 13H53C53.5523 13 54 12.5523 54 12V11C54 10.4477 53.5523 10 53 10Z" fill="#1E8BCD"/>
</svg>
