<?xml-stylesheet type="text/css" href="icons.css" ?>
<svg viewBox="0 0 24 24" xmlns="http://www.w3.org/2000/svg">
  <path
     d="M 3.5 2 C 2.5 2 2 2.6 2 3.5 L 2 15.5 C 2 16.42714 2.6 17 3.5 17 L 5 17 L 5 21 C 5 21.6 5.3 22 5.7 22 C 6.2 22 6.5 21.9 6.8 21.7 L 11 18 L 13.1 18 L 16.4 20.6 C 16.4 20.6 16.4 20.6 16.4 20.6 C 16.8 20.8 17.2 21 17.8 21 C 18.1 21 18.5 20.8 18.7 20.5 C 18.9 20.2 19 19.9 19 19.5 L 19 18 L 20 18 C 20 18 20 18 20 18 C 20.6 18 21.1 17.8 21.4 17.4 C 21.8 17.1 22 16.6 22 16 L 22 3.5 C 22 2.7 21.3 2 20.5 2 L 3.5 2 z M 7 7 L 20 7 C 20.6 7 21 7.5 21 8 L 21 16 C 21 16.4 20.9 16.6 20.7 16.7 C 20.6 16.9 20.3 17 20 17 L 18.5 17 C 18.2 17 18 17.2 18 17.5 L 18 19.5 C 18 19.7 17.9 19.9 17.9 19.9 C 17.9 20 17.9 20 17.8 20 C 17.8 20 17.8 20 17.8 20 C 17.4 20 17.2 19.9 17 19.8 L 17 19.8 L 13.6 17.1 C 13.5 17 13.4 17 13.3 17 L 7 17 C 6.4 17 6 16.6 6 16 L 6 8 C 6 7.4 6.5 7 7 7 z "
     fill="#ababab" />
</svg>
