<?xml-stylesheet type="text/css" href="icons.css" ?>
<svg viewBox="0 0 24 24" xmlns="http://www.w3.org/2000/svg">
  <path
     d="M 8.9 4 L 3 20 L 4.7 20 C 4.9 20 5 19.9 5.1 19.8 C 5.3 19.7 5.4 19.6 5.4 19.5 L 6.6 16 L 11.9 16 L 14.5 13.3 L 11.1 4 L 8.9 4 z M 10 6.1 L 12.7 14 L 7.3 14 L 9.5 7.6 C 9.6 7.4 9.7 7.2 9.8 6.9 C 9.8 6.7 9.9 6.4 10 6.1 z M 19.5 10 C 19.4 10 19.2 10 19.1 10.1 C 16.8 12.5 14.5 14.8 12.2 17.1 C 12.1 17.2 12.1 17.2 12 17.3 C 12 17.3 12 17.3 12 17.3 L 10 22.3 C 9.9 22.7 10.6 23.4 10.7 23 L 15.7 21 C 15.8 20.9 15.8 20.9 15.9 20.9 C 18.3 18.4 20.8 15.9 22.9 13.9 C 23 13.7 23 13.3 22.8 13.1 L 19.8 10.1 C 19.8 10 19.6 10 19.5 10 z M 19.5 11.2 L 21.8 13.5 L 20.5 14.8 L 18.2 12.5 L 19.5 11.2 z M 17.5 13.2 L 19.8 15.5 L 15.5 19.8 L 13.2 17.5 L 17.5 13.2 z M 12.7 18.4 L 14.6 20.3 L 11.4 21.6 L 12.7 18.4 z "
     fill="#ababab" />
</svg>
