<svg viewBox="0 0 24 24" xmlns="http://www.w3.org/2000/svg">
  <path
     style="fill:#fafafa"
     d="M 4.5 2 A 0.5 0.5 0 0 0 4 2.5 L 4 19 L 2.5 19 A 0.5 0.5 0 0 0 2 19.5 A 0.5 0.5 0 0 0 2.5 20 L 4 20 L 4 21.5 A 0.5 0.5 0 0 0 4.5 22 A 0.5 0.5 0 0 0 5 21.5 L 5 20 L 21.5 20 A 0.5 0.5 0 0 0 22 19.5 A 0.5 0.5 0 0 0 21.5 19 L 5 19 L 5 2.5 A 0.5 0.5 0 0 0 4.5 2 z " />
  <path
     style="fill:#3a3a38"
     d="M 11.5 5.5 L 11.5 18.5 L 14.5 18.5 L 14.5 5.5 L 11.5 5.5 z M 6.5 8.5 L 6.5 18.5 L 9.5 18.5 L 9.5 8.5 L 6.5 8.5 z M 16.5 11.5 L 16.5 18.5 L 19.5 18.5 L 19.5 11.5 L 16.5 11.5 z " />
  <path
     style="fill:#0063b1"
     d="M 11.5,1 A 0.50005,0.50005 0 0 0 11.007812,1.5 0.50005,0.50005 0 0 0 11.5,2 H 12 v 1 h -0.5 a 0.50005,0.50005 0 0 0 0,1 h 2 a 0.50005,0.50005 0 0 0 0,-1 H 13 V 2 h 0.5 a 0.50005,0.50005 0 0 0 0,-1 z M 6.5507812,2 A 0.50005,0.50005 0 0 0 6.0566406,2.5 0.50005,0.50005 0 0 0 6.5507812,3 h 0.5 v 3 h -0.5 a 0.50005,0.50005 0 0 0 0,1 h 2 a 0.50005,0.50005 0 0 0 0.4257813,-0.2519531 0.50005,0.50005 0 0 0 0,-0.4960938 A 0.50005,0.50005 0 0 0 8.5507812,6 h -0.5 V 3 h 0.5 a 0.50005,0.50005 0 0 0 0,-1 z M 17.5,4 A 0.50005,0.50005 0 0 0 17.007812,4.5 0.50005,0.50005 0 0 0 17.5,5 H 18 V 8 H 17.5 A 0.50005,0.50005 0 0 0 17.007812,8.5 0.50005,0.50005 0 0 0 17.5,9 h 2 a 0.50005,0.50005 0 0 0 0.427734,-0.2519531 0.50005,0.50005 0 0 0 0,-0.4960938 A 0.50005,0.50005 0 0 0 19.5,8 H 19 V 5 h 0.5 a 0.50005,0.50005 0 0 0 0,-1 z" />
  <path
     style="fill:#797774"
     d="M 11.5 5 A 0.50005 0.50005 0 0 0 11 5.5 L 11 18.5 A 0.50005 0.50005 0 0 0 11.5 19 L 14.5 19 A 0.50005 0.50005 0 0 0 15 18.5 L 15 5.5 A 0.50005 0.50005 0 0 0 14.5 5 L 11.5 5 z M 12 6 L 14 6 L 14 18 L 12 18 L 12 6 z M 6.5 8 A 0.50005 0.50005 0 0 0 6 8.5 L 6 18.5 A 0.50005 0.50005 0 0 0 6.5 19 L 9.5 19 A 0.50005 0.50005 0 0 0 10 18.5 L 10 8.5 A 0.50005 0.50005 0 0 0 9.5 8 L 6.5 8 z M 7 9 L 9 9 L 9 18 L 7 18 L 7 9 z M 16.5 11 A 0.50005 0.50005 0 0 0 16 11.5 L 16 18.5 A 0.50005 0.50005 0 0 0 16.5 19 L 19.5 19 A 0.50005 0.50005 0 0 0 20 18.5 L 20 11.5 A 0.50005 0.50005 0 0 0 19.5 11 L 16.5 11 z M 17 12 L 19 12 L 19 18 L 17 18 L 17 12 z " />
</svg>
