<svg viewBox="0 0 24 24" fill="none" xmlns="http://www.w3.org/2000/svg">
<path d="M7.10283 4.40713L4.76834 12.3802L4.17391 7.37119H2V9.05679H2.86957L3.73913 18.9739C4.17725 19.2732 4.38271 19.2051 4.6087 18.9739L8.95652 5.6856H20.2609V7.37119H22V5.6856C22 4.75467 21.2214 4 20.2609 4H7.65217C7.45494 4.01938 7.25923 4.05137 7.10283 4.40713Z" fill="#FAFAFA"/>
<path d="M10.9029 8.22718C10.3098 8.22667 9.82896 8.69274 9.82948 9.2675C9.83033 9.50645 9.9161 9.73782 10.0723 9.92265C10.0784 9.93099 10.0847 9.9392 10.091 9.94734L13.3196 14.1136L10.091 18.2798C10.0847 18.288 10.0784 18.2962 10.0723 18.3045C9.9161 18.4894 9.83033 18.7207 9.82948 18.9597C9.82895 19.5345 10.3098 20.0005 10.9028 20C11.3172 19.9993 11.6941 19.7673 11.8709 19.4041L11.8727 19.3992L14.6087 15.7679L17.3448 19.3992L17.3465 19.4041C17.5234 19.7673 17.9002 19.9993 18.3146 20C18.9076 20.0005 19.3885 19.5345 19.388 18.9597C19.3871 18.7207 19.3014 18.4894 19.1451 18.3045C19.139 18.2962 19.1328 18.288 19.1264 18.2798L15.8978 14.1136L19.1264 9.94734C19.1327 9.93916 19.1389 9.93099 19.145 9.92265C19.3013 9.73781 19.3871 9.50645 19.3879 9.2675C19.3884 8.69273 18.9076 8.22666 18.3145 8.22717C17.9002 8.22785 17.5233 8.45984 17.3465 8.82306L17.3447 8.828L14.6087 12.4593L11.8726 8.828L11.8709 8.82306C11.6942 8.45985 11.3172 8.22786 10.9029 8.22718Z" fill="#FAFAFA"/>
</svg>
