<svg viewBox="0 0 24 24" xmlns="http://www.w3.org/2000/svg">
  <path
     d="m12 2a10 10 0 0 0 -10 10 10 10 0 0 0 10 10 10 10 0 0 0 10-10 10 10 0 0 0 -10-10zm0 1a9 9 0 0 1 9 9 9 9 0 0 1 -9 9 9 9 0 0 1 -9-9 9 9 0 0 1 9-9z"
     fill="#fafafa" />
  <path
     d="m 12,5 c 2.21,0 4,1.79 4,4 0,0.88 -0.359687,1.68 -0.929688,2.25 l -0.90039,0.919922 C 13.449922,12.899922 13,13.5 13,15 h -2 v -0.5 c 0,-1.1 0.449922,-2.100078 1.169922,-2.830078 l 1.240234,-1.259766 C 13.780156,10.050156 14,9.55 14,9 14,7.9 13.1,7 12,7 10.9,7 10,7.9 10,9 H 8 C 8,6.79 9.7899998,5 12,5 Z m -1,12 h 2 v 2 h -2 z"
     fill="#fafafa" />
</svg>
