<svg version="1.1" viewBox="0 0 24 24" xmlns="http://www.w3.org/2000/svg"><path d="m2 2c-0.554 0-1 0.446-1 1v16c0 0.554 0.446 1 1 1h10.721a6.0752 6.0752 0 0 1-0.45117-1h-10.27v-16h18v8.2695a6.0752 6.0752 0 0 1 1 0.45117v-8.7207c0-0.554-0.446-1-1-1h-18z" fill="#63bbee"/><path d="m2 3v1h18v-1z" fill="#63bbee" stroke-width=".7071"/><path d="m3.2217 5.2217v6.5566h7.5566v-6.5566z" fill="#0063b1" stroke="#0063b1" stroke-width=".443"/><path d="m12 5v3h7v-3z" fill="#63bbee" stroke-width=".28867"/><path d="m18 12a5 5 0 0 0-5 5 5 5 0 0 0 5 5 5 5 0 0 0 5-5 5 5 0 0 0-5-5zm0 1a4 4 0 0 1 4 4 4 4 0 0 1-4 4 4 4 0 0 1-4-4 4 4 0 0 1 4-4z" fill="#fff"/><path d="m17.471 14.641v3.6607h2.8507v-0.73214h-2.1185v-2.9286z" fill="#fff" stroke-width=".732"/><path d="m21.266 14.535 1.2943-1.2943-0.5177-0.5177-1.2943 1.2943z" fill="#fff" stroke-width=".73214"/><path d="m17 11h2v-1l-2 1e-6z" fill="#fff" stroke-width=".89442"/><path d="m3 14v1h4v-1z" fill="#0063b1"/></svg>
