<svg viewBox="0 0 24 24" xmlns="http://www.w3.org/2000/svg">
  <path
     d="M 8,2 C 4.6862915,2 2,4.6862915 2,8 c 0,3.313708 2.6862915,6 6,6 h 1 v 8 h 1 V 3 h 2 v 19 h 1 v -2.876953 c 0.0019,-0.01906 -0.617428,-0.685094 -0.888672,-1.058594 -0.06661,-0.165247 -0.1,-0.355947 -0.1,-0.560547 0,-0.20459 0.04277,-0.395313 0.1,-0.560547 C 12.302598,16.511532 13,15.884766 13,15.884766 V 3 h 1 3 V 2 Z M 8,3 H 9 V 13 H 8 C 5.2385763,13 3,10.761424 3,8 3,5.2385763 5.2385763,3 8,3 Z"
     fill="#fafafa" />
  <path
     d="m17.503907 13c.127809 0 .255581.04855.353516.146484.195868.195869.195868.513116 0 .708985l-3.148438 3.148437h6.792969c.277 0 .5.223.5.5s-.223.5-.5.5h-6.792969l3.148438 3.148438c.195868.195868.195868.513115 0 .708984-.09794.09793-.225707.146484-.353516.146484-.127808 0-.257539-.04855-.355469-.146484l-4-4.003906c-.04702-.04701-.08407-.103236-.1-.166016-.02334-.0579-.03711-.12105-.03711-.1875s.01377-.129596.03711-.1875c.0253-.06278.06236-.12.1-.166016l4.000001-4.003906c.097929-.09793.22766-.146484.355468-.146484z"
     fill="#1e8bcd" />
</svg>
