<svg viewBox="0 0 24 24" fill="none" xmlns="http://www.w3.org/2000/svg">
<path d="M5 16V3H19V16H5Z" fill="#3A3A38"/>
<path fill-rule="evenodd" clip-rule="evenodd" d="M6.4922 17.0003C6.36215 17.0044 6.23883 17.059 6.14845 17.1526L4.22465 19.0608C4.05136 19.2215 4.00164 19.3273 4.00004 19.4964C4.00164 19.6655 4.05136 19.7713 4.22465 19.9319L6.14845 21.8401C6.23883 21.9337 6.36215 21.9884 6.4922 21.9925C6.94652 22.004 7.17905 21.4522 6.85353 21.1351L5.69733 19.9945H8.51573C8.51943 19.9944 8.5218 19.9966 8.5255 19.9965H15.4747C15.4784 19.9966 15.4808 19.9944 15.4845 19.9945H18.3029L17.1467 21.1351C16.8212 21.4522 17.0537 22.004 17.508 21.9925C17.6381 21.9884 17.7614 21.9337 17.8518 21.8401L19.7756 19.9319C19.9488 19.7713 19.9986 19.6655 20.0002 19.4964C19.9986 19.3273 19.9488 19.2215 19.7755 19.0608L17.8517 17.1526C17.7614 17.059 17.638 17.0044 17.508 17.0003C17.0537 16.9888 16.8211 17.5406 17.1467 17.8577L18.3029 18.9983H15.4845C15.4808 18.9984 15.4784 18.9962 15.4747 18.9963H8.52547C8.52177 18.9961 8.5194 18.9984 8.5157 18.9983H5.6973L6.8535 17.8577C7.17902 17.5406 6.94652 16.9888 6.4922 17.0003Z" fill="#1E8BCD"/>
<path d="M4 16V3C4 2.446 4.446 2 5 2H19C19.554 2 20 2.446 20 3V16M19 16V3H5V16" fill="#FAFAFA"/>
</svg>
