<svg viewBox="0 0 24 24" fill="none" xmlns="http://www.w3.org/2000/svg">
<path fill-rule="evenodd" clip-rule="evenodd" d="M6.00424 1H12L8 5H10L1 12L4 6H2L6.00424 1Z" fill="#ED8733"/>
<path fill-rule="evenodd" clip-rule="evenodd" d="M6.48438 2L4.07812 5.00391C4.24135 5.01677 4.39892 5.06951 4.537 5.1575C4.67508 5.24548 4.78945 5.36602 4.87006 5.50854C4.95067 5.65105 4.99505 5.81118 4.99932 5.97485C5.00359 6.13853 4.96761 6.30075 4.89453 6.44727L3.86523 8.50586L7.37305 5.77734C7.26398 5.68931 7.17463 5.57933 7.1108 5.45455C7.04697 5.32976 7.01008 5.19295 7.00253 5.05298C6.99498 4.91302 7.01694 4.77304 7.06697 4.64211C7.11701 4.51118 7.194 4.39223 7.29297 4.29297L9.58594 2H6.48438Z" fill="#F8DB8F"/>
<path d="M18.1348 2C18.0042 2.00156 17.8794 2.05414 17.7871 2.14649L2.14649 17.7871C1.95 17.9826 1.95 18.3006 2.14649 18.4961L5.50391 21.8535C5.69939 22.05 6.01741 22.05 6.21289 21.8535L21.8535 6.21289C22.05 6.01741 22.05 5.69939 21.8535 5.50391L18.4961 2.14649C18.4004 2.05078 18.2701 1.99793 18.1348 2Z" fill="#FAFAFA"/>
<path d="M18.1416 3.18314L12.6667 8.65806L15.324 11.3693L20.7989 5.87637L18.1416 3.18314Z" fill="#3A3A38"/>
</svg>
