<svg viewBox="0 0 24 24" xmlns="http://www.w3.org/2000/svg">
  <path
     fill="#fafafa"
     d="M 5 2 C 4.446 2 4 2.446 4 3 L 4 21 C 4 21.554 4.446 22 5 22 L 19 22 C 19.554 22 20 21.554 20 21 L 20 7.0410156 C 20 6.5903356 20.098041 6.6136562 19.394531 5.9726562 L 16.087891 2.7363281 C 15.378371 1.9994681 15.375767 2 14.992188 2 L 14 2 L 5 2 z M 5 3 L 14 3 L 14 7 C 14 7.554 14.446 8 15 8 L 19 8 L 19 21 L 5 21 L 5 3 z M 15 3 L 19 7 L 15 7 L 15 3 z " />
  <path
     d="m10.5 11c-.125183-.0077-.258789.03681-.376953.154297l-1.8867189 1.902344c-.141888.136779-.2363649.258099-.234375.439453-.0000175.0016.00196.0023.00195.0039.0000101.0016-.00197.0023-.00195.0039-.00199.181354.092487.302674.234375.439453l1.8867189 1.902344c.118164.117499.25177.162009.376953.154309.375549-.02317.682617-.510818.328125-.863281l-1.1113281-1.128907h.7597651c.01382.000713.02548-.0055.03906-.0059h2.484378a1.99888 1.99888 0 0 1 1.998047 2 1.99888 1.99888 0 0 1 -1.998047 1.998088c-.276845 0-.5.223155-.5.5s.223155.5.5.5a2.99832 2.99832 0 0 0 2.998047-2.998047 2.99832 2.99832 0 0 0 -2.998047-3h-2.460938c-.02149-.0017-.04037-.01091-.0625-.0098h-.7597651l1.1113281-1.128872c.354492-.352463.047424-.84011-.328125-.863281z"
     fill="#1e8bcd"
     id="path8" />
</svg>
