<svg viewBox="0 0 24 24" xmlns="http://www.w3.org/2000/svg">
  <path
     d="m5 2c-.554 0-1 .446-1 1v18c0 .554.446 1 1 1h4.1113281c.0054586-.01532.0037391-.031662.0097657-.046875v-.001953l.3632812-.951172h-4.484375v-18h14v6.0917969c.153283-.0547246.313796-.089202.476562-.0917969.178352-.0027316.355459.0318941.523438.0917969v-6.0917969c0-.554-.446-1-1-1zm15 16.105469-1 1.001953v1.892578h-1.888672l-.554687.556641c-.106095.106216-.185892.162149-.240235.193359-.115971.098524-.2456.187309-.396484.248047a1.0001305 1.0001305 0 0 1 -.003906.001953h3.083984c.554 0 1-.446 1-1z"
     style="fill:#fafafa" />
  <path
     style="fill:#fafafa"
     d="M 6 7 L 6 11 L 10 11 L 10 7 L 6 7 z M 11 7 L 11 8 L 17 8 L 17 7 L 11 7 z M 7 8 L 9 8 L 9 10 L 7 10 L 7 8 z M 11 9 L 11 10 L 15 10 L 15 9 L 11 9 z M 6 13 L 6 17 L 10 17 L 10 13 L 6 13 z M 11 13 L 11 14 L 13.880859 14 L 14.878906 13 L 11 13 z M 7 14 L 9 14 L 9 16 L 7 16 L 7 14 z M 11 15 L 11 16 L 11.884766 16 L 12.882812 15 L 11 15 z " />
  <path
     d="m 19.492188,10 a 0.5,0.5 0 0 0 -0.345704,0.146484 l -2,2 a 0.5,0.5 0 0 0 0,0.707032 l 3,3 a 0.5,0.5 0 0 0 0.707032,0 l 2,-2 a 0.5,0.5 0 0 0 0,-0.707032 l -3,-3 A 0.5,0.5 0 0 0 19.492188,10 Z"
     fill="#0063b1" />
  <path
     d="M 19.5,11 18,12.5 20.5,15 22,13.5 Z"
     style="fill:#83beec" />
  <path
     d="m 17.387227,12.099771 c -0.128383,0.0019 -0.250968,0.05378 -0.341797,0.144532 l -4.895039,4.906088 c -0.193221,0.193027 -0.193221,0.506191 0,0.699218 l 3,3 c 0.193027,0.193221 0.506191,0.193221 0.699218,0 l 4.895039,-4.906088 c 0.193221,-0.193026 0.193221,-0.506191 0,-0.699218 l -3,-3 c -0.09466,-0.09458 -0.223626,-0.146733 -0.357421,-0.144532 z"
     fill="#0063b1" />
  <path
     d="M 17.395039,13.027506 12.933594,17.5 15.5,20.066406 19.961445,15.593912 Z"
     fill="#83beec" />
  <path
     d="m 12.359605,17.137159 c -0.195084,0.0034 -0.369096,0.123468 -0.441407,0.304687 l -1.867417,4.878466 c -0.1570528,0.39476 0.234147,0.78596 0.628907,0.628907 l 4.867417,-1.878466 c 0.321733,-0.129523 0.406958,-0.545379 0.162109,-0.791016 l -3,-3 c -0.09244,-0.09287 -0.21858,-0.144316 -0.349609,-0.142578 z"
     fill="#0063b1" />
  <path
     d="M 12.451401,18.025831 10.908203,22.091797 14.96312,20.53755 Z"
     fill="#83beec" />
</svg>
