<svg fill="none" viewBox="0 0 24 24" xmlns="http://www.w3.org/2000/svg"><path d="m15.757 13.635c-0.2758 0.4175-0.594 0.8098-0.9531 1.1689-0.3588 0.3588-0.7509 0.6765-1.168 0.9522l6.8037 6.8046c0.5858 0.5858 1.5353 0.5858 2.1211 0 0.5858-0.5857 0.5858-1.5353 0-2.121l-6.8037-6.8047z" fill="#FAFAFA"/><path d="m2.5 9.5c0 0.9193 0.18106 1.8295 0.53284 2.6788 0.35179 0.8493 0.8674 1.6209 1.5174 2.2709 0.65001 0.6501 1.4217 1.1657 2.271 1.5175 0.84928 0.3517 1.7595 0.5328 2.6788 0.5328 1.8565 0 3.637-0.7375 4.9497-2.0503 1.3128-1.3127 2.0503-3.0932 2.0503-4.9497 0-1.8565-0.7375-3.637-2.0503-4.9498-1.3127-1.3128-3.0932-2.0502-4.9497-2.0502-1.8565 0-3.637 0.7375-4.9498 2.0502-1.3128 1.3128-2.0502 3.0932-2.0502 4.9498z" stroke="#FAFAFA" stroke-linecap="round" stroke-linejoin="round"/></svg>
