<svg viewBox="0 0 24 24" xmlns="http://www.w3.org/2000/svg"><path d="m5 2c-.554 0-1 .446-1 1v18c0 .554.446 1 1 1h4.1113281c.0054586-.01532.0037391-.031662.0097657-.046875v-.001953l.3632812-.951172h-4.484375v-18h14v6.0917969c.153283-.0547246.313796-.089202.476562-.0917969.178352-.0027316.355459.0318941.523438.0917969v-6.0917969c0-.554-.446-1-1-1zm15 16.105469-1 1.001953v1.892578h-1.888672l-.554687.556641c-.106095.106216-.185892.162149-.240235.193359-.115971.098524-.2456.187309-.396484.248047a1.0001305 1.0001305 0 0 1 -.003906.001953h3.083984c.554 0 1-.446 1-1z" fill="#fafafa"/><g fill="#c8c6c4"><path d="m11 7v1h6v-1zm0 2v1h4v-1z"/><path d="m6 7v4h4v-4zm1 1h2v2h-2z"/><path d="m11 13v1h2.880859l.998047-1zm0 2v1h.884766l.998046-1z"/><path d="m6 13v4h4v-4zm1 1h2v2h-2z"/><g fill="#0063b1" stroke-linecap="round" stroke-linejoin="round"><path d="m19.492188 10a.50005.50005 0 0 0 -.345704.146484l-2 2a.50005.50005 0 0 0 0 .707032l3 3a.50005.50005 0 0 0 .707032 0l2-2a.50005.50005 0 0 0 0-.707032l-3-3a.50005.50005 0 0 0 -.361328-.146484z" fill="#83beec"/><path d="m19.5 11-1.5 1.5 2.5 2.5 1.5-1.5z"/><path d="m17.387227 12.099771c-.128383.0019-.250968.05378-.341797.144532l-4.895039 4.906088c-.193221.193027-.193221.506191 0 .699218l3 3c.193027.193221.506191.193221.699218 0l4.895039-4.906088c.193221-.193026.193221-.506191 0-.699218l-3-3c-.09466-.09458-.223626-.146733-.357421-.144532z" fill="#83beec"/><path d="m17.395039 13.027506-4.461445 4.472494 2.566406 2.566406 4.461445-4.472494z" fill="#0063b1"/><path d="m12.359605 17.137159c-.195084.0034-.369096.123468-.441407.304687l-1.867417 4.878466c-.1570528.39476.234147.78596.628907.628907l4.867417-1.878466c.321733-.129523.406958-.545379.162109-.791016l-3-3c-.09244-.09287-.21858-.144316-.349609-.142578z" fill="#83beec"/><path d="m12.451401 18.025831-1.543198 4.065966 4.054917-1.554247z" fill="#0063b1"/></g></g></svg>