<svg viewBox="0 0 16 16" xmlns="http://www.w3.org/2000/svg"><path d="M 1.5 0 C 1.2 0 1 0.2 1 0.5 L 1 15.5 C 1 15.8 1.2 16 1.5 16 L 13.5 16 C 13.8 16 14 15.8 14 15.5 L 14 0.5 C 14 0.2 13.8 0 13.5 0 L 1.5 0 z M 2 1 L 13 1 L 13 15 L 2 15 L 2 1 z M 3.5 2 A 0.5 0.5 0 0 0 3 2.5 A 0.5 0.5 0 0 0 3.5 3 A 0.5 0.5 0 0 0 4 2.5 A 0.5 0.5 0 0 0 3.5 2 z M 11.5 2 A 0.5 0.5 0 0 0 11 2.5 A 0.5 0.5 0 0 0 11.5 3 A 0.5 0.5 0 0 0 12 2.5 A 0.5 0.5 0 0 0 11.5 2 z M 7.5 3 A 4.5 4.5 0 0 0 3 7.5 A 4.5 4.5 0 0 0 3.9 10.150391 L 4.6 9.5 C 4.2 8.9 4 8.2 4 7.5 C 4 5.57 5.57 4 7.5 4 C 9.43 4 11 5.57 11 7.5 C 11 9.4300001 9.43 11 7.5 11 C 7.1 11 6.7 10.90078 6.4 10.8 L 6 11.740234 A 4.5 4.5 0 0 0 7.5 12 A 4.5 4.5 0 0 0 12 7.5 A 4.5 4.5 0 0 0 7.5 3 z M 7.5 6 A 1.5 1.5 0 0 0 6 7.5 A 1.5 1.5 0 0 0 6.1 8.1 L 6.7 7.6 A 0.5 0.5 0 0 1 7 7.5 A 0.5 0.5 0 0 1 7.5 7 A 0.5 0.5 0 0 1 8 7.5 A 0.5 0.5 0 0 1 7.5 8 A 0.5 0.5 0 0 1 7.5 8.2 L 7.1503906 8.9570312 A 1.5 1.5 0 0 0 7.5 9 A 1.5 1.5 0 0 0 9 7.5 A 1.5 1.5 0 0 0 7.5 6 z M 6.9140625 8.3164062 L 4.0859375 10.6 A 1 1 0 0 0 3.7128906 10.916016 A 1 1 0 0 0 3.9140625 12.316406 A 1 1 0 0 0 5.3144531 12.117188 A 1 1 0 0 0 5.5 11.671875 L 6.9140625 8.3164062 z M 3.5 13 A 0.5 0.5 0 0 0 3 13.5 A 0.5 0.5 0 0 0 3.5 14 A 0.5 0.5 0 0 0 4 13.5 A 0.5 0.5 0 0 0 3.5 13 z M 11.5 13 A 0.5 0.5 0 0 0 11 13.5 A 0.5 0.5 0 0 0 11.5 14 A 0.5 0.5 0 0 0 12 13.5 A 0.5 0.5 0 0 0 11.5 13 z " fill="#fafafa"/></svg>
