<svg viewBox="0 0 24 24" xmlns="http://www.w3.org/2000/svg">
  <path
     fill="#fafafa"
     d="M 5 3 L 5 4 L 12.402344 4 L 20 4 L 20 3 L 11.814453 3 L 5 3 z M 3 5 L 3 11.095703 L 3 19 L 4 19 L 4 11.837891 L 4 5 L 3 5 z M 21 5 L 21 11.919922 C 21.360079 12.125401 21.691729 12.369375 22 12.640625 L 22 5 L 21 5 z M 5 20 L 5 21 L 13.185547 21 L 13.541016 21 C 13.264945 20.69269 13.019377 20.359098 12.810547 20 L 12.597656 20 L 5 20 z " />
  <g
     fill="#0063b1"
     id="g10">
    <path
       d="m3 18c-.554 0-1 .446-1 1v2c0 .554.446 1 1 1h2c.554 0 1-.446 1-1v-2c0-.554-.446-1-1-1zm0 1h2v2h-2z"
       id="path4" />
    <path
       d="m3 2c-.554 0-1 .446-1 1v2c0 .554.446 1 1 1h2c.554 0 1-.446 1-1v-2c0-.554-.446-1-1-1zm0 1h2v2h-2z"
       id="path6" />
    <path
       d="m20 2c-.554 0-1 .446-1 1v2c0 .554.446 1 1 1h2c.554 0 1-.446 1-1v-2c0-.554-.446-1-1-1zm0 1h2v2h-2z"
       id="path8" />
  </g>
  <path
     d="m17.507812 10.003906c-.127809 0-.255581.04855-.353515.146485l-2.005859 2.474609c-.090425.111598-.137504.24518-.136719.375h.02539c.004231.122984.047376.248068.132813.353516l2.005859 2.474609c.097934.097935.225707.146484.353516.146484.12781 0 .255575-.048544.353515-.146484.195869-.195869.17018-.488472 0-.707031l-1.478515-1.896485c.489505-.206092 1.014795-.317613 1.548828-.320312 2.235567.000539 4.047414 1.813261 4.046875 4.048828-.000539 2.234804-1.812071 4.046336-4.046875 4.046875-2.235567.000539-4.048289-1.811308-4.048828-4.046875-.03615-.214054.031257-.221943.060547-.488281.000412-.256898-.207946-.46526-.464844-.464844-.256899-.000416-.46526.207945-.464844.464844.000299.01764.001607.035244.003906.052734-.0013-.0039-.002706-.007799-.003906-.011719-.01.126059-.034736.367687-.035156.494141 0 2.761424 2.238576 5 5 5s5-2.238576 5-5-2.238576-5-5-5c-.384884.001442-.76624.051931-1.138672.140625l1-1.283203c.17018-.218559.195869-.511162 0-.707031-.097934-.097935-.225705-.146485-.353516-.146485z"
     fill="#0063b1"
     id="path12" />
</svg>
