<svg viewBox="0 0 24 24" xmlns="http://www.w3.org/2000/svg"><path d="m12 5c-.554 0-1 .446-1 1v7.048828c.896827-1.424069 2.330756-2.465782 4-2.865234v-4.183594c0-.554-.446-1-1-1z" fill="#83beec"/><g fill="#fafafa" transform="matrix(0 -1 -1 0 0 0)"><rect height="1" ry=".5" width="20" x="-22" y="-5"/><path d="m2.5 19c-.277 0-.5.223-.5.5s.223.5.5.5h7.5v-1z" transform="matrix(0 -1 -1 0 0 0)"/></g><path d="m12 6v5.828125c.576826-.555574 1.25336-1.006611 2-1.320313v-4.507812z" fill="#0063b1"/><rect fill="#fafafa" height="11" ry="1" width="4" x="6" y="8"/><path d="m7 9h2v9h-2z" fill="#797774"/><path d="m16.5 11c-2.842075.0024-5.214286 2.169693-5.472656 5h1.003906c.2545-2.276321 2.178247-3.998276 4.46875-4 1.903272.0043 3.598001 1.205572 4.232422 3h-2.232422c-.277 0-.5.223-.5.5s.223.5.5.5h3c.06925 0 .135453-.01383.195312-.03906.179579-.075706.304688-.25319.304688-.46094v-3c0-.277-.223-.5-.5-.5s-.5.223-.5.5v.849609c-1.027231-1.470011-2.706643-2.346892-4.5-2.349609zm-5 6c-.277 0-.5.223-.5.5v3c0 .277.223.5.5.5s.5-.223.5-.5v-.867188c.99762 1.431399 2.64246 2.366305 4.5 2.367188 2.842075-.0024 5.214286-2.169693 5.472656-5h-1.003906c-.2545 2.276321-2.178247 3.998276-4.46875 4-1.937261-.0023-3.59894-1.24237-4.222656-3h2.222656c.277 0 .5-.223.5-.5s-.223-.5-.5-.5z" fill="#18ab50"/></svg>