<svg viewBox="0 0 24 24" xmlns="http://www.w3.org/2000/svg"><path d="m5 2c-.554 0-1 .446-1 1v18c0 .554.446 1 1 1h4.6835938l-.3945313-.394531a1.0019135 1.0019135 0 0 1 -.2871094-.605469h-4.0019531v-18h9v4c0 .554.446 1 1 1h4v2.480469l1-1.0000002v-2.2304688-.2089844c0-.4506799.098038-.4254121-.605469-1.0664062l-3.30664-3.2382813c-.709525-.7368575-.710169-.7363281-1.09375-.7363281h-.332032-.662109zm10 1 4 4h-4zm5 13.515625-1 1v3.484375h-3.482422l-1 1h4.482422c.554 0 1-.446 1-1z" fill="#fafafa"/><path d="m10.4375 9.2539062c-.288253.09362-.5673984.2132479-.8339844.3574219-.335712.185464-.6489797.4089389-.9335937.6660159l.7578125 2.236328-2.3164063.464844c-.072088.335769-.1094281.67807-.1113281 1.021484.000647.343279.0366399.685584.1074219 1.021484l2.3203125.464844-.7558594 2.236328c.513244.458667 1.1156643.80642 1.769531 1.021485l1.558594-1.773438.238281.269531.708985-.707031-.195313-.222656a1.0001 1.0001 0 0 0 -1.503906 0l-1.091797 1.244141-.3125-.179688.53125-1.568359a1.0001 1.0001 0 0 0 -.75-1.300782l-1.625-.326171v-.359376l1.625-.326171a1.0001 1.0001 0 0 0 .75-1.300782l-.53125-1.568359.3125-.179688 1.091797 1.244141a1.0001 1.0001 0 0 0 .865234.333985 1.0001 1.0001 0 0 0 .638672-.333985l1.091797-1.244141.3125.179688-.53125 1.568359a1.0001 1.0001 0 0 0 .75 1.300782l1.341797.269531.849609-.84961-1.99414-.40039.755859-2.236328c-.513244-.4586673-1.115664-.8064196-1.769531-1.0214846l-1.558594 1.7734376-.46875-.533203zm1.5625 3.7460938a1 1 0 0 0 -1 1 1 1 0 0 0 1 1 1 1 0 0 0 1-1 1 1 0 0 0 -1-1zm3.123047 1.355469-.748047.15039a1.0001 1.0001 0 0 0 -.75 1.300782l.011719.035156z" fill="#1e8bcd"/><path d="m21.898438 9.0019531-11.898438 11.8984379 2.099609 2.099609 11.898438-11.898438zm-.001954 1.4023439.697266.697265-3.498047 3.498047-.697265-.697265zm-4.199218 4.189453a.988058.988058 0 0 0 .003906.005859l.697266.697266a.988058.988058 0 0 0 .005859.005859l-6.304688 6.302735-.707031-.707031z" fill="#fafafa" stroke-width="3.741142" transform="matrix(.9999999802 0 0 .9999999802 -.00000318401 .00000362637)"/></svg>