<svg viewBox="0 0 24 24" xmlns="http://www.w3.org/2000/svg">
  <path
     fill="#fafafa"
     d="M 3 2 A 1.0001 1.0001 0 0 0 2 3 L 2 19 A 1.0001 1.0001 0 0 0 2.2929688 19.707031 L 4.2929688 21.707031 A 1.0001 1.0001 0 0 0 5 22 L 7.4589844 22 L 7.7050781 21 L 7 21 L 7 15 L 12.675781 15 L 13.679688 14 L 6 14 L 6 21 L 5 21 L 3 19 L 3 3 L 5 3 L 5 10 L 17.6875 10 L 18.513672 9.1757812 L 19 8.6914062 L 19 3 L 21 3 L 21 7.0507812 C 21.138447 7.0158917 21.279672 6.9960938 21.419922 6.9960938 C 21.615157 6.9960936 21.811423 7.0348143 22 7.1015625 L 22 3 A 1.0001 1.0001 0 0 0 21 2 L 3 2 z M 6 3 L 18 3 L 18 9 L 6 9 L 6 3 z M 22 14.191406 L 21 15.193359 L 21 21 L 18 21 L 18 18.201172 L 17 19.203125 L 17 21 L 15.208984 21 L 14.210938 22 L 21 22 A 1.0001 1.0001 0 0 0 22 21 L 22 14.191406 z M 9 16 L 9 18.664062 L 9.7109375 17.958984 L 11 16.671875 L 11 16 L 9 16 z " />
  <path
     d="M 21.419922,8 C 21.23036,8 21.041738,8.07172 20.896484,8.216797 l -1.673828,1.669922 2.847656,2.849609 1.710938,-1.638672 c 0.290506,-0.290127 0.290506,-0.756747 0,-1.046875 L 21.945312,8.216797 C 21.800058,8.071733 21.609484,8 21.419922,8 Z m 0,0.990234 1.582031,1.580078 -0.917969,0.88086 -1.5625,-1.5625 z"
     fill="#0063b1"
     id="path8"
     style="fill:#83beec;fill-opacity:1" />
  <path
     d="m 21.419922,8.990234 -0.898438,0.898438 1.5625,1.5625 0.917969,-0.88086 z"
     fill="#83beec"
     id="path10"
     style="fill:#0063b1;fill-opacity:1" />
  <path
     d="m 9.708984,19.376953 -0.002,-0.002 L 9,20.082031 l 0.002,0.002 -0.05078,0.05078 L 8,24 11.806641,22.988281 22.050781,12.716797 19.222656,9.886719 Z m 9.511719,-8.191406 1.53125,1.533203 -8.841797,8.861328 -1.550781,-1.552734 z m -9.509765,9.708984 1.34375,1.341797 -1.791016,0.476563 z"
     fill="#0063b1"
     id="path12"
     style="fill:#83beec;fill-opacity:1" />
  <path
     d="m 19.220703,11.185547 1.53125,1.533203 -8.841797,8.861328 -1.550781,-1.552734 z m -9.509765,9.708984 1.34375,1.341797 -1.791016,0.476563 z"
     fill="#83beec"
     id="path14"
     style="fill:#0063b1;fill-opacity:1" />
</svg>
