<svg viewBox="0 0 24 24" xmlns="http://www.w3.org/2000/svg">
  <path
     fill="#fafafa"
     d="M 0 0 L 0 13 L 16 13 L 16 0 L 0 0 z M 8.9824219 0.99414062 L 10.347656 0.99414062 L 10.347656 5.5175781 C 10.658088 5.1502348 11.01177 4.8605653 11.410156 4.6484375 C 11.808543 4.4311359 12.267772 4.3222656 12.785156 4.3222656 C 13.224934 4.3222656 13.620835 4.407388 13.972656 4.578125 C 14.324478 4.748862 14.624702 4.9956277 14.873047 5.3164062 C 15.121392 5.6371849 15.310106 6.0278087 15.439453 6.4882812 C 15.573973 6.94358 15.640625 7.4615446 15.640625 8.0410156 C 15.640625 8.6567037 15.566058 9.2149335 15.416016 9.7167969 C 15.265974 10.21866 15.050872 10.649549 14.771484 11.011719 C 14.492096 11.368714 14.152292 11.647144 13.753906 11.84375 C 13.35552 12.040357 12.908799 12.138672 12.412109 12.138672 C 11.91542 12.138672 11.49841 12.045634 11.162109 11.859375 C 10.830983 11.667942 10.536036 11.402706 10.277344 11.066406 L 10.201172 11.742188 C 10.180479 11.933619 10.06897 12.029297 9.8671875 12.029297 L 8.9824219 12.029297 L 8.9824219 0.99414062 z M 4.2480469 4.3066406 C 4.6723025 4.3066406 5.049733 4.3778842 5.3808594 4.5175781 C 5.7119857 4.6520982 5.988462 4.8460908 6.2109375 5.0996094 C 6.433413 5.353128 6.6010191 5.6559908 6.7148438 6.0078125 C 6.8338423 6.3596342 6.8945312 6.750258 6.8945312 7.1796875 L 6.8945312 12.029297 L 6.2890625 12.029297 C 6.1545424 12.029297 6.0509496 12.00819 5.9785156 11.966797 C 5.9060818 11.925404 5.8559473 11.840281 5.8300781 11.710938 L 5.6601562 11.005859 C 5.46355 11.186944 5.2695574 11.349273 5.078125 11.494141 C 4.8918665 11.633835 4.6952352 11.75326 4.4882812 11.851562 C 4.2813273 11.949866 4.0583096 12.021795 3.8203125 12.068359 C 3.5823155 12.120099 3.3216711 12.146484 3.0371094 12.146484 C 2.7422 12.146484 2.4657237 12.106905 2.2070312 12.029297 C 1.9535127 11.946517 1.7278563 11.821813 1.53125 11.65625 C 1.3398176 11.485513 1.1880435 11.275688 1.0742188 11.027344 C 0.96556791 10.773825 0.91015625 10.47624 0.91015625 10.134766 C 0.91015625 9.8346822 0.99000133 9.5476515 1.1503906 9.2734375 C 1.3159538 8.9940496 1.5838286 8.7465985 1.9511719 8.5292969 C 2.3185152 8.3119953 2.7968999 8.1364733 3.3867188 8.0019531 C 3.9765376 7.8622593 4.6997348 7.7824142 5.5585938 7.7617188 L 5.5585938 7.1796875 C 5.5585938 6.5898687 5.4332061 6.1464719 5.1796875 5.8515625 C 4.9313428 5.5514793 4.5651524 5.4023438 4.0839844 5.4023438 C 3.7632058 5.4023437 3.4920069 5.4426091 3.2695312 5.5253906 C 3.0522296 5.6081722 2.8635143 5.6985719 2.703125 5.796875 C 2.5427357 5.8951781 2.4041549 5.9855778 2.2851562 6.0683594 C 2.1713316 6.1511409 2.0545454 6.1933594 1.9355469 6.1933594 C 1.8424176 6.1933594 1.7625726 6.1696115 1.6953125 6.1230469 C 1.6280525 6.0764822 1.5726408 6.0177464 1.53125 5.9453125 L 1.2832031 5.5097656 C 1.7022849 5.1062054 2.1516446 4.8059813 2.6328125 4.609375 C 3.1191543 4.4075949 3.6582281 4.3066406 4.2480469 4.3066406 z M 12.326172 5.4023438 C 11.907091 5.4023437 11.537576 5.5006594 11.216797 5.6972656 C 10.901192 5.8938719 10.611523 6.1729869 10.347656 6.5351562 L 10.347656 10.197266 C 10.585654 10.523218 10.846298 10.754152 11.130859 10.888672 C 11.415421 11.018019 11.728839 11.082031 12.070312 11.082031 C 12.768783 11.082031 13.305217 10.831941 13.677734 10.330078 C 14.050252 9.8282147 14.236328 9.0793165 14.236328 8.0859375 C 14.236328 7.1649924 14.069408 6.4873377 13.738281 6.0527344 C 13.407155 5.6181311 12.936687 5.4023438 12.326172 5.4023438 z M 5.5585938 8.6152344 C 4.9532534 8.6411036 4.4398806 8.6919236 4.015625 8.7695312 C 3.5913694 8.8419651 3.2436496 8.9402807 2.9746094 9.0644531 C 2.7107431 9.1886255 2.5193892 9.3370755 2.4003906 9.5078125 C 2.2813921 9.6733756 2.2226564 9.8594527 2.2226562 10.066406 C 2.2226562 10.263013 2.2523671 10.433258 2.3144531 10.578125 C 2.3817131 10.717819 2.4714273 10.834605 2.5800781 10.927734 C 2.6887289 11.01569 2.8167552 11.082342 2.9667969 11.128906 C 3.1168385 11.1703 3.2784816 11.191406 3.4492188 11.191406 C 3.676868 11.191406 3.8847394 11.16766 4.0761719 11.121094 C 4.2676043 11.074527 4.4503567 11.010514 4.6210938 10.927734 C 4.7918307 10.839779 4.9515208 10.733547 5.1015625 10.609375 C 5.256778 10.480028 5.408552 10.336856 5.5585938 10.181641 L 5.5585938 8.6152344 z " />
  <path
     d="m10 18-.9999999 1 3.9999999 4 10-10-1-1-9 9z"
     fill="#18ab50"
     id="path4" />
  <path
     d="m 22.182973,5.8052148 q -0.06209,0.085369 -0.124173,0.1319331 -0.05433,0.038804 -0.162976,0.038804 -0.116412,0 -0.240584,-0.093129 -0.124172,-0.093129 -0.310431,-0.2017801 -0.186258,-0.1164116 -0.457886,-0.2095409 -0.263866,-0.093129 -0.651904,-0.093129 -0.512212,0 -0.908011,0.2017801 -0.388039,0.1940194 -0.651905,0.5665365 -0.256105,0.3647564 -0.395799,0.8924889 -0.131934,0.5277326 -0.131934,1.1873984 0,0.682948 0.139694,1.2184414 0.147455,0.5277326 0.411321,0.8924888 0.263867,0.364757 0.636384,0.558776 0.372517,0.186259 0.838163,0.186259 0.450125,0 0.737274,-0.116412 0.287148,-0.116412 0.481168,-0.256105 0.194019,-0.139694 0.318191,-0.256106 0.131934,-0.116412 0.271628,-0.116412 0.155215,0 0.248344,0.131934 l 0.3958,0.496689 q -0.248345,0.30267 -0.551015,0.527733 -0.30267,0.217301 -0.651905,0.364756 -0.349235,0.139694 -0.729513,0.209541 -0.372517,0.06985 -0.760556,0.06985 -0.667426,0 -1.249484,-0.263866 -0.582058,-0.263867 -1.016661,-0.760556 -0.426843,-0.50445 -0.675188,-1.2262027 -0.240584,-0.7295127 -0.240584,-1.6608055 0,-0.8459243 0.225063,-1.5599155 0.225062,-0.7217519 0.651905,-1.2417237 0.434603,-0.5199718 1.063226,-0.8071205 0.636383,-0.2949093 1.459025,-0.2949093 0.776077,0 1.358135,0.2638662 0.582058,0.2561056 1.032183,0.721752 z"
     fill="#fafafa" />
  <g
     fill="#ed3d3b"
     id="g18">
    <path
       d="m6.3320312 13-.3984374.435547-1.9277344 1.927734-1.9277344-1.927734-.8007812.800781 2.328125 2.328125.4003906.435547.4003906-.435547 1.9257812-1.927734 2.1679688 2.363281 2.488281-2.363281 1.925781 1.927734.400391.435547.400391-.435547 1.927734-1.927734.597656.599609.75586-.845703-.955078-.955078-.398438-.435547-.40039.435547-1.927735 1.927734-1.927734-1.927734-.398438-.435547-.40039.435547-1.9277348 1.927734-1.9277343-1.927734z"
       id="path16" />
  </g>
</svg>
