<?xml version="1.0" encoding="UTF-8" standalone="no"?>
<svg
   height="24"
   viewBox="0 0 6.3499999 6.3500002" >
  <path
     fill="#fafafa"
     d="M 3 2 C 2.446 2 2 2.4459969 2 3 L 2 21 C 2 21.554003 2.446 22 3 22 L 21 22 C 21.554 22 22 21.554003 22 21 L 22 3 C 22 2.4459969 21.554 2 21 2 L 3 2 z M 3 3 L 21 3 L 21 21 L 3 21 L 3 3 z "
     transform="scale(0.26458334)" />
  <g
     stroke-width="1.13389"
     id="g12"
     transform="matrix(0.26458333,0,0,0.26458333,0,2e-5)"
     style="fill:#c8c6c4">
    <path
       d="m 3,10 h 18 v 1 H 3 Z"
       id="path6" />
    <path
       d="m 3,14 h 18 v 1 H 3 Z"
       id="path8" />
    <path
       d="m 3,18 h 18 v 1 H 3 Z"
       id="path10" />
  </g>
  <path
     d="M 1.8520833,0.79376999 V 5.5562699 H 1.5875 V 0.79376999 Z"
     id="path14"
     style="fill:#c8c6c4;stroke-width:0.264583" />
  <path
     d="M 2.9104166,0.79376999 V 5.5562699 H 2.6458333 V 0.79376999 Z"
     id="path16"
     style="fill:#c8c6c4;stroke-width:0.264583" />
  <path
     d="M 3.96875,0.79376999 V 5.5562699 H 3.7041666 V 0.79376999 Z"
     id="path18"
     style="fill:#c8c6c4;stroke-width:0.264583" />
  <path
     d="M 5.0270833,0.79376999 V 5.5562699 H 4.7624999 V 0.79376999 Z"
     id="path20"
     style="fill:#c8c6c4;stroke-width:0.264583" />
  <path
     d="M 0.79374999,1.58752 H 5.5562499 V 1.8521033 H 0.79374999 Z"
     stroke-width="0.311335"
     id="path22"
     style="fill:#c8c6c4" />
  <path
     d="M 5.405355,0.80824 C 5.342603,0.80924 5.2894982,0.85504 5.2782309,0.91676 5.0267976,2.18778 4.5019677,3.03851 3.8064861,3.64786 3.1110045,4.25721 1.843581,5.02821 0.89314393,5.30202 0.71675686,5.34672 0.79272686,5.61179 0.96600773,5.55627 1.1767338,5.55027 1.2481191,5.53717 1.3742515,5.50047 2.2401341,5.23361 3.4290056,4.475 4.0710694,3.91245 4.7665511,3.3031 5.2913809,2.45238 5.5428142,1.18135 c 0.0023,-0.0126 0.0074,-0.0241 0.01292,-0.0351 L 5.55625,0.96792 C 5.573914,0.88452 5.490606,0.8064 5.405355,0.80824 Z"
     fill="#1e8bcd"
     stroke-width="0.264583"
     id="path26" />
</svg>
