<?xml version="1.0" encoding="UTF-8" standalone="no"?>
<svg
   height="24"
   viewBox="0 0 6.3499999 6.3500002"
   width="24">
  <path
     d="M 1.8520834,0.52916668 V 1.0583334 A 0.2646098,0.2646098 0 0 1 2.1166667,0.79375002 V 0.52916668 Z m 1.3229167,0 V 0.79375002 H 3.4395834 V 0.52916668 Z m 1.3229167,0 V 1.5875 H 4.2333334 v 0.2645834 h 0.1322917 0.1322917 v 0.013436 c 0.093466,0.01372 0.182122,0.040845 0.2645833,0.080615 V 1.8520834 H 5.8208335 V 1.5875 H 4.7625001 V 0.52916668 Z M 1.8520834,1.3229167 V 1.5875 H 1.5875 A 0.2646098,0.2646098 0 0 1 1.8520834,1.8520834 V 2.9104167 3.1750001 H 2.1166667 3.1750001 A 0.2646098,0.2646098 0 0 1 3.4395834,3.4395834 V 3.1750001 H 3.5517212 C 3.5355743,3.1477946 3.5229764,3.1185994 3.5098634,3.0897339 A 0.2646098,0.2646098 0 0 1 3.4395834,2.9104167 V 2.7786418 a 0.2646098,0.2646098 0 0 0 0,-5.167e-4 V 1.8520834 1.5875 H 3.1750001 2.1166667 A 0.2646098,0.2646098 0 0 1 1.8520834,1.3229167 Z M 0.79375002,1.5875 V 1.8520834 H 1.0583334 A 0.2646098,0.2646098 0 0 1 1.3229167,1.5875 Z M 2.1166667,1.8520834 H 3.1750001 V 2.9104167 H 2.1166667 Z M 0.79375002,2.9104167 V 3.1750001 H 1.0583334 V 2.9104167 Z m 4.48654788,0 C 5.2637826,3.0062271 5.22789,3.0942818 5.1800457,3.1750001 H 5.8208335 V 2.9104167 Z M 1.8520834,3.9687501 V 4.2333334 H 0.79375002 V 4.4979168 H 1.8520834 V 5.5562501 H 2.1166667 V 5.0270835 4.4979168 H 3.1750001 V 4.7625001 H 3.4395834 V 4.4979168 A 0.2646098,0.2646098 0 0 1 3.1750001,4.2333334 H 2.1166667 V 3.9687501 Z M 5.5562501,4.2333334 A 0.2646098,0.2646098 0 0 1 5.2916668,4.4979168 H 5.8208335 V 4.2333334 Z"
     fill="#797774" />
  <path
     d="m 0.79375002,0.26458334 c -0.14657917,0 -0.26458334,0.11800335 -0.26458334,0.26458334 V 5.5562501 c 0,0.14658 0.11800417,0.2645834 0.26458334,0.2645834 H 2.1166667 V 5.5562501 H 0.79375002 V 0.52916668 H 5.8208335 V 4.7625001 H 6.0854168 V 0.52916668 c 0,-0.14657999 -0.1180041,-0.26458334 -0.2645833,-0.26458334 z"
     fill="#fafafa" />
  <path
     d="M 3.175,1.8521033 V 2.9104366 H 2.1166666 V 1.8521033 Z"
     style="fill:#83beec" />
  <path
     d="M 1.8520833,1.58752 V 1.8521033 2.9104366 3.17502 h 1.5875 V 2.9104366 1.8521033 1.58752 Z M 2.1166666,1.8521033 H 3.175 V 2.9104366 H 2.1166666 Z"
     style="fill:#1e8bcd" />
  <path
     d="m 2.1166667,1.0583334 v 0.2645833 h 1.5875001 v 1.5875 h 0.2645833 v -1.5875 -0.2645833 H 3.7041668 Z"
     fill="#18ab50" />
  <path
     d="M 3.1750001,3.7041666 V 3.4395833 H 1.5875 v -1.5875 H 1.3229167 v 1.5875 0.2645833 H 1.5875 Z"
     fill="#18ab50" />
  <path
     d="m 4.3656251,2.1166666 c -0.3653134,0 -0.6614584,0.296145 -0.6614584,0.6614583 5.292e-4,0.3139044 0.2216039,0.5842083 0.5291667,0.6469889 V 3.4395833 3.96875 h -0.79375 v 0.2645833 h 0.79375 V 6.0786986 C 3.6582972,6.0395384 3.1286993,5.7522959 2.7822591,5.2916667 H 3.4395834 V 5.0270833 H 2.38125 V 6.0854167 H 2.6458333 V 5.5422975 C 3.0716368,6.0523615 3.7011931,6.3480334 4.3656251,6.35 5.0303102,6.3476452 5.6599096,6.0513897 6.0854167,5.540747 V 6.0854167 H 6.3500001 V 5.0270833 H 5.2916667 V 5.2916667 H 5.9489909 C 5.6027535,5.7526851 5.0731257,6.0403213 4.4979167,6.0797324 V 4.2333333 h 0.79375 V 3.96875 h -0.79375 V 3.4395833 3.4261478 c 0.3079427,-0.062859 0.5291326,-0.3337301 0.5291667,-0.6480229 0,-0.3653133 -0.296145,-0.6614583 -0.6614583,-0.6614583 z m 0,0.2645833 c 0.2191879,0 0.396875,0.177687 0.396875,0.396875 C 4.7625001,2.997313 4.584813,3.175 4.3656251,3.175 4.1464371,3.175 3.96875,2.997313 3.96875,2.7781249 c 0,-0.219188 0.1776871,-0.396875 0.3968751,-0.396875 z"
     fill="#1e8bcd" />
</svg>
