<?xml version="1.0" encoding="UTF-8" standalone="no"?>
<svg
   height="16"
   viewBox="0 0 4.2333333 4.2333336">
  <defs
     id="defs22" />
  <path
     fill="#fafafa"
     style="stroke-width:0.999999"
     d="M 3 0 C 2.446 0 2 0.44599687 2 1 L 2 15 C 2 15.554003 2.446 16 3 16 L 13 16 C 13.554 16 14 15.554003 14 15 L 14 4.5 L 14 3.6367188 L 10.363281 0 L 9.5 0 L 3 0 z M 3 1 L 9 1 L 9 4.5 C 9 4.7770394 9.2229996 5 9.5 5 L 13 5 L 13 15 L 3 15 L 3 1 z M 10 1 L 13 4 L 10 4 L 10 1 z "
     transform="scale(0.26458334)" />
  <path
     d="m 1.0583333,1.85208 h 1.0583334 v 1.5875 H 1.0583333 Z"
     fill="#ed8733"
     stroke-width="0.167337"
     id="path8" />
  <path
     d="M 3.1746809,2.77828 A 0.66129879,0.66129879 0 0 1 2.5133822,3.43958 0.66129879,0.66129879 0 0 1 1.8520834,2.77828 0.66129879,0.66129879 0 0 1 2.5133822,2.11699 0.66129879,0.66129879 0 0 1 3.1746809,2.77828 Z"
     fill="#0063b1"
     stroke-width="0.188942"
     id="path10" />
  <path
     d="M 2.9104167,2.77813 A 0.396875,0.396875 0 0 1 2.5135417,3.175 0.396875,0.396875 0 0 1 2.1166667,2.77813 0.396875,0.396875 0 0 1 2.5135417,2.38125 0.396875,0.396875 0 0 1 2.9104167,2.77813 Z"
     fill="#83beec"
     stroke-width="0.264583"
     id="path12" />
  <path
     d="M 1.3229167,2.11667 H 1.8520834 V 3.175 H 1.3229167 Z"
     fill="#f8db8f"
     stroke-width="0.096612"
     id="path14" />
</svg>
