<svg viewBox="0 0 16 16" xmlns="http://www.w3.org/2000/svg">
  <path
     fill="#fafafa"
     d="M 2 0 C 1.446 0 1 0.446 1 1 L 1 12 C 1 12.554 1.446 13 2 13 L 5 13 L 5 12 L 2 12 L 2 1 L 10 1 L 10 3 L 11 3 L 11 1 C 11 0.446 10.554 0 10 0 L 2 0 z " />
  <path
     d="m6 3c-.554 0-1 .446-1 1v11c0 .554.446 1 1 1h2v-1h-2v-11h8v3h1v-3c0-.554-.446-1-1-1z"
     fill="#fafafa"
     id="path4" />
  <g
     fill="#1e8bcd"
     transform="translate(-8 -7)"
     id="g16">
    <path
       d="m20.5 16c.277 0 .5.223.5.5s-.223.5-.5.5-.5-.223-.5-.5.223-.5.5-.5z"
       stroke-width=".5"
       id="path6" />
    <path
       d="m20 18h1v3h-1z"
       id="path8" />
    <g
       fill="#1e8bcd"
       fill-opacity=".992647"
       id="g14">
      <path
         d="m22 15v1h1v6h-1v1h2v-1-6-1z"
         id="path10" />
      <path
         d="m19 15v1h-1v6h1v1h-2v-1-6-1z"
         id="path12" />
    </g>
  </g>
</svg>
