<svg viewBox="0 0 24 24" xmlns="http://www.w3.org/2000/svg">
  <path
     id="rect908"
     style="fill:#fafafa"
     d="M 3 4 C 2.446 4 2 4.446 2 5 L 2 19 C 2 19.554 2.446 20 3 20 L 21 20 C 21.554 20 22 19.554 22 19 L 22 5 C 22 4.446 21.554 4 21 4 L 3 4 z M 3 5 L 21 5 L 21 19 L 3 19 L 3 5 z " />
  <rect
     style="fill:#fafafa"
     id="rect1327"
     width="14"
     height="2"
     x="5"
     y="7"
     ry="1" />
  <path
     id="rect1610"
     style="fill:#797774;fill-opacity:1"
     d="M 5.5 11 C 5.223 11 5 11.223 5 11.5 L 5 12.5 C 5 12.777 5.223 13 5.5 13 L 6.5 13 C 6.777 13 7 12.777 7 12.5 L 7 11.5 C 7 11.223 6.777 11 6.5 11 L 5.5 11 z M 8.5 11 C 8.223 11 8 11.223 8 11.5 C 8 11.777 8.223 12 8.5 12 L 18.5 12 C 18.777 12 19 11.777 19 11.5 C 19 11.223 18.777 11 18.5 11 L 8.5 11 z M 5.5 15 C 5.223 15 5 15.223 5 15.5 L 5 16.5 C 5 16.777 5.223 17 5.5 17 L 6.5 17 C 6.777 17 7 16.777 7 16.5 L 7 15.5 C 7 15.223 6.777 15 6.5 15 L 5.5 15 z M 8.5 15 C 8.223 15 8 15.223 8 15.5 C 8 15.777 8.223 16 8.5 16 L 17.5 16 C 17.777 16 18 15.777 18 15.5 C 18 15.223 17.777 15 17.5 15 L 8.5 15 z " />
</svg>
