<svg viewBox="0 0 24 24" xmlns="http://www.w3.org/2000/svg"><path d="m12.074219 1.9609375c-5.5763346 0-10.1132815 4.4986686-10.1132815 10.0390625 0 5.540392 4.5369468 10.039062 10.1132815 10.039062 1.129022 0 2.474927.01165 3.568359-.501953a.54109178.54109178 0 0 0 .007813-.003906c1.026999-.502552 1.691204-1.516243 1.771484-2.724609.06527-.982347-.249232-1.835835-.490234-2.609375-.242366-.777893-.437251-1.499296-.400391-2.22461.0073-.144079.032639-.184181.042969-.197265.01032-.01309.03704-.048801.199219-.087891.251762-.06069 1.030094-.01768 2.197265.619141.36224.197652.763196.333902 1.193359.3125.454481-.02267.848767-.224482 1.132813-.517578.511995-.528291.636789-1.203767.703125-1.789063a.54109178.54109178 0 0 0 0-.001953c.117218-1.090092-.05962-2.196916-.222656-3.1289062a.54109178.54109178 0 0 0 -.015625-.0625c-1.247931-4.144362-5.117358-7.1601563-9.6875-7.1601563zm0 1.0507813c4.099087 0 7.545933 2.6961458 8.669922 6.3886718.157858.9065364.30776 1.9113464.21289 2.7968754v.001953c-.05896.518771-.159245.910897-.414062 1.173828-.101212.104439-.275276.191419-.431641.199219-.179238.0089-.381216-.04614-.636719-.185547-1.307409-.713297-2.264315-.881418-2.947265-.716797-.307332.07408-.590723.218029-.779297.457031-.188575.239002-.251985.526611-.265625.794922-.04799.944336.199591 1.79491.447266 2.589844.24895.799049.492482 1.518548.445312 2.228515-.05857.881558-.481145 1.502334-1.183594 1.847657-.762349.356528-2.000857.40039-3.117187.40039-5.0132572 0-9.0625003-4.019812-9.0625002-8.988281-.0000001-4.9684698 4.049243-8.9882813 9.0625002-8.9882812zm-.074219 12.9882812a2 2 0 0 0 -2 2 2 2 0 0 0 2 2 2 2 0 0 0 2-2 2 2 0 0 0 -2-2zm0 1a1 1 0 0 1 1 1 1 1 0 0 1 -1 1 1 1 0 0 1 -1-1 1 1 0 0 1 1-1z" fill="#fafafa"/><path d="m17.5 8a1.5 1.5 0 0 0 -1.5 1.5 1.5 1.5 0 0 0 1.5 1.5 1.5 1.5 0 0 0 1.5-1.5 1.5 1.5 0 0 0 -1.5-1.5zm0 1a.5.5 0 0 1 .5.5.5.5 0 0 1 -.5.5.5.5 0 0 1 -.5-.5.5.5 0 0 1 .5-.5z" fill="#83beec"/><path d="m18 9.5a.5.5 0 0 1 -.5.5.5.5 0 0 1 -.5-.5.5.5 0 0 1 .5-.5.5.5 0 0 1 .5.5z" fill="#0063b1" stroke-linecap="square" stroke-opacity=".566502"/><path d="m13.5 5a1.5 1.5 0 0 0 -1.5 1.5 1.5 1.5 0 0 0 1.5 1.5 1.5 1.5 0 0 0 1.5-1.5 1.5 1.5 0 0 0 -1.5-1.5zm0 1a.5.5 0 0 1 .5.5.5.5 0 0 1 -.5.5.5.5 0 0 1 -.5-.5.5.5 0 0 1 .5-.5z" fill="#18ab50"/><path d="m14 6.5a.5.5 0 0 1 -.5.5.5.5 0 0 1 -.5-.5.5.5 0 0 1 .5-.5.5.5 0 0 1 .5.5z" fill="#309048" stroke-linecap="square" stroke-opacity=".566502"/><path d="m8.5 6a1.5 1.5 0 0 0 -1.5 1.5 1.5 1.5 0 0 0 1.5 1.5 1.5 1.5 0 0 0 1.5-1.5 1.5 1.5 0 0 0 -1.5-1.5zm0 1a.5.5 0 0 1 .5.5.5.5 0 0 1 -.5.5.5.5 0 0 1 -.5-.5.5.5 0 0 1 .5-.5z" fill="#f8db8f"/><path d="m9 7.5a.5.5 0 0 1 -.5.5.5.5 0 0 1 -.5-.5.5.5 0 0 1 .5-.5.5.5 0 0 1 .5.5z" fill="#ed8733" stroke-linecap="square" stroke-opacity=".566502"/><path d="m6.5 11a1.5 1.5 0 0 0 -1.5 1.5 1.5 1.5 0 0 0 1.5 1.5 1.5 1.5 0 0 0 1.5-1.5 1.5 1.5 0 0 0 -1.5-1.5zm0 1a.5.5 0 0 1 .5.5.5.5 0 0 1 -.5.5.5.5 0 0 1 -.5-.5.5.5 0 0 1 .5-.5z" fill="#ed3d3b"/><path d="m7 12.5a.5.5 0 0 1 -.5.5.5.5 0 0 1 -.5-.5.5.5 0 0 1 .5-.5.5.5 0 0 1 .5.5z" fill="#d42314" stroke-linecap="square" stroke-opacity=".566502"/></svg>