<?xml version="1.0" encoding="UTF-8" standalone="no"?>
<svg
   height="24"
   viewBox="0 0 6.3499999 6.3500002"
   width="24">
  <defs
     id="defs27" />
  <linearGradient
     id="a"
     gradientUnits="userSpaceOnUse"
     x1="5.291667"
     x2="1.058333"
     y1="3.704167"
     y2="3.704167">
    <stop
       offset="0"
       stop-color="#18ab50"
       id="stop2" />
    <stop
       offset="1"
       stop-color="#18ab50"
       stop-opacity="0"
       id="stop4" />
  </linearGradient>
  <path
     d="m.79375.52919c-.14657916 0-.26458333.118-.26458333.26458v4.7625c0 .14658.11800417.26458.26458333.26458h4.7625c.1465792 0 .2645834-.118.2645834-.26458v-4.7625c0-.14658-.1180042-.26458-.2645834-.26458zm0 .26458h4.7625v4.7625h-4.7625z"
     fill="#fafafa"
     stroke-width=".264583"
     id="path7" />
  <path
     d="m1.0583329 3.4395835v.2645833h.2645833v-.2645833zm.2645833.2645833v.2645834h.2645833v-.2645834zm.2645833 0h.2645835v-.2645833h-.2645835zm.2645835 0v.2645834h.2645833v-.2645834zm.2645833 0h.2645834v-.2645833h-.2645834zm.2645834 0v.2645834h.2645833v-.2645834zm.2645833 0h.2645833v-.2645833h-.2645833zm.2645833 0v.2645834h.2645834v-.2645834zm.2645834 0h.2645834v-.2645833h-.2645834zm.2645834 0v.2645834h.2645834v-.2645834zm.2645834 0h.2645833v-.2645833h-.2645833zm.2645833 0v.2645834h.2645833v-.2645834zm.2645833 0h.2645834v-.2645833h-.2645834zm.2645834 0v.2645834h.2645834v-.2645834zm.2645834 0h.2645834v-.2645833h-.2645834zm.2645834 0v.2645834h.2645833v-.2645834z"
     fill="#c8c6c4"
     id="path11" />
  <path
     d="m1.058333 3.439583h4.233334v.529167h-4.233334z"
     fill="url(#a)"
     id="path13" />
  <path
     d="m1.0583333 3.1750001h4.2333334v-2.1166668h-4.2333334z"
     fill="#18ab50"
     id="path15" />
  <path
     fill="#797774"
     style="stroke-width:3.77953"
     d="M 4 17 L 4 18 L 9 18 L 9 17 L 4 17 z M 11 17 L 11 18 L 20 18 L 20 17 L 11 17 z "
     transform="scale(0.26458334)" />
  <path
     fill="#fafafa"
     style="stroke-width:3.77953"
     d="M 8 16 L 8 19 L 10 21 L 12 19 L 12 16 L 8 16 z M 9 17 L 11 17 L 11 18.5 L 10 19.5 L 9 18.5 L 9 17 z "
     transform="scale(0.26458334)" />
</svg>
