<svg viewBox="0 0 24 24" fill="none" xmlns="http://www.w3.org/2000/svg">
<path d="M6.28901 12.029C6.15401 12.029 6.05101 12.009 5.97801 11.967C5.90601 11.926 5.85701 11.841 5.83101 11.711L5.66001 11.005C5.46401 11.186 5.27001 11.349 5.07801 11.494C4.89201 11.633 4.69501 11.752 4.48801 11.851C4.28101 11.949 4.05901 12.022 3.82101 12.068C3.58301 12.12 3.32201 12.146 3.03701 12.146C2.74201 12.146 2.46501 12.107 2.20701 12.029C1.95301 11.947 1.72801 11.822 1.53201 11.657C1.34001 11.486 1.18801 11.277 1.07401 11.028C0.965011 10.775 0.911011 10.477 0.911011 10.136C0.911011 9.83601 0.991011 9.54801 1.15101 9.27401C1.31701 8.99501 1.58301 8.74701 1.95101 8.52901C2.31801 8.31201 2.79701 8.13601 3.38601 8.00201C3.97601 7.86201 4.70101 7.78201 5.55901 7.76101V7.17901C5.55901 6.58901 5.43301 6.14701 5.17901 5.85201C4.93101 5.55201 4.56601 5.40201 4.08501 5.40201C3.76401 5.40201 3.49201 5.44301 3.27001 5.52601C3.05301 5.60901 2.86401 5.69901 2.70301 5.79701C2.54301 5.89601 2.40301 5.98601 2.28401 6.06901C2.17101 6.15201 2.05401 6.19301 1.93501 6.19301C1.84201 6.19301 1.76201 6.17001 1.69501 6.12301C1.62701 6.07701 1.57301 6.01701 1.53201 5.94501L1.28301 5.51001C1.70201 5.10701 2.15201 4.80701 2.63401 4.61001C3.12001 4.40801 3.65801 4.30701 4.24801 4.30701C4.67201 4.30701 5.05001 4.37701 5.38101 4.51701C5.71201 4.65101 5.98901 4.84501 6.21101 5.09901C6.43401 5.35201 6.60201 5.65501 6.71601 6.00701C6.83501 6.35901 6.89401 6.74901 6.89401 7.17901V12.029H6.28901ZM3.44801 11.191C3.67601 11.191 3.88601 11.168 4.07701 11.121C4.26901 11.075 4.45001 11.01 4.62001 10.927C4.79101 10.839 4.95101 10.733 5.10201 10.609C5.25701 10.48 5.40901 10.338 5.55901 10.182V8.61501C4.95401 8.64001 4.43901 8.69201 4.01501 8.77001C3.59101 8.84201 3.24401 8.94101 2.97501 9.06501C2.71101 9.18901 2.52001 9.33601 2.40101 9.50701C2.28201 9.67301 2.22201 9.85901 2.22201 10.066C2.22201 10.262 2.25301 10.433 2.31501 10.578C2.38301 10.718 2.47101 10.834 2.57901 10.927C2.68801 11.015 2.81701 11.082 2.96701 11.129C3.11701 11.171 3.27801 11.191 3.44801 11.191Z" fill="#FAFAFA"/>
<path d="M8.98206 12.029V0.993988H10.3481V5.51799C10.6581 5.15099 11.0131 4.86099 11.4111 4.64899C11.8091 4.43199 12.2671 4.32299 12.7851 4.32299C13.2251 4.32299 13.6201 4.40799 13.9721 4.57899C14.3241 4.74999 14.6241 4.99499 14.8721 5.31599C15.1211 5.63699 15.3101 6.02799 15.4391 6.48799C15.5731 6.94299 15.6411 7.46099 15.6411 8.03999C15.6411 8.65599 15.5661 9.21499 15.4161 9.71699C15.2661 10.219 15.0511 10.65 14.7711 11.013C14.4921 11.37 14.1531 11.646 13.7551 11.843C13.3561 12.04 12.9091 12.138 12.4121 12.138C11.9151 12.138 11.4991 12.045 11.1631 11.859C10.8321 11.667 10.5371 11.403 10.2781 11.067L10.2001 11.742C10.1801 11.934 10.0681 12.029 9.86705 12.029H8.98206ZM12.3271 5.40199C11.9081 5.40199 11.5381 5.49999 11.2171 5.69699C10.9011 5.89299 10.6121 6.17299 10.3481 6.53499V10.198C10.5861 10.524 10.8471 10.754 11.1321 10.889C11.4161 11.018 11.7291 11.082 12.0711 11.082C12.7691 11.082 13.3051 10.832 13.6771 10.33C14.0501 9.82799 14.2361 9.07999 14.2361 8.08699C14.2361 7.16599 14.0701 6.48799 13.7391 6.05399C13.4081 5.61899 12.9371 5.40199 12.3271 5.40199Z" fill="#FAFAFA"/>
<path d="M22.183 5.805C22.142 5.862 22.1 5.906 22.059 5.937C22.023 5.963 21.968 5.976 21.896 5.976C21.818 5.976 21.738 5.945 21.655 5.883C21.573 5.821 21.469 5.753 21.345 5.681C21.221 5.603 21.068 5.534 20.887 5.471C20.711 5.409 20.494 5.378 20.235 5.378C19.893 5.378 19.591 5.446 19.327 5.58C19.068 5.709 18.851 5.898 18.675 6.147C18.504 6.39 18.372 6.687 18.279 7.039C18.191 7.391 18.147 7.787 18.147 8.227C18.147 8.682 18.194 9.088 18.287 9.445C18.385 9.797 18.523 10.094 18.698 10.338C18.874 10.581 19.086 10.767 19.335 10.896C19.583 11.021 19.863 11.082 20.173 11.082C20.473 11.082 20.719 11.044 20.91 10.966C21.102 10.889 21.262 10.803 21.391 10.71C21.521 10.617 21.627 10.531 21.71 10.454C21.797 10.376 21.888 10.338 21.981 10.338C22.085 10.338 22.167 10.382 22.23 10.469L22.625 10.966C22.46 11.168 22.276 11.344 22.074 11.494C21.872 11.639 21.655 11.76 21.422 11.859C21.19 11.952 20.946 12.022 20.693 12.068C20.445 12.115 20.191 12.138 19.932 12.138C19.487 12.138 19.071 12.05 18.683 11.874C18.295 11.698 17.956 11.445 17.666 11.114C17.382 10.777 17.157 10.368 16.991 9.887C16.831 9.401 16.75 8.847 16.75 8.227C16.75 7.663 16.825 7.143 16.976 6.667C17.125 6.185 17.343 5.772 17.627 5.425C17.917 5.078 18.271 4.809 18.691 4.618C19.115 4.421 19.601 4.323 20.15 4.323C20.667 4.323 21.12 4.411 21.508 4.587C21.896 4.758 22.24 4.998 22.54 5.309L22.183 5.805Z" fill="#FAFAFA"/>
<path fill-rule="evenodd" clip-rule="evenodd" d="M10.988 14.637L8.5 17L6.332 14.637L4.406 16.564L4.006 17L3.605 16.564L1.277 14.236C1.203 14.19 1.139 14.128 1.092 14.054C1.045 13.98 1.015 13.896 1.005 13.809C0.995003 13.721 1.005 13.633 1.033 13.55C1.062 13.467 1.109 13.392 1.172 13.33C1.234 13.268 1.309 13.22 1.392 13.192C1.475 13.163 1.563 13.153 1.65 13.163C1.738 13.173 1.821 13.203 1.895 13.25C1.97 13.297 2.032 13.361 2.078 13.435L4.006 15.363L5.934 13.435L6.332 13L6.732 13.435L8.66 15.363L10.588 13.435L10.988 13L10.989 13.001L11.386 13.436L12.342 14.392L11.588 15.237L10.988 14.637Z" fill="#ED3D3B"/>
<path d="M21.0001 17.8203L21.0001 18.1797L19.3751 18.5058C18.7841 18.6248 18.432 19.2356 18.6251 19.8066L19.1544 21.3691L19.1562 21.375L18.8438 21.5547L17.752 20.3106C17.3536 19.8563 16.6464 19.8563 16.248 20.3106L15.1563 21.5547L14.8438 21.375L15.375 19.8067C15.5681 19.2357 15.2159 18.6249 14.625 18.5059L13 18.1797L13 17.8203L14.625 17.4942C15.2159 17.3752 15.5681 16.7644 15.375 16.1934L14.8438 14.625L15.1563 14.4453L16.248 15.6895C16.4643 15.9359 16.7876 16.0607 17.1133 16.0235C17.3603 15.9954 17.588 15.8763 17.752 15.6895L18.8438 14.4453L19.1563 14.625L18.625 16.1934C18.4319 16.7644 18.7841 17.3752 19.375 17.4942L21.0001 17.8203Z" fill="#FAFAFA"/>
<path d="M15.4375 13.2539C15.1492 13.3475 14.8701 13.4672 14.6035 13.6113C14.2678 13.7968 13.9545 14.0203 13.6699 14.2773L14.4277 16.5137L12.1113 16.9785C12.0392 17.3143 12.0019 17.6566 12 18C12.0006 18.3433 12.0366 18.6856 12.1074 19.0215L14.4277 19.4863L13.6719 21.7227C14.1851 22.1813 14.7875 22.5291 15.4414 22.7441L17 20.9707L18.5625 22.7461C18.8508 22.6525 19.1299 22.5328 19.3965 22.3887C19.7322 22.2032 20.0455 21.9797 20.3301 21.7227L19.5723 19.4863L21.8887 19.0215C21.9608 18.6857 21.9981 18.3434 22 18C21.9994 17.6567 21.9634 17.3144 21.8926 16.9785L19.5723 16.5137L20.3281 14.2773C19.8149 13.8187 19.2125 13.4709 18.5586 13.2559L17 15.0293L16.5312 14.4961L15.4375 13.2539ZM15.1562 14.4453L16.248 15.6895C16.3546 15.8109 16.4889 15.9046 16.6396 15.9628C16.7903 16.021 16.9528 16.0418 17.1133 16.0234C17.3603 15.9954 17.588 15.8763 17.752 15.6895L18.8438 14.4453L19.1562 14.625L18.625 16.1934C18.5795 16.3279 18.5632 16.4707 18.5771 16.612C18.5911 16.7534 18.635 16.8902 18.706 17.0133C18.777 17.1363 18.8733 17.2429 18.9887 17.3258C19.104 17.4087 19.2357 17.4661 19.375 17.4941L21 17.8203V18.1797L19.375 18.5059C19.2357 18.5339 19.104 18.5913 18.9887 18.6742C18.8733 18.7571 18.777 18.8637 18.706 18.9867C18.635 19.1098 18.5911 19.2466 18.5771 19.388C18.5632 19.5293 18.5795 19.6721 18.625 19.8066L19.1543 21.3691L19.1563 21.375L18.8438 21.5547L17.752 20.3106C17.6581 20.2035 17.5425 20.1178 17.4128 20.059C17.2831 20.0003 17.1424 19.9699 17 19.9699C16.8577 19.9699 16.7169 20.0003 16.5873 20.059C16.4576 20.1178 16.342 20.2035 16.2481 20.3106L15.1562 21.5547L14.8438 21.375L15.375 19.8066C15.4205 19.6721 15.4368 19.5293 15.4229 19.388C15.4089 19.2466 15.365 19.1098 15.294 18.9867C15.223 18.8637 15.1267 18.7571 15.0113 18.6742C14.896 18.5913 14.7643 18.5339 14.625 18.5059L13 18.1797V17.8203L14.625 17.4941C14.7643 17.4661 14.896 17.4087 15.0113 17.3258C15.1267 17.2429 15.223 17.1363 15.294 17.0133C15.365 16.8902 15.4089 16.7534 15.4229 16.612C15.4368 16.4707 15.4205 16.3279 15.375 16.1934L14.8438 14.625L15.1562 14.4453ZM17 17C16.7348 17 16.4804 17.1054 16.2929 17.2929C16.1054 17.4804 16 17.7348 16 18C16 18.2652 16.1054 18.5196 16.2929 18.7071C16.4804 18.8946 16.7348 19 17 19C17.2652 19 17.5196 18.8946 17.7071 18.7071C17.8946 18.5196 18 18.2652 18 18C18 17.7348 17.8946 17.4804 17.7071 17.2929C17.5196 17.1054 17.2652 17 17 17Z" fill="#1E8BCD"/>
</svg>
