<svg viewBox="0 0 24 24" xmlns="http://www.w3.org/2000/svg">
  <path
     fill="#fafafa"
     d="M 3 2 C 2.4477381 2.0000552 2.0000552 2.4477381 2 3 L 2 19 C 2.0000511 19.265199 2.1054326 19.519519 2.2929688 19.707031 L 4.2929688 21.707031 C 4.4804804 21.894567 4.734801 21.999949 5 22 L 15.423828 22 C 15.301017 21.695301 15.206446 21.323781 15.136719 21 L 15.105469 21 L 15 21 L 11 21 L 11 16 L 9 16 L 9 21 L 7 21 L 7 15 L 17 15 L 17 16 L 17.111328 16 C 17.429899 15.797689 17.874509 15.504682 18 15.429688 L 18 15.423828 L 18 14 L 6 14 L 6 21 L 5 21 L 3 19 L 3 3 L 5 3 L 5 10 L 19 10 L 19 3 L 21 3 L 21 14 L 21 15.101562 L 21 15.103516 C 21.342537 15.173876 21.677981 15.278902 22 15.419922 L 22 3 C 21.999945 2.4477381 21.552262 2.0000552 21 2 L 3 2 z M 6 3 L 18 3 L 18 9 L 6 9 L 6 3 z " />
  <circle
     cx="20"
     cy="20"
     fill="#0063b1"
     r="4"
     id="circle8"
     style="fill:#83beec;fill-opacity:1" />
  <circle
     cx="20"
     cy="20"
     fill="#83beec"
     r="3"
     id="circle10"
     style="fill:#0063b1;fill-opacity:1" />
</svg>
