<svg viewBox="0 0 24 24" xmlns="http://www.w3.org/2000/svg">
  <path
     fill="#fafafa"
     d="m 12,16 c -1.098646,0 -2,0.901354 -2,2 0,1.098646 0.901354,2 2,2 1.098646,0 2,-0.901354 2,-2 0,-1.098646 -0.901354,-2 -2,-2 z m 0,1 c 0.558207,0 1,0.441793 1,1 0,0.558207 -0.441793,1 -1,1 -0.558207,0 -1,-0.441793 -1,-1 0,-0.558207 0.441793,-1 1,-1 z"
     id="path1812" />
  <path
     d="m 9.5,7.5 a 1,1 0 0 1 -1,1 1,1 0 0 1 -1,-1 1,1 0 0 1 1,-1 1,1 0 0 1 1,1 z"
     id="path7"
     style="fill:#f8db8f;stroke:#ed8733;stroke-linecap:round;stroke-linejoin:round" />
  <path
     d="m 18.5,9.5 a 1,1 0 0 1 -1,1 1,1 0 0 1 -1,-1 1,1 0 0 1 1,-1 1,1 0 0 1 1,1 z"
     id="path10"
     style="fill:#83beec;stroke:#1e8bcd;stroke-linecap:round;stroke-linejoin:round" />
  <path
     d="m 14.5,6.5 a 1,1 0 0 1 -1,1 1,1 0 0 1 -1,-1 1,1 0 0 1 1,-1 1,1 0 0 1 1,1 z"
     id="path14"
     style="fill:#a1ddaa;stroke:#18ab50;stroke-linecap:round;stroke-linejoin:round" />
  <path
     d="m 7.5,12.5 a 1,1 0 0 1 -1,1 1,1 0 0 1 -1,-1 1,1 0 0 1 1,-1 1,1 0 0 1 1,1 z"
     id="path18"
     style="fill:#ff9198;stroke:#da4453;stroke-linecap:round;stroke-linejoin:round" />
  <path
     fill="#fafafa"
     d="M 12.074219,2.0019531 C 6.5198797,2.0019531 2.0019531,6.4820027 2.0019531,12 c 0,5.517997 4.5179266,9.998047 10.0722659,9.998047 1.128478,0 2.470082,0.0096 3.550781,-0.498047 a 0.50005,0.50005 0 0 0 0.0078,-0.0039 c 1.014596,-0.496484 1.670553,-1.49364 1.749999,-2.689453 0.06457,-0.971909 -0.249003,-1.821436 -0.490234,-2.595704 -0.242641,-0.778779 -0.441583,-1.504576 -0.404297,-2.238281 0.0076,-0.148998 0.03517,-0.198368 0.05273,-0.220703 0.01757,-0.02233 0.05529,-0.06318 0.222656,-0.103515 0.267631,-0.06451 1.05357,-0.015 2.226562,0.625 0.359135,0.195958 0.75089,0.325535 1.169922,0.304687 0.44164,-0.02203 0.829541,-0.21717 1.107422,-0.503906 0.501874,-0.517852 0.627279,-1.180636 0.693359,-1.763672 a 0.50005,0.50005 0 0 0 0,-0.0039 c 0.11641,-1.082572 -0.06167,-2.183805 -0.224609,-3.1152347 A 0.50005,0.50005 0 0 0 21.72264,9.1328243 C 20.479846,5.0054218 16.626283,2.0019531 12.074219,2.0019531 Z m 0,1 c 4.103055,0 7.554604,2.6983532 8.679687,6.3945313 0.157895,0.9065196 0.307601,1.9134706 0.212891,2.8007816 -0.05896,0.520177 -0.160515,0.91599 -0.417969,1.18164 -0.101784,0.105028 -0.277412,0.193185 -0.4375,0.201172 -0.182697,0.0091 -0.387235,-0.04427 -0.642578,-0.183594 -1.305882,-0.712501 -2.259181,-0.882726 -2.939453,-0.71875 -0.306591,0.0739 -0.586696,0.217665 -0.773438,0.455079 -0.186741,0.237413 -0.252046,0.52187 -0.265625,0.789062 -0.0479,0.942643 0.201658,1.791367 0.449219,2.585937 0.248969,0.799106 0.492621,1.520345 0.445313,2.232422 -0.05878,0.884764 -0.485554,1.509031 -1.191407,1.855469 -8.76e-4,4.3e-4 -0.0011,0.0015 -0.002,0.002 -0.765148,0.356675 -2.001868,0.400391 -3.117187,0.400391 -5.0180406,0 -9.0722659,-4.024662 -9.0722659,-8.998047 0,-4.9733854 4.0542253,-8.9980469 9.0722659,-8.9980469 z"
     id="path990" />
</svg>
