<svg viewBox="0 0 16 16" xmlns="http://www.w3.org/2000/svg">
  <path
     style="fill:#fafafa"
     d="M 1 2 L 1 14 L 15 14 L 15 2 L 1 2 z M 2 3 L 14 3 L 14 13 L 2 13 L 2 3 z " />
  <g
     fill="#1e8bcd"
     id="g10">
    <path
       d="m3 4v8h10v-8zm1 1h8v6h-8z"
       id="path6" />
    <path
       d="m1.5 1a1.5 1.5 0 0 0 -1.5 1.5 1.5 1.5 0 0 0 1.5 1.5 1.5 1.5 0 0 0 1.5-1.5 1.5 1.5 0 0 0 -1.5-1.5zm5.5 0v2h2v-2zm7.5 0a1.5 1.5 0 0 0 -1.5 1.5 1.5 1.5 0 0 0 1.5 1.5 1.5 1.5 0 0 0 1.5-1.5 1.5 1.5 0 0 0 -1.5-1.5zm-14.5 6v2h2v-2zm14 0v2h2v-2zm-12.5 5a1.5 1.5 0 0 0 -1.5 1.5 1.5 1.5 0 0 0 1.5 1.5 1.5 1.5 0 0 0 1.5-1.5 1.5 1.5 0 0 0 -1.5-1.5zm13 0a1.5 1.5 0 0 0 -1.5 1.5 1.5 1.5 0 0 0 1.5 1.5 1.5 1.5 0 0 0 1.5-1.5 1.5 1.5 0 0 0 -1.5-1.5zm-7.5 1v2h2v-2z"
       id="path8" />
  </g>
</svg>
