<svg viewBox="0 0 24 24" xmlns="http://www.w3.org/2000/svg">
  <path
     d="M 8.9824219,0.99414062 V 12.029297 h 0.8847656 c 0.2017825,0 0.3132915,-0.09568 0.3339845,-0.287109 l 0.07617,-0.675782 c 0.258692,0.3363 0.553639,0.601536 0.884765,0.792969 0.336301,0.186259 0.753311,0.279297 1.25,0.279297 0.49669,0 0.943411,-0.09831 1.341797,-0.294922 0.398386,-0.196606 0.73819,-0.475036 1.017578,-0.832031 0.279388,-0.36217 0.49449,-0.793059 0.644532,-1.2949221 0.150042,-0.5018634 0.224609,-1.0600932 0.224609,-1.6757813 0,-0.579471 -0.06665,-1.0974356 -0.201172,-1.5527344 C 15.310106,6.0278087 15.121392,5.6371849 14.873047,5.3164062 14.624702,4.9956277 14.324478,4.748862 13.972656,4.578125 13.620835,4.407388 13.224934,4.3222656 12.785156,4.3222656 c -0.517384,0 -0.976613,0.1088703 -1.375,0.3261719 -0.398386,0.2121278 -0.752068,0.5017973 -1.0625,0.8691406 V 0.99414062 Z M 4.2480469,4.3066406 c -0.5898188,0 -1.1288926,0.1009543 -1.6152344,0.3027344 C 2.1516446,4.8059813 1.7022849,5.1062054 1.2832031,5.5097656 L 1.53125,5.9453125 c 0.041391,0.072434 0.096802,0.1311697 0.1640625,0.1777344 0.06726,0.046565 0.1471051,0.070312 0.2402344,0.070312 0.1189985,0 0.2357847,-0.042219 0.3496093,-0.125 C 2.4041548,5.9855778 2.5427357,5.8951781 2.703125,5.796875 2.8635143,5.6985719 3.0522296,5.6081722 3.2695312,5.5253906 3.4920068,5.4426091 3.7632058,5.4023437 4.0839844,5.4023438 c 0.481168,0 0.8473584,0.1491355 1.0957031,0.4492187 0.2535186,0.2949094 0.3789062,0.7383062 0.3789063,1.328125 V 7.7617188 C 4.6997348,7.7824142 3.9765376,7.8622593 3.3867188,8.0019531 2.7969,8.1364733 2.3185152,8.3119953 1.9511719,8.5292969 1.5838286,8.7465985 1.3159538,8.9940496 1.1503906,9.2734375 0.9900013,9.5476515 0.91015625,9.8346826 0.91015625,10.134766 c 0,0.341474 0.0554117,0.639059 0.16406255,0.892578 0.1138247,0.248344 0.2655988,0.458169 0.4570312,0.628906 0.1966063,0.165563 0.4222627,0.290267 0.6757812,0.373047 0.2586925,0.07761 0.5351688,0.117187 0.8300782,0.117187 0.2845617,0 0.5452061,-0.02638 0.7832031,-0.07813 0.2379971,-0.04656 0.4610148,-0.118493 0.6679687,-0.216797 0.206954,-0.0983 0.4035853,-0.217727 0.5898438,-0.357421 0.1914324,-0.144868 0.385425,-0.307197 0.5820312,-0.488282 l 0.1699219,0.705079 c 0.025869,0.129344 0.076004,0.214466 0.1484375,0.255859 0.072434,0.04139 0.1760268,0.0625 0.3105469,0.0625 H 6.8945312 V 7.1796875 c 0,-0.4294295 -0.060689,-0.8200533 -0.1796874,-1.171875 C 6.6010191,5.6559908 6.433413,5.353128 6.2109375,5.0996094 5.988462,4.8460908 5.7119857,4.6520982 5.3808594,4.5175781 5.049733,4.3778842 4.6723025,4.3066406 4.2480469,4.3066406 Z m 15.9023441,0.015625 c -0.548428,0 -1.034729,0.098316 -1.458985,0.2949219 C 18.272324,4.80862 17.916688,5.0791334 17.626953,5.4257812 17.342391,5.7724291 17.124651,6.1848477 16.974609,6.6660156 16.824567,7.1420098 16.75,7.662613 16.75,8.2265625 c 0,0.6208619 0.07984,1.1738144 0.240234,1.6601563 0.165564,0.4811682 0.39122,0.8902622 0.675782,1.2265622 0.289735,0.331126 0.629539,0.585808 1.017578,0.761719 0.388038,0.175911 0.803096,0.263672 1.248047,0.263672 0.258692,0 0.513374,-0.02375 0.761718,-0.07031 0.253519,-0.04656 0.495693,-0.115855 0.728516,-0.208984 0.232823,-0.0983 0.450564,-0.220367 0.652344,-0.365234 0.20178,-0.150042 0.385218,-0.325564 0.550781,-0.527344 l -0.394531,-0.49805 c -0.06209,-0.08796 -0.146524,-0.130859 -0.25,-0.130859 -0.09313,0 -0.183529,0.03763 -0.271485,0.115234 -0.08278,0.07761 -0.189013,0.164683 -0.318359,0.257813 -0.129347,0.09313 -0.289037,0.178251 -0.480469,0.255859 -0.191432,0.07761 -0.436245,0.115234 -0.736328,0.115234 -0.310431,0 -0.591499,-0.06137 -0.839844,-0.185547 C 19.08564,10.767138 18.87513,10.581062 18.699219,10.337891 18.523308,10.09472 18.385413,9.7971342 18.287109,9.4453125 18.19398,9.0883169 18.146484,8.6818612 18.146484,8.2265625 c 0,-0.4397772 0.04486,-0.8356783 0.132813,-1.1875 0.09313,-0.3518217 0.225748,-0.6494072 0.396484,-0.8925781 0.175911,-0.2483448 0.391698,-0.43706 0.650391,-0.5664063 0.263866,-0.13452 0.566728,-0.2011719 0.908203,-0.2011719 0.258692,0 0.476433,0.029711 0.652344,0.091797 0.181085,0.062086 0.334812,0.1333298 0.458984,0.2109375 0.124173,0.072434 0.225813,0.1390859 0.308594,0.2011719 0.08278,0.062086 0.164579,0.09375 0.242187,0.09375 0.07243,0 0.12589,-0.013193 0.16211,-0.039063 0.04139,-0.031043 0.08361,-0.0759 0.125,-0.1328125 L 22.539062,5.3085938 C 22.238979,4.9981628 21.895851,4.7566746 21.507812,4.5859375 21.119774,4.4100267 20.667775,4.3222656 20.150391,4.3222656 Z m -7.824219,1.0800782 c 0.610515,0 1.080983,0.2157873 1.412109,0.6503906 0.331127,0.4346033 0.498047,1.112258 0.498047,2.0332031 0,0.993379 -0.186076,1.7422771 -0.558594,2.2441405 -0.372517,0.501863 -0.908952,0.751953 -1.607422,0.751953 -0.341474,0 -0.654891,-0.06401 -0.939453,-0.193359 -0.284561,-0.13452 -0.545205,-0.365454 -0.783203,-0.691406 V 6.5351562 C 10.611523,6.1729868 10.901192,5.8938719 11.216797,5.6972656 11.537576,5.5006594 11.907091,5.4023438 12.326172,5.4023438 Z M 5.5585938,8.6152344 v 1.5664066 c -0.1500417,0.155215 -0.3018158,0.298387 -0.4570313,0.427734 -0.1500417,0.124172 -0.3097318,0.230404 -0.4804687,0.318359 -0.1707371,0.08278 -0.3534895,0.146793 -0.5449219,0.19336 -0.1914325,0.04657 -0.3993038,0.07031 -0.6269531,0.07031 -0.170737,0 -0.3323803,-0.02111 -0.4824219,-0.0625 -0.1500417,-0.04656 -0.278068,-0.113216 -0.3867188,-0.201172 -0.1086508,-0.09313 -0.198365,-0.209915 -0.265625,-0.349609 -0.062086,-0.144867 -0.091797,-0.315112 -0.091797,-0.511719 0,-0.2069535 0.058736,-0.3930304 0.1777344,-0.5585935 C 2.5193892,9.3370755 2.7107431,9.1886255 2.9746094,9.0644531 3.2436496,8.9402807 3.5913694,8.8419651 4.015625,8.7695312 4.4398806,8.6919235 4.9532534,8.6411036 5.5585938,8.6152344 Z M 22,12 l -9,9 -3,-3 -1,1 4,4 10,-10 z"
     style="fill:#fafafa" />
</svg>
