<svg viewBox="0 0 24 24" xmlns="http://www.w3.org/2000/svg">
  <path
     d="M 6 2 A 1 1 0 0 0 5 3 L 5 5 L 3 5 A 1 1 0 0 0 2 6 L 2 16 A 1 1 0 0 0 3 17 L 6 17 L 6 21 A 1 1 0 0 0 7.7 21.7 L 9 20.4 L 8.2 19.7 L 7 21 L 7 16 L 3 16 L 3 6 L 18 6 L 18 14.6 L 19 13.6 L 19.6 13 L 19 13 L 19 6 A 1 1 0 0 0 18 5 L 6 5 L 6 3 L 21 3 L 21 11.6 L 21.3 11.3 A 1 1 0 0 1 22 11 A 1 1 0 0 1 22 11 L 22 3 A 1 1 0 0 0 21 2 L 6 2 z M 12 16 L 10.7 17.2 L 11.4 18 L 12.4 17 L 15.6 17 L 16.6 16 L 12 16 z "
     style="fill:#fafafa" />
  <path
     d="M 10,18 9,19 13,23 23,13 22,12 13,21 Z"
     fill="#1e8bcd" />
</svg>
