<svg viewBox="0 0 24 24" xmlns="http://www.w3.org/2000/svg">
  <path
     fill="#fafafa"
     d="M 4,2 C 3.446,2 3,2.446 3,3 v 18 c 0,0.554 0.446,1 1,1 H 8 V 21 H 4 V 3 h 9 v 4 c 0,0.554 0.446,1 1,1 h 0.06445 C 14.696502,7.3840071 15.555754,7 16.5,7 H 14 V 3 l 4,4 h -1.5 c 0.976906,0 1.862701,0.4105457 2.5,1.0644531 V 7.25 7.0410156 C 19,6.5903357 19.098038,6.6156035 18.394531,5.9746094 L 15.087891,2.7363281 C 14.378366,1.9994706 14.377722,2 13.994141,2 H 13.662109 13 Z"
      />
  <path
     d="m16.5 8c-1.380712 0-2.5 1.1192881-2.5 2.5.002 1.18641.837558 2.208031 2 2.445312v.054688 2h-3v1h3v6.974609c-2.173365-.148007-4.174995-1.233648-5.484375-2.974609h2.484375v-1h-4v4h1v-2.052734c1.609336 1.927801 3.988761 3.045301 6.5 3.052734 2.512196-.0089 4.891784-1.128606 6.5-3.058594v2.058594h1v-4h-4v1h2.484375c-1.308614 1.742432-3.310357 2.829561-5.484375 2.978516v-6.978516h3v-1h-3v-2-.05078c1.163878-.237577 1.999871-1.261342 2-2.44922 0-1.3807119-1.119288-2.5-2.5-2.5zm0 1c.828427 0 1.5.6715729 1.5 1.5 0 .828427-.671573 1.5-1.5 1.5s-1.5-.671573-1.5-1.5c0-.8284271.671573-1.5 1.5-1.5z"
     fill="#1e8bcd"
     fill-opacity=".982993"
     id="path8" />
</svg>
