<svg viewBox="0 0 24 24" xmlns="http://www.w3.org/2000/svg"><path d="m16 5.4843749c-.0041-.130048-.05875-.25337-.152344-.34375l-2.912109-2.9160156c-.160599-.173289-.266429-.2230094-.435547-.2246094-.169118.0016-.274898.05132-.435547.2246094l-2.9121091 2.9160156c-.09359.09038-.148244.213702-.152344.34375-.0115.454318.540283.6868471.857422.3613281l2.1445311-2.1484375v2.8183594c.00013.0037-.0021.00603-.002.00977v5.4746051 5.474609c-.000192.0037.0021.0061.002.0098v2.818359l-2.1445311-2.148471c-.317139-.325519-.868922-.09299-.857422.361328.0041.130048.058754.25337.152344.34375l2.9121091 2.916016c.160649.173289.266429.223009.435547.224609.169118-.0016.274948-.05132.435547-.224609l2.912109-2.916016c.09359-.09038.148244-.213702.152344-.34375.0115-.454318-.540283-.686847-.857422-.361328l-2.144531 2.148437v-2.818359c-.000129-.0037.0021-.006.002-.0098v-5.474575-5.4746095c.000191-.00374-.0021-.00607-.002-.00977v-2.818355l2.144531 2.1484375c.317139.325519.868926.0929899.857422-.3613281z" fill="#1e8bcd" fill-rule="evenodd"/></svg>