<svg viewBox="0 0 16 16" xmlns="http://www.w3.org/2000/svg">
<path
     style="fill:#fafafa"
   d="M 11 0 C 8.5809825 0 6.5628141 1.7176751 6.0996094 4 L 1 4 C 0.446 4 0 4.446 0 5 L 0 13 C 0 13.554 0.446 14 1 14 L 7.0488281 14 L 9.0996094 16.050781 A 0.56646289 0.56646289 0 0 0 9.9003906 16.050781 L 14.943359 11.007812 A 0.56646289 0.56646289 0 0 0 14.943359 10.207031 L 13.845703 9.109375 C 15.146705 8.2066053 16 6.7034875 16 5 C 16 2.2385763 13.761423 0 11 0 z M 11 1 C 13.209139 1 15 2.790861 15 5 C 14.9956 6.3757518 14.284436 7.6526814 13.117188 8.3808594 L 9.9003906 5.1660156 A 0.56646289 0.56646289 0 0 0 9.4921875 5 A 0.56646289 0.56646289 0 0 0 9.0996094 5.1660156 L 7.4414062 6.8242188 C 7.1516755 6.2597592 7.0003754 5.6344749 7 5 C 7 2.790861 8.790861 1 11 1 z M 1 5 L 6 5 C 6 5.9354767 6.2579725 6.809827 6.7050781 7.5585938 L 4.0566406 10.207031 A 0.56646289 0.56646289 0 0 0 4.0566406 11.007812 L 6.0488281 13 L 1 13 L 1 5 z M 9.5 6 L 14.109375 10.607422 L 9.5 15.216797 L 4.890625 10.607422 L 9.5 6 z " />
</svg>
