<svg viewBox="0 0 24 24" xmlns="http://www.w3.org/2000/svg">
  <path
     fill="#fafafa"
     d="M 3 2 A 1.0001 1.0001 0 0 0 2 3 L 2 19 A 1.0001 1.0001 0 0 0 2.2929688 19.707031 L 4.2929688 21.707031 A 1.0001 1.0001 0 0 0 5 22 L 21 22 A 1.0001 1.0001 0 0 0 22 21 L 22 3 A 1.0001 1.0001 0 0 0 21 2 L 3 2 z M 3 3 L 5 3 L 5 10 L 19 10 L 19 3 L 21 3 L 21 21 L 18 21 L 18 14 L 6 14 L 6 21 L 5 21 L 3 19 L 3 3 z M 6 3 L 18 3 L 18 9 L 6 9 L 6 3 z M 7 15 L 17 15 L 17 21 L 11 21 L 11 16 L 9 16 L 9 21 L 7 21 L 7 15 z " />
</svg>
