<svg viewBox="0 0 16 16" xmlns="http://www.w3.org/2000/svg">
  <path
     fill="#fafafa"
     d="M 2 0 C 1.446 0 1 0.446 1 1 L 1 11 C 1 11.554 1.446 12 2 12 L 5 12 L 5 15 C 5 15.554 5.446 16 6 16 L 14 16 C 14.554 16 15 15.554 15 15 L 15 11.126953 L 14 12.126953 L 14 15 L 6 15 L 6 12 L 10 12 C 10.246984 12 10.464569 11.90125 10.638672 11.753906 L 9.8847656 11 L 2 11 L 2 1 L 10 1 L 10 3 L 10 4 L 11 4 L 14 4 L 14 7 L 14 8.2207031 C 14.202228 8.1370326 14.376343 7.9738876 14.582031 7.984375 C 14.732219 7.9920326 14.869697 8.0260015 15 8.0722656 L 15 4 C 15 3.446 14.554 3 14 3 L 11 3 L 11 1 C 11 0.446 10.554 0 10 0 L 2 0 z " />
  <rect
     fill="#ed3d3b"
     height="1"
     ry=".482023"
     width="5"
     x="8"
     y="13"
     id="rect10" />
  <rect
     fill="#ed3d3b"
     height="1"
     ry="0.5"
     width="4"
     x="3"
     y="5.0000958"
     id="rect12" />
  <path
     d="m8.5 5.000096c-.277 0-.5.223-.5.5s.223.5.5.5h2.5c.552285 0 1 .447715 1 1v3.287109l-1.140625-1.140625c-.094207-.097369-.223892-.152343-.359375-.152343-.449402.000092-.6705866.54684-.347656.859375l2 2c.195265.195184.511766.195184.707031 0l2-2c.490807-.471254-.235776-1.197838-.707031-.707032l-1.152344 1.152344v-3.298828c0-1.1045695-.895431-2-2-2z"
     fill="#3a3a38"
     fill-rule="evenodd"
     id="path14" />
</svg>
