<svg viewBox="0 0 24 24" xmlns="http://www.w3.org/2000/svg">
  <path
     d="m8 3v3h-5v1h5v3h-5v1h5v3h-5v1h5v3h1v-3h6v2.871094.128906h1v-3h5v-1h-5v-3h5v-1h-5v-3h5v-1h-5v-3h-1v3h-6v-3zm1 4h6v3h-6zm0 4h6v3h-6zm4.871094 7.998047-10.871094.001953h10.869141z"
     fill="#797774"
     id="path6" />
  <path
     fill="#fafafa"
     d="M 3 2 C 2.446 2 2 2.446 2 3 L 2 18 L 2 21 C 2 21.554 2.446 22 3 22 L 6 22 L 6.5 22 L 8 19 L 8 21 C 8 21.554 8.446 22 9 22 L 12 22 L 12.5 22 L 14 19 L 13 19 L 12 21 L 9 21 L 9 19 L 14 18.998047 L 14 19 L 14 21 C 14 21.554 14.446 22 15 22 L 18 22 L 18.5 22 L 20 19 L 19 19 L 18 21 L 15 21 L 15 18.998047 L 21.011719 18.998047 C 21.559974 18.991515 22 18.549872 22 18 L 22 3 C 22 2.446 21.554 2 21 2 L 3 2 z M 3 3 L 21 3 L 21 18 L 15 18 L 14 18 L 9 18 L 8 18 L 3 18 L 3 3 z M 3 19 L 7 19 L 6 21 L 3 21 L 3 19 z " />
</svg>
