<svg viewBox="0 0 16 16" xmlns="http://www.w3.org/2000/svg">
<path
   d="m5 2v2h-4v1h4v3h-4v1h4l-.00195 2.998047h1l.00195-2.998047h4l.002 2.998047h1l-.002-2.998047h4v-1h-4v-3h4v-1h-4v-2h-1v2h-4v-2zm1 3h4v3h-4z"
   fill="#797774"
   id="path4" />
<path
   fill="#fafafa"
   d="M 0.49804688 1.0019531 C 0.43029999 1.001859 0.3655698 1.0166593 0.30664062 1.0410156 C 0.12523119 1.115995 -0.002242965 1.293399 -0.001953125 1.5019531 L -0.001953125 12.498047 C -0.0019706974 12.510677 0.0010490338 12.52276 0.001953125 12.535156 L 0 15.498047 C -0.00038443 15.774348 0.22369855 15.998431 0.5 15.998047 L 4.5 16 L 4.9980469 13 L 4.0019531 13 L 4 13 L 3.5 15 L 0.99804688 15 L 1 12.998047 L 15.501953 12.998047 C 15.778254 12.998431 16.002337 12.774348 16.001953 12.498047 L 16.001953 1.5019531 C 16.002243 1.293399 15.874769 1.115995 15.693359 1.0410156 C 15.634659 1.0162306 15.569576 1.0023881 15.501953 1.0019531 L 15.498047 1.0019531 L 0.49804688 1.0019531 z M 1 2 L 15 2 L 15 12 L 1 12 L 1 2 z " />
</svg>
