<svg viewBox="0 0 16 16" xmlns="http://www.w3.org/2000/svg">
<path
   d="M 1 4 C 0.446 4 0 4.446 0 5 L 0 13 C 0 13.554 0.446 14 1 14 L 8.2832031 14 L 7.2832031 13 L 1 13 L 1 5 L 7 5 L 7 4 L 1 4 z "
   fill="#fafafa" />
<path
   d="M 9.4921875,5 A 0.56646289,0.56646289 0 0 0 9.0996094,5.1660156 L 4.0566406,10.207031 a 0.56646289,0.56646289 0 0 0 0,0.800781 l 5.0429688,5.042969 a 0.56646289,0.56646289 0 0 0 0.8007812,0 l 5.0429684,-5.042969 a 0.56646289,0.56646289 0 0 0 0,-0.800781 L 9.9003906,5.1660156 A 0.56646289,0.56646289 0 0 0 9.4921875,5 Z M 9.5,6 14.109375,10.607422 9.5,15.216797 4.890625,10.607422 Z"
   fill="#fafafa" />
<path
   style="fill:#fafafa"
   d="M 11 0 A 5 5 0 0 0 6 5 A 5 5 0 0 0 7.2226562 8.2753906 L 7.9414062 7.5585938 A 4 4 0 0 1 7 5 A 4 4 0 0 1 11 1 A 4 4 0 0 1 15 5 A 4 4 0 0 1 12.285156 8.7851562 L 13.056641 9.5566406 A 5 5 0 0 0 16 5 A 5 5 0 0 0 11 0 z " />
</svg>
