<svg viewBox="0 0 24 24" fill="none" xmlns="http://www.w3.org/2000/svg">
<path d="M3 6H21V21H3V6Z" fill="#3A3A38"/>
<path d="M3 2C2.446 2 2 2.446 2 3V21C2 21.554 2.446 22 3 22H21C21.554 22 22 21.554 22 21V3C22 2.446 21.554 2 21 2H3ZM3 6H21V21H3V6Z" fill="#FAFAFA"/>
<path d="M6.5 11H17.5C17.777 11 18 11.223 18 11.5C18 11.777 17.777 12 17.5 12H6.5C6.223 12 6 11.777 6 11.5C6 11.223 6.223 11 6.5 11Z" fill="#FAFAFA"/>
<path d="M13.5 10C12.6716 10 12 10.6716 12 11.5C12 12.3284 12.6716 13 13.5 13C14.3284 13 15 12.3284 15 11.5C15 10.6716 14.3284 10 13.5 10Z" fill="#1E8BCD"/>
<path d="M6.5 15C6.223 15 6 15.223 6 15.5C6 15.777 6.223 16 6.5 16H7.49023H9.50003H10.5C10.2239 16 10 15.7761 10 15.5C10 15.2239 10.2239 15 10.5 15H9.50003H7.49023H6.5ZM10.5 15C10.7762 15 11 15.2239 11 15.5C11 15.7761 10.7762 16 10.5 16H17.5098C17.7818 16 18 15.7818 18 15.5098V15.4902C18 15.2182 17.7818 15 17.5098 15L10.5 15Z" fill="#FAFAFA"/>
<path d="M10.5 14C10.1022 14 9.72064 14.158 9.43934 14.4393C9.15804 14.7206 9 15.1022 9 15.5C9 15.8978 9.15804 16.2794 9.43934 16.5607C9.72064 16.842 10.1022 17 10.5 17C10.8978 17 11.2794 16.842 11.5607 16.5607C11.842 16.2794 12 15.8978 12 15.5C12 15.1022 11.842 14.7206 11.5607 14.4393C11.2794 14.158 10.8978 14 10.5 14ZM10.5 15C10.6326 15 10.7598 15.0527 10.8536 15.1464C10.9473 15.2402 11 15.3674 11 15.5C11 15.6326 10.9473 15.7598 10.8536 15.8536C10.7598 15.9473 10.6326 16 10.5 16C10.3674 16 10.2402 15.9473 10.1464 15.8536C10.0527 15.7598 10 15.6326 10 15.5C10 15.3674 10.0527 15.2402 10.1464 15.1464C10.2402 15.0527 10.3674 15 10.5 15Z" fill="#1E8BCD"/>
<path d="M3 3H21V5H3V3Z" fill="#C8C6C4"/>
</svg>
