<svg width="24" height="24" version="1.1" viewBox="0 0 6.35 6.35" xmlns="http://www.w3.org/2000/svg"><g transform="translate(0 -292.77)"><g transform="matrix(1.3329 0 0 1.3329 -.17254 -97.634)"><path d="m2.5068 293.3c-0.070092 4e-3 -0.12557 0.0613-0.12557 0.13229v0.52917c0 0.0733 0.059002 0.13229 0.13229 0.13229 0.073289 0 0.13229-0.059 0.13229-0.13229v-0.52917c0-0.0733-0.059002-0.13229-0.13229-0.13229-0.00229 0-0.00446-1.1e-4 -0.00672 0zm-0.93173 0.108c-0.017965 5.5e-4 -0.035893 6e-3 -0.053744 0.016-0.06348 0.0367-0.098746 0.12741-0.048576 0.18087l0.39688 0.42271c0.050163 0.0535 0.1174 0.0848 0.18087 0.0481 0.06348-0.0367 0.098229-0.12689 0.048059-0.18035l-0.39688-0.42271c-0.036054-0.0385-0.080698-0.066-0.12661-0.0646zm1.8707 0c-0.043807 1e-3 -0.085919 0.0278-0.12041 0.0646l-0.39688 0.42271c-0.050169 0.0535-0.015421 0.14375 0.048059 0.18035 0.063471 0.0367 0.1307 5e-3 0.18087-0.0481l0.39688-0.42271c0.050169-0.0535 0.014904-0.14417-0.048576-0.18087-0.019835-0.0115-0.040033-0.0165-0.059945-0.016zm-0.93896 3.0644c-0.070091 4e-3 -0.12557 0.0613-0.12557 0.13229v0.52917c0 0.0733 0.059002 0.13229 0.13229 0.13229 0.00229 0 0.00446 1.1e-4 0.00672 0 0.070092-4e-3 0.12557-0.0613 0.12557-0.13229v-0.52917c0-0.0733-0.059002-0.13229-0.13229-0.13229-0.00229 0-0.00446-1.2e-4 -0.00672 0zm-0.51625 2e-3c-0.043854 1e-3 -0.086436 0.0276-0.12092 0.0641l-0.39688 0.42272c-0.050169 0.0535-0.014904 0.14416 0.048576 0.18086 0.019835 0.0115 0.040033 0.0165 0.059945 0.016 0.043807-1e-3 0.085919-0.0278 0.12041-0.0646l0.39688-0.42272c0.050169-0.0535 0.015421-0.14375-0.048059-0.18035-0.019835-0.0115-0.040011-0.0165-0.059945-0.016zm1.0397 0c-0.017983 5.9e-4 -0.035892 6e-3 -0.053743 0.016-0.06348 0.0367-0.098229 0.12689-0.048059 0.18035l0.39688 0.42272c0.036054 0.0385 0.080698 0.066 0.12661 0.0646 0.017965-5.5e-4 0.035893-6e-3 0.053744-0.016 0.06348-0.0367 0.098746-0.1274 0.048576-0.18086l-0.39688-0.42267c-0.036055-0.0385-0.081168-0.0656-0.12712-0.0641z" fill="#ed8733" stroke-width=".14893"/><path d="m1.1798 294.35c-0.36645 0-0.66146 0.29501-0.66146 0.66146v0.52917c0 0.36643 0.29501 0.66145 0.66146 0.66145h0.52917c0.32117 0 0.58712-0.22646 0.64802-0.52916h-0.27544c-0.054506 0.15397-0.19949 0.26458-0.37259 0.26458h-0.52917c-0.21987 0-0.39687-0.17702-0.39687-0.39687v-0.52917c0-0.21987 0.17701-0.39688 0.39687-0.39688h0.52917c0.1731 0 0.31808 0.11062 0.37259 0.26459h0.27544c-0.060906-0.3027-0.32686-0.52917-0.64802-0.52917zm2.1275 0c-0.010037 0-0.020048 8e-5 -0.029972 5.2e-4 -0.30764 0.0136-0.55905 0.23541-0.61805 0.52865h0.27544c0.0017-5e-3 0.00329-0.01 0.00517-0.0145 0.00188-5e-3 0.00415-9e-3 0.0062-0.014 0.0041-9e-3 0.00868-0.0185 0.013436-0.0274 0.00476-9e-3 0.0096-0.0174 0.014986-0.0258 0.00267-4e-3 0.00545-8e-3 0.00827-0.0124 0.00285-4e-3 0.00579-8e-3 0.00879-0.0124 0.00304-4e-3 0.00612-8e-3 0.0093-0.0119 0.00314-4e-3 0.00602-8e-3 0.0093-0.0114 0.00328-4e-3 0.00692-7e-3 0.010335-0.0109 0.00342-4e-3 0.00679-7e-3 0.010335-0.0109 0.00355-3e-3 0.00718-7e-3 0.010852-0.0103 0.00368-3e-3 0.00756-7e-3 0.011369-0.01 0.00375-3e-3 0.0075-6e-3 0.011369-9e-3 0.00393-3e-3 0.00784-6e-3 0.011886-9e-3 0.00399-3e-3 0.00831-6e-3 0.012402-8e-3 0.00416-3e-3 0.00865-6e-3 0.012919-8e-3 0.0043-3e-3 0.00851-5e-3 0.012919-8e-3 0.00437-2e-3 0.00844-5e-3 0.012919-7e-3 0.00895-5e-3 0.018566-8e-3 0.027905-0.0124 0.00467-2e-3 0.00919-4e-3 0.013953-6e-3 0.019044-7e-3 0.038562-0.0129 0.058911-0.0171 0.00509-1e-3 0.010344-2e-3 0.015503-3e-3 0.020637-3e-3 0.041924-5e-3 0.063562-5e-3h0.52917c0.21987 0 0.39688 0.17702 0.39688 0.39688v0.52917c0 0.21985-0.17701 0.39687-0.39688 0.39687h-0.52917c-0.027047 0-0.053629-3e-3 -0.079065-8e-3 -0.00509-1e-3 -0.00997-2e-3 -0.014986-4e-3 -0.020045-5e-3 -0.039198-0.0113-0.057878-0.0191-0.00467-2e-3 -0.00938-4e-3 -0.013953-6e-3 -0.00911-4e-3 -0.01816-9e-3 -0.026872-0.0134-0.00437-2e-3 -0.00865-5e-3 -0.012919-8e-3 -0.00433-3e-3 -0.0087-5e-3 -0.012919-8e-3 -0.00416-3e-3 -0.00836-5e-3 -0.012402-8e-3 -0.0041-3e-3 -0.00791-6e-3 -0.011886-9e-3 -0.00393-3e-3 -0.00756-6e-3 -0.011369-9e-3 -0.00381-3e-3 -0.00769-6e-3 -0.011369-0.01-0.00368-3e-3 -0.0073-7e-3 -0.010852-0.0103-0.00355-4e-3 -0.00692-7e-3 -0.010335-0.0109-0.00342-4e-3 -0.00706-7e-3 -0.010335-0.0109-0.00324-4e-3 -0.0062-8e-3 -0.0093-0.0114-0.00314-4e-3 -0.00631-8e-3 -0.0093-0.0119-0.00302-4e-3 -0.00591-8e-3 -0.00879-0.0124-0.00285-4e-3 -0.00557-8e-3 -0.00827-0.0124-0.00272-4e-3 -0.00519-9e-3 -0.00775-0.0129-0.00254-4e-3 -0.00485-8e-3 -0.00723-0.0129-0.00476-9e-3 -0.00934-0.0181-0.013436-0.0274-0.0041-9e-3 -0.00796-0.0188-0.011369-0.0284h-0.27544c0.0019 9e-3 0.0039 0.0186 0.0062 0.0279 0.071276 0.28848 0.33069 0.50126 0.64182 0.50126h0.52917c0.36645 0 0.66146-0.29501 0.66146-0.66145v-0.52917c0-0.36645-0.29501-0.66146-0.66146-0.66146h-0.39688z" fill="#fafafa" stroke-width=".1985"/></g></g></svg>
