<svg viewBox="0 0 24 24" fill="none" xmlns="http://www.w3.org/2000/svg">
  <path d="M18 20V21H11V20H18Z" fill="#FAFAFA"/>
  <path d="M9 18H8V13H9V18Z" fill="#FAFAFA"/>
  <path d="M21 18H20V13H21V18Z" fill="#FAFAFA"/>
  <path d="M18 11H11V10H18V11Z" fill="#FAFAFA"/>
  <rect x="7" y="19" width="3" height="3" rx="0.5" fill="#FAFAFA"/>
  <rect x="7" y="9" width="3" height="3" rx="0.5" fill="#FAFAFA"/>
  <rect x="19" y="19" width="3" height="3" rx="0.5" fill="#FAFAFA"/>
  <rect x="19" y="9" width="3" height="3" rx="0.5" fill="#FAFAFA"/>
  <path d="M9 14H6V13H9V14Z" fill="#FAFAFA"/>
  <path d="M16 11H15V6H16V11Z" fill="#FAFAFA"/>
  <path d="M4 11H3V6H4V11Z" fill="#FAFAFA"/>
  <path d="M13 4H6V3H13V4Z" fill="#FAFAFA"/>
  <rect x="2" y="2" width="3" height="3" rx="0.5" fill="#FAFAFA"/>
  <rect x="2" y="12" width="3" height="3" rx="0.5" fill="#FAFAFA"/>
  <rect x="14" y="2" width="3" height="3" rx="0.5" fill="#FAFAFA"/>
</svg>
