<svg viewBox="0 0 24 24" xmlns="http://www.w3.org/2000/svg">
  <path
     d="m2 12c-.554 0-1 .446-1 1v8c0 .554.446 1 1 1h14c.554 0 1-.446 1-1v-8c0-.554-.446-1-1-1h-2-1-8-1zm0 1h1 12 1v1 6 1h-1-12-1v-1-6z"
     fill="#ed8733" />
  <path
     fill="#f8db8f"
     d="M 2 13 L 2 21 L 16 21 L 16 13 L 2 13 z M 8 15 L 10 15 L 10 19 L 8 19 L 8 15 z " />
  <path
     d="M 9 14 A 2 2 0 0 0 7 16 L 7 19 C 7 19.554 7.446 20 8 20 L 9 20 C 9.554 20 10 19.554 10 19 L 10 17.728516 A 2 2 0 0 0 11 16 A 2 2 0 0 0 9 14 z M 9 15 A 1 1 0 0 1 10 16 A 1 1 0 0 1 9 17 L 9 19 L 8 19 L 8 16 A 1 1 0 0 1 9 15 z "
     style="fill:#ed8733" />
  <path
     d="m18 2a5 5 0 0 0 -5 5v5h1v-5a4 4 0 0 1 4-4 4 4 0 0 1 4 4v5h1v-5a5 5 0 0 0 -5-5z"
     fill="#ed8733" />
</svg>
