<svg viewBox="0 0 24 24" xmlns="http://www.w3.org/2000/svg">
  <path
     id="path2"
     d="M 3,2 C 2.447738,2.0000552 2.000055,2.4477381 2,3 v 13 c 5.5e-5,0.552262 0.447738,0.999945 1,1 h 3 v 3.5 1.146484 C 6,21.899591 6.322258,22 6.5,22 6.839959,22 7.120267,21.769805 7.669922,21.244141 l 3.46875,-3.123047 C 11.054515,17.759003 11,17.386711 11,17 11,16.96333 11.0052,16.92844 11.0078,16.892578 11.002715,16.949367 7.018252,20.522271 7,20.5 V 16 H 3 V 3 h 18 v 9.349609 l 1,0.667969 V 3 C 21.999945,2.4477381 21.552262,2.0000552 21,2 Z"
     style="fill:#fafafa" />
  <path
     d="M 15.999953,12 C 12.719844,12.0043 9.701836,13.792832 8.123,16.667969 8.251945,17.031703 8.480439,17.344556 8.77925,17.576172 10.101039,14.784863 12.911504,13.00371 15.999953,13 c -2.209139,0 -4,1.790861 -4,4 0,2.209139 1.790861,4 4,4 2.209139,0 4,-1.790861 4,-4 0.008,-2.079511 -1.578821,-3.81826 -3.650391,-4 2.961312,0.134551 5.605464,1.895565 6.871094,4.576172 0.301515,-0.233711 0.531909,-0.55005 0.660156,-0.917969 C 22.298738,13.785613 19.279394,12.000945 15.999953,12 Z m 0,2 c 1.656854,0 3,1.343146 3,3 0,1.656854 -1.343146,3 -3,3 -1.656854,0 -3,-1.343146 -3,-3 0,-1.656854 1.343146,-3 3,-3 z"
     fill="#fafafa" />
  <path
     d="m 15.999953,15 c -1.104569,0 -2,0.895431 -2,2 0,1.104569 0.895431,2 2,2 1.104569,0 2,-0.89543 2,-2 0.02896,-0.194894 0.02896,-0.392997 0,-0.587891 -0.174008,0.38903 -0.57545,0.625034 -1,0.587891 -0.552285,0 -1,-0.447715 -1,-1 -0.03682,-0.425027 0.200049,-0.826612 0.589844,-1 -0.195534,-0.02915 -0.39431,-0.02915 -0.589844,0 z"
     fill="#1e8bcd" />
</svg>
