<svg viewBox="0 0 24 24" xmlns="http://www.w3.org/2000/svg">
  <path
     d="m3 2c-.554 0-1 .446-1 1v18c0 .554.446 1 1 1h13c-1.11104 0-2.130396-.380655-2.962891-1h-10.037109v-15h18v6.349609c.347076.200781.679057.426724 1 .667969v-10.017578c0-.554-.446-1-1-1zm13 20h5c.554 0 1-.446 1-1v-3.570312c-.282603-.451985-.631312-.849045-1-1.22461v.796875.001953 3.996094h-2.035156c-.832884.620357-1.852818 1-2.964844 1z"
     style="fill:#fafafa" />
  <path
     d="m3 3h18v2h-18z"
     fill="#c8c6c4" />
  <path
     d="M 15.999953,12 C 12.719844,12.0043 9.701836,13.792832 8.123,16.667969 8.251945,17.031703 8.480439,17.344556 8.77925,17.576172 10.101039,14.784863 12.911504,13.00371 15.999953,13 c -2.209139,0 -4,1.790861 -4,4 0,2.209139 1.790861,4 4,4 2.209139,0 4,-1.790861 4,-4 0.008,-2.079511 -1.578821,-3.81826 -3.650391,-4 2.961312,0.134551 5.605464,1.895565 6.871094,4.576172 0.301515,-0.233711 0.531909,-0.55005 0.660156,-0.917969 C 22.298738,13.785613 19.279394,12.000945 15.999953,12 Z m 0,2 c 1.656854,0 3,1.343146 3,3 0,1.656854 -1.343146,3 -3,3 -1.656854,0 -3,-1.343146 -3,-3 0,-1.656854 1.343146,-3 3,-3 z"
     fill="#fafafa" />
  <path
     d="m 15.999953,15 c -1.104569,0 -2,0.895431 -2,2 0,1.104569 0.895431,2 2,2 1.104569,0 2,-0.89543 2,-2 0.02896,-0.194894 0.02896,-0.392997 0,-0.587891 -0.174008,0.38903 -0.57545,0.625034 -1,0.587891 -0.552285,0 -1,-0.447715 -1,-1 -0.03682,-0.425027 0.200049,-0.826612 0.589844,-1 -0.195534,-0.02915 -0.39431,-0.02915 -0.589844,0 z"
     fill="#1e8bcd" />
</svg>
