<svg viewBox="0 0 24 24" xmlns="http://www.w3.org/2000/svg"><path d="m2.8574219 2c-.474857 0-.8574219.3825647-.8574219.8574219v13.2851561c0 .474857.3825649.857422.8574219.857422h6.1425781v-1h-6v-13h6v3h1v-2.5859375l2.585938 2.5859375h1.414062l-1-1-2-2-1-1z" fill="#fafafa"/><path d="m4.5 13c-.277 0-.5.223-.5.5s.223.5.5.5h4.5v-1z" fill="#1e8bcd"/><path d="m4.5 10c-.277 0-.5.223-.5.5s.223.5.5.5h4.5v-1z" fill="#1e8bcd"/><path d="m10.857422 7c-.474857 0-.857422.3825647-.857422.8574219v13.2851561c0 .474857.382565.857422.857422.857422h2.496094l.449218-1h-2.802734v-13h6v3.142578c0 .474857.382565.857422.857422.857422h3.142578v4.119141l1 2.220703v-7.339844l-1-1-2-2-1-1zm7.142578 1.4140625 2.585938 2.5859375h-2.585938z" fill="#fafafa"/><g fill="#1e8bcd"><path d="m12.5 18c-.277 0-.5.223-.5.5s.223.5.5.5h2.203125l.449219-1z"/><path d="m12.5 15c-.277 0-.5.223-.5.5s.223.5.5.5h3.552734l.451172-1z"/></g><path d="m18.5 13-4.5 10h9z" fill="#f8db8f"/><path d="m18.5 15.433594-2.957031 6.568359h5.914062z" fill="#ed8733"/><g fill="#fafafa" fill-opacity=".965649"><rect height="3" ry=".5" width="1" x="18" y="17"/><rect height="1" ry=".470588" width="1" x="18" y="21"/></g></svg>