<svg viewBox="0 0 24 24" xmlns="http://www.w3.org/2000/svg"><path d="m5.5 2a4.5 4.5 0 0 0 -4.5 4.5 4.5 4.5 0 0 0 4.5 4.5 4.5 4.5 0 0 0 .5-.03125v4.53125c0 .277.223.5.5.5s.5-.223.5-.5v-4.763672-7.736328h2v12.5c0 .277.223.5.5.5s.5-.223.5-.5v-12.5h1.5c.277 0 .5-.223.5-.5s-.223-.5-.5-.5zm10 0c-.277 0-.5.223-.5.5s.223.5.5.5h6c.277 0 .5-.223.5-.5s-.223-.5-.5-.5zm-10.5 1h.5.5v.0410156 6.9199219.0390625h-.5-.5v-.0390625a3.5 3.5 0 0 1 -3-3.4609375 3.5 3.5 0 0 1 3-3.4589844z" fill="#83beec"/><path d="m2.5 18c-.277 0-.5.223-.5.5s.223.5.5.5h19c.277 0 .5-.223.5-.5s-.223-.5-.5-.5zm0 3c-.277 0-.5.223-.5.5s.223.5.5.5h19c.277 0 .5-.223.5-.5s-.223-.5-.5-.5z" fill="#fafafa"/><path d="m5 3v.041016a3.5 3.5 0 0 0 -3 3.458984 3.5 3.5 0 0 0 3 3.4609375v.0390625h.5.5v-.0390625-6.9199219-.0410156h-.5z" fill="#0063b1"/></svg>