<svg viewBox="0 0 24 24" xmlns="http://www.w3.org/2000/svg"><path d="m7 8h10v9h-10z" fill="#83beec"/><path d="m8 9h8v7h-8z" fill="#0063b1"/><path d="m2.4453125 3c-.2471217 0-.4453125.1981908-.4453125.4453125v.109375c0 .2471217.1981908.4453125.4453125.4453125h19.1093755c.247121 0 .445312-.1981908.445312-.4453125v-.109375c0-.2471217-.198191-.4453125-.445312-.4453125zm0 3c-.2471217 0-.4453125.1981908-.4453125.4453125v.109375c0 .2471217.1981908.4453125.4453125.4453125h19.1093755c.247121 0 .445312-.1981908.445312-.4453125v-.109375c0-.2471217-.198191-.4453125-.445312-.4453125zm0 3c-.2471217 0-.4453125.1981908-.4453125.4453125v.109375c0 .2471217.1981908.4453125.4453125.4453125h19.1093755c.247121 0 .445312-.1981908.445312-.4453125v-.109375c0-.2471217-.198191-.4453125-.445312-.4453125zm0 3c-.2471217 0-.4453125.198191-.4453125.445312v.109376c0 .247121.1981908.445312.4453125.445312h19.1093755c.247121 0 .445312-.198191.445312-.445312v-.109376c0-.247121-.198191-.445312-.445312-.445312zm0 3c-.2471217 0-.4453125.198191-.4453125.445312v.109376c0 .247121.1981908.445312.4453125.445312h19.1093755c.247121 0 .445312-.198191.445312-.445312v-.109376c0-.247121-.198191-.445312-.445312-.445312zm0 3c-.2471217 0-.4453125.198191-.4453125.445312v.109376c0 .247121.1981908.445312.4453125.445312h19.1093755c.247121 0 .445312-.198191.445312-.445312v-.109376c0-.247121-.198191-.445312-.445312-.445312zm0 3c-.2471217 0-.4453125.198191-.4453125.445312v.109376c0 .247121.1981908.445312.4453125.445312h19.1093755c.247121 0 .445312-.198191.445312-.445312v-.109376c0-.247121-.198191-.445312-.445312-.445312z" fill="#fafafa"/></svg>