<svg viewBox="0 0 24 24" xmlns="http://www.w3.org/2000/svg">
  <path
     d="M 2.857422,2 C 2.382565,2 2,2.3825647 2,2.8574219 V 16.142578 C 2,16.617435 2.382565,17 2.857422,17 H 9 V 16 H 3 V 3 h 6 v 3 h 1 V 3.4140625 L 12.585938,6 H 14 L 13,5 11,3 10,2 Z"
     fill="#fafafa" />
  <path
     d="M 4.5,13 C 4.223,13 4,13.223 4,13.5 4,13.777 4.223,14 4.5,14 H 9 v -1 z"
     fill="#1e8bcd"
     id="path6" />
  <path
     d="M 4.5,10 C 4.223,10 4,10.223 4,10.5 4,10.777 4.223,11 4.5,11 H 9 v -1 z"
     fill="#1e8bcd"
     id="path8" />
  <path
     d="M 10.857422,7 C 10.382565,7 10,7.3825647 10,7.8574219 V 21.142578 C 10,21.617435 10.382565,22 10.857422,22 h 2.496094 l 0.449218,-1 H 11 V 8 h 6 v 3.142578 C 17,11.617435 17.382565,12 17.857422,12 H 21 v 4.119141 l 1,2.220703 V 11 L 21,10 19,8 18,7 Z M 18,8.4140625 20.585938,11 H 18 Z"
     fill="#fafafa" />
  <g
     fill="#1e8bcd"
     id="g18">
    <path
       d="m 12.5,18 c -0.277,0 -0.5,0.223 -0.5,0.5 0,0.277 0.223,0.5 0.5,0.5 h 2.203125 l 0.449219,-1 z"
       id="path14" />
    <path
       d="m 12.5,15 c -0.277,0 -0.5,0.223 -0.5,0.5 0,0.277 0.223,0.5 0.5,0.5 h 3.552734 l 0.451172,-1 z"
       id="path16" />
  </g>
  <path
     d="M 18.5,13 14,23 h 9 z"
     fill="#ed8733"
     id="path20" />
  <path
     d="m 18.5,15.433594 -2.957031,6.568359 h 5.914062 z"
     fill="#f8db8f"
     id="path22" />
  <g
     fill="#fafafa"
     style="fill:#ed8733;fill-opacity:1">
    <rect
       height="3"
       ry="0.5"
       width="1"
       x="18"
       y="17"
       id="rect24"
       style="fill:#ed8733;fill-opacity:1" />
    <rect
       height="1"
       ry="0.470588"
       width="1"
       x="18"
       y="21"
       id="rect26"
       style="fill:#ed8733;fill-opacity:1" />
  </g>
</svg>
