<svg viewBox="0 0 24 24" xmlns="http://www.w3.org/2000/svg"><path d="m2.5 3c-.277 0-.5.223-.5.5s.223.5.5.5h19c.277 0 .5-.223.5-.5s-.223-.5-.5-.5zm0 3c-.277 0-.5.223-.5.5s.223.5.5.5h19c.277 0 .5-.223.5-.5s-.223-.5-.5-.5zm12 3c-.277 0-.5.223-.5.5s.223.5.5.5h7c.277 0 .5-.223.5-.5s-.223-.5-.5-.5zm0 3c-.277 0-.5.223-.5.5s.223.5.5.5h.197266c.138291-.091996.276243-.185171.421875-.265625a1.0027936 1.0027936 0 0 1 .007812-.005859c.320064-.173096.653956-.315345 1-.427735a1.0027936 1.0027936 0 0 1 .259766-.048828 1.0027936 1.0027936 0 0 1 .802734.339844l.359375.408203h.898438l.357422-.40625a1.0027936 1.0027936 0 0 1 .771484-.341797 1.0027936 1.0027936 0 0 1 .294922.050781c.505687.166327.98132.405636 1.423828.697266h.205078c.277 0 .5-.223.5-.5s-.223-.5-.5-.5zm-.183594 3.037109c-.046847.018469-.086384.047173-.125.078125.037804-.031462.078714-.059223.125-.078125zm7.367188 0c.046204.01881.08722.046809.125.078125-.038616-.030952-.078153-.059656-.125-.078125zm-7.517578.095703c-.043821.039823-.078039.087481-.105469.140626.026455-.053316.062902-.10041.105469-.140626zm-.105469.140626c-.028081.054404-.044329.11382-.050781.177734.006378-.063185.023914-.12359.050781-.177734zm-.050781.177734c-.001701.016849-.009766.031516-.009766.048828 0 .098284.035385.184581.083984.261719l.029297-.00586zm.074218.310547c.041034.065129.094403.118073.160157.158203-.063366-.041226-.119465-.093617-.160157-.158203zm7.75-.628907c.042555.040033.078921.087534.105469.140626-.02743-.053145-.061648-.100803-.105469-.140626zm.105469.140626c.026328.052651.041873.110559.048828.171874-.00699-.061609-.021658-.119236-.048828-.171874zm.050781.175781-.103515.30664.029297.00586c.048599-.077138.083984-.163435.083984-.261719 0-.017978-.007933-.033304-.009766-.050781zm-.074218.3125c-.040692.064586-.096791.116977-.160157.158203.065754-.04013.119123-.093074.160157-.158203zm-7.646485.175781c.069682.036747.145918.0625.230469.0625-.084969 0-.162273-.024181-.230469-.0625zm7.460938 0c-.068196.038319-.1455.0625-.230469.0625.084551 0 .160787-.025753.230469-.0625zm-19.230469 2.0625c-.277 0-.5.223-.5.5s.223.5.5.5h9.591797c-.0563-.329908-.093119-.663169-.09375-.998047a1.0027936 1.0027936 0 0 0 0-.001953zm0 3c-.277 0-.5.223-.5.5s.223.5.5.5h11.208984a1.0027936 1.0027936 0 0 1 .013672-.597656l.134766-.402344z" fill="#fafafa"/><path d="m2.5 8.5h9v8h-9z" fill="#0063b1" stroke="#83beec" stroke-linecap="round" stroke-linejoin="round"/><g fill="#1e8bcd"><path d="m23 18.000001c-.000647-.343279-.03664-.685584-.107422-1.021484l-2.320312-.464844.755859-2.236328c-.513244-.458667-1.115664-.806421-1.769531-1.021486l-1.558594 1.773439-.468749-.533203-1.093751-1.242188c-.288253.09362-.567398.213248-.833984.357422-.335712.185464-.64898.408939-.933594.666016l.757812 2.236328-2.316406.464844c-.072088.335769-.109428.67807-.111328 1.021484.000647.343279.03664.685584.107422 1.021484l2.320312.464844-.755859 2.236328c.513244.458667 1.115664.80642 1.769531 1.021485l1.558595-1.773438 1.562499 1.77539c.288253-.09362.567396-.213252.833984-.357422.335712-.185463.64897-.408938.933594-.666015l-.757812-2.236328 2.316406-.464844c.07209-.335769.109428-.67807.111328-1.021484zm-1-.179687.000001.359375-1.625001.326171a1.0001 1.0001 0 0 0 -.75 1.300782l.529297 1.5625.0019.0059-.312499.179688-1.091797-1.244141a1.0001 1.0001 0 0 0 -1.503906 0l-1.091797 1.244141-.3125-.179687.53125-1.56836a1.0001 1.0001 0 0 0 -.75-1.300782l-1.625-.326171-.000001-.359376 1.625001-.326171a1.0001 1.0001 0 0 0 .75-1.300782l-.53125-1.568359.3125-.179688 1.091797 1.244141a1.0001 1.0001 0 0 0 .865233.333985 1.0001 1.0001 0 0 0 .638673-.333985l1.091796-1.244141.312501.179688-.53125 1.568359a1.0001 1.0001 0 0 0 .75 1.300782z"/><path d="m19 18.000001a1 1 0 0 1 -1 1 1 1 0 0 1 -1-1 1 1 0 0 1 1-1 1 1 0 0 1 1 1z"/></g></svg>