<svg viewBox="0 0 24 24" xmlns="http://www.w3.org/2000/svg">
  <path
     fill="#fafafa"
     d="M 5 2 C 4.446 2 4 2.446 4 3 L 4 21 C 4 21.554 4.446 22 5 22 L 19 22 C 19.554 22 20 21.554 20 21 L 20 10.890625 L 20 7.25 L 20 7.0410156 C 20 6.5903357 20.098038 6.6156035 19.394531 5.9746094 L 16.087891 2.7363281 C 15.378366 1.9994706 15.377722 2 14.994141 2 L 14.662109 2 L 14 2 L 5 2 z M 5 3 L 14 3 L 14 7 C 14 7.554 14.446 8 15 8 L 19 8 L 19 21 L 5 21 L 5 3 z M 15 3 L 19 7 L 15 7 L 15 3 z " />
  <path
     id="path8"
     style="fill:#0063b1"
     d="M 13 9 L 13 10 L 18 10 L 18 9 L 13 9 z M 13 12 L 13 13 L 18 13 L 18 12 L 13 12 z M 6 15 L 6 16 L 18 16 L 18 15 L 6 15 z M 6 18 L 6 19 L 14 19 L 14 18 L 6 18 z " />
  <path
     d="m21.089844 15h-2.65625q-.46875 0-.722657-.214844-.253906-.214843-.351562-.605468l-1.523437-6.2304693h-11.0156255l-3.0664063 6.2304693q-.15625.332031-.4882812.585937-.33203125.234375-.76171875.234375h-2.67578125l13.027344-25.664063h3.496094zm-15.0390628-9.53125h9.1796878l-2.558594-10.5078125q-.09766-.46875-.234375-1.0742187-.117187-.625-.214844-1.328125-.273437.703125-.527343 1.328125-.253907.625-.46875 1.09375z"
     fill="#fafafa"
     transform="matrix(.27234042 0 0 .27234042 6.591489 8.914894)"
     id="path18" />
</svg>
