<svg viewBox="0 0 24 24" xmlns="http://www.w3.org/2000/svg">
  <path
     style="fill:#fafafa"
     d="M 10.474609,6 C 10.209694,6.012664 10,6.2199102 10,6.4746094 v 0.050781 C 10,6.788306 10.222999,7 10.5,7 h 7 C 17.777001,7 18,6.788306 18,6.5253906 V 6.4746096 C 18,6.2116942 17.777001,6.0000002 17.5,6.0000002 h -7 c -0.0087,0 -0.01685,-4.085e-4 -0.02539,0 z m 0,5 C 10.209694,11.012664 10,11.21991 10,11.474609 v 0.05078 C 10,11.788306 10.222999,12 10.5,12 h 7 c 0.277001,0 0.5,-0.211694 0.5,-0.474609 v -0.05078 C 18,11.211694 17.777001,11 17.5,11 h -7 c -0.0087,0 -0.01685,-4.09e-4 -0.02539,0 z m 0,5 C 10.209694,16.01267 10,16.219911 10,16.474609 v 0.05078 C 10,16.78831 10.223,17 10.5,17 h 1.59375 c 0.01342,-0.07739 0.02059,-0.155569 0.03711,-0.232422 A 1.0027936,1.0027936 0 0 1 12.898438,16 H 10.5 c -0.0087,0 -0.01685,-4.09e-4 -0.02539,0 z" />
  <path
     d="M 7.9999999,6.4999557 A 1.5,1.5 0 0 1 6.5,7.9999368 1.5,1.5 0 0 1 5,6.4999557 1.5,1.5 0 0 1 6.5,4.9999369 1.5,1.5 0 0 1 7.9999999,6.4999557 Z"
     fill="#0063b1"
      />
  <path
     d="M 7.9999999,11.49993 A 1.5,1.5 0 0 1 6.5,12.999949 1.5,1.5 0 0 1 5,11.49993 1.5,1.5 0 0 1 6.5,9.9999494 1.5,1.5 0 0 1 7.9999999,11.49993 Z"
     fill="#fb983b"
      />
  <path
     d="M 6.9999997,6.4999935 A 0.5,0.5 0 0 1 6.5,6.9999872 0.5,0.5 0 0 1 5.9999998,6.4999935 0.5,0.5 0 0 1 6.5,5.9999998 0.5,0.5 0 0 1 6.9999997,6.4999935 Z"
     fill="#83beec" />
  <path
     d="M 6.9999997,11.500044 A 0.5,0.5 0 0 1 6.5,12.000037 0.5,0.5 0 0 1 5.9999998,11.500044 0.5,0.5 0 0 1 6.5,11.00005 0.5,0.5 0 0 1 6.9999997,11.500044 Z"
     fill="#f8db8f" />
  <path
     d="M 6.9999997,16.500094 A 0.5,0.5 0 0 1 6.5,17.000087 0.5,0.5 0 0 1 5.9999998,16.500094 0.5,0.5 0 0 1 6.5,16.0001 0.5,0.5 0 0 1 6.9999997,16.500094 Z"
     fill="#fafafa" />
  <path
     id="path2"
     d="M 3,2 C 2.4460007,2 2,2.4460007 2,3 v 18 c 0,0.553999 0.4460007,1 1,1 h 10.708984 c -0.05631,-0.195975 -0.05154,-0.404462 0.01367,-0.597656 L 13.857422,21 H 3 V 3 h 18 v 9.808594 c 0.3547,0.205067 0.689101,0.446353 0.996094,0.720703 l 0.0039,0.0039 V 3 c 4e-5,-0.5539993 -0.446001,-1 -1,-1 z"
     style="fill:#fafafa;fill-opacity:1" />
  <g
     transform="matrix(3.7795275,0,0,3.7795275,2e-8,-1098.5196)">
    <rect
       height="0.26458299"
       rx="0.132292"
       ry="0.12556501"
       width="2.116667"
       x="2.645833"
       y="292.23746"
       style="fill:#fafafa;fill-opacity:1" />
    <rect
       height="0.26458299"
       rx="0.132292"
       ry="0.12556501"
       width="2.116667"
       x="2.645833"
       y="293.56036"
       id="rect8"
       style="fill:#fafafa;fill-opacity:1" />
    <path
       d="M 10.5,16 C 10.222999,16 10,16.211694 10,16.474609 v 0.05078 C 10,16.788306 10.222999,17 10.5,17 h 1.59375 c 0.01341,-0.07739 0.02061,-0.155568 0.03711,-0.232422 A 1.0027936,1.0027936 0 0 1 12.898438,16 Z"
       transform="matrix(0.26458334,0,0,0.26458334,0,290.64998)"
       style="fill:#fafafa;fill-opacity:1" />
  </g>
  <path
     d="M 7.9999999,6.4999557 A 1.5,1.5 0 0 1 6.5,7.9999368 1.5,1.5 0 0 1 5,6.4999557 1.5,1.5 0 0 1 6.5,4.9999369 1.5,1.5 0 0 1 7.9999999,6.4999557 Z"
     fill="#0063b1"
     id="path14-6"
     style="stroke-width:0.999999" />
  <path
     d="M 7.9999999,11.49993 A 1.5,1.5 0 0 1 6.5,12.999949 1.5,1.5 0 0 1 5,11.49993 1.5,1.5 0 0 1 6.5,9.9999494 1.5,1.5 0 0 1 7.9999999,11.49993 Z"
     fill="#fb983b"
     id="path16-7"
     style="stroke-width:0.999999" />
  <path
     d="M 7.9999999,16.499943 A 1.5,1.5 0 0 1 6.5,17.999924 1.5,1.5 0 0 1 5,16.499943 1.5,1.5 0 0 1 6.5,14.999924 1.5,1.5 0 0 1 7.9999999,16.499943 Z"
     fill="#797774" />
  <g
     fill-opacity="0.982993"
     id="g26"
     transform="matrix(3.7795275,0,0,3.7795275,2e-8,-1098.5196)"
     style="stroke-width:0.264583">
    <path
       d="m 1.8520833,292.36977 a 0.13229167,0.13229167 0 0 1 -0.1322916,0.13229 0.13229167,0.13229167 0 0 1 -0.1322917,-0.13229 0.13229167,0.13229167 0 0 1 0.1322917,-0.13229 0.13229167,0.13229167 0 0 1 0.1322916,0.13229 z"
       fill="#83beec"
       id="path20-3" />
    <path
       d="M 1.8520833,293.6927 A 0.13229167,0.13229167 0 0 1 1.7197917,293.82499 0.13229167,0.13229167 0 0 1 1.5875,293.6927 a 0.13229167,0.13229167 0 0 1 0.1322917,-0.13229 0.13229167,0.13229167 0 0 1 0.1322916,0.13229 z"
       fill="#f8db8f"
       id="path22-5" />
    <path
       d="m 1.8520833,295.01563 a 0.13229167,0.13229167 0 0 1 -0.1322916,0.13229 0.13229167,0.13229167 0 0 1 -0.1322917,-0.13229 0.13229167,0.13229167 0 0 1 0.1322917,-0.13229 0.13229167,0.13229167 0 0 1 0.1322916,0.13229 z"
       fill="#fafafa"
       id="path24-6" />
  </g>
  <path
     d="m 17,13 -0.349609,1.744141 -1.478516,-0.986329 -0.707031,0.707032 -0.707032,0.707031 0.986329,1.478516 L 13,17 v 1 1 l 1.744141,0.349609 -0.986329,1.478516 0.707032,0.707031 0.707031,0.707032 1.478516,-0.986329 L 17,23 h 1 1 l 0.349609,-1.744141 1.478516,0.986329 0.707031,-0.707032 0.707032,-0.707031 L 21.255859,19.349609 23,19 V 18 17 L 21.255859,16.650391 22.242188,15.171875 21.535156,14.464844 20.828125,13.757812 19.349609,14.744141 19,13 h -1 z m 0.800781,1 h 0.398438 l 0.300782,1.5 h 0.535155 L 19.414062,15.878906 20.6875,15.03125 20.96875,15.3125 20.121094,16.585938 20.5,16.964844 V 17.5 l 1.5,0.300782 v 0.398438 l -1.5,0.300782 v 0.535154 L 20.121094,19.414062 20.96875,20.6875 20.6875,20.96875 19.414062,20.121094 19.035156,20.5 H 18.5 L 18.199217,22 H 17.80078 L 17.5,20.5 H 16.964844 L 16.585938,20.121094 15.3125,20.96875 15.03125,20.6875 15.878906,19.414062 15.5,19.035156 V 18.5 L 14,18.199217 V 17.80078 l 1.5,-0.300783 V 16.964844 L 15.878906,16.585938 15.03125,15.3125 15.3125,15.03125 16.585938,15.878906 16.964844,15.5 H 17.5 Z M 18,16 a 2,2 0 0 0 -2,2 2,2 0 0 0 2,2 2,2 0 0 0 2,-2 2,2 0 0 0 -2,-2 z m 0,1 a 1,1 0 0 1 1,1 1,1 0 0 1 -1,1 1,1 0 0 1 -1,-1 1,1 0 0 1 1,-1 z"
     fill="#1e8bcd" />
</svg>
