<svg viewBox="0 0 24 24" fill="none" xmlns="http://www.w3.org/2000/svg">
<path d="M5 15V6H19V15H5Z" fill="#2B2B2B"/>
<path fill-rule="evenodd" clip-rule="evenodd" d="M7.49219 16.0003C7.36214 16.0044 7.23882 16.059 7.14844 16.1526L5.22464 18.0608C5.05135 18.2215 5.00163 18.3273 5.00003 18.4964C5.00163 18.6655 5.05135 18.7713 5.22464 18.9319L7.14844 20.8401C7.23882 20.9337 7.36214 20.9884 7.49219 20.9925C7.94651 21.004 8.17904 20.4522 7.85352 20.1351L6.69732 18.9945H8.51572C8.51942 18.9944 8.52179 18.9966 8.52549 18.9965H15.4747C15.4784 18.9966 15.4808 18.9944 15.4845 18.9945H17.3029L16.1467 20.1351C15.8212 20.4522 16.0537 21.004 16.508 20.9925C16.6381 20.9884 16.7614 20.9337 16.8518 20.8401L18.7756 18.9319C18.9488 18.7713 18.9986 18.6655 19.0002 18.4964C18.9986 18.3273 18.9488 18.2215 18.7755 18.0608L16.8517 16.1526C16.7614 16.059 16.638 16.0044 16.508 16.0003C16.0537 15.9888 15.8211 16.5406 16.1467 16.8577L17.3029 17.9983H15.4845C15.4808 17.9984 15.4784 17.9962 15.4747 17.9963H8.52546C8.52176 17.9961 8.51939 17.9984 8.51569 17.9983H6.69729L7.85349 16.8577C8.17901 16.5406 7.94651 15.9888 7.49219 16.0003Z" fill="#1E8BCD"/>
<path d="M5 15V6C5 5.446 5.446 5 6 5H18C18.554 5 19 5.446 19 6V15M18 15V6H6V15" fill="#E6E6E6"/>
</svg>
