<svg viewBox="0 0 16 16" fill="none" xmlns="http://www.w3.org/2000/svg">
<path d="M14 3L3 14L2 13L13 2L14 3Z" fill="#ED3D3B"/>
<path fill-rule="evenodd" clip-rule="evenodd" d="M5.58986 12.4092C7.33041 13.4027 9.55412 13.2784 11.1875 11.9736L10.3955 11.1816C9.21688 12.0628 7.68213 12.1821 6.4131 11.5859L5.58986 12.4092ZM9.53029 4.46875L10.3672 3.63183C8.65622 2.74922 6.53009 2.90992 4.95411 4.16894L5.74611 4.96093C6.86379 4.1252 8.30227 3.97383 9.53029 4.46875ZM11.585 6.41406C12.0129 7.32696 12.0779 8.38858 11.7276 9.37109L10.8213 8.46386C10.6037 8.24623 10.2528 8.24623 10.0352 8.46386C9.81756 8.6815 9.81754 9.03237 10.0352 9.25L11.6065 10.8213C11.8241 11.0388 12.175 11.0389 12.3926 10.8213L14.749 8.46386C14.9666 8.24627 14.9666 7.89635 14.749 7.67871C14.5314 7.46108 14.1815 7.46108 13.9639 7.67871L13.0332 8.60839C13.1491 7.55086 12.9224 6.49728 12.4072 5.59179L11.585 6.41406ZM4.53517 5.32129C4.31754 5.1038 3.9676 5.10374 3.75001 5.32129L1.39259 7.67871C1.17536 7.89632 1.17522 8.24634 1.39259 8.46386C1.61022 8.68149 1.96109 8.68149 2.17872 8.46386L3.10841 7.53418C3.00039 8.52019 3.19022 9.50283 3.6338 10.3652L4.47072 9.52832C4.12256 8.66247 4.0891 7.68311 4.41408 6.77148L5.3213 7.67871C5.53881 7.8959 5.88889 7.89579 6.10646 7.67871C6.32409 7.46108 6.32409 7.11021 6.10646 6.89257L4.53517 5.32129Z" fill="#FAFAFA"/>
</svg>
