<svg viewBox="0 0 48 48" fill="none" xmlns="http://www.w3.org/2000/svg">
<path d="M25.728 13.239V34.761H37.358L39.358 33.3262H27.162V14.6742L38.792 14.6424L37.9546 13.2076L25.728 13.239Z" fill="#2B2B2B"/>
<path d="M30.033 18.978H41.228V21.8476H30.033V18.978Z" fill="#2B2B2B"/>
<path d="M22.167 13.2393H17.811C17.429 13.2393 17.1194 13.5489 17.1194 13.9309V13.9825C17.1194 14.3644 17.429 14.6741 17.811 14.6741H22.167C22.549 14.6741 22.8586 14.3644 22.8586 13.9825V13.9309C22.8586 13.5489 22.549 13.2393 22.167 13.2393Z" fill="#2B2B2B" stroke="#A8A8A8" stroke-opacity="0.52941" stroke-width="0.499999" stroke-linejoin="bevel"/>
<path d="M22.1412 17.5437H16.402C16.0058 17.5437 15.6846 17.8649 15.6846 18.2611C15.6846 18.6573 16.0058 18.9785 16.402 18.9785H22.1412C22.5374 18.9785 22.8586 18.6573 22.8586 18.2611C22.8586 17.8649 22.5374 17.5437 22.1412 17.5437Z" fill="#2B2B2B" stroke="#A8A8A8" stroke-opacity="0.52941" stroke-width="0.499999" stroke-linejoin="bevel"/>
<path d="M22.1412 21.848H14.9672C14.571 21.848 14.2498 22.1692 14.2498 22.5654C14.2498 22.9616 14.571 23.2828 14.9672 23.2828H22.1412C22.5374 23.2828 22.8586 22.9616 22.8586 22.5654C22.8586 22.1692 22.5374 21.848 22.1412 21.848Z" fill="#2B2B2B" stroke="#A8A8A8" stroke-opacity="0.52941" stroke-width="0.499999" stroke-linejoin="bevel"/>
<path d="M22.1412 26.1525H16.402C16.0058 26.1525 15.6846 26.4737 15.6846 26.8699C15.6846 27.2661 16.0058 27.5873 16.402 27.5873H22.1412C22.5374 27.5873 22.8586 27.2661 22.8586 26.8699C22.8586 26.4737 22.5374 26.1525 22.1412 26.1525Z" fill="#2B2B2B" stroke="#A8A8A8" stroke-opacity="0.52941" stroke-width="0.499999" stroke-linejoin="bevel"/>
<path d="M22.4999 30.4569H18.1955C17.9974 30.4569 17.8368 30.6175 17.8368 30.8156V31.533C17.8368 31.7311 17.9974 31.8917 18.1955 31.8917H22.4999C22.698 31.8917 22.8586 31.7311 22.8586 31.533V30.8156C22.8586 30.6175 22.698 30.4569 22.4999 30.4569Z" fill="#2B2B2B" stroke="#A8A8A8" stroke-opacity="0.52941" stroke-width="0.499999" stroke-linejoin="bevel"/>
<path d="M24.0065 42C21.5252 42 19.1954 41.5277 17.017 40.583C14.8386 39.6383 12.9307 38.348 11.293 36.712C9.65535 35.076 8.36385 33.1699 7.4185 30.9935C6.47285 28.8172 6 26.4882 6 24.0065C6 21.5175 6.47233 19.1773 7.417 16.986C8.36165 14.795 9.652 12.889 11.288 11.268C12.924 9.647 14.8302 8.36385 17.0065 7.4185C19.1829 6.47285 21.5119 6 23.9935 6C26.4825 6 28.8227 6.47234 31.014 7.417C33.205 8.36165 35.111 9.64365 36.732 11.263C38.353 12.8824 39.6362 14.7867 40.5815 16.976C41.5272 19.165 42 21.5042 42 23.9935C42 26.4749 41.5277 28.8047 40.583 30.983C39.6383 33.1614 38.3564 35.0694 36.737 36.707C35.1176 38.3447 33.2133 39.6362 31.024 40.5815C28.835 41.5272 26.4959 42 24.0065 42ZM24 40.4615C28.5794 40.4615 32.468 38.8609 35.6655 35.6595C38.8629 32.4582 40.4615 28.5715 40.4615 24C40.4615 19.4207 38.8629 15.532 35.6655 12.3345C32.4679 9.13715 28.5795 7.5385 24 7.5385C19.4284 7.5385 15.542 9.13715 12.3405 12.3345C9.13915 15.5322 7.5385 19.4205 7.5385 24C7.5385 28.5717 9.13915 32.458 12.3405 35.6595C15.5419 38.861 19.4285 40.4615 24 40.4615Z" fill="#2B2B2B" stroke="#A8A8A8" stroke-opacity="0.96903" stroke-width="0.5"/>
</svg>
