<svg viewBox="0 0 24 24" fill="none" xmlns="http://www.w3.org/2000/svg">
<path d="M9.5 9L16.5 8.99998C16.7761 8.99998 17 8.77613 17 8.49998C17 8.22384 16.7761 7.99998 16.5 7.99998L9.5 8C9.22386 8 9 8.22386 9 8.5C9 8.77614 9.22386 9 9.5 9Z" fill="#FAFAFA"/>
<path d="M9.5 9L16.5 8.99998C16.7761 8.99998 17 8.77613 17 8.49998C17 8.22384 16.7761 7.99998 16.5 7.99998L9.5 8C9.22386 8 9 8.22386 9 8.5C9 8.77614 9.22386 9 9.5 9Z" fill="#FAFAFA"/>
<path d="M6.5 9L7.5 9C7.77614 9 8 8.77614 8 8.5C8 8.22386 7.77614 8 7.5 8L6.5 8C6.22386 8 6 8.22386 6 8.5C6 8.77614 6.22386 9 6.5 9Z" fill="#1E8BCD"/>
<path d="M6.5 13L7.5 13C7.77614 13 8 12.7761 8 12.5C8 12.2239 7.77614 12 7.5 12L6.5 12C6.22386 12 6 12.2239 6 12.5C6 12.7761 6.22386 13 6.5 13Z" fill="#1E8BCD"/>
<path d="M6.5 17L7.5 17C7.77614 17 8 16.7761 8 16.5C8 16.2239 7.77614 16 7.5 16L6.5 16C6.22386 16 6 16.2239 6 16.5C6 16.7761 6.22386 17 6.5 17Z" fill="#1E8BCD"/>
<path d="M9.5 17L16.5 17C16.7761 17 17 16.7761 17 16.5C17 16.2238 16.7761 16 16.5 16L9.5 16C9.22386 16 9 16.2239 9 16.5C9 16.7761 9.22386 17 9.5 17Z" fill="#FAFAFA"/>
<path d="M9.5 13L16.5 13C16.7761 13 17 12.7761 17 12.5C17 12.2238 16.7761 12 16.5 12L9.5 12C9.22386 12 9 12.2239 9 12.5C9 12.7761 9.22386 13 9.5 13Z" fill="#FAFAFA"/>
<path d="M6 16.5C6 16.7761 6.22386 17 6.5 17C6.77614 17 7 16.7761 7 16.5C7 16.2239 6.77614 16 6.5 16C6.22386 16 6 16.2239 6 16.5Z" fill="#1E8BCD"/>
<path d="M6 12.5C6 12.7761 6.22386 13 6.5 13C6.77614 13 7 12.7761 7 12.5C7 12.2239 6.77614 12 6.5 12C6.22386 12 6 12.2239 6 12.5Z" fill="#1E8BCD"/>
</svg>
