<svg height="8.4667mm" viewBox="0 0 32 32" width="8.4667mm" xmlns="http://www.w3.org/2000/svg" xmlns:xlink="http://www.w3.org/1999/xlink"><linearGradient id="a" gradientTransform="matrix(1.1429 0 0 1 -43.674 0)" gradientUnits="userSpaceOnUse" x1="291.71" x2="318.78" y1="742.23" y2="742.23"><stop offset="0" stop-color="#aaa" stop-opacity=".084"/><stop offset=".2389" stop-color="#aaa"/><stop offset=".49998" stop-color="#aaa"/><stop offset=".75984" stop-color="#aaa"/><stop offset="1" stop-color="#aaa" stop-opacity=".044"/></linearGradient><radialGradient id="b" cx="16" cy="28.281" gradientTransform="matrix(1.2308 0 0 .69231 -3.6923 9.4209)" gradientUnits="userSpaceOnUse" r="13"><stop offset="0" stop-color="#afafaf"/><stop offset="1" stop-color="#a0a0a0"/></radialGradient><radialGradient id="c" cx="305.95" cy="719.11" gradientTransform="matrix(1.1156 0 0 .80618 -35.51 137.9)" gradientUnits="userSpaceOnUse" r="4.9469"><stop offset="0" stop-color="#c7c7c7"/><stop offset="1" stop-color="#c7c7c7" stop-opacity="0"/></radialGradient><g transform="translate(-289.71 -712.23)"><path d="m292.71 741.23h-3l3 1-1 1h27v-1l3-1h-3z" fill="url(#a)"/><g stroke-linecap="round" stroke-linejoin="round" stroke-opacity=".98431"><path d="m16 2.9492c-2.9083 0-5.606 1.7356-5.5 4.0508-.44134 1.2582.59978 4.2841 0 4 0 0-.44452.66615 0 2l2 2.5s.1368 3.3681 0 3.5c-.49282 2.3328-8.375 4.4464-9 6.5v4h25v-4c-.625-2.0536-8.5072-4.1672-9-6.5-.1368-.13194 0-3.5 0-3.5l2-2.5c.44452-1.3339 0-2 0-2-.59978.2841.44134-2.7418 0-4-.48901-2.3471-2.5917-4.0508-5.5-4.0508z" fill="url(#b)" stroke="#868686" transform="translate(289.71 712.23)"/><path d="m310.16 719.13c-.39519-1.686-2.0945-2.9097-4.4448-2.9097s-4.5305 1.2467-4.4449 2.9097" fill="none" stroke="url(#c)"/></g></g></svg>