<svg version="1.1" viewBox="0 0 24 24" xmlns="http://www.w3.org/2000/svg"><path d="m18.5 18.5-5-5" fill="#d4d4d4" stroke="#d4d4d4" stroke-linecap="round" stroke-width="2"/><circle cx="12" cy="12" r="7"/><path d="m12 5a7 7 0 0 0-7 7 7 7 0 0 0 7 7 7 7 0 0 0 7-7 7 7 0 0 0-7-7zm0 0.875a6.125 6.125 0 0 1 6.125 6.125 6.125 6.125 0 0 1-6.125 6.125 6.125 6.125 0 0 1-6.125-6.125 6.125 6.125 0 0 1 6.125-6.125z" fill="#d4d4d4"/><path d="m10 15h2l0.0057-4.9956-0.0072-0.51072-1.1565 1.1007c-0.09712 0.08093-0.17951 0.12197-0.27258 0.09769-0.08902-0.02833-0.17717-0.14506-0.21359-0.19767l-0.3558-0.4944 2-2h1v7h1.2881v1h-4.2881z" fill="#1e8bcd"/></svg>

