<!-- Created with Inkscape (http://www.inkscape.org/) -->
<svg width="900" height="600" version="1.1" viewBox="0 0 238.12 158.75" xmlns="http://www.w3.org/2000/svg"><defs><filter id="filter14" x="-.026573" y="-.042516" width="1.0531" height="1.085" color-interpolation-filters="sRGB"><feGaussianBlur stdDeviation="2.1781894"/></filter></defs><rect x="13.229" y="13.229" width="211.67" height="132.29" rx="1.5875" ry="1.5875" display="none" fill="#f9f9f9" stroke="#fff" stroke-width=".79375" style="paint-order:fill markers stroke"/><rect x="55.499" y="4.8784" width="177.2" height="28.343" rx="1.5875" ry="1.5875" display="none" fill="#e8e8e8" style="paint-order:fill markers stroke"/><rect x="13.229" y="13.229" width="211.67" height="132.29" rx="1.5875" ry="1.5875" fill="#989898" filter="url(#filter14)" stroke="#fff" stroke-width=".79375" style="paint-order:fill markers stroke"/><g><path d="m14.817 13.229h208.49c0.87947 0 1.5875 0.70802 1.5875 1.5875v129.12c0 0.87947-0.70803 1.5875-1.5875 1.5875h-208.49c-0.87948 0-1.5875-0.70803-1.5875-1.5875v-129.12c0-0.87948 0.70802-1.5875 1.5875-1.5875z" fill="#e9e9e9" stop-color="#000000" style="paint-order:fill markers stroke"/><path d="m14.816 12.832c-1.0925 0-1.9844 0.8919-1.9844 1.9844v129.12c0 1.0925 0.8919 1.9844 1.9844 1.9844h208.49c1.0925 0 1.9844-0.8919 1.9844-1.9844v-129.12c0-1.0925-0.8919-1.9844-1.9844-1.9844zm0 0.79492h208.49c0.66647 0 1.1895 0.52298 1.1895 1.1895v129.12c0 0.66647-0.52299 1.1895-1.1895 1.1895h-208.49c-0.66647 0-1.1895-0.52299-1.1895-1.1895v-129.12c0-0.66647 0.52298-1.1895 1.1895-1.1895z" fill="#fff" stop-color="#000000" style="paint-order:fill markers stroke"/></g><path d="m14.817 33.222c-0.87948 0-1.5875 0.70802-1.5875 1.5875v109.12c0 0.87947 0.70802 1.5875 1.5875 1.5875h208.49c0.87947 0 1.5875-0.70803 1.5875-1.5875v-110.71z" fill="#f2f2f2" stroke="#fff" stroke-width=".79375" style="paint-order:fill markers stroke"/><g transform="translate(0 1.7942)"><path d="m32.411 45.566h173.3v98.16h-173.3z" fill="#f9f9f9" stop-color="#000000" style="paint-order:fill markers stroke"/><path d="m206.11 144.12v-98.953h-174.1v98.953m0.79492-98.16h172.51v98.16h-172.51z" fill="#e6e6e6" stop-color="#000000" style="paint-order:fill markers stroke"/></g><g transform="translate(0 1.7942)"><rect x="13.629" y="11.833" width="210.87" height="6.6146" rx="1.0583" ry="1.0583" fill="#0369a2" style="paint-order:fill markers stroke"/><rect x="13.629" y="17.389" width="210.87" height="8.4667" fill="#f9f9f9" style="paint-order:fill markers stroke"/><rect x="19.979" y="19.241" width="4.7625" height="4.7625" rx=".79375" ry=".79375" fill="#ccc" style="paint-order:fill markers stroke"/><rect x="19.979" y="13.817" width="12.7" height="1.5875" fill="#f2f2f2" style="paint-order:fill markers stroke"/><rect x="36.473" y="13.817" width="6.35" height="1.5875" fill="#f2f2f2" style="paint-order:fill markers stroke"/><rect x="58.879" y="13.817" width="8.4667" height="1.5875" fill="#f2f2f2" style="paint-order:fill markers stroke"/><rect x="81.285" y="13.817" width="8.4667" height="1.5875" fill="#f2f2f2" style="paint-order:fill markers stroke"/><rect x="71.141" y="13.817" width="6.35" height="1.5875" fill="#f2f2f2" style="paint-order:fill markers stroke"/><rect x="93.547" y="13.817" width="8.4667" height="1.5875" fill="#f2f2f2" style="paint-order:fill markers stroke"/><rect x="46.618" y="13.817" width="8.4667" height="1.5875" fill="#f2f2f2" style="paint-order:fill markers stroke"/><rect x="105.81" y="13.817" width="6.35" height="1.5875" fill="#f2f2f2" style="paint-order:fill markers stroke"/><rect x="115.95" y="13.817" width="6.35" height="1.5875" fill="#f2f2f2" style="paint-order:fill markers stroke"/><rect x="26.859" y="19.241" width="4.7625" height="4.7625" rx=".79375" ry=".79375" fill="#ccc" style="paint-order:fill markers stroke"/><rect x="33.738" y="19.241" width="4.7625" height="4.7625" rx=".79375" ry=".79375" fill="#ccc" style="paint-order:fill markers stroke"/><rect x="40.618" y="19.241" width="4.7625" height="4.7625" rx=".79375" ry=".79375" fill="#ccc" style="paint-order:fill markers stroke"/><rect x="47.498" y="19.241" width="4.7625" height="4.7625" rx=".79375" ry=".79375" fill="#ccc" style="paint-order:fill markers stroke"/><rect x="54.377" y="19.241" width="4.7625" height="4.7625" rx=".79375" ry=".79375" fill="#ccc" style="paint-order:fill markers stroke"/><rect x="61.257" y="19.241" width="14.288" height="4.7625" rx=".79375" ry=".79375" fill="#ccc" style="paint-order:fill markers stroke"/><rect x="77.662" y="19.241" width="23.813" height="4.7625" rx=".79375" ry=".79375" fill="#ccc" style="paint-order:fill markers stroke"/><rect x="103.59" y="19.241" width="10.318" height="4.7625" rx=".79375" ry=".79375" fill="#ccc" style="paint-order:fill markers stroke"/><rect x="116.03" y="19.241" width="4.7625" height="4.7625" rx=".79375" ry=".79375" fill="#ccc" style="paint-order:fill markers stroke"/><rect x="122.91" y="19.241" width="4.7625" height="4.7625" rx=".79375" ry=".79375" fill="#ccc" style="paint-order:fill markers stroke"/><rect x="129.79" y="19.241" width="4.7625" height="4.7625" rx=".79375" ry=".79375" fill="#ccc" style="paint-order:fill markers stroke"/><rect x="136.67" y="19.241" width="4.7625" height="4.7625" rx=".79375" ry=".79375" fill="#ccc" style="paint-order:fill markers stroke"/><rect x="143.54" y="19.241" width="4.7625" height="4.7625" rx=".79375" ry=".79375" fill="#ccc" style="paint-order:fill markers stroke"/><rect x="150.42" y="19.241" width="4.7625" height="4.7625" rx=".79375" ry=".79375" fill="#ccc" style="paint-order:fill markers stroke"/><rect x="157.3" y="19.241" width="4.7625" height="4.7625" rx=".79375" ry=".79375" fill="#ccc" style="paint-order:fill markers stroke"/><rect x="164.18" y="19.241" width="4.7625" height="4.7625" rx=".79375" ry=".79375" fill="#ccc" style="paint-order:fill markers stroke"/><rect x="171.06" y="19.241" width="4.7625" height="4.7625" rx=".79375" ry=".79375" fill="#ccc" style="paint-order:fill markers stroke"/><rect x="177.94" y="19.241" width="4.7625" height="4.7625" rx=".79375" ry=".79375" fill="#ccc" style="paint-order:fill markers stroke"/><rect x="214.97" y="19.241" width="4.7625" height="4.7625" rx=".79375" ry=".79375" fill="#ccc" style="paint-order:fill markers stroke"/></g><rect x="48.12" y="61.78" width="47.146" height="34.424" fill="#f2f2f2" stroke="#e6e6e6" stroke-width=".79375" style="paint-order:fill markers stroke"/><rect x="101.26" y="61.383" width="78.846" height="3.7042" fill="#e6e6e6" style="paint-order:fill markers stroke"/><rect x="101.26" y="69.321" width="65.295" height="2.6458" fill="#e6e6e6" style="paint-order:fill markers stroke"/><rect x="101.26" y="74.613" width="53.975" height="2.6458" fill="#e6e6e6" style="paint-order:fill markers stroke"/><rect x="101.26" y="79.904" width="62.649" height="2.6458" fill="#e6e6e6" style="paint-order:fill markers stroke"/><rect x="101.26" y="85.196" width="57.622" height="2.6458" fill="#e6e6e6" style="paint-order:fill markers stroke"/><rect x="47.723" y="104.77" width="69.85" height="2.6458" fill="#e6e6e6" style="paint-order:fill markers stroke"/><rect x="47.723" y="110.07" width="69.85" height="2.6458" fill="#e6e6e6" style="paint-order:fill markers stroke"/><rect x="47.723" y="115.36" width="69.85" height="2.6458" fill="#e6e6e6" style="paint-order:fill markers stroke"/><rect x="47.723" y="120.65" width="69.85" height="2.6458" fill="#e6e6e6" style="paint-order:fill markers stroke"/><rect x="120.55" y="104.77" width="69.85" height="2.6458" fill="#e6e6e6" style="paint-order:fill markers stroke"/><rect x="120.55" y="110.07" width="69.85" height="2.6458" fill="#e6e6e6" style="paint-order:fill markers stroke"/><rect x="120.55" y="115.36" width="69.85" height="2.6458" fill="#e6e6e6" style="paint-order:fill markers stroke"/><rect x="120.55" y="120.65" width="69.85" height="2.6458" fill="#e6e6e6" style="paint-order:fill markers stroke"/><rect x="47.723" y="125.94" width="69.85" height="2.6458" fill="#e6e6e6" style="paint-order:fill markers stroke"/><rect x="47.723" y="131.23" width="69.85" height="2.6458" fill="#e6e6e6" style="paint-order:fill markers stroke"/><rect x="47.723" y="136.52" width="69.85" height="2.6458" fill="#e6e6e6" style="paint-order:fill markers stroke"/><rect x="120.55" y="125.94" width="59.267" height="2.6458" fill="#e6e6e6" style="paint-order:fill markers stroke"/></svg>
