<!-- Created with Inkscape (http://www.inkscape.org/) -->
<svg width="900" height="600" version="1.1" viewBox="0 0 238.12 158.75" xmlns="http://www.w3.org/2000/svg"><defs><filter id="filter14" x="-.026573" y="-.042516" width="1.0531" height="1.085" color-interpolation-filters="sRGB"><feGaussianBlur stdDeviation="2.1781894"/></filter></defs><rect x="13.229" y="13.229" width="211.67" height="132.29" rx="1.5875" ry="1.5875" fill="#989898" filter="url(#filter14)" stroke="#fff" stroke-width=".79375" style="paint-order:fill markers stroke"/><rect x="13.229" y="13.229" width="211.67" height="132.29" rx="1.5875" ry="1.5875" fill="#f2f2f2" stroke="#fff" stroke-width=".79375" style="paint-order:fill markers stroke"/><path d="m14.817 13.229h208.49c0.87947 0 1.5875 0.70802 1.5875 1.5875v129.12c0 0.87947-0.70803 1.5875-1.5875 1.5875h-208.49c-0.87948 0-1.5875-0.70803-1.5875-1.5875v-129.12c0-0.87948 0.70802-1.5875 1.5875-1.5875z" fill="#f9f9f9" stroke="#fff" stroke-width=".79375" style="paint-order:fill markers stroke"/><g transform="translate(0 1.7942)"><rect x="13.229" y="14.49" width="211.67" height="28.575" fill="#f2f2f2" style="paint-order:fill markers stroke"/><path transform="translate(0 -1.7942)" d="m14.817 13.229c-0.87948 0-1.5875 0.70802-1.5875 1.5875v14.245c0 0.87948 0.70802 1.5875 1.5875 1.5875h41.385v-10.786c0-0.87948 0.70802-1.5875 1.5875-1.5875h37.042c0.87948 0 1.5875 0.70802 1.5875 1.5875v10.786h126.89c0.87947 0 1.5875-0.70802 1.5875-1.5875v-14.245c0-0.87948-0.70803-1.5875-1.5875-1.5875z" fill="#0369a2" stroke-width="2.5186" style="paint-order:fill markers stroke"/><rect x="20.079" y="21.489" width="25.929" height="3.175" fill="#f2f2f2" style="paint-order:fill markers stroke"/><rect x="63.346" y="21.489" width="25.929" height="3.175" fill="#0369a2" style="paint-order:fill markers stroke"/><rect x="106.61" y="21.489" width="25.929" height="3.175" fill="#f2f2f2" style="paint-order:fill markers stroke"/><rect x="149.88" y="21.489" width="25.929" height="3.175" fill="#f2f2f2" style="paint-order:fill markers stroke"/><rect x="193.15" y="21.489" width="25.929" height="3.175" fill="#f2f2f2" style="paint-order:fill markers stroke"/><g><path d="m32.411 45.566h173.3v98.16h-173.3z" fill="#f9f9f9" stop-color="#000000" style="paint-order:fill markers stroke"/><path d="m206.11 144.12v-94.708h-174.1v94.708m0.79492-93.915h172.51v93.915h-172.51z" fill="#e6e6e6" stop-color="#000000" style="paint-order:fill markers stroke"/></g><rect x="13.229" y="42.801" width="211.67" height=".26458" fill="#e6e6e6" style="paint-order:fill markers stroke"/></g><g transform="translate(55.533 -44.663)" fill="#ccc"><rect x="-34.66" y="77.881" width="3.175" height="3.175" rx=".79375" ry=".79375" style="paint-order:fill markers stroke"/><rect x="-18.785" y="77.881" width="3.175" height="3.175" rx=".79375" ry=".79375" style="paint-order:fill markers stroke"/><rect x="15.61" y="77.881" width="3.175" height="3.175" rx=".79375" ry=".79375" style="paint-order:fill markers stroke"/><rect x="20.902" y="77.881" width="3.175" height="3.175" rx=".79375" ry=".79375" style="paint-order:fill markers stroke"/><rect x="26.194" y="77.881" width="3.175" height="3.175" rx=".79375" ry=".79375" style="paint-order:fill markers stroke"/><rect x="31.485" y="77.881" width="3.175" height="3.175" rx=".79375" ry=".79375" style="paint-order:fill markers stroke"/><rect x="-28.31" y="78.94" width="6.35" height="6.35" rx=".79375" ry=".79375" style="paint-order:fill markers stroke"/><rect x="36.777" y="77.881" width="3.175" height="3.175" rx=".79375" ry=".79375" style="paint-order:fill markers stroke"/><rect x="-34.66" y="83.173" width="3.175" height="3.175" rx=".79375" ry=".79375" style="paint-order:fill markers stroke"/><rect x="26.194" y="83.173" width="3.175" height="3.175" rx=".79375" ry=".79375" style="paint-order:fill markers stroke"/><rect x="31.485" y="83.173" width="3.175" height="3.175" rx=".79375" ry=".79375" style="paint-order:fill markers stroke"/><rect x="36.777" y="83.173" width="3.175" height="3.175" rx=".79375" ry=".79375" style="paint-order:fill markers stroke"/><rect x="-18.785" y="83.173" width="3.175" height="3.175" rx=".79375" ry=".79375" style="paint-order:fill markers stroke"/><rect x="-13.494" y="77.881" width="7.9375" height="3.175" rx=".79375" ry=".79375" style="paint-order:fill markers stroke"/><rect x="-3.4396" y="77.881" width="16.933" height="3.175" rx=".79375" ry=".79375" style="paint-order:fill markers stroke"/><rect x="-8.7312" y="83.173" width="3.175" height="3.175" rx=".79375" ry=".79375" style="paint-order:fill markers stroke"/><rect x="1.8521" y="83.173" width="3.175" height="3.175" rx=".79375" ry=".79375" style="paint-order:fill markers stroke"/><rect x="15.61" y="83.173" width="3.175" height="3.175" rx=".79375" ry=".79375" style="paint-order:fill markers stroke"/><rect x="20.902" y="83.173" width="3.175" height="3.175" rx=".79375" ry=".79375" style="paint-order:fill markers stroke"/><rect x="57.944" y="77.484" width="51.254" height="10.054" rx=".79375" ry=".79375" style="paint-order:fill markers stroke"/><rect x="-13.494" y="83.173" width="3.175" height="3.175" rx=".79375" ry=".79375" style="paint-order:fill markers stroke"/><rect x="-3.4396" y="83.173" width="3.175" height="3.175" rx=".79375" ry=".79375" style="paint-order:fill markers stroke"/><rect x="-3.4396" y="83.173" width="3.175" height="3.175" rx=".79375" ry=".79375" style="paint-order:fill markers stroke"/><rect x="7.1438" y="83.173" width="6.35" height="3.175" rx=".79375" ry=".79375" style="paint-order:fill markers stroke"/><rect x="52.652" y="77.881" width="3.175" height="3.175" rx=".79375" ry=".79375" style="paint-order:fill markers stroke"/><rect x="43.127" y="78.94" width="6.35" height="6.35" rx=".79375" ry=".79375" style="paint-order:fill markers stroke"/><rect x="52.652" y="83.173" width="3.175" height="3.175" rx=".79375" ry=".79375" style="paint-order:fill markers stroke"/><rect x="111.31" y="77.881" width="3.175" height="3.175" rx=".79375" ry=".79375" style="paint-order:fill markers stroke"/><rect x="111.31" y="83.173" width="3.175" height="3.175" rx=".79375" ry=".79375" style="paint-order:fill markers stroke"/><rect x="116.61" y="77.881" width="6.35" height="3.175" rx=".79375" ry=".79375" style="paint-order:fill markers stroke"/><rect x="116.61" y="83.173" width="6.35" height="3.175" rx=".79375" ry=".79375" style="paint-order:fill markers stroke"/><rect x="126.66" y="77.881" width="3.175" height="3.175" rx=".79375" ry=".79375" style="paint-order:fill markers stroke"/><rect x="126.66" y="83.173" width="3.175" height="3.175" rx=".79375" ry=".79375" style="paint-order:fill markers stroke"/></g><rect x="48.12" y="66.026" width="47.146" height="34.424" fill="#f2f2f2" stroke="#e6e6e6" stroke-width=".79375" style="paint-order:fill markers stroke"/><rect x="101.26" y="65.629" width="78.846" height="3.7042" fill="#e6e6e6" style="paint-order:fill markers stroke"/><rect x="101.26" y="73.566" width="65.295" height="2.6458" fill="#e6e6e6" style="paint-order:fill markers stroke"/><rect x="101.26" y="78.858" width="53.975" height="2.6458" fill="#e6e6e6" style="paint-order:fill markers stroke"/><rect x="101.26" y="84.15" width="62.649" height="2.6458" fill="#e6e6e6" style="paint-order:fill markers stroke"/><rect x="101.26" y="89.441" width="57.622" height="2.6458" fill="#e6e6e6" style="paint-order:fill markers stroke"/><rect x="47.723" y="109.02" width="69.85" height="2.6458" fill="#e6e6e6" style="paint-order:fill markers stroke"/><rect x="47.723" y="114.31" width="69.85" height="2.6458" fill="#e6e6e6" style="paint-order:fill markers stroke"/><rect x="47.723" y="119.6" width="69.85" height="2.6458" fill="#e6e6e6" style="paint-order:fill markers stroke"/><rect x="47.723" y="124.89" width="69.85" height="2.6458" fill="#e6e6e6" style="paint-order:fill markers stroke"/><rect x="120.55" y="109.02" width="69.85" height="2.6458" fill="#e6e6e6" style="paint-order:fill markers stroke"/><rect x="120.55" y="114.31" width="69.85" height="2.6458" fill="#e6e6e6" style="paint-order:fill markers stroke"/><rect x="120.55" y="119.6" width="69.85" height="2.6458" fill="#e6e6e6" style="paint-order:fill markers stroke"/><rect x="120.55" y="124.89" width="69.85" height="2.6458" fill="#e6e6e6" style="paint-order:fill markers stroke"/><rect x="47.723" y="130.19" width="69.85" height="2.6458" fill="#e6e6e6" style="paint-order:fill markers stroke"/><rect x="47.723" y="135.48" width="69.85" height="2.6458" fill="#e6e6e6" style="paint-order:fill markers stroke"/><rect x="47.723" y="140.77" width="69.85" height="2.6458" fill="#e6e6e6" style="paint-order:fill markers stroke"/><rect x="120.55" y="130.19" width="59.267" height="2.6458" fill="#e6e6e6" style="paint-order:fill markers stroke"/></svg>
