<svg height="24" width="24" xmlns="http://www.w3.org/2000/svg"><path d="m12.996094 4.0019531l-7.3261721 7.3261719-.00195-.0039-1.4140626 1.414062.00195.0039-.25.25h-.00586l.0000007 4.007813h1 2 1.0078125l.2519531-.251953.3535156-.353516.7070313-.707031.3554687-.353516 7.3222658-7.3300778-3.998047-4zm-.583985 1.9960938l2.587891 2.5898437-4.267578 4.2675784-2.5878908-2.589844zm5.087891 3.0019531c-.48646 1.7025-1.678195 3.166091-2.203125 4.337891-.1837.3484-.296875.739409-.296875 1.162109 0 1.385 1.115 2.5 2.5 2.5 1.385 0 2.5-1.115 2.5-2.5 0-.4227-.113165-.813709-.296875-1.162109-.52492-1.1718-1.716675-2.635391-2.203125-4.337891zm-10.0625 1.972656l2.587891 2.589844-.7070316.707031-2.5898438-2.589843.2734375-.271485zm-1.4160156 1.414063l2.5898437 2.589843.00391.002-.7070313.707031-.00391-.002-2.5898437-2.589843zm-2.0214844 6.613281v1h16v-1z" fill="#4d4d4d" transform=""/></svg>