<svg height="20" viewBox="0 0 12 20" width="12" xmlns="http://www.w3.org/2000/svg"><g fill="none" fill-rule="evenodd"><path d="m-6.0000002-2.0000003h24.0000002v24.0000003h-24.0000002z"/><path d="m18.0051546 9.00257732c0 .15635817-.0601368.29467294-.1804123.41494845l-.9020619.90206183c-.1202755.1202755-.2585903.1804124-.4149484.1804124-.1563582 0-.294673-.0601369-.4149485-.1804124l-7.09020618-7.09020616-7.09020619 7.09020616c-.12027551.1202755-.25859028.1804124-.41494845.1804124s-.29467294-.0601369-.41494845-.1804124l-.90206186-.90206183c-.12027551-.12027551-.18041237-.25859028-.18041237-.41494845s.06013686-.29467294.18041237-.41494845l8.4072165-8.4072165c.12027551-.12027551.25859028-.18041237.41494845-.18041237s.29467294.06013686.41494845.18041237l8.40721653 8.4072165c.1202755.12027551.1804123.25859028.1804123.41494845z" fill="#636363" height="100%" transform="matrix(0 -1 1 0 1 19)" width="100%"/></g></svg>