<svg version="1.1" viewBox="0 0 24 24" xmlns="http://www.w3.org/2000/svg">
 <g transform="translate(2.5,2)">
  <path d="m2 0.023438c-0.554 0-1 0.446-1 1v11c0 0.554 0.446 1 1 1h8c0.554 0 1-0.446 1-1v-11c0-0.554-0.446-1-1-1zm0 1h8v11h-8z" fill="#808080"/>
  <path d="m2 1.0234h8v11h-8z" fill="#fff"/>
  <rect x="3" y="6.0234" width="6" height="1" ry=".5" fill="#4d82b8"/>
  <rect x="3" y="9.0234" width="6" height="1" ry=".5" fill="#4d82b8"/>
  <path d="m6 3c-0.554 0-1 0.446-1 1v9.6337c0 0.554 0.446 1 1 1h8c0.554 0 1-0.446 1-1v-9.6337c0-0.554-0.446-1-1-1zm0 1h8v10.634h-8z" fill="#808080"/>
  <path d="m6 4h8v10.173h-8z" fill="#fff"/>
  <rect x="7" y="8" width="6" height="1" ry=".5" fill="#4d82b8"/>
  <rect x="7" y="11" width="6" height="1" ry=".5" fill="#4d82b8"/>
 </g>
 <g fill="#4d82b8">
  <path d="m17.062 15.008c-0.85377 0.1294-1.5678 0.69391-1.9054 1.4672-0.070974 0.16255-0.11815 0.34506-0.15617 0.5307h8c-0.02609-0.12499-0.05348-0.26222-0.09367-0.37462-0.3463-0.96656-1.2687-1.6233-2.3426-1.6233h-3.1273c-0.1269 0-0.25286-0.01848-0.37482 0zm-2.0615 5.9938c0.2352 1.1308 1.2393 1.9979 2.4363 1.9979h3.1273c1.197 0 2.2012-0.86716 2.4363-1.9979z"/>
  <path d="m7.0615 15.008c-0.85377 0.1294-1.5678 0.69391-1.9054 1.4672-0.070974 0.16255-0.11815 0.34506-0.15617 0.5307h8c-0.02609-0.12499-0.05348-0.26222-0.09367-0.37462-0.3463-0.96656-1.2687-1.6233-2.3426-1.6233h-3.1273c-0.1269 0-0.25286-0.01848-0.37482 0zm-2.0615 5.9938c0.2352 1.1308 1.2393 1.9979 2.4363 1.9979h3.1273c1.197 0 2.2012-0.86716 2.4363-1.9979z"/>
  <rect x="10" y="18" width="8" height="2" ry=".98861"/>
 </g>
</svg>
