<?xml-stylesheet type="text/css" href="icons.css" ?>
<svg viewBox="0 0 24 24" xmlns="http://www.w3.org/2000/svg">
  <g id="background"
     class="icn icn--area-color"
     fill="#fafafa"
     stroke="#3a3a38"
     stroke-linecap="round"
     stroke-linejoin="round"
     >
      <path d="m 2.5,2.5 h 19 v 19 h -19 z" />
  </g>
  <g 
     class="icn icn--secondary-line-color"
     fill="#797774"
     stroke="#797774"
     stroke-linecap="round"
     stroke-linejoin="round"
     >
      <path d="m 2.5,2.5 h 19 v 3 h -19 z" />
  </g>
  <g id="symbol"
     class="icn icn--area-color"
     fill="#c8c6c4"
     stroke="#3a3a38"
     stroke-linecap="round"
     stroke-linejoin="round"
      >
      <path d="m 21.5,5.5 v -3 h -19 v 3 z" />
  </g>
  <g id="symbol"
     class="icn icn--area-color"
     fill="#fafafa"
     stroke="#3a3a38"
     stroke-linecap="round"
     stroke-linejoin="round"
      >
      <path d="m 6.5,11.5 h 11 z m 0,4 h 11 z" />
  </g>
  <g id="symbol"
	 class="icn icn--highlight-color"  
     fill="#83beec" 
     stroke="#1e8bcd" 
	 stroke-linecap="round" 
	 stroke-linejoin="round"
      >
      <path d="M 13.5 10.5 A 1 1 0 0 0 12.5 11.5 A 1 1 0 0 0 13.5 12.5 A 1 1 0 0 0 14.5 11.5 A 1 1 0 0 0 13.5 10.5 z M 10.5 14.5 A 1 1 0 0 0 9.5 15.5 A 1 1 0 0 0 10.5 16.5 A 1 1 0 0 0 11.5 15.5 A 1 1 0 0 0 10.5 14.5 z " />
  </g>
</svg>
