<?xml version="1.0" encoding="UTF-8" standalone="no"?>
<svg
   xmlns:dc="http://purl.org/dc/elements/1.1/"
   xmlns:cc="http://creativecommons.org/ns#"
   xmlns:rdf="http://www.w3.org/1999/02/22-rdf-syntax-ns#"
   xmlns:svg="http://www.w3.org/2000/svg"
   xmlns="http://www.w3.org/2000/svg"
   xmlns:sodipodi="http://sodipodi.sourceforge.net/DTD/sodipodi-0.dtd"
   xmlns:inkscape="http://www.inkscape.org/namespaces/inkscape"
   viewBox="0 0 24 24"
   version="1.1"
   id="svg30"
   sodipodi:docname="lc_copyhyperlinklocation.svg"
   inkscape:version="0.92.5 (2060ec1f9f, 2020-04-08)">
  <metadata
     id="metadata36">
    <rdf:RDF>
      <cc:Work
         rdf:about="">
        <dc:format>image/svg+xml</dc:format>
        <dc:type
           rdf:resource="http://purl.org/dc/dcmitype/StillImage" />
      </cc:Work>
    </rdf:RDF>
  </metadata>
  <defs
     id="defs34" />
  <sodipodi:namedview
     pagecolor="#ffffff"
     bordercolor="#666666"
     borderopacity="1"
     objecttolerance="10"
     gridtolerance="10"
     guidetolerance="10"
     inkscape:pageopacity="0"
     inkscape:pageshadow="2"
     inkscape:window-width="1366"
     inkscape:window-height="700"
     id="namedview32"
     showgrid="false"
     inkscape:zoom="19.666667"
     inkscape:cx="11.045067"
     inkscape:cy="13.201776"
     inkscape:window-x="0"
     inkscape:window-y="0"
     inkscape:window-maximized="1"
     inkscape:current-layer="svg30" />
  <g
     transform="translate(2.5 2)"
     id="g20">
    <path
       d="m1.5 0c-.554 0-1 .446-1 1v11c0 .554.446 1 1 1h9c.554 0 1-.446 1-1v-11c0-.554-.446-1-1-1zm0 1h9v11h-9z"
       fill="#808080"
       id="path2"
       style="fill:#3a3a38" />
    <path
       d="m1.5.999962h9v11h-9z"
       fill="#fff"
       id="path4"
       style="fill:#fafafa" />
    <rect
       fill="#4d82b8"
       height="1"
       ry=".5"
       width="7"
       x="2.5"
       y="6"
       id="rect6"
       style="fill:#1e8bcd" />
    <rect
       fill="#4d82b8"
       height="1"
       ry=".467428"
       width="7"
       x="2.5"
       y="9"
       id="rect8"
       style="fill:#1e8bcd" />
    <path
       d="m5.5 3c-.554 0-1 .446-1 1v9.6337c0 .554.446 1 1 1h9c.554 0 1-.446 1-1v-9.6337c0-.554-.446-1-1-1zm0 1h9v10.634h-9z"
       fill="#808080"
       id="path10"
       style="fill:#3a3a38" />
    <path
       d="m5.5 4h9v10.173h-9z"
       fill="#fff"
       id="path12"
       style="fill:#fafafa" />
    <g
       fill="#4d82b8"
       id="g18">
      <rect
         height="1"
         ry=".458257"
         width="7"
         x="6.5"
         y="8"
         id="rect14"
         style="fill:#1e8bcd" />
      <rect
         height="1"
         ry=".5"
         width="7"
         x="6.5"
         y="11"
         id="rect16"
         style="fill:#1e8bcd" />
    </g>
  </g>
  <g
     fill="#4d82b8"
     id="g28">
    <path
       d="m17.062 15.008c-.85377.1294-1.5678.69391-1.9054 1.4672-.070974.16255-.11815.34506-.15617.5307h8c-.02609-.12499-.05348-.26222-.09367-.37462-.3463-.96656-1.2687-1.6233-2.3426-1.6233h-3.1273c-.1269 0-.25286-.01848-.37482 0zm-2.0615 5.9938c.2352 1.1308 1.2393 1.9979 2.4363 1.9979h3.1273c1.197 0 2.2012-.86716 2.4363-1.9979z"
       id="path22"
       style="fill:#1e8bcd" />
    <path
       d="m7.0615 15.008c-.85377.1294-1.5678.69391-1.9054 1.4672-.070974.16255-.11815.34506-.15617.5307h8c-.02609-.12499-.05348-.26222-.09367-.37462-.3463-.96656-1.2687-1.6233-2.3426-1.6233h-3.1273c-.1269 0-.25286-.01848-.37482 0zm-2.0615 5.9938c.2352 1.1308 1.2393 1.9979 2.4363 1.9979h3.1273c1.197 0 2.2012-.86716 2.4363-1.9979z"
       id="path24"
       style="fill:#1e8bcd" />
    <rect
       height="2"
       ry=".98861"
       width="8"
       x="10"
       y="18"
       id="rect26"
       style="fill:#1e8bcd" />
  </g>
</svg>
