<svg height="20" viewBox="0 0 20 20" width="20" xmlns="http://www.w3.org/2000/svg"><g stroke-width=".83333"><path d="m0 0h20v20h-20z" fill="none"/><path d="m10 1.6667c-4.6 0-8.3333 3.7333-8.3333 8.3333s3.7333 8.3333 8.3333 8.3333 8.3333-3.7333 8.3333-8.3333-3.7333-8.3333-8.3333-8.3333zm-2.2583 11.908-2.9917-2.9917c-.325-.325-.325-.85 0-1.175s.85-.325 1.175 0l2.4083 2.4 5.7333-5.7333c.325-.325.85-.325 1.175 0s.325.85 0 1.175l-6.325 6.325c-.31667.325-.85.325-1.175 0z" fill="#fff"/><path d="m7.7417 13.575-2.9917-2.9917c-.325-.325-.325-.85 0-1.175s.85-.325 1.175 0l2.4083 2.4 5.7333-5.7333c.325-.325.85-.325 1.175 0s.325.85 0 1.175l-6.325 6.325c-.31667.325-.85.325-1.175 0z" fill="#1a1a1a"/></g></svg>