<?xml version="1.0" encoding="UTF-8" standalone="no"?>
<svg
   xmlns:dc="http://purl.org/dc/elements/1.1/"
   xmlns:cc="http://creativecommons.org/ns#"
   xmlns:rdf="http://www.w3.org/1999/02/22-rdf-syntax-ns#"
   xmlns:svg="http://www.w3.org/2000/svg"
   xmlns="http://www.w3.org/2000/svg"
   xmlns:sodipodi="http://sodipodi.sourceforge.net/DTD/sodipodi-0.dtd"
   xmlns:inkscape="http://www.inkscape.org/namespaces/inkscape"
   viewBox="0 0 24 24"
   version="1.1"
   id="svg8"
   sodipodi:docname="lc_exportdirecttocsv.svg"
   inkscape:version="0.92.5 (2060ec1f9f, 2020-04-08)">
  <metadata
     id="metadata14">
    <rdf:RDF>
      <cc:Work
         rdf:about="">
        <dc:format>image/svg+xml</dc:format>
        <dc:type
           rdf:resource="http://purl.org/dc/dcmitype/StillImage" />
        <dc:title></dc:title>
      </cc:Work>
    </rdf:RDF>
  </metadata>
  <defs
     id="defs12" />
  <sodipodi:namedview
     pagecolor="#ffffff"
     bordercolor="#666666"
     borderopacity="1"
     objecttolerance="10"
     gridtolerance="10"
     guidetolerance="10"
     inkscape:pageopacity="0"
     inkscape:pageshadow="2"
     inkscape:window-width="1366"
     inkscape:window-height="699"
     id="namedview10"
     showgrid="true"
     inkscape:pagecheckerboard="true"
     inkscape:snap-global="true"
     inkscape:zoom="27.812867"
     inkscape:cx="15.243683"
     inkscape:cy="9.4778156"
     inkscape:window-x="0"
     inkscape:window-y="0"
     inkscape:window-maximized="1"
     inkscape:current-layer="svg8">
    <inkscape:grid
       type="xygrid"
       id="grid821" />
  </sodipodi:namedview>
  <path
     d="m5 3v18h14v-14.2705905l-4-3.7294095z"
     fill="#fafafa"
     id="path2" />
  <path
     d="m5 2c-.554 0-1 .446-1 1v18c0 .554.446 1 1 1h14c.554 0 1-.446 1-1v-10.109375-3.6412209-.2079239c0-.4506799.09887-.4265951-.604637-1.0675892l-3.307389-3.2370335c-.709525-.7368575-.711223-.7368575-1.094804-.7368575h-.331557-.661613zm0 1h9v4c0 .554.446 1 1 1h4v13h-14z"
     fill="#3a3a38"
     id="path4" />
  <path
     d="m15 7h4l-4-4z"
     fill="#fafafa"
     fill-rule="evenodd"
     id="path6" />
  <path
     sodipodi:nodetypes="csscccccc"
     inkscape:connector-curvature="0"
     id="path833"
     style="font-style:normal;font-weight:normal;font-size:40px;line-height:1.25;font-family:sans-serif;letter-spacing:0px;word-spacing:0px;fill:#18ab50;fill-opacity:1;stroke:none;stroke-width:0.50761348"
     d="m 16,13 v 1.546635 c 0,0.700612 -0.06279,1.285557 -0.188372,1.754835 -0.125581,0.469278 -0.327784,0.768909 -0.592166,1.19853 H 14 c 0.621298,-0.898899 0.872461,-1.614932 0.872461,-2.447735 H 14 V 13 Z" />
  <path
     inkscape:connector-curvature="0"
     id="path840"
     style="font-style:normal;font-variant:normal;font-weight:normal;font-stretch:normal;font-size:18.22467422px;line-height:1.25;font-family:Carlito;-inkscape-font-specification:Carlito;letter-spacing:0px;word-spacing:0px;fill:#18ab50;fill-opacity:1;stroke:none;stroke-width:0.32083836"
     d="m 12.511223,16 q -0.162926,0 -0.250654,-0.05013 -0.08773,-0.05013 -0.119062,-0.20679 l -0.13786,-0.57024 q -0.238122,0.219323 -0.469978,0.394781 -0.22559,0.169193 -0.476244,0.288254 -0.250655,0.119061 -0.538909,0.175458 -0.288253,0.06267 -0.6329033,0.06267 -0.3571833,0 -0.670502,-0.094 Q 8.9080584,15.899739 8.6699362,15.699215 8.4380804,15.492424 8.3002201,15.191638 8.1686263,14.884586 8.1686263,14.471005 q 0,-0.363449 0.1942576,-0.695567 0.2005239,-0.338384 0.6454364,-0.601572 0.4449126,-0.263188 1.1592797,-0.426114 0.714366,-0.169191 1.754584,-0.194257 v -0.469978 q 0,-0.714367 -0.307052,-1.07155 -0.300786,-0.363449 -0.883559,-0.363449 -0.388515,0 -0.657969,0.100261 -0.2631877,0.100262 -0.4574454,0.219324 -0.1942576,0.11906 -0.3383842,0.219322 -0.1378602,0.100263 -0.2819868,0.100263 -0.1127947,0 -0.1942576,-0.0564 -0.081463,-0.0564 -0.1315938,-0.144126 L 8.4694122,10.736246 Q 8.9769885,10.247469 9.5597613,10.009347 10.1488,9.7649584 10.863167,9.7649584 q 0.513843,0 0.914891,0.1691921 0.401048,0.1629255 0.670502,0.4699785 0.269454,0.307052 0.407314,0.733165 Q 13,11.563407 13,12.083517 V 16 Z m -2.293492,-0.676768 q 0.27572,0 0.507576,-0.0564 0.231855,-0.0564 0.438646,-0.15666 0.20679,-0.106528 0.388515,-0.256921 0.187991,-0.156657 0.369716,-0.344648 v -1.265808 q -0.733165,0.03133 -1.247008,0.125328 -0.513843,0.08773 -0.8396943,0.238122 -0.3195851,0.150393 -0.4637116,0.357183 -0.1441266,0.200525 -0.1441266,0.451179 0,0.238122 0.075197,0.413581 0.081463,0.169192 0.2130566,0.281986 0.1315939,0.106529 0.3133188,0.162926 0.1817251,0.05013 0.3885151,0.05013 z" />
</svg>
