<svg height="24" viewBox="0 0 6.3499999 6.3500002" width="24" xmlns="http://www.w3.org/2000/svg"><g stroke-width=".264583"><g transform="translate(0 -290.64998)"><path d="m3 2c-.5539993 0-1 .4460007-1 1v18c0 .553999.4460007 1 1 1h9.017578c.04778-.165191.136456-.315664.257813-.4375l3.566406-3.566406-3.566406-3.556641c-.400084-.399472-.400084-1.047793 0-1.447265l.716797-.716797c.162732-.163854.376134-.267802.605468-.294922.310947-.0357.621119.07297.841797.294922l3.556641 3.566406 3.566406-3.566406c.121836-.121357.272309-.210028.4375-.257813v-9.017578c0-.5539993-.446001-1-1-1z" fill="#3a3a38" stroke-width=".999999" transform="matrix(.26458334 0 0 .26458334 0 290.64998)"/><path d="m3 3v18h9.837891l3.003906-3.003906-3.566406-3.556641c-.400084-.399472-.400084-1.047793 0-1.447265l.716797-.716797c.162732-.163854.376134-.267802.605468-.294922.310947-.0357.621119.07297.841797.294922l3.556641 3.566406 3.003906-3.003906v-9.837891z" fill="#fafafa" stroke-width=".999999" transform="matrix(.26458334 0 0 .26458334 0 290.64998)"/><g fill="#797774"><rect height=".264583" rx=".132292" ry=".125565" width="2.116667" x="2.645833" y="292.23746"/><rect height=".264583" rx=".132292" ry=".125565" width="2.116667" x="2.645833" y="293.560377"/><path d="m10.5 16c-.277001 0-.5.211694-.5.474609v.050782c0 .262915.222999.474609.5.474609h4.34375l-1.003906-1z" stroke-width=".999999" transform="matrix(.26458334 0 0 .26458334 0 290.64998)"/></g><path d="m2.1166667 292.36976a.396875.396875 0 0 1 -.396875.39687.396875.396875 0 0 1 -.396875-.39687.396875.396875 0 0 1 .396875-.39688.396875.396875 0 0 1 .396875.39688z" fill="#1e8bcd"/><path d="m2.1166667 293.69267a.396875.396875 0 0 1 -.396875.39688.396875.396875 0 0 1 -.396875-.39688.396875.396875 0 0 1 .396875-.39687.396875.396875 0 0 1 .396875.39687z" fill="#fb983b"/><path d="m2.1166667 295.01559a.396875.396875 0 0 1 -.396875.39687.396875.396875 0 0 1 -.396875-.39687.396875.396875 0 0 1 .396875-.39688.396875.396875 0 0 1 .396875.39688z" fill="#797774"/></g><path d="m5.8964203 3.4395749-1.1339287 1.1339285-1.1339288-1.1339285-.1889879.1889879 1.1339285 1.1339288-1.1339285 1.1339287.1889879.188988 1.1339288-1.1339286 1.1339287 1.1339286.188988-.188988-1.1339286-1.1339287 1.1339286-1.1339288z" fill="#ed3d3b"/></g></svg>