<svg viewBox="0 0 24 24" xmlns="http://www.w3.org/2000/svg"><path d="m5 3v18h2.8359375l1.5-1.5-3.0429687-3.042969a.99983288.99983288 0 0 1 0-1.414062l.75-.75a.99983288.99983288 0 0 1 .6914062-.292969.99983288.99983288 0 0 1 .7226562.292969l3.0429688 3.042969 3.042969-3.042969a.99983288.99983288 0 0 1 1.414062 0l.75.75a.99983288.99983288 0 0 1 0 1.414062l-3.042969 3.042969 1.5 1.5h4.835938v-18z" fill="#fafafa"/><path d="m6.5 5c-.277 0-.5.223-.5.5s.223.5.5.5h4c.277 0 .5-.223.5-.5s-.223-.5-.5-.5zm0 4c-.277 0-.5.223-.5.5s.223.5.5.5h4c.277 0 .5-.223.5-.5s-.223-.5-.5-.5zm8 0c-.277 0-.5.223-.5.5s.223.5.5.5h4c.277 0 .5-.223.5-.5s-.223-.5-.5-.5zm-8 3c-.277 0-.5.223-.5.5s.223.5.5.5h4c.277 0 .5-.223.5-.5s-.223-.5-.5-.5zm8 0c-.277 0-.5.223-.5.5s.223.5.5.5h4c.277 0 .5-.223.5-.5s-.223-.5-.5-.5zm-5.3359375 3 .9999995 1h.335938c.277 0 .5-.223.5-.5s-.223-.5-.5-.5zm7.4999995 0 .042969.042969a.99983288.99983288 0 0 1 .259766.957031h1.533203c.277 0 .5-.223.5-.5s-.223-.5-.5-.5zm-10.3808589.052734c-.1668847.080832-.2832031.248734-.2832031.447266 0 .0277.011334.051674.015625.078125a.99983288.99983288 0 0 1 .2675781-.525391zm8.8808589 2.947266-.919921.919922c.075857.046296.160126.080078.255859.080078h4c.277 0 .5-.223.5-.5s-.223-.5-.5-.5z" fill="#797774"/><path d="m12.5 5c-.277 0-.5.223-.5.5v11.335938l1-1v-9.835938h3.5c.277 0 .5-.223.5-.5s-.223-.5-.5-.5zm-4.4492188 13.214844c-.0293146.055544-.0507812.11621-.0507812.183594v.203124c0 .220663.1777765.398438.3984375.398438h.4375z" fill="#ed3d3b"/><path d="m5 2c-.554 0-1 .446-1 1v18c0 .554.446 1 1 1h1.8359375l1-1h-2.8359375v-18h15v18h-4.835938l1 1h3.835938c.554 0 1-.446 1-1v-18c0-.554-.446-1-1-1zm6.5 19.664062-.335938.335938h.671876z" fill="#3a3a38"/><path d="m15.25 15-3.75 3.75-3.75-3.75-.75.75 3.75 3.75-3.75 3.75.75.75 3.75-3.75 3.75 3.75.75-.75-3.75-3.75 3.75-3.75z" fill="#ed3d3b"/></svg>