<svg version="1.1" viewBox="0 0 24 24" xmlns="http://www.w3.org/2000/svg">
 <path d="m14.283 22h5.7168v-3.3555l-5e-5 -1.5272v-9.0762c0-0.45068 0.09804-0.42541-0.60547-1.0664l-3.3066-3.2383c-0.70952-0.73686-0.71017-0.73633-1.0938-0.73633h-0.99414l-8.9999 8e-5c-0.554 0-1 0.446-1 1v17c0 0.554 0.446 1 1 1h5.1836m0.79295-0.99999h-5.9766v-17h9v4c0 0.554 0.446 1 1 1h4v7.623l5e-5 3.498v0.87893h-3.1816" fill="#808080"/>
 <path d="m15 8h4l-4-4z" fill="#fff" fill-rule="evenodd"/>
 <path d="m2.8 11.925c-0.6075 0-1.1 0.4925-1.1 1.1v8.8c0 0.6075 0.4925 1.1 1.1 1.1h8.8c0.6075 0 1.1-0.4925 1.1-1.1v-8.8c0-0.6075-0.4925-1.1-1.1-1.1z" fill="#c43e1c" stroke-width=".275"/>
 <path d="m10.2 17.925a3.5 3.5 0 0 1-2.1606 3.2336 3.5 3.5 0 0 1-3.8143-0.7587 3.5 3.5 0 0 1-0.7587-3.8143 3.5 3.5 0 0 1 3.2336-2.1606l-1e-7 3.5z" fill="#fcfcfc" stroke-dasharray="10.96845411, 10.96845411" stroke-linecap="round" stroke-linejoin="round" stroke-width="10.968" style="paint-order:markers stroke fill"/>
</svg>
