<svg viewBox="0 0 24 24" xmlns="http://www.w3.org/2000/svg"><path d="m19 21v-13h-4v-4h-10v17z" fill="#fafafa"/><path d="m14.283 22h5.7168v-3.3555l-.00005-1.5272v-9.0762c0-.45068.09804-.42541-.60547-1.0664l-3.3066-3.2383c-.70952-.73686-.71017-.73633-1.0938-.73633h-.99414l-8.9999.00008c-.554 0-1 .446-1 1v17c0 .554.446 1 1 1h5.1836m.79295-.99999h-5.9766v-17h9v4c0 .554.446 1 1 1h4v7.623l.00005 3.498v.87893h-3.1816" fill="#3a3a38"/><path d="m15 8h4l-4-4z" fill="#fafafa" fill-rule="evenodd"/><path d="m3 12c-.554 0-1 .446-1 1v9c0 .554.446 1 1 1h9c.554 0 1-.446 1-1v-9c0-.554-.446-1-1-1z" fill="#1e8bcd"/><path d="m3.6493965 14.475575h1.1641l.87695 4.2305c.0195.08704.038461.2024.056641.3457.01818.14355.029486.27003.035156.37695h.021484c.0084-.10134.023175-.22364.046875-.36719.0237-.1433.047922-.26483.070313-.36328l.9707-4.2227h1.2578l1.0059 4.1602c.05033.20537.091535.46533.125.7832h.017578c.01397-.21942.047639-.47096.10352-.75781l.8046905-4.1855h1.1445l-1.4082005 6.0488h-1.3359l-.96094-4.0078c-.02794-.11542-.05883-.26544-.09375-.45117-.03493-.18549-.056123-.31993-.064453-.4043h-.017578c-.01119.09845-.032303.24352-.064453.4375-.03215.1942-.058635.33877-.078125.43164l-.90039 3.9941h-1.3574l-1.4199-6.0488z" fill="#fafafa" stroke-width=".275"/></svg>