<svg viewBox="0 0 24 24" xmlns="http://www.w3.org/2000/svg"><g fill="#4d82b8"><path d="m1.495667 8.999133c-.275368.0011-.498022.22463-.498047.5v5c-.000621.424388.494386.65657.820312.384766l3-2.5c.24089-.199955.24089-.569577 0-.769532l-3-2.5c-.09052-.07512-.204633-.115924-.322265-.115234z"/><rect height="2" ry="1" width="4" x="6" y="11"/><g fill="#4d82b8"><path d="m13 11c-.554 0-1 .446-1 1s.446 1 1 1h.509766l1.009765-1.019531-.955078-.980469z"/><path d="m21.873047 11.537109-.388672.431641.427734.435547c.054747-.123863.087891-.259714.087891-.404297 0-.170084-.052658-.322947-.126953-.462891z"/></g></g><path d="m7 14c-.554 0-1 .446-1 1v7h1v-7h5a1.0041282 1.0041282 0 0 1 .287109-.765625l.232422-.234375zm15 3.361328-.351562.34961a1.0041282 1.0041282 0 0 1 -.648438.291015v3.998047h1z" fill="#808080"/><path d="m7 15v7h14v-3.998047a1.0041282 1.0041282 0 0 1 -.789062-.310547l-2.199219-2.320312-2.19336 2.318359a1.0041282 1.0041282 0 0 1 -1.433593.025391l-2.089844-2.058594a1.0041282 1.0041282 0 0 1 -.294922-.65625z" fill="#fff"/><path d="m6 2v7c0 .554.446 1 1 1h5.589844l-.308594-.3164062a1.0041282 1.0041282 0 0 1 -.283203-.6835938h-4.998047v-7zm15 0v4.0039062a1.0041282 1.0041282 0 0 1 .576172.2695313l.423828.4042969v-4.6777344z" fill="#808080"/><path d="m7 2v7h4.998047a1.0041282 1.0041282 0 0 1 .310547-.7460938l2.089844-1.9824218a1.0041282 1.0041282 0 0 1 .679687-.2753906 1.0041282 1.0041282 0 0 1 .722656.2949218l2.207031 2.21875 2.15625-2.2109375a1.0041282 1.0041282 0 0 1 .835938-.2949219v-4.0039062z" fill="#fff"/><path d="m23 14.944338-2.895447-2.946153 2.7861-3.086414-2.008392-1.911762-2.867282 2.941173-2.925406-2.941173-2.089573 1.98208 2.925403 3.003525-2.925403 2.955562 2.089573 2.058824 2.922011-3.088233 2.928799 3.088233z" fill="#e68497"/></svg>