<svg height="24" width="24" xmlns="http://www.w3.org/2000/svg"><g transform="translate(-550.28571 -606.64789)"><path d="m554.28376 611.64214v1 8 1h .0117l-.0117.0117 3.99219 3.99219h.0117 1.40625 1.59179v.002h3v-1h-3v-.002h-1-1.0039v-4h-1-3v-8h14v5.00195h.004v2h1v1 4.99805h.002v-1-12-1h-.004v-.004h-16zm6.99805 2.00391h1zm4 0h1zm-4.9961 3.43164a1.5 1.5 0 0 0 -.004.0684 1.5 1.5 0 0 0  .004.0762v-.14453z" fill="#4d4d4d"/><path d="m565.99944 620.64789l-.71373.70067 1.79412 1.79836-1.79412 1.80031.71373.70066 1.78626-1.79252 1.78824 1.79252.71177-.70066-1.79412-1.80031 1.79412-1.79836-.71177-.70067-1.78824 1.79253z" fill="#da4453" fill-rule="evenodd" overflow="visible"/></g></svg>