<svg version="1.1" viewBox="0 0 24 24" xmlns="http://www.w3.org/2000/svg">
 <path d="m14.283 22h5.7168v-3.3555l-5e-5 -1.5272v-9.0762c0-0.45068 0.09804-0.42541-0.60547-1.0664l-3.3066-3.2383c-0.70952-0.73686-0.71017-0.73633-1.0938-0.73633h-0.99414l-8.9999 8e-5c-0.554 0-1 0.446-1 1v17c0 0.554 0.446 1 1 1h5.1836m0.79295-0.99999h-5.9766v-17h9v4c0 0.554 0.446 1 1 1h4v7.623l5e-5 3.498v0.87893h-3.1816" fill="#808080"/>
 <path d="m15 8h4l-4-4z" fill="#fff" fill-rule="evenodd"/>
 <path d="m2.8008 11.926c-0.6075 0-1.1016 0.49211-1.1016 1.0996v8.7988c0 0.6075 0.49406 1.1016 1.1016 1.1016h8.7988c0.6075 0 1.0996-0.49406 1.0996-1.1016v-8.7988c0-0.6075-0.49211-1.0996-1.0996-1.0996z" fill="#fcfcfc" stroke-width=".275"/>
 <path d="m2.8008 11.926c-0.6075 0-1.1016 0.49211-1.1016 1.0996v8.7988c0 0.6075 0.49406 1.1016 1.1016 1.1016h8.7988c0.6075 0 1.0996-0.49406 1.0996-1.1016v-8.7988c0-0.6075-0.49211-1.0996-1.0996-1.0996h-8.7988zm0.54883 2.4746h1.1641l0.87695 4.2305c0.0195 0.08704 0.038461 0.2024 0.056641 0.3457 0.01818 0.14355 0.029486 0.27003 0.035156 0.37695h0.021484c0.0084-0.10134 0.023175-0.22364 0.046875-0.36719 0.0237-0.1433 0.047922-0.26483 0.070313-0.36328l0.9707-4.2227h1.2578l1.0059 4.1602c0.05033 0.20537 0.091535 0.46533 0.125 0.7832h0.017578c0.01397-0.21942 0.047639-0.47096 0.10352-0.75781l0.80469-4.1855h1.1445l-1.4082 6.0488h-1.3359l-0.96094-4.0078c-0.02794-0.11542-0.05883-0.26544-0.09375-0.45117-0.03493-0.18549-0.056123-0.31993-0.064453-0.4043h-0.017578c-0.01119 0.098449-0.032303 0.24352-0.064453 0.4375-0.03215 0.1942-0.058635 0.33877-0.078125 0.43164l-0.90039 3.9941h-1.3574l-1.4199-6.0488z" fill="#185abd" stroke-width=".275"/>
</svg>
