<svg version="1.1" viewBox="0 0 24 24" xmlns="http://www.w3.org/2000/svg">
 <path d="m14.283 22h5.7168v-3.3555l-5e-5 -1.5272v-9.0762c0-0.45068 0.09804-0.42541-0.60547-1.0664l-3.3066-3.2383c-0.70952-0.73686-0.71017-0.73633-1.0938-0.73633h-0.99414l-8.9999 8e-5c-0.554 0-1 0.446-1 1v17c0 0.554 0.446 1 1 1h5.1836m0.79295-0.99999h-5.9766v-17h9v4c0 0.554 0.446 1 1 1h4v7.623l5e-5 3.498v0.87893h-3.1816" fill="#808080"/>
 <path d="m15 8h4l-4-4z" fill="#fff" fill-rule="evenodd"/>
 <path d="m2.8 11.925c-0.6075 0-1.1 0.4925-1.1 1.1v8.8c0 0.6075 0.4925 1.1 1.1 1.1h8.8c0.6075 0 1.1-0.4925 1.1-1.1v-8.8c0-0.6075-0.4925-1.1-1.1-1.1zm2.2 2.2h2.7097c0.81273 0 1.4353 0.18261 1.867 0.54624 0.432 0.36388 0.64829 0.89085 0.64829 1.5807 0 0.443-0.10712 0.83685-0.32065 1.1816-0.21354 0.34507-0.51714 0.61311-0.91094 0.80459-0.39383 0.19121-0.85033 0.28682-1.3691 0.28682h-1.2499v2.475h-1.3745zm1.3745 1.1v2.2h1.0909c0.42526 0 0.74667-0.0959 0.96411-0.28735 0.21717-0.19173 0.32549-0.47139 0.32549-0.8395 0-0.71511-0.416-1.0731-1.2488-1.0731z" fill="#c43e1c" stroke-width=".275"/>
</svg>
