<svg width="24" height="24" version="1.1" viewBox="0 0 24 24" xmlns="http://www.w3.org/2000/svg">
 <path d="m3.5 1.9746v5.9414c0 0.554 0.446 1 1 1h6.9551a1.0949 1.0949 0 0 1 0.33594-0.90234l0.10352-0.097656h-7.3945v-5.9414h-1zm16 0v4.584l0.59375-0.60938a1.0949 1.0949 0 0 1 0.40625-0.26172v-3.7129h-1zm-2.0078 5.9414 0.3457 0.34766 0.33789-0.34766h-0.68359z" fill="#808080"/>
 <g transform="matrix(.77119 0 0 .77119 -1.0816 -.33899)" fill="#4d82b8">
  <path d="m2.6224 12c-0.34413 0.0015-0.62238 0.29942-0.62241 0.66647v6.6647c-7.76e-4 0.56568 0.61783 0.87517 1.0251 0.51287l3.7491-3.3324c0.30104-0.26653 0.30104-0.75922 0-1.0257l-3.7491-3.3324c-0.11312-0.10013-0.25573-0.15452-0.40273-0.1536z"/>
  <rect x="8" y="15" width="6" height="2" ry=".9661"/>
  <path d="m16.967 15c-0.53522 0-0.9668 0.43158-0.9668 0.9668v0.06641c0 0.53522 0.43158 0.9668 0.9668 0.9668h1.5527l1.0176-1.0273-0.94726-0.97266h-1.623z"/>
 </g>
 <path d="m4.5 15.084c-0.554 0-1 0.446-1 1v5.9414h1v-5.9414h7.4746l-0.19922-0.19531a1.0949 1.0949 0 0 1-0.32422-0.80469h-6.9512zm13.344 0.5293-0.44531 0.4707h0.89258l-0.44727-0.4707zm1.6562 1.7461v4.666h1v-3.7363a1.0949 1.0949 0 0 1-0.35547-0.25l-0.64453-0.67969z" fill="#808080"/>
 <path d="m23.539 15.289-3.2343-3.291 3.1121-3.4476-2.2435-2.1355-3.2028 3.2854-3.2678-3.2854-2.3342 2.2141 3.2678 3.355-3.2678 3.3015 2.3342 2.2998 3.264-3.4497 3.2715 3.4497z" fill="#e68497" stroke-width=".77119"/>
</svg>
