<svg version="1.1" viewBox="0 0 24 24" xmlns="http://www.w3.org/2000/svg">
 <g fill="#808080">
  <path d="m11 12c-.554 0-1 .446-1 1v6c0 .554.446 1 1 1h3c.554 0 1-.446 1-1v-6c0-.554-.446-1-1-1zm0 1h3v6h-3z"/>
  <path d="m15 10c-.554 0-1 .446-1 1v8c0 .554.446 1 1 1h3c.554 0 1-.446 1-1v-8c0-.554-.446-1-1-1zm0 1h3v8h-3z"/>
  <path d="m8 6c-0.554 0-1 0.446-1 1v12c0 0.554 0.446 1 1 1h2c0.554 0 1-0.446 1-1v-12c0-0.554-0.446-1-1-1h-2z"/>
  <rect transform="matrix(0 -1 -1 0 0 0)" x="-20" y="-22" width="1" height="20" ry=".5"/>
 </g>
 <path d="m15 11h3v8h-3z" fill="#fff"/>
 <path d="m11 13h3v6h-3z" fill="#fff"/>
 <path d="m14 2c-0.554 0-1 0.446-1 1v5c0 0.554 0.446 1 1 1h7c0.554 0 1-0.446 1-1v-1.7129a0.67446 0.67446 0 0 1-0.12109-0.099609l-0.87305-0.91992-0.005859 0.0058594v2.7266h-7v-5h4.7129l-0.52148-0.53516a0.67446 0.67446 0 0 1-0.19141-0.46484h-4z" fill="#e68497"/>
 <path d="m14 3h7v5h-7z" fill="#fff"/>
 <g fill="#e68497">
  <path d="m15 4h1v1h-1z"/>
  <path d="m17 4v1h1.043a0.67446 0.67446 0 0 1 0.15234-0.70898l0.28711-0.29102h-1.4824z"/>
  <path d="m15 6h1v1h-1z"/>
  <path d="m17 6v1h3v-0.70312a0.67446 0.67446 0 0 1-0.82617-0.09375l-0.20703-0.20312h-1.9668z"/>
  <path d="m23.326 4.7673-1.3467-1.3703 1.2958-1.4355-0.93413-0.8892-1.3336 1.368-1.3606-1.368-0.97189 0.92189 1.3606 1.397-1.3606 1.3747 0.97189 0.95757 1.3591-1.4364 1.3622 1.4364z" stroke-width=".99999"/>
 </g>
 <rect transform="scale(-1,1)" x="-5" y="2" width="1" height="20" ry=".5" fill="#808080"/>
</svg>
