<svg version="1.1" viewBox="0 0 24 24" xmlns="http://www.w3.org/2000/svg">
 <g fill="#808080">
  <path d="m8 12c-.554 0-1 .446-1 1v6c0 .554.446 1 1 1h3c.554 0 1-.446 1-1v-6c0-.554-.446-1-1-1zm0 1h3v6h-3z"/>
  <path d="m15 10c-.554 0-1 .446-1 1v8c0 .554.446 1 1 1h3c.554 0 1-.446 1-1v-8c0-.554-.446-1-1-1zm0 1h3v8h-3z"/>
  <rect x="11" y="6" width="4" height="14" ry="1"/>
  <rect x="2" y="19" width="20" height="1" ry=".5"/>
 </g>
 <g fill="#e68497">
  <rect x="4" y="2" width="1" height="20" ry=".5"/>
  <rect x="2" y="4" width="3" height="1" ry=".48836"/>
  <rect x="2" y="10" width="3" height="1" ry=".48836"/>
  <rect x="2" y="16" width="3" height="1" ry=".48836"/>
  <rect x="2" y="13" width="3" height="1" ry=".48836"/>
  <rect x="2" y="7" width="3" height="1" ry=".48836"/>
  <rect x="2" y="19" width="3" height="1" ry=".48836"/>
 </g>
 <path d="m15 11h3v8h-3z" fill="#fff"/>
 <path d="m8 13h3v6h-3z" fill="#fff"/>
 <g transform="matrix(1 0 0 1 29.799 -10.333)" stroke-width=".99998">
  <path d="m-13.903 23.154a1.2933 1.2933 0 0 0-0.87315 0.35359l-1.7968 1.703a1.2933 1.2933 0 0 0-0.03608 1.8401l1.6272 1.6705-1.62 1.6381a1.2933 1.2933 0 0 0 0.0109 1.8293l1.7968 1.7716a1.2933 1.2933 0 0 0 1.8473-0.03248l1.5731-1.6633 1.5767 1.6633a1.2933 1.2933 0 0 0 1.8509 0.02525l1.768-1.768a1.2933 1.2933 0 0 0 0.010899-1.8185l-1.6345-1.6633 1.5767-1.7499a1.2933 1.2933 0 0 0-0.068554-1.8004l-1.7247-1.6453a1.2933 1.2933 0 0 0-1.8185 0.03608l-1.5479 1.5875-1.5875-1.5984a1.2933 1.2933 0 0 0-0.93088-0.37885z" color="#000000" color-rendering="auto" dominant-baseline="auto" fill="#fff" image-rendering="auto" shape-rendering="auto" solid-color="#000000" style="font-feature-settings:normal;font-variant-alternates:normal;font-variant-caps:normal;font-variant-ligatures:normal;font-variant-numeric:normal;font-variant-position:normal;isolation:auto;mix-blend-mode:normal;shape-padding:0;text-decoration-color:#000000;text-decoration-line:none;text-decoration-style:solid;text-indent:0;text-orientation:mixed;text-transform:none;white-space:normal"/>
  <path d="m-7.0909 31.272-2.4878-2.5314 2.3938-2.6518-1.7256-1.6426-2.4636 2.5271-2.5135-2.5271-1.7954 1.703 2.5135 2.5807-2.5135 2.5395 1.7954 1.7689 2.5107-2.6535 2.5164 2.6535z" fill="#e68497"/>
 </g>
</svg>
