<svg version="1.1" viewBox="0 0 24 24" xmlns="http://www.w3.org/2000/svg">
 <path d="m19 16.623v-8.8945l-4-3.7285h-10v17h14v-0.87891" fill="#fff"/>
 <path d="m5 3c-0.554 0-1 0.446-1 1v17c0 0.554 0.446 1 1 1h5.1836 3.4102l-1-1h-7.5938v-17h9v4c0 0.554 0.446 1 1 1h4v4.1641l0.1582 0.1582 0.8418 0.83984v-6.1211c0-0.45068 0.098041-0.42542-0.60547-1.0664l-3.3066-3.2383c-0.70952-0.73686-0.71012-0.73633-1.0938-0.73633h-0.99414-9zm15 15.416-1 1v0.70508 0.87891h-1.5859l-1 1h3.5859v-1.8301-1.7539z" fill="#808080"/>
 <path d="m15 8h4l-4-4z" fill="#fff" fill-rule="evenodd"/>
 <path d="m15.004 9.7871c-0.38262-1.23e-5 -0.7646 0.14471-1.0516 0.43171l-5.0181 5.0181c-0.57405 0.57405-0.57363 1.5291 0 2.1032l5.0181 5.02c0.57399 0.57399 1.5311 0.5726 2.105-0.0019l5.0181-5.0181c0.57364-0.57413 0.57405-1.5291 0-2.1032l-0.72874-0.72872-1.1882-1.1863-3.1013-3.1031c-0.28696-0.2872-0.67083-0.4317-1.0534-0.43171zm0 4.1252 0.0019 0.0019-1.7822 1.7804c-0.32757 0.3276-0.32757 0.85872 0 1.1863l1.1881 1.1881c0.3276 0.32757 0.85872 0.32757 1.1863 0l-0.59406 0.59591-2.3762-2.3762 0.59591-0.59406z" color="#000000" color-rendering="auto" dominant-baseline="auto" fill="#fff" image-rendering="auto" shape-rendering="auto" solid-color="#000000" stroke-width=".94459" style="font-feature-settings:normal;font-variant-alternates:normal;font-variant-caps:normal;font-variant-ligatures:normal;font-variant-numeric:normal;font-variant-position:normal;isolation:auto;mix-blend-mode:normal;paint-order:stroke markers fill;shape-padding:0;text-decoration-color:#000000;text-decoration-line:none;text-decoration-style:solid;text-indent:0;text-orientation:mixed;text-transform:none;white-space:normal"/>
 <path d="m15.005 19.851-3.5619-3.5622 3.5619-3.5617 1.1874 1.1872-2.3748 2.3745 1.1874 1.1874 3.5619-3.5617-3.1028-3.1028c-0.25337-0.25359-0.66433-0.25359-0.91792 0l-5.0184 5.0184c-0.25337 0.25337-0.25337 0.66433 0 0.91792l5.0185 5.0183c0.25358 0.25359 0.66455 0.25359 0.91792 0l5.0185-5.0183c0.25337-0.25358 0.25337-0.66455 0-0.91792l-0.72855-0.72833z" fill="#85b916" stroke-width=".94459" style="paint-order:stroke markers fill"/>
</svg>
