<svg viewBox="0 0 24 24" xmlns="http://www.w3.org/2000/svg"><path d="m4.71875 2.5058594-1.2128906 1.1855468v1.1875.3613282l5.9941406 8.3828126v4.310547.046875l2.878906 2.02539 1.003906-2.005859h-.382812a1.0001 1.0001 0 0 1 -.78125-1.625l2.964844-3.699219 5.310547-7.4355466v-1.5488282l-1.212891-1.1855468z" fill="#fafafa"/><path d="m17.004237 12h5.995763l-4 4h2l-9 7 3-6h-2z" fill="#3a3a38" fill-rule="evenodd"/><path d="m4.71875 2a.50535904.50535904 0 0 0 -.3535156.1445312l-1.2128906 1.1855469a.50535904.50535904 0 0 0 -.1523438.3613281v1.1875.3613282a.50535904.50535904 0 0 0 .09375.2949218l.3867188.5390626.8789062-.5078126-.3496094-.4882812v-.1992188-.9746093l.9160156-.8945313h.8789063v-1.0097656zm2.0859375 0v1.0097656h1.8476563v-1.0097656zm2.8476563 0v1.0097656h1.8476562v-1.0097656zm2.8476562 0v1.0097656h1.847656v-1.0097656zm2.847656 0v1.0097656h1.847656v-1.0097656zm2.847656 0v1.0097656h.878907l.916015.8945313v1.1738281l-5.894531 8.25a.50535904.50535904 0 0 0 -.095703.294922v.529297l2.224609-2.777344a1.0001 1.0001 0 0 1 .777344-.375l3.904297-5.4648438a.50535904.50535904 0 0 0 .09375-.2949218v-1.5488282a.50535904.50535904 0 0 0 -.152344-.3613281l-1.21289-1.1855469a.50535904.50535904 0 0 0 -.353516-.1445312zm-13.2499995 4.3847656-.8808594.5078125 1.0800781 1.5097657.8808594-.5078126zm1.6640625 2.3261719-.8808594.5078125 3.265625 4.566406v4.148438.046875a.50535904.50535904 0 0 0 .2148438.414062l2.9414066 2.070313.457031-.916016-2.601563-1.830078v-4.095703a.50535904.50535904 0 0 0 -.0957028-.294922zm8.402344 10.5019535-.146485.292968.146485-.113281z" fill="#3a3a38"/><g fill="#fafafa" stroke-linecap="round" stroke-linejoin="bevel" stroke-width="2" transform="matrix(.5 .8660254 -.8660254 .5 0 0)"><path d="m12.696331-2.660866h1v10h-1z"/><path d="m15.543789-2.660866h1v10h-1z"/><path d="m18.391247-2.660866h1v10h-1z"/></g><path d="m17.484375 13-2.40625 3.003906a1.0001 1.0001 0 0 1 .816406 1.44336l-1.029297 2.058593 3.507813-2.728515a1.0001 1.0001 0 0 1 -.08008-1.484375l2.292971-2.292969z" fill="#797774" fill-rule="evenodd"/></svg>