<?xml version="1.0" encoding="UTF-8" standalone="no"?>
<svg
   xmlns:dc="http://purl.org/dc/elements/1.1/"
   xmlns:cc="http://creativecommons.org/ns#"
   xmlns:rdf="http://www.w3.org/1999/02/22-rdf-syntax-ns#"
   xmlns:svg="http://www.w3.org/2000/svg"
   xmlns="http://www.w3.org/2000/svg"
   xmlns:sodipodi="http://sodipodi.sourceforge.net/DTD/sodipodi-0.dtd"
   xmlns:inkscape="http://www.inkscape.org/namespaces/inkscape"
   viewBox="0 0 24 24"
   version="1.1"
   id="svg28"
   sodipodi:docname="lc_downloadas-xls.svg"
   inkscape:version="0.92.5 (2060ec1f9f, 2020-04-08)">
  <metadata
     id="metadata34">
    <rdf:RDF>
      <cc:Work
         rdf:about="">
        <dc:format>image/svg+xml</dc:format>
        <dc:type
           rdf:resource="http://purl.org/dc/dcmitype/StillImage" />
      </cc:Work>
    </rdf:RDF>
  </metadata>
  <defs
     id="defs32" />
  <sodipodi:namedview
     pagecolor="#ffffff"
     bordercolor="#666666"
     borderopacity="1"
     objecttolerance="10"
     gridtolerance="10"
     guidetolerance="10"
     inkscape:pageopacity="0"
     inkscape:pageshadow="2"
     inkscape:window-width="1366"
     inkscape:window-height="700"
     id="namedview30"
     showgrid="true"
     inkscape:zoom="19.666667"
     inkscape:cx="7.4628237"
     inkscape:cy="12.83045"
     inkscape:window-x="0"
     inkscape:window-y="0"
     inkscape:window-maximized="1"
     inkscape:current-layer="svg28">
    <inkscape:grid
       type="xygrid"
       id="grid841" />
  </sodipodi:namedview>
  <path
     style="fill:#fafafa;stroke:none;stroke-width:1px;stroke-linecap:butt;stroke-linejoin:miter;stroke-opacity:1"
     d="M 19,21 V 8 H 15 V 4 H 5 v 17 z"
     id="path836"
     inkscape:connector-curvature="0"
     sodipodi:nodetypes="ccccccc" />
  <path
     d="m14.283 22h5.7168v-3.3555l-.00005-1.5272v-9.0762c0-.45068.09804-.42541-.60547-1.0664l-3.3066-3.2383c-.70952-.73686-.71017-.73633-1.0938-.73633h-.99414l-8.9999.00008c-.554 0-1 .446-1 1v17c0 .554.446 1 1 1h5.1836m.79295-.99999h-5.9766v-17h9v4c0 .554.446 1 1 1h4v7.623l.00005 3.498v.87893h-3.1816"
     fill="#808080"
     id="path2"
     style="fill:#3a3a38" />
  <path
     d="m15 8h4l-4-4z"
     fill="#fff"
     fill-rule="evenodd"
     id="path4"
     style="fill:#fafafa" />
  <path
     d="m3 12c-.554 0-1 .446-1 1v9c0 .554.446 1 1 1h9c.554 0 1-.446 1-1v-9c0-.554-.446-1-1-1z"
     fill="#107c41"
     id="path6"
     style="fill:#309048" />
  <g
     id="g26"
     transform="translate(0,1)"
     style="fill:#ffffff">
    <path
       d="m 3,16 h 2 v 1 H 3 Z"
       id="path8"
       inkscape:connector-curvature="0"
       style="fill:#fafafa" />
    <path
       d="m 6,16 h 3 v 1 H 6 Z"
       id="path10"
       inkscape:connector-curvature="0"
       style="fill:#fafafa" />
    <path
       d="m 10,16 h 2 v 1 h -2 z"
       id="path12"
       inkscape:connector-curvature="0"
       style="fill:#fafafa" />
    <path
       d="m 3,18 h 2 v 1 H 3 Z"
       id="path14"
       inkscape:connector-curvature="0"
       style="fill:#fafafa" />
    <path
       d="m 6,18 h 3 v 1 H 6 Z"
       id="path16"
       inkscape:connector-curvature="0"
       style="fill:#fafafa" />
    <path
       d="m 10,18 h 2 v 1 h -2 z"
       id="path18"
       inkscape:connector-curvature="0"
       style="fill:#fafafa" />
    <path
       d="m 3,20 h 2 v 1 H 3 Z"
       id="path20"
       inkscape:connector-curvature="0"
       style="fill:#fafafa" />
    <path
       d="m 6,20 h 3 v 1 H 6 Z"
       id="path22"
       inkscape:connector-curvature="0"
       style="fill:#fafafa" />
    <path
       d="m 10,20 h 2 v 1 h -2 z"
       id="path24"
       inkscape:connector-curvature="0"
       style="fill:#fafafa" />
    <path
       inkscape:connector-curvature="0"
       id="path843"
       d="m 3,14 h 2 v 1 H 3 Z"
       style="fill:#fafafa" />
    <path
       inkscape:connector-curvature="0"
       id="path845"
       d="m 6,14 h 3 v 1 H 6 Z"
       style="fill:#fafafa" />
    <path
       inkscape:connector-curvature="0"
       id="path847"
       d="m 10,14 h 2 v 1 h -2 z"
       style="fill:#fafafa" />
  </g>
</svg>
