<?xml version="1.0" encoding="UTF-8" standalone="no"?>
<svg
   xmlns:dc="http://purl.org/dc/elements/1.1/"
   xmlns:cc="http://creativecommons.org/ns#"
   xmlns:rdf="http://www.w3.org/1999/02/22-rdf-syntax-ns#"
   xmlns:svg="http://www.w3.org/2000/svg"
   xmlns="http://www.w3.org/2000/svg"
   xmlns:sodipodi="http://sodipodi.sourceforge.net/DTD/sodipodi-0.dtd"
   xmlns:inkscape="http://www.inkscape.org/namespaces/inkscape"
   version="1.1"
   viewBox="0 0 24 24"
   id="svg10"
   sodipodi:docname="lc_deletemajorgrid.svg"
   inkscape:version="0.92.5 (2060ec1f9f, 2020-04-08)">
  <metadata
     id="metadata16">
    <rdf:RDF>
      <cc:Work
         rdf:about="">
        <dc:format>image/svg+xml</dc:format>
        <dc:type
           rdf:resource="http://purl.org/dc/dcmitype/StillImage" />
        <dc:title></dc:title>
      </cc:Work>
    </rdf:RDF>
  </metadata>
  <defs
     id="defs14" />
  <sodipodi:namedview
     pagecolor="#ffffff"
     bordercolor="#666666"
     borderopacity="1"
     objecttolerance="10"
     gridtolerance="10"
     guidetolerance="10"
     inkscape:pageopacity="0"
     inkscape:pageshadow="2"
     inkscape:window-width="1366"
     inkscape:window-height="700"
     id="namedview12"
     showgrid="true"
     inkscape:zoom="19.666667"
     inkscape:cx="14.158667"
     inkscape:cy="14.240969"
     inkscape:window-x="0"
     inkscape:window-y="0"
     inkscape:window-maximized="1"
     inkscape:current-layer="svg10">
    <inkscape:grid
       type="xygrid"
       id="grid859" />
  </sodipodi:namedview>
  <g
     fill="#4d82b8"
     id="g8">
    <rect
       transform="matrix(0,-1,-1,0,0,0)"
       x="-5"
       y="-22"
       width="1"
       height="20"
       ry=".5"
       id="rect2"
       style="fill:#ed3d3b" />
    <path
       style="fill:#ed3d3b"
       d="M 2.5,19 C 2.223,19 2,19.223 2,19.5 2,19.777 2.223,20 2.5,20 h 11.371094 l 1,-1 z"
       id="rect4"
       inkscape:connector-curvature="0"
       sodipodi:nodetypes="sssccs" />
    <rect
       transform="matrix(0,-1,-1,0,0,0)"
       x="-12"
       y="-22"
       width="1"
       height="20"
       ry=".5"
       id="rect6"
       style="fill:#ed3d3b" />
  </g>
  <path
     inkscape:connector-curvature="0"
     d="m 22.285683,12.999968 -4.285715,4.285714 -4.285715,-4.285714 -0.714285,0.714285 4.285714,4.285715 -4.285714,4.285715 0.714285,0.714285 4.285715,-4.285714 4.285715,4.285714 0.714285,-0.714285 -4.285714,-4.285715 4.285714,-4.285715 z"
     id="path14"
     style="fill:#ed3d3b" />
</svg>
