<?xml version="1.0" encoding="UTF-8"?>
<svg version="1.1" viewBox="0 0 24 24" xmlns="http://www.w3.org/2000/svg">
 <path d="m5 4v17h5.976562c2.120023-1.87144 3.016527-3.398892 3.425782-4.792969.205243-.699148.278814-1.390169.300781-2.123047-.065036-.590668-.088834-1.223783-.042969-1.910156-.010596-.238464-.010586-.447996-.019531-.625a1.0001 1.0001 0 0 1 .011719-.216797c.000098-.0018-.000108-.002106 0-.003906.0016-.02652-.0039-.028431 0-.056641a1.0001 1.0001 0 0 0 0-.001953c.00262-.01862.02209-.028485.02539-.046875a1.0001 1.0001 0 0 1 .216797-.390625c.25633-.473221.684094-.841701 1.244141-.832031h.001953c.763264.015055 1.403137.633939 1.443359 1.396484a1.0001 1.0001 0 0 0 0 .001954c.04397.871902.073859 1.800796.042969 2.761718.157681.939743.444178 1.626648.835938 2.03711.145831.152793.332658.292536.537109.425781v-8.8945314l-4-3.7285156zm13.777344 16.119141c-.35636.023745-.71519.076194-1.082032.162109-.593735.139055-1.21825.370652-1.876953.71875h3.181641v-.878906c-.074218.002507-.148252-.006911-.222656-.001953z" fill="#fff"/>
 <path d="m5 3c-0.554 0-1 0.446-1 1v17c0 0.554 0.446 1 1 1h5.1836a1.0001 1.0001 0 0 1 0.22852-0.48828c0.002996-0.00322 9.07e-4 -0.008519 0.003907-0.011719a1.0001 1.0001 0 0 1 0.007812-0.007812c0.07109-0.07214 0.018231-0.018055 0.019531-0.017579a1.0001 1.0001 0 0 1 0.085938-0.080078c0.16116-0.13476 0.29858-0.26328 0.44726-0.39453h-5.9766v-17h9v4c0 0.554 0.446 1 1 1h4v7.623c0.28141 0.1834 0.61571 0.34774 1 0.49414v-9.0762c0-0.45068 0.098038-0.42541-0.60547-1.0664l-3.3066-3.2383c-0.70952-0.73686-0.71017-0.73633-1.0938-0.73633h-0.99414zm14 17.121v0.87891h-3.1816c-0.4904 0.25915-1.0013 0.59184-1.5352 1h5.7168v-1.8301c-0.050688-0.01448-0.10597-0.026329-0.15625-0.041016-0.2818-0.022592-0.5625-0.017315-0.84375-0.007812z" fill="#808080"/>
 <path d="m15 8h4l-4-4z" fill="#fff" fill-rule="evenodd"/>
 <path d="m11.474 22.526c5.2269-4.3706 4.8077-7.6883 4.6379-11.053-0.74891 5.4019 2.0389 7.3344 6.4146 7.7093-3.2997-1.0405-6.7965-0.97627-11.052 3.3433z" fill="none" stroke="#d65532" stroke-linecap="round" stroke-linejoin="round" stroke-width=".94853"/>
</svg>
