<?xml version="1.0" encoding="UTF-8" standalone="no"?>
<svg
   xmlns:dc="http://purl.org/dc/elements/1.1/"
   xmlns:cc="http://creativecommons.org/ns#"
   xmlns:rdf="http://www.w3.org/1999/02/22-rdf-syntax-ns#"
   xmlns:svg="http://www.w3.org/2000/svg"
   xmlns="http://www.w3.org/2000/svg"
   xmlns:sodipodi="http://sodipodi.sourceforge.net/DTD/sodipodi-0.dtd"
   xmlns:inkscape="http://www.inkscape.org/namespaces/inkscape"
   viewBox="0 0 24 24"
   version="1.1"
   id="svg8"
   sodipodi:docname="lc_datafilterhideautofilter.svg"
   inkscape:version="0.92.5 (2060ec1f9f, 2020-04-08)">
  <metadata
     id="metadata14">
    <rdf:RDF>
      <cc:Work
         rdf:about="">
        <dc:format>image/svg+xml</dc:format>
        <dc:type
           rdf:resource="http://purl.org/dc/dcmitype/StillImage" />
        <dc:title></dc:title>
      </cc:Work>
    </rdf:RDF>
  </metadata>
  <defs
     id="defs12" />
  <sodipodi:namedview
     pagecolor="#ffffff"
     bordercolor="#666666"
     borderopacity="1"
     objecttolerance="10"
     gridtolerance="10"
     guidetolerance="10"
     inkscape:pageopacity="0"
     inkscape:pageshadow="2"
     inkscape:window-width="1920"
     inkscape:window-height="1020"
     id="namedview10"
     showgrid="false"
     inkscape:snap-bbox="true"
     inkscape:bbox-paths="true"
     inkscape:bbox-nodes="true"
     inkscape:zoom="13.906433"
     inkscape:cx="1.681646"
     inkscape:cy="15.690593"
     inkscape:window-x="0"
     inkscape:window-y="30"
     inkscape:window-maximized="1"
     inkscape:current-layer="svg8" />
  <path
     d="m4.71875 2.5058594-1.2128906 1.1855468v1.1875.3613282l5.9941406 8.3828126v4.310547.046875l2.878906 2.02539 1.003906-2.005859h-.382812a1.0001 1.0001 0 0 1 -.78125-1.625l2.964844-3.699219 5.310547-7.4355466v-1.5488282l-1.212891-1.1855468z"
     fill="#fff"
     id="path2" />
  <path
     d="m17.004237 12h5.995763l-4 4h2l-9 7 3-6h-2z"
     fill="#eac282"
     fill-rule="evenodd"
     id="path4"
     style="fill:#808080;fill-opacity:1" />
  <path
     d="M 4.71875 2 A 0.50535904 0.50535904 0 0 0 4.3652344 2.1445312 L 3.1523438 3.3300781 A 0.50535904 0.50535904 0 0 0 3 3.6914062 L 3 4.8789062 L 3 5.2402344 A 0.50535904 0.50535904 0 0 0 3.09375 5.5351562 L 3.4804688 6.0742188 L 4.359375 5.5664062 L 4.0097656 5.078125 L 4.0097656 4.8789062 L 4.0097656 3.9042969 L 4.9257812 3.0097656 L 5.8046875 3.0097656 L 5.8046875 2 L 4.71875 2 z M 6.8046875 2 L 6.8046875 3.0097656 L 8.6523438 3.0097656 L 8.6523438 2 L 6.8046875 2 z M 9.6523438 2 L 9.6523438 3.0097656 L 11.5 3.0097656 L 11.5 2 L 9.6523438 2 z M 12.5 2 L 12.5 3.0097656 L 14.347656 3.0097656 L 14.347656 2 L 12.5 2 z M 15.347656 2 L 15.347656 3.0097656 L 17.195312 3.0097656 L 17.195312 2 L 15.347656 2 z M 18.195312 2 L 18.195312 3.0097656 L 19.074219 3.0097656 L 19.990234 3.9042969 L 19.990234 5.078125 L 14.095703 13.328125 A 0.50535904 0.50535904 0 0 0 14 13.623047 L 14 14.152344 L 16.224609 11.375 A 1.0001 1.0001 0 0 1 17.001953 11 L 20.90625 5.5351562 A 0.50535904 0.50535904 0 0 0 21 5.2402344 L 21 3.6914062 A 0.50535904 0.50535904 0 0 0 20.847656 3.3300781 L 19.634766 2.1445312 A 0.50535904 0.50535904 0 0 0 19.28125 2 L 18.195312 2 z M 4.9453125 6.3847656 L 4.0644531 6.8925781 L 5.1445312 8.4023438 L 6.0253906 7.8945312 L 4.9453125 6.3847656 z M 6.609375 8.7109375 L 5.7285156 9.21875 L 8.9941406 13.785156 L 8.9941406 17.933594 L 8.9941406 17.980469 A 0.50535904 0.50535904 0 0 0 9.2089844 18.394531 L 12.150391 20.464844 L 12.607422 19.548828 L 10.005859 17.71875 L 10.005859 13.623047 A 0.50535904 0.50535904 0 0 0 9.9101562 13.328125 L 6.609375 8.7109375 z M 15.011719 19.212891 L 14.865234 19.505859 L 15.011719 19.392578 L 15.011719 19.212891 z "
     id="path6"
     style="fill:#808080;fill-opacity:1" />
  <rect
     y="-2.6608655"
     x="12.696331"
     height="10"
     width="1"
     id="rect937"
     style="fill:#ffffff;fill-opacity:1;stroke-width:2;stroke-linecap:round;stroke-linejoin:bevel;paint-order:stroke fill markers"
     transform="rotate(60)" />
  <rect
     y="-2.6608655"
     x="15.543789"
     height="10"
     width="1"
     id="rect939"
     style="fill:#ffffff;fill-opacity:1;stroke-width:2;stroke-linecap:round;stroke-linejoin:bevel;paint-order:stroke fill markers"
     transform="rotate(60)" />
  <rect
     style="fill:#ffffff;fill-opacity:1;stroke-width:2;stroke-linecap:round;stroke-linejoin:bevel;paint-order:stroke fill markers"
     id="rect941"
     width="1"
     height="10"
     x="18.391247"
     y="-2.6608655"
     transform="rotate(60)" />
</svg>
