<svg version="1.1" viewBox="0 0 24 24" xmlns="http://www.w3.org/2000/svg">
 <path d="m14.283 22h5.7168v-3.3555l-5e-5 -1.5272v-9.0762c0-0.45068 0.09804-0.42541-0.60547-1.0664l-3.3066-3.2383c-0.70952-0.73686-0.71017-0.73633-1.0938-0.73633h-0.99414l-8.9999 8e-5c-0.554 0-1 0.446-1 1v17c0 0.554 0.446 1 1 1h5.1836m0.79295-0.99999h-5.9766v-17h9v4c0 0.554 0.446 1 1 1h4v7.623l5e-5 3.498v0.87893h-3.1816" fill="#808080"/>
 <path d="m15 8h4l-4-4z" fill="#fff" fill-rule="evenodd"/>
 <path d="m2.8008 11.926c-0.6075 0-1.1016 0.49211-1.1016 1.0996v8.7988c0 0.6075 0.49406 1.1016 1.1016 1.1016h8.7988c0.6075 0 1.0996-0.49406 1.0996-1.1016v-8.7988c0-0.6075-0.49211-1.0996-1.0996-1.0996z" fill="#fcfcfc" stroke-width=".275"/>
 <path d="m2.8008 11.926c-0.6075 0-1.1016 0.49211-1.1016 1.0996v8.7988c0 0.6075 0.49406 1.1016 1.1016 1.1016h8.7988c0.6075 0 1.0996-0.49406 1.0996-1.1016v-8.7988c0-0.6075-0.49211-1.0996-1.0996-1.0996h-8.7988zm1.5879 2.1992h1.5977l1.084 2.1035c0.099633 0.19943 0.16773 0.34914 0.20508 0.44726h0.015625c0.071968-0.1595 0.14673-0.31458 0.22461-0.46484l1.1582-2.0859h1.4668l-2.0371 3.2734 2.0879 3.3281h-1.5605l-1.252-2.3105c-0.05291-0.08569-0.10172-0.18878-0.14844-0.30859h-0.019531c-0.021752 0.07381-0.069868 0.17321-0.14453 0.29883l-1.2891 2.3203h-1.5703l2.168-3.3105-1.9863-3.291z" fill="#107c41" stroke-width=".275"/>
</svg>
