<svg viewBox="0 0 24 24" xmlns="http://www.w3.org/2000/svg"><path d="m10.386719 2a8.5 8.5 0 0 0 -8.386719 8.5 8.5 8.5 0 0 0 8.5 8.5 8.5 8.5 0 0 0 .195312-.001953l.494141-.492188c.0132-.018601.018584-.040705.033203-.058593.02153-.02587.04434-.050639.06836-.074219l.707031-.707031.712891-.707032 4.802734-4.783203 1.482422-1.478515a8.5 8.5 0 0 0 .003906-.197266 8.5 8.5 0 0 0 -8.5-8.5 8.5 8.5 0 0 0 -.113281 0z" fill="#3a3a38" stroke-linecap="round" stroke-linejoin="bevel" stroke-miterlimit="1" stroke-width="3"/><path d="m10.5 3a7.5 7.5 0 0 0 -.263672.0136719c-.5971989.985706-1.0692221 1.9644003-1.4257811 2.9394531 1.129272.075053 2.2484701.0544355 3.3613281-.0546875-.354713-.9583015-.823008-1.9200466-1.410156-2.8886719a7.5 7.5 0 0 0 -.261719-.0097656zm-1.4921875.1503906a7.5 7.5 0 0 0 -3.9101563 2.1503906c.9098791.2573893 1.8114682.4436861 2.7050782.5527344.308001-.9021846.7082951-1.8037121 1.2050781-2.703125zm2.9882815.0078125c.479075.868303.868816 1.7384591 1.171875 2.609375.899508-.1257469 1.796125-.2959431 2.691406-.5058593a7.5 7.5 0 0 0 -3.863281-2.1035157zm4.582031 2.9609375c-1.022249.2536433-2.053355.4635562-3.09375.6152344.159697.5820098.271014 1.1639578.351563 1.7460938.075345.5059077.123954 1.0123644.144531 1.5195312h3.99414a7.5 7.5 0 0 0 -.072265-.609375 7.5 7.5 0 0 0 -.021485-.1660156 7.5 7.5 0 0 0 -.113281-.5097656 7.5 7.5 0 0 0 -.05664-.2382813 7.5 7.5 0 0 0 -.16211-.4960937 7.5 7.5 0 0 0 -.072266-.2050782 7.5 7.5 0 0 0 -.207031-.4707031 7.5 7.5 0 0 0 -.103515-.2207031 7.5 7.5 0 0 0 -.587891-.9648438zm-12.1699219.0214844a7.5 7.5 0 0 0 -.6875 1.1777344 7.5 7.5 0 0 0 -.1269531.2871094 7.5 7.5 0 0 0 -.1425781.3652343 7.5 7.5 0 0 0 -.1289063.3964844 7.5 7.5 0 0 0 -.0761718.2773437 7.5 7.5 0 0 0 -.1113282.5019532 7.5 7.5 0 0 0 -.0332031.1914062 7.5 7.5 0 0 0 -.0761719.6621094h3.9941406c.0206-.5077947.0690203-1.0149517.1445313-1.5214844.07755-.5515257.1844493-1.1028314.3320313-1.6542968-1.0182201-.1339905-2.0482147-.3640043-3.0878907-.6835938zm8.0898439.7226562c-1.321553.1410981-2.6602841.1665118-4.0156251.0585938-.0075.026104-.0102782.052025-.0175781.078125h.0136718c-.280816 1.000216-.4356587 1.9998302-.4804687 3h5.0039061c-.044811-1.00017-.199652-1.999784-.480469-3h.007813c-.01277-.045664-.01795-.091043-.03125-.1367188zm-9.4726564 4.1367188a7.5 7.5 0 0 0 .0722656.609375 7.5 7.5 0 0 0 .0214844.166016 7.5 7.5 0 0 0 .1132813.509765 7.5 7.5 0 0 0 .0566406.238282 7.5 7.5 0 0 0 .1621094.496093 7.5 7.5 0 0 0 .0722656.205078 7.5 7.5 0 0 0 .2070313.470703 7.5 7.5 0 0 0 .1035156.220704 7.5 7.5 0 0 0 .5878906.964843c1.022249-.253643 2.053355-.463556 3.09375-.615234-.159697-.58201-.2710145-1.163958-.3515625-1.746094-.07535-.505908-.1239542-1.012364-.1445313-1.519531zm4.9726563 0c.04481 1.00017.1996517 1.999784.4804687 3h-.0078125c.01277.04566.01796.09104.03125.136719 1.321553-.141098 2.6602839-.166516 4.0156249-.058594.0075-.0261.010278-.052015.017578-.078125h-.013672c.280816-1.000216.435659-1.99983.480469-3zm5.9824221 0c-.02058.507167-.06919 1.013623-.144531 1.519531-.080551.582136-.191866 1.164084-.351563 1.746094.549853.080162 1.095897.178509 1.640625.289063l2.388672-2.378907.357422-.355469a7.5 7.5 0 0 0 .009765-.044921 7.5 7.5 0 0 0 .021485-.166016 7.5 7.5 0 0 0 .072265-.609375zm-3.478516 4.005859c-.5600656.009413-1.117399.041138-1.673828.095703.354713.958301.8230082 1.920047 1.410156 2.888672a7.5 7.5 0 0 0 .261719.009766 7.5 7.5 0 0 0 .263672-.013672c.597199-.985706 1.069222-1.9644 1.425781-2.939453-.564636-.037525-1.127434-.050428-1.6875-.041016zm-2.6699218.226563c-.8995079.125747-1.7961252.295943-2.6914062.505859a7.5 7.5 0 0 0 3.8632812 2.103516c-.4790749-.868303-.8688159-1.738459-1.171875-2.609375zm5.3359378 0c-.262954.755663-.604799 1.509862-1 2.263672l.542969-.53711 1.552734-1.546875c-.364832-.065495-.730021-.128566-1.095703-.179687z" fill="#fafafa"/><g fill="#fb983b" transform="translate(-1 -1)"><path d="m20.419922 11c-.189562 0-.378184.07172-.523438.216797l-1.673828 1.669922 2.847656 2.849609 1.710938-1.638672c.290506-.290127.290506-.756747 0-1.046875l-1.835938-1.833984c-.145254-.145064-.335828-.216797-.52539-.216797zm0 .990234 1.582031 1.580078-.917969.88086-1.5625-1.5625z" fill="#0063b1" transform="translate(1 1)"/><path d="m21.419922 12.990234-.898438.898438 1.5625 1.5625.917969-.88086z" fill="#83beec"/><g transform="translate(1 1)"><path d="m12.708984 18.376953-.002-.002-.706984.707078.002.002-.05078.05078-.95122 3.865189 3.806641-1.011719 6.24414-6.271484-2.828125-2.830078zm5.511719-4.191406 1.53125 1.533203-4.841797 4.861328-1.550781-1.552734zm-5.509765 5.708984 1.34375 1.341797-1.791016.476563z" fill="#0063b1"/><path d="m18.220703 14.185547 1.53125 1.533203-4.841797 4.861328-1.550781-1.552734zm-5.509765 5.708984 1.34375 1.341797-1.791016.476563z" fill="#83beec"/></g></g></svg>