<?xml version="1.0" encoding="UTF-8" standalone="no"?>
<svg
   xmlns:dc="http://purl.org/dc/elements/1.1/"
   xmlns:cc="http://creativecommons.org/ns#"
   xmlns:rdf="http://www.w3.org/1999/02/22-rdf-syntax-ns#"
   xmlns:svg="http://www.w3.org/2000/svg"
   xmlns="http://www.w3.org/2000/svg"
   id="svg24"
   viewBox="0 0 24 24"
   version="1.1">
  <metadata
     id="metadata30">
    <rdf:RDF>
      <cc:Work
         rdf:about="">
        <dc:format>image/svg+xml</dc:format>
        <dc:type
           rdf:resource="http://purl.org/dc/dcmitype/StillImage" />
        <dc:title></dc:title>
      </cc:Work>
    </rdf:RDF>
  </metadata>
  <defs
     id="defs28" />
  <path
     d="M 10.386719 2 A 8.5 8.5 0 0 0 2 10.5 A 8.5 8.5 0 0 0 10.5 19 A 8.5 8.5 0 0 0 10.695312 18.998047 L 17.710938 11.988281 L 18.808594 10.916016 L 18.996094 10.728516 A 8.5 8.5 0 0 0 19 10.5 A 8.5 8.5 0 0 0 10.5 2 A 8.5 8.5 0 0 0 10.386719 2 z "
     style="display:inline;fill:#808080;fill-opacity:1;stroke-width:3;stroke-linecap:round;stroke-linejoin:bevel;stroke-miterlimit:1;stop-color:#000000"
     id="path1077" />
  <path
     d="m 10.500025,18.00002 a 7.5,7.5 0 0 0 0.263672,-0.01367 c 0.597199,-0.985706 1.069222,-1.9644 1.425781,-2.939453 -1.129272,-0.07505 -2.24847,-0.05444 -3.361328,0.05469 0.354713,0.958301 0.823008,1.920047 1.410156,2.888672 a 7.5,7.5 0 0 0 0.261719,0.0098 z M 9.003931,17.841819 C 8.524856,16.973516 8.135115,16.103358 7.832056,15.232442 6.932548,15.358189 6.035931,15.528385 5.14065,15.738301 a 7.5,7.5 0 0 0 3.863281,2.103516 z M 4.4219,14.880879 C 5.444149,14.627236 6.475255,14.417323 7.51565,14.265645 7.355953,13.683635 7.244635,13.101687 7.164087,12.519551 7.088737,12.013643 7.040133,11.507187 7.019556,11.00002 h -3.99414 a 7.5,7.5 0 0 0 0.07227,0.609375 7.5,7.5 0 0 0 0.02148,0.166016 7.5,7.5 0 0 0 0.113281,0.509765 7.5,7.5 0 0 0 0.05664,0.238281 7.5,7.5 0 0 0 0.162109,0.496094 7.5,7.5 0 0 0 0.07227,0.205078 7.5,7.5 0 0 0 0.207031,0.470703 7.5,7.5 0 0 0 0.103515,0.220704 7.5,7.5 0 0 0 0.587891,0.964843 z m 4.080078,-0.74414 c 1.321553,-0.141098 2.660284,-0.166512 4.015625,-0.05859 0.0075,-0.0261 0.01028,-0.05202 0.01758,-0.07813 h -0.01367 c 0.280816,-1.000216 0.435659,-1.99983 0.480469,-3 h -5.00391 c 0.04481,1.00017 0.199652,1.999784 0.480469,3 h -0.0078 c 0.01277,0.04566 0.01796,0.09104 0.03125,0.136719 z M 10.500025,3 A 7.5,7.5 0 0 0 10.236353,3.013672 C 9.639154,3.999378 9.167131,4.9780722 8.810572,5.953125 9.939844,6.028178 11.059042,6.007561 12.1719,5.898438 11.817187,4.9401365 11.348892,3.9783909 10.761744,3.0097656 A 7.5,7.5 0 0 0 10.500025,3 Z M 9.007837,3.1503906 A 7.5,7.5 0 0 0 5.097681,5.3007812 C 6.00756,5.5581705 6.909149,5.7444673 7.802759,5.8535156 8.11076,4.951331 8.511054,4.0498035 9.007837,3.1503906 Z m 2.988282,0.00781 c 0.479075,0.868303 0.868816,1.7384616 1.171875,2.6093775 C 14.067502,5.6418312 14.964119,5.471635 15.8594,5.2617188 A 7.5,7.5 0 0 0 11.996119,3.1582031 Z m 4.582031,2.96094 C 15.555901,6.3727839 14.524795,6.5826968 13.4844,6.734375 13.644097,7.3163848 13.755415,7.8983329 13.835963,8.4804688 13.911309,8.9863766 13.959917,9.4928332 13.980494,10 h 3.99414 A 7.5,7.5 0 0 0 17.902369,9.390625 7.5,7.5 0 0 0 17.880884,9.2246094 7.5,7.5 0 0 0 17.767603,8.7148438 7.5,7.5 0 0 0 17.710962,8.4765625 7.5,7.5 0 0 0 17.548853,7.9804688 7.5,7.5 0 0 0 17.476587,7.7753906 7.5,7.5 0 0 0 17.269556,7.3046875 7.5,7.5 0 0 0 17.166041,7.0839844 7.5,7.5 0 0 0 16.57815,6.1191406 Z M 4.408228,6.1406246 A 7.5,7.5 0 0 0 3.720728,7.318359 7.5,7.5 0 0 0 3.593775,7.6054684 7.5,7.5 0 0 0 3.451197,7.9707027 7.5,7.5 0 0 0 3.322291,8.3671871 7.5,7.5 0 0 0 3.246121,8.6445308 7.5,7.5 0 0 0 3.134793,9.146484 7.5,7.5 0 0 0 3.101593,9.3378902 7.5,7.5 0 0 0 3.025416,10 h 3.99414 C 7.040156,9.4922053 7.088576,8.9850483 7.164087,8.4785156 7.241637,7.9269899 7.348537,7.3756843 7.496119,6.8242188 6.477899,6.6902283 5.447904,6.4602141 4.408228,6.1406246 Z m 8.089844,0.7226566 c -1.321553,0.141098 -2.660284,0.166512 -4.015625,0.058594 -0.0075,0.026104 -0.01028,0.052025 -0.01758,0.078125 h 0.01367 C 8.197721,8.0002162 8.042878,8.9998302 7.998068,10 h 5.00391 C 12.957167,8.99983 12.802326,8.000216 12.521509,7 h 0.0078 C 12.516539,6.954336 12.511359,6.908957 12.498059,6.8632812 Z M 17.974634,11 h -3.99414 c -0.02058,0.507167 -0.06919,1.013623 -0.144531,1.519531 -0.08055,0.582136 -0.191866,1.164084 -0.351563,1.746094 1.040395,0.151678 2.071501,0.361591 3.09375,0.615234 a 7.5,7.5 0 0 0 0.587891,-0.964843 7.5,7.5 0 0 0 0.103515,-0.220704 7.5,7.5 0 0 0 0.207031,-0.470703 7.5,7.5 0 0 0 0.07227,-0.205078 7.5,7.5 0 0 0 0.16211,-0.496093 7.5,7.5 0 0 0 0.05664,-0.238282 7.5,7.5 0 0 0 0.113281,-0.509765 7.5,7.5 0 0 0 0.02148,-0.166016 A 7.5,7.5 0 0 0 17.974634,11 Z m -4.80664,4.232422 c -0.303059,0.870916 -0.6928,1.741062 -1.171875,2.609375 A 7.5,7.5 0 0 0 15.8594,15.738281 c -0.895281,-0.209916 -1.791898,-0.380112 -2.691406,-0.505859 z"
     style="display:inline;fill:#ffffff;fill-opacity:1"
     id="path1047" />
  <path
     d="m 20.419922,11 c -0.189562,0 -0.378184,0.07172 -0.523438,0.216797 l -1.673828,1.669922 2.847656,2.849609 1.710938,-1.638672 c 0.290506,-0.290127 0.290506,-0.756747 0,-1.046875 L 20.945312,11.216797 C 20.800058,11.071733 20.609484,11 20.419922,11 Z M 17.480469,13.611328 11.951172,19.134766 11,23 l 3.806641,-1.011719 5.509765,-5.544922 z"
     style="fill:#eac282"
     id="path6-3" />
</svg>
