<?xml-stylesheet type="text/css" href="icons.css" ?>
<svg viewBox="0 0 24 24" xmlns="http://www.w3.org/2000/svg">
  <g id="background"
	 class="icn icn--text-color" 
     fill="#3a3a38"
     >
      <path d="m10.898438 4-5.898438 16h1.6875c.1834758 0 .3391615-.05267.4667969-.158203.1356125-.10553.2275273-.227232.2753906-.365235l1.203125-3.476562h6.7343755l1.214843 3.488281c.06382.146119.151991.267822.263672.365235.119658.09741.275344.146484.466797.146484h1.6875l-5.886719-16zm1.101562 2.09375 2.671875 7.90625h-5.34375l2.205078-6.3710938c.07179-.1948249.146791-.4218736.226563-.6816406.079772-.2597669.160462-.5450426.240234-.8535156z"/>
  </g>
  <g id="symbol-background"
	 class="icn icn--background"
     stroke="#fff" 
     stroke-width="3px"
	 stroke-linecap="round" 
	 stroke-linejoin="round"
      >
      <path d="m 10.5,22.5 5,-2 -3,-3 z" />
      <path d="m 15.5,20.5 5,-5 -3,-3 -5,5 z" />
      <path d="m 22.5,13.5 -2,2 -3,-3 2,-2 z" />
  </g>
  <g id="symbol"
	 class="icn icn--highlight-color"  
     fill="#83beec" 
     stroke="#1e8bcd" 
	 stroke-linecap="round" 
	 stroke-linejoin="round"
      >
      <path d="m 10.5,22.5 5,-2 -3,-3 z" />
      <path d="m 15.5,20.5 5,-5 -3,-3 -5,5 z" />
      <path d="m 22.5,13.5 -2,2 -3,-3 2,-2 z" />
  </g>
</svg>
