<svg height="24" viewBox="0 0 24 24" width="24" xmlns="http://www.w3.org/2000/svg"><g fill="#4d4d4d" transform="translate(1 -1029.3622)"><path d="m6.6239743 1045.8945c1.6099.6873 3.0859566.8593 4.9257737.8764 1.500698.013 3.690811-.1443 3.746226-2.1334.03126-1.4095-1.920308-1.9942-3.774334-2.5218-3.3242107-.8415-5.5062088-1.3523-5.5007322-3.9914-.000001-1.272.5052711-2.2156 1.5158179-2.8305 1.0105417-.6211 2.4078808-.9316 4.1920213-.9316.933875 0 1.808519.088 2.623933.2622.815394.175 2.096736.646 2.64732.9415l-.775134 1.5433c-2.08646-1.0413-3.893942-1.0946-4.78755-1.0995-1.8814108.0002-3.841632.514-3.7613017 1.9187-.047196 1.5792 2.3050471 2.2592 3.9018427 2.6522 3.91715 1.3003 5.299427 1.841 5.3811 3.9758.02637 3.1232-3.111973 3.7871-5.465425 3.8058-1.240535 0-2.2353991-.1079-3.2041242-.3256-.9617628-.223-1.7248979-.4853-2.2894078-.7866"/><path d="m10 1032.3622h1.0000002v18.000025h-1.0000002z" fill-rule="evenodd" overflow="visible"/><path d="m12 1032.3622h1.0000002v18.000025h-1.0000002z" fill-rule="evenodd" overflow="visible"/></g></svg>