<?xml-stylesheet type="text/css" href="icons.css" ?>
<svg viewBox="0 0 24 24" xmlns="http://www.w3.org/2000/svg">
  <path
	 class="icn icn--shape-color" 
     d="M 6.5820312,11.5 2.5,14.5 c 1.7691591,4.147937 5.3458656,7 9.498047,7 h 0.0039 c 4.152181,0 7.728887,-2.852063 9.498047,-7 l -4.082032,-3 c -0.90816,2.166863 -2.997373,4 -5.416016,4 -2.4198268,0 -4.4949712,-1.779205 -5.4199208,-4 z"
     fill="#fafafa" 
	 stroke="#3a3a38" 
	 stroke-linecap="round" 
	 stroke-linejoin="round"
     />
  <path
	 class="icn icn--shape-color" 
     d="M 6.5820312,11.500028 2.5,8.5000279 c 1.7691591,-4.147937 5.3458656,-7 9.498047,-7 h 0.0039 c 4.152181,0 7.728887,2.852063 9.498047,7 l -4.082033,3.0000001 c -0.90816,-2.1668631 -2.997373,-4.0000001 -5.416016,-4.0000001 -2.4198258,0 -4.4949702,1.779205 -5.4199198,4.0000001 z"
     fill="#fafafa" 
	 stroke="#3a3a38" 
	 stroke-linecap="round" 
	 stroke-linejoin="round"
     />
</svg>
