<svg version="1.1" viewBox="0 0 24 24" xmlns="http://www.w3.org/2000/svg">
 <g>
  <g fill="#808080">
   <path d="m11 12c-0.554 0-1 0.446-1 1v6c0 0.554 0.446 1 1 1h1.2754l0.24609-1h-1.5215v-6h3v4.3418l1-1v-3.3418c0-0.554-0.446-1-1-1h-3z"/>
   <path d="m15 10c-0.554 0-1 0.446-1 1v6.3418l1-1v-5.3418h3v2.3457l0.25195-0.25195 0.0078 0.0078 0.74023-0.73828v-1.3633c0-0.554-0.446-1-1-1h-3z"/>
   <path d="m8 6c-0.554 0-1 0.446-1 1v12c0 0.554 0.446 1 1 1h2c0.554 0 1-0.446 1-1v-12c0-0.554-0.446-1-1-1h-1z"/>
  </g>
  <path d="m2.5 19c-0.277 0-0.5 0.223-0.5 0.5s0.223 0.5 0.5 0.5h9.7754l0.24609-1h-10.021zm17.568 0-0.99414 1h2.4258c0.277 0 0.5-0.223 0.5-0.5s-0.223-0.5-0.5-0.5h-1.4316z" fill="#4d82b8"/>
 </g>
 <path d="m15 11h3v8h-3z" fill="#fff"/>
 <path d="m11 13h3v6h-3z" fill="#fff"/>
 <rect transform="scale(-1,1)" x="-5" y="2" width="1" height="20" ry=".5" fill="#4d82b8"/>
 <g fill="#eac282" stroke-width="1.1667">
  <path d="m18.09 14.492-4.7659 4.7609-0.81985 3.3316 3.2811-0.87204 4.7491-4.7795z"/>
  <path d="m20.624 12.241c-0.16339 0-0.32597 0.06182-0.45117 0.18687l-1.4427 1.4394 2.4545 2.4562 1.4747-1.4125c0.2504-0.25008 0.2504-0.65229 0-0.90239l-1.5824-1.5808c-0.1252-0.12504-0.28946-0.18687-0.45286-0.18687z"/>
 </g>
</svg>
