<?xml-stylesheet type="text/css" href="icons.css" ?>
<svg viewBox="0 0 24 24" xmlns="http://www.w3.org/2000/svg">
  <g id="background"
	 class="icn icn--text-color"
     fill="#3a3a38"
     transform="translate(-1,0)"
     >
      <path d="M 10.9,4 5,20 h 1.7 c 0.2,0 0.3,-0 0.5,-0.2 0.1,-0.1 0.2,-0.2 0.3,-0.4 L 8.6,16 h 6.7 l 1.2,3.5 c 0,0.1 0.1,0.3 0.3,0.4 C 17,20 17,20 17.3,20 H 19 L 13.1,4 Z M 12,6.1 14.7,14 H 9.3 L 11.5,7.6 C 11.6,7.4 11.7,7.2 11.8,6.9 11.8,6.7 11.9,6.4 12,6.1 Z" />
  </g>
  <g id="symbol"
	 class="icn icn--highlight-color-line"
     fill="none"
     stroke="#1e8bcd"
	 stroke-linecap="round"
	 stroke-linejoin="round"
      >
      <path d="M 18.5,11.5 V 1.5" />
      <path d="m 14.5,5.5 4,-4 4,4" />
  </g>
</svg>
