<svg viewBox="0 0 24 24" xmlns="http://www.w3.org/2000/svg"><g transform="matrix(0 -1 1 0 .000154 25.000154)"><path d="m9.0001771 13.515625c-.0115041-.454318.5402829-.686847.8574219-.361328l2.144531 2.148437-.0019-6.777343c-.018003-.350177.241458-.525391.499947-.525391s.51795.175214.5.525391l-.002 6.777343 2.144531-2.148437c.317139-.325519.868926-.09299.857422.361328-.0041.130048-.05875.25337-.152344.34375l-2.912112 2.916016c-.160599.173289-.266379.223009-.435497.224609-.169118-.0016-.274898-.05132-.435547-.224609l-2.9121091-2.916016c-.093594-.09038-.1482439-.213702-.1523438-.34375z" fill="#1e8bcd" fill-rule="evenodd"/><path d="m11 3h3v3h-3z" fill="#1e8bcd"/><path d="m11.005 19h3v3h-3z" fill="#3a3a38"/></g></svg>