<?xml version="1.0" encoding="UTF-8" standalone="no"?>
<svg
   xmlns:dc="http://purl.org/dc/elements/1.1/"
   xmlns:cc="http://creativecommons.org/ns#"
   xmlns:rdf="http://www.w3.org/1999/02/22-rdf-syntax-ns#"
   xmlns:svg="http://www.w3.org/2000/svg"
   xmlns="http://www.w3.org/2000/svg"
   xmlns:sodipodi="http://sodipodi.sourceforge.net/DTD/sodipodi-0.dtd"
   xmlns:inkscape="http://www.inkscape.org/namespaces/inkscape"
   viewBox="0 0 24 24"
   version="1.1"
   id="svg12"
   sodipodi:docname="lc_horizontalpos.svg"
   inkscape:version="0.92.5 (2060ec1f9f, 2020-04-08)">
  <metadata
     id="metadata18">
    <rdf:RDF>
      <cc:Work
         rdf:about="">
        <dc:format>image/svg+xml</dc:format>
        <dc:type
           rdf:resource="http://purl.org/dc/dcmitype/StillImage" />
        <dc:title></dc:title>
      </cc:Work>
    </rdf:RDF>
  </metadata>
  <defs
     id="defs16" />
  <sodipodi:namedview
     pagecolor="#ffffff"
     bordercolor="#666666"
     borderopacity="1"
     objecttolerance="10"
     gridtolerance="10"
     guidetolerance="10"
     inkscape:pageopacity="0"
     inkscape:pageshadow="2"
     inkscape:window-width="1366"
     inkscape:window-height="700"
     id="namedview14"
     showgrid="true"
     inkscape:zoom="13.906433"
     inkscape:cx="6.0903502"
     inkscape:cy="19.086482"
     inkscape:window-x="0"
     inkscape:window-y="0"
     inkscape:window-maximized="1"
     inkscape:current-layer="svg12">
    <inkscape:grid
       type="xygrid"
       id="grid828" />
  </sodipodi:namedview>
  <g
     id="g818"
     transform="rotate(-90,12.500154,12.5)">
    <path
       id="path8-3"
       d="M 9.0001771,13.515625 C 8.988673,13.061307 9.54046,12.828778 9.857599,13.154297 l 2.144531,2.148437 -0.0019,-6.777343 C 11.982227,8.175214 12.241688,8 12.500177,8 c 0.258489,0 0.51795,0.175214 0.5,0.525391 l -0.002,6.777343 2.144531,-2.148437 c 0.317139,-0.325519 0.868926,-0.09299 0.857422,0.361328 -0.0041,0.130048 -0.05875,0.25337 -0.152344,0.34375 l -2.912112,2.916016 C 12.775075,16.94868 12.669295,16.9984 12.500177,17 12.331059,16.9984 12.225279,16.94868 12.06463,16.775391 L 9.1525209,13.859375 C 9.0589269,13.768995 9.004277,13.645673 9.0001771,13.515625 Z"
       style="fill:#1e8bcd;fill-rule:evenodd"
       inkscape:connector-curvature="0" />
    <path
       d="m 11,3 h 3 v 3 h -3 z"
       id="path6"
       style="fill:#1e8bcd"
       inkscape:connector-curvature="0" />
    <path
       d="m 11.005,19 h 3 v 3 h -3 z"
       id="path8"
       style="fill:#3a3a38"
       inkscape:connector-curvature="0" />
  </g>
</svg>
