<svg height="24" width="24" xmlns="http://www.w3.org/2000/svg"><g transform="translate(-550.28571 -606.64789)"><path d="m3.9980469 4.9941406v1 8.0000004 1h .0117187l-.0117187.011718 3.9921875 3.992188h.0117187 1.40625 1.5917969v.001953h3v-1h-3v-.001953h-1-1.0039062v-4h-1-3v-8.0000001h14.0000002v5.0019531h.003906v2h1v1 4.998047h.001953v-1-12.0000001-1h-.003906v-.0039063zm6.9980471 2.0039063h1zm4 0h1zm-4.996094 3.4316411a1.5 1.5 0 0 0 -.0039062.068359 1.5 1.5 0 0 0  .0039062.076172z" fill="#4d4d4d" transform="translate(550.28571 606.64789)"/><path d="m567.28573 620.64802v2h-2v1h2v2h1v-2h2v-1h-2v-2z" fill="#1d99f3" fill-rule="evenodd"/></g></svg>