<svg version="1.1" viewBox="0 0 24 24" xmlns="http://www.w3.org/2000/svg">
 <path d="m4.6973 2.0117c-1.5013 0-2.7207 1.4211-2.7207 3.1719v9.9863c0 1.7492 1.2194 3.1738 2.7207 3.1738h11.029l2.2969 3.1621c0.077886 0.10981 0.19237 0.16797 0.31055 0.16797 0.047 0 0.093625-0.010737 0.14062-0.029297 0.1598-0.069596 0.26758-0.24776 0.26758-0.44726v-2.8535h0.56836c1.5 0 2.7207-1.4246 2.7207-3.1738v-9.9863c0-1.7507-1.2213-3.1719-2.7227-3.1719h-14.611zm6.3066 3.166h2v4h4v2h-4v4h-2v-4h-4v-2h4v-4z" fill="#555" stroke-width="0"/>
</svg>
