<svg version="1.1" viewBox="0 0 24 24" xmlns="http://www.w3.org/2000/svg">
 <g transform="matrix(0 1.996 1.996 0 -13.94 -25.91)">
  <path transform="rotate(-90,15.75,8.75)" d="m9.9785 9.873a0.50005 0.50005 0 0 0-0.33984 0.16211l-1.957 2.084-0.00391 0.0039a0.50005 0.50005 0 0 0 0.025391 0.78516l1.9355 2.0566a0.50085 0.50085 0 1 0 0.72852-0.6875l-1.2012-1.2734 5.834-0.009765a0.50005 0.50005 0 0 0 0.50781-0.50781 0.50005 0.50005 0 0 0-0.50781-0.49219l-5.8379 0.0098 1.2051-1.2832a0.50005 0.50005 0 0 0 0.14062-0.36332 0.50005 0.50005 0 0 0-0.5293-0.48438z" color="#000000" color-rendering="auto" dominant-baseline="auto" fill="#4d82b8" image-rendering="auto" shape-rendering="auto" solid-color="#000000" style="font-feature-settings:normal;font-variant-alternates:normal;font-variant-caps:normal;font-variant-ligatures:normal;font-variant-numeric:normal;font-variant-position:normal;isolation:auto;mix-blend-mode:normal;shape-padding:0;text-decoration-color:#000000;text-decoration-line:none;text-decoration-style:solid;text-indent:0;text-orientation:mixed;text-transform:none;white-space:normal"/>
 </g>
</svg>
