<svg viewBox="0 0 24 24" xmlns="http://www.w3.org/2000/svg">
  <g transform="matrix(1.342859, 0, 0, 1.546583, 38.474636, 8.919449)" style="">
    <path style="fill: rgb(85, 85, 85);" d="M -12.245 -2.415 L -12.245 4.042 C -12.245 5.173 -13.154 6.094 -14.271 6.094 L -14.694 6.094 L -14.694 7.939 C -14.694 8.068 -14.774 8.183 -14.893 8.228 C -14.928 8.24 -14.963 8.247 -14.998 8.247 C -15.086 8.247 -15.172 8.209 -15.23 8.138 L -16.94 6.094 L -25.153 6.094 C -26.271 6.094 -27.18 5.173 -27.18 4.042 L -27.18 -2.415 C -27.18 -3.547 -26.271 -4.467 -25.153 -4.467 L -14.272 -4.467 C -13.154 -4.467 -12.245 -3.547 -12.245 -2.415 Z M -15.758 -0.115 L -18.737 -0.115 L -18.737 -2.701 L -20.226 -2.701 L -20.226 -0.115 L -23.205 -0.115 L -23.205 1.178 L -20.226 1.178 L -20.226 3.764 L -18.737 3.764 L -18.737 1.178 L -15.758 1.178 Z"/>
  </g>
</svg>