<?xml version="1.0" encoding="UTF-8" standalone="no"?>
<svg
   xmlns:dc="http://purl.org/dc/elements/1.1/"
   xmlns:cc="http://creativecommons.org/ns#"
   xmlns:rdf="http://www.w3.org/1999/02/22-rdf-syntax-ns#"
   xmlns:svg="http://www.w3.org/2000/svg"
   xmlns="http://www.w3.org/2000/svg"
   xmlns:sodipodi="http://sodipodi.sourceforge.net/DTD/sodipodi-0.dtd"
   xmlns:inkscape="http://www.inkscape.org/namespaces/inkscape"
   version="1.1"
   viewBox="0 0 24 24"
   id="svg6"
   sodipodi:docname="lc_insertlrm.svg"
   inkscape:version="0.92.5 (2060ec1f9f, 2020-04-08)">
  <metadata
     id="metadata12">
    <rdf:RDF>
      <cc:Work
         rdf:about="">
        <dc:format>image/svg+xml</dc:format>
        <dc:type
           rdf:resource="http://purl.org/dc/dcmitype/StillImage" />
      </cc:Work>
    </rdf:RDF>
  </metadata>
  <defs
     id="defs10" />
  <sodipodi:namedview
     pagecolor="#ffffff"
     bordercolor="#666666"
     borderopacity="1"
     objecttolerance="10"
     gridtolerance="10"
     guidetolerance="10"
     inkscape:pageopacity="0"
     inkscape:pageshadow="2"
     inkscape:window-width="1366"
     inkscape:window-height="700"
     id="namedview8"
     showgrid="true"
     inkscape:zoom="19.666667"
     inkscape:cx="9.9080682"
     inkscape:cy="7.788082"
     inkscape:window-x="0"
     inkscape:window-y="0"
     inkscape:window-maximized="1"
     inkscape:current-layer="svg6"
     inkscape:snap-smooth-nodes="true">
    <inkscape:grid
       type="xygrid"
       id="grid822" />
  </sodipodi:namedview>
  <path
     id="path8-3"
     d="m 16.515779,15.999977 c -0.454318,0.0115 -0.686847,-0.540283 -0.361328,-0.857422 l 2.148437,-2.144531 -13.777497,0.0019 C 4.175214,13.017947 4,12.758489 4,12.5 4,12.241511 4.175214,11.98205 4.525391,12 l 13.777497,0.002 -2.148437,-2.1445309 c -0.325519,-0.317139 -0.09299,-0.868926 0.361328,-0.857422 0.130048,0.0041 0.25337,0.05875 0.34375,0.152344 l 2.916016,2.9121119 c 0.173289,0.160599 0.223009,0.266379 0.224609,0.435497 -0.0016,0.169118 -0.05132,0.274898 -0.224609,0.435547 l -2.916016,2.912109 c -0.09038,0.09359 -0.213702,0.148244 -0.34375,0.152344 z"
     style="fill:#1e8bcd;fill-rule:evenodd"
     inkscape:connector-curvature="0"
     sodipodi:nodetypes="ccccscccccccccc" />
</svg>
