<svg viewBox="0 0 24 24" xmlns="http://www.w3.org/2000/svg"><path d="m8 8h3v2h-3z" fill="#1e8bcd" stroke-width="1.5"/><path d="m12 8h3v2h-3z" fill="#1e8bcd" stroke-width="1.5"/><path d="m11 2h1v14h-1z" fill="#ed3d3b" stroke-width="1.015496"/><g fill="#1e8bcd" stroke-width=".48869" transform="translate(.337278)"><path d="m4.3389467 1.0028138c-.3787519.6015038-.7302622 1.2025393-1.0078124 1.8066407-.311777.6923781-.5664992 1.3921729-.765625 2.1015624a.30944971.30944971 0 0 1 -.00195 0c-.1993493.7039852-.3439384 1.4206274-.4375 2.1503907-.087466.7315666-.1328125 1.4786542-.1328125 2.2421875 0 .7641959.045197 1.5119679.1328125 2.2441409.093567.722888.2400828 1.438177.4394532 2.148438.1993283.71011.453588 1.412729.765625 2.105468.277404.603602.6293728 1.20368 1.0078124 1.804688l.7851563-.470703.00586-.0039c.047276-.03355.092196-.07071.1347656-.113281a.30944971.30944971 0 0 1 .013672-.01172c.017334-.01541.027725-.03044.037109-.05859a.30944971.30944971 0 0 1 .00781-.02148c.00603-.01447.013095-.04629.00586-.107422-.0057-.04275-.030946-.127791-.089844-.240234a.30944971.30944971 0 0 1 -.00195-.002c-.558435-1.084378-.9937866-2.245282-1.3046921-3.482389a.30944971.30944971 0 0 1 0-.002c-.3048542-1.245329-.4570312-2.50882-.4570312-3.7870628v-.00195c0-1.2783106.1520924-2.5381505.4570312-3.7773469.3108786-1.2435146.7461353-2.409494 1.3046876-3.4941406a.30944971.30944971 0 0 1 .00195-.00195c.058478-.111642.083898-.1952261.089844-.2382813v-.00195c.00724-.061119.0001778-.092931-.00586-.1074219a.30944971.30944971 0 0 1 -.00781-.021484c-.00939-.028155-.01979-.043198-.037109-.058594a.30944971.30944971 0 0 1 -.013672-.011719c-.042566-.04257-.0875-.079741-.1347656-.1132813z"/><path d="m18.986548 1.0028138c.378751.6015038.730262 1.2025393 1.007812 1.8066407.311777.6923781.566499 1.3921729.765625 2.1015624a.30944971.30944971 0 0 0 .0019 0c.199349.7039852.343938 1.4206274.4375 2.1503907.08747.7315666.132812 1.4786542.132812 2.2421875 0 .7641959-.0452 1.5119679-.132812 2.2441409-.09357.722888-.240083 1.438177-.439453 2.148438-.199329.71011-.453588 1.412729-.765625 2.105468-.277404.603602-.629373 1.20368-1.007813 1.804688l-.785106-.470703-.0059-.0039c-.04728-.03355-.0922-.07071-.134766-.113281a.30944971.30944971 0 0 0 -.01367-.01172c-.01733-.01541-.02773-.03044-.03711-.05859a.30944971.30944971 0 0 0 -.0078-.02148c-.006-.01447-.01309-.04629-.0059-.107422.0057-.04275.03095-.127791.08984-.240234a.30944971.30944971 0 0 0 .002-.002c.558435-1.084378.993787-2.245282 1.304693-3.482389a.30944971.30944971 0 0 0 0-.002c.304854-1.245329.457031-2.50882.457031-3.7870628v-.00195c0-1.2783106-.152093-2.5381505-.457031-3.7773469-.3109-1.2435146-.746157-2.409494-1.304709-3.4941406a.30944971.30944971 0 0 0 -.002-.00195c-.05848-.111642-.0839-.1952261-.08984-.2382813v-.00195c-.0072-.061119-.000178-.092931.0059-.1074219a.30944971.30944971 0 0 0 .0078-.021484c.0094-.028155.01979-.043198.03711-.058594a.30944971.30944971 0 0 0 .01367-.011719c.04257-.04257.0875-.079741.134765-.1132813z"/></g></svg>