<svg viewBox="0 0 24 24" xmlns="http://www.w3.org/2000/svg"><path d="m8 8h3v3h-3z" fill="#4d82b8" stroke-width="1.5"/><path d="m13 8h3v3h-3z" fill="#4d82b8" stroke-width="1.5"/><path d="m11 2h2v14h-2z" fill="#e68497" stroke-width="1.015496"/><g fill="#4d82b8" stroke-width=".48869"><path d="m4.0591 9.1006q0 1.8803.4486 3.7129.45815 1.823 1.279 3.417.10499.20044.12408.34361.01909.15272-.02863.26725-.03818.11454-.12408.1909-.0859.0859-.18135.15272l-1.0786.64904q-.68722-1.0499-1.174-2.1094-.47724-1.0595-.78267-2.1476t-.4486-2.1953q-.13363-1.1167-.13363-2.2812t.13363-2.2812q.14317-1.1167.4486-2.1953.30543-1.0881.78267-2.1476.48678-1.0595 1.174-2.1094l1.0786.64904q.09545.066813.18135.15272.0859.076358.12408.19089.04772.11454.02863.26725-.01909.14317-.12408.34361-.82085 1.594-1.279 3.4266-.4486 1.823-.4486 3.7034z"/><path d="m19.941 9.1006q0 1.8803-.4486 3.7129-.45815 1.823-1.279 3.417-.10499.20044-.12408.34361-.01909.15272.02863.26725.03818.11454.12408.1909.0859.0859.18135.15272l1.0786.64904q.68722-1.0499 1.174-2.1094.47724-1.0595.78267-2.1476t.4486-2.1953q.13363-1.1167.13363-2.2812t-.13363-2.2812q-.14317-1.1167-.4486-2.1953-.30543-1.0881-.78267-2.1476-.48678-1.0595-1.174-2.1094l-1.0786.64904q-.09545.066813-.18135.15272-.0859.076358-.12408.19089-.04772.11454-.02863.26725.01909.14317.12408.34361.82085 1.594 1.279 3.4266.4486 1.823.4486 3.7034z"/></g></svg>