<?xml version="1.0" encoding="UTF-8" standalone="no"?>
<svg
   xmlns:dc="http://purl.org/dc/elements/1.1/"
   xmlns:cc="http://creativecommons.org/ns#"
   xmlns:rdf="http://www.w3.org/1999/02/22-rdf-syntax-ns#"
   xmlns:svg="http://www.w3.org/2000/svg"
   xmlns="http://www.w3.org/2000/svg"
   xmlns:sodipodi="http://sodipodi.sourceforge.net/DTD/sodipodi-0.dtd"
   xmlns:inkscape="http://www.inkscape.org/namespaces/inkscape"
   viewBox="0 0 24 24"
   version="1.1"
   id="svg14"
   sodipodi:docname="lc_insertsofthyphen.svg"
   inkscape:version="0.92.5 (2060ec1f9f, 2020-04-08)">
  <metadata
     id="metadata20">
    <rdf:RDF>
      <cc:Work
         rdf:about="">
        <dc:format>image/svg+xml</dc:format>
        <dc:type
           rdf:resource="http://purl.org/dc/dcmitype/StillImage" />
        <dc:title></dc:title>
      </cc:Work>
    </rdf:RDF>
  </metadata>
  <defs
     id="defs18" />
  <sodipodi:namedview
     pagecolor="#ffffff"
     bordercolor="#666666"
     borderopacity="1"
     objecttolerance="10"
     gridtolerance="10"
     guidetolerance="10"
     inkscape:pageopacity="0"
     inkscape:pageshadow="2"
     inkscape:window-width="1366"
     inkscape:window-height="700"
     id="namedview16"
     showgrid="true"
     inkscape:snap-global="true"
     inkscape:zoom="19.666667"
     inkscape:cx="7.9771746"
     inkscape:cy="15.910148"
     inkscape:window-x="0"
     inkscape:window-y="0"
     inkscape:window-maximized="1"
     inkscape:current-layer="svg14">
    <inkscape:grid
       type="xygrid"
       id="grid827" />
  </sodipodi:namedview>
  <path
     d="m 8,8 h 7 v 2 H 8 Z"
     id="path4"
     inkscape:connector-curvature="0"
     style="fill:#3a3a38;stroke-width:2.2912879"
     sodipodi:nodetypes="ccccc" />
  <g
     id="g12"
     transform="translate(0.3372781)"
     style="fill:#1e8bcd;stroke-width:0.48868999">
    <path
       d="M 4.3389467,1.0028138 C 3.9601948,1.6043176 3.6086845,2.2053531 3.3311343,2.8094545 3.0193573,3.5018326 2.7646351,4.2016274 2.5655093,4.9110169 a 0.30944971,0.30944971 0 0 1 -0.00195,0 C 2.36421,5.6150021 2.2196209,6.3316443 2.1260593,7.0614076 2.0385933,7.7929742 1.9932468,8.5400618 1.9932468,9.3035951 c 0,0.7641959 0.045197,1.5119679 0.1328125,2.2441409 0.093567,0.722888 0.2400828,1.438177 0.4394532,2.148438 0.1993283,0.71011 0.453588,1.412729 0.765625,2.105468 0.277404,0.603602 0.6293728,1.20368 1.0078124,1.804688 l 0.7851563,-0.470703 0.00586,-0.0039 c 0.047276,-0.03355 0.092196,-0.07071 0.1347656,-0.113281 a 0.30944971,0.30944971 0 0 1 0.013672,-0.01172 c 0.017334,-0.01541 0.027725,-0.03044 0.037109,-0.05859 a 0.30944971,0.30944971 0 0 1 0.00781,-0.02148 c 0.00603,-0.01447 0.013095,-0.04629 0.00586,-0.107422 -0.0057,-0.04275 -0.030946,-0.127791 -0.089844,-0.240234 a 0.30944971,0.30944971 0 0 1 -0.00195,-0.002 C 4.6789538,15.492622 4.2436022,14.331718 3.9326967,13.094611 a 0.30944971,0.30944971 0 0 1 0,-0.002 C 3.6278425,11.847282 3.4756655,10.583791 3.4756655,9.3055482 v -0.00195 c 0,-1.2783106 0.1520924,-2.5381505 0.4570312,-3.7773469 C 4.2435753,4.2827367 4.678832,3.1167573 5.2373843,2.0321107 a 0.30944971,0.30944971 0 0 1 0.00195,-0.00195 c 0.058478,-0.111642 0.083898,-0.1952261 0.089844,-0.2382813 v -0.00195 c 0.00724,-0.061119 1.778e-4,-0.092931 -0.00586,-0.1074219 a 0.30944971,0.30944971 0 0 1 -0.00781,-0.021484 c -0.00939,-0.028155 -0.01979,-0.043198 -0.037109,-0.058594 a 0.30944971,0.30944971 0 0 1 -0.013672,-0.011719 c -0.042566,-0.04257 -0.0875,-0.079741 -0.1347656,-0.1132813 z"
       id="path8"
       inkscape:connector-curvature="0"
       style="fill:#1e8bcd" />
    <path
       inkscape:connector-curvature="0"
       id="path832"
       d="m 18.986548,1.0028138 c 0.378751,0.6015038 0.730262,1.2025393 1.007812,1.8066407 0.311777,0.6923781 0.566499,1.3921729 0.765625,2.1015624 a 0.30944971,0.30944971 0 0 0 0.0019,0 c 0.199349,0.7039852 0.343938,1.4206274 0.4375,2.1503907 0.08747,0.7315666 0.132812,1.4786542 0.132812,2.2421875 0,0.7641959 -0.0452,1.5119679 -0.132812,2.2441409 -0.09357,0.722888 -0.240083,1.438177 -0.439453,2.148438 -0.199329,0.71011 -0.453588,1.412729 -0.765625,2.105468 -0.277404,0.603602 -0.629373,1.20368 -1.007813,1.804688 l -0.785106,-0.470703 -0.0059,-0.0039 c -0.04728,-0.03355 -0.0922,-0.07071 -0.134766,-0.113281 a 0.30944971,0.30944971 0 0 0 -0.01367,-0.01172 c -0.01733,-0.01541 -0.02773,-0.03044 -0.03711,-0.05859 a 0.30944971,0.30944971 0 0 0 -0.0078,-0.02148 c -0.006,-0.01447 -0.01309,-0.04629 -0.0059,-0.107422 0.0057,-0.04275 0.03095,-0.127791 0.08984,-0.240234 a 0.30944971,0.30944971 0 0 0 0.002,-0.002 c 0.558435,-1.084378 0.993787,-2.245282 1.304693,-3.482389 a 0.30944971,0.30944971 0 0 0 0,-0.002 c 0.304854,-1.245329 0.457031,-2.50882 0.457031,-3.7870628 v -0.00195 c 0,-1.2783106 -0.152093,-2.5381505 -0.457031,-3.7773469 -0.3109,-1.2435146 -0.746157,-2.409494 -1.304709,-3.4941406 a 0.30944971,0.30944971 0 0 0 -0.002,-0.00195 c -0.05848,-0.111642 -0.0839,-0.1952261 -0.08984,-0.2382813 v -0.00195 c -0.0072,-0.061119 -1.78e-4,-0.092931 0.0059,-0.1074219 a 0.30944971,0.30944971 0 0 0 0.0078,-0.021484 c 0.0094,-0.028155 0.01979,-0.043198 0.03711,-0.058594 a 0.30944971,0.30944971 0 0 0 0.01367,-0.011719 c 0.04257,-0.04257 0.0875,-0.079741 0.134765,-0.1132813 z"
       style="fill:#1e8bcd" />
  </g>
</svg>
