<svg height="24" width="24" xmlns="http://www.w3.org/2000/svg"><path d="m3 6c-.554 0-1 .446-1 1v9c0 .554.446 1 1 1h17c.554 0 1-.446 1-1v-9c0-.554-.446-1-1-1zm0 1h17v9h-17zm1 1v1h1v-1zm2 0v1h1v-1zm2 0v1h1v-1zm2 0v1h1v-1zm2 0v1h1v-1zm2 0v1h1v-1zm2 0v1h1v-1zm2 0v1h1v-1zm-14 2v1h1v-1zm2 0v1h1v-1zm2 0v1h1v-1zm2 0v1h1v-1zm2 0v1h1v-1zm2 0v1h1v-1zm2 0v1h1v-1zm2 0v1h1v-1zm-14 2v1h2v-1zm3 0v1h1v-1zm2 0v1h1v-1zm2 0v1h1v-1zm2 0v1h1v-1zm2 0v1h1v-1zm2 0v1h2v-1zm-13 2v1h2v-1zm3 0v1h9v-1zm10 0v1h2v-1z" fill="#3a3a38"/></svg>