<?xml-stylesheet type="text/css" href="icons.css" ?>
<svg viewBox="0 0 24 24" xmlns="http://www.w3.org/2000/svg">
  <g id="background"
     class="icn icn--area-color"
     fill="#fafafa"
     stroke="#3a3a38"
     stroke-linecap="round"
     stroke-linejoin="round"
     >
      <path d="m 18.5,10.5 a 8,8 0 0 1 -8,8 8,8 0 0 1 -8,-8 8,8 0 0 1 8,-8 8,8 0 0 1 8,8 z" />  
  </g>
  <g id="symbol"
     class="icn icn--area-color-line"
     fill="none" 
     stroke="#3a3a38" 
	 stroke-linecap="round" 
	 stroke-linejoin="round"
      >
      <path d="m 2.5,10.5 h 16" />
      <path d="m 4.5,5.5 c 3.8427591,1.236962 7.818617,1.4268786 12,0" />
      <path d="m 4.5,15.52205 c 3.8427591,-1.236962 7.818617,-1.426878 12,0" />
      <path d="m 10,2.5 c -3.1546018,5.1757352 -3.5081702,10.491405 0,16" />
      <path d="m 11,2.5 c 3.154601,5.1757352 3.50817,10.491405 0,16" />
  </g>
  <g id="symbol-background"
	 class="icn icn--background-line"
     fill="none"
     stroke="#fff" 
     stroke-width="3px"
	 stroke-linecap="round" 
	 stroke-linejoin="round"
     transform="translate(6,11)">
      <path d="m 7.5,6.5 4,4 4,-4" />
      <path d="m 11.5,1.5 v 9" />
  </g>
  <g id="symbol"
	 class="icn icn--highlight-color-line"  
     fill="none" 
     stroke="#1e8bcd" 
	 stroke-linecap="round" 
	 stroke-linejoin="round"
     transform="translate(6,11)">
      <path d="m 7.5,6.5 4,4 4,-4" />
      <path d="m 11.5,1.5 v 9" />
  </g>
</svg>
