<?xml version="1.0" encoding="UTF-8" standalone="no"?>
<svg
   xmlns:dc="http://purl.org/dc/elements/1.1/"
   xmlns:cc="http://creativecommons.org/ns#"
   xmlns:rdf="http://www.w3.org/1999/02/22-rdf-syntax-ns#"
   xmlns:svg="http://www.w3.org/2000/svg"
   xmlns="http://www.w3.org/2000/svg"
   xmlns:sodipodi="http://sodipodi.sourceforge.net/DTD/sodipodi-0.dtd"
   xmlns:inkscape="http://www.inkscape.org/namespaces/inkscape"
   viewBox="0 0 24 24"
   version="1.1"
   id="svg40"
   sodipodi:docname="lc_mobile_wizard.svg"
   inkscape:version="0.92.5 (2060ec1f9f, 2020-04-08)">
  <metadata
     id="metadata46">
    <rdf:RDF>
      <cc:Work
         rdf:about="">
        <dc:format>image/svg+xml</dc:format>
        <dc:type
           rdf:resource="http://purl.org/dc/dcmitype/StillImage" />
      </cc:Work>
    </rdf:RDF>
  </metadata>
  <defs
     id="defs44" />
  <sodipodi:namedview
     pagecolor="#ffffff"
     bordercolor="#666666"
     borderopacity="1"
     objecttolerance="10"
     gridtolerance="10"
     guidetolerance="10"
     inkscape:pageopacity="0"
     inkscape:pageshadow="2"
     inkscape:window-width="2560"
     inkscape:window-height="1379"
     id="namedview42"
     showgrid="false"
     inkscape:zoom="32"
     inkscape:cx="11.567097"
     inkscape:cy="7.3032155"
     inkscape:window-x="0"
     inkscape:window-y="34"
     inkscape:window-maximized="1"
     inkscape:current-layer="svg40" />
  <path
     style="fill:#555555;fill-opacity:1"
     d="M 8.8984375 4 L 3 20 L 4.6875 20 C 4.8709758 20 5.0266615 19.94733 5.1542969 19.841797 C 5.2899094 19.736267 5.3818242 19.614565 5.4296875 19.476562 L 6.6328125 16 L 11.878906 16 L 14.546875 13.332031 L 11.113281 4 L 8.8984375 4 z M 10 6.09375 L 12.671875 14 L 7.328125 14 L 9.5332031 7.6289062 C 9.6049931 7.4340813 9.6799936 7.2070326 9.7597656 6.9472656 C 9.8395376 6.6874987 9.920228 6.402223 10 6.09375 z M 19.492188 10 C 19.3623 10.0021 19.238317 10.05461 19.146484 10.146484 C 16.821124 12.471514 14.496614 14.797395 12.171875 17.123047 C 12.102335 17.200797 12.071698 17.248986 12.037109 17.3125 C 12.037109 17.3125 12.035156 17.314453 12.035156 17.314453 L 10.035156 22.314453 C 9.8710502 22.723045 10.276955 23.12895 10.685547 22.964844 L 15.685547 20.964844 C 15.772047 20.925494 15.798506 20.915189 15.851562 20.855469 C 18.288672 18.415281 20.766225 15.94071 22.853516 13.853516 C 23.048701 13.658251 23.048701 13.341749 22.853516 13.146484 L 19.853516 10.146484 C 19.75785 10.050783 19.627489 9.9979277 19.492188 10 z M 19.5 11.207031 L 21.792969 13.5 L 20.5 14.792969 L 18.207031 12.5 L 19.5 11.207031 z M 17.5 13.207031 L 19.792969 15.5 L 15.5 19.792969 L 13.207031 17.5 L 17.5 13.207031 z M 12.683594 18.390625 L 14.609375 20.316406 L 11.398438 21.601562 L 12.683594 18.390625 z "
     id="path2-7" />
</svg>
