<svg viewBox="0 0 24 24" xmlns="http://www.w3.org/2000/svg"><g fill="#555"><path d="m11.289062 7-3.4101558 9.025391h1.625l.7109378-2.025391h3.55664l.705078 2.025391h1.634766l-3.419922-9.025391zm.710938 1.9160156 1.421875 4.0839844h-2.855469z" stroke-width="1.02887"/><path d="m22 4a2 2 0 0 1 -2 2 2 2 0 0 1 -2-2 2 2 0 0 1 2-2 2 2 0 0 1 2 2z"/><path d="m19 7h2v2h-2z"/><path d="m19 11h2v2h-2z"/><path d="m6 4a2 2 0 0 1 -2 2 2 2 0 0 1 -2-2 2 2 0 0 1 2-2 2 2 0 0 1 2 2z"/><path d="m19 15h2v2h-2z"/><path d="m3 7h2v2h-2z"/><path d="m3 11h2v2h-2z"/><path d="m3 15h2v2h-2z"/><g transform="rotate(90)"><path d="m19-17h2v2h-2z"/><path d="m19-13h2v2h-2z"/><path d="m19-9h2v2h-2z"/><path d="m3-17h2v2h-2z"/><path d="m3-13h2v2h-2z"/><path d="m3-9h2v2h-2z"/></g><path d="m22 20a2 2 0 0 1 -2 2 2 2 0 0 1 -2-2 2 2 0 0 1 2-2 2 2 0 0 1 2 2z"/><path d="m6 20a2 2 0 0 1 -2 2 2 2 0 0 1 -2-2 2 2 0 0 1 2-2 2 2 0 0 1 2 2z"/></g></svg>