<svg height="24" viewBox="0 0 24 24" width="24" xmlns="http://www.w3.org/2000/svg"><g transform="translate(1 -1029.3622)"><path d="m4 14l0 1 1 0 0-1-1 0z" fill="#4d4d4d" overflow="visible" transform="translate(-1 1029.3622)"/><path d="m15 1045.3622l0 2-2 0 0 1 2 0 0 2 1 0 0-2 2 0 0-1-2 0 0-2-1 0z" fill="#1d99f3" fill-rule="evenodd" overflow="visible"/><path d="m15.5 1033.3622c-1.932997 0-3.5 1.7909-3.5 4l0 1 0 2c0 2.2091 1.567003 4 3.5 4 1.932997 0 3.5-1.7909 3.5-4l0-2 0-1c0-2.2091-1.567003-4-3.5-4zm0 1c1.380712 0 2.5 1.3431 2.5 3l0 3c0 1.6569-1.119288 3-2.5 3-1.380712 0-2.5-1.3431-2.5-3l0-3c0-1.6569 1.119288-3 2.5-3z" fill="#4d4d4d" overflow="visible"/><path d="m7.5 1033.3622c-1.932997 0-3.5 1.7909-3.5 4l0 1 0 2c0 2.2091 1.567003 4 3.5 4 1.932997 0 3.5-1.7909 3.5-4l0-2 0-1c0-2.2091-1.567003-4-3.5-4zm0 1c1.380712 0 2.5 1.3432 2.5 3l0 3c0 1.6569-1.119288 3-2.5 3-1.3807119 0-2.5-1.3431-2.5-3l0-3c0-1.6568 1.1192881-3 2.5-3z" fill="#4d4d4d" overflow="visible"/></g></svg>