<svg version="1.1" viewBox="0 0 24 24" xmlns="http://www.w3.org/2000/svg">
 <rect x="2" y="7" width="20" height="10" ry="0" fill="#fff"/>
 <path d="m1 6v12h22v-12h-1zm2 1h18c0 0.554 0.446 1 1 1v8c-0.55228 0-1 0.44772-1 1h-18c0-0.554-0.446-1-1-1v-8c0.554 0 1-0.446 1-1zm9 2c-1.6569 0-3 1.3431-3 3s1.3431 3 3 3 3-1.3431 3-3-1.3431-3-3-3z" fill="#696969"/>
 <path d="m8 16a3 2 0 0 0-3 2v2a3 2 0 0 0 3 2 3 2 0 0 0 3-2v-2a3 2 0 0 0-3-2zm0 1a2 1 0 0 1 2 1 2 1 0 0 1-2 1 2 1 0 0 1-2-1 2 1 0 0 1 2-1zm-2 2.4883a3 2 0 0 0 2 0.51172 3 2 0 0 0 2-0.51172v1a3 2 0 0 1-2 0.51172 3 2 0 0 1-2-0.51172z" fill="#696969"/>
 <path d="m8 17a2 1 0 0 0-2 1 2 1 0 0 0 2 1 2 1 0 0 0 2-1 2 1 0 0 0-2-1zm-2 2.4883v1a3 2 0 0 0 2 0.51172 3 2 0 0 0 2-0.51172v-1a3 2 0 0 1-2 0.51172 3 2 0 0 1-2-0.51172z" fill="#fff"/>
 <path d="m20 16a3 2 0 0 0-3 2v2a3 2 0 0 0 3 2 3 2 0 0 0 3-2v-2a3 2 0 0 0-3-2zm0 1a2 1 0 0 1 2 1 2 1 0 0 1-2 1 2 1 0 0 1-2-1 2 1 0 0 1 2-1zm-2 2.4883a3 2 0 0 0 2 0.51172 3 2 0 0 0 2-0.51172v1a3 2 0 0 1-2 0.51172 3 2 0 0 1-2-0.51172z" fill="#696969"/>
 <path d="m20 17a2 1 0 0 0-2 1 2 1 0 0 0 2 1 2 1 0 0 0 2-1 2 1 0 0 0-2-1zm-2 2.4883v1a3 2 0 0 0 2 0.51172 3 2 0 0 0 2-0.51172v-1a3 2 0 0 1-2 0.51172 3 2 0 0 1-2-0.51172z" fill="#fff"/>
 <path d="m15 16a3 2 0 0 0-3 2v2a3 2 0 0 0 3 2 3 2 0 0 0 3-2v-2a3 2 0 0 0-3-2zm0 1a2 1 0 0 1 2 1 2 1 0 0 1-2 1 2 1 0 0 1-2-1 2 1 0 0 1 2-1zm-2 2.4883a3 2 0 0 0 2 0.51172 3 2 0 0 0 2-0.51172v1a3 2 0 0 1-2 0.51172 3 2 0 0 1-2-0.51172z" fill="#696969"/>
 <path d="m15 17a2 1 0 0 0-2 1 2 1 0 0 0 2 1 2 1 0 0 0 2-1 2 1 0 0 0-2-1zm-2 2.4883v1a3 2 0 0 0 2 0.51172 3 2 0 0 0 2-0.51172v-1a3 2 0 0 1-2 0.51172 3 2 0 0 1-2-0.51172z" fill="#fff"/>
 <path d="m20 14a3 2 0 0 0-3 2v2a3 2 0 0 0 3 2 3 2 0 0 0 3-2v-2a3 2 0 0 0-3-2zm0 1a2 1 0 0 1 2 1 2 1 0 0 1-2 1 2 1 0 0 1-2-1 2 1 0 0 1 2-1zm-2 2.4883a3 2 0 0 0 2 0.51172 3 2 0 0 0 2-0.51172v1a3 2 0 0 1-2 0.51172 3 2 0 0 1-2-0.51172z" fill="#696969"/>
 <path d="m20 15a2 1 0 0 0-2 1 2 1 0 0 0 2 1 2 1 0 0 0 2-1 2 1 0 0 0-2-1zm-2 2.4883v1a3 2 0 0 0 2 0.51172 3 2 0 0 0 2-0.51172v-1a3 2 0 0 1-2 0.51172 3 2 0 0 1-2-0.51172z" fill="#fff"/>
 <path d="m15 14a3 2 0 0 0-3 2v2a3 2 0 0 0 3 2 3 2 0 0 0 3-2v-2a3 2 0 0 0-3-2zm0 1a2 1 0 0 1 2 1 2 1 0 0 1-2 1 2 1 0 0 1-2-1 2 1 0 0 1 2-1zm-2 2.4883a3 2 0 0 0 2 0.51172 3 2 0 0 0 2-0.51172v1a3 2 0 0 1-2 0.51172 3 2 0 0 1-2-0.51172z" fill="#696969"/>
 <path d="m15 15a2 1 0 0 0-2 1 2 1 0 0 0 2 1 2 1 0 0 0 2-1 2 1 0 0 0-2-1zm-2 2.4883v1a3 2 0 0 0 2 0.51172 3 2 0 0 0 2-0.51172v-1a3 2 0 0 1-2 0.51172 3 2 0 0 1-2-0.51172z" fill="#fff"/>
 <path d="m20 12a3 2 0 0 0-3 2v2a3 2 0 0 0 3 2 3 2 0 0 0 3-2v-2a3 2 0 0 0-3-2zm0 1a2 1 0 0 1 2 1 2 1 0 0 1-2 1 2 1 0 0 1-2-1 2 1 0 0 1 2-1zm-2 2.4883a3 2 0 0 0 2 0.51172 3 2 0 0 0 2-0.51172v1a3 2 0 0 1-2 0.51172 3 2 0 0 1-2-0.51172z" fill="#696969"/>
 <path d="m20 13a2 1 0 0 0-2 1 2 1 0 0 0 2 1 2 1 0 0 0 2-1 2 1 0 0 0-2-1zm-2 2.4883v1a3 2 0 0 0 2 0.51172 3 2 0 0 0 2-0.51172v-1a3 2 0 0 1-2 0.51172 3 2 0 0 1-2-0.51172z" fill="#fff"/>
</svg>
