<svg height="24" viewBox="0 0 24 24" width="24" xmlns="http://www.w3.org/2000/svg"><path d="m17.480469 3.6113281l-12.0000002 15.9999999.5703124.427734.3554688.273438.0039062-.003906.109375.082031 11.9999998-16-.46875-.3515625-.457031-.3515625-.003906.0058594-.109375-.0820313zm-9.980469 1.3886719c-1.9329966 0-3.5 1.5670034-3.5 3.5 0 1.932997 1.5670034 3.5 3.5 3.5 1.9329966 0 3.5-1.567003 3.5-3.5 0-1.9329966-1.5670034-3.5-3.5-3.5zm0 1c1.3807119 0 2.5 1.1192881 2.5 2.5 0 1.3807119-1.1192881 2.5-2.5 2.5-1.3807119 0-2.5-1.1192881-2.5-2.5 0-1.3807119 1.1192881-2.5 2.5-2.5zm9 7c-1.932997 0-3.5 1.567-3.5 3.5 0 1.933 1.567003 3.5 3.5 3.5 1.932997 0 3.5-1.567 3.5-3.5 0-1.933-1.567003-3.5-3.5-3.5zm0 1c1.380712 0 2.5 1.119288 2.5 2.5 0 1.380712-1.119288 2.5-2.5 2.5-1.380712 0-2.5-1.119288-2.5-2.5 0-1.380712 1.119288-2.5 2.5-2.5z" fill="#4d4d4d" overflow="visible" transform=""/></svg>