<?xml version="1.0" encoding="UTF-8" standalone="no"?>
<svg
   xmlns:dc="http://purl.org/dc/elements/1.1/"
   xmlns:cc="http://creativecommons.org/ns#"
   xmlns:rdf="http://www.w3.org/1999/02/22-rdf-syntax-ns#"
   xmlns:svg="http://www.w3.org/2000/svg"
   xmlns="http://www.w3.org/2000/svg"
   xmlns:sodipodi="http://sodipodi.sourceforge.net/DTD/sodipodi-0.dtd"
   xmlns:inkscape="http://www.inkscape.org/namespaces/inkscape"
   viewBox="0 0 24 24"
   version="1.1"
   id="svg8"
   sodipodi:docname="lc_online-help.svg"
   inkscape:version="0.92.5 (2060ec1f9f, 2020-04-08)">
  <metadata
     id="metadata14">
    <rdf:RDF>
      <cc:Work
         rdf:about="">
        <dc:format>image/svg+xml</dc:format>
        <dc:type
           rdf:resource="http://purl.org/dc/dcmitype/StillImage" />
        <dc:title></dc:title>
      </cc:Work>
    </rdf:RDF>
  </metadata>
  <defs
     id="defs12" />
  <sodipodi:namedview
     pagecolor="#ffffff"
     bordercolor="#666666"
     borderopacity="1"
     objecttolerance="10"
     gridtolerance="10"
     guidetolerance="10"
     inkscape:pageopacity="0"
     inkscape:pageshadow="2"
     inkscape:window-width="1366"
     inkscape:window-height="700"
     id="namedview10"
     showgrid="true"
     inkscape:zoom="27.812867"
     inkscape:cx="21.074581"
     inkscape:cy="6.6493745"
     inkscape:window-x="0"
     inkscape:window-y="0"
     inkscape:window-maximized="1"
     inkscape:current-layer="svg8">
    <inkscape:grid
       type="xygrid"
       id="grid827" />
  </sodipodi:namedview>
  <path
     d="M 12 2 A 10 10 0 0 0 2 12 A 10 10 0 0 0 12 22 A 10 10 0 0 0 12.78125 21.964844 A 6.5 6.5 0 0 1 11 17.5 A 6.5 6.5 0 0 1 17.5 11 A 6.5 6.5 0 0 1 21.960938 12.783203 A 10 10 0 0 0 22 12 A 10 10 0 0 0 12 2 z "
     id="circle2"
     style="fill:#0063b1" />
  <path
     d="M 12 3 A 9 9 0 0 0 3 12 A 9 9 0 0 0 12 21 A 9 9 0 0 0 12.023438 20.998047 A 6.5 6.5 0 0 1 11 17.5 A 6.5 6.5 0 0 1 17.5 11 A 6.5 6.5 0 0 1 20.998047 12.029297 A 9 9 0 0 0 21 12 A 9 9 0 0 0 12 3 z "
     id="path4"
     style="fill:#83beec" />
  <path
     d="M 12 5 C 9.7899998 5 8 6.79 8 9 L 10 9 C 10 7.9 10.9 7 12 7 C 13.1 7 14 7.9 14 9 C 14 9.55 13.780156 10.050156 13.410156 10.410156 L 12.169922 11.669922 C 11.449922 12.399922 11 13.4 11 14.5 L 11 15 L 11.501953 15 A 6.5 6.5 0 0 1 14.679688 11.650391 L 15.070312 11.25 C 15.640313 10.68 16 9.88 16 9 C 16 6.79 14.21 5 12 5 z M 11 17 L 11 17.5 A 6.5 6.5 0 0 1 11.025391 17 L 11 17 z M 11 17.5 L 11 19 L 11.183594 19 A 6.5 6.5 0 0 1 11 17.5 z "
     id="path6"
     style="fill:#fafafa" />
  <path
     inkscape:connector-curvature="0"
     style="fill:#1e8bcd"
     d="M 17.5,12 A 5.5,5.5 0 0 0 12,17.5 5.5,5.5 0 0 0 17.5,23 5.5,5.5 0 0 0 23,17.5 5.5,5.5 0 0 0 17.5,12 Z m 0.002,1.152344 0.08984,0.130859 c 0.395593,0.573138 0.685701,1.110167 0.904297,1.625 -0.66098,0.08701 -1.337963,0.09546 -1.998047,0.02149 0.219378,-0.521298 0.512948,-1.065347 0.914062,-1.646485 z m -1.197265,0.0098 c -0.33902,0.54301 -0.609898,1.073508 -0.808641,1.587856 -0.410909,-0.103775 -0.799382,-0.255576 -1.173828,-0.431641 a 4.5,4.5 0 0 1 1.982422,-1.15625 z m 2.398437,0.0059 a 4.5,4.5 0 0 1 1.949219,1.126953 c -0.371117,0.166399 -0.754758,0.312263 -1.160156,0.417969 -0.196337,-0.500938 -0.459886,-1.016828 -0.789063,-1.544922 z m 2.597656,1.923828 A 4.5,4.5 0 0 1 21.966797,17 h -1.978516 c -0.01879,-0.430546 -0.08006,-0.872911 -0.191406,-1.326172 0.525818,-0.144098 1.025061,-0.345735 1.503906,-0.582031 z m -7.613281,0.02539 c 0.481599,0.248881 0.983626,0.457377 1.509766,0.597656 C 15.092206,16.153694 15.03385,16.5825 15.015625,17 H 13.03125 a 4.5,4.5 0 0 1 0.65625,-1.882812 z m 5.138672,0.761718 c 0.09688,0.386241 0.141368,0.75759 0.158156,1.12102 h -2.964844 c 0.01639,-0.354839 0.05975,-0.717178 0.152344,-1.09375 0.878831,0.124104 1.778028,0.11178 2.654297,-0.02734 z M 13.033203,18 h 2.011719 c 0.04698,0.437909 0.138331,0.859149 0.253906,1.271484 -0.560836,0.141718 -1.093792,0.361014 -1.605469,0.625 A 4.5,4.5 0 0 1 13.033203,18 Z m 3.023438,0 h 2.890625 c -0.04721,0.37642 -0.130834,0.747696 -0.240235,1.115234 -0.405333,-0.05899 -0.81405,-0.09778 -1.224609,-0.101562 -0.400382,-0.0037 -0.799302,0.02372 -1.195313,0.07422 C 16.181577,18.729472 16.102696,18.366914 16.056641,18 Z m 3.902343,0 h 2.009766 a 4.5,4.5 0 0 1 -0.677734,1.917969 C 20.783515,19.668399 20.252696,19.45475 19.693359,19.308594 19.814259,18.884436 19.910573,18.451226 19.958984,18 Z m -2.478515,2.033203 c 0.293733,0.0028 0.587627,0.029 0.878906,0.0625 -0.231663,0.557096 -0.501851,1.111673 -0.796875,1.671875 l -0.06055,0.113281 -0.05859,-0.113281 c -0.298139,-0.566116 -0.571154,-1.126417 -0.804687,-1.689453 0.279218,-0.02629 0.559921,-0.04758 0.841797,-0.04492 z m -1.861328,0.207031 c 0.216609,0.552107 0.473731,1.084982 0.742187,1.607422 a 4.5,4.5 0 0 1 -2.027344,-1.15625 c 0.407889,-0.190697 0.835239,-0.345886 1.285157,-0.451172 z m 3.751953,0.0332 c 0.44544,0.108726 0.867828,0.262113 1.273437,0.443359 a 4.5,4.5 0 0 1 -2.003906,1.132812 c 0.263467,-0.512631 0.51633,-1.035121 0.730469,-1.576171 z"
     id="path8" />
</svg>
