<?xml version="1.0" encoding="UTF-8" standalone="no"?>
<svg
   xmlns:dc="http://purl.org/dc/elements/1.1/"
   xmlns:cc="http://creativecommons.org/ns#"
   xmlns:rdf="http://www.w3.org/1999/02/22-rdf-syntax-ns#"
   xmlns:svg="http://www.w3.org/2000/svg"
   xmlns="http://www.w3.org/2000/svg"
   xmlns:sodipodi="http://sodipodi.sourceforge.net/DTD/sodipodi-0.dtd"
   xmlns:inkscape="http://www.inkscape.org/namespaces/inkscape"
   viewBox="0 0 24 24"
   version="1.1"
   id="svg8"
   sodipodi:docname="lc_paperheight.svg"
   inkscape:version="0.92.5 (2060ec1f9f, 2020-04-08)">
  <metadata
     id="metadata14">
    <rdf:RDF>
      <cc:Work
         rdf:about="">
        <dc:format>image/svg+xml</dc:format>
        <dc:type
           rdf:resource="http://purl.org/dc/dcmitype/StillImage" />
        <dc:title />
      </cc:Work>
    </rdf:RDF>
  </metadata>
  <defs
     id="defs12" />
  <sodipodi:namedview
     pagecolor="#ffffff"
     bordercolor="#666666"
     borderopacity="1"
     objecttolerance="10"
     gridtolerance="10"
     guidetolerance="10"
     inkscape:pageopacity="0"
     inkscape:pageshadow="2"
     inkscape:window-width="1366"
     inkscape:window-height="700"
     id="namedview10"
     showgrid="true"
     inkscape:zoom="13.906434"
     inkscape:cx="12.714746"
     inkscape:cy="9.0096934"
     inkscape:window-x="0"
     inkscape:window-y="0"
     inkscape:window-maximized="1"
     inkscape:current-layer="svg8">
    <inkscape:grid
       type="xygrid"
       id="grid821" />
  </sodipodi:namedview>
  <path
     d="M 8,3 V 21 H 22 V 6.7294095 L 18,3 Z"
     id="path2"
     inkscape:connector-curvature="0"
     style="fill:#fafafa" />
  <path
     d="M 8,2 C 7.446,2 7,2.446 7,3 v 18 c 0,0.554 0.446,1 1,1 h 14 c 0.554,0 1,-0.446 1,-1 V 10.890625 7.2494041 7.0414802 C 23,6.5908003 23.09887,6.6148851 22.395363,5.973891 L 19.087974,2.7368575 C 18.378449,2 18.376751,2 17.99317,2 H 17.661613 17 Z m 0,1 h 9 v 4 c 0,0.554 0.446,1 1,1 h 4 V 21 H 8 Z"
     id="path4"
     inkscape:connector-curvature="0"
     style="fill:#3a3a38" />
  <path
     d="m 18,7 h 4 L 18,3 Z"
     id="path6"
     inkscape:connector-curvature="0"
     style="fill:#fafafa;fill-rule:evenodd" />
  <path
     style="fill:#1e8bcd;fill-rule:evenodd"
     d="M 6,4.50003 C 5.9959,4.369982 5.94125,4.24666 5.847656,4.15628 L 3.939453,2.232451 C 3.778804,2.059162 3.673024,2.009442 3.503906,2.007842 3.334788,2.009442 3.229008,2.059162 3.068359,2.232451 L 1.160156,4.15628 C 1.066566,4.24666 1.011912,4.369982 1.007812,4.50003 0.996312,4.954348 1.548095,5.186877 1.865234,4.861358 l 1.140625,-1.15625 v 2.818359 c 10e-5,0.0037 -0.0021,0.0061 -0.002,0.0098 v 2.974575 0.5 0.5 6.974609 c -10e-5,0.0037 0.0021,0.0061 0.002,0.0098 V 20.31061 L 1.865234,19.15436 c -0.317139,-0.325519 -0.868922,-0.09299 -0.857422,0.361328 0.0041,0.130048 0.05875,0.253371 0.152344,0.34375 l 1.908203,1.923829 c 0.160649,0.173255 0.266429,0.222975 0.435547,0.224575 0.169118,-0.0016 0.274898,-0.05132 0.435547,-0.224609 L 5.847656,19.859404 C 5.941246,19.769024 5.9959,19.645702 6,19.515654 6.0115,19.061335 5.459717,18.828807 5.142578,19.154326 l -1.140625,1.15625 v -2.818359 c -1e-4,-0.0037 0.0021,-0.0061 0.002,-0.0098 v -6.974575 -0.5 -0.5 -2.974609 c 1.92e-4,-0.0037 -0.0021,-0.0061 -0.002,-0.0098 V 3.705078 l 1.140625,1.15625 C 5.459717,5.186847 6.0115,4.954318 6,4.5 Z"
     id="path8-3"
     inkscape:connector-curvature="0"
     sodipodi:nodetypes="cccccccccccccccccccccccccccccccccccccc" />
</svg>
