<svg viewBox="0 0 24 24" xmlns="http://www.w3.org/2000/svg"><path d="m5 2v16h14v-12.2705905l-4-3.7294095z" fill="#fafafa"/><path d="m5 1c-.554 0-1 .446-1 1v16c0 .554.446 1 1 1h14c.554 0 1-.446 1-1v-8.109375-3.6412209-.2079239c0-.4506799.09887-.4265951-.604637-1.0675892l-3.307389-3.2370335c-.709525-.7368575-.711223-.7368575-1.094804-.7368575h-.331557-.661613zm0 1h9v4c0 .554.446 1 1 1h4v11h-14z" fill="#3a3a38"/><g fill-rule="evenodd"><path d="m15 6h4l-4-4z" fill="#fafafa"/><path d="m6.4921875 19.003906c-.130048.0041-.25337.05875-.34375.152344l-1.9238281 1.908203c-.173289.160649-.2230094.266429-.2246094.435547.0016.169118.05132.274898.2246094.435547l1.9238281 1.908203c.09038.09359.213702.148244.34375.152344.4543181.0115.6868471-.540283.3613281-.857422l-1.15625-1.140625h2.8183594c.0037-.0001.00607.0021.00977.002h2.974605.5.5 2.974609c.0037.0001.0061-.0021.0098-.002h2.818359l-1.15625 1.140625c-.325519.317139-.09299.868922.361328.857422.130048-.0041.253371-.05875.34375-.152344l1.923829-1.908203c.173255-.160649.222975-.266429.224575-.435547-.0016-.169118-.05132-.274898-.224609-.435547l-1.923829-1.908203c-.09038-.09359-.213702-.148244-.34375-.152344-.454319-.0115-.686847.540283-.361328.857422l1.15625 1.140625h-2.818359c-.0037.0001-.0061-.0021-.0098-.002h-2.974575-.5-.5-2.9746094c-.0037-.000192-.00607.0021-.00977.002h-2.818355l1.15625-1.140625c.325519-.317139.09299-.868922-.3613281-.857422z" fill="#1e8bcd"/></g></svg>