<?xml-stylesheet type="text/css" href="icons.css" ?>
<svg viewBox="0 0 24 24" xmlns="http://www.w3.org/2000/svg">
  <g id="background"
	 class="icn icn--text-color" 
     fill="#797774" 
     stroke="#3a3a38" 
	 stroke-linecap="round" 
	 stroke-linejoin="round"
     >
      <path d="M 11.5,2.5 C 7,2.5 4.5,4 4.5,8 c 0,4.5 2.5,5.5 7,5.5 z" />
      <path d="m 11.5,2.5 v 19" />
      <path d="M 14.5,2.5 V 21.5" />
      <path d="M 18.5,2.5 H 11" />
  </g>
  <g id="symbol-background"
	 class="icn icn--background"
     fill="#fff" 
     stroke="#fff" 
     stroke-width="3px"
	 stroke-linecap="round" 
	 stroke-linejoin="round"
      >
      <path d="M 18 13.5 A 4.5 4.5 0 0 0 13.5 18 A 4.5 4.5 0 0 0 18 22.5 A 4.5 4.5 0 0 0 22.5 18 A 4.5 4.5 0 0 0 18 13.5 z " />
  </g>
  <g id="symbol"
	 class="icn icn--highlight-color-line"  
     fill="none" 
     stroke="#1e8bcd" 
	 stroke-linecap="round" 
	 stroke-linejoin="round"
      >
      <path d="M 17.4 13.5 L 17 15.6 L 15.2 14.4 L 14.4 15.2 L 15.6 17 L 13.5 17.4 L 13.5 18.6 L 15.6 19.0 L 14.4 20.8 L 15.2 21.6 L 17 20.4 L 17.4 22.5 L 18.6 22.5 L 19.0 20.4 L 20.8 21.6 L 21.6 20.8 L 20.4 19.0 L 22.5 18.6 L 22.5 17.4 L 20.4 17 L 21.6 15.2 L 20.8 14.4 L 19.0 15.6 L 18.6 13.5 L 17.4 13.5 z M 18 16.5 A 1.5 1.5 0 0 1 19.5 18 A 1.5 1.5 0 0 1 18 19.5 A 1.5 1.5 0 0 1 16.5 18 A 1.5 1.5 0 0 1 18 16.5 z " />
  </g>
</svg>
