<?xml version="1.0" encoding="UTF-8" standalone="no"?>
<svg
   xmlns:dc="http://purl.org/dc/elements/1.1/"
   xmlns:cc="http://creativecommons.org/ns#"
   xmlns:rdf="http://www.w3.org/1999/02/22-rdf-syntax-ns#"
   xmlns:svg="http://www.w3.org/2000/svg"
   xmlns="http://www.w3.org/2000/svg"
   xmlns:sodipodi="http://sodipodi.sourceforge.net/DTD/sodipodi-0.dtd"
   xmlns:inkscape="http://www.inkscape.org/namespaces/inkscape"
   viewBox="0 0 24 24"
   version="1.1"
   id="svg14"
   sodipodi:docname="lc_possizepropertypanel.svg"
   inkscape:version="0.92.5 (2060ec1f9f, 2020-04-08)">
  <metadata
     id="metadata20">
    <rdf:RDF>
      <cc:Work
         rdf:about="">
        <dc:format>image/svg+xml</dc:format>
        <dc:type
           rdf:resource="http://purl.org/dc/dcmitype/StillImage" />
        <dc:title></dc:title>
      </cc:Work>
    </rdf:RDF>
  </metadata>
  <defs
     id="defs18" />
  <sodipodi:namedview
     pagecolor="#ffffff"
     bordercolor="#666666"
     borderopacity="1"
     objecttolerance="10"
     gridtolerance="10"
     guidetolerance="10"
     inkscape:pageopacity="0"
     inkscape:pageshadow="2"
     inkscape:window-width="1366"
     inkscape:window-height="700"
     id="namedview16"
     showgrid="true"
     inkscape:pagecheckerboard="true"
     inkscape:zoom="19.666667"
     inkscape:cx="8.4834799"
     inkscape:cy="18.033843"
     inkscape:window-x="0"
     inkscape:window-y="0"
     inkscape:window-maximized="1"
     inkscape:current-layer="svg14">
    <inkscape:grid
       type="xygrid"
       id="grid827" />
  </sodipodi:namedview>
  <path
     d="m3 15v6h8v-2.080078c-2.3486786-.339668-4.3224728-1.849719-5.3125-3.919922zm5.015625 0c.7201272.95701 1.7622643 1.655051 2.984375 1.900391v-1.900391z"
     fill="#fff"
     id="path2"
     style="fill:#fafafa" />
  <path
     d="m12.949219 2c-.5263 0-.949219.4229187-.949219.9492188v2.0507812h1v-2h8v6h-1v1h1.050781c.5263 0 .949219-.4229188.949219-.9492188v-6.1015624c0-.5263-.422919-.9492188-.949219-.9492188z"
     fill="#808080"
     id="path4" />
  <path
     d="m13 3v2.0800781c2.348679.3396674 4.322473 1.8497191 5.3125 3.9199219h2.6875v-6zm0 4.0996094v1.9003906h2.984375c-.720127-.9570096-1.762264-1.6550511-2.984375-1.9003906z"
     fill="#fff"
     id="path6"
     style="fill:#fafafa" />
  <path
     d="m13 2c-.554 0-1 .446-1 1v2a7 7 0 0 1 1 .0800781v-2.0800781h8v6h-2.683594a7 7 0 0 1 .384766 1h2.298828c.554 0 1-.446 1-1v-6c0-.554-.446-1-1-1z"
     fill="#808080"
     id="path8"
     style="fill:#3a3a38" />
  <path
     d="m12 6a6 6 0 0 0 -6 6 6 6 0 0 0 6 6 6 6 0 0 0 6-6 6 6 0 0 0 -6-6z"
     fill="#eac282"
     id="path10"
     style="fill:#ed8733" />
  <path
     d="m3 14c-.554 0-1 .446-1 1v6c0 .554.446 1 1 1h8c.554 0 1-.446 1-1v-2a7 7 0 0 1 -1-.080078v2.080078h-8v-6h2.6835938a7 7 0 0 1 -.3847657-1z"
     fill="#808080"
     id="path12"
     style="fill:#3a3a38" />
  <path
     style="opacity:1;fill:#f8db8f;fill-opacity:1;stroke:none;stroke-width:1;stroke-linecap:round;stroke-linejoin:round;stroke-miterlimit:4;stroke-dasharray:none;stroke-opacity:0.50196078"
     d="m 17,12 a 5,5 0 0 1 -5,5 5,5 0 0 1 -5,-5 5,5 0 0 1 5,-5 5,5 0 0 1 5,5 z"
     id="path829" />
</svg>
