<?xml version="1.0" encoding="UTF-8" standalone="no"?>
<svg
   xmlns:dc="http://purl.org/dc/elements/1.1/"
   xmlns:cc="http://creativecommons.org/ns#"
   xmlns:rdf="http://www.w3.org/1999/02/22-rdf-syntax-ns#"
   xmlns:svg="http://www.w3.org/2000/svg"
   xmlns="http://www.w3.org/2000/svg"
   id="svg24"
   version="1.1"
   viewBox="0 0 24 24">
  <metadata
     id="metadata30">
    <rdf:RDF>
      <cc:Work
         rdf:about="">
        <dc:format>image/svg+xml</dc:format>
        <dc:type
           rdf:resource="http://purl.org/dc/dcmitype/StillImage" />
        <dc:title></dc:title>
      </cc:Work>
    </rdf:RDF>
  </metadata>
  <defs
     id="defs28" />
  <path
     style="display:inline"
     id="path2"
     fill="#fff"
     d="M 5,21 V 3 h 5.242188 L 8.6308594,4.576172 c -0.8740813,0.854669 -0.8740603,2.221546 0,3.076172 0.874124,0.854551 2.2079246,0.854761 3.0820316,0 L 13.599609,5.808594 19,11.851562 v 5.419922 L 15,21 Z M 19,8.849609 14.392578,3.695312 A 1.0001,1.0001 0 0 0 12.947266,3.646484 l -2.632813,2.576172 c -0.007,0.0068 -0.278056,0.007 -0.285156,0 -0.0071,-0.00691 -0.0071,-0.207843 0,-0.214844 L 13.103516,3 h 1.072265 L 19,8.388672 Z M 19,5.390625 16.861328,3 H 19 Z" />
  <path
     style="display:inline;fill:#808080;fill-opacity:1"
     id="path4"
     fill="#808080"
     d="M 5,2 C 4.446,2 4,2.446 4,3 v 18 c 0,0.554 0.446,1 1,1 h 6.267578 L 10.244141,21 H 5 V 3 h 9 v 4 c 0,0.554 0.446,1 1,1 h 4 v 4.148438 l 1,-1.121094 V 10.890625 7.25 7.0410156 C 20,6.5903357 20.098038,6.6156035 19.394531,5.9746094 L 16.087891,2.7363281 C 15.378366,1.9994706 15.377722,2 14.994141,2 H 14.662109 14 Z m 15,15.492188 -1,1.117187 V 21 h -2.138672 l -0.894531,1 H 19 c 0.554,0 1,-0.446 1,-1 z" />
  <path
     id="path6"
     fill-rule="evenodd"
     fill="#fff"
     d="m15 7h4l-4-4z" />
  <g
     style="opacity:1;stroke-width:2.47154999"
     transform="matrix(0.40395004,-0.02300394,0.02300394,0.40395004,14.148563,10.518727)"
     id="g897">
    <path
       style="fill:#4d82b8;fill-opacity:1;stroke-width:2.47154999"
       d="M 18.134766,2 C 18.0042,2.00156 17.879425,2.054138 17.787109,2.1464844 L -5.8963392,25.829933 c -0.1964898,0.195487 -0.1964898,0.513498 0,0.708985 l 3.3574218,3.357422 c 0.1954865,0.196489 0.5134979,0.196489 0.7089844,0 L 21.853516,6.2128906 c 0.196489,-0.1954865 0.196489,-0.5134979 0,-0.7089844 L 18.496094,2.1464844 C 18.400432,2.0507785 18.270067,1.9979278 18.134766,2 Z"
       id="path879" />
    <path
       style="fill:#ffffff;stroke-width:2.47154999"
       d="m 18.141602,3.1831374 -5.474923,5.4749224 2.657284,2.7112162 5.474923,-5.4929 z"
       id="path881" />
    <path
       style="display:block;fill:#eac282;fill-opacity:1;stroke:none;stroke-width:1.37739003;stroke-linejoin:round;stroke-miterlimit:4;stroke-dasharray:none;stroke-opacity:1"
       d="m -9.4119147,-6.5326069 c -0.3416131,-0.019447 -0.6164393,0.225761 -0.6358933,0.5673731 l -0.09789,1.71895 c -0.772842,0.1521708 -1.474642,0.429075 -2.157107,0.7825351 l -1.175269,-1.3172111 c -0.2278,-0.2553152 -0.604162,-0.2767485 -0.859475,-0.048934 l -2.180209,1.9452742 c -0.255313,0.2278003 -0.276746,0.604161 -0.04894,0.8594753 l 1.175269,1.31720611 c -0.428652,0.63792738 -0.783438,1.30375365 -1.022364,2.05432179 l -1.71895,-0.097888 c -0.341613,-0.019447 -0.61644,0.2257557 -0.635894,0.5673734 l -0.166414,2.9222179 c -0.01946,0.3416121 0.225759,0.616438 0.567372,0.6358936 l 1.71895,0.097888 c 0.152172,0.772837 0.429074,1.4746421 0.782534,2.1571036 l -1.317209,1.175268 c -0.255313,0.2278075 -0.276746,0.6041675 -0.04894,0.8594765 l 1.945273,2.1802124 c 0.227801,0.255316 0.604161,0.27675 0.859475,0.04894 l 1.317209,-1.175274 c 0.637926,0.428656 1.303753,0.783443 2.054323,1.022369 l -0.09789,1.718951 c -0.01946,0.341613 0.225758,0.616439 0.567371,0.635896 l 2.9222156,0.166423 c 0.3416144,0.01945 0.6164404,-0.22577 0.6358949,-0.567382 l 0.09789,-1.718957 c 0.7728421,-0.152172 1.4746417,-0.429068 2.1571069,-0.782531 l 1.1752689,1.317218 c 0.2278028,0.255315 0.6041617,0.276748 0.8594757,0.04894 l 2.18019411,-1.945277 c 0.255311,-0.2278 0.276743,-0.60416 0.04894,-0.8594741 L -1.68486,8.4365654 c 0.428653,-0.6379271 0.78343711,-1.3037526 1.02236011,-2.0543216 l 1.71894299,0.09789 c 0.341612,0.019447 0.616438,-0.2257613 0.635892,-0.5673744 l 0.166424,-2.922212 C 1.8782061,2.6489119 1.6329911,2.3740861 1.2913771,2.3546316 l -1.71894299,-0.09789 C -0.57973389,1.483904 -0.85663589,0.78209886 -1.210096,0.09963819 L 0.10710811,-1.0756306 c 0.255311,-0.2278059 0.276745,-0.6041609 0.04894,-0.8594753 L -1.789212,-4.1153152 c -0.227801,-0.2553145 -0.60416,-0.2767477 -0.859474,-0.048935 l -1.3172093,1.1752689 c -0.6379262,-0.4286515 -1.3037526,-0.7834374 -2.0543225,-1.0223623 l 0.09789,-1.71895 c 0.019456,-0.3416175 -0.225756,-0.6164433 -0.5673708,-0.6358932 z m 1.030393,7.6465898 c 1.5181775,0.086453 2.6801532,1.3887684 2.593697,2.9069424 -0.086454,1.5181784 -1.3887677,2.6801551 -2.9069452,2.5937016 -1.5181771,-0.086463 -2.6801531,-1.3887686 -2.5936971,-2.906948 0.08645,-1.5181784 1.3887677,-2.6801552 2.9069453,-2.593696 z"
       display="block"
       id="path1199" />
  </g>
  <g
     transform="translate(23.359841,2.6638751)"
     id="g960" />
</svg>
