<?xml version="1.0" encoding="UTF-8" standalone="no"?>
<svg
   xmlns:dc="http://purl.org/dc/elements/1.1/"
   xmlns:cc="http://creativecommons.org/ns#"
   xmlns:rdf="http://www.w3.org/1999/02/22-rdf-syntax-ns#"
   xmlns:svg="http://www.w3.org/2000/svg"
   xmlns="http://www.w3.org/2000/svg"
   xmlns:sodipodi="http://sodipodi.sourceforge.net/DTD/sodipodi-0.dtd"
   xmlns:inkscape="http://www.inkscape.org/namespaces/inkscape"
   version="1.1"
   viewBox="0 0 24 24"
   id="svg14"
   sodipodi:docname="lc_rev-history.svg"
   inkscape:version="0.92.5 (2060ec1f9f, 2020-04-08)">
  <metadata
     id="metadata20">
    <rdf:RDF>
      <cc:Work
         rdf:about="">
        <dc:format>image/svg+xml</dc:format>
        <dc:type
           rdf:resource="http://purl.org/dc/dcmitype/StillImage" />
        <dc:title></dc:title>
      </cc:Work>
    </rdf:RDF>
  </metadata>
  <defs
     id="defs18" />
  <sodipodi:namedview
     pagecolor="#ffffff"
     bordercolor="#666666"
     borderopacity="1"
     objecttolerance="10"
     gridtolerance="10"
     guidetolerance="10"
     inkscape:pageopacity="0"
     inkscape:pageshadow="2"
     inkscape:window-width="1366"
     inkscape:window-height="700"
     id="namedview16"
     showgrid="true"
     inkscape:pagecheckerboard="true"
     inkscape:zoom="22.627417"
     inkscape:cx="7.3576479"
     inkscape:cy="13.538068"
     inkscape:window-x="0"
     inkscape:window-y="0"
     inkscape:window-maximized="1"
     inkscape:current-layer="svg14">
    <inkscape:grid
       type="xygrid"
       id="grid1421" />
  </sodipodi:namedview>
  <path
     d="m5 3v18h14v-14.271l-4-3.7294z"
     fill="#fff"
     id="path2"
     style="fill:#fafafa" />
  <path
     d="m5 2c-0.554 0-1 0.446-1 1v18c0 0.554 0.446 1 1 1h14c0.554 0 1-0.446 1-1v-13.959c0-0.45068 0.09887-0.4266-0.60464-1.0676l-3.3074-3.237c-0.70952-0.73686-0.71122-0.73686-1.0948-0.73686h-0.99317zm0 1h9v4c0 0.554 0.446 1 1 1h4v13h-14z"
     fill="#808080"
     id="path4"
     style="fill:#3a3a38" />
  <path
     d="m15 7h4l-4-4z"
     fill="#fff"
     id="path6"
     style="fill:#fafafa" />
  <path
     inkscape:connector-curvature="0"
     id="path10"
     d="m 10.5,11 c -0.125183,-0.0077 -0.258789,0.03681 -0.376953,0.154297 l -1.8867189,1.902344 c -0.141888,0.136779 -0.2363649,0.258099 -0.234375,0.439453 -1.75e-5,0.0016 0.00196,0.0023 0.00195,0.0039 1.01e-5,0.0016 -0.00197,0.0023 -0.00195,0.0039 -0.00199,0.181354 0.092487,0.302674 0.234375,0.439453 l 1.8867189,1.902344 C 10.241211,15.96319 10.374817,16.0077 10.5,16 c 0.375549,-0.02317 0.682617,-0.510818 0.328125,-0.863281 L 9.7167969,14.007812 h 0.7597651 c 0.01382,7.13e-4 0.02548,-0.0055 0.03906,-0.0059 H 13 a 1.99888,1.99888 0 0 1 1.998047,2 A 1.99888,1.99888 0 0 1 13,18 c -0.276845,0 -0.5,0.223155 -0.5,0.5 0,0.276845 0.223155,0.5 0.5,0.5 a 2.99832,2.99832 0 0 0 2.998047,-2.998047 2.99832,2.99832 0 0 0 -2.998047,-3 h -2.460938 c -0.02149,-0.0017 -0.04037,-0.01091 -0.0625,-0.0098 H 9.7167969 L 10.828125,11.863281 C 11.182617,11.510818 10.875549,11.023171 10.5,11 Z"
     style="fill:#1e8bcd;stroke-width:0.49972001" />
</svg>
