<?xml version="1.0" encoding="UTF-8" standalone="no"?>
<svg
   xmlns:dc="http://purl.org/dc/elements/1.1/"
   xmlns:cc="http://creativecommons.org/ns#"
   xmlns:rdf="http://www.w3.org/1999/02/22-rdf-syntax-ns#"
   xmlns:svg="http://www.w3.org/2000/svg"
   xmlns="http://www.w3.org/2000/svg"
   xmlns:sodipodi="http://sodipodi.sourceforge.net/DTD/sodipodi-0.dtd"
   xmlns:inkscape="http://www.inkscape.org/namespaces/inkscape"
   viewBox="0 0 24 24"
   version="1.1"
   id="svg8"
   sodipodi:docname="lc_repair.svg"
   inkscape:version="0.92.5 (2060ec1f9f, 2020-04-08)">
  <metadata
     id="metadata14">
    <rdf:RDF>
      <cc:Work
         rdf:about="">
        <dc:format>image/svg+xml</dc:format>
        <dc:type
           rdf:resource="http://purl.org/dc/dcmitype/StillImage" />
        <dc:title></dc:title>
      </cc:Work>
    </rdf:RDF>
  </metadata>
  <defs
     id="defs12" />
  <sodipodi:namedview
     pagecolor="#ffffff"
     bordercolor="#666666"
     borderopacity="1"
     objecttolerance="10"
     gridtolerance="10"
     guidetolerance="10"
     inkscape:pageopacity="0"
     inkscape:pageshadow="2"
     inkscape:window-width="1366"
     inkscape:window-height="700"
     id="namedview10"
     showgrid="true"
     inkscape:zoom="13.906433"
     inkscape:cx="-0.64632927"
     inkscape:cy="7.3691324"
     inkscape:window-x="0"
     inkscape:window-y="0"
     inkscape:window-maximized="1"
     inkscape:current-layer="svg8">
    <inkscape:grid
       type="xygrid"
       id="grid1465" />
  </sodipodi:namedview>
  <path
     style="fill:#fafafa"
     d="M 5 3 L 5 21 L 9.4785156 21 L 14.865234 15.613281 A 1.0001 1.0001 0 0 1 14.576172 15.5625 L 13.669922 15.255859 L 13.480469 16.197266 A 1.0001 1.0001 0 0 1 12.5 17 L 12 17 L 11 17 L 10.5 17 A 1.0001 1.0001 0 0 1 9.5195312 16.197266 L 9.3300781 15.255859 L 8.4238281 15.5625 A 1.0001 1.0001 0 0 1 7.2382812 15.117188 L 6.9882812 14.685547 A 1.0001 1.0001 0 0 0 6.9863281 14.683594 L 6.4882812 13.816406 L 6.2382812 13.386719 A 1.0001 1.0001 0 0 1 6.4433594 12.134766 L 7.1640625 11.5 L 6.4433594 10.865234 A 1.0001 1.0001 0 0 1 6.2382812 9.6132812 L 6.4882812 9.1835938 L 6.9863281 8.3164062 A 1.0001 1.0001 0 0 0 6.9882812 8.3144531 L 7.2382812 7.8828125 A 1.0001 1.0001 0 0 1 8.4238281 7.4375 L 9.3300781 7.7441406 L 9.5195312 6.8027344 A 1.0001 1.0001 0 0 1 10.5 6 L 11 6 L 12 6 L 12.5 6 A 1.0001 1.0001 0 0 1 13.480469 6.8027344 L 13.669922 7.7441406 L 14.576172 7.4375 A 1.0001 1.0001 0 0 1 15.761719 7.8828125 L 16.011719 8.3144531 A 1.0001 1.0001 0 0 0 16.013672 8.3164062 L 16.511719 9.1835938 L 16.761719 9.6132812 A 1.0001 1.0001 0 0 1 16.556641 10.865234 L 15.835938 11.5 L 16.556641 12.134766 A 1.0001 1.0001 0 0 1 16.761719 13.386719 L 16.511719 13.816406 L 16.306641 14.171875 L 19 11.480469 L 19 6.7285156 L 15 3 L 5 3 z M 19 18.515625 L 16.517578 21 L 19 21 L 19 18.515625 z "
     id="path2" />
  <path
     style="fill:#3a3a38"
     d="M 5 2 C 4.446 2 4 2.446 4 3 L 4 21 C 4 21.554 4.446 22 5 22 L 9.0019531 22 A 1.0019135 1.0019135 0 0 1 9.2890625 21.189453 L 9.4785156 21 L 5 21 L 5 3 L 14 3 L 14 7 C 14 7.2154003 14.082286 7.403526 14.197266 7.5664062 L 14.576172 7.4375 A 1.0001 1.0001 0 0 1 15.761719 7.8828125 L 15.830078 8 L 19 8 L 19 11.480469 L 20 10.480469 L 20 7.25 L 20 7.0410156 C 20 6.5903357 20.098038 6.6156035 19.394531 5.9746094 L 16.087891 2.7363281 C 15.378366 1.9994706 15.377722 2 14.994141 2 L 14.662109 2 L 14 2 L 5 2 z M 20 17.515625 L 19 18.515625 L 19 21 L 16.517578 21 L 15.517578 22 L 19 22 C 19.554 22 20 21.554 20 21 L 20 17.515625 z "
     id="path4" />
  <path
     d="m15 7h4l-4-4z"
     fill="#fafafa"
     fill-rule="evenodd"
     id="path6" />
  <g
     id="g1469"
     transform="matrix(2.6453867,2.6453867,-2.6453867,2.6453867,794.97991,-764.47952)">
    <path
       inkscape:connector-curvature="0"
       style="opacity:1;fill:#3a3a38;fill-opacity:1;stroke:none;stroke-width:0.26458332;stroke-linecap:round;stroke-linejoin:round;stroke-miterlimit:4;stroke-dasharray:none;stroke-dashoffset:0;stroke-opacity:1;paint-order:normal"
       d="M 0.26458332,292.50208 H 1.0583333 v 4.49791 H 0.26458332 Z"
       id="rect1462" />
    <path
       id="rect1464"
       d="m 0.52916664,292.76663 h 0.26458332 v 1.32292 H 0.52916664 Z"
       style="opacity:1;fill:#fafafa;fill-opacity:1;stroke:none;stroke-width:0.26458332;stroke-linecap:round;stroke-linejoin:round;stroke-miterlimit:4;stroke-dasharray:none;stroke-dashoffset:0;stroke-opacity:1;paint-order:normal"
       inkscape:connector-curvature="0" />
  </g>
  <g
     id="g1470"
     transform="translate(0,-8)">
    <path
       inkscape:connector-curvature="0"
       id="path1464"
       d="m 10.5,15 -0.412109,2.056641 -1.9843754,-0.671875 -0.25,0.43164 -0.5,0.867188 -0.25,0.43164 1.5742188,1.384766 -1.5742188,1.384766 0.25,0.43164 0.5,0.867188 0.25,0.43164 L 10.087891,21.943359 10.5,24 h 0.5 1 0.5 l 0.412109,-2.056641 1.984375,0.671875 0.25,-0.43164 0.5,-0.867188 0.25,-0.43164 L 14.322266,19.5 l 1.574218,-1.384766 -0.25,-0.43164 -0.5,-0.867188 -0.25,-0.43164 -1.984375,0.671875 L 12.5,15 H 12 11 Z m 0.875,1 h 0.25 L 12,17.5 h 0.654297 l 0.328125,0.566406 1.486328,-0.423828 0.125,0.214844 -1.111328,1.076172 0.328125,0.566406 -0.328125,0.566406 1.111328,1.076172 -0.125,0.214844 L 12.982422,20.933594 12.654297,21.5 H 12 L 11.625,23 h -0.25 L 11,21.5 H 10.345703 L 10.017578,20.933594 8.53125,21.357422 8.40625,21.142578 9.5175781,20.066406 9.1894531,19.5 9.5175781,18.933594 8.40625,17.857422 8.53125,17.642578 10.017578,18.066406 10.345703,17.5 H 11 Z M 11.5,18 A 1.5,1.5 0 0 0 10,19.5 1.5,1.5 0 0 0 11.5,21 1.5,1.5 0 0 0 13,19.5 1.5,1.5 0 0 0 11.5,18 Z m 0,1 A 0.5,0.5 0 0 1 12,19.5 0.5,0.5 0 0 1 11.5,20 0.5,0.5 0 0 1 11,19.5 0.5,0.5 0 0 1 11.5,19 Z"
       style="opacity:1;fill:#1e8bcd;fill-opacity:1;stroke:none;stroke-width:3;stroke-linecap:round;stroke-linejoin:round;stroke-miterlimit:4;stroke-dasharray:none;stroke-dashoffset:0;stroke-opacity:1;paint-order:normal" />
    <path
       sodipodi:nodetypes="cccccccccccccccccccccccccccccccsssss"
       style="opacity:1;fill:#fafafa;fill-opacity:1;stroke:none;stroke-width:3;stroke-linecap:round;stroke-linejoin:round;stroke-miterlimit:4;stroke-dasharray:none;stroke-dashoffset:0;stroke-opacity:1;paint-order:normal"
       d="m 11.375,16 h 0.25 L 12,17.5 h 0.654297 l 0.328125,0.566406 1.486328,-0.423828 0.125,0.214844 -1.111328,1.076172 0.328125,0.566406 -0.328125,0.566406 1.111328,1.076172 -0.125,0.214844 L 12.982422,20.933594 12.654297,21.5 H 12 L 11.625,23 h -0.25 L 11,21.5 H 10.345703 L 10.017578,20.933594 8.53125,21.357422 8.40625,21.142578 9.5175781,20.066406 9.1894531,19.5 9.5175781,18.933594 8.40625,17.857422 8.53125,17.642578 10.017578,18.066406 10.345703,17.5 H 11 Z M 11.5,18 C 10.671573,18 10,18.671573 10,19.5 10,20.328427 10.671573,21 11.5,21 12.328427,21 13,20.328427 13,19.5 13,18.671573 12.328427,18 11.5,18 Z"
       id="path1482"
       inkscape:connector-curvature="0" />
  </g>
</svg>
