<svg viewBox="0 0 24 24" xmlns="http://www.w3.org/2000/svg"><path d="m5 3v18h4.4785156l5.3867184-5.386719a1.0001 1.0001 0 0 1 -.289062-.050781l-.90625-.306641-.189453.941407a1.0001 1.0001 0 0 1 -.980469.802734h-.5-1-.5a1.0001 1.0001 0 0 1 -.9804688-.802734l-.1894531-.941407-.90625.306641a1.0001 1.0001 0 0 1 -1.1855469-.445312l-.25-.431641a1.0001 1.0001 0 0 0 -.0019531-.001953l-.4980469-.867188-.25-.429687a1.0001 1.0001 0 0 1 .2050782-1.251953l.7207031-.634766-.7207031-.634766a1.0001 1.0001 0 0 1 -.2050782-1.2519528l.25-.4296874.4980469-.8671876a1.0001 1.0001 0 0 0 .0019531-.0019531l.25-.4316406a1.0001 1.0001 0 0 1 1.1855469-.4453125l.90625.3066406.1894531-.9414062a1.0001 1.0001 0 0 1 .9804688-.8027344h.5 1 .5a1.0001 1.0001 0 0 1 .980469.8027344l.189453.9414062.90625-.3066406a1.0001 1.0001 0 0 1 1.185547.4453125l.25.4316406a1.0001 1.0001 0 0 0 .001953.0019531l.498047.8671876.25.4296874a1.0001 1.0001 0 0 1 -.205078 1.2519528l-.720703.634766.720703.634766a1.0001 1.0001 0 0 1 .205078 1.251953l-.25.429687-.205078.355469 2.693359-2.691406v-4.7519534l-4-3.7285156zm14 15.515625-2.482422 2.484375h2.482422z" fill="#fafafa"/><path d="m5 2c-.554 0-1 .446-1 1v18c0 .554.446 1 1 1h4.0019531a1.0019135 1.0019135 0 0 1 .2871094-.810547l.1894531-.189453h-4.4785156v-18h9v4c0 .2154003.082286.403526.197266.5664062l.378906-.1289062a1.0001 1.0001 0 0 1 1.185547.4453125l.068359.1171875h3.169922v3.480469l1-1v-3.230469-.2089844c0-.4506799.098038-.4254121-.605469-1.0664062l-3.30664-3.2382813c-.709525-.7368575-.710169-.7363281-1.09375-.7363281h-.332032-.662109zm15 15.515625-1 1v2.484375h-2.482422l-1 1h3.482422c.554 0 1-.446 1-1z" fill="#3a3a38"/><path d="m15 7h4l-4-4z" fill="#fafafa" fill-rule="evenodd"/><g transform="matrix(2.6453867 2.6453867 -2.6453867 2.6453867 794.97991 -764.47952)"><path d="m.26458332 292.50208h.79374998v4.49791h-.79374998z" fill="#3a3a38"/><path d="m.52916664 292.76663h.26458332v1.32292h-.26458332z" fill="#fafafa"/></g><g transform="translate(0 -8)"><path d="m10.5 15-.412109 2.056641-1.9843754-.671875-.25.43164-.5.867188-.25.43164 1.5742188 1.384766-1.5742188 1.384766.25.43164.5.867188.25.43164 1.9843754-.671875.412109 2.056641h.5 1 .5l.412109-2.056641 1.984375.671875.25-.43164.5-.867188.25-.43164-1.574218-1.384766 1.574218-1.384766-.25-.43164-.5-.867188-.25-.43164-1.984375.671875-.412109-2.056641h-.5-1zm.875 1h.25l.375 1.5h.654297l.328125.566406 1.486328-.423828.125.214844-1.111328 1.076172.328125.566406-.328125.566406 1.111328 1.076172-.125.214844-1.486328-.423828-.328125.566406h-.654297l-.375 1.5h-.25l-.375-1.5h-.654297l-.328125-.566406-1.486328.423828-.125-.214844 1.1113281-1.076172-.328125-.566406.328125-.566406-1.1113281-1.076172.125-.214844 1.486328.423828.328125-.566406h.654297zm.125 2a1.5 1.5 0 0 0 -1.5 1.5 1.5 1.5 0 0 0 1.5 1.5 1.5 1.5 0 0 0 1.5-1.5 1.5 1.5 0 0 0 -1.5-1.5zm0 1a.5.5 0 0 1 .5.5.5.5 0 0 1 -.5.5.5.5 0 0 1 -.5-.5.5.5 0 0 1 .5-.5z" fill="#1e8bcd"/><path d="m11.375 16h.25l.375 1.5h.654297l.328125.566406 1.486328-.423828.125.214844-1.111328 1.076172.328125.566406-.328125.566406 1.111328 1.076172-.125.214844-1.486328-.423828-.328125.566406h-.654297l-.375 1.5h-.25l-.375-1.5h-.654297l-.328125-.566406-1.486328.423828-.125-.214844 1.1113281-1.076172-.328125-.566406.328125-.566406-1.1113281-1.076172.125-.214844 1.486328.423828.328125-.566406h.654297zm.125 2c-.828427 0-1.5.671573-1.5 1.5s.671573 1.5 1.5 1.5 1.5-.671573 1.5-1.5-.671573-1.5-1.5-1.5z" fill="#fafafa"/></g></svg>