<?xml-stylesheet type="text/css" href="icons.css" ?>
<svg viewBox="0 0 24 24" xmlns="http://www.w3.org/2000/svg">
  <g id="symbol"
	 class="icn icn--highlight-color-2"
     fill="#f8db8f" 
     stroke="#ed8733" 
	 stroke-linecap="round" 
	 stroke-linejoin="round"
      >
      <path d="m 17.5,12.5 a 6,6 0 0 1 -6,6 6,6 0 0 1 -6,-6 6,6 0 0 1 6,-6 6,6 0 0 1 6,6 z" />
      <path d="M 11.5 1.5 L 11.5 4.5 L 11.5 1.5 z M 2.5 3.5 L 5.5 6.5 L 2.5 3.5 z M 20.5 3.5 L 17.5 6.5 L 20.5 3.5 z M 0.5 11.5 L 3.5 11.5 L 0.5 11.5 z M 19.5 11.5 L 22.5 11.5 L 19.5 11.5 z M 5.5 18.5 L 2.5 21.5 L 5.5 18.5 z M 17.5 18.5 L 20.5 21.5 L 17.5 18.5 z M 11.5 20.5 L 11.5 23.5 L 11.5 20.5 z " />
  </g>
</svg>
