<svg version="1.1" viewBox="0 0 24 24" xmlns="http://www.w3.org/2000/svg">
 <path d="m12 2a10 10 0 0 0-5.5098 1.6621l4.4453 4.4453 0.70703-0.70703-3.5137-3.5137a9 9 0 0 1 3.8711-0.88672 9 9 0 0 1 9 9 9 9 0 0 1-1.3887 4.7832l0.72656 0.72656a10 10 0 0 0 1.6621-5.5098 10 10 0 0 0-10-10zm-8.3379 4.4902a10 10 0 0 0-1.6621 5.5098 10 10 0 0 0 10 10 10 10 0 0 0 5.5098-1.6621l-0.66992-0.66992 0.005859-0.003907-4-4-0.70703 0.70703 3.7402 3.7402a9 9 0 0 1-3.8789 0.88867 9 9 0 0 1-9-9 9 9 0 0 1 1.3887-4.7832z" fill="#4d82b8" fill-rule="evenodd"/>
</svg>
