<svg version="1.1" viewBox="0 0 24 24" xmlns="http://www.w3.org/2000/svg">
 <path d="m8.0488 2-7.0488 20h2.9863c0.32039 0 0.58719-0.09076 0.80078-0.27148 0.2233-0.19076 0.3735-0.3963 0.45117-0.61719l1.209-3.916h4.0801l1.248-0.87109c0.28719-0.20608 0.63991-0.32592 1.0039-0.32812 0.81888-0.0042 1.4205 0.60951 1.6484 1.2441v-1.7871h-0.27148c-0.70072 0-1.3172-0.42716-1.6113-1.0293h-5.2383l1.9648-6.3086c0.1068-0.31124 0.2234-0.67793 0.34961-1.0996 0.12621-0.42169 0.24873-0.87912 0.36523-1.3711 0.12621 0.49197 0.25074 0.9494 0.37695 1.3711 0.12621 0.41165 0.24872 0.77272 0.36524 1.084l1.6543 5.3223c0.10401-0.66575 0.63784-1.1457 1.2832-1.3574-0.385-0.53009-0.61645-1.1698-0.61719-1.8535-2.38e-4 -0.88854 0.40895-1.6545 1.0117-2.2266l-0.24609-0.69727-0.087891-0.25195-1.7754-5.0352z" fill="#696969"/>
 <path d="m16.224 8.1432a2.0676 2.0676 0 0 0-2.0676 2.0676 2.0676 2.0676 0 0 0 1.3784 1.9478v0.80898h-1.3784c-0.38181 0-0.6892 0.30738-0.6892 0.6892s0.30738 0.6892 0.6892 0.6892h1.3784v6.1543c-1.1736-0.14957-2.27-0.66992-3.1243-1.4915l0.73227-0.51286a0.67835 0.75177 0 0 0-0.35805-1.3932 0.67835 0.75177 0 0 0-0.36614 0.12249l-2.7554 1.9249a0.6786 0.75206 0 1 0 0.72421 1.2721l0.88028-0.61516c1.2922 1.3435 3.076 2.1187 4.9563 2.1201 1.8807-1e-3 3.6651-0.77631 4.9576-2.1201l0.87898 0.61516a0.6786 0.75206 0 1 0 0.72421-1.2721l-2.7554-1.9249a0.67835 0.75177 0 0 0-0.36614-0.12249 0.67835 0.75177 0 0 0-0.35805 1.3932l0.73634 0.51555c-0.85543 0.82152-1.9537 1.3418-3.1283 1.4901v-6.1556h1.3784c0.38181 0 0.6892-0.30738 0.6892-0.6892s-0.30738-0.6892-0.6892-0.6892h-1.3784v-0.81036a2.0676 2.0676 0 0 0 1.3784-1.9465 2.0676 2.0676 0 0 0-2.0676-2.0676zm0 1.3784a0.6892 0.6892 0 0 1 0.6892 0.6892 0.6892 0.6892 0 0 1-0.6892 0.6892 0.6892 0.6892 0 0 1-0.6892-0.6892 0.6892 0.6892 0 0 1 0.6892-0.6892z" fill="#4d82b8" stroke-width=".6892"/>
</svg>
