<?xml version="1.0" encoding="UTF-8" standalone="no"?>
<svg
   xmlns:dc="http://purl.org/dc/elements/1.1/"
   xmlns:cc="http://creativecommons.org/ns#"
   xmlns:rdf="http://www.w3.org/1999/02/22-rdf-syntax-ns#"
   xmlns:svg="http://www.w3.org/2000/svg"
   xmlns="http://www.w3.org/2000/svg"
   xmlns:sodipodi="http://sodipodi.sourceforge.net/DTD/sodipodi-0.dtd"
   xmlns:inkscape="http://www.inkscape.org/namespaces/inkscape"
   viewBox="0 0 24 24"
   version="1.1"
   id="svg4"
   sodipodi:docname="lc_setanchortocell.svg"
   inkscape:version="0.92.5 (2060ec1f9f, 2020-04-08)">
  <metadata
     id="metadata10">
    <rdf:RDF>
      <cc:Work
         rdf:about="">
        <dc:format>image/svg+xml</dc:format>
        <dc:type
           rdf:resource="http://purl.org/dc/dcmitype/StillImage" />
        <dc:title></dc:title>
      </cc:Work>
    </rdf:RDF>
  </metadata>
  <defs
     id="defs8" />
  <sodipodi:namedview
     pagecolor="#ffffff"
     bordercolor="#666666"
     borderopacity="1"
     objecttolerance="10"
     gridtolerance="10"
     guidetolerance="10"
     inkscape:pageopacity="0"
     inkscape:pageshadow="2"
     inkscape:window-width="1366"
     inkscape:window-height="700"
     id="namedview6"
     showgrid="true"
     inkscape:zoom="19.666667"
     inkscape:cx="11.60992"
     inkscape:cy="11.548434"
     inkscape:window-x="0"
     inkscape:window-y="0"
     inkscape:window-maximized="1"
     inkscape:current-layer="svg4">
    <inkscape:grid
       type="xygrid"
       id="grid817" />
  </sodipodi:namedview>
  <g
     style="stroke-width:0.26458299"
     transform="matrix(3.7795275,0,0,3.7795275,1.8651575e-8,-1098.5196)"
     id="g8">
    <path
       style="fill:#fafafa;stroke-width:0.99999869"
       d="M 3 2 L 3 21 L 8 21 L 8 19.5 C 8 19.067407 8.1940807 18.671127 8.4980469 18.394531 C 8.7658375 18.150854 9.1188904 18 9.5 18 L 10.505859 18 L 12.5 18 C 13.313703 18 14 18.686297 14 19.5 C 14 20.162853 13.542319 20.734142 12.933594 20.925781 C 12.974118 20.952463 13.017451 20.97434 13.058594 21 L 15 21 L 15 17 L 13.5 17 C 12.686297 17 12 16.313703 12 15.5 C 12 14.686297 12.686297 14 13.5 14 L 15 14 L 15 13.427734 C 13.887125 12.825789 13.0021 11.77595 13 10.501953 L 13 10.5 C 13 9.5837021 13.37747 8.6733111 14.025391 8.0253906 C 14.673311 7.3774702 15.583702 7 16.5 7 C 17.416298 7 18.326689 7.3774702 18.974609 8.0253906 C 19.62253 8.6733111 20 9.5837021 20 10.5 C 19.999862 11.775824 19.114397 12.82879 18 13.431641 L 18 14 L 19.5 14 C 20.313703 14 21 14.686297 21 15.5 C 21 16.313703 20.313703 17 19.5 17 L 18 17 L 18 21 L 19.949219 21 C 19.989064 20.975114 20.031047 20.953585 20.070312 20.927734 C 19.459519 20.737415 19 20.164352 19 19.5 C 19 18.686297 19.686297 18 20.5 18 L 22 18 L 22 2 L 3 2 z "
       transform="matrix(0.26458334,0,0,0.26458334,0,290.64998)"
       id="path2" />
    <path
       style="fill:#797774;stroke-width:0.99999869"
       d="M 7 2 L 7 6 L 3 6 L 3 7 L 7 7 L 7 11 L 3 11 L 3 12 L 7 12 L 7 16 L 3 16 L 3 17 L 7 17 L 7 21 L 8 21 L 8 19.5 L 8 17 L 12 17 L 12 18 L 12.5 18 C 12.674891 18 12.84243 18.035891 13 18.09375 L 13 17 L 13.5 17 C 12.686297 17 12 16.313703 12 15.5 L 12 16 L 8 16 L 8 12 L 12 12 L 12 15.5 C 12 14.861188 12.424453 14.305087 13 14.09375 L 13 12 L 13.447266 12 C 13.257407 11.691816 13.116002 11.358658 13.048828 11 L 13 11 L 13 10.501953 L 13 10.5 L 13 7 L 16.5 7 L 17 7 L 17 7.0507812 C 17.347234 7.1024961 17.68281 7.2045469 18 7.3554688 L 18 7 L 22 7 L 22 6 L 18 6 L 18 2 L 17 2 L 17 6 L 13 6 L 13 2 L 12 2 L 12 6 L 8 6 L 8 2 L 7 2 z M 8 7 L 12 7 L 12 11 L 8 11 L 8 7 z M 19.951172 11 C 19.884416 11.357895 19.743592 11.692154 19.554688 12 L 22 12 L 22 11 L 19.951172 11 z M 20.90625 16 C 20.694913 16.575547 20.138812 17 19.5 17 L 22 17 L 22 16 L 20.90625 16 z M 13 20.892578 C 12.976617 20.901241 12.95746 20.918268 12.933594 20.925781 C 12.95507 20.939922 12.978349 20.950991 13 20.964844 L 13 20.892578 z "
       transform="matrix(0.26458334,0,0,0.26458334,0,290.64998)"
       id="path4" />
    <path
       style="fill:#3a3a38;stroke-width:0.99999869"
       d="M 3,1 C 2.446,1 2,1.4459969 2,2 v 19 c 0,0.554003 0.446,1 1,1 H 8 V 21 H 3 V 2 H 22 V 18 H 22.498047 23 V 2 C 23,1.4459969 22.554,1 22,1 Z"
       transform="matrix(0.26458334,0,0,0.26458334,0,290.64998)"
       id="path6"
       inkscape:connector-curvature="0"
       sodipodi:nodetypes="ssssccccccccsss" />
  </g>
  <g
     style="fill:#1e8bcd"
     transform="translate(1.8651575e-8,1.2806905e-4)"
     id="g14">
    <path
       style="opacity:0.5;stroke-width:0.56195199"
       inkscape:connector-curvature="0"
       d="m 12,7 v 4 H 8 V 7 Z"
       id="path10" />
    <path
       inkscape:connector-curvature="0"
       d="m 7,6 v 1 4 1 h 6 V 11 7 6 Z m 1,1 h 4 v 4 H 8 Z"
       id="path12" />
  </g>
  <path
     inkscape:connector-curvature="0"
     style="fill:#1e8bcd"
     d="m 16.5,8 a 2.5,2.5 0 0 0 -2.5,2.5 2.5,2.5 0 0 0 2,2.445313 V 15 h -2.5 c -0.277,0 -0.5,0.223 -0.5,0.5 0,0.277 0.223,0.5 0.5,0.5 H 16 v 6.974609 A 7.5,7.5 0 0 1 10.509766,20 H 12.5 C 12.777,20 13,19.777 13,19.5 13,19.223 12.777,19 12.5,19 h -3 C 9.223,19 9,19.223 9,19.5 v 3 C 9,22.777 9.223,23 9.5,23 9.777,23 10,22.777 10,22.5 V 20.949219 A 8.5,8.5 0 0 0 16.5,24 8.5,8.5 0 0 0 23,20.957031 V 22.5 c 0,0.277 0.223,0.5 0.5,0.5 0.277,0 0.5,-0.223 0.5,-0.5 v -3 C 24,19.223 23.777,19 23.5,19 h -3 c -0.277,0 -0.5,0.223 -0.5,0.5 0,0.277 0.223,0.5 0.5,0.5 h 1.988281 A 7.5,7.5 0 0 1 17,22.974609 V 16 h 2.5 C 19.777,16 20,15.777 20,15.5 20,15.223 19.777,15 19.5,15 H 17 V 12.949219 A 2.5,2.5 0 0 0 19,10.5 2.5,2.5 0 0 0 16.5,8 Z m 0,1 A 1.5,1.5 0 0 1 18,10.5 1.5,1.5 0 0 1 16.5,12 1.5,1.5 0 0 1 15,10.5 1.5,1.5 0 0 1 16.5,9 Z"
     id="path2-3" />
</svg>
