<?xml version="1.0" encoding="UTF-8" standalone="no"?>
<svg
   xmlns:dc="http://purl.org/dc/elements/1.1/"
   xmlns:cc="http://creativecommons.org/ns#"
   xmlns:rdf="http://www.w3.org/1999/02/22-rdf-syntax-ns#"
   xmlns:svg="http://www.w3.org/2000/svg"
   xmlns="http://www.w3.org/2000/svg"
   xmlns:sodipodi="http://sodipodi.sourceforge.net/DTD/sodipodi-0.dtd"
   xmlns:inkscape="http://www.inkscape.org/namespaces/inkscape"
   viewBox="0 0 24 24"
   version="1.1"
   id="svg4"
   sodipodi:docname="lc_submenu_setanchoratchar.svg"
   inkscape:version="0.92.4 (unknown)">
  <metadata
     id="metadata10">
    <rdf:RDF>
      <cc:Work
         rdf:about="">
        <dc:format>image/svg+xml</dc:format>
        <dc:type
           rdf:resource="http://purl.org/dc/dcmitype/StillImage" />
        <dc:title></dc:title>
      </cc:Work>
    </rdf:RDF>
  </metadata>
  <defs
     id="defs8" />
  <sodipodi:namedview
     pagecolor="#ffffff"
     bordercolor="#666666"
     borderopacity="1"
     objecttolerance="10"
     gridtolerance="10"
     guidetolerance="10"
     inkscape:pageopacity="0"
     inkscape:pageshadow="2"
     inkscape:window-width="748"
     inkscape:window-height="480"
     id="namedview6"
     showgrid="false"
     inkscape:zoom="9.8333333"
     inkscape:cx="12"
     inkscape:cy="12"
     inkscape:window-x="0"
     inkscape:window-y="30"
     inkscape:window-maximized="0"
     inkscape:current-layer="svg4" />
  <path
     d="m12 2a3 3 0 0 0 -3 3 3 3 0 0 0 2 2.8261719v1.1738281h-2c-.554 0-1 .446-1 1s .446 1 1 1h2v8.929688c-1.7029249-.217027-3.2936626-.97202-4.5332031-2.164063l1.0625-.744141a.9842562 1.0907768 0 0 0 -.5195313-2.021484.9842562 1.0907768 0 0 0 -.53125.177734l-3.9980468 2.792969a.9842562 1.0907768 0 1 0 1.0507812 1.845703l1.2773438-.892578c1.8749123 1.949387 4.4631707 3.074058 7.1914062 3.076172 2.728857-.001543 5.317991-1.126379 7.193359-3.076172l1.275391.892578a.98425669 1.0907768 0 1 0 1.050781-1.845703l-3.998047-2.792969a.98425669 1.0907768 0 0 0 -.53125-.177734.98425669 1.0907768 0 0 0 -.519531 2.021484l1.068359.748047c-1.24124 1.192002-2.8347 1.946875-4.539062 2.16211v-8.931641h2c .554 0 1-.446 1-1s-.446-1-1-1h-2v-1.1757812a3 3 0 0 0 2-2.8242188 3 3 0 0 0 -3-3zm0 2a1 1 0 0 1 1 1 1 1 0 0 1 -1 1 1 1 0 0 1 -1-1 1 1 0 0 1 1-1z"
     fill="#4d82b8"
     id="path2" />
</svg>
