<svg version="1.1" viewBox="0 0 24 24" xmlns="http://www.w3.org/2000/svg">
 <path d="m10.049 2-7.0488 20h2.9863c0.32039 0 0.58719-0.09076 0.80078-0.27148 0.2233-0.19076 0.3735-0.3963 0.45117-0.61719l1.209-4.1113h7.1211l1.2227 4.127c0.09709 0.251 0.24729 0.46213 0.45117 0.63281 0.20388 0.16064 0.4766 0.24023 0.81641 0.24023h2.9414l-7.0488-20zm1.9375 3.6445c0.12621 0.49197 0.25074 0.94941 0.37695 1.3711 0.12622 0.41165 0.24873 0.77274 0.36524 1.084l1.9648 6.4004h-5.3867l1.9648-6.3848c0.1068-0.31124 0.2234-0.67792 0.34961-1.0996 0.12622-0.42169 0.24873-0.87913 0.36523-1.3711z" fill="#696969"/>
 <g fill="#eac282">
  <path d="m1.5 1h5c0.277 0 0.5 0.223 0.5 0.5s-0.223 0.5-0.5 0.5h-5c-0.277 0-0.5-0.223-0.5-0.5s0.223-0.5 0.5-0.5z"/>
  <path d="m1.5 1c0.277 0 0.5 0.223 0.5 0.5v5c0 0.277-0.223 0.5-0.5 0.5s-0.5-0.223-0.5-0.5v-5c0-0.277 0.223-0.5 0.5-0.5z"/>
  <path d="m2.4999 7.5 5.0001-5.0001v5.0001z" fill-rule="evenodd" stroke="#eac282" stroke-linecap="round" stroke-linejoin="round"/>
 </g>
</svg>
