<?xml version="1.0" encoding="UTF-8" standalone="no"?>
<svg
   xmlns:dc="http://purl.org/dc/elements/1.1/"
   xmlns:cc="http://creativecommons.org/ns#"
   xmlns:rdf="http://www.w3.org/1999/02/22-rdf-syntax-ns#"
   xmlns:svg="http://www.w3.org/2000/svg"
   xmlns="http://www.w3.org/2000/svg"
   xmlns:sodipodi="http://sodipodi.sourceforge.net/DTD/sodipodi-0.dtd"
   xmlns:inkscape="http://www.inkscape.org/namespaces/inkscape"
   viewBox="0 0 24 24"
   version="1.1"
   id="svg4"
   sodipodi:docname="lc_setanchoratchar.svg"
   inkscape:version="0.92.5 (2060ec1f9f, 2020-04-08)">
  <metadata
     id="metadata10">
    <rdf:RDF>
      <cc:Work
         rdf:about="">
        <dc:format>image/svg+xml</dc:format>
        <dc:type
           rdf:resource="http://purl.org/dc/dcmitype/StillImage" />
        <dc:title></dc:title>
      </cc:Work>
    </rdf:RDF>
  </metadata>
  <defs
     id="defs8" />
  <sodipodi:namedview
     pagecolor="#ffffff"
     bordercolor="#666666"
     borderopacity="1"
     objecttolerance="10"
     gridtolerance="10"
     guidetolerance="10"
     inkscape:pageopacity="0"
     inkscape:pageshadow="2"
     inkscape:window-width="1366"
     inkscape:window-height="700"
     id="namedview6"
     showgrid="true"
     inkscape:zoom="19.666667"
     inkscape:cx="15.022285"
     inkscape:cy="18.719375"
     inkscape:window-x="0"
     inkscape:window-y="0"
     inkscape:window-maximized="1"
     inkscape:current-layer="svg4">
    <inkscape:grid
       type="xygrid"
       id="grid817" />
  </sodipodi:namedview>
  <path
     style="fill:#1e8bcd"
     d="M 8.5,2 C 7.1192881,2 6,3.1192881 6,4.5 6.0019827,5.6864102 6.8375582,6.7080318 8,6.9453125 V 9 H 5.5 C 5.223,9 5,9.223 5,9.5 5,9.777 5.223,10 5.5,10 H 8 v 6.974609 C 5.82454,16.828263 3.8204564,15.74245 2.5097656,14 H 4.5 C 4.777,14 5,13.777 5,13.5 5,13.223 4.777,13 4.5,13 h -3 C 1.223,13 1,13.223 1,13.5 v 3 C 1,16.777 1.223,17 1.5,17 1.777,17 2,16.777 2,16.5 V 14.949219 C 3.6097089,16.876291 5.9890797,17.993051 8.5,18 c 0.1962656,-0.0036 0.3923467,-0.01405 0.5878906,-0.03125 L 9.4804688,16.923828 C 9.3208994,16.945911 9.1606601,16.962846 9,16.974609 V 10 h 2.5 C 11.777,10 12,9.777 12,9.5 12,9.223 11.777,9 11.5,9 H 9 V 6.9492188 C 10.163878,6.7116432 10.999871,5.6878781 11,4.5 11,3.1192881 9.8807119,2 8.5,2 Z m 0,1 C 9.3284271,3 10,3.6715729 10,4.5 10,5.3284271 9.3284271,6 8.5,6 7.6715729,6 7,5.3284271 7,4.5 7,3.6715729 7.6715729,3 8.5,3 Z"
     id="path2-3"
     inkscape:connector-curvature="0"
     sodipodi:nodetypes="scccssscccssssssssccccccssscccssssss" />
  <path
     style="fill:#3a3a38;stroke-width:0.75014657"
     d="M 14.275391,7.0058594 8.6503905,22 h 1.6093745 c 0.174966,0 0.323598,-0.04954 0.445313,-0.148438 0.129322,-0.09889 0.216076,-0.212473 0.261719,-0.341796 L 12.203125,18 h 6.25 l 1.242187,3.521484 c 0.06086,0.136929 0.145452,0.248558 0.251954,0.339844 C 20.061372,21.952618 20.210006,22 20.392578,22 H 22 L 16.386719,7.0058594 Z M 15.326172,8.96875 c 0.06847,0.281466 0.140726,0.54368 0.216797,0.787109 0.07607,0.24343 0.152444,0.4561 0.228515,0.638672 L 17.748047,16 h -4.839844 l 1.972656,-5.59375 c 0.06846,-0.182572 0.140726,-0.395242 0.216797,-0.638672 0.07607,-0.24343 0.152444,-0.509755 0.228516,-0.798828 z"
     id="path2"
     inkscape:connector-curvature="0" />
</svg>
