<?xml version="1.0" encoding="UTF-8" standalone="no"?>
<svg
   xmlns:dc="http://purl.org/dc/elements/1.1/"
   xmlns:cc="http://creativecommons.org/ns#"
   xmlns:rdf="http://www.w3.org/1999/02/22-rdf-syntax-ns#"
   xmlns:svg="http://www.w3.org/2000/svg"
   xmlns="http://www.w3.org/2000/svg"
   xmlns:sodipodi="http://sodipodi.sourceforge.net/DTD/sodipodi-0.dtd"
   xmlns:inkscape="http://www.inkscape.org/namespaces/inkscape"
   viewBox="0 0 24 24"
   version="1.1"
   id="svg6"
   sodipodi:docname="lc_styleapply3fstyle3astring3dheading20326familyname3astring3dparagraphstyles.svg"
   width="24"
   height="24"
   inkscape:version="0.92.5 (2060ec1f9f, 2020-04-08)">
  <metadata
     id="metadata12">
    <rdf:RDF>
      <cc:Work
         rdf:about="">
        <dc:format>image/svg+xml</dc:format>
        <dc:type
           rdf:resource="http://purl.org/dc/dcmitype/StillImage" />
        <dc:title></dc:title>
      </cc:Work>
    </rdf:RDF>
  </metadata>
  <defs
     id="defs10" />
  <sodipodi:namedview
     pagecolor="#ffffff"
     bordercolor="#666666"
     borderopacity="1"
     objecttolerance="10"
     gridtolerance="10"
     guidetolerance="10"
     inkscape:pageopacity="0"
     inkscape:pageshadow="2"
     inkscape:window-width="1366"
     inkscape:window-height="700"
     id="namedview8"
     showgrid="true"
     inkscape:zoom="14.75"
     inkscape:cx="-1.8644068"
     inkscape:cy="8"
     inkscape:window-x="0"
     inkscape:window-y="0"
     inkscape:window-maximized="1"
     inkscape:current-layer="svg6">
    <inkscape:grid
       type="xygrid"
       id="grid822" />
  </sodipodi:namedview>
  <path
     d="m 17.214444,11 q 0.610169,0 1.094326,0.179071 0.490788,0.179072 0.829034,0.490789 0.338246,0.305085 0.517318,0.722918 0.185704,0.411201 0.185704,0.882093 0,0.417834 -0.09285,0.736183 -0.08622,0.318349 -0.258659,0.557111 -0.172439,0.238762 -0.424466,0.404569 -0.252026,0.165807 -0.570376,0.271923 Q 20,15.755343 20,17.280767 q 0,0.66986 -0.245394,1.180545 -0.238762,0.504053 -0.649963,0.848931 -0.404569,0.344879 -0.948416,0.517318 Q 17.619013,20 17.022108,20 q -0.630067,0 -1.114223,-0.14591 -0.477524,-0.14591 -0.842299,-0.43773 -0.358143,-0.298453 -0.623434,-0.736183 -0.258659,-0.43773 -0.444363,-1.014738 l 0.703022,-0.298453 q 0.278555,-0.112749 0.517317,-0.05306 0.245395,0.05306 0.344879,0.258659 0.119381,0.225497 0.252026,0.424466 0.132646,0.192336 0.298453,0.344878 0.172439,0.14591 0.391304,0.23213 0.218865,0.08622 0.504053,0.08622 0.351511,0 0.61017,-0.112748 0.265291,-0.119381 0.43773,-0.305085 0.172439,-0.192336 0.258659,-0.431098 0.08622,-0.238762 0.08622,-0.477524 0,-0.305085 -0.05969,-0.557112 -0.05306,-0.252026 -0.252027,-0.431098 -0.192336,-0.179071 -0.570375,-0.278555 -0.37804,-0.09948 -1.028003,-0.09948 v -1.13412 q 0.543846,-0.0066 0.888725,-0.09948 0.35151,-0.09285 0.550479,-0.258659 0.198968,-0.172439 0.271923,-0.404569 0.07296,-0.232129 0.07296,-0.517317 0,-0.603538 -0.305085,-0.908622 -0.298458,-0.305092 -0.842305,-0.305092 -0.484156,0 -0.809138,0.271923 -0.324981,0.271924 -0.450994,0.66986 -0.106117,0.305085 -0.285188,0.397937 -0.17244,0.09285 -0.497421,0.03979 l -0.842299,-0.14591 q 0.09285,-0.643331 0.35151,-1.120855 0.258659,-0.484156 0.649963,-0.802506 0.391305,-0.324981 0.888726,-0.484156 Q 16.637436,11 17.214444,11 Z"
     id="path2"
     inkscape:connector-curvature="0"
     style="fill:#1e8bcd" />
  <path
     d="m 4,4 v 16 h 2 v -7 h 6 v 1 h 2 V 13 11 4 h -2 v 7 H 6 V 4 Z"
     id="path4"
     inkscape:connector-curvature="0"
     style="fill:#3a3a38" />
</svg>
