<?xml version="1.0" encoding="UTF-8" standalone="no"?>
<svg
   xmlns:dc="http://purl.org/dc/elements/1.1/"
   xmlns:cc="http://creativecommons.org/ns#"
   xmlns:rdf="http://www.w3.org/1999/02/22-rdf-syntax-ns#"
   xmlns:svg="http://www.w3.org/2000/svg"
   xmlns="http://www.w3.org/2000/svg"
   xmlns:sodipodi="http://sodipodi.sourceforge.net/DTD/sodipodi-0.dtd"
   xmlns:inkscape="http://www.inkscape.org/namespaces/inkscape"
   viewBox="0 0 16 16"
   version="1.1"
   id="svg6"
   sodipodi:docname="lc_styleapply3fstyle3astring3dbad26familyname3astring3dcellstyles.svg"
   inkscape:version="0.92.5 (2060ec1f9f, 2020-04-08)">
  <metadata
     id="metadata12">
    <rdf:RDF>
      <cc:Work
         rdf:about="">
        <dc:format>image/svg+xml</dc:format>
        <dc:type
           rdf:resource="http://purl.org/dc/dcmitype/StillImage" />
      </cc:Work>
    </rdf:RDF>
  </metadata>
  <defs
     id="defs10" />
  <sodipodi:namedview
     pagecolor="#ffffff"
     bordercolor="#666666"
     borderopacity="1"
     objecttolerance="10"
     gridtolerance="10"
     guidetolerance="10"
     inkscape:pageopacity="0"
     inkscape:pageshadow="2"
     inkscape:window-width="1366"
     inkscape:window-height="700"
     id="namedview8"
     showgrid="false"
     inkscape:zoom="14.75"
     inkscape:cx="-1.8644068"
     inkscape:cy="8"
     inkscape:window-x="0"
     inkscape:window-y="0"
     inkscape:window-maximized="1"
     inkscape:current-layer="svg6" />
  <path
     d="m1 7h5v2h-5z"
     fill="#e68497"
     id="path2"
     style="fill:#ed3d3b" />
  <path
     d="m10.712342.99729349q.871976 0 1.617883.26264321.745906.2626433 1.292204.7564125.546298.4937693.850964 1.2081589.315172.7143896.315172 1.6283881 0 .7669182-.231126 1.4287792-.22062.6513552-.609332 1.2501818-.378206.5988265-.882481 1.1766416-.504275.5673094-1.061079 1.1451245l-3.5404308 3.6875107q.3992177-.115563.7984354-.178597.4097235-.06303.7774244-.06303h4.380889q.283654 0 .451746.168091.168092.157586.168092.430735v1.061079h-9.0244218v-.598827q0-.178597.07354-.378206.07354-.210115.2521376-.378206l4.2758322-4.4124106q.546298-.5568037.977033-1.0715844.44124-.5147807.745906-1.0295615.304666-.5252864.472758-1.0610786.168092-.5357922.168092-1.1346188 0-.5988266-.189103-1.050573-.178598-.4517463-.49377-.7459067-.315171-.3046662-.745906-.4517464-.430735-.1470802-.93501-.1470802-.49377 0-.9139988.1575859-.4202291.1470802-.7459067.4202292-.3256776.2626432-.5568037.6408495-.231126.3677005-.3361833.8089412-.0840459.3571948-.2941605.4727578-.1996088.1050573-.5673093.0525286l-.9139985-.1470802q.1260688-.9560214.504275-1.6809167.388712-.735401.9665271-1.2291703.5778151-.4937693 1.3237219-.7459068.7564125-.25213751 1.6283878-.25213751z"
     fill="#696969"
     transform="scale(.99729386 1.0027135)"
     id="path4"
     style="fill:#3a3a38" />
</svg>
