<?xml version="1.0" encoding="UTF-8" standalone="no"?>
<svg
   xmlns:dc="http://purl.org/dc/elements/1.1/"
   xmlns:cc="http://creativecommons.org/ns#"
   xmlns:rdf="http://www.w3.org/1999/02/22-rdf-syntax-ns#"
   xmlns:svg="http://www.w3.org/2000/svg"
   xmlns="http://www.w3.org/2000/svg"
   xmlns:sodipodi="http://sodipodi.sourceforge.net/DTD/sodipodi-0.dtd"
   xmlns:inkscape="http://www.inkscape.org/namespaces/inkscape"
   viewBox="0 0 16 16"
   version="1.1"
   id="svg8"
   sodipodi:docname="lc_styleapply3fstyle3astring3dneutral26familyname3astring3dcellstyles.svg"
   inkscape:version="0.92.5 (2060ec1f9f, 2020-04-08)">
  <metadata
     id="metadata14">
    <rdf:RDF>
      <cc:Work
         rdf:about="">
        <dc:format>image/svg+xml</dc:format>
        <dc:type
           rdf:resource="http://purl.org/dc/dcmitype/StillImage" />
        <dc:title></dc:title>
      </cc:Work>
    </rdf:RDF>
  </metadata>
  <defs
     id="defs12" />
  <sodipodi:namedview
     pagecolor="#ffffff"
     bordercolor="#666666"
     borderopacity="1"
     objecttolerance="10"
     gridtolerance="10"
     guidetolerance="10"
     inkscape:pageopacity="0"
     inkscape:pageshadow="2"
     inkscape:window-width="1366"
     inkscape:window-height="700"
     id="namedview10"
     showgrid="false"
     inkscape:zoom="14.75"
     inkscape:cx="-1.8644068"
     inkscape:cy="8"
     inkscape:window-x="0"
     inkscape:window-y="0"
     inkscape:window-maximized="1"
     inkscape:current-layer="svg8" />
  <path
     d="m2 3v2h-2v2h2v2h2v-2h2v-2h-2v-2z"
     id="path2"
     fill="#76a797"
     style="fill:#18ab50" />
  <path
     d="m16.530281 7.2641342q0 1.6270148-.340538 2.8283568-.340538 1.191883-.936479 1.977013-.595942.775669-1.409449 1.163504-.804048.378376-1.731068.378376-.927021 0-1.731069-.378376-.8040476-.387835-1.399989-1.163504-.5864821-.78513-.9270201-1.977013-.340538-1.201342-.340538-2.8283568 0-1.6270148.340538-2.8188978.340538-1.2013423.9270201-1.9864715.5959414-.7851293 1.399989-1.1635048.804048-.38783493 1.731069-.38783493.92702 0 1.731068.38783493.813507.3783755 1.409449 1.1635048.595941.7851292.936479 1.9864715.340538 1.191883.340538 2.8188978zm-1.645934 0q0-1.4189083-.227025-2.3743065-.227025-.9648576-.61486-1.5513397-.378376-.5864821-.879723-.8418856-.501348-.2554035-1.049992-.2554035-.548645 0-1.049993.2554035-.491888.2554035-.879723.8418856-.3783752.5864821-.6054006 1.5513397-.2270253.9553982-.2270253 2.3743065 0 1.4189083.2270253 2.3837659.2270254.9553979.6054006 1.5418799.387835.586482.879723.841886.501348.245944 1.049993.245944.548644 0 1.049992-.245944.501347-.255404.879723-.841886.387835-.586482.61486-1.5418799.227025-.9648576.227025-2.3837659z"
     id="path4"
     transform="scale(.9074256 1.1020187)"
     fill="#696969"
     style="fill:#3a3a38" />
  <path
     d="m0 11h6v2h-6z"
     id="path6"
     fill="#e68497"
     style="fill:#ed3d3b" />
</svg>
