<?xml-stylesheet type="text/css" href="icons.css" ?>
<svg viewBox="0 0 24 24" xmlns="http://www.w3.org/2000/svg">
  <g id="background"
	 class="icn icn--text-color"
     fill="#3a3a38"
     transform="translate(3,6)"
     >
      <path d="M 6.6347656 2 L 2 14 L 3.3242188 14 C 3.46837 14 3.5930803 13.96001 3.6933594 13.880859 C 3.799906 13.801709 3.8705985 13.710923 3.9082031 13.607422 L 4.8554688 11 L 10.148438 11 L 11.099609 13.617188 C 11.149749 13.726776 11.218897 13.817566 11.306641 13.890625 C 11.400652 13.963684 11.52341 14 11.673828 14 L 13 14 L 8.3730469 2 L 6.6347656 2 z M 7.4980469 3.5703125 C 8.1396115 5.695631 9.0102197 7.8605897 9.7871094 10 L 5.2167969 10 C 5.9456172 7.8811039 6.8920331 5.6174599 7.4980469 3.5703125 z " />
  </g>
  <g id="symbol"
	 class="icn icn--highlight-color-line"
     fill="none"
     stroke="#1e8bcd"
	 stroke-linecap="round"
	 stroke-linejoin="round"
     transform="translate(0,-9)"

      >
      <path d="m 14.5,18.5 4,4 4,-4" />
      <path d="m 18.5,22.5 v -11" />
  </g>
</svg>
