<?xml version="1.0" encoding="UTF-8" standalone="no"?>
<svg
   xmlns:dc="http://purl.org/dc/elements/1.1/"
   xmlns:cc="http://creativecommons.org/ns#"
   xmlns:rdf="http://www.w3.org/1999/02/22-rdf-syntax-ns#"
   xmlns:svg="http://www.w3.org/2000/svg"
   xmlns="http://www.w3.org/2000/svg"
   xmlns:sodipodi="http://sodipodi.sourceforge.net/DTD/sodipodi-0.dtd"
   xmlns:inkscape="http://www.inkscape.org/namespaces/inkscape"
   version="1.1"
   viewBox="0 0 24 24"
   id="svg6"
   sodipodi:docname="lc_selectheight.svg"
   inkscape:version="0.92.5 (2060ec1f9f, 2020-04-08)">
  <metadata
     id="metadata12">
    <rdf:RDF>
      <cc:Work
         rdf:about="">
        <dc:format>image/svg+xml</dc:format>
        <dc:type
           rdf:resource="http://purl.org/dc/dcmitype/StillImage" />
        <dc:title></dc:title>
      </cc:Work>
    </rdf:RDF>
  </metadata>
  <defs
     id="defs10" />
  <sodipodi:namedview
     pagecolor="#ffffff"
     bordercolor="#666666"
     borderopacity="1"
     objecttolerance="10"
     gridtolerance="10"
     guidetolerance="10"
     inkscape:pageopacity="0"
     inkscape:pageshadow="2"
     inkscape:window-width="1366"
     inkscape:window-height="700"
     id="namedview8"
     showgrid="true"
     inkscape:zoom="19.666667"
     inkscape:cx="8.3157759"
     inkscape:cy="11.784688"
     inkscape:window-x="0"
     inkscape:window-y="0"
     inkscape:window-maximized="1"
     inkscape:current-layer="svg6"
     inkscape:snap-smooth-nodes="true">
    <inkscape:grid
       type="xygrid"
       id="grid822" />
  </sodipodi:namedview>
  <path
     style="fill:#1e8bcd;fill-rule:evenodd"
     d="m 16,5.4843749 c -0.0041,-0.130048 -0.05875,-0.25337 -0.152344,-0.34375 L 12.935547,2.2246093 C 12.774948,2.0513203 12.669118,2.0015999 12.5,1.9999999 c -0.169118,0.0016 -0.274898,0.05132 -0.435547,0.2246094 L 9.1523439,5.1406249 c -0.09359,0.09038 -0.148244,0.213702 -0.152344,0.34375 -0.0115,0.454318 0.540283,0.6868471 0.857422,0.3613281 L 12.001953,3.6972655 v 2.8183594 c 1.3e-4,0.0037 -0.0021,0.00603 -0.002,0.00977 V 12 17.474609 c -1.92e-4,0.0037 0.0021,0.0061 0.002,0.0098 v 2.818359 L 9.8574219,18.154297 c -0.317139,-0.325519 -0.868922,-0.09299 -0.857422,0.361328 0.0041,0.130048 0.058754,0.25337 0.152344,0.34375 l 2.9121091,2.916016 C 12.225102,21.94868 12.330882,21.9984 12.5,22 c 0.169118,-0.0016 0.274948,-0.05132 0.435547,-0.224609 l 2.912109,-2.916016 C 15.941246,18.768995 15.9959,18.645673 16,18.515625 16.0115,18.061307 15.459717,17.828778 15.142578,18.154297 l -2.144531,2.148437 v -2.818359 c -1.29e-4,-0.0037 0.0021,-0.006 0.002,-0.0098 V 12 6.5253905 c 1.91e-4,-0.00374 -0.0021,-0.00607 -0.002,-0.00977 V 3.6972655 L 15.142578,5.845703 C 15.459717,6.171222 16.011504,5.9386929 16,5.4843749 Z"
     id="path8-3"
     inkscape:connector-curvature="0" />
</svg>
