<?xml version="1.0" encoding="UTF-8" standalone="no"?>
<svg
   xmlns:dc="http://purl.org/dc/elements/1.1/"
   xmlns:cc="http://creativecommons.org/ns#"
   xmlns:rdf="http://www.w3.org/1999/02/22-rdf-syntax-ns#"
   xmlns:svg="http://www.w3.org/2000/svg"
   xmlns="http://www.w3.org/2000/svg"
   xmlns:sodipodi="http://sodipodi.sourceforge.net/DTD/sodipodi-0.dtd"
   xmlns:inkscape="http://www.inkscape.org/namespaces/inkscape"
   version="1.1"
   viewBox="0 0 24 24"
   id="svg6"
   sodipodi:docname="lc_selectwidth.svg"
   inkscape:version="0.92.5 (2060ec1f9f, 2020-04-08)">
  <metadata
     id="metadata12">
    <rdf:RDF>
      <cc:Work
         rdf:about="">
        <dc:format>image/svg+xml</dc:format>
        <dc:type
           rdf:resource="http://purl.org/dc/dcmitype/StillImage" />
        <dc:title></dc:title>
      </cc:Work>
    </rdf:RDF>
  </metadata>
  <defs
     id="defs10" />
  <sodipodi:namedview
     pagecolor="#ffffff"
     bordercolor="#666666"
     borderopacity="1"
     objecttolerance="10"
     gridtolerance="10"
     guidetolerance="10"
     inkscape:pageopacity="0"
     inkscape:pageshadow="2"
     inkscape:window-width="1366"
     inkscape:window-height="700"
     id="namedview8"
     showgrid="true"
     inkscape:zoom="13.906434"
     inkscape:cx="4.2497577"
     inkscape:cy="10.695224"
     inkscape:window-x="0"
     inkscape:window-y="0"
     inkscape:window-maximized="1"
     inkscape:current-layer="svg6"
     inkscape:snap-smooth-nodes="true">
    <inkscape:grid
       type="xygrid"
       id="grid822" />
  </sodipodi:namedview>
  <path
     style="fill:#1e8bcd;fill-rule:evenodd"
     d="M 5.484375 9 C 5.354327 9.0041 5.231005 9.0587498 5.140625 9.1523438 L 2.2246094 12.064453 C 2.0513204 12.225052 2.0016 12.330882 2 12.5 C 2.0016 12.669118 2.0513204 12.774898 2.2246094 12.935547 L 5.140625 15.847656 C 5.231005 15.941246 5.354327 15.9959 5.484375 16 C 5.938693 16.0115 6.1712221 15.459717 5.8457031 15.142578 L 3.6972656 12.998047 L 6.515625 12.998047 C 6.5193209 12.997917 6.5216549 13.000192 6.5253906 13 L 12 13 L 17.474609 13 C 17.478345 13.000192 17.480679 12.997917 17.484375 12.998047 L 20.302734 12.998047 L 18.154297 15.142578 C 17.828778 15.459717 18.061307 16.0115 18.515625 16 C 18.645673 15.9959 18.768995 15.941246 18.859375 15.847656 L 21.775391 12.935547 C 21.94868 12.774898 21.9984 12.669118 22 12.5 C 21.9984 12.330882 21.94868 12.225052 21.775391 12.064453 L 18.859375 9.1523438 C 18.768995 9.0587498 18.645673 9.0041 18.515625 9 C 18.061307 8.988496 17.828778 9.5402829 18.154297 9.8574219 L 20.302734 12.001953 L 17.484375 12.001953 C 17.480679 12.002082 17.478345 11.999809 17.474609 12 L 12 12 L 6.5253906 12 C 6.5216549 11.999809 6.5193209 12.002082 6.515625 12.001953 L 3.6972656 12.001953 L 5.8457031 9.8574219 C 6.1712221 9.5402829 5.938693 8.988496 5.484375 9 z "
     id="path8-3" />
</svg>
