<?xml-stylesheet type="text/css" href="icons.css" ?>
<svg viewBox="0 0 24 24" xmlns="http://www.w3.org/2000/svg">
  <g id="background"
     class="icn icn--area-color"
     fill="#fafafa"
     stroke="#3a3a38" 
	 stroke-linecap="round" 
	 stroke-linejoin="round"
     >
      <path d="m 12.073333,2.5018171 c -5.286195,0 -9.571503,4.2524733 -9.571503,9.4981699 0,5.245696 4.285308,9.49817 9.571503,9.49817 1.123319,0 2.416124,-0.01739 3.338809,-0.450793 0.861013,-0.421329 1.402095,-1.233526 1.471245,-2.274365 0.05594,-0.841994 -0.222258,-1.626817 -0.467358,-2.413504 -0.245101,-0.786676 -0.468826,-1.573467 -0.426231,-2.411642 0.02115,-0.416191 0.182218,-0.670476 0.656171,-0.78471 0.473952,-0.114244 1.34412,-0.0047 2.583558,0.671549 0.307239,0.167642 0.605811,0.259841 0.906676,0.244872 0.300864,-0.01501 0.582244,-0.156586 0.772077,-0.352468 0.379664,-0.391751 0.492703,-0.92135 0.555221,-1.472957 0.106524,-0.99064 -0.05713,-2.053722 -0.218719,-2.9774576 C 20.06492,5.3583443 16.405616,2.5018171 12.073333,2.5018171 Z" />
      <path d="M 13.5,18 A 1.5,1.5 0 0 1 12,19.5 1.5,1.5 0 0 1 10.5,18 1.5,1.5 0 0 1 12,16.5 1.5,1.5 0 0 1 13.5,18 Z" />
  </g>
  <g id="symbol"
	 class="icn icn--highlight-color-2"
     fill="#f8db8f" 
     stroke="#ed8733" 
	 stroke-linecap="round" 
	 stroke-linejoin="round"
      >
      <path d="m 9.5,7.5 a 1,1 0 0 1 -1,1 1,1 0 0 1 -1,-1 1,1 0 0 1 1,-1 1,1 0 0 1 1,1 z" />
  </g>
  <g id="background"
	 class="icn icn--highlight-color"  
     fill="#83beec" 
     stroke="#1e8bcd" 
	 stroke-linecap="round" 
	 stroke-linejoin="round"
     >
      <path d="m 18.5,9.5 a 1,1 0 0 1 -1,1 1,1 0 0 1 -1,-1 1,1 0 0 1 1,-1 1,1 0 0 1 1,1 z" />
  </g>
  <g id="background"
	 class="icn icn--positiv-color-color"
     fill="#a1ddaa" 
     stroke="#18ab50" 
	 stroke-linecap="round" 
	 stroke-linejoin="round"
     >
      <path d="m 14.5,6.5 a 1,1 0 0 1 -1,1 1,1 0 0 1 -1,-1 1,1 0 0 1 1,-1 1,1 0 0 1 1,1 z" />
  </g>
  <g id="background"
     class="icn icn--negative-color"
     fill="#ff9198" 
     stroke="#da4453" 
	 stroke-linecap="round" 
	 stroke-linejoin="round"
     >
      <path d="m 7.5,12.5 a 1,1 0 0 1 -1,1 1,1 0 0 1 -1,-1 1,1 0 0 1 1,-1 1,1 0 0 1 1,1 z" />
  </g>
</svg>
