<?xml version="1.0" encoding="UTF-8" standalone="no"?>
<svg
   xmlns:dc="http://purl.org/dc/elements/1.1/"
   xmlns:cc="http://creativecommons.org/ns#"
   xmlns:rdf="http://www.w3.org/1999/02/22-rdf-syntax-ns#"
   xmlns:svg="http://www.w3.org/2000/svg"
   xmlns="http://www.w3.org/2000/svg"
   xmlns:sodipodi="http://sodipodi.sourceforge.net/DTD/sodipodi-0.dtd"
   xmlns:inkscape="http://www.inkscape.org/namespaces/inkscape"
   viewBox="0 0 24 24"
   version="1.1"
   id="svg12"
   sodipodi:docname="lc_spellcheckignore.svg"
   inkscape:version="0.92.5 (2060ec1f9f, 2020-04-08)">
  <metadata
     id="metadata18">
    <rdf:RDF>
      <cc:Work
         rdf:about="">
        <dc:format>image/svg+xml</dc:format>
        <dc:type
           rdf:resource="http://purl.org/dc/dcmitype/StillImage" />
        <dc:title></dc:title>
      </cc:Work>
    </rdf:RDF>
  </metadata>
  <defs
     id="defs16" />
  <sodipodi:namedview
     pagecolor="#ffffff"
     bordercolor="#666666"
     borderopacity="1"
     objecttolerance="10"
     gridtolerance="10"
     guidetolerance="10"
     inkscape:pageopacity="0"
     inkscape:pageshadow="2"
     inkscape:window-width="1366"
     inkscape:window-height="700"
     id="namedview14"
     showgrid="true"
     inkscape:zoom="19.666667"
     inkscape:cx="4.1774413"
     inkscape:cy="8.1131722"
     inkscape:window-x="0"
     inkscape:window-y="0"
     inkscape:window-maximized="1"
     inkscape:current-layer="svg12">
    <inkscape:grid
       type="xygrid"
       id="grid834" />
  </sodipodi:namedview>
  <path
     d="m10 18-.9999999 1 3.9999999 4 10-10-1-1-9 9z"
     fill="#18ab50"
     id="path2" />
  <g
     fill="#3a3a38"
     stroke-width=".397352"
     id="g10">
    <path
       d="m6.2889088 12.029355q-.2017801 0-.310431-.06209-.1086508-.06209-.1474546-.256106l-.1707371-.70623q-.2949094.271627-.582058.488929-.2793878.209541-.5898187.356995-.310431.147455-.6674266.217302-.3569955.07761-.7838381.07761-.4423641 0-.8304027-.116412-.3802779-.12417-.6751873-.372515-.2871486-.256106-.4578857-.628623-.16297619-.380278-.16297619-.892489 0-.4501245.24058399-.8614455.2483447-.4190818.7993596-.7450343.551015-.3259524 1.4357431-.5277326.8847282-.2095408 2.1730166-.2405839v-.582058q0-.8847282-.3802779-1.3270923-.3725171-.4501248-1.0942691-.4501248-.4811679 0-.8148812.1241723-.3259525.1241724-.5665364.2716271-.240584.1474547-.4190818.2716271-.170737.1241723-.3492348.1241723-.1396939 0-.240584-.069847-.10089-.069847-.1629762-.1784978l-.2483448-.4346032q.6286227-.6053403 1.3503746-.9002497.7295127-.3026702 1.6142409-.3026702.6363834 0 1.1330729.2095409.4966895.2017801.8304027.582058.3337133.3802779.5044503.9080105.1784978.5277326.1784978 1.1718768v4.8504833zm-2.8404431-.838163q.341474 0 .6286227-.06985.2871486-.06985.5432541-.19402.2561055-.131933.481168-.318191.2328232-.19402.4578856-.426843v-1.5676733q-.9080105.0388039-1.5443939.1552155-.6363834.1086508-1.0399437.2949094-.3957994.1862586-.5742972.4423641-.1784978.2483447-.1784978.5587753 0 .29491.093129.512211.10089.209541.2638663.349235.1629762.131933.3880387.20178.2250624.06209.4811679.06209z"
       id="path4" />
    <path
       d="m8.9818971 12.029355v-11.03581974h1.3658959v4.52453094q.465647-.551015 1.063226-.8692067.59758-.3259524 1.373657-.3259524.659666 0 1.187398.2561055.527733.2561055.90025.7372734.372517.481168.566537 1.1718768.20178.6829481.20178 1.5521547 0 .9235321-.225063 1.6763271-.225062.7527954-.644144 1.2960494-.419082.535493-1.016661.830402-.59758.29491-1.342614.29491-.745034 0-1.249485-.279388-.496689-.287149-.884728-.791599l-.07761.675187q-.03104.287149-.3337137.287149zm3.3448929-6.6277004q-.628622 0-1.10979.2949093-.473407.2949094-.869207.8381636v3.6630855q.356996.488928.783838.690708.426843.19402.939054.19402 1.047704 0 1.60648-.752795.558776-.7527953.558776-2.2428638 0-1.3814177-.49669-2.0333227-.496689-.6519049-1.412461-.6519049z"
       id="path6" />
    <path
       d="m22.182973 5.8052148q-.06209.085369-.124173.1319331-.05433.038804-.162976.038804-.116412 0-.240584-.093129-.124172-.093129-.310431-.2017801-.186258-.1164116-.457886-.2095409-.263866-.093129-.651904-.093129-.512212 0-.908011.2017801-.388039.1940194-.651905.5665365-.256105.3647564-.395799.8924889-.131934.5277326-.131934 1.1873984 0 .682948.139694 1.2184414.147455.5277326.411321.8924885.263867.364757.636384.558776.372517.186259.838163.186259.450125 0 .737274-.116412.287148-.116412.481168-.256105.194019-.139694.318191-.256106.131934-.116412.271628-.116412.155215 0 .248344.131934l.3958.496689q-.248345.30267-.551015.527733-.30267.217301-.651905.364756-.349235.139694-.729513.209541-.372517.06985-.760556.06985-.667426 0-1.249484-.263866-.582058-.263867-1.016661-.760556-.426843-.50445-.675188-1.2262024-.240584-.7295127-.240584-1.6608055 0-.8459243.225063-1.5599155.225062-.7217519.651905-1.2417237.434603-.5199718 1.063226-.8071205.636383-.2949093 1.459025-.2949093.776077 0 1.358135.2638662.582058.2561056 1.032183.721752z"
       id="path8" />
  </g>
  <path
     inkscape:connector-curvature="0"
     style="fill:#18ab50;fill-opacity:1;stroke:none;stroke-width:0.75"
     d="m 2.00004,21.00002 h 2 v -5.7244 l -1.6783,1.2616 C 2.22462,16.61815 2.12953,16.64648 2.03646,16.6222 1.94744,16.59387 1.88472,16.55341 1.8483,16.5008 L 1.5266,16.0577 3.8513,14 H 5 v 7 h 1 v 1 H 2 Z"
     id="path12"
     sodipodi:nodetypes="cccccccccccccc" />
</svg>
