<svg viewBox="0 0 24 24" xmlns="http://www.w3.org/2000/svg"><path d="m5 3v18h3v-1.5c0-.432593.1940807-.828873.4980469-1.105469.2677906-.243677.6208435-.394531 1.0019531-.394531h1.005859 1.994141c.813703 0 1.5.686297 1.5 1.5 0 .662853-.457681 1.234142-1.066406 1.425781.04052.02668.08386.04856.125.07422h1.941406v-4.000001h-1.5c-.813703 0-1.5-.686297-1.5-1.5s.686297-1.5 1.5-1.5h1.5v-.572266c-1.112875-.601945-1.9979-1.651784-2-2.925781v-.001953c0-.9162979.37747-1.8266889 1.025391-2.4746094.64792-.6479204 1.558311-1.0253906 2.474609-1.0253906s1.826689.3774702 2.474609 1.0253906c.0095.00951.016.021627.02539.03125v-1.328125l-3.999999-3.7285156z" fill="#fafafa"/><path d="m5 2c-.554 0-1 .446-1 1v18c0 .554.446 1 1 1h3v-1h-3v-18h9v4c0 .3060336.144154.5688091.359375.7519531.610215-.4720037 1.36852-.7519531 2.140625-.7519531.902847 0 1.797412.3694369 2.443359 1h.056641v.056641c.630564.6459473 1 1.5405118 1 2.443359v-3.25-.2089844c0-.4506799.098038-.4254121-.605469-1.0664062l-3.30664-3.2382813c-.709525-.7368575-.710169-.7363281-1.09375-.7363281h-.332032-.662109z" fill="#3a3a38"/><path d="m15 7h4l-4-4z" fill="#fafafa" fill-rule="evenodd"/><path d="m16.5 8a2.5 2.5 0 0 0 -2.5 2.5 2.5 2.5 0 0 0 2 2.445313v2.054687h-2.5c-.277 0-.5.223-.5.5s.223.5.5.5h2.5v6.974609a7.5 7.5 0 0 1 -5.490234-2.974609h1.990234c.277 0 .5-.223.5-.5s-.223-.5-.5-.5h-3c-.277 0-.5.223-.5.5v3c0 .277.223.5.5.5s.5-.223.5-.5v-1.550781a8.5 8.5 0 0 0 6.5 3.050781 8.5 8.5 0 0 0 6.5-3.042969v1.542969c0 .277.223.5.5.5s.5-.223.5-.5v-3c0-.277-.223-.5-.5-.5h-3c-.277 0-.5.223-.5.5s.223.5.5.5h1.988281a7.5 7.5 0 0 1 -5.488281 2.974609v-6.974609h2.5c.277 0 .5-.223.5-.5s-.223-.5-.5-.5h-2.5v-2.050781a2.5 2.5 0 0 0 2-2.449219 2.5 2.5 0 0 0 -2.5-2.5zm0 1a1.5 1.5 0 0 1 1.5 1.5 1.5 1.5 0 0 1 -1.5 1.5 1.5 1.5 0 0 1 -1.5-1.5 1.5 1.5 0 0 1 1.5-1.5z" fill="#1e8bcd"/></svg>