<svg version="1.1" viewBox="0 0 24 24" xmlns="http://www.w3.org/2000/svg">
 <g fill="#696969">
  <path d="m10 12h-1.4709q-0.25485 0-0.40777-0.12048-0.15291-0.12801-0.22573-0.31626l-0.61165-1.9654h-3.5607l-0.60437 1.9578q-0.058253 0.16566-0.22573 0.30874-0.16019 0.13554-0.40049 0.13554h-1.4927l3.5243-10h1.9515zm-5.8471-3.7877h2.6942l-0.98301-3.1627q-0.087379-0.23343-0.18204-0.54217-0.09466-0.31627-0.18932-0.68524-0.087379 0.36898-0.18204 0.68524-0.09466 0.31627-0.17476 0.5497z"/>
  <path d="m11 11.897v-9.8967h1.671v3.8636q0.38158-0.41322 0.84868-0.66116 0.4671-0.25482 1.0526-0.25482 0.55921 0 1.0066 0.23416 0.44737 0.23416 0.76316 0.67493 0.31579 0.43388 0.48684 1.0537 0.17105 0.61983 0.17105 1.3912 0 0.83333-0.19737 1.5152-0.19737 0.68182-0.55921 1.1708-0.36184 0.48209-0.86842 0.75069-0.5 0.26171-1.1184 0.26171-0.30263 0-0.54605-0.06198-0.23684-0.06198-0.44079-0.17218-0.20395-0.11708-0.375-0.27548-0.16447-0.16529-0.32237-0.36501l-0.07237 0.44077q-0.0329 0.18595-0.13158 0.26171-0.09868 0.06887-0.25658 0.06887h-1.1118zm2.9934-5.5854q-0.42105 0-0.73026 0.19972-0.30921 0.19284-0.5921 0.56474v3.0165q0.25 0.32369 0.53947 0.45454t0.61842 0.13085 0.59868-0.12397q0.26974-0.13086 0.45395-0.40634 0.19079-0.28237 0.28947-0.71625 0.10526-0.44077 0.10526-1.0606 0-0.55096-0.08553-0.93664-0.08552-0.39256-0.25-0.6405-0.15789-0.24793-0.40132-0.36501-0.23684-0.11708-0.54605-0.11708z"/>
  <path d="m20.867 5c-0.46948 0-0.88172 0.089844-1.2402 0.26758-0.35425 0.17773-0.65321 0.42383-0.89648 0.73828-0.23901 0.3099-0.42115 0.67578-0.54492 1.0996-0.12377 0.42383-0.18555 0.88411-0.18555 1.3809 0 0.55599 0.07009 1.0527 0.21094 1.4902 0.14084 0.43294 0.3313 0.80078 0.57031 1.1016 0.19531 0.24148 0.42003 0.4238 0.66211 0.57422l0.81055-0.9082-0.01953 0.02539c0.06369-0.07601 0.13506-0.14331 0.20703-0.20898-0.17002-0.09409-0.3164-0.23891-0.4375-0.44141-0.22621-0.38281-0.33984-0.92643-0.33984-1.6328 0-0.33268 0.0269-0.63346 0.07813-0.90234 0.05548-0.26888 0.13549-0.49674 0.24219-0.68359s0.24211-0.33138 0.4043-0.43164c0.16645-0.10026 0.36009-0.15039 0.58203-0.15039 0.17926 0 0.32617 0.026041 0.44141 0.076172 0.11951 0.05013 0.22128 0.10612 0.30664 0.16992 0.08963 0.059244 0.16999 0.11393 0.23828 0.16406 0.06829 0.050131 0.14156 0.076172 0.22266 0.076172 0.08535 0 0.15226-0.018229 0.19922-0.054687 0.04694-0.041016 0.09367-0.094401 0.14062-0.1582l0.42968-0.62109c-0.26889-0.31445-0.57298-0.55273-0.91016-0.7168-0.33717-0.16862-0.728-0.25391-1.1719-0.25391z"/>
 </g>
 <path d="m22.008 11.016c-0.11263-0.02069-0.22958-0.02189-0.34981 0.0022-0.25623 0.05414-0.49235 0.19518-0.65848 0.39344l-7.353 8.2266-2.6339-2.5753c-0.44054-0.43079-1.2421-0.43076-1.6828 0-0.44056 0.43077-0.4406 1.2145 0 1.6453l3.5119 3.4337 0.91455 0.85842 0.8048-0.92996 8.1944-9.1565c0.5812-0.61865 0.04074-1.7531-0.74765-1.8979z" fill="#76a797"/>
 <path d="m1.9769 21.5h2v-5.7244l-1.6783 1.2616c-0.09712 0.08093-0.19221 0.10926-0.28528 0.08498-0.08902-0.02833-0.15174-0.06879-0.18816-0.1214l-0.3217-0.4431 2.3247-2.0577h1.1487v7h1v1h-4z" fill="#76a797" stroke="#76a797" stroke-width=".75"/>
</svg>
