<svg version="1.1" viewBox="0 0 24 24" xmlns="http://www.w3.org/2000/svg">
 <path d="m8.0488 2-7.0488 20h2.9863c0.32039 0 0.58719-0.09076 0.80078-0.27148 0.2233-0.19076 0.3735-0.3963 0.45117-0.61719l1.209-3.916h5.8047l0.044922-0.03125c0.25925-0.18599 0.57769-0.29488 0.90625-0.29687 0.73878-0.003821 1.2821 0.55054 1.4883 1.123v-1.6133h-0.24414c-0.87923 0-1.623-0.73808-1.623-1.6211 0-0.71181 0.53066-1.2243 1.1797-1.4375-0.34798-0.47875-0.55598-1.0542-0.55664-1.6719v-0.001953c-2.55e-4 -0.90942 0.44146-1.7171 1.1113-2.2441l-2.6074-7.4004h-3.9023zm1.9375 3.6445c0.12621 0.49197 0.25074 0.94941 0.37695 1.3711 0.12621 0.41165 0.24873 0.77274 0.36524 1.084l1.9648 6.3242h-5.3867l1.9648-6.3086c0.1068-0.31124 0.2234-0.67792 0.34961-1.0996 0.12621-0.42169 0.24873-0.87913 0.36523-1.3711z" fill="#696969"/>
 <path d="m16.314 9.7778a1.8667 1.8667 0 0 0-1.8667 1.8667 1.8667 1.8667 0 0 0 1.2444 1.7585v0.73036h-1.2444c-0.34471 0-0.62222 0.27751-0.62222 0.62222s0.27751 0.62222 0.62222 0.62222h1.2444v5.5563c-1.0596-0.13504-2.0494-0.60481-2.8207-1.3466l0.66111-0.46302a0.61243 0.67872 0 0 0-0.32326-1.2578 0.61243 0.67872 0 0 0-0.33056 0.11059l-2.4876 1.7379a0.61265 0.67896 0 1 0 0.65383 1.1484l0.79476-0.55538c1.1666 1.213 2.7771 1.9128 4.4746 1.9141 1.698-9.33e-4 3.309-0.70087 4.4759-1.9141l0.79358 0.55538a0.61265 0.67896 0 1 0 0.65383-1.1484l-2.4876-1.7379a0.61243 0.67872 0 0 0-0.33056-0.11059 0.61243 0.67872 0 0 0-0.32326 1.2578l0.66478 0.46545c-0.7723 0.74169-1.7638 1.2114-2.8243 1.3453v-5.5574h1.2444c0.34471 0 0.62222-0.27751 0.62222-0.62222s-0.27751-0.62222-0.62222-0.62222h-1.2444v-0.73161a1.8667 1.8667 0 0 0 1.2444-1.7573 1.8667 1.8667 0 0 0-1.8667-1.8667zm0 1.2444a0.62222 0.62222 0 0 1 0.62222 0.62222 0.62222 0.62222 0 0 1-0.62222 0.62222 0.62222 0.62222 0 0 1-0.62222-0.62222 0.62222 0.62222 0 0 1 0.62222-0.62222z" fill="#4d82b8" stroke-width=".62222"/>
 <path d="m14.865 2.4407h7.3044v6.6578" fill="none" stroke="#4d82b8" stroke-linejoin="round" stroke-width="2" style="paint-order:stroke markers fill"/>
 <path d="m8.3044 22h-7.3044v-6.6578" fill="none" stroke="#4d82b8" stroke-linejoin="round" stroke-width="2" style="paint-order:stroke markers fill"/>
</svg>
