<?xml version="1.0" encoding="UTF-8" standalone="no"?>
<svg
   xmlns:dc="http://purl.org/dc/elements/1.1/"
   xmlns:cc="http://creativecommons.org/ns#"
   xmlns:rdf="http://www.w3.org/1999/02/22-rdf-syntax-ns#"
   xmlns:svg="http://www.w3.org/2000/svg"
   xmlns="http://www.w3.org/2000/svg"
   xmlns:sodipodi="http://sodipodi.sourceforge.net/DTD/sodipodi-0.dtd"
   xmlns:inkscape="http://www.inkscape.org/namespaces/inkscape"
   viewBox="0 0 24 24"
   version="1.1"
   id="svg20"
   sodipodi:docname="lc_sheetmenu.svg"
   inkscape:version="0.92.5 (2060ec1f9f, 2020-04-08)">
  <metadata
     id="metadata26">
    <rdf:RDF>
      <cc:Work
         rdf:about="">
        <dc:format>image/svg+xml</dc:format>
        <dc:type
           rdf:resource="http://purl.org/dc/dcmitype/StillImage" />
        <dc:title></dc:title>
      </cc:Work>
    </rdf:RDF>
  </metadata>
  <defs
     id="defs24" />
  <sodipodi:namedview
     pagecolor="#ffffff"
     bordercolor="#666666"
     borderopacity="1"
     objecttolerance="10"
     gridtolerance="10"
     guidetolerance="10"
     inkscape:pageopacity="0"
     inkscape:pageshadow="2"
     inkscape:window-width="1366"
     inkscape:window-height="700"
     id="namedview22"
     showgrid="false"
     inkscape:zoom="9.8333333"
     inkscape:cx="24.143925"
     inkscape:cy="15.536888"
     inkscape:window-x="0"
     inkscape:window-y="0"
     inkscape:window-maximized="1"
     inkscape:current-layer="svg20" />
  <path
     d="m3 19h4v2h-4z"
     fill="#83beec"
     id="path2"
     style="fill:#fafafa" />
  <path
     d="m3 3h18v15h-18z"
     fill="#83beec"
     id="path4"
     style="fill:#fafafa" />
  <path
     d="m8 3v3h-5v1h5v3h-5v1h5v3h-5v1h5v3h1v-3h6v2.871094.128906h1v-3h5v-1h-5v-3h5v-1h-5v-3h5v-1h-5v-3h-1v3h-6v-3zm1 4h6v3h-6zm0 4h6v3h-6zm4.871094 7.998047-10.871094.001953h10.869141z"
     fill="#1e8bcd"
     id="path6"
     style="fill:#797774" />
  <path
     d="m3 2c-.554 0-1 .446-1 1v15c0 .554.446 1 1 1l18.011719-.002c.548255-.006532.988281-.448128.988281-.998v-15c0-.554-.446-1-1-1zm0 1h18v15h-18z"
     fill="#0063b1"
     id="path8"
     style="fill:#3a3a38" />
  <path
     d="m2 18v3c0 .554.446 1 1 1h3 .5l1.5-3h-1l-1 2h-3v-3z"
     fill="#0063b1"
     id="path10"
     style="fill:#3a3a38" />
  <path
     d="m9 19h4v2h-4z"
     fill="#83beec"
     id="path12"
     style="fill:#fafafa" />
  <path
     d="m8 18v3c0 .554.446 1 1 1h3 .5l1.5-3h-1l-1 2h-3v-3z"
     fill="#0063b1"
     id="path14"
     style="fill:#3a3a38" />
  <path
     d="m15 19h4v2h-4z"
     fill="#83beec"
     id="path16"
     style="fill:#fafafa" />
  <path
     d="m14 18v3c0 .554.446 1 1 1h3 .5l1.5-3h-1l-1 2h-3v-3z"
     fill="#0063b1"
     id="path18"
     style="fill:#3a3a38" />
</svg>
