<svg height="24" viewBox="0 0 24 24" width="24" xmlns="http://www.w3.org/2000/svg"><g transform="translate(4 -4)"><path d="m13.214444 15q.610169 0 1.094326.179071.490788.179072.829034.490789.338246.305085.517318.722918.185704.411201.185704.882093 0 .417834-.09285.736183-.08622.318349-.258659.557111-.172439.238762-.424466.404569-.252026.165807-.570376.271923 1.505525.510686 1.505525 2.03611 0 .66986-.245394 1.180545-.238762.504053-.649963.848931-.404569.344879-.948416.517318-.537214.172439-1.134119.172439-.630067 0-1.114223-.14591-.477524-.14591-.842299-.43773-.358143-.298453-.623434-.736183-.258659-.43773-.4443627-1.014738l.7030217-.298453q.278555-.112749.517317-.05306.245395.05306.344879.258659.119381.225497.252026.424466.132646.192336.298453.344878.172439.14591.391304.23213.218865.08622.504053.08622.351511 0 .61017-.112748.265291-.119381.43773-.305085.172439-.192336.258659-.431098.08622-.238762.08622-.477524 0-.305085-.05969-.557112-.05306-.252026-.252027-.431098-.192336-.179071-.570375-.278555-.37804-.09948-1.028003-.09948v-1.13412q.543846-.0066.888725-.09948.35151-.09285.550479-.258659.198968-.172439.271923-.404569.07296-.232129.07296-.517317 0-.603538-.305085-.908622-.298458-.305092-.842305-.305092-.484156 0-.809138.271923-.324981.271924-.450994.66986-.106117.305085-.285188.397937-.17244.09285-.497421.03979l-.842299-.14591q.09285-.643331.35151-1.120855.258659-.484156.649963-.802506.391305-.324981.888726-.484156.504053-.165803 1.081061-.165803z" fill="none"/><path d="m0 8v16h2v-7h6v7h2v-7-2-7h-2v7h-6v-7z" fill="#3a3a38"/><path d="m14.314449 15-3.314449 2.341797.960933.703125c.02913.03609.0716.07329.125.109375.05825.03158.122493.05288.195313.06641s.151845.01353.234375 0c.08252-.01354.163574-.05208.246094-.115234l1.259765-1.007813c-.01455.225564-.02148.442872-.02148.650391v6.251949h1v-9z" fill="#1e8bcd"/></g></svg>