<?xml-stylesheet type="text/css" href="icons.css" ?>
<svg viewBox="0 0 24 24" xmlns="http://www.w3.org/2000/svg">
  <g id="symbol"
     class="icn icn--area-color"
     fill="#fafafa"
     stroke="#3a3a38"
     stroke-linecap="round"
     stroke-linejoin="round"
     stroke-width="3"
     >
      <path d="m 2.5,21.5 7,-7 v 0" />
  </g>
  <g id="symbol"
     class="icn icn--area-color"
     fill="#fafafa"
     stroke="#3a3a38"
     stroke-linecap="round"
     stroke-linejoin="round"
      >
      <path d="m 21.5,9.5 a 7,7 0 0 1 -7,7 7,7 0 0 1 -7,-7 7,7 0 0 1 7,-7 7,7 0 0 1 7,7 z" />
  </g>
  <g id="symbol"
	 class="icn icn--highlight-color"
     fill="#1e8bcd"
      >
      <path d="m 16,13 v -1 c -0.4,0.7 -1.1,1 -2,1 -1.5,0 -2,-0.4 -2,-1.5 C 12,9 13.4,9 16,9 16,7.8 16,7 14.6,7 c -1,0 -1.4,0.3 -2,0.6 -0.1,0 -0.2,-0 -0.2,-0 C 12.3,7.4 12.1,7.2 12,7 12.8,6.2 13.6,6 14.8,6 16.4,6 17,6.7 17,8 v 5 z m -2,-1 c 1.1,0 1.5,-0.5 2,-1 v -1 c -1.8,0 -3,0 -3,1.3 C 13,12 13.5,12 14,12 Z" />
  </g>
</svg>

