<svg version="1.1" viewBox="0 0 24 24" xmlns="http://www.w3.org/2000/svg">
 <path d="m2.0527 3.0527v17.891h7.1953c-0.11924-0.28196-0.18774-0.58907-0.13672-0.92578 0.063229-0.41732 0.32329-0.85661 0.71289-1.125l-0.0058594 0.001953 2.4727-1.7266c0.25942-0.18793 0.58019-0.29808 0.91016-0.30078 0.73929-0.005139 1.2835 0.54838 1.4902 1.1211v-1.6113h-0.24414c-0.88141 0-1.623-0.73968-1.623-1.6211 0-0.70962 0.5306-1.2214 1.1777-1.4355-0.34752-0.47872-0.55422-1.0584-0.55469-1.6758 0-1.5714 1.2958-2.8672 2.8672-2.8672 0.13817 0 0.22226 0.1291 0.35547 0.14844 0.039571 0.0057442 0.076099 0.020162 0.11523 0.027344v-1.9766l-4.209-3.9238h-10.523zm14.262 8.2148c-0.1968 0-0.37891 0.18016-0.37891 0.37695 0 0.1968 0.18211 0.37695 0.37891 0.37695 0.1968 0 0.37695-0.18016 0.37695-0.37695 0-0.1968-0.18016-0.37695-0.37695-0.37695zm-1.623 7.8867c-0.026253 0.070238-0.10287 0.11652-0.13867 0.18359 0.045952 0.02416 0.091812 0.044066 0.13867 0.066406v-0.25zm-0.58594 0.78906-0.009766 0.00586c-0.001388 9e-4 -6.53e-4 0.003027-0.001953 0.003906l0.011719-0.009766z" fill="#fff"/>
 <path d="m2.0527 2c-0.58303 0-1.0527 0.46971-1.0527 1.0527v17.891c0 0.58303 0.46971 1.0527 1.0527 1.0527h2.7441 7.752c-0.2335-0.15481-0.47041-0.30546-0.68945-0.48242l-0.23633 0.16602c-0.38548 0.27358-0.9367 0.37079-1.373 0.23242-0.43634-0.13837-0.73675-0.43508-0.92383-0.76367-0.036137-0.063472-0.049578-0.13758-0.078125-0.20508h-3.4863-3.709v-17.891h9.4707v4.209c0 0.58303 0.46971 1.0527 1.0527 1.0527h4.209v0.63672c0.38176 0.070009 0.73744 0.21033 1.0566 0.4043v-1.5449l-0.003906 0.0039062v-0.28906-0.2207c0-0.47429 0.10365-0.44652-0.63672-1.1211l-3.4805-3.4082c-0.7467-0.77547-0.74666-0.77539-1.1504-0.77539h-0.34961-0.69726-9.4707z" fill="#696969"/>
 <g transform="matrix(1.0524 0 0 1.0524 -3.2096 -1.1567)" fill-rule="evenodd" stroke-width=".95021">
  <path d="m15 8h4l-4-4z" fill="#fff" stroke-width=".95021"/>
 </g>
 <path d="m16.314 9.7778a1.8667 1.8667 0 0 0-1.8667 1.8667 1.8667 1.8667 0 0 0 1.2444 1.7585v0.73036h-1.2444c-0.34471 0-0.62222 0.27751-0.62222 0.62222s0.27751 0.62222 0.62222 0.62222h1.2444v5.5563c-1.0596-0.13504-2.0494-0.60481-2.8207-1.3466l0.66111-0.46302a0.61243 0.67872 0 0 0-0.32326-1.2578 0.61243 0.67872 0 0 0-0.33056 0.11059l-2.4876 1.7379a0.61265 0.67896 0 1 0 0.65383 1.1484l0.79476-0.55538c1.1666 1.213 2.7771 1.9128 4.4746 1.9141 1.698-9.33e-4 3.309-0.70087 4.4759-1.9141l0.79358 0.55538a0.61265 0.67896 0 1 0 0.65383-1.1484l-2.4876-1.7379a0.61243 0.67872 0 0 0-0.33056-0.11059 0.61243 0.67872 0 0 0-0.32326 1.2578l0.66478 0.46545c-0.7723 0.74169-1.7638 1.2114-2.8243 1.3453v-5.5574h1.2444c0.34471 0 0.62222-0.27751 0.62222-0.62222s-0.27751-0.62222-0.62222-0.62222h-1.2444v-0.73161a1.8667 1.8667 0 0 0 1.2444-1.7573 1.8667 1.8667 0 0 0-1.8667-1.8667zm0 1.2444a0.62222 0.62222 0 0 1 0.62222 0.62222 0.62222 0.62222 0 0 1-0.62222 0.62222 0.62222 0.62222 0 0 1-0.62222-0.62222 0.62222 0.62222 0 0 1 0.62222-0.62222z" fill="#4d82b8" stroke-width=".62222"/>
</svg>
