<svg viewBox="0 0 24 24" xmlns="http://www.w3.org/2000/svg"><path d="m8.0488281 2-7.0488281 20h2.9863281c.32039 0 .5871913-.09076.8007813-.271484.2233-.19076.3735018-.396298.4511718-.617188l1.2695313-4.111328h5.3320315l.550781-.550781c.234153-.234152.550907-.304805.861328-.351563-.097434-.197346-.251953-.367161-.251953-.597656 0-.762392.621932-1.364345 1.367188-1.443359-.778286-.647963-1.365394-1.490619-1.367188-2.554688a1.0001 1.0001 0 0 0 0-.001953c0-1.103181.530809-2.0813044 1.337891-2.7246094l-2.386719-6.7753906zm1.9511719 3.6933594 2.566406 8.3066406h-5.1328122zm4.767578 11.3066406c.211161.547379.208827 1.166169-.224609 1.599609l-.425781.425782.074218.236328c.257029.161307.519816.304136.808594.408203v-2.669922zm3.232422 2.162109v.507813c.05376-.019379.102062-.046906.154297-.06836z" fill="#696969"/><path d="m16.5 9c-1.380712 0-2.5 1.119288-2.5 2.5.002 1.18641.837558 2.208031 2 2.445312v.054688 1h-1.5c-.277 0-.5.223-.5.5s.223.5.5.5h1.5v4.972656c-1.339636-.125003-2.593785-.734477-3.517578-1.728515l1.353516-1.351563c.204141-.204142.204141-.532186 0-.736328-.204144-.204142-.534139-.204142-.738282 0l-2.947265 2.947266c-.204143.204142-.204143.532185 0 .736328.204142.204142.532185.204142.736328 0l.890625-.888672c1.225166 1.303786 2.933557 2.044937 4.722656 2.048828 1.786277-.0024 3.492832-.739864 4.71875-2.039062l.878906.878906c.204143.204142.534138.204142.738282 0 .204142-.204143.204141-.532186 0-.736328l-2.949219-2.947266c-.204143-.204142-.532186-.204142-.736328 0-.204143.204142-.204143.532186 0 .736328l1.359375 1.359375c-.922962.989287-2.174119 1.595831-3.509766 1.720703v-4.972656h1.5c.06925 0 .135453-.013828.195312-.039062.179579-.075704.304688-.253188.304688-.460938 0-.06925-.013828-.135453-.039062-.195312-.025235-.05986-.062235-.113016-.107422-.158204-.090375-.090375-.215016-.146484-.353516-.146484h-1.5v-1-.050781c1.163878-.237578 1.999871-1.261341 2-2.449219 0-1.380712-1.119288-2.5-2.5-2.5zm0 1c.828427 0 1.5.671573 1.5 1.5s-.671573 1.5-1.5 1.5-1.5-.671573-1.5-1.5.671573-1.5 1.5-1.5z" fill="#4d82b8" stroke-width=".62222"/></svg>