<svg version="1.1" viewBox="0 0 24 24" xmlns="http://www.w3.org/2000/svg">
 <path d="m12.592 2a8.5 8.5 0 0 0-8.5 8.5 8.5 8.5 0 0 0 0.65625 3.2734l1.918-5.4395 0.23438-0.66797h4.0176l3.8867 11.031a8.5 8.5 0 0 0 6.2871-8.1973 8.5 8.5 0 0 0-8.5-8.5z" fill="#eac282"/>
 <path d="m7.6084 8.6667-4.6992 13.333h1.9909c0.21359 0 0.39146-0.06051 0.53385-0.18099 0.14887-0.12717 0.249-0.2642 0.30078-0.41146l0.806-2.7409h4.7474l0.81513 2.7513c0.06473 0.16733 0.16486 0.30809 0.30078 0.42187 0.13592 0.1071 0.31773 0.16015 0.54427 0.16015h1.9609l-4.6992-13.333zm1.2917 2.4297c0.084141 0.32798 0.16716 0.63294 0.2513 0.91406 0.08415 0.27443 0.16582 0.51516 0.24349 0.72267l1.3099 4.2669h-3.5911l1.3099-4.2565c0.0712-0.20749 0.14893-0.45194 0.23307-0.73306 0.084147-0.28112 0.16582-0.58608 0.24349-0.91406z" fill="#696969" stroke-width=".66667"/>
</svg>
