<svg viewBox="0 0 24 24" xmlns="http://www.w3.org/2000/svg"><path d="m8.5 2c-1.3807119 0-2.5 1.1192881-2.5 2.5.0019827 1.1864102.8375582 2.2080318 2 2.4453125v2.0546875h-2.5c-.277 0-.5.223-.5.5s.223.5.5.5h2.5v6.974609c-2.17546-.146346-4.1795436-1.232159-5.4902344-2.974609h1.9902344c.277 0 .5-.223.5-.5s-.223-.5-.5-.5h-3c-.277 0-.5.223-.5.5v3c0 .277.223.5.5.5s.5-.223.5-.5v-1.550781c1.6097089 1.927072 3.9890797 3.043832 6.5 3.050781.1962656-.0036.3923467-.01405.5878906-.03125l.3925782-1.044922c-.1595694.022083-.3198087.039018-.4804688.050781v-6.974609h2.5c.277 0 .5-.223.5-.5s-.223-.5-.5-.5h-2.5v-2.0507812c1.163878-.2375756 1.999871-1.2613407 2-2.4492188 0-1.3807119-1.1192881-2.5-2.5-2.5zm0 1c.8284271 0 1.5.6715729 1.5 1.5s-.6715729 1.5-1.5 1.5-1.5-.6715729-1.5-1.5.6715729-1.5 1.5-1.5z" fill="#1e8bcd"/><path d="m14.275391 7.0058594-5.6250005 14.9941406h1.6093745c.174966 0 .323598-.04954.445313-.148438.129322-.09889.216076-.212473.261719-.341796l1.236328-3.509766h6.25l1.242187 3.521484c.06086.136929.145452.248558.251954.339844.114106.09129.26274.138672.445312.138672h1.607422l-5.613281-14.9941406zm1.050781 1.9628906c.06847.281466.140726.54368.216797.787109.07607.24343.152444.4561.228515.638672l1.976563 5.605469h-4.839844l1.972656-5.59375c.06846-.182572.140726-.395242.216797-.638672.07607-.24343.152444-.509755.228516-.798828z" fill="#3a3a38" stroke-width=".750147"/></svg>