<?xml version="1.0" encoding="UTF-8" standalone="no"?>
<svg
   xmlns:dc="http://purl.org/dc/elements/1.1/"
   xmlns:cc="http://creativecommons.org/ns#"
   xmlns:rdf="http://www.w3.org/1999/02/22-rdf-syntax-ns#"
   xmlns:svg="http://www.w3.org/2000/svg"
   xmlns="http://www.w3.org/2000/svg"
   xmlns:sodipodi="http://sodipodi.sourceforge.net/DTD/sodipodi-0.dtd"
   xmlns:inkscape="http://www.inkscape.org/namespaces/inkscape"
   viewBox="0 0 24 24"
   version="1.1"
   id="svg10"
   sodipodi:docname="lc_styleapply.svg"
   inkscape:version="0.92.5 (2060ec1f9f, 2020-04-08)">
  <metadata
     id="metadata16">
    <rdf:RDF>
      <cc:Work
         rdf:about="">
        <dc:format>image/svg+xml</dc:format>
        <dc:type
           rdf:resource="http://purl.org/dc/dcmitype/StillImage" />
      </cc:Work>
    </rdf:RDF>
  </metadata>
  <defs
     id="defs14" />
  <sodipodi:namedview
     pagecolor="#ffffff"
     bordercolor="#666666"
     borderopacity="1"
     objecttolerance="10"
     gridtolerance="10"
     guidetolerance="10"
     inkscape:pageopacity="0"
     inkscape:pageshadow="2"
     inkscape:window-width="1366"
     inkscape:window-height="700"
     id="namedview12"
     showgrid="true"
     inkscape:zoom="19.666667"
     inkscape:cx="9.2821183"
     inkscape:cy="13.054222"
     inkscape:window-x="0"
     inkscape:window-y="0"
     inkscape:window-maximized="1"
     inkscape:current-layer="svg10">
    <inkscape:grid
       type="xygrid"
       id="grid823" />
  </sodipodi:namedview>
  <path
     inkscape:connector-curvature="0"
     style="fill:#3a3a38"
     d="M 8.599609,2 2.5,14 h 1.3554688 c 0.145104,0 0.2745929,-0.03999 0.3867187,-0.119141 0.1121258,-0.08574 0.1933287,-0.184749 0.2460937,-0.296875 L 5.7578125,11 h 5.2597655 l 0.398438,1.634766 1.384765,-1.378907 L 10.369141,2 Z m 0.691407,1.6328125 c 0.03298,0.2374429 0.0698,0.4608146 0.109375,0.671875 0.04617,0.2044647 0.08616,0.3866266 0.11914,0.5449219 L 10.773438,10 H 6.25 L 8.787109,4.859375 C 8.859659,4.7010797 8.937693,4.5157479 9.023438,4.3046875 9.109178,4.0936271 9.198677,3.8702554 9.291016,3.6328125 Z"
     id="path12"
     sodipodi:nodetypes="ccscccccccccccccccc" />
  <path
     inkscape:connector-curvature="0"
     style="fill:#1e8bcd;fill-rule:evenodd"
     d="m 22,14.999959 v 2 c 0,1.104569 -0.895431,2 -2,2 l -4.286117,-0.01693 2.146633,-2.146326 c 0.32527,-0.318003 0.09144,-0.869893 -0.363282,-0.857422 -0.129759,0.0036 -0.253031,0.05754 -0.34375,0.150391 l -2.957179,2.956869 c -0.260944,0.199522 -0.261864,0.592163 -0.002,0.792969 l 0.0059,0.0039 2.953279,2.953095 c 0.471254,0.490839 1.197871,-0.235777 0.707032,-0.707031 L 15.713883,19.983067 20,20 c 1.656854,0 3,-1.343146 3,-3 v -2 z"
     id="path4" />
  <path
     sodipodi:nodetypes="ccscccccccccccccccc"
     id="path848"
     d="M 15.099609,5 9,17 h 1.355469 c 0.145104,0 0.274593,-0.03999 0.386719,-0.119141 0.112125,-0.08574 0.193328,-0.184749 0.246093,-0.296875 L 12.257813,14 h 5.259765 L 17.916016,15.634766 20,16.5 16.869141,5 Z m 0.691407,1.6328125 c 0.03298,0.2374429 0.0698,0.4608146 0.109375,0.671875 0.04617,0.2044647 0.08616,0.3866266 0.11914,0.5449219 L 17.273438,13 H 12.75 l 2.537109,-5.140625 c 0.07255,-0.1582953 0.150584,-0.3436271 0.236329,-0.5546875 0.08574,-0.2110604 0.175239,-0.4344321 0.267578,-0.671875 z"
     style="fill:#1e8bcd"
     inkscape:connector-curvature="0" />
</svg>
