<?xml-stylesheet type="text/css" href="icons.css" ?>
<svg viewBox="0 0 24 24" xmlns="http://www.w3.org/2000/svg">
  <path
	 id="ShapeColor-line" 
     d="M 8.4375,2.5 2.5,8.4375 v 7.125 L 8.4375,21.5 h 7.125 L 21.5,15.5625 V 8.4375 L 15.5625,2.5 Z"
	 fill="#fafafa"
	 stroke="#3a3a38" 
	 stroke-linecap="round" 
	 stroke-linejoin="round"
     />
  <path
	 id="ShapeColor-line" 
     d="m 9.068359,2.5 1.78125,4.75 h 2.300782 l 1.78125,-4.75 z m -1.1132809,0.4824219 -4.9726562,4.9726562 4.75,1.78125 2.0039061,-2.0039062 z m 8.0898439,0 -1.78125,4.75 2.003906,2.0039062 4.75,-1.78125 z M 2.5,9.0683594 v 5.8632816 l 4.75,-1.78125 v -2.300782 z m 19,0 -4.75,1.7812496 v 2.300782 l 4.75,1.78125 z m -13.7675781,5.1953126 -4.75,1.78125 4.9726562,4.972656 1.7812499,-4.75 z m 8.5351561,0 -2.003906,2.003906 1.78125,4.75 4.972656,-4.972656 z M 10.849609,16.75 9.068359,21.5 h 5.863282 l -1.78125,-4.75 z"
	 fill="#fafafa"
	 stroke="#3a3a38" 
	 stroke-linecap="round" 
	 stroke-linejoin="round"
     />
</svg>
