<?xml version="1.0" encoding="UTF-8" standalone="no"?>
<svg
   xmlns:dc="http://purl.org/dc/elements/1.1/"
   xmlns:cc="http://creativecommons.org/ns#"
   xmlns:rdf="http://www.w3.org/1999/02/22-rdf-syntax-ns#"
   xmlns:svg="http://www.w3.org/2000/svg"
   xmlns="http://www.w3.org/2000/svg"
   xmlns:sodipodi="http://sodipodi.sourceforge.net/DTD/sodipodi-0.dtd"
   xmlns:inkscape="http://www.inkscape.org/namespaces/inkscape"
   viewBox="0 0 24 24"
   version="1.1"
   id="svg18"
   sodipodi:docname="lc_setselectionlanguagemenu.svg"
   inkscape:version="0.92.5 (2060ec1f9f, 2020-04-08)">
  <metadata
     id="metadata24">
    <rdf:RDF>
      <cc:Work
         rdf:about="">
        <dc:format>image/svg+xml</dc:format>
        <dc:type
           rdf:resource="http://purl.org/dc/dcmitype/StillImage" />
        <dc:title></dc:title>
      </cc:Work>
    </rdf:RDF>
  </metadata>
  <defs
     id="defs22" />
  <sodipodi:namedview
     pagecolor="#ffffff"
     bordercolor="#666666"
     borderopacity="1"
     objecttolerance="10"
     gridtolerance="10"
     guidetolerance="10"
     inkscape:pageopacity="0"
     inkscape:pageshadow="2"
     inkscape:window-width="1366"
     inkscape:window-height="700"
     id="namedview20"
     showgrid="true"
     inkscape:zoom="13.906433"
     inkscape:cx="5.0195191"
     inkscape:cy="12.119143"
     inkscape:window-x="0"
     inkscape:window-y="0"
     inkscape:window-maximized="1"
     inkscape:current-layer="svg18">
    <inkscape:grid
       type="xygrid"
       id="grid834" />
  </sodipodi:namedview>
  <path
     style="opacity:1;fill:#3a3a38;fill-opacity:1;stroke:none;stroke-width:1;stroke-linecap:round;stroke-linejoin:round;stroke-miterlimit:4;stroke-dasharray:none;stroke-opacity:0.50196078"
     d="M 0,0 H 16 V 13 H 0 Z"
     id="rect836" />
  <path
     d="m10 18-.9999999 1 3.9999999 4 10-10-1-1-9 9z"
     fill="#18ab50"
     id="path2" />
  <path
     style="fill:#fafafa;stroke-width:0.39735201"
     inkscape:connector-curvature="0"
     id="path4"
     d="m 6.2889088,12.029355 q -0.2017801,0 -0.310431,-0.06209 -0.1086508,-0.06209 -0.1474546,-0.256106 l -0.1707371,-0.70623 q -0.2949094,0.271627 -0.582058,0.488929 -0.2793878,0.209541 -0.5898187,0.356995 -0.310431,0.147455 -0.6674266,0.217302 -0.3569955,0.07761 -0.7838381,0.07761 -0.4423641,0 -0.8304027,-0.116412 Q 1.8264641,11.905183 1.5315547,11.656838 1.2444061,11.400732 1.073669,11.028215 0.91069281,10.647937 0.91069281,10.135726 q 0,-0.4501245 0.24058399,-0.8614455 Q 1.3996215,8.8551987 1.9506364,8.5292462 2.5016514,8.2032938 3.3863795,8.0015136 4.2711077,7.7919728 5.5593961,7.7609297 v -0.582058 q 0,-0.8847282 -0.3802779,-1.3270923 -0.3725171,-0.4501248 -1.0942691,-0.4501248 -0.4811679,0 -0.8148812,0.1241723 Q 2.9440154,5.6499993 2.7034315,5.797454 2.4628475,5.9449087 2.2843497,6.0690811 2.1136127,6.1932534 1.9351149,6.1932534 q -0.1396939,0 -0.240584,-0.069847 -0.10089,-0.069847 -0.1629762,-0.1784978 L 1.2832099,5.5103054 Q 1.9118326,4.9049651 2.6335845,4.6100557 3.3630972,4.3073855 4.2478254,4.3073855 q 0.6363834,0 1.1330729,0.2095409 0.4966895,0.2017801 0.8304027,0.582058 0.3337133,0.3802779 0.5044503,0.9080105 0.1784978,0.5277326 0.1784978,1.1718768 V 12.029355 Z M 3.4484657,11.191192 q 0.341474,0 0.6286227,-0.06985 0.2871486,-0.06985 0.5432541,-0.19402 0.2561055,-0.131933 0.481168,-0.318191 0.2328232,-0.19402 0.4578856,-0.426843 V 8.6146147 Q 4.6513856,8.6534186 4.0150022,8.7698302 3.3786188,8.878481 2.9750585,9.0647396 2.5792591,9.2509982 2.4007613,9.5071037 2.2222635,9.7554484 2.2222635,10.065879 q 0,0.29491 0.093129,0.512211 0.10089,0.209541 0.2638663,0.349235 0.1629762,0.131933 0.3880387,0.20178 0.2250624,0.06209 0.4811679,0.06209 z" />
  <path
     style="fill:#fafafa;stroke-width:0.39735201"
     inkscape:connector-curvature="0"
     id="path6"
     d="M 8.9818971,12.029355 V 0.99353526 H 10.347793 V 5.5180662 q 0.465647,-0.551015 1.063226,-0.8692067 0.59758,-0.3259524 1.373657,-0.3259524 0.659666,0 1.187398,0.2561055 0.527733,0.2561055 0.90025,0.7372734 0.372517,0.481168 0.566537,1.1718768 0.20178,0.6829481 0.20178,1.5521547 0,0.9235321 -0.225063,1.6763271 -0.225062,0.7527954 -0.644144,1.2960494 -0.419082,0.535493 -1.016661,0.830402 -0.59758,0.29491 -1.342614,0.29491 -0.745034,0 -1.249485,-0.279388 -0.496689,-0.287149 -0.884728,-0.791599 l -0.07761,0.675187 q -0.03104,0.287149 -0.3337137,0.287149 z M 12.32679,5.4016546 q -0.628622,0 -1.10979,0.2949093 -0.473407,0.2949094 -0.869207,0.8381636 v 3.6630855 q 0.356996,0.488928 0.783838,0.690708 0.426843,0.19402 0.939054,0.19402 1.047704,0 1.60648,-0.752795 0.558776,-0.7527953 0.558776,-2.2428638 0,-1.3814177 -0.49669,-2.0333227 Q 13.242562,5.4016546 12.32679,5.4016546 Z" />
  <path
     style="fill:#3a3a38;stroke-width:0.39735201"
     inkscape:connector-curvature="0"
     id="path8"
     d="m 22.182973,5.8052148 q -0.06209,0.085369 -0.124173,0.1319331 -0.05433,0.038804 -0.162976,0.038804 -0.116412,0 -0.240584,-0.093129 -0.124172,-0.093129 -0.310431,-0.2017801 -0.186258,-0.1164116 -0.457886,-0.2095409 -0.263866,-0.093129 -0.651904,-0.093129 -0.512212,0 -0.908011,0.2017801 -0.388039,0.1940194 -0.651905,0.5665365 -0.256105,0.3647564 -0.395799,0.8924889 -0.131934,0.5277326 -0.131934,1.1873984 0,0.682948 0.139694,1.2184414 0.147455,0.5277326 0.411321,0.8924888 0.263867,0.364757 0.636384,0.558776 0.372517,0.186259 0.838163,0.186259 0.450125,0 0.737274,-0.116412 0.287148,-0.116412 0.481168,-0.256105 0.194019,-0.139694 0.318191,-0.256106 0.131934,-0.116412 0.271628,-0.116412 0.155215,0 0.248344,0.131934 l 0.3958,0.496689 q -0.248345,0.30267 -0.551015,0.527733 -0.30267,0.217301 -0.651905,0.364756 -0.349235,0.139694 -0.729513,0.209541 -0.372517,0.06985 -0.760556,0.06985 -0.667426,0 -1.249484,-0.263866 -0.582058,-0.263867 -1.016661,-0.760556 -0.426843,-0.50445 -0.675188,-1.2262027 -0.240584,-0.7295127 -0.240584,-1.6608055 0,-0.8459243 0.225063,-1.5599155 0.225062,-0.7217519 0.651905,-1.2417237 0.434603,-0.5199718 1.063226,-0.8071205 0.636383,-0.2949093 1.459025,-0.2949093 0.776077,0 1.358135,0.2638662 0.582058,0.2561056 1.032183,0.721752 z" />
  <g
     fill="#ed3d3b"
     id="g16">
    <path
       d="m6.3320312 13-.3984374.435547-1.9277344 1.927734-1.9277344-1.927734a.58187636.58187636 0 1 0 -.8007812.800781l2.328125 2.328125.4003906.435547.4003906-.435547 1.9257812-1.927734 1.9277344 1.927734.0996094.107422c.0789907-.113867.1679811-.223017.2714844-.324219.3624751-.354358.8047597-.552781 1.2597656-.613281l1.097656-1.097656 1.925781 1.927734.400391.435547.400391-.435547 1.927734-1.927734.597656.599609.75586-.845703-.955078-.955078-.398438-.435547-.40039.435547-1.927735 1.927734-1.927734-1.927734-.398438-.435547-.40039.435547-1.9277348 1.927734-1.9277343-1.927734z"
       id="path12" />
    <path
       d="m6.3320312 13-.3984374.435547-1.9277344 1.927734-1.9277344-1.927734-.8007812.800781 2.328125 2.328125.4003906.435547.4003906-.435547 1.9257812-1.927734 2.1679688 2.363281 2.488281-2.363281 1.925781 1.927734.400391.435547.400391-.435547 1.927734-1.927734.597656.599609.75586-.845703-.955078-.955078-.398438-.435547-.40039.435547-1.927735 1.927734-1.927734-1.927734-.398438-.435547-.40039.435547-1.9277348 1.927734-1.9277343-1.927734z"
       id="path14" />
  </g>
</svg>
