<?xml-stylesheet type="text/css" href="icons.css" ?>
<svg viewBox="0 0 24 24" xmlns="http://www.w3.org/2000/svg">
  <g id="background"
     class="icn icn--area-color"
     fill="#fafafa"
     stroke="#3a3a38"
     stroke-linecap="round"
     stroke-linejoin="round"
     >
      <path d="m 2.5,13.5 h 20 v 8 h -20 z" />
      <path d="m 2.5,2.5 h 20 v 7 h -20 z" />
  </g>
  <g 
     class="icn icn--secondary-line-color"
     fill="#797774"
     stroke="#797774"
     stroke-linecap="round"
     stroke-linejoin="round"
     >
      <path d="m 2.5,5.5 h 20 z M 2.5,17.5 h 20 z" />
      <path d="M 8.5,2.5 V 9.5 Z m 7,0 V 9.5 Z" />
      <path d="m 8.5,13.5 v 8 z m 7,0 v 8 z" />
      <path d="m 8.5,13.5 v 8 z m 7,0 v 8 z" />
  </g>
  <g id="symbol-background"
     class="icn icn--background"
     stroke="#fff" 
     stroke-width="3px"
	 stroke-linecap="round" 
	 stroke-linejoin="round"
      >
      <path d="m 12,16.5 v 6" />
      <path d="m 16,18.5 -4,4 -4,-4" />
      <path d="m 16,5.5 -4,-4 -4,4" />
      <path d="m 12,7.5 v -6" />
  </g>
  <g id="symbol"
     class="icn icn--negative-color-line"
     fill="none" 
     stroke="#da4453" 
	 stroke-linecap="round" 
	 stroke-linejoin="round"
      >
      <path d="m 2.5,9.5 h 20" />
      <path d="m 2.5,13.5 h 20" />
      <path d="m 12,16.5 v 6" />
      <path d="m 16,18.5 -4,4 -4,-4" />
      <path d="m 16,5.5 -4,-4 -4,4" />
      <path d="m 12,7.5 v -6" />
  </g>
</svg>
