<?xml version="1.0" encoding="UTF-8" standalone="no"?>
<svg
   xmlns:dc="http://purl.org/dc/elements/1.1/"
   xmlns:cc="http://creativecommons.org/ns#"
   xmlns:rdf="http://www.w3.org/1999/02/22-rdf-syntax-ns#"
   xmlns:svg="http://www.w3.org/2000/svg"
   xmlns="http://www.w3.org/2000/svg"
   xmlns:sodipodi="http://sodipodi.sourceforge.net/DTD/sodipodi-0.dtd"
   xmlns:inkscape="http://www.inkscape.org/namespaces/inkscape"
   viewBox="0 0 24 24"
   version="1.1"
   id="svg8"
   sodipodi:docname="lc_styleapply3fstyle3astring3dheading20126familyname3astring3dparagraphstyles.svg"
   width="24"
   height="24"
   inkscape:version="0.92.5 (2060ec1f9f, 2020-04-08)">
  <metadata
     id="metadata14">
    <rdf:RDF>
      <cc:Work
         rdf:about="">
        <dc:format>image/svg+xml</dc:format>
        <dc:type
           rdf:resource="http://purl.org/dc/dcmitype/StillImage" />
        <dc:title></dc:title>
      </cc:Work>
    </rdf:RDF>
  </metadata>
  <defs
     id="defs12" />
  <sodipodi:namedview
     pagecolor="#ffffff"
     bordercolor="#666666"
     borderopacity="1"
     objecttolerance="10"
     gridtolerance="10"
     guidetolerance="10"
     inkscape:pageopacity="0"
     inkscape:pageshadow="2"
     inkscape:window-width="1366"
     inkscape:window-height="700"
     id="namedview10"
     showgrid="true"
     inkscape:zoom="29.5"
     inkscape:cx="8.5174823"
     inkscape:cy="8.2965881"
     inkscape:window-x="0"
     inkscape:window-y="0"
     inkscape:window-maximized="1"
     inkscape:current-layer="g843">
    <inkscape:grid
       type="xygrid"
       id="grid845" />
  </sodipodi:namedview>
  <g
     id="g843"
     transform="translate(4,-4)">
    <path
       style="fill:none"
       inkscape:connector-curvature="0"
       id="path2"
       d="m 13.214444,15 q 0.610169,0 1.094326,0.179071 0.490788,0.179072 0.829034,0.490789 0.338246,0.305085 0.517318,0.722918 0.185704,0.411201 0.185704,0.882093 0,0.417834 -0.09285,0.736183 -0.08622,0.318349 -0.258659,0.557111 -0.172439,0.238762 -0.424466,0.404569 -0.252026,0.165807 -0.570376,0.271923 Q 16,19.755343 16,21.280767 q 0,0.66986 -0.245394,1.180545 -0.238762,0.504053 -0.649963,0.848931 -0.404569,0.344879 -0.948416,0.517318 Q 13.619013,24 13.022108,24 12.392041,24 11.907885,23.85409 11.430361,23.70818 11.065586,23.41636 10.707443,23.117907 10.442152,22.680177 10.183493,22.242447 9.9977893,21.665439 l 0.7030217,-0.298453 q 0.278555,-0.112749 0.517317,-0.05306 0.245395,0.05306 0.344879,0.258659 0.119381,0.225497 0.252026,0.424466 0.132646,0.192336 0.298453,0.344878 0.172439,0.14591 0.391304,0.23213 0.218865,0.08622 0.504053,0.08622 0.351511,0 0.61017,-0.112748 0.265291,-0.119381 0.43773,-0.305085 0.172439,-0.192336 0.258659,-0.431098 0.08622,-0.238762 0.08622,-0.477524 0,-0.305085 -0.05969,-0.557112 -0.05306,-0.252026 -0.252027,-0.431098 -0.192336,-0.179071 -0.570375,-0.278555 -0.37804,-0.09948 -1.028003,-0.09948 v -1.13412 q 0.543846,-0.0066 0.888725,-0.09948 0.35151,-0.09285 0.550479,-0.258659 0.198968,-0.172439 0.271923,-0.404569 0.07296,-0.232129 0.07296,-0.517317 0,-0.603538 -0.305085,-0.908622 -0.298458,-0.305092 -0.842305,-0.305092 -0.484156,0 -0.809138,0.271923 -0.324981,0.271924 -0.450994,0.66986 -0.106117,0.305085 -0.285188,0.397937 -0.17244,0.09285 -0.497421,0.03979 l -0.842299,-0.14591 q 0.09285,-0.643331 0.35151,-1.120855 0.258659,-0.484156 0.649963,-0.802506 0.391305,-0.324981 0.888726,-0.484156 Q 12.637436,15 13.214444,15 Z" />
    <path
       style="fill:#3a3a38"
       inkscape:connector-curvature="0"
       id="path4"
       d="m 0,8 v 16 h 2 v -7 h 6 v 7 h 2 V 17 15 8 H 8 v 7 H 2 V 8 Z" />
    <path
       style="fill:#1e8bcd"
       inkscape:connector-curvature="0"
       id="path6"
       d="M 14.314449,15 11,17.341797 l 0.960933,0.703125 c 0.02913,0.03609 0.0716,0.07329 0.125,0.109375 0.05825,0.03158 0.122493,0.05288 0.195313,0.06641 0.07282,0.01353 0.151845,0.01353 0.234375,0 0.08252,-0.01354 0.163574,-0.05208 0.246094,-0.115234 L 14.02148,17.09766 C 14.00693,17.323224 14,17.540532 14,17.748051 V 24 h 1 v -9 z"
       sodipodi:nodetypes="ccccscccscccc" />
  </g>
</svg>
