<?xml-stylesheet type="text/css" href="icons.css" ?>
<svg viewBox="0 0 24 24" xmlns="http://www.w3.org/2000/svg">
  <path
     transform="translate(0,-4)"
     d="m 19.1,10.795 c -2.751071,0.0 -3.5,1.6 -4.1,3.605 0.597781,0.165028 1.188077,0.195311 1.8,0.2 0.1,-0.1 0.3,-0.3 0.4,-0.5 0.549405,-1.017922 1.021281,-1.240272 1.7,-1.3 1.167343,0.05359 1.470284,0.613412 1.5,1.6 0.01678,1.285324 -0.904308,2.423153 -1.8,3.375 l -3.4,3.5 c -0.1,0.1 -0.2,0.3 -0.3,0.4 0,0.1 -0.1,0.3 -0.1,0.4 v 0.7 h 8 v -1.3 c 0,-0.2 -0.1,-0.4 -0.2,-0.5 -0.1,-0.1 -0.3,-0.2 -0.5,-0.2 h -2.7 c -0.639248,0.0288 -1.056407,0.177619 -1.5,0.3 l 2.5,-2.6 c 1.335043,-1.303786 2.28948,-2.393082 2.3,-4.23 0.01451,-2.278466 -1.358067,-3.442822 -3.6,-3.45 z"
     style="fill:#1e8bcd"
     />
  <path
     transform="translate(0,-1)"
     style="fill:#3a3a38"
     d="M 4 4 L 4 20 L 6 20 L 6 13 L 12 13 L 12 20 L 14 20 L 14 4 L 12 4 L 12 11 L 6 11 L 6 4 L 4 4 z "
     />
</svg>
