<?xml-stylesheet type="text/css" href="icons.css" ?>
<svg viewBox="0 0 24 24" xmlns="http://www.w3.org/2000/svg">
  <g id="background"
	 class="icn icn--text-color" 
     fill="#3a3a38"
     >
      <path d="M 10.599609,4 4,17 h 1.3554688 c 0.145104,0 0.2745929,-0.03999 0.3867187,-0.119141 0.1121258,-0.08574 0.1933287,-0.184749 0.2460937,-0.296875 L 7.757813,13 h 5.259765 l 0.882637,3.593718 C 13.965943,16.929218 14.275443,17 14.508475,17 H 16 L 12.369141,4 Z M 11.291016,5.6328125 12.773438,12 H 8.25 Z" />
  </g>
  <g id="background"
	 class="icn icn--highlight-color"  
     fill="#83beec" 
     stroke="#1e8bcd" 
	 stroke-linecap="round" 
	 stroke-linejoin="round"
     >
      <path d="m 2.5,19.5 h 15" />
  </g>
  <g id="symbol-background"
     class="icn icn--background"
     stroke="#fff" 
     stroke-width="3px"
	 stroke-linecap="round" 
	 stroke-linejoin="round"
      >
      <path d="m 19.5,10.5 -9,9 3,3 9,-9 z" />
      <path d="m 13.5,16.5 -3,3 3,3 3,-3 z" />
  </g>
  <g id="symbol"
     class="icn icn--negative-color"
     fill="#ff9198" 
     stroke="#da4453" 
	 stroke-linecap="round" 
	 stroke-linejoin="round"
      >
      <path d="m 19.5,10.5 -9,9 3,3 9,-9 z" />
  </g>
  <g id="symbol"
     class="icn icn--negative-color"
     fill="#da4453" 
     stroke="#da4453" 
	 stroke-linecap="round" 
	 stroke-linejoin="round"
      >
      <path d="m 13.5,16.5 -3,3 3,3 3,-3 z" />
  </g>
</svg>
