<?xml version="1.0" encoding="UTF-8" standalone="no"?>
<svg
   xmlns:dc="http://purl.org/dc/elements/1.1/"
   xmlns:cc="http://creativecommons.org/ns#"
   xmlns:rdf="http://www.w3.org/1999/02/22-rdf-syntax-ns#"
   xmlns:svg="http://www.w3.org/2000/svg"
   xmlns="http://www.w3.org/2000/svg"
   xmlns:sodipodi="http://sodipodi.sourceforge.net/DTD/sodipodi-0.dtd"
   xmlns:inkscape="http://www.inkscape.org/namespaces/inkscape"
   viewBox="0 0 24 24"
   version="1.1"
   id="svg14"
   sodipodi:docname="lc_tableautofitmenu.svg"
   inkscape:version="0.92.5 (2060ec1f9f, 2020-04-08)">
  <metadata
     id="metadata20">
    <rdf:RDF>
      <cc:Work
         rdf:about="">
        <dc:format>image/svg+xml</dc:format>
        <dc:type
           rdf:resource="http://purl.org/dc/dcmitype/StillImage" />
        <dc:title></dc:title>
      </cc:Work>
    </rdf:RDF>
  </metadata>
  <defs
     id="defs18" />
  <sodipodi:namedview
     pagecolor="#ffffff"
     bordercolor="#666666"
     borderopacity="1"
     objecttolerance="10"
     gridtolerance="10"
     guidetolerance="10"
     inkscape:pageopacity="0"
     inkscape:pageshadow="2"
     inkscape:window-width="1366"
     inkscape:window-height="700"
     id="namedview16"
     showgrid="true"
     inkscape:pagecheckerboard="true"
     inkscape:zoom="19.666667"
     inkscape:cx="4.1409237"
     inkscape:cy="14.130906"
     inkscape:window-x="0"
     inkscape:window-y="0"
     inkscape:window-maximized="1"
     inkscape:current-layer="svg14">
    <inkscape:grid
       type="xygrid"
       id="grid827" />
  </sodipodi:namedview>
  <path
     d="m 9,3 v 18 h 5 V 3 Z"
     id="path2"
     inkscape:connector-curvature="0"
     style="fill:#fafafa"
     sodipodi:nodetypes="ccccc" />
  <path
     d="m8 2v1 3 15 1h1 6v-1-3-1-3-1-3-1-3-4h-6zm1 1h5v2 1 3 1 3 1 3 1 3h-5v-3-1-3-1-3-1-3-1z"
     fill="#3a3a38"
     id="path4" />
  <g
     fill="#1e8bcd"
     fill-rule="evenodd"
     id="g10">
    <path
       d="m17.501947 12.990234c.12976.0036.253031.05754.34375.150391l3.957031 3.957031c.260944.199523.261914.592163.002.792969l-.0059.0039-3.953125 3.953125c-.471254.490833-1.197864-.235777-.707031-.707031l3.146485-3.146484h-4.285157v-1h4.285157l-3.146485-3.146485c-.325269-.318004-.09144-.869893.363275-.857416z"
       id="path6" />
    <path
       d="m5.4971046 12.990234c-.12976.0036-.253031.05754-.34375.150391l-3.9570313 3.957031c-.26094396.199523-.26191396.592163-.002.792969l.0059.0039 3.9531253 3.953125c.471254.490833 1.197864-.235777.707031-.707031l-3.1464853-3.146484h4.2851573v-1h-4.2851573l3.1464853-3.146485c.325269-.318004.09144-.869893-.363275-.857416z"
       id="path8" />
  </g>
  <path
     d="m9 5v1h5v-1zm0 4v1h5v-1zm0 4v1h5v-1zm0 4v1h5v-1z"
     fill="#797774"
     id="path12" />
</svg>
