<svg viewBox="0 0 24 24" xmlns="http://www.w3.org/2000/svg"><path d="m3 6v15h10.037109c-1.227746-.913397-2.037109-2.361461-2.037109-4 0-.360311.133683-.678351.207031-1.017578-.607844.581165-1.150278 1.23346-1.5234372 2.021484-.2731201.578744-1.0119983.755619-1.5175782.363282-.4483351-.347516-.7934119-.821048-.9863281-1.365235-.0948456-.268555-.0706903-.564809.0664063-.814453 1.7534129-3.19305 5.1091382-5.1827 8.7519532-5.1875h.001953c1.788448.000515 3.504781.484635 5 1.349609v-6.349609zm17.810547 9.996094c.069839.33454.190653.652178.189453 1.005859v-.796875c-.065888-.067117-.121824-.143729-.189453-.208984zm.189453 1.007812c-.001294 1.635938-.809659 3.083306-2.035156 3.996094h2.035156z" fill="#fafafa"/><path d="m3 2c-.554 0-1 .446-1 1v18c0 .554.446 1 1 1h13c-1.11104 0-2.130396-.380655-2.962891-1h-10.037109v-15h18v6.349609c.347076.200781.679057.426724 1 .667969v-10.017578c0-.554-.446-1-1-1zm13 20h5c.554 0 1-.446 1-1v-3.570312c-.282603-.451985-.631312-.849045-1-1.22461v.796875.001953 3.996094h-2.035156c-.832884.620357-1.852818 1-2.964844 1z" fill="#3a3a38"/><path d="m15.999953 12c-3.280109.0043-6.298117 1.792832-7.876953 4.667969.128945.363734.357439.676587.65625.908203 1.321789-2.791309 4.132254-4.572462 7.220703-4.576172-2.209139 0-4 1.790861-4 4s1.790861 4 4 4 4-1.790861 4-4c.008-2.079511-1.578821-3.81826-3.650391-4 2.961312.134551 5.605464 1.895565 6.871094 4.576172.301515-.233711.531909-.55005.660156-.917969-1.582074-2.87259-4.601418-4.657258-7.880859-4.658203zm0 2c1.656854 0 3 1.343146 3 3s-1.343146 3-3 3-3-1.343146-3-3 1.343146-3 3-3z" fill="#3a3a38"/><path d="m15.999953 15c-1.104569 0-2 .895431-2 2s.895431 2 2 2 2-.89543 2-2c.02896-.194894.02896-.392997 0-.587891-.174008.38903-.57545.625034-1 .587891-.552285 0-1-.447715-1-1-.03682-.425027.200049-.826612.589844-1-.195534-.02915-.39431-.02915-.589844 0z" fill="#1e8bcd"/><path d="m3 3h18v2h-18z" fill="#c8c6c4"/></svg>