<svg xmlns="http://www.w3.org/2000/svg" viewBox="0 0 24 24">
  <g transform="matrix(1.342859, 0, 0, 1.546583, 38.474636, 8.919449)" style="">
    <path style="fill: rgb(85, 85, 85);" d="M -14.272 -4.467 L -25.153 -4.467 C -26.271 -4.467 -27.18 -3.547 -27.18 -2.415 L -27.18 4.042 C -27.18 5.173 -26.271 6.094 -25.153 6.094 L -16.94 6.094 L -15.23 8.138 C -15.172 8.209 -15.086 8.247 -14.998 8.247 C -14.963 8.247 -14.928 8.24 -14.893 8.228 C -14.774 8.183 -14.694 8.068 -14.694 7.939 L -14.694 6.094 L -14.271 6.094 C -13.154 6.094 -12.245 5.173 -12.245 4.042 L -12.245 -2.415 C -12.245 -3.547 -13.154 -4.467 -14.272 -4.467 Z M -22.052 1.622 C -22.444 1.622 -22.763 1.3 -22.763 0.903 C -22.763 0.505 -22.444 0.184 -22.052 0.184 C -21.659 0.184 -21.341 0.505 -21.341 0.903 C -21.341 1.3 -21.659 1.622 -22.052 1.622 Z M -19.713 1.622 C -20.105 1.622 -20.423 1.3 -20.423 0.903 C -20.423 0.505 -20.105 0.184 -19.713 0.184 C -19.32 0.184 -19.002 0.505 -19.002 0.903 C -19.002 1.3 -19.32 1.622 -19.713 1.622 Z M -17.227 1.622 C -17.62 1.622 -17.938 1.3 -17.938 0.903 C -17.938 0.505 -17.62 0.184 -17.227 0.184 C -16.835 0.184 -16.516 0.505 -16.516 0.903 C -16.516 1.3 -16.835 1.622 -17.227 1.622 Z"></path>
  </g>
</svg>