<?xml version="1.0" encoding="UTF-8" standalone="no"?>
<svg
   xmlns:dc="http://purl.org/dc/elements/1.1/"
   xmlns:cc="http://creativecommons.org/ns#"
   xmlns:rdf="http://www.w3.org/1999/02/22-rdf-syntax-ns#"
   xmlns:svg="http://www.w3.org/2000/svg"
   xmlns="http://www.w3.org/2000/svg"
   xmlns:sodipodi="http://sodipodi.sourceforge.net/DTD/sodipodi-0.dtd"
   xmlns:inkscape="http://www.inkscape.org/namespaces/inkscape"
   viewBox="0 0 24 24"
   version="1.1"
   id="svg26"
   sodipodi:docname="lc_wrappropertypanel.svg"
   inkscape:version="0.92.5 (2060ec1f9f, 2020-04-08)">
  <metadata
     id="metadata32">
    <rdf:RDF>
      <cc:Work
         rdf:about="">
        <dc:format>image/svg+xml</dc:format>
        <dc:type
           rdf:resource="http://purl.org/dc/dcmitype/StillImage" />
        <dc:title></dc:title>
      </cc:Work>
    </rdf:RDF>
  </metadata>
  <defs
     id="defs30" />
  <sodipodi:namedview
     pagecolor="#ffffff"
     bordercolor="#666666"
     borderopacity="1"
     objecttolerance="10"
     gridtolerance="10"
     guidetolerance="10"
     inkscape:pageopacity="0"
     inkscape:pageshadow="2"
     inkscape:window-width="1366"
     inkscape:window-height="700"
     id="namedview28"
     showgrid="false"
     inkscape:zoom="19.666667"
     inkscape:cx="14.922657"
     inkscape:cy="11.749846"
     inkscape:window-x="0"
     inkscape:window-y="0"
     inkscape:window-maximized="1"
     inkscape:current-layer="g24" />
  <g
     transform="translate(24)"
     id="g24">
    <path
       style="fill:#3a3a38"
       d="M 2.4453125 3 C 2.1981908 3 2 3.1981908 2 3.4453125 L 2 3.5546875 C 2 3.8018092 2.1981908 4 2.4453125 4 L 21.554688 4 C 21.801808 4 22 3.8018092 22 3.5546875 L 22 3.4453125 C 22 3.1981908 21.801808 3 21.554688 3 L 2.4453125 3 z M 2.4453125 6 C 2.1981908 6 2 6.1981908 2 6.4453125 L 2 6.5546875 C 2 6.8018092 2.1981908 7 2.4453125 7 L 21.554688 7 C 21.801808 7 22 6.8018092 22 6.5546875 L 22 6.4453125 C 22 6.1981908 21.801808 6 21.554688 6 L 2.4453125 6 z M 14.419922 9 C 14.187739 9 14 9.1877394 14 9.4199219 L 14 9.5800781 C 14 9.8122606 14.187739 10 14.419922 10 L 21.580078 10 C 21.812261 10 22 9.8122606 22 9.5800781 L 22 9.4199219 C 22 9.1877394 21.812261 9 21.580078 9 L 14.419922 9 z M 14.445312 12 C 14.198192 12 14 12.198192 14 12.445312 L 14 12.554688 C 14 12.801808 14.198192 13 14.445312 13 L 14.519531 13 A 1.0001 1.0001 0 0 1 15.726562 12.925781 L 15.837891 13 L 15.980469 13 L 16.019531 12.802734 A 1.0001 1.0001 0 0 1 17 12 L 14.445312 12 z M 19 12 A 1.0001 1.0001 0 0 1 19.980469 12.802734 L 20.019531 13 L 20.162109 13 L 20.273438 12.925781 A 1.0001 1.0001 0 0 1 21.478516 13 L 21.554688 13 C 21.801808 13 22 12.801808 22 12.554688 L 22 12.445312 C 22 12.198192 21.801808 12 21.554688 12 L 19 12 z M 2.4101562 18 C 2.1829532 18 2 18.182953 2 18.410156 L 2 18.589844 C 2 18.817047 2.1829531 19 2.4101562 19 L 12 19 L 12 18 L 2.4101562 18 z M 2.4453125 21 C 2.1981908 21 2 21.198192 2 21.445312 L 2 21.554688 C 2 21.801808 2.1981908 22 2.4453125 22 L 13.515625 22 L 13.050781 21.535156 A 1.0001 1.0001 0 0 1 12.773438 21 L 2.4453125 21 z "
       transform="translate(-24)"
       id="rect2" />
    <g
       transform="scale(-1 1)"
       id="g22">
      <path
         d="m12 8h10v9h-10z"
         id="path18"
         fill="#0063b1" />
      <path
         d="m13 9h8v7h-8z"
         id="path20"
         fill="#83beec" />
    </g>
  </g>
  <path
     inkscape:connector-curvature="0"
     style="opacity:1;fill:#1e8bcd;fill-opacity:1;stroke:none;stroke-width:3;stroke-linecap:round;stroke-linejoin:round;stroke-miterlimit:4;stroke-dasharray:none;stroke-dashoffset:0;stroke-opacity:1;paint-order:normal"
     d="m 17,13 -0.349609,1.744141 -1.478516,-0.986329 -0.707031,0.707032 -0.707032,0.707031 0.986329,1.478516 L 13,17 v 1 1 l 1.744141,0.349609 -0.986329,1.478516 0.707032,0.707031 0.707031,0.707032 1.478516,-0.986329 L 17,23 h 1 1 l 0.349609,-1.744141 1.478516,0.986329 0.707031,-0.707032 0.707032,-0.707031 L 21.255859,19.349609 23,19 V 18 17 L 21.255859,16.650391 22.242188,15.171875 21.535156,14.464844 20.828125,13.757812 19.349609,14.744141 19,13 h -1 z m 0.800781,1 h 0.398438 L 18.5,15.5 h 0.535156 L 19.414062,15.878906 20.6875,15.03125 20.96875,15.3125 20.121094,16.585938 20.5,16.964844 V 17.5 l 1.5,0.300781 v 0.398438 L 20.5,18.5 v 0.535156 L 20.121094,19.414062 20.96875,20.6875 20.6875,20.96875 19.414062,20.121094 19.035156,20.5 H 18.5 L 18.199219,22 H 17.800781 L 17.5,20.5 H 16.964844 L 16.585938,20.121094 15.3125,20.96875 15.03125,20.6875 15.878906,19.414062 15.5,19.035156 V 18.5 L 14,18.199219 V 17.800781 L 15.5,17.5 V 16.964844 L 15.878906,16.585938 15.03125,15.3125 15.3125,15.03125 16.585938,15.878906 16.964844,15.5 H 17.5 Z M 18,16 a 2,2 0 0 0 -2,2 2,2 0 0 0 2,2 2,2 0 0 0 2,-2 2,2 0 0 0 -2,-2 z m 0,1 a 1,1 0 0 1 1,1 1,1 0 0 1 -1,1 1,1 0 0 1 -1,-1 1,1 0 0 1 1,-1 z"
     id="path1470" />
  <path
     id="path1537"
     d="m 17.800781,14 h 0.398438 L 18.5,15.5 h 0.535156 L 19.414062,15.878906 20.6875,15.03125 20.96875,15.3125 20.121094,16.585938 20.5,16.964844 V 17.5 l 1.5,0.300781 v 0.398438 L 20.5,18.5 v 0.535156 L 20.121094,19.414062 20.96875,20.6875 20.6875,20.96875 19.414062,20.121094 19.035156,20.5 H 18.5 L 18.199219,22 H 17.800781 L 17.5,20.5 H 16.964844 L 16.585938,20.121094 15.3125,20.96875 15.03125,20.6875 15.878906,19.414062 15.5,19.035156 V 18.5 L 14,18.199219 V 17.800781 L 15.5,17.5 V 16.964844 L 15.878906,16.585938 15.03125,15.3125 15.3125,15.03125 16.585938,15.878906 16.964844,15.5 H 17.5 Z M 18,16 c -1.104569,0 -2,0.895431 -2,2 0,1.104569 0.895431,2 2,2 1.104569,0 2,-0.895431 2,-2 0,-1.104569 -0.895431,-2 -2,-2 z"
     style="opacity:1;fill:#fafafa;fill-opacity:1;stroke:none;stroke-width:3;stroke-linecap:round;stroke-linejoin:round;stroke-miterlimit:4;stroke-dasharray:none;stroke-dashoffset:0;stroke-opacity:1;paint-order:normal"
     inkscape:connector-curvature="0"
     sodipodi:nodetypes="cccccccccccccccccccccccccccccccccccccccccsssss" />
</svg>
