<svg viewBox="0 0 24 24" xmlns="http://www.w3.org/2000/svg"><path d="m2.4453125 3c-.2471217 0-.4453125.1981908-.4453125.4453125v.109375c0 .2471217.1981908.4453125.4453125.4453125h19.1093755c.24712 0 .445312-.1981908.445312-.4453125v-.109375c0-.2471217-.198192-.4453125-.445312-.4453125zm0 3c-.2471217 0-.4453125.1981908-.4453125.4453125v.109375c0 .2471217.1981908.4453125.4453125.4453125h19.1093755c.24712 0 .445312-.1981908.445312-.4453125v-.109375c0-.2471217-.198192-.4453125-.445312-.4453125zm11.9746095 3c-.232183 0-.419922.1877394-.419922.4199219v.1601562c0 .2321825.187739.4199219.419922.4199219h7.160156c.232183 0 .419922-.1877394.419922-.4199219v-.1601562c0-.2321825-.187739-.4199219-.419922-.4199219zm.02539 3c-.24712 0-.445312.198192-.445312.445312v.109376c0 .24712.198192.445312.445312.445312h.074219a1.0001 1.0001 0 0 1 1.207031-.074219l.111329.074219h.142578l.039062-.197266a1.0001 1.0001 0 0 1 .980469-.802734zm4.554688 0a1.0001 1.0001 0 0 1 .980469.802734l.039062.197266h.142578l.111329-.074219a1.0001 1.0001 0 0 1 1.205078.074219h.076172c.24712 0 .445312-.198192.445312-.445312v-.109376c0-.24712-.198192-.445312-.445312-.445312zm-16.5898438 6c-.227203 0-.4101562.182953-.4101562.410156v.179688c0 .227203.1829531.410156.4101562.410156h9.5898438v-1zm.0351563 3c-.2471217 0-.4453125.198192-.4453125.445312v.109376c0 .24712.1981908.445312.4453125.445312h11.0703125l-.464844-.464844a1.0001 1.0001 0 0 1 -.277343-.535156z" fill="#3a3a38"/><g transform="matrix(-1 0 0 1 24 0)"><path d="m12 8h10v9h-10z" fill="#0063b1"/><path d="m13 9h8v7h-8z" fill="#83beec"/></g><path d="m17 13-.349609 1.744141-1.478516-.986329-.707031.707032-.707032.707031.986329 1.478516-1.744141.349609v1 1l1.744141.349609-.986329 1.478516.707032.707031.707031.707032 1.478516-.986329.349609 1.744141h1 1l.349609-1.744141 1.478516.986329.707031-.707032.707032-.707031-.986329-1.478516 1.744141-.349609v-1-1l-1.744141-.349609.986329-1.478516-.707032-.707031-.707031-.707032-1.478516.986329-.349609-1.744141h-1zm.800781 1h.398438l.300781 1.5h.535156l.378906.378906 1.273438-.847656.28125.28125-.847656 1.273438.378906.378906v.535156l1.5.300781v.398438l-1.5.300781v.535156l-.378906.378906.847656 1.273438-.28125.28125-1.273438-.847656-.378906.378906h-.535156l-.300781 1.5h-.398438l-.300781-1.5h-.535156l-.378906-.378906-1.273438.847656-.28125-.28125.847656-1.273438-.378906-.378906v-.535156l-1.5-.300781v-.398438l1.5-.300781v-.535156l.378906-.378906-.847656-1.273438.28125-.28125 1.273438.847656.378906-.378906h.535156zm.199219 2a2 2 0 0 0 -2 2 2 2 0 0 0 2 2 2 2 0 0 0 2-2 2 2 0 0 0 -2-2zm0 1a1 1 0 0 1 1 1 1 1 0 0 1 -1 1 1 1 0 0 1 -1-1 1 1 0 0 1 1-1z" fill="#1e8bcd"/><path d="m17.800781 14h.398438l.300781 1.5h.535156l.378906.378906 1.273438-.847656.28125.28125-.847656 1.273438.378906.378906v.535156l1.5.300781v.398438l-1.5.300781v.535156l-.378906.378906.847656 1.273438-.28125.28125-1.273438-.847656-.378906.378906h-.535156l-.300781 1.5h-.398438l-.300781-1.5h-.535156l-.378906-.378906-1.273438.847656-.28125-.28125.847656-1.273438-.378906-.378906v-.535156l-1.5-.300781v-.398438l1.5-.300781v-.535156l.378906-.378906-.847656-1.273438.28125-.28125 1.273438.847656.378906-.378906h.535156zm.199219 2c-1.104569 0-2 .895431-2 2s.895431 2 2 2 2-.895431 2-2-.895431-2-2-2z" fill="#fafafa"/></svg>