<svg height="24" viewBox="0 0 24 24" width="24" xmlns="http://www.w3.org/2000/svg"><g transform="translate(1 -1029.3622)"><path d="m4 4v1h16v-1zm0 2v1h9v-1zm0 4v1h10v-1zm0 2v1h4v-1zm0 4v1h10v-1zm0 2v1h7v-1zm8 1v1h2v-1z" fill="#4d4d4d" transform="translate(-1 1029.3622)"/><path d="m11 1042.3622v1h4 .5c1.385 0 2.5 1.115 2.5 2.5 0 .8187-.395507 1.5351-1 1.9902v-1.4902h-1v1.9492.051.9512.049h1 2v-1h-1.076172c.65797-.6319 1.076172-1.5097 1.076172-2.5 0-1.939-1.561-3.5-3.5-3.5h-4.5z" fill="#1d99f3"/></g></svg>