<svg version="1.1" viewBox="0 0 24 24" xmlns="http://www.w3.org/2000/svg">
 <rect x="14.153" y="3" width="7.8474" height="1" ry=".44607" fill="#4d82b8" stroke-width=".62639"/>
 <g fill="#808080">
  <rect x="2" y="21" width="20" height="1" ry=".44607"/>
  <rect x="2" y="18" width="20" height="1" ry=".44607"/>
 </g>
 <path d="m6.0201 3c-0.025732 0-0.049852 0.00598-0.075458 0.00653a3.9823 3.9823 0 0 0-0.59847 0.052052c-0.00473 7.997e-4 -0.00956 0.00177-0.014308 0.00255a3.9823 3.9823 0 0 0-3.3319 3.9265 3.9823 3.9823 0 0 0 1.906 3.3917c0.047967 0.03013 0.095101 0.06035 0.14441 0.08847a3.9823 3.9823 0 0 0 0.42153 0.20166c0.10916 0.04623 0.22048 0.08577 0.33436 0.1223 0.38422 0.12322 0.78845 0.20166 1.2138 0.20166v5.329h1.3322v-11.99h1.3322v11.99h1.3322v-11.99l2.6645-0.66612v-0.66612z" fill="#4d82b8" stroke-width=".66612"/>
</svg>
