<?xml-stylesheet type="text/css" href="icons.css" ?>
<svg viewBox="0 0 24 24" xmlns="http://www.w3.org/2000/svg">
  <g id="background"
	 class="icn icn--text-color" 
     fill="#3a3a38"
     >
      <path d="m 6.3,12 q -0.2,0 -0.310431,-0 -0.1,-0.06209 -0.1474546,-0.3 l -0.1707371,-0.7 q -0.3,0.3 -0.6,0.5 -0.3,0.2 -0.5898187,0.356995 -0.310431,0.147455 -0.6674266,0.217302 -0.3569955,0.07761 -0.7838381,0.07761 -0.4423641,0 -0.8304027,-0.116412 Q 1.8264641,11.905183 1.5315547,11.656838 1.2444061,11.400732 1.073669,11.028215 0.91069281,10.647937 0.91069281,10.135726 q 0,-0.4501245 0.24058399,-0.8614455 Q 1.3996215,8.8551987 1.9506364,8.5292462 2.5016514,8.2032938 3.3863795,8.0015136 4.2711077,7.7919728 5.5593961,7.8 V 7.2 q 0,-0.8847282 -0.3802779,-1.3270923 -0.3725171,-0.4501248 -1.0942691,-0.4501248 -0.4811679,0 -0.8148812,0.1241723 Q 2.9440154,5.6 2.7034315,5.797454 2.4628475,5.9449087 2.2843497,6.0690811 2.1136127,6.1932534 1.9351149,6.1932534 q -0.1396939,0 -0.240584,-0.1 -0.1,-0.1 -0.2,-0.1784978 L 1.2832099,5.5103054 Q 1.9118326,4.9 2.6,4.6 3.4,4.3 4.2478254,4.3 q 0.6,0 1.1330729,0.2095409 0.4966895,0.2 0.8304027,0.6 0.3337133,0.3802779 0.5044503,0.9080105 0.1784978,0.5277326 0.1784978,1.1718768 V 12.029355 Z M 3.4484657,11.191192 q 0.341474,0 0.6286227,-0.06985 0.2871486,-0.06985 0.5432541,-0.19402 0.2561055,-0.131933 0.481168,-0.318191 0.2328232,-0.19402 0.4578856,-0.426843 V 8.6146147 Q 4.6513856,8.6534186 4.0150022,8.7698302 3.3786188,8.878481 2.9750585,9.0647396 2.5792591,9.2509982 2.4007613,9.5071037 2.2222635,9.7554484 2.2222635,10.065879 q 0,0.29491 0.093129,0.512211 0.1,0.2 0.2638663,0.349235 0.2,0.131933 0.3880387,0.20178 0.2250624,0.06209 0.4811679,0.06209 z" />
      <path d="M 8.9818971,12.029355 V 0.99353526 H 10.347793 V 5.5180662 q 0.465647,-0.551015 1.063226,-0.8692067 0.59758,-0.3259524 1.373657,-0.3259524 0.659666,0 1.187398,0.2561055 0.527733,0.2561055 0.90025,0.7372734 0.372517,0.481168 0.566537,1.1718768 0.20178,0.6829481 0.20178,1.5521547 0,0.9235321 -0.225063,1.6763271 -0.225062,0.7527954 -0.6,1.3000004 -0.4,0.5 -1,0.8 -0.59758,0.29491 -1.342614,0.29491 -0.745034,0 -1.249485,-0.279388 -0.496689,-0.287149 -0.884728,-0.791599 l -0.07761,0.675187 q -0.03104,0.287149 -0.3337137,0.287149 z M 12.32679,5.4016546 q -0.628622,0 -1.10979,0.2949093 -0.473407,0.2949094 -0.869207,0.8381636 v 3.6630855 q 0.356996,0.488928 0.783838,0.690708 0.426843,0.19402 0.939054,0.19402 1.047704,0 1.60648,-0.752795 0.558776,-0.7527953 0.558776,-2.2428638 0,-1.3814177 -0.49669,-2.0333227 Q 13.242562,5.4016546 12.32679,5.4016546 Z" />
      <path d="m 22.182973,5.8052148 q -0.06209,0.085369 -0.124173,0.1319331 -0.05433,0.038804 -0.162976,0.038804 -0.116412,0 -0.240584,-0.093129 -0.124172,-0.093129 -0.310431,-0.2 Q 21.158551,5.5664113 20.886923,5.473282 20.623057,5.380153 20.235019,5.380153 q -0.512212,0 -0.908011,0.2 -0.388039,0.1940194 -0.651905,0.5665365 -0.256105,0.3647564 -0.395799,0.8924889 -0.131934,0.5277326 -0.131934,1.1873984 0,0.682948 0.139694,1.2184414 0.147455,0.5277326 0.411321,0.8924888 0.263867,0.364757 0.636384,0.558776 0.372517,0.186259 0.838163,0.186259 0.450125,0 0.737274,-0.116412 0.287148,-0.116412 0.481168,-0.256105 0.194019,-0.139694 0.318191,-0.3 0.131934,-0.116412 0.271628,-0.116412 0.155215,0 0.248344,0.131934 l 0.3958,0.496689 q -0.248345,0.30267 -0.551015,0.527733 -0.30267,0.217301 -0.651905,0.364756 -0.349235,0.139694 -0.729513,0.209541 -0.372517,0.06985 -0.760556,0.06985 -0.667426,0 -1.249484,-0.263866 -0.6,-0.263867 -1,-0.760556 -0.426843,-0.50445 -0.675188,-1.2262027 -0.240584,-0.7295127 -0.240584,-1.6608055 0,-0.8459243 0.225063,-1.5599155 0.225062,-0.7217519 0.651905,-1.2417237 0.434603,-0.5199718 1.063226,-0.8071205 0.636383,-0.2949093 1.459025,-0.2949093 0.776077,0 1.358135,0.2638662 0.6,0.2561056 1.032183,0.721752 z" />
  </g>
  <g id="symbol-background"
     class="icn icn--area-color"
     fill="#fafafa"
     stroke="#3a3a38"
     stroke-linecap="round"
     stroke-linejoin="round"
      >
      <path d="m 1.5,13.5 h 21 v 10 h -21 z" />
  </g>
  <g id="symbol"
	 class="icn icn--highlight-color"  
     fill="#1e8bcd" 
      >
      <path d="M 6,21 H 7 V 16.3 L 5.8,17.4 C 5.5,17.6 5.2,17.2 5,17 l 2,-2 1,-7.1e-5 V 21 h 1 v 1 H 6 Z" />
      <path d="m 17,15 c 1.4,0 2,1 2,2 C 19,18.5 17,20.3 16.3,21 l 2.2,-0 c 0.1,0 0.2,0.0 0.317,0.114672 0.08315,0.07644 0.126633,0.177226 0.124721,0.302305 L 19,22 H 15 V 21.577811 C 15,21.349657 15.077812,21.152421 15.143818,21 16,19.826858 18,18 18,17 18.038393,16.492232 17.726089,16 17.183477,16 16.515136,16 16.235457,16.503972 16,17 h -1 c 0,-1 1,-2 2,-2 z" />
  </g>
</svg>
