<?xml version="1.0" encoding="UTF-8" standalone="no"?>
<svg
   xmlns:dc="http://purl.org/dc/elements/1.1/"
   xmlns:cc="http://creativecommons.org/ns#"
   xmlns:rdf="http://www.w3.org/1999/02/22-rdf-syntax-ns#"
   xmlns:svg="http://www.w3.org/2000/svg"
   xmlns="http://www.w3.org/2000/svg"
   xmlns:sodipodi="http://sodipodi.sourceforge.net/DTD/sodipodi-0.dtd"
   xmlns:inkscape="http://www.inkscape.org/namespaces/inkscape"
   viewBox="0 0 24 24"
   version="1.1"
   id="svg12"
   sodipodi:docname="lc_wrapanchoronly.svg"
   inkscape:version="0.92.5 (2060ec1f9f, 2020-04-08)">
  <metadata
     id="metadata18">
    <rdf:RDF>
      <cc:Work
         rdf:about="">
        <dc:format>image/svg+xml</dc:format>
        <dc:type
           rdf:resource="http://purl.org/dc/dcmitype/StillImage" />
      </cc:Work>
    </rdf:RDF>
  </metadata>
  <defs
     id="defs16" />
  <sodipodi:namedview
     pagecolor="#ffffff"
     bordercolor="#666666"
     borderopacity="1"
     objecttolerance="10"
     gridtolerance="10"
     guidetolerance="10"
     inkscape:pageopacity="0"
     inkscape:pageshadow="2"
     inkscape:window-width="1366"
     inkscape:window-height="700"
     id="namedview14"
     showgrid="false"
     inkscape:zoom="9.8333333"
     inkscape:cx="0.86440678"
     inkscape:cy="12"
     inkscape:window-x="0"
     inkscape:window-y="0"
     inkscape:window-maximized="1"
     inkscape:current-layer="svg12" />
  <rect
     fill="#4d82b8"
     height="1"
     ry=".44607"
     stroke-width=".62639"
     width="7.8474"
     x="14.153"
     y="3"
     id="rect2"
     style="fill:#1e8bcd" />
  <g
     fill="#808080"
     id="g8">
    <rect
       height="1"
       ry=".44607"
       width="20"
       x="2"
       y="21"
       id="rect4"
       style="fill:#3a3a38" />
    <rect
       height="1"
       ry=".44607"
       width="20"
       x="2"
       y="18"
       id="rect6"
       style="fill:#3a3a38" />
  </g>
  <path
     d="m6.0195312 3c-.025732 0-.048613.00531-.074219.00586-.200914.00243-.4013562.020055-.5996094.052734-.00473.0007995-.00892.00117-.013672.00195-1.9218298.3180873-3.3314849 1.9797617-3.3320308 3.9277372.00269 1.3847676.7245386 2.6687199 1.90625 3.3906248.047967.03013.095222.06172.1445312.08984.1365652.07526.2774328.142432.421875.201172.1091601.04623.2201044.08456.3339844.121094.38422.12322.7875406.203125 1.2128906.203125v5.005863h.9804688v-12h2v12h1.017578v-11.6679688l2.982422-.6660156v-.6660156z"
     fill="#4d82b8"
     id="path10"
     style="fill:#1e8bcd" />
</svg>
