<?xml version="1.0" encoding="UTF-8" standalone="no"?>
<svg
   xmlns:dc="http://purl.org/dc/elements/1.1/"
   xmlns:cc="http://creativecommons.org/ns#"
   xmlns:rdf="http://www.w3.org/1999/02/22-rdf-syntax-ns#"
   xmlns:svg="http://www.w3.org/2000/svg"
   xmlns="http://www.w3.org/2000/svg"
   xmlns:sodipodi="http://sodipodi.sourceforge.net/DTD/sodipodi-0.dtd"
   xmlns:inkscape="http://www.inkscape.org/namespaces/inkscape"
   height="52"
   viewBox="0 0 60 52"
   width="60"
   version="1.1"
   id="svg90"
   sodipodi:docname="netlinepointstack_52x60.svg"
   inkscape:version="0.92.5 (2060ec1f9f, 2020-04-08)">
  <metadata
     id="metadata96">
    <rdf:RDF>
      <cc:Work
         rdf:about="">
        <dc:format>image/svg+xml</dc:format>
        <dc:type
           rdf:resource="http://purl.org/dc/dcmitype/StillImage" />
      </cc:Work>
    </rdf:RDF>
  </metadata>
  <defs
     id="defs94" />
  <sodipodi:namedview
     pagecolor="#ffffff"
     bordercolor="#666666"
     borderopacity="1"
     objecttolerance="10"
     gridtolerance="10"
     guidetolerance="10"
     inkscape:pageopacity="0"
     inkscape:pageshadow="2"
     inkscape:window-width="1366"
     inkscape:window-height="700"
     id="namedview92"
     showgrid="false"
     inkscape:zoom="9.0769231"
     inkscape:cx="22.927485"
     inkscape:cy="32.943686"
     inkscape:window-x="0"
     inkscape:window-y="0"
     inkscape:window-maximized="1"
     inkscape:current-layer="svg90" />
  <path
     d="m0 0h60v52h-60z"
     fill="#fff"
     id="path2"
     style="fill:#fafafa" />
  <path
     d="m19.5 23.5 9.99965-8.9997 14 6.9997-5 17.0003-16-2z"
     fill="none"
     stroke="#eac282"
     id="path4"
     style="stroke:#ed8733" />
  <path
     d="m10.5 18.4997 18.99955-10 19 10-6 24.0003h-25.99955z"
     fill="none"
     stroke="#4d82b8"
     id="path6"
     style="stroke:#1e8bcd" />
  <path
     d="m29 6v22.6328l-19.16797-11.0664-.5.8672 19.16797 11.0664v.293l-15.61719 15.6172.70703.707 15.91016-15.9102 15.91016 15.9102.70703-.707-15.61719-15.6172v-.293l19.16797-11.0664-.5-.8672-19.16797 11.0664v-22.6328z"
     fill="#808080"
     id="path8"
     style="fill:#3a3a38" />
  <g
     fill="#eac282"
     id="g18">
    <path
       d="m19 24h1v1h-1z"
       id="path10"
       style="fill:#ed8733" />
    <path
       d="m20 23h1v1h-1z"
       id="path12"
       style="fill:#ed8733" />
    <path
       d="m19 22h1v1h-1z"
       id="path14"
       style="fill:#ed8733" />
    <path
       d="m18 23h1v1h-1z"
       id="path16"
       style="fill:#ed8733" />
  </g>
  <path
     d="m19 23h1v1h-1z"
     fill="#fff"
     id="path20"
     style="fill:#fafafa" />
  <path
     d="m47 17h3v3h-3z"
     fill="#4d82b8"
     id="path22"
     style="fill:#1e8bcd" />
  <path
     d="m48 18h1v1h-1z"
     fill="#fff"
     id="path24"
     style="fill:#fafafa" />
  <path
     d="m41 41h3v3h-3z"
     fill="#4d82b8"
     id="path26"
     style="fill:#1e8bcd" />
  <path
     d="m42 42h1v1h-1z"
     fill="#fff"
     id="path28"
     style="fill:#fafafa" />
  <path
     d="m15 41h3v3h-3z"
     fill="#4d82b8"
     id="path30"
     style="fill:#1e8bcd" />
  <path
     d="m16 42h1v1h-1z"
     fill="#fff"
     id="path32"
     style="fill:#fafafa" />
  <path
     d="m9 17h3v3h-3z"
     fill="#4d82b8"
     id="path34"
     style="fill:#1e8bcd" />
  <path
     d="m10 18h1v1h-1z"
     fill="#fff"
     id="path36"
     style="fill:#fafafa" />
  <path
     d="m28 7h3v3h-3z"
     fill="#4d82b8"
     id="path38"
     style="fill:#1e8bcd" />
  <path
     d="m29 8h1v1h-1z"
     fill="#fff"
     id="path40"
     style="fill:#fafafa" />
  <g
     fill="#eac282"
     id="g50">
    <path
       d="m29 15h1v1h-1z"
       id="path42"
       style="fill:#ed8733" />
    <path
       d="m30 14h1v1h-1z"
       id="path44"
       style="fill:#ed8733" />
    <path
       d="m29 13h1v1h-1z"
       id="path46"
       style="fill:#ed8733" />
    <path
       d="m28 14h1v1h-1z"
       id="path48"
       style="fill:#ed8733" />
  </g>
  <path
     d="m29 14h1v1h-1z"
     fill="#fff"
     id="path52"
     style="fill:#fafafa" />
  <g
     fill="#eac282"
     id="g62">
    <path
       d="m43 22h1v1h-1z"
       id="path54"
       style="fill:#ed8733" />
    <path
       d="m44 21h1v1h-1z"
       id="path56"
       style="fill:#ed8733" />
    <path
       d="m43 20h1v1h-1z"
       id="path58"
       style="fill:#ed8733" />
    <path
       d="m42 21h1v1h-1z"
       id="path60"
       style="fill:#ed8733" />
  </g>
  <path
     d="m43 21h1v1h-1z"
     fill="#fff"
     id="path64"
     style="fill:#fafafa" />
  <g
     fill="#eac282"
     id="g74">
    <path
       d="m38 39h1v1h-1z"
       id="path66"
       style="fill:#ed8733" />
    <path
       d="m39 38h1v1h-1z"
       id="path68"
       style="fill:#ed8733" />
    <path
       d="m38 37h1v1h-1z"
       id="path70"
       style="fill:#ed8733" />
    <path
       d="m37 38h1v1h-1z"
       id="path72"
       style="fill:#ed8733" />
  </g>
  <path
     d="m38 38h1v1h-1z"
     fill="#fff"
     id="path76"
     style="fill:#fafafa" />
  <g
     fill="#eac282"
     id="g86">
    <path
       d="m22 37h1v1h-1z"
       id="path78"
       style="fill:#ed8733" />
    <path
       d="m23 36h1v1h-1z"
       id="path80"
       style="fill:#ed8733" />
    <path
       d="m22 35h1v1h-1z"
       id="path82"
       style="fill:#ed8733" />
    <path
       d="m21 36h1v1h-1z"
       id="path84"
       style="fill:#ed8733" />
  </g>
  <path
     d="m22 36h1v1h-1z"
     fill="#fff"
     id="path88"
     style="fill:#fafafa" />
</svg>
