<?xml version="1.0" encoding="UTF-8" standalone="no"?>
<svg
   xmlns:dc="http://purl.org/dc/elements/1.1/"
   xmlns:cc="http://creativecommons.org/ns#"
   xmlns:rdf="http://www.w3.org/1999/02/22-rdf-syntax-ns#"
   xmlns:svg="http://www.w3.org/2000/svg"
   xmlns="http://www.w3.org/2000/svg"
   xmlns:sodipodi="http://sodipodi.sourceforge.net/DTD/sodipodi-0.dtd"
   xmlns:inkscape="http://www.inkscape.org/namespaces/inkscape"
   inkscape:version="1.0 (4035a4fb49, 2020-05-01)"
   sodipodi:docname="note.svg"
   id="svg8"
   version="1.1"
   viewBox="0 0 32 32">
  <metadata
     id="metadata14">
    <rdf:RDF>
      <cc:Work
         rdf:about="">
        <dc:format>image/svg+xml</dc:format>
        <dc:type
           rdf:resource="http://purl.org/dc/dcmitype/StillImage" />
      </cc:Work>
    </rdf:RDF>
  </metadata>
  <defs
     id="defs12" />
  <sodipodi:namedview
     inkscape:current-layer="svg8"
     inkscape:window-maximized="0"
     inkscape:window-y="23"
     inkscape:window-x="26"
     inkscape:cy="48.22105"
     inkscape:cx="1.6214117"
     inkscape:zoom="6.600599"
     showgrid="false"
     id="namedview10"
     inkscape:window-height="1016"
     inkscape:window-width="960"
     inkscape:pageshadow="2"
     inkscape:pageopacity="0"
     guidetolerance="10"
     gridtolerance="10"
     objecttolerance="10"
     borderopacity="1"
     bordercolor="#666666"
     pagecolor="#ffffff" />
  <g
     style="stroke:#000000;stroke-opacity:1;fill:#eac282;fill-opacity:1"
     id="g6"
     fill-rule="evenodd">
    <path
       style="stroke:#000000;stroke-opacity:1;fill:#eac282;fill-opacity:1"
       id="path2"
       fill="#3a3a38"
       d="m3.5 3a.50005.50005 0 0 0 -.5.5v19a.50005.50005 0 0 0 .5.5h4.5v5.5a.50005.50005 0 0 0 .8261719.378906l6.8593751-5.878906h12.814453a.50005.50005 0 0 0 .5-.5v-19a.50005.50005 0 0 0 -.5-.5z" />
    <path
       style="stroke:#000000;stroke-opacity:1;fill:#eac282;fill-opacity:1"
       id="path4"
       fill="#fafafa"
       d="m4 4v18h4.5a.50005.50005 0 0 1 .5.5v4.912109l6.173828-5.291015a.50005.50005 0 0 1 .326172-.121094h12.5v-18z" />
  </g>
</svg>
