<svg width="24" height="24" version="1.1" viewBox="0 0 24 24" xmlns="http://www.w3.org/2000/svg" xmlns:cc="http://creativecommons.org/ns#" xmlns:dc="http://purl.org/dc/elements/1.1/" xmlns:rdf="http://www.w3.org/1999/02/22-rdf-syntax-ns#">
 <metadata>
  <rdf:RDF>
   <cc:Work rdf:about="">
    <dc:format>image/svg+xml</dc:format>
    <dc:type rdf:resource="http://purl.org/dc/dcmitype/StillImage"/>
    <dc:title/>
   </cc:Work>
  </rdf:RDF>
 </metadata>/&gt;
 <path d="m9.75 3c-3.7279 0-6.75 3.0221-6.75 6.75s3.0221 6.75 6.75 6.75c1.5946 0 3.0637-0.57542 4.2188-1.5l6 6 1.0312-1.0312-6-6c0.92458-1.155 1.5-2.6242 1.5-4.2188 0-3.7279-3.0221-6.75-6.75-6.75zm0 1.5a5.25 5.25 0 0 1 5.25 5.25 5.25 5.25 0 0 1-5.25 5.25 5.25 5.25 0 0 1-5.25-5.25 5.25 5.25 0 0 1 5.25-5.25z" fill="#4d4d4d" stroke-width="1.5"/>
</svg>
