<svg height="24" viewBox="0 0 24 24" width="24" xmlns="http://www.w3.org/2000/svg"><g fill="#1e8bcd"><path d="m21.994141 12.498047c-.000001-.06645-.01377-.1296-.03711-.1875-.0253-.06278-.06236-.119006-.109375-.166016l-2.99414-2.9999996c-.09793-.097934-.227661-.1464844-.355469-.1464844-.127809 0-.255581.04855-.353516.1464844-.195868.19587-.195868.5131153 0 .7089844l2.142578 2.1445312-13.7949214-.0039c-.277001-.000099-.777001.499723-.5.5v.002h.00586v.002h-.00391v.002h-.00586v.002c-.277.000277.223.500099.5.5l13.7949214-.0039-2.142578 2.144531c-.195868.195869-.195868.513115 0 .708985.09793.09793.225707.146484.353516.146484.127808 0 .257538-.04855.355468-.146484l2.994141-3c.04702-.04701.08407-.103236.109375-.166016.02334-.0579.03711-.12105.03711-.1875z"/><path d="m11.5 2c-.06645.0000004-.1296.013769-.1875.037109-.06278.0253-.119006.06236-.166016.109375l-2.9999996 2.994141c-.097934.09793-.1464844.2276608-.1464844.3554688 0 .127809.04855.2555806.1464844.3535156.19587.195868.5131153.195868.7089844 0l2.1445312-2.1425782-.003906 13.7949218c-.000099.277001.499723.777001.5.5h.002v-.0059h.001906v.003947h.002v.0059h.002c.000277.277.500099-.223.5-.5l-.004-13.7949625 2.144531 2.1425781c.195869.195868.513115.195868.708985 0 .097934-.097935.146484-.2257066.146484-.3535156 0-.127808-.048554-.2575387-.146484-.3554688l-3-2.9941406c-.047013-.047015-.103236-.084075-.166016-.109375-.057904-.02334-.12105-.0371094-.1875-.0371094z"/><path d="m1 12.5c.000001-.06645.01377-.1296.03711-.1875.0253-.06278.06236-.119006.109375-.166016l2.9941395-2.9999996c.09793-.097934.227661-.1464844.355469-.1464844.127809 0 .255581.04855.353516.1464844.195868.19587.195868.5131153 0 .7089844l-2.1425775 2.1445312 13.794921-.0039c.277001-.000099.777001.499723.5.5v.002h-.0059v.002h.0039v.002h.0059v.002c.277001.000277-.222999.500099-.5.5l-13.794921-.0039 2.1425775 2.144531c.195868.195869.195868.513115 0 .708985-.09793.09793-.225707.146484-.353516.146484-.127808 0-.257538-.04855-.355468-.146484l-2.9941405-3c-.04702-.04701-.08407-.103236-.109375-.166016-.02334-.0579-.03711-.12105-.03711-.1875z"/><path d="m11.5 22.08691c-.06645 0-.1296-.01377-.1875-.03711-.06278-.0253-.119006-.06236-.166016-.109375l-2.9999996-2.99414c-.097934-.09793-.1464844-.227661-.1464844-.355469 0-.127809.04855-.25558.1464844-.353515.19587-.195868.5131153-.195868.7089844 0l2.1445312 2.142578-.003906-13.7949219c-.000099-.277001.499723-.777001.5-.5h.002v.0059h.001906v-.00395h.002v-.0059h.002c.000277-.277.500099.223.5.5l-.004 13.7949659 2.144531-2.142578c.195869-.195868.513115-.195868.708985 0 .097934.097935.146484.225706.146484.353515 0 .127808-.04855.257539-.146484.355469l-3 2.994141c-.04701.04701-.103236.08407-.166016.109375-.0579.02334-.12105.03711-.1875.03711z"/></g></svg>