<?xml version="1.0" encoding="UTF-8" standalone="no"?>
<svg
   xmlns:dc="http://purl.org/dc/elements/1.1/"
   xmlns:cc="http://creativecommons.org/ns#"
   xmlns:rdf="http://www.w3.org/1999/02/22-rdf-syntax-ns#"
   xmlns:svg="http://www.w3.org/2000/svg"
   xmlns="http://www.w3.org/2000/svg"
   xmlns:sodipodi="http://sodipodi.sourceforge.net/DTD/sodipodi-0.dtd"
   xmlns:inkscape="http://www.inkscape.org/namespaces/inkscape"
   viewBox="0 0 24 24"
   version="1.1"
   id="svg4"
   sodipodi:docname="table-move-marker.svg"
   width="24"
   height="24"
   inkscape:version="0.92.5 (2060ec1f9f, 2020-04-08)">
  <metadata
     id="metadata10">
    <rdf:RDF>
      <cc:Work
         rdf:about="">
        <dc:format>image/svg+xml</dc:format>
        <dc:type
           rdf:resource="http://purl.org/dc/dcmitype/StillImage" />
        <dc:title></dc:title>
      </cc:Work>
    </rdf:RDF>
  </metadata>
  <defs
     id="defs8" />
  <sodipodi:namedview
     pagecolor="#ffffff"
     bordercolor="#666666"
     borderopacity="1"
     objecttolerance="10"
     gridtolerance="10"
     guidetolerance="10"
     inkscape:pageopacity="0"
     inkscape:pageshadow="2"
     inkscape:window-width="1366"
     inkscape:window-height="700"
     id="namedview6"
     showgrid="true"
     inkscape:zoom="16.857143"
     inkscape:cx="20.107237"
     inkscape:cy="10.649563"
     inkscape:window-x="0"
     inkscape:window-y="0"
     inkscape:window-maximized="1"
     inkscape:current-layer="svg4">
    <inkscape:grid
       type="xygrid"
       id="grid812" />
  </sodipodi:namedview>
  <path
     style="fill:#1e8bcd"
     id="path20"
     d="m 21.994141,12.498047 c -10e-7,-0.06645 -0.01377,-0.1296 -0.03711,-0.1875 -0.0253,-0.06278 -0.06236,-0.119006 -0.109375,-0.166016 L 18.853516,9.1445314 C 18.755586,9.0465974 18.625855,8.998047 18.498047,8.998047 c -0.127809,0 -0.255581,0.04855 -0.353516,0.1464844 -0.195868,0.19587 -0.195868,0.5131153 0,0.7089844 l 2.142578,2.1445312 -13.7949214,-0.0039 c -0.277001,-9.9e-5 -0.777001,0.499723 -0.5,0.5 v 0.002 h 0.00586 v 0.002 h -0.00391 v 0.002 h -0.00586 v 0.002 c -0.277,2.77e-4 0.223,0.500099 0.5,0.5 l 13.7949214,-0.0039 -2.142578,2.144531 c -0.195868,0.195869 -0.195868,0.513115 0,0.708985 0.09793,0.09793 0.225707,0.146484 0.353516,0.146484 0.127808,0 0.257538,-0.04855 0.355468,-0.146484 l 2.994141,-3 c 0.04702,-0.04701 0.08407,-0.103236 0.109375,-0.166016 0.02334,-0.0579 0.03711,-0.12105 0.03711,-0.1875 z"
     inkscape:connector-curvature="0" />
  <path
     style="fill:#1e8bcd"
     id="path22"
     d="m 11.5,2 c -0.06645,4e-7 -0.1296,0.013769 -0.1875,0.037109 -0.06278,0.0253 -0.119006,0.06236 -0.166016,0.109375 L 8.1464844,5.140625 C 8.0485504,5.238555 8,5.3682858 8,5.4960938 c 0,0.127809 0.04855,0.2555806 0.1464844,0.3535156 0.19587,0.195868 0.5131153,0.195868 0.7089844,0 L 11,3.7070312 10.996094,17.501953 c -9.9e-5,0.277001 0.499723,0.777001 0.5,0.5 h 0.002 v -0.0059 H 11.5 V 18 h 0.002 v 0.0059 h 0.002 c 2.77e-4,0.277 0.500099,-0.223 0.5,-0.5 L 12,3.7109375 14.144531,5.8535156 c 0.195869,0.195868 0.513115,0.195868 0.708985,0 C 14.95145,5.7555806 15,5.627809 15,5.5 15,5.372192 14.951446,5.2424613 14.853516,5.1445312 l -3,-2.9941406 C 11.806503,2.1033756 11.75028,2.0663156 11.6875,2.0410156 11.629596,2.0176756 11.56645,2.0039062 11.5,2.0039062 Z"
     inkscape:connector-curvature="0" />
  <path
     style="fill:#1e8bcd"
     id="path24"
     d="m 1,12.5 c 10e-7,-0.06645 0.01377,-0.1296 0.03711,-0.1875 0.0253,-0.06278 0.06236,-0.119006 0.109375,-0.166016 L 4.1406245,9.1464844 C 4.2385545,9.0485504 4.3682855,9 4.4960935,9 c 0.127809,0 0.255581,0.04855 0.353516,0.1464844 0.195868,0.19587 0.195868,0.5131153 0,0.7089844 L 2.707032,12 16.501953,11.9961 c 0.277001,-9.9e-5 0.777001,0.499723 0.5,0.5 v 0.002 h -0.0059 v 0.002 h 0.0039 v 0.002 h 0.0059 v 0.002 c 0.277001,2.77e-4 -0.222999,0.500099 -0.5,0.5 L 2.710932,13.0002 4.8535095,15.144731 c 0.195868,0.195869 0.195868,0.513115 0,0.708985 -0.09793,0.09793 -0.225707,0.146484 -0.353516,0.146484 -0.127808,0 -0.257538,-0.04855 -0.355468,-0.146484 l -2.9941405,-3 C 1.103365,12.806706 1.066315,12.75048 1.04101,12.6877 1.01767,12.6298 1.0039,12.56665 1.0039,12.5002 Z"
     inkscape:connector-curvature="0" />
  <path
     inkscape:connector-curvature="0"
     d="m 11.5,22.08691 c -0.06645,0 -0.1296,-0.01377 -0.1875,-0.03711 -0.06278,-0.0253 -0.119006,-0.06236 -0.166016,-0.109375 L 8.1464844,18.946285 C 8.0485504,18.848355 8,18.718624 8,18.590816 c 0,-0.127809 0.04855,-0.25558 0.1464844,-0.353515 0.19587,-0.195868 0.5131153,-0.195868 0.7089844,0 L 11,20.379879 10.996094,6.5849571 c -9.9e-5,-0.277001 0.499723,-0.777001 0.5,-0.5 h 0.002 v 0.0059 H 11.5 v -0.00395 h 0.002 v -0.0059 h 0.002 c 2.77e-4,-0.277 0.500099,0.223 0.5,0.5 L 12,20.375973 14.144531,18.233395 c 0.195869,-0.195868 0.513115,-0.195868 0.708985,0 C 14.95145,18.33133 15,18.459101 15,18.58691 c 0,0.127808 -0.04855,0.257539 -0.146484,0.355469 l -3,2.994141 c -0.04701,0.04701 -0.103236,0.08407 -0.166016,0.109375 -0.0579,0.02334 -0.12105,0.03711 -0.1875,0.03711 z"
     id="path856"
     style="fill:#1e8bcd" />
</svg>
