<svg height="32" viewBox="0 0 8.4666665 8.4666669" width="32" xmlns="http://www.w3.org/2000/svg"><g fill-opacity=".992647" transform="translate(.000003 -288.533323)"><path d="m9.5 7h13c1.384999 0 2.5 1.1150067 2.5 2.5v13c0 1.384993-1.115001 2.5-2.5 2.5h-13c-1.3849993 0-2.5-1.115007-2.5-2.5v-13c0-1.3849933 1.1150007-2.5 2.5-2.5z" fill="#fafafa" transform="matrix(.26458333 0 0 .26458333 0 288.53332)"/><path d="m9.5 6c-1.9389999 0-3.5 1.5609981-3.5 3.5v13c0 1.939002 1.5610001 3.5 3.5 3.5h13c1.939 0 3.5-1.560998 3.5-3.5v-13c0-1.9390019-1.561-3.5-3.5-3.5zm0 1h13c1.384999 0 2.5 1.1150067 2.5 2.5v13c0 1.384993-1.115001 2.5-2.5 2.5h-13c-1.3849993 0-2.5-1.115007-2.5-2.5v-13c0-1.3849933 1.1150007-2.5 2.5-2.5z" fill="#0063b1" transform="matrix(.26458333 0 0 .26458333 0 288.53332)"/><path d="m2.6458333 293.82499h3.1749999v.52917h-3.1749999z" fill="#3a3a38"/><g fill="#0063b1"><path d="m2.6458333 292.50208h3.1749999v.52916h-3.1749999z"/><path d="m2.6458333 291.17916h3.1749999v.52917h-3.1749999z"/><path d="m2.6458333 293.82499h3.1749999v.52917h-3.1749999z"/></g></g></svg>