<svg viewBox="0 0 24 24" xmlns="http://www.w3.org/2000/svg"><g transform="translate(2.5 2)"><path d="m1.5 0c-.554 0-1 .446-1 1v11c0 .554.446 1 1 1h9c.554 0 1-.446 1-1v-11c0-.554-.446-1-1-1zm0 1h9v11h-9z" fill="#3a3a38"/><path d="m1.5.999962h9v11h-9z" fill="#fafafa"/><rect fill="#1e8bcd" height="1" ry=".5" width="7" x="2.5" y="6"/><rect fill="#1e8bcd" height="1" ry=".467428" width="7" x="2.5" y="9"/><path d="m5.5 3c-.554 0-1 .446-1 1v9.6337c0 .554.446 1 1 1h9c.554 0 1-.446 1-1v-9.6337c0-.554-.446-1-1-1zm0 1h9v10.634h-9z" fill="#3a3a38"/><path d="m5.5 4h9v10.173h-9z" fill="#fafafa"/><g fill="#1e8bcd"><rect height="1" ry=".458257" width="7" x="6.5" y="8"/><rect height="1" ry=".5" width="7" x="6.5" y="11"/></g></g><g fill="#1e8bcd"><path d="m17.062 15.008c-.85377.1294-1.5678.69391-1.9054 1.4672-.070974.16255-.11815.34506-.15617.5307h8c-.02609-.12499-.05348-.26222-.09367-.37462-.3463-.96656-1.2687-1.6233-2.3426-1.6233h-3.1273c-.1269 0-.25286-.01848-.37482 0zm-2.0615 5.9938c.2352 1.1308 1.2393 1.9979 2.4363 1.9979h3.1273c1.197 0 2.2012-.86716 2.4363-1.9979z"/><path d="m7.0615 15.008c-.85377.1294-1.5678.69391-1.9054 1.4672-.070974.16255-.11815.34506-.15617.5307h8c-.02609-.12499-.05348-.26222-.09367-.37462-.3463-.96656-1.2687-1.6233-2.3426-1.6233h-3.1273c-.1269 0-.25286-.01848-.37482 0zm-2.0615 5.9938c.2352 1.1308 1.2393 1.9979 2.4363 1.9979h3.1273c1.197 0 2.2012-.86716 2.4363-1.9979z"/><rect height="2" ry=".98861" width="8" x="10" y="18"/></g></svg>