<svg version="1.1" viewBox="0 0 24 24" xmlns="http://www.w3.org/2000/svg">
 <path d="m5 3v18h15v-18z" fill="#fff"/>
 <path d="m5 2c-0.554 0-1 0.446-1 1v18c0 0.554 0.446 1 1 1h15c0.554 0 1-0.446 1-1v-18c0-0.554-0.446-1-1-1zm0 1h15v18h-15zm1.5 2c-0.277 0-0.5 0.223-0.5 0.5s0.223 0.5 0.5 0.5h4c0.277 0 0.5-0.223 0.5-0.5s-0.223-0.5-0.5-0.5zm0 4c-0.277 0-0.5 0.223-0.5 0.5s0.223 0.5 0.5 0.5h4c0.277 0 0.5-0.223 0.5-0.5s-0.223-0.5-0.5-0.5zm8 0c-0.277 0-0.5 0.223-0.5 0.5s0.223 0.5 0.5 0.5h4c0.277 0 0.5-0.223 0.5-0.5s-0.223-0.5-0.5-0.5zm-8 3c-0.277 0-0.5 0.223-0.5 0.5s0.223 0.5 0.5 0.5h4c0.277 0 0.5-0.223 0.5-0.5s-0.223-0.5-0.5-0.5zm8 0c-0.277 0-0.5 0.223-0.5 0.5s0.223 0.5 0.5 0.5h4c0.277 0 0.5-0.223 0.5-0.5s-0.223-0.5-0.5-0.5zm-8 3c-0.277 0-0.5 0.223-0.5 0.5s0.223 0.5 0.5 0.5h4c0.277 0 0.5-0.223 0.5-0.5s-0.223-0.5-0.5-0.5zm8 0c-0.277 0-0.5 0.223-0.5 0.5s0.223 0.5 0.5 0.5h4c0.277 0 0.5-0.223 0.5-0.5s-0.223-0.5-0.5-0.5zm0 3c-0.277 0-0.5 0.223-0.5 0.5s0.223 0.5 0.5 0.5h4c0.277 0 0.5-0.223 0.5-0.5s-0.223-0.5-0.5-0.5z" fill="#808080"/>
 <path d="m12.5 5c-0.277 0-0.5 0.223-0.5 0.5v12.5h-3.6016c-0.22066 0-0.39844 0.17778-0.39844 0.39844v0.20312c0 0.22066 0.17778 0.39844 0.39844 0.39844h4.1016 0.10156c0.22066 0 0.39844-0.17778 0.39844-0.39844v-0.10156-0.10156-12.398h3.5c0.277 0 0.5-0.223 0.5-0.5s-0.223-0.5-0.5-0.5h-4z" fill="#4d82b8"/>
 <g transform="matrix(.63939 0 0 .63939 5.178 4.3256)">
  <path d="m18.694 16.267-4.1939-4.2674 4.0355-4.4705-2.9091-2.7691-4.1531 4.2602-4.2373-4.2602-3.0267 2.871 4.2373 4.3505-4.2373 4.281 3.0267 2.9821 4.2324-4.4732 4.2422 4.4732z" fill="#fff" stroke="#fff" stroke-linecap="round" stroke-linejoin="round" stroke-width="3"/>
  <path d="m18.694 16.267-4.1939-4.2674 4.0355-4.4705-2.9091-2.7691-4.1531 4.2602-4.2373-4.2602-3.0267 2.871 4.2373 4.3505-4.2373 4.281 3.0267 2.9821 4.2324-4.4732 4.2422 4.4732z" fill="#e68497"/>
 </g>
</svg>
