<svg version="1.1" viewBox="0 0 24 24" xmlns="http://www.w3.org/2000/svg">
 <path d="m3 3v5h18v-5zm0 6v12h9.0039a1.0001 1.0001 0 0 1 0.28516-0.76172l2.2344-2.2578-2.2402-2.3008a1.0001 1.0001 0 0 1 0.029297-1.4238l2.0898-1.9805a1.0001 1.0001 0 0 1 0.67578-0.27539 1.0001 1.0001 0 0 1 0.7207 0.29492l2.209 2.2207 2.1582-2.2129a1.0001 1.0001 0 0 1 0.83398-0.29492v-3.0078zm12.068 5.3984-0.64453 0.61133 2.2188 2.2773a1.0001 1.0001 0 0 1-0.005859 1.4023l-2.2207 2.2422 0.068359 0.068359h1.1211l1.6797-1.7754a1.0001 1.0001 0 0 1 1.4512 0l1.6836 1.7754h0.58008v-0.66406l-1.6094-1.6367a1.0001 1.0001 0 0 1-0.029297-1.3711l1.6387-1.8145v-1.0195l-0.091797-0.087891-2.1777 2.2324a1.0001 1.0001 0 0 1-1.4238 0.007812z" fill="#fff"/>
 <path d="m2 2v19c0 0.554 0.446 1 1 1h9.6504l-0.35156-0.3457c-0.08541-0.08454-0.15488-0.18378-0.20508-0.29297-0.0015-0.0033-0.0024-0.0065-0.0039-0.0098-6.52e-4 -6.5e-4 -0.0013-0.0013-2e-3 -2e-3 -0.04889-0.11051-0.07734-0.22896-0.08399-0.34961h-3.0039v-3h5.5039l0.019578-0.01945-0.95508-0.98047h-4.5684v-3h3.582l0.3418-0.32422 0.71484-0.67578h-4.6387v-3h6v2.0039c0.02598-0.0023 0.05204-0.0036 0.07813-0.0039 0.13386-0.0017 0.26669 0.02359 0.39062 0.07422 0.12367 0.05077 0.23591 0.12581 0.33008 0.2207l0.20117 0.20312v-2.498h5v2.0078c0.0013 6.48e-4 0.0026 0.0013 0.0039 2e-3 0.10548 0.01229 0.20833 0.0413 0.30469 0.08594 0.09694 0.0454 0.18596 0.10607 0.26367 0.17969l0.42773 0.4082v-10.684h-20zm1 8h5v3h-5zm13.5 3 0.99414 1h1.0156l0.97656-1zm-13.5 1h5v3h-5zm0 4h5v3h-5z" fill="#e68497"/>
 <g fill="#e68497">
  <path d="m23 20.944-2.8954-2.9462 2.7861-3.0864-2.0084-1.9118-2.8673 2.9412-2.9254-2.9412-2.0896 1.9821 2.9254 3.0035-2.9254 2.9556 2.0896 2.0588 2.922-3.0882 2.9288 3.0882z"/>
 </g>
 <g fill="#fff">
  <path d="m3 6h5v3h-5z" style="paint-order:stroke markers fill"/>
  <path d="m8.9999 6h6v3h-6z" style="paint-order:stroke markers fill"/>
  <path d="m16 6h5v3h-5z" style="paint-order:stroke markers fill"/>
 </g>
</svg>
