<svg viewBox="0 0 24 24" xmlns="http://www.w3.org/2000/svg"><path d="m12 5c-.554 0-1 .446-1 1v12c0 .554.446 1 1 1h2c.554 0 1-.446 1-1v-.839844l-2.722656-2.722656a1.0229208 1.0229208 0 0 1 0-1.445312l.714844-.714844a1.0229208 1.0229208 0 0 1 .707031-.300782 1.0229208 1.0229208 0 0 1 .738281.300782l.5625.5625v-6.839844c0-.554-.446-1-1-1zm-5 3c-.554 0-1 .446-1 1v9c0 .554.446 1 1 1h2c.554 0 1-.446 1-1v-9c0-.554-.446-1-1-1zm10 3c-.554 0-1 .446-1 1v1.839844l2 2 2-2v-1.839844c0-.554-.446-1-1-1z" fill="#3a3a38"/><path d="m4.5 2c-.277 0-.5.223-.5.5v16.5h-1.5c-.277 0-.5.223-.5.5s.223.5.5.5h1.5v1.5c0 .277.223.5.5.5s.5-.223.5-.5v-1.5h8.839844l1-1h-9.839844v-16.5c0-.277-.223-.5-.5-.5z" fill="#ed3d3b"/><path d="m12 6v7.511719a1.0229208 1.0229208 0 0 1 .277344-.519531l.714844-.714844a1.0229208 1.0229208 0 0 1 .707031-.300782 1.0229208 1.0229208 0 0 1 .300781.041016v-6.017578zm-5 3v9h2v-9zm10 3v2.839844l1 1 1-1v-2.839844zm-5 1.921875v4.078125h2v-1.839844l-1.722656-1.722656a1.0229208 1.0229208 0 0 1 -.277344-.515625z" fill="#c8c6c4"/><path d="m22.285683 12.999968-4.285715 4.285714-4.285715-4.285714-.714285.714285 4.285714 4.285715-4.285714 4.285715.714285.714285 4.285715-4.285714 4.285715 4.285714.714285-.714285-4.285714-4.285715 4.285714-4.285715z" fill="#ed3d3b"/></svg>