<svg viewBox="0 0 24 24" xmlns="http://www.w3.org/2000/svg"><path d="m19 21v-13h-4v-4h-10v17z" fill="#fafafa"/><path d="m14.283 22h5.7168v-3.3555l-.00005-1.5272v-9.0762c0-.45068.09804-.42541-.60547-1.0664l-3.3066-3.2383c-.70952-.73686-.71017-.73633-1.0938-.73633h-.99414l-8.9999.00008c-.554 0-1 .446-1 1v17c0 .554.446 1 1 1h5.1836m.79295-.99999h-5.9766v-17h9v4c0 .554.446 1 1 1h4v7.623l.00005 3.498v.87893h-3.1816" fill="#3a3a38"/><path d="m15 8h4l-4-4z" fill="#fafafa" fill-rule="evenodd"/><path d="m3 12c-.554 0-1 .446-1 1v9c0 .554.446 1 1 1h9c.554 0 1-.446 1-1v-9c0-.554-.446-1-1-1z" fill="#ed8733"/><path d="m7.5 14c-1.9329966 0-3.5 1.567003-3.5 3.5s1.5670034 3.5 3.5 3.5 3.5-1.567003 3.5-3.5c-.001-.167386-.0141-.334482-.03906-.5h-2.96094v-1-1.958984c-.165471-.025615-.3325668-.039322-.5-.041016z" fill="#fafafa"/></svg>