<svg version="1.1" viewBox="0 0 24 24" xmlns="http://www.w3.org/2000/svg">
 <path d="m5 4v17s14-0.92018 14-13.271l-4-3.7285z" fill="#fff"/>
 <path d="m5 3c-0.554 0-1 0.446-1 1v17c0 0.554 0.446 1 1 1h2.6074 9.4531 1.9434c0.554 0 1-0.446 1-1v-12.479l-0.003906 0.0039062v-0.27539-0.20898c0-0.45068 0.098038-0.42541-0.60547-1.0664l-3.3066-3.2383c-0.70952-0.73686-0.71017-0.73633-1.0938-0.73633h-0.33203-0.66211-9zm0 1h9v4c0 0.554 0.446 1 1 1h4v5.084c0.001376 4.93e-4 0.002531 0.001457 0.003906 0.001954v6.9141h-1.9277-8.5508-3.5254v-17z" fill="#808080"/>
 <g fill-rule="evenodd">
  <path d="m15 8h4l-4-4z" fill="#fff"/>
 </g>
</svg>
