<svg version="1.1" viewBox="0 0 24 24" xmlns="http://www.w3.org/2000/svg">
 <g fill="#808080">
  <path d="m11 12c-0.554 0-1 0.446-1 1v6c0 0.554 0.446 1 1 1h1.0234v-1h-1.0234v-6h3v2.1094c0.06959-0.01162 0.12189-0.0558 0.19531-0.05859h0.03906l0.76563-0.007816v-2.043c0-0.554-0.446-1-1-1z"/>
  <path d="m15 10c-0.554 0-1 0.446-1 1v4.1094c0.06959-0.01162 0.12189-0.0558 0.19531-0.05859h0.03906l0.76563-0.007816v-4.043h3v2.957l1-0.57617v-2.3809c0-0.554-0.446-1-1-1z"/>
  <path d="m8 6c-0.554 0-1 0.446-1 1v12c0 0.554 0.446 1 1 1h2c0.554 0 1-0.446 1-1v-12c0-0.554-0.446-1-1-1z"/>
  <path d="m2.5 19c-0.277 0-0.5 0.223-0.5 0.5s0.223 0.5 0.5 0.5h9.5234v-1z"/>
 </g>
 <path d="m15 11h3v8h-3z" fill="#fff"/>
 <path d="m11 13h3v6h-3z" fill="#fff"/>
 <rect transform="scale(-1,1)" x="-5" y="2" width="1" height="20" ry=".5" fill="#808080"/>
 <path d="m17.829 15.924-1.1136 0.0117-2.4757 0.0234h-0.0048c-0.57797 0.02174-0.9501 0.32092-1.0955 0.63413-0.14539 0.31321-0.1162 0.63006-0.11462 0.6973v2.7506l0.0012-0.02691c-0.0272 0.28764 0.11522 0.55182 0.31489 0.70198 0.19968 0.15016 0.44084 0.21378 0.68046 0.21762 0.23962 0.0038 0.41806-0.05158 0.62248-0.1989 0.20442-0.14732 0.24716-0.41331 0.22585-0.70432l0.0012 0.02223 0.0084-2.471z" fill="#4d82b8" fill-rule="evenodd" stroke-width=".51713"/>
 <g transform="matrix(.61771 0 0 .62625 13.021 13.419)" fill="#fff" fill-rule="evenodd" stroke="#4d82b8">
  <path d="m2.6793 6.3619 4.4354 7.5688c0.34068 0.52815 0.8884 0.73117 1.4164 0.46156l6.437-3.6615c0.48963-0.32843 0.71669-0.94529 0.40401-1.4855l-4.4404-7.5775z" stroke-width="1.2862"/>
  <ellipse transform="matrix(.87697 -.48054 .51971 .85434 0 0)" cx="3.6834" cy="10.554" rx="1.4556" ry="1.4161" fill="#4d82b8" stroke-linecap="round" stroke-width=".64992"/>
 </g>
</svg>
