<svg viewBox="0 0 24 24" xmlns="http://www.w3.org/2000/svg"><g fill="#555" stroke-width="1.165137" transform="matrix(.85826837 0 0 .85826837 2.394341 1.401559)"><path d="m15.512612.6972654c-.3189 0-.64985.0486749-.96875.1835937l-3.111329 1.2871094a8.5630703 8.5630703 0 0 1 2.986329 6.4921875 8.5630703 8.5630703 0 0 1 -6.4511725 8.292969l2.2949225 5.539062c.380226.932169 1.287439 1.495547 2.24414 1.507813.3189 0 .638679-.06094.945313-.183594l9.027343-3.740234c1.251069-.515145 1.851085-1.950649 1.335938-3.189453l-6.082031-14.6816411c-.380227-.9199039-1.276269-1.4832817-2.220703-1.5078125zm-15.55468811 14.1582036-1.39648439 3.36914c-.5028808 1.251069.099087 2.686026 1.33789069 3.201172l1.64257811.685547v-6.064453a8.5630703 8.5630703 0 0 1 -1.58398441-1.191406zm4.04882811 2.160156v4.53125c0 1.349192 1.1039326 2.453125 2.453125 2.453125h1.7792969l-2.8125-6.796875a8.5630703 8.5630703 0 0 1 -1.4199219-.1875z"/><path d="m11.191907 10.018359h-4.6605472v4.660547h-2.3302735v-4.660547h-4.6605469v-2.3302732h4.6605469v-4.6605469h2.3302735v4.6605469h4.6605472z"/></g></svg>