<svg version="1.1" viewBox="0 0 24 24" xmlns="http://www.w3.org/2000/svg">
 <path d="m8.4998 10.5h7.0001v-2h-7.0001z" color="#000000" color-rendering="auto" dominant-baseline="auto" fill="#4d4d4d" image-rendering="auto" shape-rendering="auto" solid-color="#000000" style="font-feature-settings:normal;font-variant-alternates:normal;font-variant-caps:normal;font-variant-ligatures:normal;font-variant-numeric:normal;font-variant-position:normal;isolation:auto;mix-blend-mode:normal;shape-padding:0;text-decoration-color:#000000;text-decoration-line:none;text-decoration-style:solid;text-indent:0;text-orientation:mixed;text-transform:none;white-space:normal"/>
 <path d="m4.0632 9.1003q0 1.8803 0.4486 3.7129 0.45815 1.823 1.279 3.417 0.10499 0.20044 0.12408 0.34361 0.019089 0.15272-0.028634 0.26725-0.038179 0.11454-0.12408 0.1909-0.085903 0.0859-0.18135 0.15272l-1.0786 0.64904q-0.68722-1.0499-1.174-2.1094-0.47724-1.0595-0.78267-2.1476t-0.4486-2.1953q-0.13363-1.1167-0.13363-2.2812t0.13363-2.2812q0.14317-1.1167 0.4486-2.1953 0.30543-1.0881 0.78267-2.1476 0.48678-1.0595 1.174-2.1094l1.0786 0.64904q0.095447 0.066813 0.18135 0.15272 0.085903 0.076358 0.12408 0.19089 0.047724 0.11454 0.028634 0.26725-0.01909 0.14317-0.12408 0.34361-0.82085 1.594-1.279 3.4266-0.4486 1.823-0.4486 3.7034z" fill="#4d82b8" stroke-width=".48869"/>
 <path d="m19.945 9.1003q0 1.8803-0.4486 3.7129-0.45815 1.823-1.279 3.417-0.10499 0.20044-0.12408 0.34361-0.01909 0.15272 0.02863 0.26725 0.03818 0.11454 0.12408 0.1909 0.0859 0.0859 0.18135 0.15272l1.0786 0.64904q0.68722-1.0499 1.174-2.1094 0.47724-1.0595 0.78267-2.1476t0.4486-2.1953q0.13363-1.1167 0.13363-2.2812t-0.13363-2.2812q-0.14317-1.1167-0.4486-2.1953-0.30543-1.0881-0.78267-2.1476-0.48678-1.0595-1.174-2.1094l-1.0786 0.64904q-0.09545 0.066813-0.18135 0.15272-0.0859 0.076358-0.12408 0.19089-0.04772 0.11454-0.02863 0.26725 0.01909 0.14317 0.12408 0.34361 0.82085 1.594 1.279 3.4266 0.4486 1.823 0.4486 3.7034z" fill="#4d82b8" stroke-width=".48869"/>
</svg>
