<svg version="1.1" viewBox="0 0 24 24" xmlns="http://www.w3.org/2000/svg">
 <path d="m3 23v-5h18v5zm0-6v-12h12v2h-3c-1.0907 0-2 0.9093-2 2s0.9093 2 2 2h3v3c0 1.0907 0.9093 2 2 2s2-0.9093 2-2v-3h2v6zm16-10v-2h2v2z" fill="#fff"/>
 <path d="m2 17v-12c0-0.554 0.446-1 1-1h12v1h-6v3h1.2832c-0.17546 0.29652-0.2832 0.63603-0.2832 1h-1v3h6v1h-6v3h6v-2c0 0.72673 0.40794 1.3664 1 1.7168v0.2832h5v-3h-2v-1h2v-1h1v6zm1-1h5v-3h-5zm0-4h5v-3h-5zm0-4h5v-3h-5zm18-1v-2h-2v-1h2c0.554 0 1 0.446 1 1v2z" fill="#808080"/>
 <g transform="matrix(1,0,0,-1,0,26)" fill="#4d82b8">
  <path d="m17 11c-0.554 0-1 0.446-1 1v4h-4c-0.554 0-1 0.446-1 1s0.446 1 1 1h4v4c0 0.554 0.446 1 1 1s1-0.446 1-1v-4h4c0.554 0 1-0.446 1-1s-0.446-1-1-1h-4v-4c0-0.554-0.446-1-1-1z"/>
  <path d="m2 3v5h20v-5zm1 1h5v3h-5zm6 0h6v3h-6zm7 0h5v3h-5z"/>
 </g>
</svg>
