<svg width="24" height="24" version="1.1" viewBox="0 0 24 24" xmlns="http://www.w3.org/2000/svg">
 <path d="m4.5 8.9153c-0.554 0-1-0.446-1-1v-5.9414h1v5.9414h15v-5.9414h1v5.9414c0 0.554-0.446 1-1 1z" fill="#808080"/>
 <path d="m4.5 15.084c-0.554 0-1 0.446-1 1v5.9414h1v-5.9414h15v5.9414h1v-5.9414c0-0.554-0.446-1-1-1z" fill="#808080"/>
 <g transform="matrix(.7724 0 0 .7724 -1.0841 -.3584)" fill="#4d82b8">
  <path d="m2.6224 12c-0.34413 0.0015-0.62238 0.29942-0.62241 0.66647v6.6647c-7.76e-4 0.56568 0.61783 0.87517 1.0251 0.51287l3.7491-3.3324c0.30104-0.26653 0.30104-0.75922 0-1.0257l-3.7491-3.3324c-0.11312-0.10013-0.25573-0.15452-0.40273-0.1536z" style=""/>
  <rect x="8" y="15" width="6" height="2" ry=".9661" style=""/>
  <rect x="16" y="15" width="6" height="2" ry=".9661" style=""/>
  <rect x="24" y="15" width="6" height="2" ry=".9661" style=""/>
 </g>
</svg>
