<svg version="1.1" viewBox="0 0 24 24" xmlns="http://www.w3.org/2000/svg">
 <g fill="#808080">
  <path d="m8 12c-.554 0-1 .446-1 1v6c0 .554.446 1 1 1h3c.554 0 1-.446 1-1v-6c0-.554-.446-1-1-1zm0 1h3v6h-3z"/>
  <path d="m15 10c-.554 0-1 .446-1 1v8c0 .554.446 1 1 1h3c.554 0 1-.446 1-1v-8c0-.554-.446-1-1-1zm0 1h3v8h-3z"/>
  <rect x="11" y="6" width="4" height="14" ry="1"/>
  <rect transform="matrix(0 -1 -1 0 0 0)" x="-22" y="-5" width="20" height="1" ry=".5"/>
  <rect transform="matrix(0 -1 -1 0 0 0)" x="-20" y="-22" width="1" height="20" ry=".5"/>
 </g>
 <path d="m15 11h3v8h-3z" fill="#fff"/>
 <path d="m8 13h3v6h-3z" fill="#fff"/>
 <rect x="6" y="21" width="15" height="1" ry=".48836" fill="#4d82b8"/>
 <rect x="2" y="3" width="1" height="15" ry=".48836" fill="#4d82b8"/>
</svg>
