<svg version="1.1" viewBox="0 0 24 24" xmlns="http://www.w3.org/2000/svg" xmlns:cc="http://creativecommons.org/ns#" xmlns:dc="http://purl.org/dc/elements/1.1/" xmlns:rdf="http://www.w3.org/1999/02/22-rdf-syntax-ns#">
 <metadata>
  <rdf:RDF>
   <cc:Work rdf:about="">
    <dc:format>image/svg+xml</dc:format>
    <dc:type rdf:resource="http://purl.org/dc/dcmitype/StillImage"/>
    <dc:title/>
   </cc:Work>
  </rdf:RDF>
 </metadata>
 <path d="m5.0234 3c-0.55513 0-0.98653 0.44704-1.002 1.002l-0.046875 16.996c0 0.55513 0.44682 1.002 1.002 1.002h14.029c0.55513 0 1.002-0.44682 1.002-1.002l0.035157-12.563a3.5385 3.5385 0 0 1-2.2285 0.79102 3.5385 3.5385 0 0 1-3.5371-3.5391 3.5385 3.5385 0 0 1 1.2422-2.6875h-10.496z" fill="#808080"/>
 <path d="m19.501 5.6875a1.686 1.686 0 0 1-1.686 1.686 1.686 1.686 0 0 1-1.686-1.686 1.686 1.686 0 0 1 1.686-1.686 1.686 1.686 0 0 1 1.686 1.686z" fill="#4d82b8" style="paint-order:stroke markers fill"/>
 <g fill="#fff">
  <path d="m11.5 18v1h4v-1z"/>
  <path d="m11.5 12v1h7v-1z"/>
  <circle cx="7.5" cy="12.5" r="1.5" style="paint-order:stroke markers fill"/>
  <circle cx="7.5" cy="18.5" r="1.5" style="paint-order:stroke markers fill"/>
 </g>
</svg>
