<svg viewBox="0 0 24 24" xmlns="http://www.w3.org/2000/svg"><path d="m5.0234 3c-.55513 0-.98653.44704-1.002 1.002l-.046875 16.996c0 .55513.44682 1.002 1.002 1.002h14.029c.55513 0 1.002-.44682 1.002-1.002l.035157-12.563a3.5385 3.5385 0 0 1 -2.2285.79102 3.5385 3.5385 0 0 1 -3.5371-3.5391 3.5385 3.5385 0 0 1 1.2422-2.6875h-10.496z" fill="#808080"/><path d="m19.501 5.6875a1.686 1.686 0 0 1 -1.686 1.686 1.686 1.686 0 0 1 -1.686-1.686 1.686 1.686 0 0 1 1.686-1.686 1.686 1.686 0 0 1 1.686 1.686z" fill="#4d82b8"/><g fill="#fff"><path d="m11.5 18v1h4v-1z"/><path d="m11.5 12v1h7v-1z"/><circle cx="7.5" cy="12.5" r="1.5"/><circle cx="7.5" cy="18.5" r="1.5"/></g></svg>