<svg height="16" viewBox="0 0 16 16" width="16" xmlns="http://www.w3.org/2000/svg"><g fill="#505050"><path d="m2.4616772 2a.46167718.75 0 0 0 -.4616772.75.46167718.75 0 0 0 .4616772.75h11.0766458a.46167718.75 0 0 0 .461677-.75.46167718.75 0 0 0 -.461677-.75z"/><path d="m2.4616772 12a.46167718.75 0 0 0 -.4616772.75.46167718.75 0 0 0 .4616772.75h11.0766458a.46167718.75 0 0 0 .461677-.75.46167718.75 0 0 0 -.461677-.75z"/><path d="m2.4616772 7a.46167718.75 0 0 0 -.4616772.75.46167718.75 0 0 0 .4616772.75h11.0766458a.46167718.75 0 0 0 .461677-.75.46167718.75 0 0 0 -.461677-.75z"/></g></svg>