<svg viewBox="0 0 24 24" xmlns="http://www.w3.org/2000/svg"><path d="m8 3v18h14v-14.2705905l-4-3.7294095z" fill="#fafafa"/><path d="m8 2c-.554 0-1 .446-1 1v18c0 .554.446 1 1 1h14c.554 0 1-.446 1-1v-10.109375-3.6412209-.2079239c0-.4506799.09887-.4265951-.604637-1.0675892l-3.307389-3.2370335c-.709525-.7368575-.711223-.7368575-1.094804-.7368575h-.331557-.661613zm0 1h9v4c0 .554.446 1 1 1h4v13h-14z" fill="#3a3a38"/><g fill-rule="evenodd"><path d="m18 7h4l-4-4z" fill="#fafafa"/><path d="m6 4.50003c-.0041-.130048-.05875-.25337-.152344-.34375l-1.908203-1.923829c-.160649-.173289-.266429-.223009-.435547-.224609-.169118.0016-.274898.05132-.435547.224609l-1.908203 1.923829c-.09359.09038-.148244.213702-.152344.34375-.0115.454318.540283.686847.857422.361328l1.140625-1.15625v2.818359c.0001.0037-.0021.0061-.002.0098v2.974575.5.5 6.974609c-.0001.0037.0021.0061.002.0098v2.818359l-1.140625-1.15625c-.317139-.325519-.868922-.09299-.857422.361328.0041.130048.05875.253371.152344.34375l1.908203 1.923829c.160649.173255.266429.222975.435547.224575.169118-.0016.274898-.05132.435547-.224609l1.908203-1.923829c.09359-.09038.148244-.213702.152344-.34375.0115-.454319-.540283-.686847-.857422-.361328l-1.140625 1.15625v-2.818359c-.0001-.0037.0021-.0061.002-.0098v-6.974575-.5-.5-2.974609c.000192-.0037-.0021-.0061-.002-.0098v-2.818355l1.140625 1.15625c.317139.325519.868922.09299.857422-.361328z" fill="#1e8bcd"/></g></svg>