<svg viewBox="0 0 24 24" xmlns="http://www.w3.org/2000/svg"><path d="m5 3v18h14v-14.271l-4-3.7294z" fill="#fafafa"/><path d="m5 2c-.554 0-1 .446-1 1v18c0 .554.446 1 1 1h14c.554 0 1-.446 1-1v-13.959c0-.45068.09887-.4266-.60464-1.0676l-3.3074-3.237c-.70952-.73686-.71122-.73686-1.0948-.73686h-.99317zm0 1h9v4c0 .554.446 1 1 1h4v13h-14z" fill="#3a3a38"/><path d="m15 7h4l-4-4z" fill="#fafafa"/><path d="m10.5 11c-.125183-.0077-.258789.03681-.376953.154297l-1.8867189 1.902344c-.141888.136779-.2363649.258099-.234375.439453-.0000175.0016.00196.0023.00195.0039.0000101.0016-.00197.0023-.00195.0039-.00199.181354.092487.302674.234375.439453l1.8867189 1.902344c.118164.117499.25177.162009.376953.154309.375549-.02317.682617-.510818.328125-.863281l-1.1113281-1.128907h.7597651c.01382.000713.02548-.0055.03906-.0059h2.484378a1.99888 1.99888 0 0 1 1.998047 2 1.99888 1.99888 0 0 1 -1.998047 1.998088c-.276845 0-.5.223155-.5.5s.223155.5.5.5a2.99832 2.99832 0 0 0 2.998047-2.998047 2.99832 2.99832 0 0 0 -2.998047-3h-2.460938c-.02149-.0017-.04037-.01091-.0625-.0098h-.7597651l1.1113281-1.128872c.354492-.352463.047424-.84011-.328125-.863281z" fill="#1e8bcd" stroke-width=".49972"/></svg>