<svg viewBox="0 0 24 24" xmlns="http://www.w3.org/2000/svg"><path d="m5 3v18h4.1015625c-.1949548-.540779-.0833138-1.178408.3417969-1.603516l2.9472656-2.947265c.234153-.234152.550907-.304805.861328-.351563-.097434-.197346-.251953-.367161-.251953-.597656 0-.762392.621932-1.364345 1.367188-1.443359-.778286-.647963-1.365394-1.490619-1.367188-2.554688a1.0001 1.0001 0 0 0 0-.001953c0-1.921152 1.578848-3.5 3.5-3.5.976906 0 1.862701.4105457 2.5 1.0644531v-2.3359375l-4-3.7285156zm14 10.707031c-.11713.119366-.231679.241221-.361328.34961.124815.013472.243158.049312.361328.083984zm-4.232422 3.292969c.211161.547379.208827 1.166169-.224609 1.599609l-.544922.544922c.316893.217762.641275.395413 1.001953.525391v-2.669922zm3.232422 0v2.669922c.357689-.128937.679435-.304263.994141-.519531l-.550782-.550782c-.43344-.433438-.435772-1.052227-.224609-1.599609z" fill="#fff"/><path d="m5 2c-.554 0-1 .446-1 1v18c0 .554.446 1 1 1h8.015625c-.386678-.22536-.75847-.479291-1.111328-.761719l-.310547.308594c-.5829.582898-1.56749.5829-2.1503906 0-.1577916-.157791-.2694337-.346149-.3417969-.546875h-4.1015625v-18h9v4c0 .554.446 1 1 1h1.5 2.5v1.0644531c.615993.6320456 1 1.4913009 1 2.4355469v-.609375-3.640625-.2089844c0-.4506799.098038-.4254121-.605469-1.0664062l-3.30664-3.2382813c-.709525-.7368575-.710169-.7363281-1.09375-.7363281h-.332032-.662109zm15 9.5c-.000097.885987-.415639 1.611516-1 2.207031v.433594c.211437.062038.410447.148732.560547.298828.129483.129472.243428.289519.322265.476563.076924.182499.117188.381574.117188.583984zm0 4c0 .229748-.097976.431005-.193359.628906.064792.013181.12849.032392.193359.046875z" fill="#808080"/><path d="m15 7h4l-4-4z" fill="#fff" fill-rule="evenodd"/><path d="m16.5 9c-1.380712 0-2.5 1.119288-2.5 2.5.002 1.18641.837558 2.208031 2 2.445312v.054688 1h-1.5c-.277 0-.5.223-.5.5s.223.5.5.5h1.5v4.972656c-1.339636-.125003-2.593785-.734477-3.517578-1.728515l1.353516-1.351563c.204141-.204142.204141-.532186 0-.736328-.204144-.204142-.534139-.204142-.738282 0l-2.947265 2.947266c-.204143.204142-.204143.532185 0 .736328.204142.204142.532185.204142.736328 0l.890625-.888672c1.225166 1.303786 2.933557 2.044937 4.722656 2.048828 1.786277-.0024 3.492832-.739864 4.71875-2.039062l.878906.878906c.204143.204142.534138.204142.738282 0 .204142-.204143.204141-.532186 0-.736328l-2.949219-2.947266c-.204143-.204142-.532186-.204142-.736328 0-.204143.204142-.204143.532186 0 .736328l1.359375 1.359375c-.922962.989287-2.174119 1.595831-3.509766 1.720703v-4.972656h1.5c.06925 0 .135453-.01383.195312-.03906.179579-.075706.304688-.25319.304688-.46094 0-.06925-.01383-.135453-.03906-.195312-.02523-.05986-.06223-.113016-.107422-.158204-.090377-.090375-.215018-.146484-.353518-.146484h-1.5v-1-.05078c1.163878-.237579 1.999871-1.261342 2-2.44922 0-1.380712-1.119288-2.5-2.5-2.5zm0 1c.828427 0 1.5.671573 1.5 1.5s-.671573 1.5-1.5 1.5-1.5-.671573-1.5-1.5.671573-1.5 1.5-1.5z" fill="#4d82b8" stroke-width=".62222"/></svg>