<svg version="1.1" viewBox="0 0 24 24" xmlns="http://www.w3.org/2000/svg">
 <g fill="#696969">
  <path d="m10 12h-1.4709q-0.25485 0-0.40777-0.12048-0.15291-0.12801-0.22573-0.31626l-0.61165-1.9654h-3.5607l-0.60437 1.9578q-0.058253 0.16566-0.22573 0.30874-0.16019 0.13554-0.40049 0.13554h-1.4927l3.5243-10h1.9515zm-5.8471-3.7877h2.6942l-0.98301-3.1627q-0.087379-0.23343-0.18204-0.54217-0.09466-0.31627-0.18932-0.68524-0.087379 0.36898-0.18204 0.68524-0.09466 0.31627-0.17476 0.5497z"/>
  <path d="m11 11.897v-9.8967h1.671v3.8636q0.38158-0.41322 0.84868-0.66116 0.4671-0.25482 1.0526-0.25482 0.55921 0 1.0066 0.23416 0.44737 0.23416 0.76316 0.67493 0.31579 0.43388 0.48684 1.0537 0.17105 0.61983 0.17105 1.3912 0 0.83333-0.19737 1.5152-0.19737 0.68182-0.55921 1.1708-0.36184 0.48209-0.86842 0.75069-0.5 0.26171-1.1184 0.26171-0.30263 0-0.54605-0.06198-0.23684-0.06198-0.44079-0.17218-0.20395-0.11708-0.375-0.27548-0.16447-0.16529-0.32237-0.36501l-0.07237 0.44077q-0.0329 0.18595-0.13158 0.26171-0.09868 0.06887-0.25658 0.06887h-1.1118zm2.9934-5.5854q-0.42105 0-0.73026 0.19972-0.30921 0.19284-0.5921 0.56474v3.0165q0.25 0.32369 0.53947 0.45454 0.28947 0.13085 0.61842 0.13085 0.32895 0 0.59868-0.12397 0.26974-0.13086 0.45395-0.40634 0.19079-0.28237 0.28947-0.71625 0.10526-0.44077 0.10526-1.0606 0-0.55096-0.08553-0.93664-0.085523-0.39256-0.25-0.6405-0.15789-0.24793-0.40132-0.36501-0.23684-0.11708-0.54605-0.11708z"/>
  <path d="m20.867188 5c-.469484 0-.881719.0898437-1.240235.2675781-.354246.1777345-.653206.4238281-.896484.7382813-.239011.309896-.421149.675781-.544922 1.0996094-.123773.4238283-.185547.8841143-.185547 1.3808593 0 .5559898.070092 1.0527342.210938 1.4902344.140845.4329425.331302.8007815.570312 1.1015625.195314.241481.42003.423801.662109.574219l.810547-.908203-.019531.02539c.063691-.076012.135062-.14331.207031-.208984-.170025-.094091-.316402-.238909-.4375-.441406-.226206-.382813-.339844-.9264324-.339844-1.6328129 0-.3326824.026905-.6334634.078126-.9023437.055484-.2688804.135486-.4967447.242187-.6835938.106701-.186849.242112-.3313801.404297-.4316406.166453-.1002605.360093-.1503906.582031-.1503906.179257 0 .32617.0260412.441406.0761718.119506.0501304.22128.1061199.306641.1699219.089629.0592444.169993.1139319.238281.1640625.068288.0501307.141563.0761719.222657.0761719.085355 0 .152265-.0182288.199218-.0546875.046944-.0410157.093672-.0944011.140625-.1582031l.429688-.6210938c-.268886-.3144533-.572982-.5527343-.910157-.7167969-.337174-.1686198-.727999-.2539062-1.171874-.2539062z"/>
 </g>
 <path d="m22.008 11.016c-0.11263-0.02069-0.22958-0.02189-0.34981 0.0022-0.25623 0.05414-0.49235 0.19518-0.65848 0.39344l-7.353 8.2266-2.6339-2.5753c-0.44054-0.43079-1.2421-0.43076-1.6828 0-0.44056 0.43077-0.4406 1.2145 0 1.6453l3.5119 3.4337 0.91455 0.85842 0.8048-0.92996 8.1944-9.1565c0.5812-0.61865 0.04074-1.7531-0.74765-1.8979z" fill="#76a797"/>
</svg>
