<svg viewBox="0 0 24 24" xmlns="http://www.w3.org/2000/svg"><path d="m3 3h18v15h-18z" fill="#fff"/><path d="m9 18c-.554 0-1 .446-1 1v2c0 .554.446 1 1 1h6c.554 0 .752244-.504487 1-1l1-2c.247756-.495512-.446-1-1-1zm0 1h7l-1 2h-6z" fill="#808080"/><path d="m3 2c-.554 0-1 .446-1 1v15c0 .554.446 1 1 1h18c.554 0 1-.446 1-1v-15c0-.554-.446-1-1-1zm0 1h5v3h-5zm6 0h6v3h-6zm7 0h5v3h-5zm-13 4h5v3h-5zm6 0h6v3h-6zm7 0h5v3h-5zm-13 4h5v3h-5zm6 0h6v3h-6zm7 0h5v3h-5zm-13 4h5v3h-5zm6 0h6v3h-6zm7 0h5v3h-5z" fill="#808080"/><path d="m9 19h7l-1 2h-6z" fill="#fff"/><path d="m3 18c-.554 0-1 .446-1 1v2c0 .554.446 1 1 1h6c.554 0 .7522437-.504487 1-1l1-2c.247756-.495512-.446-1-1-1zm0 1h7l-1 2h-6z" fill="#808080"/><path d="m3 19h7l-1 2h-6z" fill="#fff"/></svg>