<svg viewBox="0 0 24 24" xmlns="http://www.w3.org/2000/svg"><path d="m6.332 13-.39844.43555-1.9277 1.9277-1.9277-1.9277a.58188.58188 0 1 0 -.80078.80078l2.3281 2.3281.40039.43555.40039-.43555 1.9258-1.9277 1.9277 1.9277.099609.10742c.078991-.11387.16798-.22302.27148-.32422.36248-.35436.80476-.55278 1.2598-.61328l1.0977-1.0977 1.9258 1.9277.40039.43555.40039-.43555 1.9277-1.9277.59766.59961.75586-.8457-.95508-.95508-.39844-.43555-.40039.43555-1.9277 1.9277-1.9277-1.9277-.39844-.43555-.40039.43555-1.9277 1.9277-1.9277-1.9277z" fill="#d65532"/><g fill="#696969"><rect fill="#696969" height="12" rx=".98201" ry=".90166" stroke="#696969" stroke-linejoin="round" stroke-width=".30299" width="18" y="1"/><path d="m10 12h-1.4709q-.25485 0-.40777-.12048-.15291-.12801-.22573-.31626l-.61165-1.9654h-3.5607l-.60437 1.9578q-.058253.16566-.22573.30874-.16019.13554-.40049.13554h-1.4927l3.5243-10h1.9515zm-5.8471-3.7877h2.6942l-.98301-3.1627q-.087379-.23343-.18204-.54217-.09466-.31627-.18932-.68524-.087379.36898-.18204.68524-.09466.31627-.17476.5497z" fill="#fff"/><path d="m11 11.897v-9.8967h1.671v3.8636q.38158-.41322.84868-.66116.4671-.25482 1.0526-.25482.55921 0 1.0066.23416.44737.23416.76316.67493.31579.43388.48684 1.0537.17105.61983.17105 1.3912 0 .83333-.19737 1.5152-.19737.68182-.55921 1.1708-.36184.48209-.86842.75069-.5.26171-1.1184.26171-.30263 0-.54605-.06198-.23684-.06198-.44079-.17218-.20395-.11708-.375-.27548-.16447-.16529-.32237-.36501l-.07237.44077q-.0329.18595-.13158.26171-.09868.06887-.25658.06887h-1.1118zm2.9934-5.5854q-.42105 0-.73026.19972-.30921.19284-.5921.56474v3.0165q.25.32369.53947.45454.28947.13085.61842.13085.32895 0 .59868-.12397.26974-.13086.45395-.40634.19079-.28237.28947-.71625.10526-.44077.10526-1.0606 0-.55096-.08553-.93664-.085523-.39256-.25-.6405-.15789-.24793-.40132-.36501-.23684-.11708-.54605-.11708z" fill="#fff"/><path d="m20.867 5c-.46948 0-.88172.089844-1.2402.26758-.35425.17773-.65321.42383-.89648.73828-.23901.3099-.42115.67578-.54492 1.0996-.12377.42383-.18555.88411-.18555 1.3809 0 .55599.07009 1.0527.21094 1.4902.14084.43294.3313.80078.57031 1.1016.19531.24148.42003.4238.66211.57422l.81055-.9082-.01953.02539c.06369-.07601.13506-.14331.20703-.20898-.17002-.09409-.3164-.23891-.4375-.44141-.22621-.38281-.33984-.92643-.33984-1.6328 0-.33268.0269-.63346.07813-.90234.05548-.26888.13549-.49674.24219-.68359s.24211-.33138.4043-.43164c.16645-.10026.36009-.15039.58203-.15039.17926 0 .32617.026041.44141.076172.11951.05013.22128.10612.30664.16992.08963.059244.16999.11393.23828.16406.06829.050131.14156.076172.22266.076172.08535 0 .15226-.018229.19922-.054687.04694-.041016.09367-.094401.14062-.1582l.42968-.62109c-.26889-.31445-.57298-.55273-.91016-.7168-.33717-.16862-.728-.25391-1.1719-.25391z"/></g><path d="m22.008 11.016c-.11263-.02069-.22958-.02189-.34981.0022-.25623.05414-.49235.19518-.65848.39344l-7.353 8.2266-2.6339-2.5753c-.44054-.43079-1.2421-.43076-1.6828 0-.44056.43077-.4406 1.2145 0 1.6453l3.5119 3.4337.91455.85842.8048-.92996 8.1944-9.1565c.5812-.61865.04074-1.7531-.74765-1.8979z" fill="#76a797"/><path d="m6.332 13-.39844.43555-1.9277 1.9277-1.9277-1.9277a.58188.58188 0 1 0 -.80078.80078l2.3281 2.3281.40039.43555.40039-.43555 1.9258-1.9277 1.9277 1.9277.099609.10742c.078991-.11387.16798-.22302.27148-.32422.36248-.35436.80476-.55278 1.2598-.61328l1.0977-1.0977 1.9258 1.9277.40039.43555.40039-.43555 1.9277-1.9277.59766.59961.75586-.8457-.95508-.95508-.39844-.43555-.40039.43555-1.9277 1.9277-1.9277-1.9277-.39844-.43555-.40039.43555-1.9277 1.9277-1.9277-1.9277z" fill="#d65532"/></svg>