<svg viewBox="0 0 24 24" xmlns="http://www.w3.org/2000/svg"><g stroke-width=".999999" transform="matrix(1.00000001 0 0 1.00000001 0 -.000008)"><path d="m3 2v19h5v-1.5c0-.432593.1940807-.828873.4980469-1.105469.2677906-.243677.6208435-.394531 1.0019531-.394531h1.005859 1.994141c.813703 0 1.5.686297 1.5 1.5 0 .662853-.457681 1.234142-1.066406 1.425781.040524.026682.083857.048559.125.074219h1.941406v-4h-1.5c-.813703 0-1.5-.686297-1.5-1.5s.686297-1.5 1.5-1.5h1.5v-.572266c-1.112875-.601945-1.9979-1.651784-2-2.925781v-.001953c0-.9162979.37747-1.8266889 1.025391-2.4746094.64792-.6479204 1.558311-1.0253906 2.474609-1.0253906s1.826689.3774702 2.474609 1.0253906c.647921.6479205 1.025391 1.5583115 1.025391 2.4746094-.000138 1.275824-.885603 2.32879-2 2.931641v.568359h1.5c.813703 0 1.5.686297 1.5 1.5s-.686297 1.5-1.5 1.5h-1.5v4h1.949219c.039845-.024886.081828-.046415.121093-.072266-.610793-.190319-1.070312-.763382-1.070312-1.427734 0-.813703.686297-1.5 1.5-1.5h1.5v-16z" fill="#fafafa"/><path d="m7 2v4h-4v1h4v4h-4v1h4v4h-4v1h4v4h1v-1.5-2.5h4v1h.5c.174891 0 .34243.035891.5.09375v-1.09375h.5c-.813703 0-1.5-.686297-1.5-1.5v.5h-4v-4h4v3.5c0-.638812.424453-1.194913 1-1.40625v-2.09375h.447266c-.189859-.308184-.331264-.641342-.398438-1h-.048828v-.498047-.001953-3.5h3.5.5v.0507812c.347234.0517149.68281.1537657 1 .3046876v-.3554688h4v-1h-4v-4h-1v4h-4v-4h-1v4h-4v-4zm1 5h4v4h-4zm11.951172 4c-.066756.357895-.20758.692154-.396484 1h2.445312v-1zm.955078 5c-.211337.575547-.767438 1-1.40625 1h2.5v-1zm-7.90625 4.892578c-.023383.008663-.04254.02569-.066406.033203.021476.014141.044755.02521.066406.039063z" fill="#797774"/><path d="m3 1c-.554 0-1 .4459969-1 1v19c0 .554003.446 1 1 1h5v-1h-5v-19h19v16h.498047.501953v-16c0-.5540031-.446-1-1-1z" fill="#3a3a38"/></g><g fill="#1e8bcd"><g transform="translate(0 .000128)"><path d="m12 7v4h-4v-4z" opacity=".5" stroke-width=".561952"/><path d="m7 6v1 4 1h6v-1-4-1zm1 1h4v4h-4z"/></g><path d="m16.5 8a2.5 2.5 0 0 0 -2.5 2.5 2.5 2.5 0 0 0 2 2.445313v2.054687h-2.5c-.277 0-.5.223-.5.5s.223.5.5.5h2.5v6.974609a7.5 7.5 0 0 1 -5.490234-2.974609h1.990234c.277 0 .5-.223.5-.5s-.223-.5-.5-.5h-3c-.277 0-.5.223-.5.5v3c0 .277.223.5.5.5s.5-.223.5-.5v-1.550781a8.5 8.5 0 0 0 6.5 3.050781 8.5 8.5 0 0 0 6.5-3.042969v1.542969c0 .277.223.5.5.5s.5-.223.5-.5v-3c0-.277-.223-.5-.5-.5h-3c-.277 0-.5.223-.5.5s.223.5.5.5h1.988281a7.5 7.5 0 0 1 -5.488281 2.974609v-6.974609h2.5c.277 0 .5-.223.5-.5s-.223-.5-.5-.5h-2.5v-2.050781a2.5 2.5 0 0 0 2-2.449219 2.5 2.5 0 0 0 -2.5-2.5zm0 1a1.5 1.5 0 0 1 1.5 1.5 1.5 1.5 0 0 1 -1.5 1.5 1.5 1.5 0 0 1 -1.5-1.5 1.5 1.5 0 0 1 1.5-1.5z"/></g></svg>