<svg viewBox="0 0 24 24" xmlns="http://www.w3.org/2000/svg"><path d="m5.484375 9c-.130048.0041-.25337.0587498-.34375.1523438l-2.9160156 2.9121092c-.173289.160599-.2230094.266429-.2246094.435547.0016.169118.0513204.274898.2246094.435547l2.9160156 2.912109c.09038.09359.213702.148244.34375.152344.454318.0115.6868471-.540283.3613281-.857422l-2.1484375-2.144531h2.8183594c.0036959-.00013.0060299.002145.0097656.001953h5.4746094 5.474609c.003736.000192.00607-.002083.009766-.001953h2.818359l-2.148437 2.144531c-.325519.317139-.09299.868922.361328.857422.130048-.0041.25337-.058754.34375-.152344l2.916016-2.912109c.173289-.160649.223009-.266429.224609-.435547-.0016-.169118-.05132-.274948-.224609-.435547l-2.916016-2.9121092c-.09038-.093594-.213702-.1482438-.34375-.1523438-.454318-.011504-.686847.5402829-.361328.8574219l2.148437 2.1445311h-2.818359c-.003696.000129-.00603-.002144-.009766-.001953h-5.474609-5.4746094c-.0037357-.000191-.0060697.002082-.0097656.001953h-2.8183594l2.1484375-2.1445311c.325519-.317139.0929899-.8689259-.3613281-.8574219z" fill="#1e8bcd" fill-rule="evenodd"/></svg>