<svg viewBox="0 0 24 24" xmlns="http://www.w3.org/2000/svg"><path d="m8.7265625 2.0058594-5.625 14.9941406h1.609375c.1749651 0 .3235975-.049539.4453125-.148438.129322-.09889.2160757-.212473.2617188-.341796l1.2363281-3.509766h6.2500001l.361328 1.025391c.076827-.012676.154569-.025391.234375-.025391h1.5v-.572266c-1.112875-.601945-1.9979-1.651784-2-2.925781v-.001953c0-.5614438.155248-1.1133403.414062-1.6113281l-2.576171-6.8828125zm1.0507813 1.9628906c.0684659.2814657.1407259.5436795.2167968.7871094.0760724.2434298.1524444.4560994.2285154.6386718l1.976563 5.6054688h-4.839844l1.9726562-5.59375c.0684644-.1825724.140726-.3952421.2167969-.6386719.0760731-.2434298.1524438-.5097552.2285157-.7988281z" fill="#3a3a38" stroke-width=".750147"/><path d="m16.5 8a2.5 2.5 0 0 0 -2.5 2.5 2.5 2.5 0 0 0 2 2.445313v2.054687h-2.5c-.277 0-.5.223-.5.5s.223.5.5.5h2.5v6.974609a7.5 7.5 0 0 1 -5.490234-2.974609h1.990234c.277 0 .5-.223.5-.5s-.223-.5-.5-.5h-3c-.277 0-.5.223-.5.5v3c0 .277.223.5.5.5s.5-.223.5-.5v-1.550781a8.5 8.5 0 0 0 6.5 3.050781 8.5 8.5 0 0 0 6.5-3.042969v1.542969c0 .277.223.5.5.5s.5-.223.5-.5v-3c0-.277-.223-.5-.5-.5h-3c-.277 0-.5.223-.5.5s.223.5.5.5h1.988281a7.5 7.5 0 0 1 -5.488281 2.974609v-6.974609h2.5c.277 0 .5-.223.5-.5s-.223-.5-.5-.5h-2.5v-2.050781a2.5 2.5 0 0 0 2-2.449219 2.5 2.5 0 0 0 -2.5-2.5zm0 1a1.5 1.5 0 0 1 1.5 1.5 1.5 1.5 0 0 1 -1.5 1.5 1.5 1.5 0 0 1 -1.5-1.5 1.5 1.5 0 0 1 1.5-1.5z" fill="#1e8bcd"/></svg>