<svg version="1.1" viewBox="0 0 24 24" xmlns="http://www.w3.org/2000/svg">
 <path d="m3 3h18v18h-18z" fill="#fff"/>
 <path d="m3 2c-0.554 0-1 0.446-1 1v18c0 0.554 0.446 1 1 1h8.8379l0.24609-1h-3.084v-3h4.3926l1.002-1h-5.3945v-3h6v2.3945l1-0.99805v-1.3965h1.3984l0.19922-0.19922 0.70703-0.70703 0.007812 0.007812 0.10156-0.10156h-2.4141v-3h5v1.2715c0.36248 0.036636 0.72126 0.18842 0.99805 0.46484l0.001953 0.001953v-8.7383c0-0.554-0.446-1-1-1h-18zm0 1h5v6h-5v-6zm6 0h6v6h-6v-6zm7 0h5v6h-5v-6zm-13 7h5v3h-5v-3zm6 0h6v3h-6v-3zm-6 4h5v3h-5v-3zm19 3.1465-0.61719 0.5918-0.003906-0.003906-0.37891 0.38086v2.8848h-2.8672l-0.99414 1h3.8613c0.554 0 1-0.446 1-1v-3.8535zm-19 0.85352h5v3h-5v-3z" fill="#808080"/>
 <path d="m2 2h20v4h-20z" fill="#4d82b8"/>
 <g transform="matrix(.86194 0 0 .86196 3.2376 2.775)" fill="#eac282" stroke-width="1.3536">
  <path d="m17.48 13.611-5.5293 5.5234-0.95117 3.8652 3.8066-1.0117 5.5098-5.5449z"/>
  <path d="m20.42 11c-0.18956 0-0.37818 0.07172-0.52344 0.2168l-1.6738 1.6699 2.8477 2.8496 1.7109-1.6387c0.29051-0.29013 0.29051-0.75675 0-1.0469l-1.8359-1.834c-0.14525-0.14506-0.33583-0.2168-0.52539-0.2168z"/>
 </g>
</svg>
