<?xml version="1.0" encoding="UTF-8" standalone="no"?>
<svg
   xmlns:dc="http://purl.org/dc/elements/1.1/"
   xmlns:cc="http://creativecommons.org/ns#"
   xmlns:rdf="http://www.w3.org/1999/02/22-rdf-syntax-ns#"
   xmlns:svg="http://www.w3.org/2000/svg"
   xmlns="http://www.w3.org/2000/svg"
   id="svg18"
   version="1.1"
   viewBox="0 0 24 24">
  <metadata
     id="metadata24">
    <rdf:RDF>
      <cc:Work
         rdf:about="">
        <dc:format>image/svg+xml</dc:format>
        <dc:type
           rdf:resource="http://purl.org/dc/dcmitype/StillImage" />
        <dc:title></dc:title>
      </cc:Work>
    </rdf:RDF>
  </metadata>
  <defs
     id="defs22" />
  <path
     id="path2"
     fill-rule="evenodd"
     fill="#fff"
     d="m3 16h10v-9-1l-3-3h-7z" />
  <path
     id="path4"
     fill="#808080"
     d="m2.857422 2c-.474857 0-.857422.3825647-.857422.8574219v13.2851561c0 .474857.382565.857422.857422.857422h10.285156c.474857 0 .857422-.382565.857422-.857422v-10.142578l-1-1-2-2-1-1zm .142578 1h6v3.1425781c0 .474857.382565.8574219.857422.8574219h3.142578v9h-10zm7 .4140625 2.585938 2.5859375h-2.585938z" />
  <rect
     id="rect6"
     y="13"
     x="4"
     width="8"
     ry=".5"
     height="1"
     fill="#4d82b8" />
  <rect
     id="rect8"
     y="10"
     x="4"
     width="8"
     ry=".5"
     height="1"
     fill="#4d82b8" />
  <path
     id="path10"
     fill-rule="evenodd"
     fill="#fff"
     d="m 10.000792,6.4073602 h 10 v 8.9999998 1 l -3,3 h -7 z" />
  <path
     id="path12"
     fill="#808080"
     d="m 9.8582136,5.4073602 c -0.474857,0 -0.857422,0.3825647 -0.857422,0.8574219 V 19.549938 c 0,0.474857 0.382565,0.857422 0.857422,0.857422 H 20.14337 c 0.474857,0 0.857422,-0.382565 0.857422,-0.857422 V 9.4073602 l -1,-1 -2,-2 -1,-1 z m 0.1425784,1 h 6 v 3.142578 c 0,0.4748568 0.382565,0.8574218 0.857422,0.8574218 h 3.142578 v 9 h -10 z m 7,0.4140625 2.585938,2.5859375 h -2.585938 z" />
  <rect
     rx="0.5"
     id="rect14"
     y="16.40736"
     x="11.000792"
     width="8"
     ry="0.5"
     height="1"
     fill="#4d82b8" />
  <rect
     rx="0.5"
     id="rect16"
     y="13.40736"
     x="11.000792"
     width="8"
     ry="0.5"
     height="1"
     fill="#4d82b8" />
  <path
     id="path878"
     stroke-width="2"
     stroke-linecap="square"
     fill="#eac282"
     d="m 17.787436,12.09011 c -1.641266,0.688222 -3.282535,0.969344 -4.923801,1.230949 v 5.128959 c 0,1.436162 2.659711,3.398064 4.923801,4.308326 2.26409,-0.910262 4.923801,-2.872164 4.923801,-4.308326 V 13.321059 C 21.06997,13.059454 19.428702,12.778332 17.787436,12.09011 Z"
     style="opacity:1;fill:#ffffff;stop-opacity:1" />
  <g
     style="stroke-width:2.81746"
     id="g853"
     transform="matrix(0.35492961,0,0,0.35492961,12.108563,11.745354)">
    <path
       id="path839"
       stroke-width="2"
       stroke-linecap="square"
       fill="#eac282"
       d="M 16,3 C 12.000003,4.6772979 7.9999982,5.362431 4,6 v 12.5 c 0,3.500131 6.482091,8.281561 12,10.5 5.517909,-2.218439 12,-6.999869 12,-10.5 V 6 C 24.000003,5.362431 19.999997,4.6772979 16,3 Z" />
    <path
       style="stroke-width:2.81746"
       id="path841"
       fill="#fff"
       d="m 16,7.0000003 c -1.104569,0 -2,0.895431 -2,1.9999997 0,2 0.666667,4.666667 1.333333,10 h 1.333334 C 17.333333,13.666667 18,11 18,9 18,7.8954313 17.104569,7.0000003 16,7.0000003 Z M 16,21 c -1.104569,0 -2,0.895431 -2,2 0,1.104569 0.895431,2 2,2 1.104569,0 2,-0.895431 2,-2 0,-1.104569 -0.895431,-2 -2,-2 z" />
  </g>
</svg>
