<svg viewBox="0 0 24 24" xmlns="http://www.w3.org/2000/svg"><rect fill="#1e8bcd" height="1" ry=".44607" stroke-width=".62639" width="7.8474" x="14.153" y="3"/><g fill="#3a3a38"><rect height="1" ry=".44607" width="20" x="2" y="21"/><rect height="1" ry=".44607" width="20" x="2" y="18"/></g><path d="m6.0195312 3c-.025732 0-.048613.00531-.074219.00586-.200914.00243-.4013562.020055-.5996094.052734-.00473.0007995-.00892.00117-.013672.00195-1.9218298.3180873-3.3314849 1.9797617-3.3320308 3.9277372.00269 1.3847676.7245386 2.6687199 1.90625 3.3906248.047967.03013.095222.06172.1445312.08984.1365652.07526.2774328.142432.421875.201172.1091601.04623.2201044.08456.3339844.121094.38422.12322.7875406.203125 1.2128906.203125v5.005863h.9804688v-12h2v12h1.017578v-11.6679688l2.982422-.6660156v-.6660156z" fill="#1e8bcd"/></svg>