<?xml version="1.0" encoding="UTF-8"?>
<svg width="24" height="24" version="1.1" viewBox="0 0 24 24" xmlns="http://www.w3.org/2000/svg">
 <g stroke-width=".625">
  <path d="m4.8908 2.0056c-0.57298 0.10933-1.0259 0.66657-1.0156 1.2497v17.495c6.25e-5 0.6543 0.5955 1.2496 1.25 1.2497h13.749c0.65445-6.2e-5 1.2499-0.59536 1.25-1.2497v-10.909c0.0075-0.32998-0.12187-0.66103-0.35155-0.89819l-6.5878-6.5858c-0.23722-0.22956-0.56834-0.35911-0.8984-0.35146h-7.1617c-0.077872-0.0075-0.15647-0.0075-0.23437 0z" fill="#4d82b8"/>
  <path d="m15.537 2.0096c-0.41601 0.13325-0.55602 0.76657-0.2353 1.0644l3.7648 3.7845c0.3478 0.33151 1.0405 0.047856 1.0589-0.43364v-3.7845c-3.7e-5 -0.33026-0.29894-0.63072-0.62748-0.63076h-3.7648c-0.06487-0.01-0.13124-0.01-0.19608 0z" fill="#4d82b8"/>
  <path d="m5.1253 3.2572v17.5h13.75v-11.074l-0.09765-0.09762-6.2108-6.25-0.07812-0.078125h-7.0506z" fill="#fff"/>
  <path d="m5.7503 3.8822h6.2865l6.213 6.25v10h-12.5z" fill="#fff"/>
 </g>
 <g transform="matrix(.625 0 0 .625 2 2)" fill="#4d82b8">
  <path d="m7.9989 15.996h4.9999v2h-4.9999z"/>
  <path d="m7.9989 11.996h4.9999v2h-4.9999z"/>
  <path d="m7.9989 19.996h16v2h-16z"/>
  <path d="m7.9989 23.996h12v2h-12z"/>
 </g>
 <path d="m11.999 10.123h4.3749v2.5h-4.3749z" fill="#fff" stroke-width=".625"/>
 <path d="m11.374 9.4975v3.75h5.625v-3.75zm0.625 0.625h4.375v2.1875l-0.9375-0.9375-0.9375 0.625-1.25-1.5625-1.25 1.875z" fill="#4d82b8" stroke-width=".625"/>
</svg>
