<svg version="1.1" viewBox="0 0 24 24" xmlns="http://www.w3.org/2000/svg">
 <g fill="#e68497">
  <rect transform="matrix(0,-1,-1,0,0,0)" x="-5" y="-22" width="1" height="20" ry=".5"/>
  <path d="m2.5 19c-0.277 0-0.5 0.223-0.5 0.5s0.223 0.5 0.5 0.5h10.723l0.98828-1h-11.711z"/>
  <rect transform="matrix(0,-1,-1,0,0,0)" x="-12" y="-22" width="1" height="20" ry=".5"/>
 </g>
 <g transform="translate(29.799,-10.333)">
  <path d="m-7.0909 31.272-2.4878-2.5314 2.3938-2.6518-1.7256-1.6426-2.4636 2.5271-2.5135-2.5271-1.7954 1.703 2.5135 2.5807-2.5135 2.5395 1.7954 1.7689 2.5107-2.6535 2.5164 2.6535z" fill="#e68497"/>
 </g>
</svg>
