<svg version="1.1" viewBox="0 0 24 24" xmlns="http://www.w3.org/2000/svg" xmlns:cc="http://creativecommons.org/ns#" xmlns:dc="http://purl.org/dc/elements/1.1/" xmlns:rdf="http://www.w3.org/1999/02/22-rdf-syntax-ns#">
 <metadata>
  <rdf:RDF>
   <cc:Work rdf:about="">
    <dc:format>image/svg+xml</dc:format>
    <dc:type rdf:resource="http://purl.org/dc/dcmitype/StillImage"/>
    <dc:title/>
   </cc:Work>
  </rdf:RDF>
 </metadata>
 <path d="m9.0681 1.1297 1.9319 0.51764-4.9176 18.353-1.9319-0.51764z" fill="#b3b3b3" stroke-width="3.0822"/>
 <path d="m17.989 4c-0.701 0-1.3558 0.16221-1.9638 0.48785-0.60801 0.3177-1.1367 0.80606-1.5874 1.4653-0.44349 0.65922-0.79363 1.493-1.0511 2.5017-0.25751 1.0007-0.38707 2.1843-0.38707 3.5503 0 1.3661 0.12956 2.5538 0.38707 3.5625 0.25751 1.0007 0.60765 1.8304 1.0511 2.4896 0.45064 0.65128 0.97935 1.1414 1.5874 1.467 0.60801 0.3177 1.2628 0.47569 1.9638 0.47569s1.3558-0.158 1.9638-0.47569c0.61516-0.32564 1.1474-0.81574 1.598-1.467 0.45064-0.65922 0.80428-1.4888 1.0618-2.4896 0.25751-1.0087 0.38707-2.1964 0.38707-3.5625s-0.12956-2.5496-0.38707-3.5503c-0.25751-1.0087-0.61115-1.8425-1.0618-2.5017-0.45064-0.65922-0.98285-1.1476-1.598-1.4653-0.60801-0.32564-1.2628-0.48785-1.9638-0.48785zm0 1.6806c0.41488 0 0.81229 0.10674 1.1914 0.32118 0.37911 0.21445 0.71174 0.56833 0.99787 1.0608 0.29328 0.49243 0.52612 1.143 0.6978 1.9531 0.17168 0.80218 0.25746 1.7982 0.25746 2.9896s-0.08578 2.1933-0.25746 3.0035c-0.17167 0.80218-0.40452 1.4485-0.6978 1.941-0.28612 0.49243-0.61876 0.84632-0.99787 1.0608-0.37911 0.2065-0.77653 0.30903-1.1914 0.30903-0.41488 0-0.81229-0.10252-1.1914-0.30903-0.37196-0.21445-0.70459-0.56833-0.99787-1.0608-0.28612-0.49243-0.51547-1.1388-0.68714-1.941-0.17167-0.81013-0.25746-1.8121-0.25746-3.0035s0.08579-2.1874 0.25746-2.9896c0.17167-0.81013 0.40102-1.4607 0.68714-1.9531 0.29328-0.49243 0.62591-0.84632 0.99787-1.0608 0.37911-0.21445 0.77653-0.32118 1.1914-0.32118z" fill="#4d82b8"/>
</svg>
