<svg version="1.1" viewBox="0 0 24 24" xmlns="http://www.w3.org/2000/svg">
 <path d="m4 3v12h2v-3c0-1.0907 0.9093-2 2-2s2 0.9093 2 2v3h3c0.36397 0 0.70348 0.10774 1 0.2832v-12.283zm11 0v18h7v-18zm-1 15.717c-0.29652 0.17546-0.63603 0.2832-1 0.2832h-3v2h4zm-10 0.2832v2h2v-2z" fill="#fff"/>
 <path d="m14 2v4h-4v3h4v1h-4v2c0-0.72673-0.40794-1.3664-1-1.7168v-0.2832h-5v3h2v1h-2v1h-1v-13h6zm-5 4h-5v3h5zm5 7v1h-4v-1zm-10 6v2h2v1h-2c-0.554 0-1-0.446-1-1v-2zm10 2v1h-4v-1z" fill="#808080"/>
 <g transform="matrix(-1,0,0,1,25,0)" fill="#4d82b8">
  <path d="m2 2v19.5c0 0.277 0.223 0.5 0.5 0.5h7.5v-20zm1 4h6v3h-6zm0 4h6v3h-6zm0 4h6v3h-6zm0 4h6v3h-6v-0.5z"/>
  <path d="m17 11c0.554 0 1 0.446 1 1v4h4c0.554 0 1 0.446 1 1s-0.446 1-1 1h-4v4c0 0.554-0.446 1-1 1s-1-0.446-1-1v-4h-4c-0.554 0-1-0.446-1-1s0.446-1 1-1h4v-4c0-0.554 0.446-1 1-1z"/>
 </g>
</svg>
