<svg version="1.1" viewBox="0 0 24 24" xmlns="http://www.w3.org/2000/svg">
 <path d="m21 3v12h-2v-3c0-1.0907-0.9093-2-2-2s-2 0.9093-2 2v3h-3c-0.36397 0-0.70348 0.10774-1 0.2832v-12.283zm-11 0v18h-7v-18zm1 15.717c0.29652 0.17546 0.63603 0.2832 1 0.2832h3v2h-4zm10 0.2832v2h-2v-2z" fill="#fff"/>
 <path d="m11 2v4h4v3h-4v1h4v2c0-0.72673 0.40794-1.3664 1-1.7168v-0.2832h5v3h-2v1h2v1h1v-13h-6zm5 4h5v3h-5zm-5 7v1h4v-1zm10 6v2h-2v1h2c0.554 0 1-0.446 1-1v-2zm-10 2v1h4v-1z" fill="#808080"/>
 <g fill="#4d82b8">
  <path d="m2 2v19.5c0 0.277 0.223 0.5 0.5 0.5h7.5v-20zm1 4h6v3h-6zm0 4h6v3h-6zm0 4h6v3h-6zm0 4h6v3h-6v-0.5z"/>
  <path d="m17 11c0.554 0 1 0.446 1 1v4h4c0.554 0 1 0.446 1 1s-0.446 1-1 1h-4v4c0 0.554-0.446 1-1 1s-1-0.446-1-1v-4h-4c-0.554 0-1-0.446-1-1s0.446-1 1-1h4v-4c0-0.554 0.446-1 1-1z"/>
 </g>
</svg>
