<svg version="1.1" viewBox="0 0 24 24" xmlns="http://www.w3.org/2000/svg">
 <g fill="#808080">
  <path d="m11 12c-0.554 0-1 0.446-1 1v6c0 0.554 0.446 1 1 1h3c0.554 0 1-0.446 1-1v-6c0-0.554-0.446-1-1-1zm0 1h3v6h-3z"/>
  <path d="m15 10c-0.554 0-1 0.446-1 1v8c0 0.554 0.446 1 1 1h3c0.554 0 1-0.446 1-1v-8c0-0.554-0.446-1-1-1zm0 1h3v8h-3z"/>
  <path d="m8 6c-0.554 0-1 0.446-1 1v12c0 0.554 0.446 1 1 1h2c0.554 0 1-0.446 1-1v-12c0-0.554-0.446-1-1-1z" fill="#4d82b8"/>
  <rect transform="matrix(0,-1,-1,0,0,0)" x="-20" y="-22" width="1" height="20" ry=".5"/>
 </g>
 <path d="m15 11h3v8h-3z" fill="#fff"/>
 <path d="m11 13h3v6h-3z" fill="#fff"/>
 <rect transform="scale(-1,1)" x="-5" y="2" width="1" height="20" ry=".5" fill="#808080"/>
 <path d="m16.699 2c-0.54735 0.00117-1.0847 0.15195-1.5524 0.43628-0.13139 0.079629-0.15335 0.26136-0.04471 0.36999 0.0099 0.00999 0.01277 0.012698 0.02004 0.020041 0.06536 0.065991 0.1666 0.16624 0.23278 0.23279 0.01476 0.01443 0.03134 0.026869 0.04933 0.036999l1.0915 1.0915c0.09244 0.092231 0.24209 0.092231 0.33453 0l0.24512-0.24358c0.09223-0.092439 0.09223-0.24209 0-0.33453l-0.72456-0.72456c0.1169-0.020076 0.22935-0.063954 0.34841-0.064748 1.207 0 2.1799 0.97281 2.1799 2.1799-5.7e-5 0.36575-0.09112 0.72591-0.2667 1.0468-0.05065 0.092788-0.03366 0.20791 0.04162 0.28212 0.08132 0.079941 0.18324 0.18134 0.25129 0.2482 0.04594 0.045149 0.10828 0.069643 0.17266 0.067831 0.08095-0.00179 0.15538-0.044819 0.19733-0.11408 0.27588-0.46264 0.42279-0.99219 0.42395-1.5308 0-1.6537-1.3463-3-3-3zm-2.3787 1.3551c-0.08095 0.00179-0.15538 0.044819-0.19733 0.11408-0.27588 0.46264-0.42278 0.99219-0.42395 1.5308 0 1.6537 1.3463 3 3 3 0.54735-0.00117 1.0847-0.15195 1.5524-0.43628 0.13139-0.079629 0.15335-0.26136 0.04471-0.36999-0.0099-0.00999-0.01277-0.012698-0.02004-0.020041-0.06536-0.065991-0.1666-0.16624-0.23278-0.23279-0.01476-0.01443-0.03134-0.026869-0.04933-0.036999l-1.0915-1.0915c-0.09244-0.092231-0.24209-0.092231-0.33453 0l-0.24512 0.24358c-0.09223 0.09244-0.09223 0.24209 0 0.33453l0.72456 0.72456c-0.1169 0.020076-0.22935 0.063954-0.34841 0.064748-1.207 0-2.1799-0.97281-2.1799-2.1799 5.6e-5 -0.36575 0.09112-0.72591 0.2667-1.0468 0.05065-0.092789 0.03366-0.20791-0.04162-0.28212-0.08133-0.079941-0.18325-0.18134-0.25129-0.2482-0.04594-0.04515-0.10828-0.069643-0.17266-0.067831z" color="#000000" color-rendering="auto" dominant-baseline="auto" fill="#4d82b8" image-rendering="auto" shape-rendering="auto" solid-color="#000000" style="font-feature-settings:normal;font-variant-alternates:normal;font-variant-caps:normal;font-variant-ligatures:normal;font-variant-numeric:normal;font-variant-position:normal;isolation:auto;mix-blend-mode:normal;shape-padding:0;text-decoration-color:#000000;text-decoration-line:none;text-decoration-style:solid;text-indent:0;text-orientation:mixed;text-transform:none;white-space:normal"/>
</svg>
