<svg version="1.1" viewBox="0 0 24 24" xmlns="http://www.w3.org/2000/svg">
 <path d="m9.9844 2.5215a2.8482 2.8482 0 0 0-2.8477 2.8477 2.8482 2.8482 0 0 0 1.8984 2.6836v1.1133h-1.8984c-0.52597 0-0.94922 0.42325-0.94922 0.94922 0 0.52597 0.42325 0.94922 0.94922 0.94922h1.8984v8.4785c-1.6167-0.20605-3.1259-0.92292-4.3027-2.0547l1.0078-0.70703a0.93446 1.0356 0 0 0-0.49219-1.918 0.93446 1.0356 0 0 0-0.50586 0.16797l-3.7949 2.6523a0.9348 1.036 0 1 0 0.99805 1.752l1.2129-0.84766c1.66 1.726 3.9102 2.7598 6.3066 2.8945l1.4688-4.1699v-6.248h1.9004c0.11544 0 0.22205-0.02705 0.32422-0.064453l0.47852-1.3594c-0.16517-0.27827-0.45437-0.47461-0.80274-0.47461h-1.9004v-1.1152a2.8482 2.8482 0 0 0 1.9004-2.6816 2.8482 2.8482 0 0 0-2.8496-2.8477zm0 1.8984a0.94941 0.94941 0 0 1 0.94922 0.94922 0.94941 0.94941 0 0 1-0.94922 0.94922 0.94941 0.94941 0 0 1-0.94922-0.94922 0.94941 0.94941 0 0 1 0.94922-0.94922z" fill="#4d82b8" stroke-width=".94941"/>
 <path d="m15.185 8.2565-4.8438 13.744h2.0521c0.22016 0 0.4035-0.06237 0.55028-0.18656 0.15345-0.13109 0.25666-0.27233 0.31004-0.42412l0.83079-2.691h4.8935l0.84018 2.7017c0.06672 0.17248 0.16993 0.31756 0.31004 0.43486 0.1401 0.11039 0.32751 0.16508 0.56102 0.16508h2.0213l-4.8438-13.744zm1.3314 2.5044c0.08673 0.33807 0.1723 0.65241 0.25903 0.94218 0.08673 0.28287 0.17092 0.53101 0.25098 0.74489l1.3502 4.3459h-3.7016l1.3502-4.3351c0.07339-0.21388 0.15351-0.46585 0.24024-0.75563 0.08673-0.28977 0.17092-0.60412 0.25098-0.94218z" fill="#696969" stroke-width=".68718"/>
</svg>
