<svg height="24" viewBox="0 0 24 24" width="24" xmlns="http://www.w3.org/2000/svg"><g transform="translate(-420.71429 -524.79074)"><circle cx="432.71429" cy="536.79071" fill="#fff" r="6"/><circle cx="421.71429" cy="-504.57132" r="0"/><path d="m432.71429 528.79074a7.9999995 8.0000081 0 0 0 -8 8 7.9999995 8.0000081 0 0 0  8 8 7.9999995 8.0000081 0 0 0  8-8 7.9999995 8.0000081 0 0 0 -8-8zm-3.29297 4l3.29297 3.29297 3.29297-3.29297.70703.70703-3.29297 3.29297 3.29297 3.29297-.70703.70703-3.29297-3.29297-3.29297 3.29297-.70703-.70703 3.29297-3.29297-3.29297-3.29297z" fill="#da4453"/></g></svg>