<svg height="24" viewBox="0 0 24 24" width="24" xmlns="http://www.w3.org/2000/svg"><g fill="#4d4d4d" transform="translate(1 -1029.3622)"><path d="m6 4c-1.108 0-2 .8919999-2 2l0 12c0 1.108.892 2 2 2l12 0c1.108 0 2-.892 2-2l0-12c0-1.1080001-.892-2-2-2l-12 0zm0 1l12 0c .554 0 1 .4459999 1 1l0 12c0 .554-.446 1-1 1l-12 0c-.554 0-1-.446-1-1l0-12c0-.5540001.446-1 1-1z" overflow="visible" transform="translate(-1 1029.3622)"/><rect height="12" overflow="visible" rx="1" ry="0" transform="translate(-1 1029.3622)" width="12" x="6" y="6.0000172"/></g></svg>