<svg height="24" viewBox="0 0 24 24" width="24" xmlns="http://www.w3.org/2000/svg"><g fill="#4d4d4d" transform="translate(1 -1029.3622)"><path d="m16.5 5c-1.932997 0-3.5 1.7909-3.5 4l0 6c0 2.2091 1.567003 4 3.5 4 1.932997 0 3.5-1.7909 3.5-4l0-6c0-2.2091-1.567003-4-3.5-4zm0 1c1.380712 0 2.5 1.3431 2.5 3l0 6c0 1.6569-1.119288 3-2.5 3-1.380712 0-2.5-1.3431-2.5-3l0-6c0-1.6569 1.119288-3 2.5-3z" overflow="visible" transform="translate(-1 1029.3622)"/><path d="m7.5 5c-1.932997 0-3.5 1.7909-3.5 4l0 6c0 2.2091 1.567003 4 3.5 4 1.932997 0 3.5-1.7909 3.5-4l0-6c0-2.2091-1.567003-4-3.5-4zm0 1c1.3807119 0 2.5 1.3431 2.5 3l0 6c0 1.6569-1.1192881 3-2.5 3-1.3807119 0-2.5-1.3431-2.5-3l0-6c0-1.6569 1.1192881-3 2.5-3z" overflow="visible" transform="translate(-1 1029.3622)"/><path d="m10 1047.3622h2v1.9999828h-2z" overflow="visible"/></g></svg>