<svg height="24" viewBox="0 0 24 24" width="24" xmlns="http://www.w3.org/2000/svg"><g fill="#4d4d4d" transform="translate(1 -1029.3622)"><path d="m12 4c-4.418278 0-8 3.581722-8 8 0 4.418278 3.581722 8 8 8 4.418278 0 8-3.581722 8-8 0-4.418278-3.581722-8-8-8zm0 1c3.865993 0 7 3.1340068 7 7 0 3.865993-3.134007 7-7 7-3.8659932 0-7-3.134007-7-7 0-3.8659932 3.1340068-7 7-7z" overflow="visible" transform="translate(-1 1029.3622)"/><path d="m18 12.000017c0 3.313709-2.686292 6-6 6-3.3137085 0-6-2.686291-6-6 0-3.3137083 2.6862915-5.9999998 6-5.9999998 3.313708 0 6 2.6862915 6 5.9999998z" overflow="visible" transform="translate(-1 1029.3622)"/></g></svg>