<svg height="24" width="24" xmlns="http://www.w3.org/2000/svg"><g transform="translate(2 -1029.3622)"><path d="m2 2.9980469v.0019531 1 15h1 8v-1h-5v-6h5v-1h-5-1v7h-2v-14h3v4 1h8v-1-4h .292969l2.707031 2.7070312v.2929688 3h1v-3-.6992188h-.0078l.0078-.00977-3.292969-3.2929687-.0078.00977v-.00977h-.699219-12zm5 1.0019531h3.900391v4h-3.900391zm11 7l-.996094.994141h-.0039l-5 4.998047.0078.0098-.0039 1.003906h-.0039v.990235.0098h2l .0059-.0098h.0039.0098l-.0059-.0098.986294-.986329 4-3.996094-.705078-.708984-4.990234 4.986328-.59375-.591797 4.992187-4.988281.591797.59375.705078.703125 1-1z" fill="#4d4d4d" transform="translate(0 1030.3622)"/><path d="m-21.999996 1033.3622h18v19.000021h-18z" fill="#1a1a1a" overflow="visible"/><path d="m-15.800781 1036.5594v2.8536h.138672v-2.8536zm3.173828 3.0235v.125h.5v3.375h.06445v.6426c.005.31.289219.4962.574219.6562.285.16.566406.2706.566406.5606v.2441c0 .32-.166094.5645-.496094.5645-.0332 0-.06385 0-.09375-.01l-.03906-.1133h-.138672v.047c-.16373-.1012-.245161-.2934-.238281-.5v-.3007h-.134766v.3007c-.004.3138.143357.5471.373047.6485v3.3047h.138672v-3.0743l1.05664 3.0743h.134766v-3.5h-.134766v3.1113l-.970703-2.8613c.0159.001.03057 0 .04687 0 .43 0 .63086-.3203.63086-.6953v-.2657c0-.33-.34625-.489-.65625-.664-.245-.14-.463516-.261-.478516-.541v-.7149c0-.37.188984-.5488.458984-.5488.15442 0 .262525.058.333985.1504v.4804h.111328v.3223h.134766v-.3223h.878906v-.1308h-.88086c-.005-.1434-.0408-.2715-.103515-.375v-.459h.779297v-.125h-.779297v-2.2852h.984375v-.125h-1.125v2.836c-.0893-.066-.201175-.1035-.333985-.1035-.26702 0-.440546.1328-.529297.332v-2.9395h.5v-.125h-1.134765zm-3.173828.029v.4472 2.2813h-.195313v.125h.195313v.6172h.138672v-.6172h.166015v3.375h.134766v-3.375h.5v-.125h-.800781v-.1836h.996093v.9258h.134766v-3.4707h-.134766v2.416h-.996093v-1.9688-.4472zm2.207031 0l-.537109 3.4707h.140625l.144531-.9649h.714844l.15039.9649h.140625l-.550781-3.4707zm.103516.1758l.339843 2.1953h-.673828zm-1.001954 2.5527v3.2715c-.0117-.0005-.02326 0-.03516 0-.39 0-.640625.319-.640625.709v2.1406c0 .39.240391.7051.650391.7051.43 0 .625-.3543.625-.6993v-.2558h-.134766v.2558c0 .3-.155234.5645-.490234.5645-.34 0-.509766-.2853-.509766-.5703v-2.1406c0-.36.209766-.5743.509766-.5743.009 0 .01709 0 .02539 0v .094h.138672v-.068c.21578.075.326172.2987.326172.5469l.0039.2754h.13086v-.2793c0-.3271-.177118-.6016-.460938-.6816v-.7188h.996094v.9258h.03711c-.0921.1238-.138672.2832-.138672.4492v2.1856c0 .38.239531.6894.644531.6894.42 0 .625-.3403.625-.6953v-2.1738c0-.2799-.128282-.5302-.357422-.6387v-3.3164h-.138672v3.2715c-.0405-.01-.08417-.012-.128906-.012-.16949 0-.304873.053-.408203.1386v-3.3984h-.134766v2.4453h-.996094v-2.4453h-.138672zm-1.308593 3.2891v3.5h.138672v-3.5zm2.986328.1c.0461 0 .08977.01.128906.016v.096h.138672v-.029c.1511.1039.222656.2941.222656.4844v2.1738c0 .305-.160234.5605-.490234.5605-.345 0-.503906-.2597-.503906-.5547v-2.1855c0-.31.158906-.5605.503906-.5605z" fill="#52d563"/></g></svg>
