<svg height="24" viewBox="0 0 24 24" width="24" xmlns="http://www.w3.org/2000/svg"><g transform="translate(1 -1029.3622)"><path d="m14 9.8925781v8.2929689l-2.292969-2.292969-.707031.707031 3.292969 3.292969.207031.207031.207031-.207031 3.292969-3.292969-.707031-.707031-2.292969 2.292969v-8.2929689zm-7.8886719.2070309v.814453h2.0722657l-2.1835938 3.253907v.732422h3.828125v-.851563h-2.2460938l2.1738282-3.292969v-.65625z" fill="#4d4d4d" transform="translate(-1 1029.3622)"/><path d="m7.095703 1033.3622c-.78324.018-1.385106.1551-1.822265.3555l.246093.9004c.20947-.073 1.002317-.3262 1.466797-.3262h.0625c.64663.027.69336.2628.69336.8183v.2188l-.337891.055c-1.56649.2265-2.404297.4186-2.404297 1.6208 0 .8379.610711 1.3574 1.494141 1.3574.6102 0 1.010092-.2555 1.419921-.6016l.126954.5098h.9667965v-3.3691c0-1.0292-.7117875-1.5391-1.8046875-1.5391zm.646485 2.6777v1.1192c-.336971.2277-.592137.3926-1.029297.3926-.39162 0-.583985-.2458-.583985-.5918 0-.6558.574111-.7651 1.275391-.8653l.337891-.055z" fill="#1d99f3"/></g></svg>