<svg version="1.1" viewBox="0 0 24 24" xmlns="http://www.w3.org/2000/svg"><path d="m2 3h19v18h-19z" fill="#fff" opacity=".5" stroke-width="1.8" style="paint-order:fill markers stroke"/><path d="m2 21h19v1h-19z"/><path d="m11 18v1h1v-1z" fill="#3a3a38"/><path d="m11 15v1h1v-1z" fill="#3a3a38"/><path d="m11 12v1h1v-1z" fill="#3a3a38"/><path d="m11 9v1h1v-1z" fill="#3a3a38"/><path d="m11 6v1h1v-1z" fill="#3a3a38"/><path d="m6 12h-1v1h1z" fill="#3a3a38"/><path d="m9 12h-1v1h1z" fill="#3a3a38"/><path d="m12 12h-1v1h1z" fill="#3a3a38"/><path d="m15 12h-1v1h1z" fill="#3a3a38"/><path d="m18 12h-1v1h1z" fill="#3a3a38"/><path d="m20 18v1h1v-1z" fill="#3a3a38"/><path d="m20 15v1h1v-1z" fill="#3a3a38"/><path d="m20 12v1h1v-1z" fill="#3a3a38"/><path d="m20 9v1h1v-1z" fill="#3a3a38"/><path d="m20 6v1h1v-1z" fill="#3a3a38"/><path d="m21 12h-1v1h1z" fill="#3a3a38"/><path d="m20 3v1h1v-1z" fill="#3a3a38"/><path d="m2 18v1h1v-1z" fill="#3a3a38"/><path d="m2 15v1h1v-1z" fill="#3a3a38"/><path d="m2 12v1h1v-1z" fill="#3a3a38"/><path d="m2 9v1h1v-1z" fill="#3a3a38"/><path d="m2 6v1h1v-1z" fill="#3a3a38"/><path d="m3 12h-1v1h1z" fill="#3a3a38"/><path d="m2 3v1h1v-1z" fill="#3a3a38"/><path d="m11 3v1h1v-1z" fill="#3a3a38"/><path d="m6 3h-1v1h1z" fill="#3a3a38"/><path d="m9 3h-1v1h1z" fill="#3a3a38"/><path d="m12 3h-1v1h1z" fill="#3a3a38"/><path d="m15 3h-1v1h1z" fill="#3a3a38"/><path d="m18 3h-1v1h1z" fill="#3a3a38"/><path d="m10.481 12.5 1.0194 1.0194 1.0194-1.0194-1.0194-1.0194z" fill="#f9f9f9" stroke="#3a3a38" stroke-width=".67962px"/></svg>
